<svg width="228" height="120" viewBox="0 0 228 120" fill="none" xmlns="http://www.w3.org/2000/svg">
<path d="M12 0C63.48 0 114.96 0 168 0C168 1.32 168 2.64 168 4C169.65 4 171.3 4 173 4C173 5.98 173 7.96 173 10C174.65 10 176.3 10 178 10C178 20.56 178 31.12 178 42C176.35 42 174.7 42 173 42C173 44.31 173 46.62 173 49C171.35 49 169.7 49 168 49C168 50.32 168 51.64 168 53C120.48 53 72.96 53 24 53C24 51.02 24 49.04 24 47C22.35 47 20.7 47 19 47C19 36.77 19 26.54 19 16C20.65 16 22.3 16 24 16C24 15.34 24 14.68 24 14C24.99 14 25.98 14 27 14C27 12.68 27 11.36 27 10C70.56 10 114.12 10 159 10C159 8.35 159 6.7 159 5C111.15 5 63.3 5 14 5C14 19.52 14 34.04 14 49C15.32 49 16.64 49 18 49C18.33 50.32 18.66 51.64 19 53C20.32 53.33 21.64 53.66 23 54C23 55.32 23 56.64 23 58C85.7 58 148.4 58 213 58C213 59.65 213 61.3 213 63C215.64 63 218.28 63 221 63C221 73.89 221 84.78 221 96C220.01 96 219.02 96 218 96C218 97.98 218 99.96 218 102C216.02 102 214.04 102 212 102C212 103.32 212 104.64 212 106C145.01 106 78.02 106 9 106C9 104.02 9 102.04 9 100C7.02 100 5.04 100 3 100C3 87.79 3 75.58 3 63C4.98 63 6.96 63 9 63C8.67 59.37 8.34 55.74 8 52C6.35 52 4.7 52 3 52C3 37.81 3 23.62 3 9C4.65 9 6.3 9 8 9C8 6.69 8 4.38 8 2C9.32 2 10.64 2 12 2C12 1.34 12 0.68 12 0Z" fill="#0C64AF"/>
<path d="M14 63C74.06 63 134.12 63 196 63C196.974 72.7369 197.16 81.3611 196.219 91.0078C195.976 94.3305 196 97.6685 196 101C136.27 101 76.54 101 15 101C15 99.35 15 97.7 15 96C13.02 96 11.04 96 9 96C9 86.76 9 77.52 9 68C10.65 68 12.3 68 14 68C14 66.35 14 64.7 14 63Z" fill="#78D4FD"/>
<path d="M12 0C63.48 0 114.96 0 168 0C168 1.32 168 2.64 168 4C169.65 4 171.3 4 173 4C173 5.98 173 7.96 173 10C174.65 10 176.3 10 178 10C178 20.56 178 31.12 178 42C176.35 42 174.7 42 173 42C173 44.31 173 46.62 173 49C171.35 49 169.7 49 168 49C168 50.32 168 51.64 168 53C120.48 53 72.96 53 24 53C24 51.35 24 49.7 24 48C94.785 48.495 94.785 48.495 167 49C166.67 47.68 166.34 46.36 166 45C166.99 45 167.98 45 169 45C169 35.43 169 25.86 169 16C167.68 16 166.36 16 165 16C165 14.02 165 12.04 165 10C163.02 10 161.04 10 159 10C159 8.35 159 6.7 159 5C111.15 5 63.3 5 14 5C14 19.52 14 34.04 14 49C15.32 49 16.64 49 18 49C18.33 50.32 18.66 51.64 19 53C20.32 53.33 21.64 53.66 23 54C23 55.32 23 56.64 23 58C85.7 58 148.4 58 213 58C213 59.65 213 61.3 213 63C215.64 63 218.28 63 221 63C221 73.89 221 84.78 221 96C220.01 96 219.02 96 218 96C218 97.98 218 99.96 218 102C216.02 102 214.04 102 212 102C212 103.32 212 104.64 212 106C145.01 106 78.02 106 9 106C9 104.02 9 102.04 9 100C7.02 100 5.04 100 3 100C3 87.79 3 75.58 3 63C4.98 63 6.96 63 9 63C8.67 59.37 8.34 55.74 8 52C6.35 52 4.7 52 3 52C3 37.81 3 23.62 3 9C4.65 9 6.3 9 8 9C8 6.69 8 4.38 8 2C9.32 2 10.64 2 12 2C12 1.34 12 0.68 12 0ZM14 63C14 64.65 14 66.3 14 68C12.35 68 10.7 68 9 68C9 77.24 9 86.48 9 96C10.98 96 12.96 96 15 96C15 97.65 15 99.3 15 101C74.73 101 134.46 101 196 101C196 96.71 196 92.42 196 88C196.33 86.02 196.66 84.04 197 82C197.386 75.597 196.639 69.3948 196 63C135.94 63 75.88 63 14 63Z" fill="#304182"/>
<path d="M6.125 100.875C7.07375 100.916 8.0225 100.957 9 101C9 102.65 9 104.3 9 106C75.99 106 142.98 106 212 106C212 104.68 212 103.36 212 102C221.996 100.389 221.996 100.389 226.188 102.938C226.786 103.618 227.384 104.299 228 105C227.017 108.166 226.078 108.958 223.125 110.562C213.445 114.238 203.373 115.643 193.125 116.625C191.98 116.746 190.836 116.867 189.656 116.992C171.005 118.861 152.27 119.167 133.539 119.203C132.518 119.206 131.497 119.209 130.445 119.212C125.039 119.227 119.634 119.236 114.228 119.24C109.844 119.245 105.46 119.258 101.076 119.281C13.483 119.726 13.483 119.726 0 107C0.836891 102.816 1.50958 101.06 6.125 100.875Z" fill="#CFD8ED"/>
<path d="M9 84C9.99 84 10.98 84 12 84C12 85.32 12 86.64 12 88C13.6397 87.9381 13.6397 87.9381 15.3125 87.875C19 88 19 88 22 90C22 90.66 22 91.32 22 92C22.4125 91.505 22.825 91.01 23.25 90.5C25 89 25 89 29 89C29.33 89.99 29.66 90.98 30 92C32.0151 92.7332 32.0151 92.7332 34 93C34 91.68 34 90.36 34 89C36.4947 87.7526 38.1778 87.873 40.9688 87.8706C42.0032 87.8675 43.0377 87.8643 44.1035 87.8611C45.2244 87.8631 46.3452 87.8651 47.5 87.8672C48.6466 87.8662 49.7932 87.8653 50.9746 87.8643C53.4023 87.8636 55.8301 87.8655 58.2578 87.8696C61.9844 87.875 65.7109 87.8697 69.4375 87.8633C71.7917 87.8639 74.1458 87.8652 76.5 87.8672C77.6208 87.8652 78.7417 87.8631 79.8965 87.8611C81.4482 87.8658 81.4482 87.8658 83.0312 87.8706C83.9446 87.8714 84.8579 87.8722 85.7988 87.873C88 88 88 88 90 89C90 89.66 90 90.32 90 91C91.32 91 92.64 91 94 91C94 90.01 94 89.02 94 88C96.64 88 99.28 88 102 88C102 89.32 102 90.64 102 92C102.99 92 103.98 92 105 92C105 90.68 105 89.36 105 88C117.54 88 130.08 88 143 88C143 89.32 143 90.64 143 92C144.32 92 145.64 92 147 92C147 91.01 147 90.02 147 89C151.054 87.8416 153.218 88.1631 157 90C157 90.66 157 91.32 157 92C157.99 91.67 158.98 91.34 160 91C160.33 90.01 160.66 89.02 161 88C163.31 88 165.62 88 168 88C168 88.99 168 89.98 168 91C168.99 91 169.98 91 171 91C171 90.01 171 89.02 171 88C178.92 88 186.84 88 195 88C195.33 92.29 195.66 96.58 196 101C136.27 101 76.54 101 15 101C15 99.35 15 97.7 15 96C13.02 96 11.04 96 9 96C9 92.04 9 88.08 9 84Z" fill="#3672E7"/>
<path d="M14 5C61.85 5 109.7 5 159 5C159 6.65 159 8.3 159 10C115.44 10 71.88 10 27 10C27 11.32 27 12.64 27 14C26.01 14 25.02 14 24 14C24 14.66 24 15.32 24 16C22.35 16 20.7 16 19 16C19 26.23 19 36.46 19 47C20.65 47 22.3 47 24 47C24 48.98 24 50.96 24 53C71.52 53 119.04 53 168 53C168 51.68 168 50.36 168 49C169.65 49 171.3 49 173 49C173 46.69 173 44.38 173 42C178.875 43.875 178.875 43.875 180 45C182.697 45.0732 185.367 45.0924 188.062 45.0625C188.821 45.058 189.58 45.0535 190.361 45.0488C192.241 45.037 194.12 45.0191 196 45C196.33 45.99 196.66 46.98 197 48C198.072 47.9587 199.145 47.9175 200.25 47.875C205.931 47.8546 211.433 48.9608 217 50C217 50.99 217 51.98 217 53C216.01 53.66 215.02 54.32 214 55C213.67 55.99 213.34 56.98 213 58C150.3 58 87.6 58 23 58C23 56.68 23 55.36 23 54C21.35 53.67 19.7 53.34 18 53C18 51.68 18 50.36 18 49C16.68 49 15.36 49 14 49C14 34.48 14 19.96 14 5Z" fill="#CEC8C1"/>
<path d="M12 0C63.48 0 114.96 0 168 0C168 1.32 168 2.64 168 4C169.65 4 171.3 4 173 4C173 5.98 173 7.96 173 10C174.65 10 176.3 10 178 10C178 20.56 178 31.12 178 42C176.35 42 174.7 42 173 42C173 44.31 173 46.62 173 49C171.35 49 169.7 49 168 49C168 50.32 168 51.64 168 53C120.48 53 72.96 53 24 53C24 51.35 24 49.7 24 48C94.785 48.495 94.785 48.495 167 49C166.67 47.68 166.34 46.36 166 45C166.99 45 167.98 45 169 45C169 35.43 169 25.86 169 16C167.68 16 166.36 16 165 16C165 14.02 165 12.04 165 10C163.02 10 161.04 10 159 10C159 8.35 159 6.7 159 5C110.49 5 61.98 5 12 5C12 3.35 12 1.7 12 0Z" fill="#261C36"/>
<path d="M19 68C32.53 68 46.06 68 60 68C59.67 69.32 59.34 70.64 59 72C59.99 72 60.98 72 62 72C62 70.68 62 69.36 62 68C63.98 68 65.96 68 68 68C68 69.32 68 70.64 68 72C69.32 72 70.64 72 72 72C72 73.32 72 74.64 72 76C73.32 76.33 74.64 76.66 76 77C76.9342 80.0103 77.0445 80.8665 76 84C99.1 84 122.2 84 146 84C146 82.35 146 80.7 146 79C147.65 79 149.3 79 151 79C151 77.35 151 75.7 151 74C151.99 74 152.98 74 154 74C154.33 76.97 154.66 79.94 155 83C156.32 83 157.64 83 159 83C159 83.99 159 84.98 159 86C163.29 86.33 167.58 86.66 172 87C172 85.35 172 83.7 172 82C172.66 82 173.32 82 174 82C174.33 81.34 174.66 80.68 175 80C175.66 80 176.32 80 177 80C177 82.64 177 85.28 177 88C175.02 88 173.04 88 171 88C171 88.99 171 89.98 171 91C170.01 91 169.02 91 168 91C168 90.01 168 89.02 168 88C165.69 88 163.38 88 161 88C160.67 89.32 160.34 90.64 160 92C159.01 92 158.02 92 157 92C156.67 91.34 156.34 90.68 156 90C153.874 89.5335 153.874 89.5335 151.438 89.375C150.611 89.3002 149.785 89.2255 148.934 89.1484C148.296 89.0995 147.657 89.0505 147 89C147 89.99 147 90.98 147 92C145.68 92 144.36 92 143 92C143 90.68 143 89.36 143 88C130.46 88 117.92 88 105 88C105 89.32 105 90.64 105 92C104.01 92 103.02 92 102 92C102 90.68 102 89.36 102 88C99.36 88 96.72 88 94 88C94 88.99 94 89.98 94 91C92.68 91 91.36 91 90 91C90 90.34 90 89.68 90 89C71.52 89 53.04 89 34 89C34 90.32 34 91.64 34 93C32.35 92.67 30.7 92.34 29 92C29 91.01 29 90.02 29 89C27.68 89 26.36 89 25 89C24.67 89.99 24.34 90.98 24 92C23.34 92 22.68 92 22 92C22 91.34 22 90.68 22 90C18.7 89.34 15.4 88.68 12 88C12 86.68 12 85.36 12 84C13.32 84 14.64 84 16 84C15.67 81.03 15.34 78.06 15 75C15.99 74.67 16.98 74.34 18 74C18.33 72.02 18.66 70.04 19 68Z" fill="#72CFFD"/>
<path d="M14 63C74.06 63 134.12 63 196 63C196 64.65 196 66.3 196 68C184.12 68 172.24 68 160 68C160 67.01 160 66.02 160 65C159.01 65 158.02 65 157 65C157 65.99 157 66.98 157 68C125.65 68 94.3 68 62 68C62 69.32 62 70.64 62 72C61.01 72 60.02 72 59 72C59.33 70.68 59.66 69.36 60 68C46.47 68 32.94 68 19 68C19 69.98 19 71.96 19 74C17.68 74.33 16.36 74.66 15 75C15.33 77.97 15.66 80.94 16 84C13.69 84 11.38 84 9 84C9 78.72 9 73.44 9 68C10.65 68 12.3 68 14 68C14 66.35 14 64.7 14 63Z" fill="#F9FBF3"/>
<path d="M10 58C76.66 58 143.32 58 212 58C212 59.65 212 61.3 212 63C145.34 63 78.68 63 10 63C10 61.35 10 59.7 10 58Z" fill="#1D0312"/>
<path d="M13.9995 5C61.8495 5 109.699 5 158.999 5C158.999 6.65 158.999 8.3 158.999 10C115.439 10 71.8795 10 26.9995 10C26.9995 11.32 26.9995 12.64 26.9995 14C26.0095 14 25.0195 14 23.9995 14C23.9995 14.66 23.9995 15.32 23.9995 16C22.3495 16.33 20.6995 16.66 18.9995 17C18.6695 26.9 18.3395 36.8 17.9995 47C16.5145 47.495 16.5145 47.495 14.9995 48C8.58767 35.1764 13.9995 19.3372 13.9995 5Z" fill="#E3E7E5"/>
<path d="M212.001 58C212.331 58 212.661 58 213.001 58C213.001 59.65 213.001 61.3 213.001 63C215.641 63 218.281 63 221.001 63C221.001 73.89 221.001 84.78 221.001 96C220.011 96 219.021 96 218.001 96C218.001 97.98 218.001 99.96 218.001 102C216.021 102 214.041 102 212.001 102C212.001 101.67 212.001 101.34 212.001 101C213.651 101 215.301 101 217.001 101C217.001 99.35 217.001 97.7 217.001 96C215.021 96 213.041 96 211.001 96C211.001 97.65 211.001 99.3 211.001 101C206.051 101 201.101 101 196.001 101C195.385 94.2961 194.898 88.6148 196.001 82C196.124 78.7073 196.095 75.4194 196.063 72.125C196.058 71.2459 196.054 70.3667 196.049 69.4609C196.038 67.3073 196.02 65.1536 196.001 63C201.281 63 206.561 63 212.001 63C212.001 61.35 212.001 59.7 212.001 58Z" fill="#3B2E4A"/>
<path d="M14 96C14.33 96 14.66 96 15 96C15 97.65 15 99.3 15 101C79.68 101 144.36 101 211 101C211 99.35 211 97.7 211 96C212.98 96 214.96 96 217 96C217 97.65 217 99.3 217 101C215.35 101 213.7 101 212 101C212 102.32 212 103.64 212 105C145.34 105 78.68 105 10 105C10 103.02 10 101.04 10 99C10.33 99 10.66 99 11 99C11 100.65 11 102.3 11 104C12.32 103.67 13.64 103.34 15 103C14.67 102.67 14.34 102.34 14 102C13.9592 100 13.9575 97.9995 14 96Z" fill="#2E2347"/>
<path d="M12 0C63.48 0 114.96 0 168 0C168 1.32 168 2.64 168 4C169.32 4 170.64 4 172 4C172 5.65 172 7.3 172 9C170.02 9 168.04 9 166 9C166 7.68 166 6.36 166 5C115.18 5 64.36 5 12 5C12 3.35 12 1.7 12 0Z" fill="#2A0E1B"/>
<path d="M157 65C157.99 65 158.98 65 160 65C160 65.99 160 66.98 160 68C171.88 68 183.76 68 196 68C196.694 71.47 197.138 74.0202 197.125 77.4375C197.129 78.5184 197.129 78.5184 197.133 79.6211C196.976 82.4351 196.464 85.22 196 88C189.73 88 183.46 88 177 88C177 85.36 177 82.72 177 80C176.34 80 175.68 80 175 80C174.67 80.99 174.34 81.98 174 83C173.34 82.67 172.68 82.34 172 82C172 83.65 172 85.3 172 87C167.38 87 162.76 87 158 87C158.66 85.02 159.32 83.04 160 81C159.34 80.67 158.68 80.34 158 80C158.33 79.34 158.66 78.68 159 78C158.691 77.2987 158.382 76.5975 158.063 75.875C156.656 72.0683 156.863 69.0453 157 65Z" fill="#6ECCFC"/>
<path d="M103 14C105.792 13.9731 108.583 13.9532 111.375 13.9375C112.566 13.9249 112.566 13.9249 113.781 13.9121C119.773 13.8867 119.773 13.8867 122 15C122 15.99 122 16.98 122 18C122.99 18 123.98 18 125 18C125 22.29 125 26.58 125 31C124.013 31.3983 123.025 31.7966 122.008 32.207C120.713 32.7417 119.419 33.2769 118.125 33.8125C117.474 34.0735 116.823 34.3346 116.152 34.6035C112.669 36.0581 111.146 36.7815 109 40C114.28 40 119.56 40 125 40C125 42.31 125 44.62 125 47C116.75 47 108.5 47 100 47C100 35 100 35 104 31C106.75 30.25 106.75 30.25 109 30C109 29.34 109 28.68 109 28C111.64 28 114.28 28 117 28C117 25.69 117 23.38 117 21C113.04 21 109.08 21 105 21C105 22.32 105 23.64 105 25C103.02 25 101.04 25 99 25C99 22.69 99 20.38 99 18C99.66 18 100.32 18 101 18C101 17.34 101 16.68 101 16C101.66 16 102.32 16 103 16C103 15.34 103 14.68 103 14Z" fill="#DAEDEF"/>
<path d="M9 58C9.33 58 9.66 58 10 58C10 59.65 10 61.3 10 63C11.32 63 12.64 63 14 63C14 64.65 14 66.3 14 68C12.35 68 10.7 68 9 68C9 77.24 9 86.48 9 96C10.65 96 12.3 96 14 96C14 97.98 14 99.96 14 102C14.66 102.33 15.32 102.66 16 103C14.02 103.66 12.04 104.32 10 105C76.66 105 143.32 105 212 105C212 105.33 212 105.66 212 106C145.01 106 78.02 106 9 106C9 104.02 9 102.04 9 100C7.02 100 5.04 100 3 100C3 87.79 3 75.58 3 63C4.98 63 6.96 63 9 63C9 61.35 9 59.7 9 58Z" fill="#4C3D53"/>
<path d="M173 42C178.875 43.875 178.875 43.875 180 45C182.697 45.0732 185.367 45.0924 188.062 45.0625C189.2 45.0557 189.2 45.0557 190.361 45.0488C192.241 45.037 194.12 45.0191 196 45C196.33 45.99 196.66 46.98 197 48C198.072 47.9587 199.145 47.9175 200.25 47.875C205.931 47.8546 211.433 48.9608 217 50C217 50.99 217 51.98 217 53C216.01 53.66 215.02 54.32 214 55C213.34 55.66 212.68 56.32 212 57C210.089 57.2405 210.089 57.2405 207.734 57.2271C206.853 57.2269 205.972 57.2267 205.065 57.2266C204.113 57.2163 203.161 57.2059 202.18 57.1953C200.719 57.1911 200.719 57.1911 199.229 57.1867C196.111 57.1755 192.993 57.1504 189.875 57.125C187.764 57.115 185.654 57.1058 183.543 57.0977C178.362 57.0756 173.181 57.0421 168 57C168.33 54.69 168.66 52.38 169 50C170.32 50 171.64 50 173 50C173 47.36 173 44.72 173 42Z" fill="#DEE3E7"/>
<path d="M132 58C158.4 58 184.8 58 212 58C212 59.65 212 61.3 212 63C147.98 63 83.96 63 18 63C18 62.67 18 62.34 18 62C60.57 61.67 103.14 61.34 147 61C147 60.67 147 60.34 147 60C142.05 59.67 137.1 59.34 132 59C132 58.67 132 58.34 132 58Z" fill="#2A0C18"/>
<path d="M151 74C151.99 74 152.98 74 154 74C154.495 78.455 154.495 78.455 155 83C156.32 83 157.64 83 159 83C159 83.99 159 84.98 159 86C163.29 86.33 167.58 86.66 172 87C172 85.35 172 83.7 172 82C172.66 82 173.32 82 174 82C174.33 81.34 174.66 80.68 175 80C175.66 80 176.32 80 177 80C177 82.64 177 85.28 177 88C175.02 88 173.04 88 171 88C171 88.99 171 89.98 171 91C170.01 91 169.02 91 168 91C168 90.01 168 89.02 168 88C165.69 88 163.38 88 161 88C160.67 89.32 160.34 90.64 160 92C159.01 92 158.02 92 157 92C156.505 91.01 156.505 91.01 156 90C153.874 89.5335 153.874 89.5335 151.438 89.375C150.611 89.3002 149.785 89.2255 148.934 89.1484C148.296 89.0995 147.657 89.0505 147 89C147 89.99 147 90.98 147 92C145.68 92 144.36 92 143 92C143 90.68 143 89.36 143 88C130.46 88 117.92 88 105 88C105 89.32 105 90.64 105 92C104.01 92 103.02 92 102 92C102 90.68 102 89.36 102 88C99.36 88 96.72 88 94 88C94 88.99 94 89.98 94 91C92.68 91 91.36 91 90 91C90 90.34 90 89.68 90 89C89.34 88.67 88.68 88.34 88 88C88.66 88 89.32 88 90 88C90 87.01 90 86.02 90 85C101.967 83.87 113.867 83.8834 125.875 83.9375C127.835 83.9425 129.794 83.9471 131.754 83.9512C136.503 83.9621 141.251 83.9793 146 84C146 82.35 146 80.7 146 79C147.65 79 149.3 79 151 79C151 77.35 151 75.7 151 74Z" fill="#4FAAFC"/>
<path d="M211 96C212.98 96 214.96 96 217 96C217 97.65 217 99.3 217 101C215.35 101 213.7 101 212 101C212 102.32 212 103.64 212 105C145.34 105 78.68 105 10 105C10 103.02 10 101.04 10 99C10.33 99 10.66 99 11 99C11 100.65 11 102.3 11 104C25.3016 103.892 39.6032 103.779 53.9048 103.661C60.5483 103.606 67.1917 103.553 73.8352 103.503C80.2673 103.454 86.6994 103.402 93.1315 103.347C95.5642 103.327 97.9969 103.308 100.43 103.291C114.742 103.188 129.021 102.879 143.32 102.239C152.096 101.851 160.878 101.677 169.66 101.497C172.595 101.437 175.529 101.372 178.463 101.307C189.311 101.072 200.15 100.938 211 101C211 99.35 211 97.7 211 96Z" fill="#291732"/>
<path d="M196 63C201.28 63 206.56 63 212 63C212 71.25 212 79.5 212 88C206.72 88 201.44 88 196 88C196 79.75 196 71.5 196 63Z" fill="#B7C728"/>
<path d="M38.0002 16C39.9802 16 41.9602 16 44.0002 16C43.6702 23.59 43.3402 31.18 43.0002 39C47.9502 39 52.9002 39 58.0002 39C58.0002 41.64 58.0002 44.28 58.0002 47C51.0702 47 44.1402 47 37.0002 47C37.0002 46.01 37.0002 45.02 37.0002 44C36.3402 44 35.6802 44 35.0002 44C34.9712 40.5625 34.9534 37.1251 34.9377 33.6875C34.9294 32.711 34.921 31.7346 34.9124 30.7285C34.9091 29.7907 34.9059 28.8529 34.9026 27.8867C34.8947 26.5906 34.8947 26.5906 34.8867 25.2683C35.0002 23 35.0002 23 36.0002 20C36.6602 20 37.3202 20 38.0002 20C38.0002 18.68 38.0002 17.36 38.0002 16Z" fill="#F7FCF7"/>
<path d="M67 64C97.03 64 127.06 64 158 64C157.67 65.32 157.34 66.64 157 68C130.27 68 103.54 68 76 68C76 67.01 76 66.02 76 65C73.03 65 70.06 65 67 65C67 64.67 67 64.34 67 64Z" fill="#F7FCF6"/>
<path d="M14 63C74.06 63 134.12 63 196 63C196 64.65 196 66.3 196 68C184.12 68 172.24 68 160 68C160 67.01 160 66.02 160 65C88.225 64.505 88.225 64.505 15 64C14.67 65.32 14.34 66.64 14 68C14 66.35 14 64.7 14 63Z" fill="#DBD2CC"/>
<path d="M76.9844 67.1211C78.3862 67.1936 78.3862 67.1936 79.8164 67.2676C80.7845 67.3236 81.7526 67.3797 82.75 67.4375C84.2253 67.5158 84.2253 67.5158 85.7305 67.5957C88.154 67.7251 90.5771 67.86 93 68C93 69.32 93 70.64 93 72C94.98 72 96.96 72 99 72C99.33 72.66 99.66 73.32 100 74C99.01 74.99 98.02 75.98 97 77C97 76.34 97 75.68 97 75C95.35 75 93.7 75 92 75C92 74.34 92 73.68 92 73C91.01 73 90.02 73 89 73C89.33 73.8869 89.66 74.7737 90 75.6875C91 79 91 79 91 84C86.05 84 81.1 84 76 84C75.67 81.69 75.34 79.38 75 77C74.01 76.67 73.02 76.34 72 76C72 74.68 72 73.36 72 72C70.68 72 69.36 72 68 72C68 70.68 68 69.36 68 68C71.1175 67.0628 73.7415 66.9431 76.9844 67.1211Z" fill="#7DD7FD"/>
<path d="M132 20C133.65 20 135.3 20 137 20C137 24.62 137 29.24 137 34C138.98 34 140.96 34 143 34C143 31.69 143 29.38 143 27C144.992 26.6187 146.993 26.2867 149 26C150 27 150 27 150.063 30.5625C150.042 31.6969 150.022 32.8312 150 34C151.32 34 152.64 34 154 34C154 35.98 154 37.96 154 40C152.35 40 150.7 40 149 40C149 41.65 149 43.3 149 45C147.02 45 145.04 45 143 45C143 43.35 143 41.7 143 40C141.928 40.0206 140.855 40.0412 139.75 40.0625C136.852 40.0142 134.714 39.8684 132 39C132 38.34 132 37.68 132 37C131.34 37 130.68 37 130 37C129.946 34.5414 129.907 32.0839 129.875 29.625C129.859 28.9263 129.842 28.2277 129.824 27.5078C129.807 25.671 129.897 23.834 130 22C130.66 21.34 131.32 20.68 132 20Z" fill="#EAF4F3"/>
<path d="M109 28C111.64 28 114.28 28 117 28C117 29.65 117 31.3 117 33C114.69 33.33 112.38 33.66 110 34C110 34.66 110 35.32 110 36C109.34 36 108.68 36 108 36C108 37.32 108 38.64 108 40C113.61 40 119.22 40 125 40C125 42.31 125 44.62 125 47C116.75 47 108.5 47 100 47C100 35 100 35 104 31C106.75 30.25 106.75 30.25 109 30C109 29.34 109 28.68 109 28Z" fill="#ECF6F5"/>
<path d="M64.0625 24.9375C65.5166 24.9684 65.5166 24.9684 67 25C67.5051 26.6026 68.0039 28.2071 68.5 29.8125C68.7784 30.7058 69.0569 31.5991 69.3438 32.5195C70 35 70 35 70 38C70.99 38 71.98 38 73 38C73.33 34.04 73.66 30.08 74 26C75.32 25.67 76.64 25.34 78 25C78.99 25.66 79.98 26.32 81 27C81.3984 29.4609 81.3984 29.4609 81.375 32.375C81.3827 33.3315 81.3905 34.288 81.3984 35.2734C80.9464 38.3671 80.1641 39.7726 78 42C77.34 42 76.68 42 76 42C76 42.99 76 43.98 76 45C73.36 45 70.72 45 68 45C68 44.01 68 43.02 68 42C67.01 42 66.02 42 65 42C65 41.34 65 40.68 65 40C64.01 40 63.02 40 62 40C61.6391 37.6885 61.2865 35.3758 60.9375 33.0625C60.7403 31.7747 60.543 30.487 60.3398 29.1602C60.1716 27.5959 60.1716 27.5959 60 26C61 25 61 25 64.0625 24.9375Z" fill="#E8F1F2"/>
<path d="M19.0009 68C32.5309 68 46.0609 68 60.0009 68C59.6709 68.66 59.3409 69.32 59.0009 70C45.1409 69.505 45.1409 69.505 31.0009 69C31.0009 70.65 31.0009 72.3 31.0009 74C30.3342 75.3333 29.6675 76.6667 29.0009 78C28.8334 80.6671 28.8334 80.6671 29.0009 83C26.6909 83.33 24.3809 83.66 22.0009 84C22.0009 84.99 22.0009 85.98 22.0009 87C20.0209 87 18.0409 87 16.0009 87C15.0402 84.1179 14.895 82.3015 14.9384 79.3125C14.9474 78.5043 14.9564 77.696 14.9657 76.8633C14.9773 76.2484 14.9889 75.6335 15.0009 75C15.9909 74.67 16.9809 74.34 18.0009 74C18.3309 72.02 18.6609 70.04 19.0009 68Z" fill="#74CEFD"/>
<path d="M195 88C195.33 92.29 195.66 96.58 196 101C136.27 101 76.54 101 15 101C15 100.67 15 100.34 15 100C73.41 100 131.82 100 192 100C190.938 94.3446 190.938 94.3446 189 89C191 88 191 88 195 88Z" fill="#4870CA"/>
<path d="M42 76C42.66 76 43.32 76 44 76C44 76.99 44 77.98 44 79C45.32 79 46.64 79 48 79C47.67 81.31 47.34 83.62 47 86C46.34 86 45.68 86 45 86C45 86.66 45 87.32 45 88C41.37 88.33 37.74 88.66 34 89C34 90.32 34 91.64 34 93C32.35 92.67 30.7 92.34 29 92C29 91.01 29 90.02 29 89C27.68 89 26.36 89 25 89C24.67 89.99 24.34 90.98 24 92C23.34 92 22.68 92 22 92C22 91.34 22 90.68 22 90C18.7 89.34 15.4 88.68 12 88C12 86.68 12 85.36 12 84C12.99 84 13.98 84 15 84C15.33 84.66 15.66 85.32 16 86C19.0293 86.6577 19.0293 86.6577 22 87C22 86.01 22 85.02 22 84C22.9694 83.7525 23.9388 83.505 24.9375 83.25C25.9481 82.8375 26.9588 82.425 28 82C28.9688 79.9676 28.9688 79.9676 29 78C31 79.3125 31 79.3125 33 81C33 81.99 33 82.98 33 84C34.9181 83.9691 34.9181 83.9691 36.875 83.9375C40.75 83.875 40.75 83.875 43 85C43 84.34 43 83.68 43 83C42.01 83 41.02 83 40 83C39.875 80.625 39.875 80.625 40 78C40.66 77.34 41.32 76.68 42 76Z" fill="#4EAEFD"/>
<path d="M159 10C160.98 10 162.96 10 165 10C165 11.98 165 13.96 165 16C166.32 16 167.64 16 169 16C169 25.57 169 35.14 169 45C167.68 45 166.36 45 165 45C165 45.99 165 46.98 165 48C163.02 48 161.04 48 159 48C159 47.01 159 46.02 159 45C160.32 45 161.64 45 163 45C163 35.43 163 25.86 163 16C161.68 16 160.36 16 159 16C159 14.02 159 12.04 159 10Z" fill="#D6D6CE"/>
<path d="M129 23C129.33 23 129.66 23 130 23C130 27.62 130 32.24 130 37C130.66 37 131.32 37 132 37C132 37.66 132 38.32 132 39C135.63 39.33 139.26 39.66 143 40C143 41.65 143 43.3 143 45C144.98 45 146.96 45 149 45C149 43.35 149 41.7 149 40C149.33 40 149.66 40 150 40C150.042 42.3329 150.041 44.667 150 47C149 48 149 48 147.02 48.1203C146.151 48.118 145.283 48.1158 144.388 48.1135C143.407 48.1134 142.427 48.1134 141.416 48.1133C140.349 48.1081 139.283 48.103 138.184 48.0977C136.554 48.0955 136.554 48.0955 134.892 48.0934C131.407 48.0878 127.922 48.0752 124.438 48.0625C122.081 48.0575 119.725 48.0529 117.369 48.0488C111.579 48.0378 105.79 48.021 100 48C100 47.67 100 47.34 100 47C108.25 47 116.5 47 125 47C125 45.02 125 43.04 125 41C125.99 40.34 126.98 39.68 128 39C128.384 36.2274 128.603 33.6568 128.688 30.875C128.722 30.1209 128.756 29.3668 128.791 28.5898C128.874 26.7271 128.938 24.8636 129 23Z" fill="#1F72BC"/>
<path d="M19 29C19.33 29 19.66 29 20 29C20.33 33.29 20.66 37.58 21 42C22.65 42 24.3 42 26 42C26 43.98 26 45.96 26 48C49.76 48 73.52 48 98 48C98 43.71 98 39.42 98 35C98.33 35 98.66 35 99 35C99.495 41.435 99.495 41.435 100 48C121.45 48 142.9 48 165 48C165.33 47.01 165.66 46.02 166 45C166.33 46.32 166.66 47.64 167 49C148.589 49.0467 130.178 49.082 111.767 49.1036C103.219 49.1139 94.6702 49.128 86.1216 49.1509C78.6701 49.1708 71.2187 49.1837 63.7672 49.1882C59.8222 49.1908 55.8772 49.1969 51.9322 49.2115C48.2173 49.2251 44.5026 49.2292 40.7877 49.2262C38.7778 49.227 36.7679 49.2378 34.758 49.2488C33.555 49.2461 32.3519 49.2433 31.1124 49.2405C29.55 49.2433 29.55 49.2433 27.956 49.2461C25 49 25 49 19 47C19 41.06 19 35.12 19 29Z" fill="#1D4B90"/>
<path d="M195 88C200.61 88 206.22 88 212 88C212 96 212 96 211 101C206.05 101 201.1 101 196 101C195.67 96.71 195.34 92.42 195 88Z" fill="#61665D"/>
<path d="M151 74C151.99 74 152.98 74 154 74C154.33 76.97 154.66 79.94 155 83C156.32 83 157.64 83 159 83C159 83.99 159 84.98 159 86C163.29 86.33 167.58 86.66 172 87C172 85.35 172 83.7 172 82C172.66 82 173.32 82 174 82C174.33 81.34 174.66 80.68 175 80C175.66 80 176.32 80 177 80C177 82.64 177 85.28 177 88C175.02 88 173.04 88 171 88C171 88.99 171 89.98 171 91C170.01 91 169.02 91 168 91C168 90.01 168 89.02 168 88C165.69 88 163.38 88 161 88C160.67 89.32 160.34 90.64 160 92C159.01 92 158.02 92 157 92C156.67 91.34 156.34 90.68 156 90C152.355 89.1091 149.573 88.7633 146 90C146 88.35 146 86.7 146 85C146.66 85 147.32 85 148 85C148 84.34 148 83.68 148 83C147.34 83 146.68 83 146 83C146 81.68 146 80.36 146 79C147.65 79 149.3 79 151 79C151 77.35 151 75.7 151 74Z" fill="#3E97FA"/>
<path d="M196 45C196.33 45.99 196.66 46.98 197 48C198.072 47.9587 199.145 47.9175 200.25 47.875C205.931 47.8545 211.433 48.9608 217 50C217 50.99 217 51.98 217 53C212.688 53.0288 208.375 53.0467 204.062 53.0625C202.215 53.075 202.215 53.075 200.33 53.0879C199.16 53.0911 197.99 53.0943 196.785 53.0976C195.159 53.1055 195.159 53.1055 193.5 53.1135C191 53 191 53 190 52C188.318 51.7671 186.629 51.5873 184.938 51.4375C184.018 51.3537 183.099 51.2699 182.152 51.1836C181.087 51.0927 181.087 51.0927 180 51C180.33 49.35 180.66 47.7 181 46C185.961 44.6771 190.911 44.911 196 45Z" fill="#6C6B88"/>
<path d="M4 10C5.32 10 6.64 10 8 10C8.33 23.86 8.66 37.72 9 52C7.35 52 5.7 52 4 52C4 38.14 4 24.28 4 10Z" fill="#1F0A1C"/>
<path d="M197 74C197.33 74 197.66 74 198 74C198 77.3 198 80.6 198 84C199.65 84 201.3 84 203 84C203 82.02 203 80.04 203 78C202.01 78 201.02 78 200 78C200 76.68 200 75.36 200 74C201.32 74 202.64 74 204 74C204 74.66 204 75.32 204 76C206.64 76 209.28 76 212 76C212 79.96 212 83.92 212 88C206.72 88 201.44 88 196 88C196.33 83.38 196.66 78.76 197 74Z" fill="#9EB01F"/>
<path d="M60 25C60 29.95 60 34.9 60 40C54.72 39.67 49.44 39.34 44 39C44 37.35 44 35.7 44 34C44.66 34 45.32 34 46 34C46.33 33.01 46.66 32.02 47 31C49.64 30.67 52.28 30.34 55 30C55.1031 29.3606 55.2062 28.7212 55.3125 28.0625C55.5394 27.3819 55.7662 26.7013 56 26C59 25 59 25 60 25Z" fill="#024D99"/>
<path d="M18 17C18.33 17 18.66 17 19 17C19 26.9 19 36.8 19 47C20.65 47 22.3 47 24 47C24 48.98 24 50.96 24 53C28.62 53 33.24 53 38 53C38 53.33 38 53.66 38 54C33.545 54.495 33.545 54.495 29 55C47.315 55.495 47.315 55.495 66 56C66 56.33 66 56.66 66 57C51.81 57.33 37.62 57.66 23 58C23 56.68 23 55.36 23 54C21.35 53.67 19.7 53.34 18 53C18 51.68 18 50.36 18 49C16.68 49 15.36 49 14 49C14.495 47.515 14.495 47.515 15 46C15.66 46 16.32 46 17 46C17.33 36.43 17.66 26.86 18 17Z" fill="#CED3D3"/>
<path d="M160 64C171.88 64 183.76 64 196 64C196 65.32 196 66.64 196 68C184.12 68 172.24 68 160 68C160 66.68 160 65.36 160 64Z" fill="#F4FAF4"/>
<path d="M3 9C4.98 9 6.96 9 9 9C9 21.21 9 33.42 9 46C10.32 46 11.64 46 13 46C13 49.3 13 52.6 13 56C10.525 56.495 10.525 56.495 8 57C8 41.49 8 25.98 8 10C6.68 10 5.36 10 4 10C4 23.86 4 37.72 4 52C3.67 52 3.34 52 3 52C3 37.81 3 23.62 3 9Z" fill="#47405C"/>
<path d="M75 25C79.7059 25.7059 79.7059 25.7059 81 27C81.1518 28.7663 81.2218 30.5399 81.25 32.3125C81.2887 33.7608 81.2887 33.7608 81.3281 35.2383C80.9535 38.3917 80.2042 39.7476 78 42C77.34 42 76.68 42 76 42C76 42.99 76 43.98 76 45C73.36 45 70.72 45 68 45C68.495 43.515 68.495 43.515 69 42C70.98 42.33 72.96 42.66 75 43C75 41.68 75 40.36 75 39C73.35 39 71.7 39 70 39C70.99 38.67 71.98 38.34 73 38C73.0606 37.1454 73.1212 36.2907 73.1836 35.4102C73.2674 34.3054 73.3512 33.2007 73.4375 32.0625C73.5187 30.9604 73.5999 29.8582 73.6836 28.7227C74 26 74 26 75 25Z" fill="#CBE2E6"/>
<path d="M60 28C62.3533 32.7067 62.171 34.8694 62 40C62.99 40 63.98 40 65 40C65 40.66 65 41.32 65 42C65.66 42 66.32 42 67 42C67 43.32 67 44.64 67 46C69.64 46 72.28 46 75 46C75 46.66 75 47.32 75 48C62.46 48 49.92 48 37 48C37 47.67 37 47.34 37 47C43.93 47 50.86 47 58 47C58 44.69 58 42.38 58 40C58.66 40 59.32 40 60 40C60 36.04 60 32.08 60 28Z" fill="#1D5EA1"/>
<path d="M117 84C116.67 85.32 116.34 86.64 116 88C112.37 88 108.74 88 105 88C105 89.32 105 90.64 105 92C104.01 92 103.02 92 102 92C102 90.68 102 89.36 102 88C99.36 88 96.72 88 94 88C94 88.99 94 89.98 94 91C92.68 91 91.36 91 90 91C90 90.34 90 89.68 90 89C89.34 88.67 88.68 88.34 88 88C88.66 88 89.32 88 90 88C90 87.01 90 86.02 90 85C99.0214 84.2426 107.947 83.8646 117 84Z" fill="#48A3FD"/>
<path d="M13 6C13.33 6 13.66 6 14 6C14 20.19 14 34.38 14 49C15.32 49 16.64 49 18 49C18.33 50.32 18.66 51.64 19 53C20.32 53.33 21.64 53.66 23 54C23 55.32 23 56.64 23 58C18.38 58 13.76 58 9 58C9.33 57.34 9.66 56.68 10 56C10.99 56 11.98 56 13 56C13 39.5 13 23 13 6Z" fill="#5A5F90"/>
<path d="M160 16C160.99 16 161.98 16 163 16C163 25.57 163 35.14 163 45C161.35 45 159.7 45 158 45C158.139 40.9164 158.287 36.8332 158.438 32.75C158.477 31.5911 158.516 30.4323 158.557 29.2383C158.599 28.1232 158.64 27.0082 158.684 25.8594C158.72 24.833 158.757 23.8065 158.795 22.749C158.973 20.3639 159.328 18.287 160 16Z" fill="#0D4995"/>
<path d="M19 68C32.53 68 46.06 68 60 68C59.67 68.66 59.34 69.32 59 70C45.14 69.505 45.14 69.505 31 69C31 70.32 31 71.64 31 73C30.0603 73.1644 30.0603 73.1644 29.1016 73.332C27.8757 73.5699 27.8757 73.5699 26.625 73.8125C25.4068 74.0387 25.4068 74.0387 24.1641 74.2695C21.6418 74.8754 21.6418 74.8754 20 78C18.68 77.34 17.36 76.68 16 76C16.66 75.34 17.32 74.68 18 74C18.33 72.02 18.66 70.04 19 68Z" fill="#A5E6FA"/>
<path d="M159 10C160.98 10 162.96 10 165 10C165 11.98 165 13.96 165 16C166.32 16.33 167.64 16.66 169 17C167.35 17 165.7 17 164 17C164 25.91 164 34.82 164 44C165.65 44 167.3 44 169 44C167.02 44.495 167.02 44.495 165 45C165 45.99 165 46.98 165 48C163.02 48 161.04 48 159 48C159 47.01 159 46.02 159 45C160.32 45 161.64 45 163 45C163 35.43 163 25.86 163 16C161.68 16 160.36 16 159 16C159 14.02 159 12.04 159 10Z" fill="#7888A2"/>
<path d="M211 96C212.98 96 214.96 96 217 96C217 97.65 217 99.3 217 101C215.35 101 213.7 101 212 101C212 102.32 212 103.64 212 105C204.74 105 197.48 105 190 105C190 104.67 190 104.34 190 104C191.98 104 193.96 104 196 104C196 103.34 196 102.68 196 102C200.95 101.67 205.9 101.34 211 101C211 99.35 211 97.7 211 96Z" fill="#251627"/>
<path d="M154 34C154.33 35.32 154.66 36.64 155 38C156.32 37.34 157.64 36.68 159 36C159 39.96 159 43.92 159 48C155.7 48 152.4 48 149 48C149.33 45.36 149.66 42.72 150 40C151.32 40 152.64 40 154 40C154 38.02 154 36.04 154 34Z" fill="#1653A6"/>
<path d="M15.0001 16C15.6601 16 16.3201 16 17.0001 16C17.7021 26.3548 18.1482 36.6168 18.0001 47C17.0101 47.33 16.0201 47.66 15.0001 48C13.527 45.0538 13.9971 42.5224 14.1211 39.2422C14.1566 38.2476 14.1566 38.2476 14.1927 37.2329C14.2693 35.1134 14.3534 32.9942 14.4376 30.875C14.4908 29.4388 14.5435 28.0026 14.5958 26.5664C14.7249 23.044 14.8608 19.522 15.0001 16Z" fill="#F3F0D9"/>
<path d="M159 5C161.31 5 163.62 5 166 5C166 6.32 166 7.64 166 9C168.97 9.495 168.97 9.495 172 10C172 11.98 172 13.96 172 16C168.867 17.0445 168.01 16.9342 165 16C165 14.02 165 12.04 165 10C163.02 10 161.04 10 159 10C159 8.35 159 6.7 159 5Z" fill="#23286C"/>
<path d="M172 43C172 44.98 172 46.96 172 49C170.68 49 169.36 49 168 49C167.67 49.99 167.34 50.98 167 52C152.15 51.67 137.3 51.34 122 51C122 50.67 122 50.34 122 50C144.275 49.505 144.275 49.505 167 49C166.505 47.02 166.505 47.02 166 45C170.875 43 170.875 43 172 43Z" fill="#241232"/>
<path d="M196 45C196.33 45.99 196.66 46.98 197 48C197.66 48.33 198.32 48.66 199 49C197.486 50.5142 196.075 50.2131 193.965 50.3164C193.156 50.3583 192.347 50.4002 191.514 50.4433C190.238 50.5023 190.238 50.5023 188.938 50.5625C188.083 50.6057 187.229 50.6488 186.35 50.6933C184.233 50.7997 182.117 50.9004 180 51C180.33 49.35 180.66 47.7 181 46C185.961 44.6771 190.911 44.911 196 45Z" fill="#301D32"/>
<path d="M212 76C212 79.96 212 83.92 212 88C209.36 87.67 206.72 87.34 204 87C204 84.03 204 81.06 204 78C209.75 76 209.75 76 212 76Z" fill="#819A3F"/>
<path d="M196 63C201.28 63 206.56 63 212 63C212 64.65 212 66.3 212 68C206.72 68 201.44 68 196 68C196 66.35 196 64.7 196 63Z" fill="#ECD962"/>
<path d="M38 16C39.98 16 41.96 16 44 16C43.67 23.59 43.34 31.18 43 39C47.95 39 52.9 39 58 39C58 41.64 58 44.28 58 47C51.07 47 44.14 47 37 47C37 46.67 37 46.34 37 46C43.6 46 50.2 46 57 46C57 44.02 57 42.04 57 40C52.05 40 47.1 40 42 40C42 32.74 42 25.48 42 18C40.68 18.33 39.36 18.66 38 19C38 18.01 38 17.02 38 16Z" fill="#9DC8DA"/>
<path d="M76.9844 67.1211C78.3862 67.1936 78.3862 67.1936 79.8164 67.2676C80.7845 67.3236 81.7526 67.3797 82.75 67.4375C84.2253 67.5158 84.2253 67.5158 85.7305 67.5957C88.154 67.7251 90.5771 67.86 93 68C93 69.32 93 70.64 93 72C91.68 72 90.36 72 89 72C89 71.01 89 70.02 89 69C87.3742 69.114 85.7493 69.2415 84.125 69.375C83.2201 69.4446 82.3152 69.5142 81.3828 69.5859C78.8206 69.7957 78.8206 69.7957 77 72C74.8359 72.1953 74.8359 72.1953 72.375 72.125C71.5577 72.1069 70.7405 72.0889 69.8984 72.0703C69.272 72.0471 68.6455 72.0239 68 72C68 70.68 68 69.36 68 68C71.1175 67.0628 73.7415 66.9431 76.9844 67.1211Z" fill="#6FD3FC"/>
<path d="M75 84C84.57 84 94.14 84 104 84C104 84.33 104 84.66 104 85C99.38 85 94.76 85 90 85C90 85.99 90 86.98 90 88C84.39 88 78.78 88 73 88C73 87.67 73 87.34 73 87C75.31 87 77.62 87 80 87C80 86.34 80 85.68 80 85C78.35 85 76.7 85 75 85C75 84.67 75 84.34 75 84Z" fill="#5EBBFD"/>
<path d="M42 76C42.66 76 43.32 76 44 76C44 76.99 44 77.98 44 79C45.32 79 46.64 79 48 79C47.67 81.31 47.34 83.62 47 86C46.34 86 45.68 86 45 86C45 86.66 45 87.32 45 88C43.35 88 41.7 88 40 88C40.33 87.01 40.66 86.02 41 85C41.66 85 42.32 85 43 85C43 84.34 43 83.68 43 83C42.01 83 41.02 83 40 83C39.875 80.625 39.875 80.625 40 78C40.66 77.34 41.32 76.68 42 76Z" fill="#4DB3FD"/>
<path d="M72.6259 24.875C73.4097 24.9163 74.1934 24.9575 75.0009 25C74.8601 26.7921 74.7131 28.5836 74.5634 30.375C74.4822 31.3727 74.401 32.3705 74.3173 33.3984C74.0009 36 74.0009 36 73.0009 38C72.0109 38 71.0209 38 70.0009 38C68.2062 34.1861 67.6264 31.2135 68.0009 27C70.0009 25 70.0009 25 72.6259 24.875Z" fill="#2264A7"/>
<path d="M195 88C195.33 92.29 195.66 96.58 196 101C194.35 101 192.7 101 191 101C190.939 100.301 190.879 99.6027 190.816 98.8828C190.733 97.9727 190.649 97.0627 190.562 96.125C190.481 95.2201 190.4 94.3152 190.316 93.3828C190.13 90.9889 190.13 90.9889 189 89C191 88 191 88 195 88Z" fill="#3271BE"/>
<path d="M8.00037 2C9.32037 2 10.6404 2 12.0004 2C12.0004 2.99 12.0004 3.98 12.0004 5C12.6604 5.33 13.3204 5.66 14.0004 6C13.6704 11.61 13.3404 17.22 13.0004 23C12.6704 23 12.3404 23 12.0004 23C11.9269 21.9346 11.9269 21.9346 11.8519 20.8477C11.7398 19.469 11.7398 19.469 11.6254 18.0625C11.5558 17.146 11.4862 16.2295 11.4144 15.2852C11.2095 14.154 11.2095 14.154 11.0004 13C10.3404 12.67 9.68037 12.34 9.00037 12C7.84262 8.52675 7.9317 5.63933 8.00037 2Z" fill="#263479"/>
<path d="M22 67C36.85 67 51.7 67 67 67C67 67.33 67 67.66 67 68C65.35 68 63.7 68 62 68C62 69.32 62 70.64 62 72C61.01 72 60.02 72 59 72C59.33 70.68 59.66 69.36 60 68C47.46 68 34.92 68 22 68C22 67.67 22 67.34 22 67Z" fill="#ECFBFA"/>
<path d="M162 20C162.33 20 162.66 20 163 20C163 27.92 163 35.84 163 44C162.01 44 161.02 44 160 44C160 39.05 160 34.1 160 29C160.66 29 161.32 29 162 29C162 26.03 162 23.06 162 20Z" fill="#063379"/>
<path d="M5 31C5.33 31 5.66 31 6 31C6.50424 33.7493 7.00353 36.4993 7.5 39.25C7.64309 40.0273 7.78617 40.8046 7.93359 41.6055C8.06895 42.3596 8.2043 43.1137 8.34375 43.8906C8.53228 44.9275 8.53228 44.9275 8.72461 45.9854C9 48 9 48 9 52C7.35 52 5.7 52 4 52C4.33 45.07 4.66 38.14 5 31Z" fill="#261429"/>
<path d="M19 88C24.61 88 30.22 88 36 88C35.01 88.495 35.01 88.495 34 89C34 90.32 34 91.64 34 93C32.35 92.67 30.7 92.34 29 92C29 91.01 29 90.02 29 89C27.68 89 26.36 89 25 89C24.67 89.99 24.34 90.98 24 92C23.34 92 22.68 92 22 92C22 91.34 22 90.68 22 90C21.01 89.67 20.02 89.34 19 89C19 88.67 19 88.34 19 88Z" fill="#4291F8"/>
<path d="M161 68C172.55 68 184.1 68 196 68C195.67 68.66 195.34 69.32 195 70C192.03 69.67 189.06 69.34 186 69C186 69.99 186 70.98 186 72C185.01 72 184.02 72 183 72C183 71.01 183 70.02 183 69C175.74 69 168.48 69 161 69C161 68.67 161 68.34 161 68Z" fill="#9CDDF6"/>
<path d="M197 74C197.33 74 197.66 74 198 74C198.33 77.3 198.66 80.6 199 84C202.317 85.4216 205.442 86.3901 209 87C209 87.33 209 87.66 209 88C204.71 88 200.42 88 196 88C196.33 83.38 196.66 78.76 197 74Z" fill="#99BB4F"/>
<path d="M89 73C89.99 73 90.98 73 92 73C92.33 74.65 92.66 76.3 93 78C93.99 78.33 94.98 78.66 96 79C96 80.32 96 81.64 96 83C94.35 83 92.7 83 91 83C90.34 79.7 89.68 76.4 89 73Z" fill="#56BEFD"/>
<path d="M201 49C211.558 48.8155 211.558 48.8155 216 50C216 50.66 216 51.32 216 52C210.72 52 205.44 52 200 52C200.33 51.01 200.66 50.02 201 49Z" fill="#23172F"/>
<path d="M167 2C167.33 2.66 167.66 3.32 168 4C169.32 4 170.64 4 172 4C172 5.65 172 7.3 172 9C170.02 9 168.04 9 166 9C166 7.68 166 6.36 166 5C164.02 5 162.04 5 160 5C160 4.67 160 4.34 160 4C162.31 4 164.62 4 167 4C167 3.34 167 2.68 167 2Z" fill="#150A23"/>
<path d="M9 84C9.99 84 10.98 84 12 84C12.33 87.96 12.66 91.92 13 96C11.68 96 10.36 96 9 96C9 92.04 9 88.08 9 84Z" fill="#63859C"/>
<path d="M151 74C151.99 74 152.98 74 154 74C154.33 76.97 154.66 79.94 155 83C152.03 82.01 149.06 81.02 146 80C146 79.67 146 79.34 146 79C147.65 79 149.3 79 151 79C151 77.35 151 75.7 151 74Z" fill="#4DB0FA"/>
<path d="M10 74C11.98 74.495 11.98 74.495 14 75C14.125 78.375 14.125 78.375 14 82C13.34 82.66 12.68 83.32 12 84C11.01 83.67 10.02 83.34 9 83C9.33 80.03 9.66 77.06 10 74Z" fill="#EFEFC6"/>
<path d="M87 38C88.98 38 90.96 38 93 38C93 39.98 93 41.96 93 44C91.02 44 89.04 44 87 44C87 42.02 87 40.04 87 38Z" fill="#ECF8FA"/>
<path d="M212 76C211.75 78.375 211.75 78.375 211 81C208.437 82.7942 207.169 83 204 83C204 81.35 204 79.7 204 78C209.75 76 209.75 76 212 76Z" fill="#849525"/>
<path d="M9 68C10.65 68 12.3 68 14 68C13.67 69.98 13.34 71.96 13 74C12.01 74 11.02 74 10 74C10 76.97 10 79.94 10 83C9.67 83 9.34 83 9 83C9 78.05 9 73.1 9 68Z" fill="#F9F6E6"/>
<path d="M198 77C200.475 77.495 200.475 77.495 203 78C203 79.98 203 81.96 203 84C201.35 84 199.7 84 198 84C198 81.69 198 79.38 198 77Z" fill="#CCD82F"/>
<path d="M30 84C33.63 84 37.26 84 41 84C40.67 85.32 40.34 86.64 40 88C38.68 88 37.36 88 36 88C36 87.34 36 86.68 36 86C34.02 86 32.04 86 30 86C30 85.34 30 84.68 30 84Z" fill="#339EFD"/>
<path d="M33 80C37.2422 79.6364 39.5817 80.4607 43 83C43 83.66 43 84.32 43 85C39.7 84.67 36.4 84.34 33 84C33 82.68 33 81.36 33 80Z" fill="#85D8FD"/>
<path d="M200 59C203.96 59 207.92 59 212 59C211.67 60.32 211.34 61.64 211 63C203.375 62.375 203.375 62.375 200 59Z" fill="#180208"/>
<path d="M159 10C160.65 10 162.3 10 164 10C164 11.98 164 13.96 164 16C162.35 16 160.7 16 159 16C159 14.02 159 12.04 159 10Z" fill="#ECEEEF"/>
<path d="M20 69C22.31 69 24.62 69 27 69C27 70.32 27 71.64 27 73C25.35 73.33 23.7 73.66 22 74C22 73.34 22 72.68 22 72C21.34 72 20.68 72 20 72C20 71.01 20 70.02 20 69Z" fill="#95E4FD"/>
<path d="M77 68C82.28 68 87.56 68 93 68C93 69.32 93 70.64 93 72C91.68 72 90.36 72 89 72C89 71.01 89 70.02 89 69C85.04 69 81.08 69 77 69C77 68.67 77 68.34 77 68Z" fill="#B0EBFC"/>
<path d="M181 46C183.64 46.33 186.28 46.66 189 47C188.01 48.485 188.01 48.485 187 50C183.375 50.6875 183.375 50.6875 180 51C180.33 49.35 180.66 47.7 181 46Z" fill="#24132F"/>
<path d="M51 67C56.28 67 61.56 67 67 67C67 67.33 67 67.66 67 68C65.35 68 63.7 68 62 68C62 69.32 62 70.64 62 72C61.01 72 60.02 72 59 72C59.33 70.68 59.66 69.36 60 68C57.03 68 54.06 68 51 68C51 67.67 51 67.34 51 67Z" fill="#CFF3F9"/>
<path d="M68.2852 64.9023C69.6599 64.9197 69.6599 64.9197 71.0625 64.9375C71.9816 64.9465 72.9007 64.9555 73.8477 64.9648C74.5579 64.9764 75.2682 64.988 76 65C76 65.66 76 66.32 76 67C74.5436 67.2217 73.0848 67.427 71.625 67.625C70.8129 67.741 70.0008 67.857 69.1641 67.9766C68.4499 67.9843 67.7358 67.992 67 68C66.34 67.34 65.68 66.68 65 66C66 65 66 65 68.2852 64.9023Z" fill="#E9F5F0"/>
<path d="M212 96C213.65 96 215.3 96 217 96C217 97.65 217 99.3 217 101C215.35 101 213.7 101 212 101C212 99.35 212 97.7 212 96Z" fill="#1A0920"/>
<path d="M108 85C110.97 85 113.94 85 117 85C116.67 85.99 116.34 86.98 116 88C113.36 88 110.72 88 108 88C108 87.01 108 86.02 108 85Z" fill="#3B97FC"/>
<path d="M18 48C19.65 48 21.3 48 23 48C23 49.65 23 51.3 23 53C21.35 53 19.7 53 18 53C18 51.35 18 49.7 18 48Z" fill="#EBEDE8"/>
<path d="M19 43C20.98 43 22.96 43 25 43C25 44.65 25 46.3 25 48C22.03 47.505 22.03 47.505 19 47C19 45.68 19 44.36 19 43Z" fill="#134382"/>
<path d="M120 33C118.952 33.5066 118.952 33.5066 117.883 34.0234C116.973 34.4694 116.063 34.9155 115.125 35.375C113.768 36.0363 113.768 36.0363 112.383 36.7109C109.905 37.905 109.905 37.905 108 40C108 38.68 108 37.36 108 36C108.66 36 109.32 36 110 36C110 35.34 110 34.68 110 34C111.289 33.6372 112.582 33.285 113.875 32.9375C114.594 32.7403 115.314 32.543 116.055 32.3398C118 32 118 32 120 33Z" fill="#A4D3E1"/>
<path d="M12 84C12.99 84 13.98 84 15 84C15.33 84.66 15.66 85.32 16 86C19.0293 86.6577 19.0293 86.6577 22 87C22.33 86.01 22.66 85.02 23 84C23 85.32 23 86.64 23 88C19.37 88 15.74 88 12 88C12 86.68 12 85.36 12 84Z" fill="#5FB3F4"/>
<path d="M93 75C94.32 75 95.64 75 97 75C97 77.97 97 80.94 97 84C95.02 84 93.04 84 91 84C91 83.67 91 83.34 91 83C92.65 83 94.3 83 96 83C95.6521 81.0246 95.6521 81.0246 95 79C94.34 78.67 93.68 78.34 93 78C93 77.01 93 76.02 93 75Z" fill="#6BCBFD"/>
<path d="M149 40C149.33 40 149.66 40 150 40C150.042 42.3329 150.041 44.667 150 47C149 48 149 48 146.438 48.0625C145.633 48.0419 144.829 48.0213 144 48C143.67 47.01 143.34 46.02 143 45C144.98 45 146.96 45 149 45C149 43.35 149 41.7 149 40Z" fill="#528BBE"/>
<path d="M8 2C9.32 2 10.64 2 12 2C12 2.99 12 3.98 12 5C12.66 5.33 13.32 5.66 14 6C12.68 6 11.36 6 10 6C10 6.99 10 7.98 10 9C9.34 9 8.68 9 8 9C8 6.69 8 4.38 8 2Z" fill="#413D59"/>
<path d="M192 89C192.99 89 193.98 89 195 89C195.982 93.0528 196.082 96.8386 196 101C195.67 101 195.34 101 195 101C194.876 100.031 194.752 99.0612 194.625 98.0625C194.419 97.0519 194.213 96.0412 194 95C193.34 94.67 192.68 94.34 192 94C192 92.35 192 90.7 192 89Z" fill="#3970A0"/>
<path d="M141 86C143.475 86.495 143.475 86.495 146 87C146.33 88.65 146.66 90.3 147 92C145.68 92 144.36 92 143 92C143 90.68 143 89.36 143 88C142.34 88 141.68 88 141 88C141 87.34 141 86.68 141 86Z" fill="#57AFFC"/>
<path d="M151 83C153.64 83 156.28 83 159 83C158.67 84.32 158.34 85.64 158 87C156.02 87.33 154.04 87.66 152 88C152.99 87.67 153.98 87.34 155 87C155 86.34 155 85.68 155 85C153.68 85 152.36 85 151 85C151 84.34 151 83.68 151 83Z" fill="#42A1FB"/>
<path d="M146 80C150.75 80.75 150.75 80.75 153 83C152.34 83 151.68 83 151 83C151 83.66 151 84.32 151 85C150.01 85 149.02 85 148 85C148 84.34 148 83.68 148 83C147.34 83 146.68 83 146 83C146 82.01 146 81.02 146 80Z" fill="#3695F3"/>
<path d="M93 72C94.98 72 96.96 72 99 72C99.33 72.66 99.66 73.32 100 74C99.01 74.99 98.02 75.98 97 77C97 76.34 97 75.68 97 75C95.68 75 94.36 75 93 75C93 74.01 93 73.02 93 72Z" fill="#8DDFFE"/>
<path d="M205 64C207.31 64 209.62 64 212 64C212 65.32 212 66.64 212 68C209.625 67.6875 209.625 67.6875 207 67C206.34 66.01 205.68 65.02 205 64Z" fill="#FDF67B"/>
<path d="M214 58C214.99 58 215.98 58 217 58C217 58.99 217 59.98 217 61C218.32 61.66 219.64 62.32 221 63C218.36 63 215.72 63 213 63C213.33 61.35 213.66 59.7 214 58Z" fill="#E4F0F8"/>
<path d="M42 76C42.66 76 43.32 76 44 76C44.6875 77.8125 44.6875 77.8125 45 80C43.6875 81.75 43.6875 81.75 42 83C41.34 83 40.68 83 40 83C39.875 80.625 39.875 80.625 40 78C40.66 77.34 41.32 76.68 42 76Z" fill="#56BDFD"/>
<path d="M197 65C199.31 65 201.62 65 204 65C204 65.99 204 66.98 204 68C201.69 68 199.38 68 197 68C197 67.01 197 66.02 197 65Z" fill="#FCF43E"/>
<path d="M18 53C20.475 53.495 20.475 53.495 23 54C23 55.32 23 56.64 23 58C21.35 58 19.7 58 18 58C18 56.35 18 54.7 18 53Z" fill="#254BB3"/>
<path d="M76 68C75.01 68.33 74.02 68.66 73 69C72.01 70.485 72.01 70.485 71 72C70.01 72 69.02 72 68 72C68 70.68 68 69.36 68 68C71.0526 67.0188 72.9474 67.0188 76 68Z" fill="#9AE3FB"/>
<path d="M201 49C204.3 49 207.6 49 211 49C208.099 50.934 207.103 51.3013 203.812 51.625C202.554 51.7488 201.296 51.8725 200 52C200.33 51.01 200.66 50.02 201 49Z" fill="#393252"/>
<path d="M75 27C76.65 27 78.3 27 80 27C80 30.3 80 33.6 80 37C79.67 37 79.34 37 79 37C78.67 34.36 78.34 31.72 78 29C77.01 29.66 76.02 30.32 75 31C75 29.68 75 28.36 75 27Z" fill="#FCFDFB"/>
<path d="M159 5C161.475 5.495 161.475 5.495 164 6C164 7.32 164 8.64 164 10C162.35 10 160.7 10 159 10C159 8.35 159 6.7 159 5Z" fill="#3B4788"/>
<path d="M157 65C157.99 65 158.98 65 160 65C160 66.98 160 68.96 160 71C159.01 71.33 158.02 71.66 157 72C157 69.69 157 67.38 157 65Z" fill="#75C0EC"/>
<path d="M172 43C172 44.98 172 46.96 172 49C170.68 48.67 169.36 48.34 168 48C168 47.34 168 46.68 168 46C167.34 45.67 166.68 45.34 166 45C170.875 43 170.875 43 172 43Z" fill="#21102E"/>
<path d="M132 20C134.625 19.8125 134.625 19.8125 137 20C137 21.98 137 23.96 137 26C136.67 24.68 136.34 23.36 136 22C134.02 22.33 132.04 22.66 130 23C130.66 22.01 131.32 21.02 132 20Z" fill="#B4DAE4"/>
<path d="M166 10C167.32 10 168.64 10 170 10C169.67 11.65 169.34 13.3 169 15C168.01 15 167.02 15 166 15C166 13.35 166 11.7 166 10Z" fill="#26307A"/>
<path d="M167 2C168.32 3.32 169.64 4.64 171 6C169.68 6 168.36 6 167 6C166.67 6.99 166.34 7.98 166 9C166 7.68 166 6.36 166 5C164.02 5 162.04 5 160 5C160 4.67 160 4.34 160 4C162.31 4 164.62 4 167 4C167 3.34 167 2.68 167 2Z" fill="#1E1131"/>
<path d="M14 75C15.8578 78.135 16.2014 80.3747 16 84C14.68 83.67 13.36 83.34 12 83C12.33 82.67 12.66 82.34 13 82C13.3676 79.6718 13.7024 77.3382 14 75Z" fill="#BAE4EC"/>
<path d="M14 49C15.32 49 16.64 49 18 49C18 50.32 18 51.64 18 53C16.68 53.33 15.36 53.66 14 54C14 52.35 14 50.7 14 49Z" fill="#566FBE"/>
</svg>
