<svg width="171" height="157" viewBox="0 0 171 157" fill="none" xmlns="http://www.w3.org/2000/svg">
<path d="M33 0C66.99 0 100.98 0 136 0C136 1.32 136 2.64 136 4C138.64 4 141.28 4 144 4C144 5.32 144 6.64 144 8C144.99 8 145.98 8 147 8C147 9.32 147 10.64 147 12C148.98 12 150.96 12 153 12C153 14.31 153 16.62 153 19C154.65 19 156.3 19 158 19C158 54.64 158 90.28 158 127C156.35 127 154.7 127 153 127C153 129.97 153 132.94 153 136C152.34 136 151.68 136 151 136C151 136.99 151 137.98 151 139C149.02 139 147.04 139 145 139C145 140.32 145 141.64 145 143C104.41 143 63.82 143 22 143C22 141.68 22 140.36 22 139C20.35 139 18.7 139 17 139C16.8969 138.361 16.7938 137.721 16.6875 137.062C16.4606 136.382 16.2338 135.701 16 135C15.01 134.67 14.02 134.34 13 134C13 132.68 13 131.36 13 130C12.01 130 11.02 130 10 130C10 93.7 10 57.4 10 20C11.65 20 13.3 20 15 20C15 17.36 15 14.72 15 12C16.98 12 18.96 12 21 12C20.9381 11.2369 20.8762 10.4737 20.8125 9.6875C21 7 21 7 22.2188 5.34375C24.5199 3.60783 25.8398 3.68869 28.6875 3.8125C29.8999 3.85311 29.8999 3.85311 31.1367 3.89453C31.7516 3.92934 32.3665 3.96414 33 4C33 2.68 33 1.36 33 0Z" fill="#FAFAEB"/>
<path d="M33 0C66.99 0 100.98 0 136 0C136 1.32 136 2.64 136 4C138.64 4 141.28 4 144 4C144 5.32 144 6.64 144 8C144.99 8 145.98 8 147 8C147 9.32 147 10.64 147 12C148.98 12 150.96 12 153 12C153 14.31 153 16.62 153 19C154.65 19 156.3 19 158 19C158 54.64 158 90.28 158 127C156.35 127 154.7 127 153 127C153 129.97 153 132.94 153 136C152.34 136 151.68 136 151 136C151 136.99 151 137.98 151 139C149.02 139 147.04 139 145 139C145 140.32 145 141.64 145 143C104.41 143 63.82 143 22 143C22 141.68 22 140.36 22 139C20.35 139 18.7 139 17 139C16.8969 138.361 16.7938 137.721 16.6875 137.062C16.4606 136.382 16.2338 135.701 16 135C15.01 134.67 14.02 134.34 13 134C13 132.68 13 131.36 13 130C12.01 130 11.02 130 10 130C10 93.7 10 57.4 10 20C11.65 20 13.3 20 15 20C15 17.36 15 14.72 15 12C16.98 12 18.96 12 21 12C20.9381 11.2369 20.8762 10.4737 20.8125 9.6875C21 7 21 7 22.2188 5.34375C24.5199 3.60783 25.8398 3.68869 28.6875 3.8125C29.8999 3.85311 29.8999 3.85311 31.1367 3.89453C31.7516 3.92934 32.3665 3.96414 33 4C33 2.68 33 1.36 33 0ZM20 36C20 36.99 20 37.98 20 39C18.02 39.33 16.04 39.66 14 40C14 69.37 14 98.74 14 129C15.32 129.33 16.64 129.66 18 130C18 131.32 18 132.64 18 134C19.98 134.33 21.96 134.66 24 135C24 135.99 24 136.98 24 138C63.27 138 102.54 138 143 138C143 136.02 143 134.04 143 132C143.66 132 144.32 132 145 132C145 131.34 145 130.68 145 130C145.99 130 146.98 130 148 130C148 129.34 148 128.68 148 128C150.475 127.505 150.475 127.505 153 127C153 96.97 153 66.94 153 36C109.11 36 65.22 36 20 36Z" fill="#170B16"/>
<path d="M20 36C63.89 36 107.78 36 153 36C153 66.03 153 96.06 153 127C150.525 127.495 150.525 127.495 148 128C148 128.66 148 129.32 148 130C147.01 130 146.02 130 145 130C145 130.66 145 131.32 145 132C144.34 132 143.68 132 143 132C143 133.98 143 135.96 143 138C103.73 138 64.46 138 24 138C24 137.01 24 136.02 24 135C22.02 134.67 20.04 134.34 18 134C18 132.68 18 131.36 18 130C16.68 129.67 15.36 129.34 14 129C14 99.63 14 70.26 14 40C14.33 40 14.66 40 15 40C15.33 58.48 15.66 76.96 16 96C16.66 96 17.32 96 18 96C18.33 96.66 18.66 97.32 19 98C21.0246 98.6521 21.0246 98.6521 23 99C22.67 100.65 22.34 102.3 22 104C20.68 104 19.36 104 18 104C18.33 106.97 18.66 109.94 19 113C20.32 113.33 21.64 113.66 23 114C23 115.32 23 116.64 23 118C24.32 118 25.64 118 27 118C26.67 115.69 26.34 113.38 26 111C25.01 111 24.02 111 23 111C23 109.35 23 107.7 23 106C24.65 106 26.3 106 28 106C28 106.66 28 107.32 28 108C28.66 108 29.32 108 30 108C29.67 107.34 29.34 106.68 29 106C28.9035 104.002 28.8702 102 28.875 100C28.8724 98.9275 28.8698 97.855 28.8672 96.75C29 94 29 94 30 92C35.94 92 41.88 92 48 92C49.3509 94.7018 49.3386 97.1181 49.5625 100.125C49.6463 101.221 49.7301 102.316 49.8164 103.445C49.877 104.288 49.9376 105.131 50 106C51.65 106.33 53.3 106.66 55 107C54.9884 106.085 54.9768 105.17 54.9648 104.227C54.9558 103.038 54.9468 101.85 54.9375 100.625C54.9259 99.4416 54.9143 98.2583 54.9023 97.0391C55 94 55 94 56 92C61.28 92 66.56 92 72 92C72.66 95.63 73.32 99.26 74 103C75.32 103 76.64 103 78 103C78.0606 102.374 78.1212 101.747 78.1836 101.102C78.3093 99.8757 78.3093 99.8757 78.4375 98.625C78.5593 97.4068 78.5593 97.4068 78.6836 96.1641C79 94 79 94 80 92C84.95 92 89.9 92 95 92C96.4862 94.9724 96.1318 97.6962 96.125 101C96.1289 102.887 96.1289 102.887 96.1328 104.812C96 108 96 108 95 110C81.8 109.34 68.6 108.68 55 108C55 109.65 55 111.3 55 113C52.03 112.01 52.03 112.01 49 111C49 112.98 49 114.96 49 117C50.98 117 52.96 117 55 117C55 116.01 55 115.02 55 114C57.7645 112.618 60.0461 112.905 63.125 112.938C64.2207 112.947 65.3164 112.956 66.4453 112.965C67.2884 112.976 68.1314 112.988 69 113C69 113.66 69 114.32 69 115C70.32 115 71.64 115 73 115C73 115.66 73 116.32 73 117C74.98 117 76.96 117 79 117C79.99 115.02 79.99 115.02 81 113C82.9154 112.892 84.8326 112.814 86.75 112.75C87.8173 112.704 88.8847 112.657 89.9844 112.609C93.6752 113.087 94.5783 114.296 97 117C99.6434 117.088 99.6434 117.088 102 116C102.99 114.515 102.99 114.515 104 113C106.82 112.707 106.82 112.707 110.125 112.812C111.769 112.853 111.769 112.853 113.445 112.895C114.71 112.947 114.71 112.947 116 113C116 113.66 116 114.32 116 115C116.66 115 117.32 115 118 115C118 115.66 118 116.32 118 117C120.97 117 123.94 117 127 117C127 115.35 127 113.7 127 112C128.986 111.772 130.971 111.544 132.957 111.316C135.194 111.028 135.194 111.028 138 110C138 111.65 138 113.3 138 115C139.32 115 140.64 115 142 115C141.01 111.04 141.01 111.04 140 107C139.001 107.012 138.002 107.023 136.973 107.035C135.682 107.044 134.392 107.053 133.062 107.062C131.775 107.074 130.487 107.086 129.16 107.098C126 107 126 107 125 106C124.927 103.647 124.916 101.292 124.938 98.9375C124.947 97.6471 124.956 96.3568 124.965 95.0273C124.976 94.0283 124.988 93.0293 125 92C127.125 91.9461 129.25 91.9073 131.375 91.875C132.558 91.8518 133.742 91.8286 134.961 91.8047C138 92 138 92 140 94C140.195 96.8203 140.195 96.8203 140.125 100.125C140.107 101.221 140.089 102.316 140.07 103.445C140.047 104.288 140.024 105.131 140 106C141.32 105.34 142.64 104.68 144 104C144 106.31 144 108.62 144 111C145.65 111 147.3 111 149 111C149 108.03 149 105.06 149 102C147.35 102 145.7 102 144 102C144 101.01 144 100.02 144 99C144.639 98.8762 145.279 98.7525 145.938 98.625C146.618 98.4188 147.299 98.2125 148 98C149.297 95.4067 149.12 93.5359 149.114 90.6323C149.113 89.5113 149.113 88.3903 149.113 87.2353C149.108 86.0207 149.103 84.8061 149.098 83.5547C149.096 82.3145 149.095 81.0744 149.093 79.7967C149.089 76.4988 149.08 73.201 149.069 69.9032C149.058 66.5383 149.054 63.1735 149.049 59.8086C149.039 53.2057 149.019 46.6029 149 40C137.45 40 125.9 40 114 40C113.67 41.32 113.34 42.64 113 44C112.01 44 111.02 44 110 44C110 42.68 110 41.36 110 40C99.11 40 88.22 40 77 40C77 40.99 77 41.98 77 43C76.01 43 75.02 43 74 43C74 42.01 74 41.02 74 40C67.4 40 60.8 40 54 40C53.67 41.32 53.34 42.64 53 44C52.34 44 51.68 44 51 44C51 42.35 51 40.7 51 39C41.76 39 32.52 39 23 39C23 40.98 23 42.96 23 45C21.68 45 20.36 45 19 45C19 46.98 19 48.96 19 51C18.34 51 17.68 51 17 51C15.7168 47.1505 15.9336 44.0526 16 40C17.32 39.67 18.64 39.34 20 39C20 38.01 20 37.02 20 36Z" fill="#E4DCBC"/>
<path d="M44.1313 4.88654C45.0777 4.8864 46.0241 4.88625 46.9992 4.8861C50.1375 4.8868 53.2758 4.89459 56.4141 4.90241C58.586 4.90428 60.7579 4.9057 62.9298 4.9067C68.6541 4.91052 74.3785 4.92035 80.1028 4.9314C85.941 4.94162 91.7791 4.9462 97.6172 4.95124C109.078 4.96197 120.539 4.97905 132 5.00007C132 6.32007 132 7.64007 132 9.00007C131.01 9.00007 130.02 9.00007 129 9.00007C129 10.3201 129 11.6401 129 13.0001C132.465 12.5051 132.465 12.5051 136 12.0001C136 10.6801 136 9.36007 136 8.00007C137.65 8.00007 139.3 8.00007 141 8.00007C141 8.99007 141 9.98007 141 11.0001C141.66 11.0001 142.32 11.0001 143 11.0001C143 12.3201 143 13.6401 143 15.0001C144.98 15.0001 146.96 15.0001 149 15.0001C149 16.3201 149 17.6401 149 19.0001C149.99 19.0001 150.98 19.0001 152 19.0001C152 16.6901 152 14.3801 152 12.0001C152.33 12.0001 152.66 12.0001 153 12.0001C153 14.3101 153 16.6201 153 19.0001C154.65 19.0001 156.3 19.0001 158 19.0001C158 19.3301 158 19.6601 158 20.0001C156.35 20.0001 154.7 20.0001 153 20.0001C153 23.9601 153 27.9201 153 32.0001C122.97 32.0001 92.94 32.0001 62 32.0001C62 30.0201 62 28.0401 62 26.0001C62.66 26.0001 63.32 26.0001 64 26.0001C64 25.0101 64 24.0201 64 23.0001C61.03 23.0001 58.06 23.0001 55 23.0001C55 24.3201 55 25.6401 55 27.0001C55.99 27.0001 56.98 27.0001 58 27.0001C58 28.6501 58 30.3001 58 32.0001C53.38 32.0001 48.76 32.0001 44 32.0001C44 30.3501 44 28.7001 44 27.0001C44.66 26.4226 45.32 25.8451 46 25.2501C48.7608 22.1441 48.3221 19.8457 48.1406 15.8282C48.0942 15.2249 48.0478 14.6216 48 14.0001C47.34 13.6701 46.68 13.3401 46 13.0001C46.0206 14.0932 46.0412 15.1863 46.0625 16.3126C46 20.0001 46 20.0001 45 23.0001C42.69 23.0001 40.38 23.0001 38 23.0001C38 22.3401 38 21.6801 38 21.0001C37.01 21.0001 36.02 21.0001 35 21.0001C35 18.6901 35 16.3801 35 14.0001C35.66 14.0001 36.32 14.0001 37 14.0001C37 13.3401 37 12.6801 37 12.0001C39.64 12.0001 42.28 12.0001 45 12.0001C45 11.0101 45 10.0201 45 9.00007C41.7 9.00007 38.4 9.00007 35 9.00007C35 9.99007 35 10.9801 35 12.0001C34.01 12.0001 33.02 12.0001 32 12.0001C32 15.9601 32 19.9201 32 24.0001C32.99 24.0001 33.98 24.0001 35 24.0001C35 24.9901 35 25.9801 35 27.0001C36.32 27.0001 37.64 27.0001 39 27.0001C39.33 28.6501 39.66 30.3001 40 32.0001C33.07 32.0001 26.14 32.0001 19 32.0001C19 27.7101 19 23.4201 19 19.0001C19.99 19.0001 20.98 19.0001 22 19.0001C22.2166 17.8244 22.2166 17.8244 22.4375 16.6251C23 14.0001 23 14.0001 24 12.0001C24.66 12.0001 25.32 12.0001 26 12.0001C26 10.6801 26 9.36007 26 8.00007C28.31 8.00007 30.62 8.00007 33 8.00007C33 7.34007 33 6.68007 33 6.00007C36.427 4.28656 40.361 4.87148 44.1313 4.88654Z" fill="#344C79"/>
<path d="M153 127C154.65 127 156.3 127 158 127C157.34 127.66 156.68 128.32 156 129C156.62 130.984 156.62 130.984 158 133C160.555 134.277 160.555 134.277 163.5 135.125C168.819 136.819 168.819 136.819 171 139C170.938 141.438 170.938 141.438 170 144C162.943 149.56 153.609 150.793 145 152.125C143.958 152.294 142.917 152.463 141.844 152.637C138.898 153.109 135.95 153.559 133 154C131.728 154.192 130.455 154.384 129.145 154.582C117.963 155.907 106.497 155.704 95.2443 155.95C93.051 155.999 90.8578 156.053 88.6646 156.107C71.9591 156.499 55.4991 156.094 38.875 154.312C38.1457 154.238 37.4163 154.164 36.6649 154.088C28.5047 153.234 20.6573 151.85 12.7578 149.605C12.054 149.41 11.3501 149.214 10.625 149.012C6.33318 147.712 3.30961 146.017 0 143C0.317172 140.04 0.984283 139.016 3.125 136.875C6.46095 134.699 9.14476 133.907 13 133C14.3756 134.29 15.7077 135.627 17 137C17 137.66 17 138.32 17 139C18.65 139 20.3 139 22 139C22 140.32 22 141.64 22 143C62.59 143 103.18 143 145 143C145 141.68 145 140.36 145 139C146.98 139 148.96 139 151 139C151 138.01 151 137.02 151 136C151.66 136 152.32 136 153 136C153 133.03 153 130.06 153 127Z" fill="#CDD5EA"/>
<path d="M44.1313 4.88654C45.0777 4.8864 46.0241 4.88625 46.9992 4.8861C50.1375 4.8868 53.2758 4.89459 56.4141 4.90241C58.586 4.90428 60.7579 4.9057 62.9298 4.9067C68.6541 4.91052 74.3785 4.92035 80.1028 4.9314C85.941 4.94162 91.7791 4.9462 97.6172 4.95124C109.078 4.96197 120.539 4.97905 132 5.00007C132 6.32007 132 7.64007 132 9.00007C131.01 9.00007 130.02 9.00007 129 9.00007C129 10.3201 129 11.6401 129 13.0001C132.3 13.0001 135.6 13.0001 139 13.0001C139 16.3001 139 19.6001 139 23.0001C138.34 23.0001 137.68 23.0001 137 23.0001C137 23.9901 137 24.9801 137 26.0001C130.931 26.2529 125.838 25.6984 120 24.0001C120 24.9901 120 25.9801 120 27.0001C119.34 27.0001 118.68 27.0001 118 27.0001C118 27.9901 118 28.9801 118 30.0001C115.69 30.3301 113.38 30.6601 111 31.0001C111 29.3501 111 27.7001 111 26.0001C109.68 26.0001 108.36 26.0001 107 26.0001C106.505 25.0101 106.505 25.0101 106 24.0001C103.975 23.3479 103.975 23.3479 102 23.0001C102 23.9901 102 24.9801 102 26.0001C98.7 26.0001 95.4 26.0001 92 26.0001C92 25.3401 92 24.6801 92 24.0001C91.01 24.0001 90.02 24.0001 89 24.0001C89 22.3501 89 20.7001 89 19.0001C88.34 19.0001 87.68 19.0001 87 19.0001C87 20.3201 87 21.6401 87 23.0001C85.515 23.4951 85.515 23.4951 84 24.0001C84 24.6601 84 25.3201 84 26.0001C82.68 26.0001 81.36 26.0001 80 26.0001C80 27.3201 80 28.6401 80 30.0001C79.34 30.0001 78.68 30.0001 78 30.0001C78 28.6801 78 27.3601 78 26.0001C76.35 26.0001 74.7 26.0001 73 26.0001C73 25.0101 73 24.0201 73 23.0001C72.34 23.0001 71.68 23.0001 71 23.0001C71 19.7001 71 16.4001 71 13.0001C71.66 12.6701 72.32 12.3401 73 12.0001C73.495 15.9601 73.495 15.9601 74 20.0001C76.31 20.0001 78.62 20.0001 81 20.0001C81.33 17.6901 81.66 15.3801 82 13.0001C84.64 13.3301 87.28 13.6601 90 14.0001C90.66 11.6901 91.32 9.38007 92 7.00007C76.49 6.67007 60.98 6.34007 45 6.00007C45 6.99007 45 7.98007 45 9.00007C41.7 9.00007 38.4 9.00007 35 9.00007C35 9.99007 35 10.9801 35 12.0001C34.01 12.0001 33.02 12.0001 32 12.0001C32 15.9601 32 19.9201 32 24.0001C32.99 24.0001 33.98 24.0001 35 24.0001C35 24.9901 35 25.9801 35 27.0001C36.32 27.0001 37.64 27.0001 39 27.0001C39.33 28.6501 39.66 30.3001 40 32.0001C33.07 32.0001 26.14 32.0001 19 32.0001C19 27.7101 19 23.4201 19 19.0001C19.99 19.0001 20.98 19.0001 22 19.0001C22.2166 17.8244 22.2166 17.8244 22.4375 16.6251C23 14.0001 23 14.0001 24 12.0001C24.66 12.0001 25.32 12.0001 26 12.0001C26 10.6801 26 9.36007 26 8.00007C28.31 8.00007 30.62 8.00007 33 8.00007C33 7.34007 33 6.68007 33 6.00007C36.427 4.28656 40.361 4.87148 44.1313 4.88654Z" fill="#384E81"/>
<path d="M103 92C107.95 92 112.9 92 118 92C118 96.95 118 101.9 118 107C120.97 106.505 120.97 106.505 124 106C124 102.04 124 98.08 124 94C124.33 94 124.66 94 125 94C125.495 99.94 125.495 99.94 126 106C126.987 106.026 127.975 106.052 128.992 106.078C130.914 106.163 130.914 106.163 132.875 106.25C134.151 106.296 135.427 106.343 136.742 106.391C140 107 140 107 141.445 108.797C142 111 142 111 142 115C140.68 115 139.36 115 138 115C138 113.35 138 111.7 138 110C137.01 110.66 136.02 111.32 135 112C132.957 112.195 132.957 112.195 130.812 112.125C129.554 112.084 128.296 112.043 127 112C127 113.65 127 115.3 127 117C124.03 117 121.06 117 118 117C118 116.34 118 115.68 118 115C117.34 115 116.68 115 116 115C116 114.34 116 113.68 116 113C114.041 113.087 112.083 113.195 110.125 113.312C109.034 113.371 107.944 113.429 106.82 113.488C105.89 113.657 104.959 113.826 104 114C103.34 114.99 102.68 115.98 102 117C100.35 117 98.7 117 97 117C97 120.3 97 123.6 97 127C96.67 127 96.34 127 96 127C95.67 122.71 95.34 118.42 95 114C92.7089 113.919 90.417 113.861 88.125 113.812C86.8488 113.778 85.5727 113.743 84.2578 113.707C82.6452 113.852 82.6452 113.852 81 114C80.34 114.99 79.68 115.98 79 117C75.875 117.188 75.875 117.188 73 117C73 116.34 73 115.68 73 115C71.68 115 70.36 115 69 115C69 114.34 69 113.68 69 113C64.38 113.33 59.76 113.66 55 114C55 114.99 55 115.98 55 117C52 118 52 118 49 117C49 115.02 49 113.04 49 111C51.1687 111.506 52.9997 112 55 113C55 111.35 55 109.7 55 108C64.3059 107.892 73.5778 107.99 82.875 108.438C83.7364 108.477 84.5978 108.516 85.4854 108.556C86.292 108.598 87.0986 108.64 87.9297 108.684C88.6437 108.72 89.3576 108.757 90.0933 108.795C92 109 92 109 95 110C96.0542 106.838 96.3128 104.131 96.5625 100.812C96.6463 99.7258 96.7301 98.6391 96.8164 97.5195C96.9073 96.2724 96.9073 96.2724 97 95C98.65 95 100.3 95 102 95C102.33 94.01 102.66 93.02 103 92Z" fill="#EAE3CA"/>
<path d="M153 20C154.65 20 156.3 20 158 20C158 55.31 158 90.62 158 127C156.35 127 154.7 127 153 127C153 96.97 153 66.94 153 36C147.72 36 142.44 36 137 36C137 35.01 137 34.02 137 33C142.28 33 147.56 33 153 33C153 28.71 153 24.42 153 20Z" fill="#1E0E19"/>
<path d="M45 6C61.17 6 77.34 6 94 6C93.34 6.33 92.68 6.66 92 7C91.6178 8.65615 91.286 10.3246 91 12C90.67 12.66 90.34 13.32 90 14C87.3333 13.3333 84.6667 12.6667 82 12C82 10.35 82 8.7 82 7C73.42 7.33 64.84 7.66 56 8C56.33 9.32 56.66 10.64 57 12C59.31 12.33 61.62 12.66 64 13C64.125 20.75 64.125 20.75 63 23C60.36 23 57.72 23 55 23C55 24.32 55 25.64 55 27C55.99 27 56.98 27 58 27C58 28.65 58 30.3 58 32C53.38 32 48.76 32 44 32C44 30.35 44 28.7 44 27C44.66 26.4225 45.32 25.845 46 25.25C48.7608 22.1441 48.3221 19.8456 48.1406 15.8281C48.0942 15.2248 48.0478 14.6216 48 14C47.34 13.67 46.68 13.34 46 13C46.0206 14.0931 46.0412 15.1862 46.0625 16.3125C46 20 46 20 45 23C42.69 23 40.38 23 38 23C38 22.34 38 21.68 38 21C37.01 21 36.02 21 35 21C35 18.69 35 16.38 35 14C35.66 14 36.32 14 37 14C37 13.34 37 12.68 37 12C39.64 12 42.28 12 45 12C45 10.02 45 8.04 45 6Z" fill="#254E84"/>
<path d="M33 0C66.99 0 100.98 0 136 0C136 1.32 136 2.64 136 4C138.64 4 141.28 4 144 4C144 5.32 144 6.64 144 8C144.99 8 145.98 8 147 8C147 9.32 147 10.64 147 12C148.65 12 150.3 12 152 12C152 14.31 152 16.62 152 19C151.01 19 150.02 19 149 19C149 17.68 149 16.36 149 15C147.02 15 145.04 15 143 15C143 13.68 143 12.36 143 11C142.34 11 141.68 11 141 11C141 10.01 141 9.02 141 8C139.68 8.33 138.36 8.66 137 9C136.67 10.32 136.34 11.64 136 13C133.69 13 131.38 13 129 13C129 11.68 129 10.36 129 9C129.99 9 130.98 9 132 9C132 7.68 132 6.36 132 5C113.52 5 95.04 5 76 5C76 4.67 76 4.34 76 4C83.26 3.67 90.52 3.34 98 3C66.32 2.505 66.32 2.505 34 2C33.67 2.99 33.34 3.98 33 5C33 3.35 33 1.7 33 0Z" fill="#1A0F20"/>
<path d="M19.9993 36C38.1493 36 56.2993 36 74.9993 36C74.6693 36.66 74.3393 37.32 73.9993 38C80.9293 38 87.8593 38 94.9993 38C94.9993 37.67 94.9993 37.34 94.9993 37C109.189 37 123.379 37 137.999 37C137.999 37.66 137.999 38.32 137.999 39C133.084 40.2924 128.226 40.1114 123.187 40.0625C122.303 40.058 121.42 40.0535 120.509 40.0488C118.339 40.0371 116.169 40.0192 113.999 40C113.669 41.32 113.339 42.64 112.999 44C112.009 44 111.019 44 109.999 44C109.999 42.68 109.999 41.36 109.999 40C99.1093 40 88.2193 40 76.9993 40C76.9993 40.99 76.9993 41.98 76.9993 43C76.0093 43 75.0193 43 73.9993 43C73.9993 42.01 73.9993 41.02 73.9993 40C67.3993 40 60.7993 40 53.9993 40C53.6693 41.32 53.3393 42.64 52.9993 44C52.3393 44 51.6793 44 50.9993 44C50.9993 42.35 50.9993 40.7 50.9993 39C41.7593 39 32.5193 39 22.9993 39C22.9993 40.98 22.9993 42.96 22.9993 45C21.6793 45 20.3593 45 18.9993 45C18.9993 46.98 18.9993 48.96 18.9993 51C18.3393 51 17.6793 51 16.9993 51C15.7161 47.1505 15.9329 44.0526 15.9993 40C17.3193 39.67 18.6393 39.34 19.9993 39C19.9993 38.01 19.9993 37.02 19.9993 36Z" fill="#CDC2B5"/>
<path d="M75 36.0001C77.5439 35.7134 79.8426 35.6215 82.3872 35.6595C83.1606 35.6591 83.934 35.6588 84.7308 35.6584C87.2401 35.6606 89.7487 35.6835 92.2578 35.7071C93.8046 35.7115 95.3514 35.7146 96.8982 35.7163C102.641 35.732 108.383 35.7739 114.125 35.8126C126.954 35.8744 139.783 35.9363 153 36.0001C153 66.0301 153 96.0601 153 127C151.35 127.33 149.7 127.66 148 128C148 128.66 148 129.32 148 130C146.515 129.505 146.515 129.505 145 129C145.66 129 146.32 129 147 129C147.495 127.02 147.495 127.02 148 125C148.66 125 149.32 125 150 125C150 120.05 150 115.1 150 110C150.33 110 150.66 110 151 110C151.025 104.464 151.043 98.9283 151.055 93.3924C151.06 91.5076 151.067 89.6229 151.075 87.7381C151.088 85.0351 151.093 82.3321 151.098 79.629C151.105 78.3571 151.105 78.3571 151.113 77.0595C151.113 75.0394 151.062 73.0193 151 71.0001C150.67 70.6701 150.34 70.3401 150 70.0001C149.841 67.7832 149.749 65.5615 149.684 63.3399C149.663 62.6755 149.642 62.011 149.621 61.3264C149.555 59.1969 149.496 57.0673 149.438 54.9376C149.394 53.4968 149.351 52.0561 149.307 50.6153C149.199 47.077 149.098 43.5386 149 40.0001C145.7 40.0001 142.4 40.0001 139 40.0001C138.505 38.5151 138.505 38.5151 138 37.0001C128.43 37.3301 118.86 37.6601 109 38.0001C109 38.3301 109 38.6601 109 39.0001C97.12 39.0001 85.24 39.0001 73 39.0001C73.66 38.0101 74.32 37.0201 75 36.0001Z" fill="#CCBDA3"/>
<path d="M110 13C113.96 13 117.92 13 122 13C122 13.66 122 14.32 122 15C122.99 15 123.98 15 125 15C125 14.34 125 13.68 125 13C129.62 13 134.24 13 139 13C139 16.3 139 19.6 139 23C138.34 23 137.68 23 137 23C137 23.99 137 24.98 137 26C130.931 26.2529 125.838 25.6983 120 24C120 24.99 120 25.98 120 27C119.34 27 118.68 27 118 27C118 27.99 118 28.98 118 30C115.69 30.33 113.38 30.66 111 31C111 29.35 111 27.7 111 26C113.64 26 116.28 26 119 26C119 25.01 119 24.02 119 23C116.03 23 113.06 23 110 23C110 19.7 110 16.4 110 13Z" fill="#2D4169"/>
<path d="M143 133C143 134.65 143 136.3 143 138C103.73 138 64.46 138 24 138C24 137.01 24 136.02 24 135C24.596 134.996 25.192 134.992 25.806 134.987C40.294 134.884 54.782 134.775 69.2699 134.661C76.2761 134.605 83.2823 134.552 90.2886 134.503C97.0448 134.455 103.801 134.403 110.557 134.347C113.14 134.327 115.723 134.308 118.306 134.291C121.912 134.267 125.518 134.237 129.125 134.205C130.202 134.2 131.28 134.194 132.39 134.188C133.368 134.178 134.347 134.168 135.356 134.158C136.209 134.152 137.063 134.145 137.942 134.139C139.866 134.009 141.182 133 143 133Z" fill="#A29B97"/>
<path d="M153 127C153 129.97 153 132.94 153 136C152.34 136 151.68 136 151 136C151 136.99 151 137.98 151 139C149.02 139 147.04 139 145 139C145 140.32 145 141.64 145 143C104.41 143 63.82 143 22 143C22 142.67 22 142.34 22 142C62.26 142 102.52 142 144 142C144 141.01 144 140.02 144 139C104.4 139 64.8 139 24 139C24 138.67 24 138.34 24 138C63.27 138 102.54 138 143 138C143 136.02 143 134.04 143 132C143.66 132 144.32 132 145 132C145 131.34 145 130.68 145 130C145.99 130 146.98 130 148 130C148 129.34 148 128.68 148 128C151.875 127 151.875 127 153 127Z" fill="#4F4559"/>
<path d="M55 108C66.1245 107.88 77.1731 108.144 88.2788 108.8C90.6582 108.939 93.038 109.071 95.418 109.201C96.9584 109.289 98.4987 109.376 100.039 109.465C101.086 109.523 101.086 109.523 102.154 109.582C106.488 109.842 110.715 110.334 115 111C115 111.33 115 111.66 115 112C111.37 112 107.74 112 104 112C103.34 113.65 102.68 115.3 102 117C100.35 117 98.7 117 97 117C97 120.3 97 123.6 97 127C96.67 127 96.34 127 96 127C95.67 122.71 95.34 118.42 95 114C92.7089 113.919 90.417 113.861 88.125 113.813C86.8488 113.778 85.5727 113.743 84.2578 113.707C82.6452 113.852 82.6452 113.852 81 114C80.01 115.485 80.01 115.485 79 117C75.875 117.188 75.875 117.188 73 117C73 116.34 73 115.68 73 115C71.68 115 70.36 115 69 115C69 114.34 69 113.68 69 113C64.38 113.33 59.76 113.66 55 114C55 114.99 55 115.98 55 117C52 118 52 118 49 117C49 115.02 49 113.04 49 111C51.1687 111.506 52.9997 112 55 113C55 111.35 55 109.7 55 108Z" fill="#FCF8DB"/>
<path d="M31 70C33.7554 69.7239 36.2509 69.6275 39 69.6875C40.106 69.6827 40.106 69.6827 41.2344 69.6778C46.7329 69.733 46.7329 69.733 49 72C49.2305 74.75 49.2305 74.75 49.1875 78C49.1811 79.0725 49.1746 80.145 49.168 81.25C49 84 49 84 48 86C45.2078 86.0808 42.4178 86.1404 39.625 86.1875C38.8309 86.2127 38.0369 86.2378 37.2188 86.2637C35.1441 86.2901 33.069 86.1549 31 86C28.8406 82.7609 28.7277 81.7514 28.75 78C28.7448 77.1338 28.7397 76.2675 28.7344 75.375C29 73 29 73 31 70Z" fill="#488D64"/>
<path d="M30 92C35.94 92 41.88 92 48 92C49.3725 94.7451 49.1323 97.0033 49.125 100.062C49.1289 101.689 49.1289 101.689 49.1328 103.348C49 106 49 106 48 107C46.6696 107.098 45.3341 107.131 44 107.133C43.1956 107.134 42.3913 107.135 41.5625 107.137C40.7169 107.133 39.8712 107.129 39 107.125C38.1544 107.129 37.3087 107.133 36.4375 107.137C35.6331 107.135 34.8288 107.134 34 107.133C33.2575 107.132 32.515 107.131 31.75 107.129C30 107 30 107 29 106C28.901 104.023 28.8703 102.042 28.875 100.062C28.8724 98.981 28.8698 97.8995 28.8672 96.7852C29 94 29 94 30 92Z" fill="#14485D"/>
<path d="M23 14C25.64 14 28.28 14 31 14C31.33 17.3 31.66 20.6 32 24C32.99 24 33.98 24 35 24C35 24.99 35 25.98 35 27C36.32 27 37.64 27 39 27C39.33 28.65 39.66 30.3 40 32C33.07 32 26.14 32 19 32C19 27.71 19 23.42 19 19C19.99 19 20.98 19 22 19C22.33 17.35 22.66 15.7 23 14Z" fill="#476E9E"/>
<path d="M56 70C61.28 70 66.56 70 72 70C74.1308 74.2616 73.045 80.4076 73 85C67.39 85 61.78 85 56 85C56 80.05 56 75.1 56 70Z" fill="#146058"/>
<path d="M34 2C58.09 2 82.18 2 107 2C107 2.33 107 2.66 107 3C101.038 3.70836 95.1223 4.23677 89.125 4.5C87.8022 4.55982 87.8022 4.55982 86.4526 4.62085C68.646 5.36051 50.8172 5.62402 33 6C33 6.66 33 7.32 33 8C30.69 8 28.38 8 26 8C26 9.32 26 10.64 26 12C24.02 12.33 22.04 12.66 20 13C20 13.66 20 14.32 20 15C19.34 15 18.68 15 18 15C18 14.34 18 13.68 18 13C17.34 12.67 16.68 12.34 16 12C17.65 12 19.3 12 21 12C20.9381 11.2369 20.8762 10.4737 20.8125 9.6875C21 7 21 7 22.2188 5.34375C24.5199 3.60783 25.8398 3.68869 28.6875 3.8125C29.8999 3.85311 29.8999 3.85311 31.1367 3.89453C31.7516 3.92934 32.3665 3.96414 33 4C33.33 3.34 33.66 2.68 34 2Z" fill="#1D0B1A"/>
<path d="M56 48C61.28 48 66.56 48 72 48C72.9878 50.9635 73.1341 52.9713 73.125 56.0625C73.1289 57.3793 73.1289 57.3793 73.1328 58.7227C73 61 73 61 72 63C66.72 63 61.44 63 56 63C56 58.05 56 53.1 56 48Z" fill="#1D6A3E"/>
<path d="M45 6C61.17 6 77.34 6 94 6C93.34 6.33 92.68 6.66 92 7C91.6178 8.65615 91.286 10.3246 91 12C90.67 12.66 90.34 13.32 90 14C87.3333 13.3333 84.6667 12.6667 82 12C82 10.35 82 8.7 82 7C73.42 7.33 64.84 7.66 56 8C56.33 9.32 56.66 10.64 57 12C59.31 12.33 61.62 12.66 64 13C64.125 20.75 64.125 20.75 63 23C59.284 23.2009 58.2279 23.1519 55 21C54.5886 17.9613 54.8681 15.0784 55 12C51.7 12 48.4 12 45 12C45 10.02 45 8.04 45 6Z" fill="#4469B0"/>
<path d="M56 92C61.28 92 66.56 92 72 92C73.3306 97.3226 72.584 101.549 72 107C66.72 107 61.44 107 56 107C56 102.05 56 97.1 56 92Z" fill="#A88763"/>
<path d="M84.125 69.8672C85.4037 69.8698 86.6825 69.8723 88 69.875C89.2787 69.8724 90.5575 69.8698 91.875 69.8672C95 70 95 70 96 71C96.1251 72.9762 96.1757 74.9574 96.1875 76.9375C96.2017 78.019 96.2159 79.1005 96.2305 80.2148C96 83 96 83 94 85C90.7422 85.1953 90.7422 85.1953 86.875 85.125C84.953 85.0979 84.953 85.0979 82.9922 85.0703C81.5111 85.0355 81.5111 85.0355 80 85C79.9731 82.6876 79.9537 80.375 79.9375 78.0625C79.9259 76.7747 79.9143 75.487 79.9023 74.1602C80.0296 70.0412 80.0296 70.0412 84.125 69.8672Z" fill="#FA2A30"/>
<path d="M104 48C106.146 47.9731 108.292 47.9537 110.438 47.9375C111.632 47.9259 112.827 47.9143 114.059 47.9023C117 48 117 48 118 49C118.144 53.6685 118.042 58.3287 118 63C112.72 63 107.44 63 102 63C102 59.04 102 55.08 102 51C102.66 51 103.32 51 104 51C104 50.01 104 49.02 104 48Z" fill="#FDB021"/>
<path d="M86.875 112.75C88.4799 112.711 88.4799 112.711 90.1172 112.672C93 113 93 113 94.8711 114.16C96.4567 116.744 96.2936 118.683 96.1875 121.688C96.1604 122.681 96.1334 123.675 96.1055 124.699C96.0707 125.458 96.0359 126.218 96 127C92.9969 128.502 90.2093 128.093 86.875 128.062C85.5937 128.053 84.3123 128.044 82.9922 128.035C81.5111 128.018 81.5111 128.018 80 128C79.9731 125.688 79.9537 123.375 79.9375 121.062C79.9259 119.775 79.9143 118.487 79.9023 117.16C80.066 111.863 82.083 112.819 86.875 112.75Z" fill="#C5242A"/>
<path d="M126 70C128.146 69.9731 130.292 69.9537 132.438 69.9375C133.632 69.9259 134.827 69.9143 136.059 69.9023C139 70 139 70 140 71C140.099 73.1648 140.13 75.3329 140.125 77.5C140.129 79.2789 140.129 79.2789 140.133 81.0938C140 84 140 84 139 85C136.47 85.0731 133.967 85.0925 131.438 85.0625C130.371 85.0557 130.371 85.0557 129.283 85.0488C127.522 85.037 125.761 85.0191 124 85C124 81.04 124 77.08 124 73C124.66 73 125.32 73 126 73C126 72.01 126 71.02 126 70Z" fill="#84BBFB"/>
<path d="M103 92C107.95 92 112.9 92 118 92C118 96.95 118 101.9 118 107C113.05 107 108.1 107 103 107C103 102.05 103 97.1 103 92Z" fill="#F5C032"/>
<path d="M80 92C84.95 92 89.9 92 95 92C97.029 96.0581 96.0468 101.601 96 106C90.72 106 85.44 106 80 106C80 101.38 80 96.76 80 92Z" fill="#B92C34"/>
<path d="M104 70C108.62 70 113.24 70 118 70C118 74.95 118 79.9 118 85C113.05 85 108.1 85 103 85C102.875 73.375 102.875 73.375 104 70Z" fill="#FCDB2C"/>
<path d="M125 92C127.125 91.9461 129.25 91.9073 131.375 91.875C132.558 91.8518 133.742 91.8286 134.961 91.8047C138 92 138 92 140 94C140.195 97.0391 140.195 97.0391 140.125 100.625C140.107 101.814 140.089 103.002 140.07 104.227C140.047 105.142 140.024 106.057 140 107C137.687 107.027 135.375 107.046 133.062 107.062C131.775 107.074 130.487 107.086 129.16 107.098C126 107 126 107 125 106C124.927 103.647 124.916 101.292 124.937 98.9375C124.946 97.6471 124.955 96.3568 124.965 95.0273C124.976 94.0283 124.988 93.0293 125 92Z" fill="#B55843"/>
<path d="M81 49C83.3124 48.9731 85.625 48.9537 87.9375 48.9375C89.2253 48.9259 90.513 48.9143 91.8398 48.9023C95 49 95 49 96 50C96.1439 54.3353 96.0421 58.6616 96 63C90.72 63 85.44 63 80 63C79.875 51.25 79.875 51.25 81 49Z" fill="#488EED"/>
<path d="M106.722 112.902C108.375 112.92 108.375 112.92 110.062 112.938C111.719 112.951 111.719 112.951 113.409 112.965C114.264 112.976 115.118 112.988 115.999 113C115.999 113.66 115.999 114.32 115.999 115C116.659 115 117.319 115 117.999 115C117.999 119.29 117.999 123.58 117.999 128C113.049 128 108.099 128 102.999 128C102.901 117.16 102.901 117.16 102.999 114C103.999 113 103.999 113 106.722 112.902Z" fill="#FC8920"/>
<path d="M14 40C14.33 40 14.66 40 15 40C15.33 58.48 15.66 76.96 16 96C16.66 96 17.32 96 18 96C18.33 96.66 18.66 97.32 19 98C21.0246 98.6521 21.0246 98.6521 23 99C22.505 101.475 22.505 101.475 22 104C20.68 104 19.36 104 18 104C18.33 112.58 18.66 121.16 19 130C19.99 130 20.98 130 22 130C22.66 131.65 23.32 133.3 24 135C22.02 134.67 20.04 134.34 18 134C18 132.68 18 131.36 18 130C16.68 129.67 15.36 129.34 14 129C14 99.63 14 70.26 14 40Z" fill="#85787B"/>
<path d="M129.277 47.7695C130.155 47.7837 131.033 47.7979 131.938 47.8125C132.813 47.8189 133.688 47.8254 134.59 47.832C137 48 137 48 140 49C140 53.29 140 57.58 140 62C137.116 63.4421 134.583 63.0939 131.375 63.0625C130.186 63.0535 128.998 63.0445 127.773 63.0352C126.858 63.0236 125.943 63.012 125 63C124.946 60.8753 124.907 58.7502 124.875 56.625C124.852 55.4416 124.829 54.2583 124.805 53.0391C125.038 49.4123 125.533 48.1484 129.277 47.7695Z" fill="#E4782E"/>
<path d="M33 0C66.99 0 100.98 0 136 0C135.67 1.65 135.34 3.3 135 5C134.505 3.515 134.505 3.515 134 2C101 2 68 2 34 2C33.67 2.99 33.34 3.98 33 5C33 3.35 33 1.7 33 0Z" fill="#41373E"/>
<path d="M72 12C72.33 12 72.66 12 73 12C73.33 14.64 73.66 17.28 74 20C76.31 20 78.62 20 81 20C81.33 17.69 81.66 15.38 82 13C84.64 13.33 87.28 13.66 90 14C90 13.34 90 12.68 90 12C90.66 12 91.32 12 92 12C92.33 15.63 92.66 19.26 93 23C95.97 23 98.94 23 102 23C102 23.99 102 24.98 102 26C98.7 26 95.4 26 92 26C92 25.34 92 24.68 92 24C91.01 24 90.02 24 89 24C89 22.35 89 20.7 89 19C88.34 19 87.68 19 87 19C87 20.32 87 21.64 87 23C86.01 23.33 85.02 23.66 84 24C84 24.66 84 25.32 84 26C82.68 26 81.36 26 80 26C80 27.32 80 28.64 80 30C79.34 30 78.68 30 78 30C78 28.68 78 27.36 78 26C76.35 26 74.7 26 73 26C73 25.01 73 24.02 73 23C72.34 23 71.68 23 71 23C70.9731 21.3543 70.9537 19.7084 70.9375 18.0625C70.9259 17.146 70.9143 16.2295 70.9023 15.2852C71 13 71 13 72 12Z" fill="#251F34"/>
<path d="M38 47C46.4 47 46.4 47 49 48C50.3223 50.6446 50.0968 52.6776 50.0625 55.625C50.0535 56.6279 50.0445 57.6308 50.0352 58.6641C50.0236 59.4349 50.012 60.2058 50 61C49.01 61 48.02 61 47 61C47 61.99 47 62.98 47 64C44.03 64 41.06 64 38 64C38 58.39 38 52.78 38 47Z" fill="#866B09"/>
<path d="M35 9C38.3 9 41.6 9 45 9C45 9.99 45 10.98 45 12C42.36 12 39.72 12 37 12C37 12.66 37 13.32 37 14C36.34 14 35.68 14 35 14C35 16.31 35 18.62 35 21C35.99 21 36.98 21 38 21C38 21.66 38 22.32 38 23C40.31 23 42.62 23 45 23C45.33 19.7 45.66 16.4 46 13C46.99 13.33 47.98 13.66 49 14C49 16.97 49 19.94 49 23C48.01 23.33 47.02 23.66 46 24C45.1979 25.8739 45.1979 25.8739 44.8125 28.0625C44.5747 29.1627 44.5747 29.1627 44.332 30.2852C44.2225 30.8511 44.1129 31.417 44 32C42.35 31.67 40.7 31.34 39 31C39 29.68 39 28.36 39 27C37.68 27 36.36 27 35 27C35 26.01 35 25.02 35 24C34.01 24 33.02 24 32 24C32 20.04 32 16.08 32 12C32.99 12 33.98 12 35 12C35 11.01 35 10.02 35 9Z" fill="#24181E"/>
<path d="M55 94C55.33 94 55.66 94 56 94C56 98.29 56 102.58 56 107C61.28 107 66.56 107 72 107C72 103.37 72 99.74 72 96C72.33 96 72.66 96 73 96C73.33 98.31 73.66 100.62 74 103C75.32 103 76.64 103 78 103C78.33 100.03 78.66 97.06 79 94C79.33 94 79.66 94 80 94C80 97.96 80 101.92 80 106C85.28 106 90.56 106 96 106C95.67 107.32 95.34 108.64 95 110C81.8 109.34 68.6 108.68 55 108C55 109.65 55 111.3 55 113C53 112 51 111 49 110C48.375 107.938 48.375 107.938 48 106C50.31 106.33 52.62 106.66 55 107C55 102.71 55 98.42 55 94Z" fill="#F1E0B6"/>
<path d="M75 36C77.5435 35.7134 79.8429 35.6214 82.3872 35.6594C83.5288 35.6587 83.5288 35.6587 84.6935 35.6581C87.2152 35.6602 89.7362 35.6835 92.2578 35.707C94.0037 35.7126 95.7497 35.7169 97.4956 35.7199C102.096 35.7313 106.695 35.7608 111.295 35.794C115.987 35.8246 120.679 35.8384 125.371 35.8535C134.581 35.8857 143.79 35.9369 153 36C153 36.99 153 37.98 153 39C148.05 39 143.1 39 138 39C138 38.34 138 37.68 138 37C128.43 37.33 118.86 37.66 109 38C109 38.33 109 38.66 109 39C97.12 39 85.24 39 73 39C73.66 38.01 74.32 37.02 75 36Z" fill="#C1B2A3"/>
<path d="M19.9993 36C31.2193 36 42.4393 36 53.9993 36C55.2071 39.6233 54.5424 40.6415 52.9993 44C52.3393 44 51.6793 44 50.9993 44C50.9993 42.35 50.9993 40.7 50.9993 39C41.7593 39 32.5193 39 22.9993 39C22.9993 40.98 22.9993 42.96 22.9993 45C21.6793 45 20.3593 45 18.9993 45C18.9993 46.98 18.9993 48.96 18.9993 51C18.3393 51 17.6793 51 16.9993 51C15.7161 47.1505 15.9329 44.0526 15.9993 40C17.3193 39.67 18.6393 39.34 19.9993 39C19.9993 38.01 19.9993 37.02 19.9993 36Z" fill="#B4AC9A"/>
<path d="M63.125 112.938C64.2207 112.947 65.3164 112.956 66.4453 112.965C67.2884 112.976 68.1314 112.988 69 113C69 113.66 69 114.32 69 115C70.32 115 71.64 115 73 115C73 115.66 73 116.32 73 117C74.98 117 76.96 117 79 117C79.33 116.34 79.66 115.68 80 115C80 116.65 80 118.3 80 120C78 121 78 121 75 121C74.01 121.33 73.02 121.66 72 122C72 120.02 72 118.04 72 116C71.01 116 70.02 116 69 116C68.34 118.31 67.68 120.62 67 123C64.36 123 61.72 123 59 123C58.34 121.02 57.68 119.04 57 117C56.34 117.66 55.68 118.32 55 119C54.34 118.34 53.68 117.68 53 117C53.66 117 54.32 117 55 117C55 116.01 55 115.02 55 114C57.7645 112.618 60.0461 112.905 63.125 112.938Z" fill="#E1DDCE"/>
<path d="M72 7C75.3 7 78.6 7 82 7C82 8.65 82 10.3 82 12C83.32 12.33 84.64 12.66 86 13C84.68 13 83.36 13 82 13C82.0206 14.1344 82.0412 15.2687 82.0625 16.4375C82 20 82 20 81 21C77.5 21.125 77.5 21.125 74 21C72.1218 19.1218 72.609 15.9606 72.4375 13.4375C72.3537 12.24 72.2699 11.0424 72.1836 9.80859C72.123 8.88176 72.0624 7.95492 72 7Z" fill="#54567A"/>
<path d="M150 70C150.66 70.33 151.32 70.66 152 71C152 85.19 152 99.38 152 114C151.67 114 151.34 114 151 114C150.67 117.63 150.34 121.26 150 125C149.67 125 149.34 125 149 125C149 117.41 149 109.82 149 102C147.35 102 145.7 102 144 102C144 101.01 144 100.02 144 99C144.639 98.8762 145.279 98.7525 145.938 98.625C146.618 98.4188 147.299 98.2125 148 98C149.341 95.3179 149.215 93.116 149.316 90.1172C149.358 88.9506 149.4 87.784 149.443 86.582C149.502 84.7471 149.502 84.7471 149.562 82.875C149.627 81.0284 149.627 81.0284 149.693 79.1445C149.8 76.0965 149.902 73.0483 150 70Z" fill="#D9CFB4"/>
<path d="M65.125 6.93753C66.4063 6.94656 67.6877 6.95558 69.0078 6.96488C69.9952 6.97648 70.9827 6.98808 72 7.00003C73.125 10.75 73.125 10.75 72 13C71.7738 14.7037 71.5911 16.4133 71.4375 18.125C71.3537 19.0351 71.2699 19.9452 71.1836 20.8828C71.123 21.5815 71.0624 22.2802 71 23C70.01 22.67 69.02 22.34 68 22C67.67 19.36 67.34 16.72 67 14C63.7 13.67 60.4 13.34 57 13C56.67 11.35 56.34 9.70003 56 8.00003C59.0031 6.49847 61.7907 6.90722 65.125 6.93753Z" fill="#3165B1"/>
<path d="M45 74C45.66 74 46.32 74 47 74C47.0269 75.6457 47.0463 77.2916 47.0625 78.9375C47.0741 79.854 47.0857 80.7705 47.0977 81.7148C47 84 47 84 46 85C43.3035 85.0732 40.6331 85.0924 37.9375 85.0625C36.7996 85.0557 36.7996 85.0557 35.6387 85.0488C33.7591 85.037 31.8795 85.0191 30 85C30 81.7 30 78.4 30 75C30.33 76.32 30.66 77.64 31 79C32.9605 78.7452 34.9184 78.4706 36.875 78.1875C37.9655 78.0367 39.0561 77.8859 40.1797 77.7305C43.3124 77.2533 43.3124 77.2533 45 74Z" fill="#074640"/>
<path d="M30 92C35.94 92 41.88 92 48 92C48 92.66 48 93.32 48 94C46.68 94 45.36 94 44 94C43.5669 94.9281 43.5669 94.9281 43.125 95.875C42 98 42 98 40 100C37.6172 100.195 37.6172 100.195 34.875 100.125C33.5099 100.098 33.5099 100.098 32.1172 100.07C31.4185 100.047 30.7198 100.024 30 100C30.33 102.31 30.66 104.62 31 107C30.34 106.67 29.68 106.34 29 106C28.9731 104.042 28.9536 102.083 28.9375 100.125C28.9259 99.0345 28.9143 97.9439 28.9023 96.8203C29 94 29 94 30 92Z" fill="#37A179"/>
<path d="M56 48C61.28 48 66.56 48 72 48C72.33 49.32 72.66 50.64 73 52C71.02 52.33 69.04 52.66 67 53C67 54.32 67 55.64 67 57C63.7 57 60.4 57 57 57C56.67 54.03 56.34 51.06 56 48Z" fill="#35A44C"/>
<path d="M106 12C107.32 12.33 108.64 12.66 110 13C110 16.3 110 19.6 110 23C112.97 23 115.94 23 119 23C119 23.99 119 24.98 119 26C115.04 26 111.08 26 107 26C106.67 25.34 106.34 24.68 106 24C104.68 23.67 103.36 23.34 102 23C102 19.7 102 16.4 102 13C102.99 13.33 103.98 13.66 105 14C105.33 13.34 105.66 12.68 106 12Z" fill="#222442"/>
<path d="M56 70C61.28 70 66.56 70 72 70C72.33 70.99 72.66 71.98 73 73C72.1956 73.6187 71.3913 74.2375 70.5625 74.875C67.9613 76.7416 67.9613 76.7416 67 79C60.6034 79.3621 60.6034 79.3621 58.125 77.875C57 76 57 76 56 70Z" fill="#39A75D"/>
<path d="M115 51C115.99 51 116.98 51 118 51C118 54.96 118 58.92 118 63C113.05 63 108.1 63 103 63C103 59.37 103 55.74 103 52C105 56 105 56 105 58C110.228 57.046 110.228 57.046 113.75 53.375C114.162 52.5913 114.575 51.8075 115 51Z" fill="#CD272A"/>
<path d="M118 51C118.33 51 118.66 51 119 51C119.33 53.64 119.66 56.28 120 59C120.99 58.67 121.98 58.34 123 58C123.33 55.69 123.66 53.38 124 51C124.33 51 124.66 51 125 51C125 54.96 125 58.92 125 63C129.95 62.67 134.9 62.34 140 62C140 62.66 140 63.32 140 64C136.368 65.2108 133.049 65.1244 129.27 65.0977C128.519 65.0962 127.769 65.0948 126.996 65.0934C124.601 65.0878 122.207 65.0752 119.812 65.0625C118.188 65.0575 116.564 65.0529 114.939 65.0488C110.96 65.0378 106.98 65.0205 103 65C103 64.34 103 63.68 103 63C107.95 63 112.9 63 118 63C118 59.04 118 55.08 118 51Z" fill="#EBD2B3"/>
<path d="M124 94C124.33 94 124.66 94 125 94C125.33 97.96 125.66 101.92 126 106C129.3 106.33 132.6 106.66 136 107C136 107.66 136 108.32 136 109C135.252 109.049 134.505 109.098 133.734 109.148C132.257 109.261 132.257 109.261 130.75 109.375C129.775 109.445 128.801 109.514 127.797 109.586C125.104 109.985 123.33 110.635 121 112C120.34 111.34 119.68 110.68 119 110C116.1 109.693 113.282 109.488 110.375 109.375C109.573 109.336 108.771 109.298 107.945 109.258C105.964 109.163 103.982 109.081 102 109C102 104.38 102 99.76 102 95C102.33 95 102.66 95 103 95C103 98.96 103 102.92 103 107C113.395 106.505 113.395 106.505 124 106C124 102.04 124 98.08 124 94Z" fill="#E7D3B0"/>
<path d="M56 92C61.28 92 66.56 92 72 92C72 92.99 72 93.98 72 95C70.3447 96.0187 68.6774 97.0181 67 98C66.67 98.99 66.34 99.98 66 101C63.03 101 60.06 101 57 101C56.67 98.03 56.34 95.06 56 92Z" fill="#DEC88E"/>
<path d="M116 73C116.66 73 117.32 73 118 73C118 76.96 118 80.92 118 85C113.05 85 108.1 85 103 85C103 81.37 103 77.74 103 74C103.66 74 104.32 74 105 74C105 76.31 105 78.62 105 81C106.98 81 108.96 81 111 81C111 80.01 111 79.02 111 78C112.32 78 113.64 78 115 78C115.33 76.35 115.66 74.7 116 73Z" fill="#EC842E"/>
<path d="M80 92C84.95 92 89.9 92 95 92C95 92.66 95 93.32 95 94C93.68 94.33 92.36 94.66 91 95C91 97.31 91 99.62 91 102C86.545 102.495 86.545 102.495 82 103C81.7721 101.014 81.5443 99.0286 81.3164 97.043C81.0283 94.806 81.0283 94.806 80 92Z" fill="#F27840"/>
<path d="M69 116C69.99 116 70.98 116 72 116C72 119.96 72 123.92 72 128C66.72 128 61.44 128 56 128C56 125.36 56 122.72 56 120C56.33 120 56.66 120 57 120C57 121.65 57 123.3 57 125C57.66 124.67 58.32 124.34 59 124C61.6724 123.866 64.3225 123.957 67 124C67.2166 122.577 67.2166 122.577 67.4375 121.125C68 118 68 118 69 116Z" fill="#B4ACA9"/>
<path d="M19 33C42.6725 32.7686 66.3358 33.4477 90 34C90 34.33 90 34.66 90 35C81.6289 35.1773 73.2577 35.3432 64.886 35.4947C60.9984 35.5655 57.111 35.64 53.2236 35.7236C49.4696 35.8042 45.7155 35.8744 41.9611 35.9375C40.5314 35.9634 39.1017 35.9929 37.6721 36.0262C35.6643 36.0724 33.6561 36.1041 31.6479 36.1352C30.5066 36.1574 29.3652 36.1796 28.1892 36.2025C24.8199 35.9885 22.1409 35.205 19 34C19 33.67 19 33.34 19 33Z" fill="#100919"/>
<path d="M125 92C129.29 92 133.58 92 138 92C138 95.1055 137.46 96.3526 136 99C135.01 99 134.02 99 133 99C133 99.66 133 100.32 133 101C131.02 101.33 129.04 101.66 127 102C124.677 98.2264 125 96.988 125 92Z" fill="#F1C444"/>
<path d="M92 13C95.3 13 98.6 13 102 13C102 16.3 102 19.6 102 23C99.03 23 96.06 23 93 23C91.3927 19.7855 91.9425 16.5639 92 13Z" fill="#FC7247"/>
<path d="M129.277 47.7344C130.155 47.7395 131.033 47.7447 131.938 47.75C132.813 47.7448 133.688 47.7397 134.59 47.7344C137 48 137 48 140 50C139.34 50 138.68 50 138 50C137.732 50.8044 137.464 51.6087 137.188 52.4375C136.796 53.2831 136.404 54.1288 136 55C135.01 55.33 134.02 55.66 133 56C133 56.66 133 57.32 133 58C131.02 58 129.04 58 127 58C126.611 56.7125 126.239 55.4198 125.875 54.125C125.562 53.0461 125.562 53.0461 125.242 51.9453C125.162 51.3034 125.082 50.6614 125 50C127 48 127 48 129.277 47.7344Z" fill="#FACF2B"/>
<path d="M22 15C22.33 15 22.66 15 23 15C23.33 19.95 23.66 24.9 24 30C27.63 30.33 31.26 30.66 35 31C35 29.68 35 28.36 35 27C36.32 27 37.64 27 39 27C39.33 28.65 39.66 30.3 40 32C33.07 32 26.14 32 19 32C19 27.71 19 23.42 19 19C19.99 19 20.98 19 22 19C22 17.68 22 16.36 22 15Z" fill="#385B94"/>
<path d="M45 13C46.125 19.625 46.125 19.625 45 23C42.69 23 40.38 23 38 23C38 22.34 38 21.68 38 21C37.01 21 36.02 21 35 21C35 18.69 35 16.38 35 14C38.2145 12.3927 41.4361 12.9425 45 13Z" fill="#F6D992"/>
<path d="M115 95C115.99 95 116.98 95 118 95C118 98.96 118 102.92 118 107C113.05 107 108.1 107 103 107C103 106.34 103 105.68 103 105C103.99 105 104.98 105 106 105C106.33 104.01 106.66 103.02 107 102C108.98 102 110.96 102 113 102C113.144 101.031 113.289 100.061 113.438 99.0625C114 96 114 96 115 95Z" fill="#C15F52"/>
<path d="M125 74C127 78 127 78 127 81C131.648 79.2461 134.22 78.2431 137 74C137.66 74 138.32 74 139 74C139.027 75.4582 139.046 76.9166 139.062 78.375C139.074 79.1871 139.086 79.9992 139.098 80.8359C139 83 139 83 138 85C133.71 85 129.42 85 125 85C125 81.37 125 77.74 125 74Z" fill="#4B8EFC"/>
<path d="M136 107C137.32 107 138.64 107 140 107C141.765 110.088 142 111.233 142 115C140.68 115 139.36 115 138 115C138 113.35 138 111.7 138 110C137.01 110.66 136.02 111.32 135 112C132.957 112.195 132.957 112.195 130.812 112.125C128.925 112.063 128.925 112.063 127 112C127 113.65 127 115.3 127 117C125.35 117 123.7 117 122 117C121.25 115.25 121.25 115.25 121 113C122.25 110.75 122.25 110.75 125 109C128.69 108.661 132.305 108.771 136 109C136 108.34 136 107.68 136 107Z" fill="#F2ECD1"/>
<path d="M87 19C87.66 19 88.32 19 89 19C89 20.65 89 22.3 89 24C89.99 24 90.98 24 92 24C92.33 26.31 92.66 28.62 93 31C88.71 31 84.42 31 80 31C80 29.35 80 27.7 80 26C81.32 26 82.64 26 84 26C83.67 25.01 83.34 24.02 83 23C84.32 23 85.64 23 87 23C87 21.68 87 20.36 87 19Z" fill="#4A6FA1"/>
<path d="M110 13C112.97 13 115.94 13 119 13C120.125 19.625 120.125 19.625 119 23C116.03 23 113.06 23 110 23C110 19.7 110 16.4 110 13Z" fill="#FDD76A"/>
<path d="M68 22C69.65 22.33 71.3 22.66 73 23C73 23.99 73 24.98 73 26C74.65 26 76.3 26 78 26C78 27.65 78 29.3 78 31C73.05 31 68.1 31 63 31C63 29.68 63 28.36 63 27C63.66 26.67 64.32 26.34 65 26C65 25.34 65 24.68 65 24C65.99 24 66.98 24 68 24C68 23.34 68 22.68 68 22Z" fill="#416CA3"/>
<path d="M79 72C79.33 72 79.66 72 80 72C80 76.29 80 80.58 80 85C82.292 84.8594 84.5836 84.7123 86.875 84.5625C88.1512 84.4813 89.4273 84.4001 90.7422 84.3164C93.883 84.2079 93.883 84.2079 96 83C95.67 84.32 95.34 85.64 95 87C82.46 87 69.92 87 57 87C56.67 86.34 56.34 85.68 56 85C63.59 85 71.18 85 79 85C79 80.71 79 76.42 79 72Z" fill="#DBD7C4"/>
<path d="M86.9375 112.812C88.019 112.798 89.1005 112.784 90.2148 112.77C93 113 93 113 95 115C94.5256 115.454 94.0513 115.907 93.5625 116.375C91.9097 117.933 91.9097 117.933 91 120C90.01 120 89.02 120 88 120C88 120.66 88 121.32 88 122C86.35 122 84.7 122 83 122C83 121.34 83 120.68 83 120C82.34 120 81.68 120 81 120C80.6187 118.009 80.2867 116.007 80 114C81.8075 112.193 84.5045 112.827 86.9375 112.812Z" fill="#FD5928"/>
<path d="M72 12C72.33 12 72.66 12 73 12C73.33 14.64 73.66 17.28 74 20C76.31 20 78.62 20 81 20C81.33 18.02 81.66 16.04 82 14C82.33 14 82.66 14 83 14C83 16.64 83 19.28 83 22C83.66 22.33 84.32 22.66 85 23C84.67 23.99 84.34 24.98 84 26C82.68 26 81.36 26 80 26C80 27.32 80 28.64 80 30C79.34 30 78.68 30 78 30C78 28.68 78 27.36 78 26C76.35 26 74.7 26 73 26C73 25.01 73 24.02 73 23C72.34 23 71.68 23 71 23C70.9731 21.3543 70.9537 19.7084 70.9375 18.0625C70.9259 17.146 70.9143 16.2295 70.9023 15.2852C71 13 71 13 72 12Z" fill="#1D203C"/>
<path d="M116 115C116.66 115 117.32 115 118 115C118 119.29 118 123.58 118 128C113.05 128 108.1 128 103 128C103 124.04 103 120.08 103 116C103.33 116 103.66 116 104 116C104.33 118.64 104.66 121.28 105 124C108.3 123.67 111.6 123.34 115 123C115.33 120.36 115.66 117.72 116 115Z" fill="#B52B2B"/>
<path d="M143 19C143.99 19 144.98 19 146 19C146.33 22.3 146.66 25.6 147 29C145.68 29 144.36 29 143 29C143 29.66 143 30.32 143 31C140.69 31 138.38 31 136 31C136 29.68 136 28.36 136 27C136.66 27 137.32 27 138 27C138 25.68 138 24.36 138 23C138.66 23 139.32 23 140 23C140 22.34 140 21.68 140 21C140.99 21 141.98 21 143 21C143 20.34 143 19.68 143 19Z" fill="#507BAC"/>
<path d="M81 49C85.62 49 90.24 49 95 49C94.01 49.495 94.01 49.495 93 50C91.9498 51.8497 91.9498 51.8497 91 54C90.3334 55.3333 89.6667 56.6667 89 58C86.69 58 84.38 58 82 58C79.875 51.25 79.875 51.25 81 49Z" fill="#86BFF3"/>
<path d="M32 71C36.62 71 41.24 71 46 71C46.33 71.99 46.66 72.98 47 74C45.2321 76.4597 43.8506 77.8265 40.8359 78.4414C38.4148 78.5636 36.3669 78.5324 34 78C31.875 75.625 31.875 75.625 31 73C31.33 72.34 31.66 71.68 32 71Z" fill="#1B9E48"/>
<path d="M15 12C15.99 12.33 16.98 12.66 18 13C18 13.66 18 14.32 18 15C18.66 15 19.32 15 20 15C20 14.34 20 13.68 20 13C21.32 13.33 22.64 13.66 24 14C23.34 15.65 22.68 17.3 22 19C21.01 19 20.02 19 19 19C19 23.29 19 27.58 19 32C17.68 32 16.36 32 15 32C15 28.7 15 25.4 15 22C15.99 22 16.98 22 18 22C17.67 20.35 17.34 18.7 17 17C16.67 18.32 16.34 19.64 16 21C14.02 21 12.04 21 10 21C10 20.67 10 20.34 10 20C11.65 20 13.3 20 15 20C15 17.36 15 14.72 15 12Z" fill="#2F2537"/>
<path d="M136 8C137.65 8 139.3 8 141 8C141 8.99 141 9.98 141 11C141.66 11 142.32 11 143 11C143 12.32 143 13.64 143 15C144.98 15 146.96 15 149 15C149 16.32 149 17.64 149 19C149.99 19 150.98 19 152 19C152 16.69 152 14.38 152 12C152.33 12 152.66 12 153 12C153 14.31 153 16.62 153 19C154.65 19 156.3 19 158 19C158 19.33 158 19.66 158 20C156.35 20 154.7 20 153 20C153 23.63 153 27.26 153 31C152.67 31 152.34 31 152 31C152 27.7 152 24.4 152 21C150.35 21 148.7 21 147 21C147.33 19.35 147.66 17.7 148 16C145.36 16.33 142.72 16.66 140 17C139.67 17.99 139.34 18.98 139 20C139 17.69 139 15.38 139 13C138.01 12.67 137.02 12.34 136 12C136 10.68 136 9.36 136 8Z" fill="#304161"/>
<path d="M143 133C143 134.65 143 136.3 143 138C138.583 138.058 134.167 138.094 129.75 138.125C128.496 138.142 127.241 138.159 125.949 138.176C124.744 138.182 123.539 138.189 122.297 138.195C120.632 138.211 120.632 138.211 118.933 138.227C116.06 138.005 114.428 137.493 112 136C118.88 134.858 125.74 134.649 132.701 134.395C133.611 134.357 134.52 134.32 135.457 134.281C136.282 134.251 137.107 134.221 137.956 134.189C139.841 134.015 141.205 133 143 133Z" fill="#A19894"/>
<path d="M152 86C152.33 86 152.66 86 153 86C153 99.53 153 113.06 153 127C150.525 127.495 150.525 127.495 148 128C148 128.66 148 129.32 148 130C147.01 129.67 146.02 129.34 145 129C145.66 129 146.32 129 147 129C147.33 127.68 147.66 126.36 148 125C148.66 125 149.32 125 150 125C150 120.05 150 115.1 150 110C150.33 110 150.66 110 151 110C151.33 102.08 151.66 94.16 152 86Z" fill="#B6A99B"/>
<path d="M84.124 69.8672C85.4028 69.8698 86.6815 69.8723 87.999 69.875C89.2778 69.8724 90.5565 69.8698 91.874 69.8672C94.999 70 94.999 70 95.999 71C96.0715 73.0196 96.0828 75.0417 96.0615 77.0625C96.0525 78.1672 96.0435 79.272 96.0342 80.4102C96.0226 81.2648 96.011 82.1195 95.999 83C95.669 83 95.339 83 94.999 83C94.669 79.7 94.339 76.4 93.999 73C89.709 72.67 85.419 72.34 80.999 72C81.329 74.64 81.659 77.28 81.999 80C84.309 79.34 86.619 78.68 88.999 78C88.999 78.99 88.999 79.98 88.999 81C86.689 81 84.379 81 81.999 81C81.999 81.99 81.999 82.98 81.999 84C85.959 84 89.919 84 93.999 84C93.999 84.33 93.999 84.66 93.999 85C89.379 85 84.759 85 79.999 85C79.9014 74.1602 79.9014 74.1602 79.999 71C80.999 70 80.999 70 84.124 69.8672Z" fill="#DE2F41"/>
<path d="M75 36C74.34 36.99 73.68 37.98 73 39C70.3936 39.2628 68.0413 39.3244 65.4375 39.25C64.6655 39.239 63.8935 39.2281 63.0981 39.2168C52.0611 39.0185 41.0266 38.5037 30 38C30 37.67 30 37.34 30 37C45.0118 36.263 59.9702 35.8591 75 36Z" fill="#C3BCB3"/>
<path d="M22.0005 101C22.3305 102.32 22.6605 103.64 23.0005 105C24.9805 105 26.9605 105 29.0005 105C29.3305 105.99 29.6605 106.98 30.0005 108C29.3405 108 28.6805 108 28.0005 108C28.0005 107.34 28.0005 106.68 28.0005 106C26.3505 106 24.7005 106 23.0005 106C23.0005 107.65 23.0005 109.3 23.0005 111C23.9905 111 24.9805 111 26.0005 111C26.3305 113.31 26.6605 115.62 27.0005 118C25.6805 118 24.3605 118 23.0005 118C22.8974 117.361 22.7942 116.721 22.688 116.062C22.4611 115.382 22.2342 114.701 22.0005 114C21.0105 113.67 20.0205 113.34 19.0005 113C17.5222 110.043 17.9402 107.258 18.0005 104C19.3205 104 20.6405 104 22.0005 104C22.0005 103.01 22.0005 102.02 22.0005 101Z" fill="#F2ECCD"/>
<path d="M44 94C45.65 94 47.3 94 49 94C49 97.96 49 101.92 49 106C48.01 106.33 47.02 106.66 46 107C46 105.35 46 103.7 46 102C44.8038 102.021 43.6075 102.041 42.375 102.062C38.82 102.069 35.4944 101.699 32 101C32 100.67 32 100.34 32 100C33.2375 99.9381 34.475 99.8762 35.75 99.8125C39.2695 99.4043 39.7583 99.2831 42.1875 96.4375C42.7856 95.6331 43.3838 94.8288 44 94Z" fill="#226467"/>
<path d="M128 13C130.97 13 133.94 13 137 13C137.125 19.75 137.125 19.75 136 22C133.36 22 130.72 22 128 22C128 19.03 128 16.06 128 13Z" fill="#F7A43C"/>
<path d="M126 13C126.66 13 127.32 13 128 13C128 15.97 128 18.94 128 22C130.64 22 133.28 22 136 22C136.33 19.03 136.66 16.06 137 13C137.66 13 138.32 13 139 13C139 16.3 139 19.6 139 23C138.34 23 137.68 23 137 23C137 23.99 137 24.98 137 26C134.03 26 131.06 26 128 26C128 25.34 128 24.68 128 24C127.34 23.67 126.68 23.34 126 23C126 19.7 126 16.4 126 13Z" fill="#371915"/>
<path d="M110 6C116.93 6 123.86 6 131 6C131 6.66 131 7.32 131 8C130.01 8 129.02 8 128 8C128 9.32 128 10.64 128 12C125.03 12 122.06 12 119 12C119 10.68 119 9.36 119 8C116.36 8 113.72 8 111 8C110.67 7.34 110.34 6.68 110 6Z" fill="#4F7CBC"/>
<path d="M56 13C58.64 13 61.28 13 64 13C64.125 20.75 64.125 20.75 63 23C60.625 23.125 60.625 23.125 58 23C56 21 56 21 55.8047 19.0547C55.8698 17.0365 55.9349 15.0182 56 13Z" fill="#E2ECC5"/>
<path d="M95 72C95 75.96 95 79.92 95 84C90.71 84 86.42 84 82 84C82 83.01 82 82.02 82 81C84.31 81 86.62 81 89 81C89 80.01 89 79.02 89 78C89.66 78 90.32 78 91 78C91.1238 77.1956 91.2475 76.3913 91.375 75.5625C91.5812 74.7169 91.7875 73.8712 92 73C94 72 94 72 95 72Z" fill="#D00624"/>
<path d="M102 109C104.772 108.892 107.54 108.813 110.312 108.75C111.098 108.717 111.884 108.683 112.693 108.648C118.479 108.55 118.479 108.55 121.043 110.766C122 113 122 113 122 117C120.68 117 119.36 117 118 117C118 116.34 118 115.68 118 115C117.34 115 116.68 115 116 115C116 114.34 116 113.68 116 113C112.04 113 108.08 113 104 113C105.32 112.34 106.64 111.68 108 111C105.03 110.505 105.03 110.505 102 110C102 109.67 102 109.34 102 109Z" fill="#F7EEC9"/>
<path d="M35 9C38.3 9 41.6 9 45 9C45 9.99 45 10.98 45 12C42.36 12 39.72 12 37 12C37 12.66 37 13.32 37 14C36.34 14 35.68 14 35 14C35.33 16.97 35.66 19.94 36 23C34.68 23 33.36 23 32 23C32 19.37 32 15.74 32 12C32.99 12 33.98 12 35 12C35 11.01 35 10.02 35 9Z" fill="#250C12"/>
<path d="M82 6C85.96 6 89.92 6 94 6C93.01 6.495 93.01 6.495 92 7C91.6178 8.65615 91.286 10.3246 91 12C90.67 12.66 90.34 13.32 90 14C87.3333 13.3333 84.6667 12.6667 82 12C82 10.02 82 8.04 82 6Z" fill="#4575B0"/>
<path d="M79 94C79.33 94 79.66 94 80 94C80 97.96 80 101.92 80 106C85.28 106 90.56 106 96 106C95.67 107.32 95.34 108.64 95 110C89.39 109.67 83.78 109.34 78 109C78.33 104.05 78.66 99.1 79 94Z" fill="#E4C3AD"/>
<path d="M102 23C103.65 23.33 105.3 23.66 107 24C107 24.66 107 25.32 107 26C108.32 26 109.64 26 111 26C111 27.65 111 29.3 111 31C107.37 31 103.74 31 100 31C100 29.68 100 28.36 100 27C100.66 27 101.32 27 102 27C102 25.68 102 24.36 102 23Z" fill="#5983AF"/>
<path d="M104 6.00001C106 5.95747 108 5.9592 110 6.00001C110.33 6.33001 110.66 6.66001 111 7.00001C112.347 7.23076 113.704 7.41154 115.062 7.56251C116.362 7.70689 117.661 7.85126 119 8.00001C119 9.32001 119 10.64 119 12C117.397 12.1955 115.792 12.3811 114.188 12.5625C113.294 12.6669 112.401 12.7713 111.48 12.8789C109 13 109 13 106 12C105.67 12.99 105.34 13.98 105 15C104.67 14.34 104.34 13.68 104 13C104.33 12.34 104.66 11.68 105 11C105.66 11 106.32 11 107 11C107 10.01 107 9.02001 107 8.00001C106.01 7.67001 105.02 7.34001 104 7.00001C104 6.67001 104 6.34001 104 6.00001Z" fill="#395890"/>
<path d="M56 58C61.28 58.33 66.56 58.66 72 59C72 60.32 72 61.64 72 63C66.72 63 61.44 63 56 63C56 61.35 56 59.7 56 58Z" fill="#1B454A"/>
<path d="M54 39C72.15 39 90.3 39 109 39C109 39.33 109 39.66 109 40C98.44 40 87.88 40 77 40C77 40.99 77 41.98 77 43C76.01 43 75.02 43 74 43C74 42.01 74 41.02 74 40C67.4 40 60.8 40 54 40C54 39.67 54 39.34 54 39Z" fill="#E7DCBB"/>
<path d="M74 13C76.64 13 79.28 13 82 13C82.0424 15.3329 82.0409 17.667 82 20C81 21 81 21 77.4375 21.0625C76.3031 21.0419 75.1688 21.0213 74 21C74 18.36 74 15.72 74 13Z" fill="#F79D7F"/>
<path d="M118 95C120.97 95.495 120.97 95.495 124 96C124 99.3 124 102.6 124 106C122.02 106.33 120.04 106.66 118 107C118 103.04 118 99.08 118 95Z" fill="#F6EDD9"/>
<path d="M16 96C16.66 96 17.32 96 18 96C18.33 96.66 18.66 97.32 19 98C21.0246 98.6521 21.0246 98.6521 23 99C22.67 100.65 22.34 102.3 22 104C20.68 104 19.36 104 18 104C18.0232 104.699 18.0464 105.397 18.0703 106.117C18.0884 107.027 18.1064 107.937 18.125 108.875C18.1482 109.78 18.1714 110.685 18.1953 111.617C18 114 18 114 16 116C16 109.4 16 102.8 16 96Z" fill="#C4B79B"/>
<path d="M120 24C122.64 24.33 125.28 24.66 128 25C128 26.98 128 28.96 128 31C124.7 31 121.4 31 118 31C118 29.68 118 28.36 118 27C118.66 27 119.32 27 120 27C120 26.01 120 25.02 120 24Z" fill="#597EAB"/>
<path d="M109 5C116.59 5 124.18 5 132 5C132 6.32 132 7.64 132 9C131.01 9 130.02 9 129 9C129 10.32 129 11.64 129 13C127.68 13 126.36 13 125 13C125 13.66 125 14.32 125 15C124.01 15 123.02 15 122 15C122 14.34 122 13.68 122 13C118.04 13 114.08 13 110 13C110 12.67 110 12.34 110 12C115.94 12 121.88 12 128 12C128 10.68 128 9.36 128 8C128.99 8 129.98 8 131 8C131 7.34 131 6.68 131 6C123.74 6 116.48 6 109 6C109 5.67 109 5.34 109 5Z" fill="#41557F"/>
<path d="M137 95C137.33 95 137.66 95 138 95C138 98.3 138 101.6 138 105C137.34 105 136.68 105 136 105C136 104.34 136 103.68 136 103C133.03 103 130.06 103 127 103C126.67 103.99 126.34 104.98 126 106C125.67 106 125.34 106 125 106C125 103.36 125 100.72 125 98C125.588 98.7425 125.588 98.7425 126.188 99.5C128.551 101.456 130.014 101.242 133 101C133 100.34 133 99.68 133 99C133.99 99 134.98 99 136 99C136.33 97.68 136.66 96.36 137 95Z" fill="#CA5B3C"/>
<path d="M103 52C105 56 105 56 105 58C109.851 56.8806 112.778 55.8665 116 52C115.67 54.31 115.34 56.62 115 59C108.25 61 108.25 61 106 61C105.67 61.66 105.34 62.32 105 63C104.34 63 103.68 63 103 63C103 59.37 103 55.74 103 52Z" fill="#F03629"/>
<path d="M137 23C137.33 24.32 137.66 25.64 138 27C137.34 27 136.68 27 136 27C136 28.32 136 29.64 136 31C138.31 31 140.62 31 143 31C143 30.34 143 29.68 143 29C143.928 28.9175 144.856 28.835 145.812 28.75C149.085 28.2974 149.085 28.2974 150.875 25.9375C151.246 25.2981 151.618 24.6587 152 24C152.33 26.64 152.66 29.28 153 32C147.06 32 141.12 32 135 32C135 30.02 135 28.04 135 26C135.66 26 136.32 26 137 26C137 25.01 137 24.02 137 23Z" fill="#395586"/>
<path d="M40 49C41.98 49 43.96 49 46 49C46 51.97 46 54.94 46 58C44.02 58 42.04 58 40 58C40 55.03 40 52.06 40 49Z" fill="#BD9A00"/>
<path d="M14 24C14.33 24 14.66 24 15 24C15 26.64 15 29.28 15 32C22.92 32 30.84 32 39 32C39 32.33 39 32.66 39 33C33.06 33.33 27.12 33.66 21 34C22.32 34.66 23.64 35.32 25 36C23.35 36 21.7 36 20 36C19.67 36.99 19.34 37.98 19 39C19 37.68 19 36.36 19 35C17.35 35 15.7 35 14 35C14 31.37 14 27.74 14 24Z" fill="#1B1938"/>
<path d="M55 23C57.97 23 60.94 23 64 23C64 23.99 64 24.98 64 26C63.34 26 62.68 26 62 26C62 27.98 62 29.96 62 32C60.68 32 59.36 32 58 32C58 30.35 58 28.7 58 27C57.01 27 56.02 27 55 27C55 25.68 55 24.36 55 23Z" fill="#1F2B54"/>
<path d="M56 94C56.33 94 56.66 94 57 94C57 96.31 57 98.62 57 101C59.97 101 62.94 101 66 101C66.33 99.68 66.66 98.36 67 97C67.99 96.34 68.98 95.68 70 95C70.99 95.33 71.98 95.66 73 96C72.67 97.98 72.34 99.96 72 102C66.72 102 61.44 102 56 102C56 99.36 56 96.72 56 94Z" fill="#BB9B6E"/>
<path d="M115 116C115.934 119.01 116.044 119.867 115 123C111.785 124.607 108.564 124.057 105 124C104.67 124.66 104.34 125.32 104 126C104 124.02 104 122.04 104 120C105.98 120.99 105.98 120.99 108 122C108.66 120.68 109.32 119.36 110 118C111.32 118 112.64 118 114 118C114.33 117.34 114.66 116.68 115 116Z" fill="#E9392A"/>
<path d="M15.9993 40C18.3093 40 20.6193 40 22.9993 40C22.9993 41.65 22.9993 43.3 22.9993 45C21.6793 45 20.3593 45 18.9993 45C18.9993 46.98 18.9993 48.96 18.9993 51C18.3393 51 17.6793 51 16.9993 51C15.7161 47.1505 15.9329 44.0526 15.9993 40Z" fill="#DCCCB0"/>
<path d="M104 48C108.29 48 112.58 48 117 48C117.33 48.99 117.66 49.98 118 51C117.01 51 116.02 51 115 51C114.67 51.99 114.34 52.98 114 54C114 52.68 114 51.36 114 50C111.03 50 108.06 50 105 50C105 50.66 105 51.32 105 52C104.34 52 103.68 52 103 52C103 55.63 103 59.26 103 63C102.67 63 102.34 63 102 63C102 59.04 102 55.08 102 51C102.66 51 103.32 51 104 51C104 50.01 104 49.02 104 48Z" fill="#F4B161"/>
<path d="M137 33C142.28 33 147.56 33 153 33C152.67 33.99 152.34 34.98 152 36C147.05 36 142.1 36 137 36C137 35.01 137 34.02 137 33Z" fill="#160C1C"/>
<path d="M28 21C28.99 21 29.98 21 31 21C31 23.64 31 26.28 31 29C28.69 29 26.38 29 24 29C24 27.02 24 25.04 24 23C25.32 23 26.64 23 28 23C28 22.34 28 21.68 28 21Z" fill="#6FA2CC"/>
<path d="M46 7C47.6684 7.32442 49.3348 7.65939 51 8C51.7219 8.10312 52.4438 8.20625 53.1875 8.3125C55 9 55 9 56.3125 10.5625C57.3487 14.2362 56.6252 17.2487 56 21C55.67 21 55.34 21 55 21C55 18.03 55 15.06 55 12C51.7 12 48.4 12 45 12C45.33 10.35 45.66 8.7 46 7Z" fill="#6395C1"/>
<path d="M104 5.99996C104.99 6.65996 105.98 7.31996 107 7.99996C107 8.98996 107 9.97996 107 11C106.34 11 105.68 11 105 11C105 11.66 105 12.32 105 13C104.01 13 103.02 13 102 13C102 11.68 102 10.36 102 8.99996C99.03 8.99996 96.06 8.99996 93 8.99996C95.0868 4.82643 99.9125 5.78098 104 5.99996Z" fill="#3966A4"/>
<path d="M72 61C72.33 61.99 72.66 62.98 73 64C69.5234 66.1434 66.7877 66.2128 62.75 66.125C61.6723 66.107 60.5947 66.0889 59.4844 66.0703C58.6645 66.0471 57.8447 66.0239 57 66C56.67 65.01 56.34 64.02 56 63C61.28 63 66.56 63 72 63C72 62.34 72 61.68 72 61Z" fill="#C9D2C2"/>
<path d="M55 110C56.65 110.33 58.3 110.66 60 111C58.625 112.5 58.625 112.5 57 114C56.34 114 55.68 114 55 114C55 114.99 55 115.98 55 117C52 118 52 118 49 117C49 115.02 49 113.04 49 111C51.1687 111.506 52.9997 112 55 113C55 112.01 55 111.02 55 110Z" fill="#FDFCE8"/>
<path d="M138 36C142.95 36 147.9 36 153 36C153 36.99 153 37.98 153 39C148.05 39 143.1 39 138 39C138 38.01 138 37.02 138 36Z" fill="#817478"/>
<path d="M50 24C51.32 24 52.64 24 54 24C54 26.31 54 28.62 54 31C51.03 31 48.06 31 45 31C45 29.68 45 28.36 45 27C47.475 27.495 47.475 27.495 50 28C50 26.68 50 25.36 50 24Z" fill="#4071A7"/>
<path d="M64 13C65.98 13.495 65.98 13.495 68 14C68 17.3 68 20.6 68 24C66.35 23.67 64.7 23.34 63 23C63.33 19.7 63.66 16.4 64 13Z" fill="#1D456E"/>
<path d="M64 7.00003C64 8.98003 64 10.96 64 13C61.69 13 59.38 13 57 13C56.67 11.35 56.34 9.70003 56 8.00003C58.7088 6.64563 61.0093 6.93501 64 7.00003Z" fill="#374D87"/>
<path d="M92 13C95.3 13 98.6 13 102 13C102 16.3 102 19.6 102 23C99.03 23 96.06 23 93 23C91.3927 19.7855 91.9425 16.5639 92 13ZM93 14C93 16.31 93 18.62 93 21C97.1409 21.2097 97.1409 21.2097 101 20C101 18.02 101 16.04 101 14C98.36 14 95.72 14 93 14Z" fill="#B13C35"/>
<path d="M33 110C37.62 110 42.24 110 47 110C47 110.66 47 111.32 47 112C43.37 112 39.74 112 36 112C36 113.65 36 115.3 36 117C35.01 117 34.02 117 33 117C33 114.69 33 112.38 33 110Z" fill="#FBFAE0"/>
<path d="M55 94C55.33 94 55.66 94 56 94C56.0271 96.2291 56.0465 98.4583 56.0625 100.688C56.0741 101.929 56.0857 103.17 56.0977 104.449C56.0148 107.462 55.7084 110.083 55 113C53 112 51 111 49 110C48.375 107.938 48.375 107.938 48 106C50.31 106.33 52.62 106.66 55 107C55 102.71 55 98.42 55 94Z" fill="#EBDBB0"/>
<path d="M18 19C18.33 19 18.66 19 19 19C19 23.29 19 27.58 19 32C17.68 32 16.36 32 15 32C15 28.7 15 25.4 15 22C15.99 22 16.98 22 18 22C18 21.01 18 20.02 18 19Z" fill="#233264"/>
<path d="M45 74C45.66 74 46.32 74 47 74C45.9893 76.6646 45.0601 77.952 42.8125 79.75C39.3759 81.2774 36.721 81.2189 33 81C32.34 82.32 31.68 83.64 31 85C30.67 85 30.34 85 30 85C30 81.7 30 78.4 30 75C30.33 76.32 30.66 77.64 31 79C32.9605 78.7452 34.9184 78.4706 36.875 78.1875C37.9655 78.0367 39.0561 77.8859 40.1797 77.7305C43.3124 77.2533 43.3124 77.2533 45 74Z" fill="#0C5D42"/>
<path d="M81 70C83.3124 69.9731 85.625 69.9537 87.9375 69.9375C89.2253 69.9259 90.513 69.9143 91.8398 69.9023C95 70 95 70 96 71C96.0724 73.0196 96.0838 75.0417 96.0625 77.0625C96.0535 78.1672 96.0445 79.272 96.0352 80.4102C96.0236 81.2648 96.012 82.1195 96 83C95.67 83 95.34 83 95 83C94.67 79.7 94.34 76.4 94 73C87.07 72.505 87.07 72.505 80 72C80.33 71.34 80.66 70.68 81 70Z" fill="#E05558"/>
<path d="M65 24C67.31 24 69.62 24 72 24C72 25.65 72 27.3 72 29C69.69 29 67.38 29 65 29C65 29.66 65 30.32 65 31C64.34 31 63.68 31 63 31C63 29.68 63 28.36 63 27C63.66 26.67 64.32 26.34 65 26C65 25.34 65 24.68 65 24Z" fill="#477AB2"/>
<path d="M87 19C87.66 19 88.32 19 89 19C90.3163 22.6197 91 25.0957 91 29C88.69 29 86.38 29 84 29C84.99 25.7 85.98 22.4 87 19Z" fill="#527EB1"/>
<path d="M33 6C36.96 6 40.92 6 45 6C45 6.99 45 7.98 45 9C41.7 9 38.4 9 35 9C35 9.99 35 10.98 35 12C34.34 12 33.68 12 33 12C33 10.02 33 8.04 33 6Z" fill="#4A5A96"/>
<path d="M150 116C153 119 153 119 153.293 121.043C153.195 123.029 153.098 125.014 153 127C151.35 127.33 149.7 127.66 148 128C148 128.66 148 129.32 148 130C147.01 129.67 146.02 129.34 145 129C145.66 129 146.32 129 147 129C147.33 127.68 147.66 126.36 148 125C148.66 125 149.32 125 150 125C150 122.03 150 119.06 150 116Z" fill="#85848F"/>
<path d="M116 73C116.66 73 117.32 73 118 73C118 76.3 118 79.6 118 83C115.355 84.3223 113.322 84.0968 110.375 84.0625C109.372 84.0535 108.369 84.0445 107.336 84.0352C106.565 84.0236 105.794 84.012 105 84C105 83.67 105 83.34 105 83C108.3 82.34 111.6 81.68 115 81C115.33 78.36 115.66 75.72 116 73Z" fill="#E35525"/>
<path d="M139 40C142.3 40 145.6 40 149 40C149 41.32 149 42.64 149 44C145.7 44 142.4 44 139 44C139 42.68 139 41.36 139 40Z" fill="#F5EEC6"/>
<path d="M32 23C33.32 23 34.64 23 36 23C36 23.99 36 24.98 36 26C38.97 26 41.94 26 45 26C44.67 27.98 44.34 29.96 44 32C42.35 31.67 40.7 31.34 39 31C39 29.68 39 28.36 39 27C37.68 27 36.36 27 35 27C35 26.01 35 25.02 35 24C34.01 23.67 33.02 23.34 32 23Z" fill="#262946"/>
<path d="M24 135C34.23 135 44.46 135 55 135C55 135.33 55 135.66 55 136C46.42 136.33 37.84 136.66 29 137C29 137.33 29 137.66 29 138C27.35 138 25.7 138 24 138C24 137.01 24 136.02 24 135Z" fill="#A6A099"/>
<path d="M81 113C82.958 112.946 84.9165 112.907 86.875 112.875C88.5108 112.84 88.5108 112.84 90.1797 112.805C93 113 93 113 95 115C93.68 115.99 92.36 116.98 91 118C90.67 117.01 90.34 116.02 90 115C89.2781 115.165 88.5562 115.33 87.8125 115.5C85.1357 115.976 82.7105 116.077 80 116C80.33 115.01 80.66 114.02 81 113Z" fill="#EF743F"/>
<path d="M56 102C58.97 102 61.94 102 65 102C65 102.99 65 103.98 65 105C65.99 105.33 66.98 105.66 68 106C64.04 106 60.08 106 56 106C56 104.68 56 103.36 56 102Z" fill="#9E7D59"/>
<path d="M125 95C130.445 96.485 130.445 96.485 136 98C135.01 98.33 134.02 98.66 133 99C133 99.66 133 100.32 133 101C131.02 101.33 129.04 101.66 127 102C125.539 99.3526 125 98.1055 125 95Z" fill="#EC9D3E"/>
<path d="M153 127C153 129.64 153 132.28 153 135C152.01 135 151.02 135 150 135C150 135.99 150 136.98 150 138C148.35 138 146.7 138 145 138C145 137.01 145 136.02 145 135C146.32 134.67 147.64 134.34 149 134C149.186 132.546 149.186 132.546 149.375 131.062C149.581 130.052 149.787 129.041 150 128C152 127 152 127 153 127Z" fill="#150D1C"/>
<path d="M104 113C107.96 113 111.92 113 116 113C115.67 114.65 115.34 116.3 115 118C113.35 118.33 111.7 118.66 110 119C110 117.35 110 115.7 110 114C107.69 114.33 105.38 114.66 103 115C103.33 114.34 103.66 113.68 104 113Z" fill="#F88D44"/>
<path d="M82 96C82.66 96 83.32 96 84 96C84.33 96.66 84.66 97.32 85 98C86.98 97.67 88.96 97.34 91 97C91 98.65 91 100.3 91 102C86.545 102.495 86.545 102.495 82 103C82 100.69 82 98.38 82 96Z" fill="#F54E36"/>
<path d="M152 12C152.33 12 152.66 12 153 12C153 14.31 153 16.62 153 19C154.65 19 156.3 19 158 19C158 19.33 158 19.66 158 20C156.35 20 154.7 20 153 20C153 23.63 153 27.26 153 31C152.67 31 152.34 31 152 31C152 27.7 152 24.4 152 21C150.35 21 148.7 21 147 21C147.33 19.02 147.66 17.04 148 15C148.33 16.32 148.66 17.64 149 19C149.99 19 150.98 19 152 19C152 16.69 152 14.38 152 12Z" fill="#3A3A56"/>
<path d="M148 128C148.66 128 149.32 128 150 128C150.043 130 150.041 132 150 134C149 135 149 135 146.438 135.062C145.231 135.032 145.231 135.032 144 135C143.67 135.99 143.34 136.98 143 138C143 136.02 143 134.04 143 132C143.66 132 144.32 132 145 132C145 131.34 145 130.68 145 130C145.99 130 146.98 130 148 130C148 129.34 148 128.68 148 128Z" fill="#706B7B"/>
<path d="M48 107C48.33 107.99 48.66 108.98 49 110C49.66 110.33 50.32 110.66 51 111C50.34 111 49.68 111 49 111C49 112.65 49 114.3 49 116C48.67 115.01 48.34 114.02 48 113C47.34 112.67 46.68 112.34 46 112C46.33 111.34 46.66 110.68 47 110C42.38 110 37.76 110 33 110C32.67 111.32 32.34 112.64 32 114C32 112.35 32 110.7 32 109C32.9874 108.939 33.9748 108.879 34.9922 108.816C36.2735 108.733 37.5548 108.649 38.875 108.562C40.1512 108.481 41.4273 108.4 42.7422 108.316C45.883 108.208 45.883 108.208 48 107Z" fill="#F6EBC7"/>
<path d="M105 93C107.97 93 110.94 93 114 93C113.34 94.65 112.68 96.3 112 98C110.02 98 108.04 98 106 98C106 97.34 106 96.68 106 96C105.34 95.67 104.68 95.34 104 95C104.33 94.34 104.66 93.68 105 93Z" fill="#FCD21B"/>
<path d="M93 26C95.97 26 98.94 26 102 26C101.01 26.495 101.01 26.495 100 27C100 28.32 100 29.64 100 31C97.69 31 95.38 31 93 31C93 29.35 93 27.7 93 26Z" fill="#3B5986"/>
<path d="M54 24C54.33 24.99 54.66 25.98 55 27C55.99 27 56.98 27 58 27C58 28.65 58 30.3 58 32C53.38 32 48.76 32 44 32C44 30.35 44 28.7 44 27C44.33 28.32 44.66 29.64 45 31C47.97 31 50.94 31 54 31C54 28.69 54 26.38 54 24Z" fill="#345081"/>
<path d="M143 133C143 134.65 143 136.3 143 138C138.71 138 134.42 138 130 138C130 137.34 130 136.68 130 136C130.699 135.867 131.397 135.734 132.117 135.598C133.482 135.333 133.482 135.333 134.875 135.062C135.78 134.888 136.685 134.714 137.617 134.535C139.429 134.128 141.206 133 143 133Z" fill="#958C90"/>
<path d="M93 122C93.33 123.32 93.66 124.64 94 126C90.04 126 86.08 126 82 126C82.33 125.01 82.66 124.02 83 123C86.3 122.67 89.6 122.34 93 122Z" fill="#CA1020"/>
<path d="M93 9C95.97 9 98.94 9 102 9C102 10.32 102 11.64 102 13C99.03 13 96.06 13 93 13C93 11.68 93 10.36 93 9Z" fill="#20182D"/>
<path d="M103 95C103.33 95 103.66 95 104 95C104 96.65 104 98.3 104 100C106.97 100 109.94 100 113 100C113 100.66 113 101.32 113 102C112.031 102.124 111.061 102.248 110.062 102.375C108.547 102.684 108.547 102.684 107 103C106.67 103.66 106.34 104.32 106 105C105.01 105 104.02 105 103 105C103 101.7 103 98.4 103 95Z" fill="#F58728"/>
<path d="M95 72C95 75.63 95 79.26 95 83C94.01 82.34 93.02 81.68 92 81C91.01 81 90.02 81 89 81C89 80.01 89 79.02 89 78C89.66 78 90.32 78 91 78C91.1238 77.1956 91.2475 76.3913 91.375 75.5625C91.5812 74.7169 91.7875 73.8712 92 73C94 72 94 72 95 72Z" fill="#CC0219"/>
<path d="M119 15C119.33 15 119.66 15 120 15C119.67 17.64 119.34 20.28 119 23C116.03 23 113.06 23 110 23C110 22.01 110 21.02 110 20C111.114 19.8556 112.227 19.7113 113.375 19.5625C116.821 19.2163 116.821 19.2163 119 18C119 17.01 119 16.02 119 15Z" fill="#D28629"/>
<path d="M119 40C123.62 40 128.24 40 133 40C133.33 40.99 133.66 41.98 134 43C133.01 43 132.02 43 131 43C131 42.34 131 41.68 131 41C128.69 41 126.38 41 124 41C124 41.99 124 42.98 124 44C122.35 44 120.7 44 119 44C119 42.68 119 41.36 119 40Z" fill="#F7F1D1"/>
<path d="M145 103C146.32 103 147.64 103 149 103C149 105.64 149 108.28 149 111C147.35 111 145.7 111 144 111C144.33 108.36 144.66 105.72 145 103Z" fill="#FDFCEB"/>
<path d="M120 52C121.32 52 122.64 52 124 52C124 55.63 124 59.26 124 63C123.34 61.68 122.68 60.36 122 59C121.01 59.33 120.02 59.66 119 60C119.33 57.36 119.66 54.72 120 52Z" fill="#FBF3E0"/>
<path d="M119 13C119.99 13 120.98 13 122 13C123.607 16.2145 123.057 19.4361 123 23C121.68 23 120.36 23 119 23C119 19.7 119 16.4 119 13Z" fill="#29100F"/>
<path d="M32 12C32.99 12.33 33.98 12.66 35 13C35.33 16.3 35.66 19.6 36 23C34.68 23 33.36 23 32 23C32 19.37 32 15.74 32 12Z" fill="#0A040A"/>
<path d="M57 92C61.95 92 66.9 92 72 92C72 92.99 72 93.98 72 95C70.35 95.66 68.7 96.32 67 97C66.34 96.01 65.68 95.02 65 94C63.0364 93.4225 63.0364 93.4225 60.875 93.3125C59.5963 93.2094 58.3175 93.1063 57 93C57 92.67 57 92.34 57 92Z" fill="#D1BB80"/>
<path d="M47 50C47.99 50 48.98 50 50 50C50 53.63 50 57.26 50 61C49.01 60.67 48.02 60.34 47 60C47 56.7 47 53.4 47 50Z" fill="#724A1A"/>
<path d="M72 115C72.33 115.66 72.66 116.32 73 117C74.98 117 76.96 117 79 117C79.33 116.34 79.66 115.68 80 115C80 116.65 80 118.3 80 120C78 121 78 121 75 121C74.01 121.33 73.02 121.66 72 122C72 119.69 72 117.38 72 115Z" fill="#F3E5C7"/>
<path d="M125 74C127.5 79 127.5 79 128 82C127.67 82.66 127.34 83.32 127 84C132.445 83.505 132.445 83.505 138 83C138 83.66 138 84.32 138 85C133.71 85 129.42 85 125 85C125 81.37 125 77.74 125 74Z" fill="#5796F9"/>
<path d="M104 52C104.33 52.66 104.66 53.32 105 54C105.949 53.9587 106.897 53.9175 107.875 53.875C111 54 111 54 113 56C111 58 111 58 107.875 58.125C106.452 58.0631 106.452 58.0631 105 58C104.67 56.02 104.34 54.04 104 52Z" fill="#FB9219"/>
<path d="M102 23C103.32 23.33 104.64 23.66 106 24C105.01 24 104.02 24 103 24C103 24.99 103 25.98 103 27C105.97 27.495 105.97 27.495 109 28C109 28.66 109 29.32 109 30C106.03 30 103.06 30 100 30C100 29.01 100 28.02 100 27C100.66 27 101.32 27 102 27C102 25.68 102 24.36 102 23Z" fill="#4B75A4"/>
<path d="M129 9C131.64 9 134.28 9 137 9C136.67 10.32 136.34 11.64 136 13C133.69 13 131.38 13 129 13C129 11.68 129 10.36 129 9Z" fill="#1C090F"/>
<path d="M31 25C31.99 25 32.98 25 34 25C34.33 26.98 34.66 28.96 35 31C31.37 30.67 27.74 30.34 24 30C24 29.67 24 29.34 24 29C26.31 29 28.62 29 31 29C31 27.68 31 26.36 31 25Z" fill="#4E76AA"/>
<path d="M107 13C107.99 13 108.98 13 110 13C110 16.3 110 19.6 110 23C109.01 23 108.02 23 107 23C107 19.7 107 16.4 107 13Z" fill="#351014"/>
<path d="M125 13C125.33 13 125.66 13 126 13C126 16.3 126 19.6 126 23C126.99 23.33 127.98 23.66 129 24C126.03 23.505 126.03 23.505 123 23C123 20.36 123 17.72 123 15C123.66 15 124.32 15 125 15C125 14.34 125 13.68 125 13Z" fill="#31333B"/>
<path d="M146 8C146.33 9.32 146.66 10.64 147 12C148.65 12 150.3 12 152 12C152 14.31 152 16.62 152 19C151.01 19 150.02 19 149 19C149 17.02 149 15.04 149 13C148.01 13 147.02 13 146 13C146 12.01 146 11.02 146 10C145.34 9.67 144.68 9.34 144 9C144.66 8.67 145.32 8.34 146 8Z" fill="#150711"/>
<path d="M24 6C24 7.65 24 9.3 24 11C24.66 11.33 25.32 11.66 26 12C24.02 12.33 22.04 12.66 20 13C20 13.66 20 14.32 20 15C19.34 15 18.68 15 18 15C18 14.34 18 13.68 18 13C17.34 12.67 16.68 12.34 16 12C17.65 12 19.3 12 21 12C21 10.35 21 8.7 21 7C23 6 23 6 24 6Z" fill="#1E111A"/>
<path d="M103 63C103 63.66 103 64.32 103 65C107.29 65 111.58 65 116 65C116 65.33 116 65.66 116 66C109.73 66 103.46 66 97 66C97 65.34 97 64.68 97 64C99 63 99 63 103 63Z" fill="#F5EFDB"/>
<path d="M82 13C83.32 13 84.64 13 86 13C86 16.3 86 19.6 86 23C85.01 22.67 84.02 22.34 83 22C82.67 19.03 82.34 16.06 82 13Z" fill="#120C22"/>
<path d="M37 12C42.28 12 47.56 12 53 12C52.67 13.32 52.34 14.64 52 16C50 15 48 14 46 13C45.67 13.66 45.34 14.32 45 15C45 14.34 45 13.68 45 13C42.36 13 39.72 13 37 13C37 12.67 37 12.34 37 12Z" fill="#53698A"/>
<path d="M144 135C144.33 135.99 144.66 136.98 145 138C146.65 138 148.3 138 150 138C150 137.01 150 136.02 150 135C150.99 135.33 151.98 135.66 153 136C152.34 136 151.68 136 151 136C151 136.99 151 137.98 151 139C149.02 139 147.04 139 145 139C144.67 139.99 144.34 140.98 144 142C144 141.01 144 140.02 144 139C140.7 139 137.4 139 134 139C134 138.67 134 138.34 134 138C137.3 138 140.6 138 144 138C144 137.01 144 136.02 144 135Z" fill="#534B5E"/>
<path d="M44 94C44.66 94.33 45.32 94.66 46 95C45.34 96.98 44.68 98.96 44 101C40.04 101 36.08 101 32 101C32 100.67 32 100.34 32 100C33.2375 99.9381 34.475 99.8762 35.75 99.8125C39.3055 99.3964 39.8464 99.1574 42.5 96.4375C42.995 95.6331 43.49 94.8288 44 94Z" fill="#15736B"/>
<path d="M81 49C85.62 49 90.24 49 95 49C94.01 49.495 94.01 49.495 93 50C92.67 50.99 92.34 51.98 92 53C91.67 52.34 91.34 51.68 91 51C88.03 51 85.06 51 82 51C81.67 50.34 81.34 49.68 81 49Z" fill="#71B0E6"/>
<path d="M140 24C141.65 24 143.3 24 145 24C145.562 25.9375 145.562 25.9375 146 28C145 29 145 29 142.438 29.0625C141.231 29.0316 141.231 29.0316 140 29C140 27.35 140 25.7 140 24Z" fill="#6697C5"/>
<path d="M93 23C95.97 23 98.94 23 102 23C102 23.99 102 24.98 102 26C99.03 26 96.06 26 93 26C93 25.01 93 24.02 93 23Z" fill="#160F18"/>
<path d="M55 23C57.97 23 60.94 23 64 23C64 23.99 64 24.98 64 26C61.03 26 58.06 26 55 26C55 25.01 55 24.02 55 23Z" fill="#0E0C16"/>
<path d="M136 14C136.33 14 136.66 14 137 14C137.125 19.75 137.125 19.75 136 22C133.36 22 130.72 22 128 22C128 21.34 128 20.68 128 20C130.64 19.67 133.28 19.34 136 19C136 17.35 136 15.7 136 14Z" fill="#E5791F"/>
<path d="M53 12C53.66 12 54.32 12 55 12C55 14.97 55 17.94 55 21C55.99 21.33 56.98 21.66 58 22C58 22.33 58 22.66 58 23C56.35 23 54.7 23 53 23C53 19.37 53 15.74 53 12Z" fill="#29323F"/>
<path d="M119 9C121.97 9 124.94 9 128 9C128 9.99 128 10.98 128 12C125.03 12 122.06 12 119 12C119 11.01 119 10.02 119 9Z" fill="#639FD0"/>
<path d="M56 115C58.5655 117.565 58.5405 119.477 59 123C61.64 123 64.28 123 67 123C67 123.33 67 123.66 67 124C63.7 124.33 60.4 124.66 57 125C56.67 121.7 56.34 118.4 56 115Z" fill="#C7C2BB"/>
<path d="M106 103C108.812 102.812 108.812 102.812 112 103C112.99 103.99 113.98 104.98 115 106C111.04 106 107.08 106 103 106C103.99 105.67 104.98 105.34 106 105C106 104.34 106 103.68 106 103Z" fill="#B23B32"/>
<path d="M28 67C28.99 67 29.98 67 31 67C31 67.66 31 68.32 31 69C35.62 69 40.24 69 45 69C45 69.33 45 69.66 45 70C40.38 70 35.76 70 31 70C30.67 70.99 30.34 71.98 30 73C29.67 73 29.34 73 29 73C28.67 71.02 28.34 69.04 28 67Z" fill="#E7F8CD"/>
<path d="M118 51C118.33 51 118.66 51 119 51C119.33 53.64 119.66 56.28 120 59C120.99 58.67 121.98 58.34 123 58C122.75 59.875 122.75 59.875 122 62C120.02 62.99 120.02 62.99 118 64C118 59.71 118 55.42 118 51Z" fill="#F3D4C3"/>
<path d="M103 52C105 56 105 56 105 58C106.98 58 108.96 58 111 58C111 58.33 111 58.66 111 59C109.35 59 107.7 59 106 59C105.67 60.32 105.34 61.64 105 63C104.34 63 103.68 63 103 63C103 59.37 103 55.74 103 52Z" fill="#E75726"/>
<path d="M111 23C113.64 23 116.28 23 119 23C119 23.99 119 24.98 119 26C116.03 26 113.06 26 110 26C110.33 25.01 110.66 24.02 111 23Z" fill="#100C0F"/>
<path d="M18 127C18.33 127.99 18.66 128.98 19 130C19.99 130 20.98 130 22 130C22.66 131.65 23.32 133.3 24 135C21.03 134.505 21.03 134.505 18 134C18 131.69 18 129.38 18 127Z" fill="#93979A"/>
<path d="M109 118C110.32 118.66 111.64 119.32 113 120C112.34 120 111.68 120 111 120C110.67 120.99 110.34 121.98 110 123C109.196 123.124 108.391 123.248 107.562 123.375C106.294 123.684 106.294 123.684 105 124C104.67 124.66 104.34 125.32 104 126C104 124.02 104 122.04 104 120C105.98 120.99 105.98 120.99 108 122C108.33 120.68 108.66 119.36 109 118Z" fill="#F25E27"/>
<path d="M81 72C84.96 72 88.92 72 93 72C90 75 90 75 87.7383 75.0742C86.9378 74.9466 86.1373 74.819 85.3125 74.6875C84.1001 74.5077 84.1001 74.5077 82.8633 74.3242C82.2484 74.2172 81.6335 74.1102 81 74C81 73.34 81 72.68 81 72Z" fill="#FC3F3E"/>
<path d="M128 26C129.65 26 131.3 26 133 26C133 27.65 133 29.3 133 31C131.35 31 129.7 31 128 31C128 29.35 128 27.7 128 26Z" fill="#344976"/>
<path d="M82 14C82.33 14 82.66 14 83 14C83.0977 20.1523 83.0977 20.1523 83 22C82 23 82 23 80.1523 23.0977C78.1016 23.0651 76.0508 23.0326 74 23C74 22.34 74 21.68 74 21C77.465 20.505 77.465 20.505 81 20C81.33 18.02 81.66 16.04 82 14Z" fill="#AC473E"/>
<path d="M134 13C134.99 13.33 135.98 13.66 137 14C136.67 15.65 136.34 17.3 136 19C134.02 19 132.04 19 130 19C130.66 18.67 131.32 18.34 132 18C132 16.68 132 15.36 132 14C132.66 13.67 133.32 13.34 134 13Z" fill="#FDB93C"/>
<path d="M128 81C133.75 80.875 133.75 80.875 136 82C136 82.66 136 83.32 136 84C133.03 84 130.06 84 127 84C127.33 83.01 127.66 82.02 128 81Z" fill="#3B7FFB"/>
<path d="M120 24C121.32 24.33 122.64 24.66 124 25C124 25.66 124 26.32 124 27C123.34 27 122.68 27 122 27C122 27.99 122 28.98 122 30C120.68 30.33 119.36 30.66 118 31C118 29.68 118 28.36 118 27C118.66 27 119.32 27 120 27C120 26.01 120 25.02 120 24Z" fill="#416495"/>
<path d="M36 15C39.465 16.485 39.465 16.485 43 18C43 18.66 43 19.32 43 20C40.69 20 38.38 20 36 20C36 18.35 36 16.7 36 15Z" fill="#FEFBCB"/>
<path d="M110 12C115.94 12 121.88 12 128 12C127.01 12.33 126.02 12.66 125 13C125 13.66 125 14.32 125 15C124.01 15 123.02 15 122 15C122 14.34 122 13.68 122 13C118.04 13 114.08 13 110 13C110 12.67 110 12.34 110 12Z" fill="#696A70"/>
<path d="M74 9C76.64 9 79.28 9 82 9C82 9.99 82 10.98 82 12C79.36 12 76.72 12 74 12C74 11.01 74 10.02 74 9Z" fill="#1B1C34"/>
<path d="M110 9C112.64 9 115.28 9 118 9C118 9.99 118 10.98 118 12C115.36 12 112.72 12 110 12C110 11.01 110 10.02 110 9Z" fill="#120C17"/>
<path d="M122 112C123.32 112 124.64 112 126 112C126 113.65 126 115.3 126 117C124.35 116.67 122.7 116.34 121 116C121.33 114.68 121.66 113.36 122 112Z" fill="#FBFBE2"/>
<path d="M18 98C20.475 98.495 20.475 98.495 23 99C22.67 100.65 22.34 102.3 22 104C20.68 104 19.36 104 18 104C18 102.02 18 100.04 18 98Z" fill="#DBCE9E"/>
<path d="M57 81C57.99 81.33 58.98 81.66 60 82C59.67 82.33 59.34 82.66 59 83C62.96 83.33 66.92 83.66 71 84C71 84.33 71 84.66 71 85C66.05 85 61.1 85 56 85C56.33 83.68 56.66 82.36 57 81Z" fill="#0A544B"/>
<path d="M80 52C80.99 52.495 80.99 52.495 82 53C82.7781 56.8198 83.2439 59.2684 82 63C81.34 63 80.68 63 80 63C80 59.37 80 55.74 80 52Z" fill="#69A3E5"/>
<path d="M143 19C143.99 19 144.98 19 146 19C146.33 22.3 146.66 25.6 147 29C146.34 28.67 145.68 28.34 145 28C145 27.01 145 26.02 145 25C144.01 24.34 143.02 23.68 142 23C142.33 21.68 142.66 20.36 143 19Z" fill="#5484B5"/>
<path d="M68 15C68.99 15 69.98 15 71 15C71 17.64 71 20.28 71 23C70.01 22.67 69.02 22.34 68 22C68 19.69 68 17.38 68 15Z" fill="#1F5B99"/>
<path d="M45 6C48.3 6 51.6 6 55 6C55 6.99 55 7.98 55 9C51.9758 8.41196 48.9824 7.77322 46 7C45.67 8.32 45.34 9.64 45 11C45 9.35 45 7.7 45 6Z" fill="#477AC2"/>
<path d="M23 112C23.99 112 24.98 112 26 112C26.33 113.98 26.66 115.96 27 118C25.68 118 24.36 118 23 118C23 116.02 23 114.04 23 112Z" fill="#FBFAEE"/>
<path d="M56 73C58 76 58 76 58 78C59.65 78.33 61.3 78.66 63 79C60.6679 80.2063 58.5036 81.1655 56 82C56 79.03 56 76.06 56 73Z" fill="#218B51"/>
<path d="M105 76C105.66 76 106.32 76 107 76C107 76.66 107 77.32 107 78C108.32 78 109.64 78 111 78C111 78.99 111 79.98 111 81C109.02 81 107.04 81 105 81C105 79.35 105 77.7 105 76Z" fill="#FCC61E"/>
<path d="M20 36C23.63 36 27.26 36 31 36C31 36.33 31 36.66 31 37C29.8656 37.1238 28.7313 37.2475 27.5625 37.375C25.7991 37.6844 25.7991 37.6844 24 38C23.67 38.66 23.34 39.32 23 40C21.35 40 19.7 40 18 40C18.66 39.67 19.32 39.34 20 39C20 38.01 20 37.02 20 36Z" fill="#747284"/>
<path d="M104 112C108.95 112 113.9 112 119 112C119 112.99 119 113.98 119 115C118.01 115 117.02 115 116 115C116 114.34 116 113.68 116 113C112.04 113 108.08 113 104 113C104 112.67 104 112.34 104 112Z" fill="#FBE8B7"/>
<path d="M137 95C137.688 96.8125 137.688 96.8125 138 99C137 100.75 137 100.75 135 102C131.312 102.188 131.312 102.188 128 102C128 101.67 128 101.34 128 101C129.65 101 131.3 101 133 101C133 100.34 133 99.68 133 99C133.99 99 134.98 99 136 99C136.33 97.68 136.66 96.36 137 95Z" fill="#DC713A"/>
<path d="M15 40C15.33 40 15.66 40 16 40C16.66 44.29 17.32 48.58 18 53C17.01 53 16.02 53 15 53C15 48.71 15 44.42 15 40Z" fill="#F3E7D3"/>
<path d="M35 27C36.32 27 37.64 27 39 27C39.33 28.65 39.66 30.3 40 32C38.35 32 36.7 32 35 32C35 30.35 35 28.7 35 27Z" fill="#304272"/>
<path d="M25.5625 19.9375C26.7691 19.9684 26.7691 19.9684 28 20C28 20.99 28 21.98 28 23C26.68 23 25.36 23 24 23C24 24.65 24 26.3 24 28C23.67 28 23.34 28 23 28C22.6194 25.6739 22.2873 23.3394 22 21C23 20 23 20 25.5625 19.9375Z" fill="#3E6BA0"/>
<path d="M86 13C87.98 13.99 87.98 13.99 90 15C89.67 16.32 89.34 17.64 89 19C88.34 19 87.68 19 87 19C86.67 20.32 86.34 21.64 86 23C86 19.7 86 16.4 86 13Z" fill="#274978"/>
<path d="M24 4C25.32 4 26.64 4 28 4C27.4242 6.38564 26.7777 8.66683 26 11C25.34 11 24.68 11 24 11C24 8.69 24 6.38 24 4Z" fill="#10080E"/>
<path d="M153 109C153 112.3 153 115.6 153 119C150 116 150 116 149.812 112.812C149.874 111.884 149.936 110.956 150 110C152 109 152 109 153 109Z" fill="#ADA4A1"/>
<path d="M125 109C125.99 109 126.98 109 128 109C128 109.66 128 110.32 128 111C128.99 111.33 129.98 111.66 131 112C129.68 112 128.36 112 127 112C127 113.65 127 115.3 127 117C126.67 117 126.34 117 126 117C126 115.35 126 113.7 126 112C125.01 111.67 124.02 111.34 123 111C123.66 110.34 124.32 109.68 125 109Z" fill="#F1EDCC"/>
<path d="M56 10C58.31 10 60.62 10 63 10C63 10.99 63 11.98 63 13C61.02 13 59.04 13 57 13C56.67 12.01 56.34 11.02 56 10Z" fill="#1C0A13"/>
<path d="M44 71C44.66 71 45.32 71 46 71C46.33 71.99 46.66 72.98 47 74C45.25 76.0625 45.25 76.0625 43 78C40.75 77.75 40.75 77.75 39 77C39.6394 76.5669 40.2788 76.1337 40.9375 75.6875C43.2675 74.0876 43.2675 74.0876 44 71Z" fill="#12854C"/>
<path d="M40 59C41.65 59 43.3 59 45 59C45.33 60.65 45.66 62.3 46 64C45.67 63.34 45.34 62.68 45 62C43.35 62 41.7 62 40 62C40 61.01 40 60.02 40 59Z" fill="#603700"/>
<path d="M103 21C104.32 21 105.64 21 107 21C107 21.66 107 22.32 107 23C108.32 23.33 109.64 23.66 111 24C110.67 24.66 110.34 25.32 110 26C109.01 26 108.02 26 107 26C106.67 25.34 106.34 24.68 106 24C105.01 23.67 104.02 23.34 103 23C103 22.34 103 21.68 103 21Z" fill="#2E3B5E"/>
<path d="M153 127C153 128.98 153 130.96 153 133C152.01 133.33 151.02 133.66 150 134C150 132.02 150 130.04 150 128C152 127 152 127 153 127Z" fill="#252231"/>
<path d="M128 109C130.31 109 132.62 109 135 109C135 109.99 135 110.98 135 112C132.69 111.67 130.38 111.34 128 111C128 110.34 128 109.68 128 109Z" fill="#FBF9E6"/>
<path d="M16 40C17.98 40 19.96 40 22 40C22 40.99 22 41.98 22 43C20.02 43 18.04 43 16 43C16 42.01 16 41.02 16 40Z" fill="#CDBBA4"/>
<path d="M23 106C24.65 106 26.3 106 28 106C27.01 106.495 27.01 106.495 26 107C26 108.32 26 109.64 26 111C25.01 111 24.02 111 23 111C23 109.35 23 107.7 23 106Z" fill="#E3D5AC"/>
<path d="M103 95C103.33 95 103.66 95 104 95C104 97.31 104 99.62 104 102C104.99 102.33 105.98 102.66 107 103C106.67 103.66 106.34 104.32 106 105C105.01 105 104.02 105 103 105C103 101.7 103 98.4 103 95Z" fill="#DE7D2D"/>
<path d="M138 52C138 53.65 138 55.3 138 57C136.35 57.33 134.7 57.66 133 58C133 56 133 56 134.938 53.875C137 52 137 52 138 52Z" fill="#F9861C"/>
<path d="M93 26C94.65 26 96.3 26 98 26C98 27.32 98 28.64 98 30C96.68 30 95.36 30 94 30C93.67 28.68 93.34 27.36 93 26Z" fill="#2B4067"/>
<path d="M77 26C77.33 26 77.66 26 78 26C78 27.65 78 29.3 78 31C76.35 31 74.7 31 73 31C73 30.01 73 29.02 73 28C74.32 28 75.64 28 77 28C77 27.34 77 26.68 77 26Z" fill="#40629B"/>
<path d="M23 15C24.32 15 25.64 15 27 15C27 16.32 27 17.64 27 19C25.68 19.33 24.36 19.66 23 20C23 18.35 23 16.7 23 15Z" fill="#4C7FB1"/>
</svg>
