<svg width="125" height="158" viewBox="0 0 125 158" fill="none" xmlns="http://www.w3.org/2000/svg">
<path d="M30.6259 0C31.7961 0.00222061 32.9664 0.00444122 34.1721 0.00672913C34.816 0.0065831 35.4599 0.00643707 36.1233 0.00628662C38.2606 0.00698567 40.3978 0.0147776 42.5352 0.0225983C44.0135 0.0244625 45.4918 0.0258864 46.9701 0.026886C50.868 0.0307109 54.7659 0.040541 58.6638 0.05159C62.6385 0.0618046 66.6132 0.0663837 70.5879 0.0714264C78.3919 0.0821633 86.196 0.0992394 94 0.120255C94 0.780255 94 1.44025 94 2.12025C98.62 2.12025 103.24 2.12025 108 2.12025C108 3.44025 108 4.76025 108 6.12025C109.65 6.45025 111.3 6.78025 113 7.12025C113 11.4103 113 15.7003 113 20.1203C112.01 20.1203 111.02 20.1203 110 20.1203C110 21.7703 110 23.4203 110 25.1203C108.68 25.1203 107.36 25.1203 106 25.1203C106 33.3703 106 41.6203 106 50.1203C105.01 50.1203 104.02 50.1203 103 50.1203C103 52.4303 103 54.7403 103 57.1203C101.515 57.6153 101.515 57.6153 100 58.1203C100 59.1103 100 60.1003 100 61.1203C99.34 61.1203 98.68 61.1203 98 61.1203C98 62.1103 98 63.1003 98 64.1203C96.68 64.1203 95.36 64.1203 94 64.1203C94 65.1103 94 66.1003 94 67.1203C92.68 67.1203 91.36 67.1203 90 67.1203C90 68.1103 90 69.1003 90 70.1203C89.34 70.1203 88.68 70.1203 88 70.1203C88 71.4403 88 72.7603 88 74.1203C86.02 74.1203 84.04 74.1203 82 74.1203C82 74.7803 82 75.4403 82 76.1203C80.68 76.1203 79.36 76.1203 78 76.1203C78 78.4303 78 80.7403 78 83.1203C79.32 83.1203 80.64 83.1203 82 83.1203C82 84.4403 82 85.7603 82 87.1203C84.97 87.1203 87.94 87.1203 91 87.1203C91.2681 88.2546 91.5362 89.389 91.8125 90.5578C92.2044 91.7334 92.5962 92.909 93 94.1203C94.485 94.6153 94.485 94.6153 96 95.1203C96 95.7803 96 96.4403 96 97.1203C96.99 97.1203 97.98 97.1203 99 97.1203C99 98.4403 99 99.7603 99 101.12C100.32 101.12 101.64 101.12 103 101.12C103 103.76 103 106.4 103 109.12C104.32 109.12 105.64 109.12 107 109.12C107 114.73 107 120.34 107 126.12C108.485 126.615 108.485 126.615 110 127.12C110 128.77 110 130.42 110 132.12C110.99 132.12 111.98 132.12 113 132.12C113 135.09 113 138.06 113 141.12C111.68 141.12 110.36 141.12 109 141.12C109 142.44 109 143.76 109 145.12C108.374 145.145 107.749 145.17 107.104 145.196C104.277 145.312 101.451 145.435 98.625 145.558C97.6402 145.597 96.6553 145.636 95.6406 145.677C94.2291 145.74 94.2291 145.74 92.7891 145.804C91.9198 145.841 91.0504 145.877 90.1548 145.915C87.9517 145.994 87.9517 145.994 86 147.12C84.5492 147.22 83.0941 147.259 81.6399 147.266C80.7333 147.272 79.8266 147.278 78.8925 147.285C77.9032 147.286 76.9139 147.287 75.8945 147.288C74.3492 147.293 74.3492 147.293 72.7726 147.298C70.5743 147.303 68.3759 147.306 66.1775 147.306C62.8988 147.308 59.6204 147.326 56.3418 147.345C42.128 147.382 28.1341 146.62 14 145.12C14 144.13 14 143.14 14 142.12C12.68 142.12 11.36 142.12 10 142.12C10 138.82 10 135.52 10 132.12C10.99 132.12 11.98 132.12 13 132.12C13 130.47 13 128.82 13 127.12C14.32 127.12 15.64 127.12 17 127.12C17 121.18 17 115.24 17 109.12C17.99 109.12 18.98 109.12 20 109.12C20 106.81 20 104.5 20 102.12C21.32 102.12 22.64 102.12 24 102.12C24 100.8 24 99.4803 24 98.1203C24.66 98.1203 25.32 98.1203 26 98.1203C27.523 95.183 28.801 92.2034 30 89.1203C31.98 89.1203 33.96 89.1203 36 89.1203C36 88.4603 36 87.8003 36 87.1203C36.66 87.1203 37.32 87.1203 38 87.1203C38.33 85.8003 38.66 84.4803 39 83.1203C40.65 83.1203 42.3 83.1203 44 83.1203C44 80.8103 44 78.5003 44 76.1203C43.2781 75.9965 42.5562 75.8728 41.8125 75.7453C39.0428 75.1298 36.603 74.2358 34 73.1203C34 72.1303 34 71.1403 34 70.1203C33.01 70.1203 32.02 70.1203 31 70.1203C30.67 69.1303 30.34 68.1403 30 67.1203C28.515 66.6253 28.515 66.6253 27 66.1203C27 65.1303 27 64.1403 27 63.1203C26.34 63.1203 25.68 63.1203 25 63.1203C25 62.4603 25 61.8003 25 61.1203C24.34 61.1203 23.68 61.1203 23 61.1203C23 60.1303 23 59.1403 23 58.1203C22.01 58.1203 21.02 58.1203 20 58.1203C20 55.1503 20 52.1803 20 49.1203C18.68 48.7903 17.36 48.4603 16 48.1203C16 40.5303 16 32.9403 16 25.1203C15.01 25.1203 14.02 25.1203 13 25.1203C13 23.4703 13 21.8203 13 20.1203C12.01 20.1203 11.02 20.1203 10 20.1203C10 15.5003 10 10.8803 10 6.12025C11.32 6.12025 12.64 6.12025 14 6.12025C14 4.80025 14 3.48025 14 2.12025C14.9268 2.05967 15.8537 1.99908 16.8086 1.93666C18.6049 1.81098 18.6049 1.81098 20.4375 1.68275C22.2299 1.56094 22.2299 1.56094 24.0586 1.43666C27.2193 1.09667 27.5457 0.14106 30.6259 0Z" fill="#301210"/>
<path d="M23.0002 26.1202C49.0702 26.1202 75.1402 26.1202 102 26.1202C102 34.3702 102 42.6202 102 51.1202C100.68 51.1202 99.3602 51.1202 98.0002 51.1202C98.0002 53.4302 98.0002 55.7402 98.0002 58.1202C96.0202 58.7802 94.0402 59.4402 92.0002 60.1202C92.0002 60.7802 92.0002 61.4402 92.0002 62.1202C91.0102 62.6152 91.0102 62.6152 90.0002 63.1202C88.8667 65.1369 88.8667 65.1369 88.0002 67.1202C86.6802 67.1202 85.3602 67.1202 84.0002 67.1202C84.0002 68.1102 84.0002 69.1002 84.0002 70.1202C82.0202 70.1202 80.0402 70.1202 78.0002 70.1202C77.6702 71.7702 77.3402 73.4202 77.0002 75.1202C75.6802 75.1202 74.3602 75.1202 73.0002 75.1202C73.0002 78.0902 73.0002 81.0602 73.0002 84.1202C73.9902 84.1202 74.9802 84.1202 76.0002 84.1202C76.0002 85.1102 76.0002 86.1002 76.0002 87.1202C76.9902 87.1202 77.9802 87.1202 79.0002 87.1202C78.6702 88.4402 78.3402 89.7602 78.0002 91.1202C80.3102 91.1202 82.6202 91.1202 85.0002 91.1202C85.3302 92.1102 85.6602 93.1002 86.0002 94.1202C87.4852 94.6152 87.4852 94.6152 89.0002 95.1202C89.0002 96.4402 89.0002 97.7602 89.0002 99.1202C90.9802 99.6152 90.9802 99.6152 93.0002 100.12C93.0002 100.78 93.0002 101.44 93.0002 102.12C94.6502 102.12 96.3002 102.12 98.0002 102.12C98.0002 104.1 98.0002 106.08 98.0002 108.12C99.3202 108.12 100.64 108.12 102 108.12C102 113.4 102 118.68 102 124.12C100.35 124.12 98.7002 124.12 97.0002 124.12C97.0002 121.48 97.0002 118.84 97.0002 116.12C95.0202 115.625 95.0202 115.625 93.0002 115.12C93.0002 114.46 93.0002 113.8 93.0002 113.12C92.0102 112.935 92.0102 112.935 91.0002 112.745C87.3033 111.975 83.6602 111.051 80.0002 110.12C80.0002 109.13 80.0002 108.14 80.0002 107.12C68.4502 107.12 56.9002 107.12 45.0002 107.12C45.0002 112.07 45.0002 117.02 45.0002 122.12C34.3752 122.245 34.3752 122.245 31.0002 121.12C31.0002 119.47 31.0002 117.82 31.0002 116.12C32.3202 116.12 33.6402 116.12 35.0002 116.12C35.3302 114.47 35.6602 112.82 36.0002 111.12C35.3402 111.12 34.6802 111.12 34.0002 111.12C34.0002 111.78 34.0002 112.44 34.0002 113.12C31.6902 113.12 29.3802 113.12 27.0002 113.12C27.0002 116.42 27.0002 119.72 27.0002 123.12C25.3502 123.12 23.7002 123.12 22.0002 123.12C22.0002 118.5 22.0002 113.88 22.0002 109.12C22.9902 109.12 23.9802 109.12 25.0002 109.12C25.0827 108.192 25.1652 107.264 25.2502 106.308C26.0002 103.12 26.0002 103.12 27.9377 101.245C30.0002 100.12 30.0002 100.12 32.0002 100.12C32.3302 98.4702 32.6602 96.8202 33.0002 95.1202C35.9702 94.6252 35.9702 94.6252 39.0002 94.1202C39.0002 92.8002 39.0002 91.4802 39.0002 90.1202C41.3102 90.1202 43.6202 90.1202 46.0002 90.1202C46.0002 89.1302 46.0002 88.1402 46.0002 87.1202C46.6602 87.1202 47.3202 87.1202 48.0002 87.1202C48.0002 86.4602 48.0002 85.8002 48.0002 85.1202C48.6602 85.1202 49.3202 85.1202 50.0002 85.1202C50.0002 81.8202 50.0002 78.5202 50.0002 75.1202C48.3502 75.1202 46.7002 75.1202 45.0002 75.1202C45.0002 73.4702 45.0002 71.8202 45.0002 70.1202C42.0302 69.7902 39.0602 69.4602 36.0002 69.1202C36.0002 67.8002 36.0002 66.4802 36.0002 65.1202C35.0102 65.1202 34.0202 65.1202 33.0002 65.1202C32.5052 63.6352 32.5052 63.6352 32.0002 62.1202C31.0102 61.7902 30.0202 61.4602 29.0002 61.1202C29.0002 60.1302 29.0002 59.1402 29.0002 58.1202C27.6802 58.1202 26.3602 58.1202 25.0002 58.1202C25.0002 55.4802 25.0002 52.8402 25.0002 50.1202C24.0102 50.1202 23.0202 50.1202 22.0002 50.1202C21.9711 46.8703 21.9534 43.6203 21.9377 40.3702C21.9294 39.4498 21.921 38.5295 21.9124 37.5812C21.9091 36.6917 21.9059 35.8023 21.9026 34.8859C21.8974 34.0689 21.8921 33.252 21.8867 32.4103C22.0002 30.1202 22.0002 30.1202 23.0002 26.1202Z" fill="#A49CB5"/>
<path d="M80 107.12C80 108.11 80 109.1 80 110.12C81.2684 110.027 81.2684 110.027 82.5625 109.933C86.7362 110.16 89.2543 111.322 93 113.12C93 113.78 93 114.44 93 115.12C94.32 115.45 95.64 115.78 97 116.12C97 118.76 97 121.4 97 124.12C98.65 124.45 100.3 124.78 102 125.12C102 125.78 102 126.44 102 127.12C102.99 127.12 103.98 127.12 105 127.12C105.495 129.595 105.495 129.595 106 132.12C107.485 132.615 107.485 132.615 109 133.12C109 135.43 109 137.74 109 140.12C100.75 140.12 92.5 140.12 84 140.12C84 141.44 84 142.76 84 144.12C67.17 144.12 50.34 144.12 33 144.12C33 143.13 33 142.14 33 141.12C27.06 141.12 21.12 141.12 15 141.12C15 138.48 15 135.84 15 133.12C16.32 133.12 17.64 133.12 19 133.12C19 131.8 19 130.48 19 129.12C29.89 128.79 40.78 128.46 52 128.12C46.39 127.79 40.78 127.46 35 127.12C35 126.46 35 125.8 35 125.12C32.69 125.12 30.38 125.12 28 125.12C26.7376 122.596 26.9014 120.808 26.9375 117.995C26.9465 117.085 26.9555 116.175 26.9648 115.237C26.9764 114.539 26.988 113.84 27 113.12C29.31 113.12 31.62 113.12 34 113.12C34 112.46 34 111.8 34 111.12C34.66 111.12 35.32 111.12 36 111.12C35.67 112.77 35.34 114.42 35 116.12C33.68 116.12 32.36 116.12 31 116.12C31 117.77 31 119.42 31 121.12C37.93 121.615 37.93 121.615 45 122.12C45 117.17 45 112.22 45 107.12C56.8174 105.876 68.1769 105.946 80 107.12Z" fill="#C66D13"/>
<path d="M33 4.12027C56.7547 3.84604 80.3004 4.47313 104 6.12027C104 6.78027 104 7.44027 104 8.12027C105.65 8.12027 107.3 8.12027 109 8.12027C109 11.7503 109 15.3803 109 19.1203C107.35 19.1203 105.7 19.1203 104 19.1203C104 19.7803 104 20.4403 104 21.1203C83.54 21.1203 63.08 21.1203 42 21.1203C42 21.7803 42 22.4403 42 23.1203C30.615 22.6253 30.615 22.6253 19 22.1203C19 21.1303 19 20.1403 19 19.1203C17.68 19.1203 16.36 19.1203 15 19.1203C15 15.8203 15 12.5203 15 9.12027C16.32 9.12027 17.64 9.12027 19 9.12027C19 8.13027 19 7.14027 19 6.12027C23.62 6.12027 28.24 6.12027 33 6.12027C33 5.46027 33 4.80027 33 4.12027Z" fill="#FDD104"/>
<path d="M22 30.1202C23.98 30.1202 25.96 30.1202 28 30.1202C28.33 36.3902 28.66 42.6602 29 49.1202C29.66 49.1202 30.32 49.1202 31 49.1202C31 50.4402 31 51.7602 31 53.1202C31.99 53.1202 32.98 53.1202 34 53.1202C34 45.5302 34 37.9402 34 30.1202C49.18 30.4502 64.36 30.7802 80 31.1202C80 34.0902 80 37.0602 80 40.1202C68.78 40.1202 57.56 40.1202 46 40.1202C46 44.7402 46 49.3602 46 54.1202C46.99 54.1202 47.98 54.1202 49 54.1202C49 54.7802 49 55.4402 49 56.1202C61.21 56.1202 73.42 56.1202 86 56.1202C86 57.1102 86 58.1002 86 59.1202C85.01 59.4502 84.02 59.7802 83 60.1202C82.67 60.7802 82.34 61.4402 82 62.1202C78.9375 62.7452 78.9375 62.7452 76 63.1202C76.33 63.7802 76.66 64.4402 77 65.1202C75.5769 65.2749 75.5769 65.2749 74.125 65.4327C70.7089 65.8056 70.7089 65.8056 69 69.1202C66.937 69.4608 66.937 69.4608 64.4297 69.4132C63.5338 69.4035 62.6379 69.3939 61.7148 69.3839C60.3091 69.3462 60.3091 69.3462 58.875 69.3077C57.9301 69.2942 56.9852 69.2807 56.0117 69.2667C53.6739 69.2313 51.3372 69.1819 49 69.1202C49.33 71.1002 49.66 73.0802 50 75.1202C48.35 75.1202 46.7 75.1202 45 75.1202C45 73.4702 45 71.8202 45 70.1202C42.03 69.7902 39.06 69.4602 36 69.1202C36 67.8002 36 66.4802 36 65.1202C35.01 65.1202 34.02 65.1202 33 65.1202C32.505 63.6352 32.505 63.6352 32 62.1202C31.01 61.7902 30.02 61.4602 29 61.1202C29 60.1302 29 59.1402 29 58.1202C27.68 58.1202 26.36 58.1202 25 58.1202C25 55.4802 25 52.8402 25 50.1202C24.01 50.1202 23.02 50.1202 22 50.1202C22 43.5202 22 36.9202 22 30.1202Z" fill="#D7E8F9"/>
<path d="M113 132.12C113.33 132.12 113.66 132.12 114 132.12C114 134.1 114 136.08 114 138.12C115.33 138.275 115.33 138.275 116.688 138.433C120.057 139.132 122.173 140.208 125 142.12C124.511 146.646 124.511 146.646 122.344 148.659C113.093 154.425 100.592 155.017 90 156.12C88.7614 156.29 87.5227 156.46 86.2466 156.634C82.244 157.137 78.3022 157.265 74.2656 157.288C73.554 157.292 72.8424 157.297 72.1092 157.301C69.8227 157.311 67.5365 157.311 65.25 157.308C64.4675 157.307 63.6851 157.307 62.8789 157.306C47.3969 157.273 32.4354 156.438 17.25 153.245C16.5345 153.096 15.819 152.947 15.0818 152.793C10.2015 151.665 5.02461 150.197 1 147.12C0.27832 144.988 0.27832 144.988 0 143.12C5.625 138.12 5.625 138.12 9 138.12C9 136.47 9 134.82 9 133.12C9.33 133.12 9.66 133.12 10 133.12C10 136.09 10 139.06 10 142.12C11.32 142.12 12.64 142.12 14 142.12C14 143.11 14 144.1 14 145.12C14.5711 145.109 15.1421 145.097 15.7305 145.085C20.291 145.034 24.7503 145.164 29.2891 145.616C39.1119 146.4 48.958 146.269 58.8059 146.251C62.2177 146.245 65.6293 146.251 69.041 146.257C71.2083 146.256 73.3757 146.255 75.543 146.253C76.5637 146.255 77.5844 146.257 78.636 146.259C79.5749 146.256 80.5138 146.253 81.4812 146.25C82.308 146.249 83.1349 146.248 83.9867 146.247C86.0712 146.247 86.0712 146.247 88 145.12C89.5945 145.036 91.1924 145.013 92.7891 145.023C93.7301 145.026 94.6711 145.029 95.6406 145.032C96.6255 145.041 97.6103 145.049 98.625 145.058C100.114 145.065 100.114 145.065 101.633 145.071C104.089 145.083 106.544 145.1 109 145.12C109 143.8 109 142.48 109 141.12C110.32 141.12 111.64 141.12 113 141.12C113 138.15 113 135.18 113 132.12Z" fill="#D1D7EB"/>
<path d="M39.8923 129.846C40.5774 129.84 41.2624 129.835 41.9683 129.83C44.2276 129.816 46.4867 129.817 48.7461 129.819C50.3202 129.816 51.8944 129.811 53.4685 129.806C56.7662 129.799 60.0639 129.799 63.3616 129.805C67.5828 129.81 71.8037 129.793 76.0248 129.77C79.2754 129.755 82.5259 129.755 85.7764 129.758C87.3325 129.757 88.8886 129.752 90.4447 129.742C92.6228 129.73 94.8001 129.736 96.9783 129.748C98.2164 129.747 99.4546 129.747 100.73 129.746C104.392 130.165 106.287 130.601 109 133.12C109 135.43 109 137.74 109 140.12C100.75 140.12 92.5 140.12 84 140.12C84 141.44 84 142.76 84 144.12C67.17 144.12 50.34 144.12 33 144.12C32.67 143.13 32.34 142.14 32 141.12C28.37 140.79 24.74 140.46 21 140.12C21 139.79 21 139.46 21 139.12C23.64 139.12 26.28 139.12 29 139.12C29 136.81 29 134.5 29 132.12C32.6224 129.851 35.6728 129.861 39.8923 129.846Z" fill="#F39304"/>
<path d="M50 75.1202C52.875 74.9327 52.875 74.9327 56 75.1202C58.1359 78.324 58.2313 79.1396 58.125 82.8077C58.107 83.616 58.0889 84.4242 58.0703 85.257C58.0471 85.8718 58.0239 86.4867 58 87.1202C57.01 87.4502 56.02 87.7802 55 88.1202C55 89.4402 55 90.7602 55 92.1202C56.65 92.1202 58.3 92.1202 60 92.1202C60.495 99.0502 60.495 99.0502 61 106.12C55.4484 107.231 50.6493 107.188 45 107.12C45 112.07 45 117.02 45 122.12C34.375 122.245 34.375 122.245 31 121.12C31 119.47 31 117.82 31 116.12C32.32 116.12 33.64 116.12 35 116.12C35.33 114.47 35.66 112.82 36 111.12C35.34 111.12 34.68 111.12 34 111.12C34 111.78 34 112.44 34 113.12C31.69 113.12 29.38 113.12 27 113.12C27 116.42 27 119.72 27 123.12C25.35 123.12 23.7 123.12 22 123.12C22 118.5 22 113.88 22 109.12C22.99 109.12 23.98 109.12 25 109.12C25.0825 108.192 25.165 107.264 25.25 106.308C26 103.12 26 103.12 27.9375 101.245C30 100.12 30 100.12 32 100.12C32.33 98.4702 32.66 96.8202 33 95.1202C34.98 94.7902 36.96 94.4602 39 94.1202C39 92.8002 39 91.4802 39 90.1202C41.31 90.1202 43.62 90.1202 46 90.1202C46 89.1302 46 88.1402 46 87.1202C46.66 87.1202 47.32 87.1202 48 87.1202C48 86.4602 48 85.8002 48 85.1202C48.66 85.1202 49.32 85.1202 50 85.1202C50 81.8202 50 78.5202 50 75.1202Z" fill="#F6F7F8"/>
<path d="M36 69.1202C38.97 69.4502 41.94 69.7802 45 70.1202C45 71.7702 45 73.4202 45 75.1202C46.65 75.1202 48.3 75.1202 50 75.1202C50 78.4202 50 81.7202 50 85.1202C49.34 85.1202 48.68 85.1202 48 85.1202C48 85.7802 48 86.4402 48 87.1202C47.34 87.1202 46.68 87.1202 46 87.1202C46 88.1102 46 89.1002 46 90.1202C43.69 90.1202 41.38 90.1202 39 90.1202C39 91.4402 39 92.7602 39 94.1202C37.02 94.4502 35.04 94.7802 33 95.1202C32.8762 96.2649 32.8762 96.2649 32.75 97.4327C31.8473 100.667 30.8641 101.471 28 103.12C27.34 103.12 26.68 103.12 26 103.12C25.67 105.1 25.34 107.08 25 109.12C24.01 109.12 23.02 109.12 22 109.12C22 113.74 22 118.36 22 123.12C23.98 123.12 25.96 123.12 28 123.12C28 123.78 28 124.44 28 125.12C30.31 125.12 32.62 125.12 35 125.12C35 125.78 35 126.44 35 127.12C36.0996 127.109 37.1991 127.097 38.332 127.085C46.6154 127.025 54.7613 127.124 63 128.12C63 128.45 63 128.78 63 129.12C48.48 129.12 33.96 129.12 19 129.12C19 130.44 19 131.76 19 133.12C17.68 133.12 16.36 133.12 15 133.12C15 135.76 15 138.4 15 141.12C20.94 141.12 26.88 141.12 33 141.12C33 142.11 33 143.1 33 144.12C36.3686 144.87 39.5256 145.262 42.9739 145.326C44.4148 145.355 44.4148 145.355 45.8848 145.386C46.909 145.403 47.9331 145.419 48.9883 145.437C50.5758 145.468 50.5758 145.468 52.1954 145.5C55.5677 145.565 58.9401 145.624 62.3125 145.683C64.6022 145.726 66.8919 145.77 69.1816 145.814C74.7877 145.921 80.3938 146.022 86 146.12C86 146.45 86 146.78 86 147.12C79.4428 147.172 72.8857 147.206 66.3284 147.23C64.1089 147.24 61.8895 147.254 59.6702 147.271C44.3305 147.389 29.2565 146.75 14 145.12C14 144.13 14 143.14 14 142.12C12.68 142.12 11.36 142.12 10 142.12C10 138.82 10 135.52 10 132.12C10.99 132.12 11.98 132.12 13 132.12C13 130.47 13 128.82 13 127.12C14.32 127.12 15.64 127.12 17 127.12C17 121.18 17 115.24 17 109.12C17.99 109.12 18.98 109.12 20 109.12C20 106.81 20 104.5 20 102.12C21.32 102.12 22.64 102.12 24 102.12C24 100.8 24 99.4802 24 98.1202C24.66 98.1202 25.32 98.1202 26 98.1202C27.523 95.183 28.801 92.2034 30 89.1202C31.98 89.1202 33.96 89.1202 36 89.1202C36 88.4602 36 87.8002 36 87.1202C36.66 87.1202 37.32 87.1202 38 87.1202C38.33 85.8002 38.66 84.4802 39 83.1202C40.65 83.1202 42.3 83.1202 44 83.1202C44 80.8102 44 78.5002 44 76.1202C42.7934 75.9346 42.7934 75.9346 41.5625 75.7452C40.7169 75.539 39.8712 75.3327 39 75.1202C38.67 74.4602 38.34 73.8002 38 73.1202C38.33 72.7902 38.66 72.4602 39 72.1202C37.68 71.7902 36.36 71.4602 35 71.1202C35.33 70.4602 35.66 69.8002 36 69.1202Z" fill="#320D07"/>
<path d="M46 40.1203C50.9662 40.0956 55.9324 40.0774 60.8987 40.0653C62.5894 40.0603 64.2802 40.0535 65.9709 40.0448C68.396 40.0327 70.821 40.027 73.2461 40.0226C74.3867 40.0149 74.3867 40.0149 75.5504 40.007C77.3673 40.0068 79.1841 40.0583 81 40.1203C81.495 40.6153 81.495 40.6153 82 41.1203C83.9181 41.3059 83.9181 41.3059 85.875 41.4953C88.2856 41.7933 89.8423 42.0365 92 43.1828C93.7128 46.5013 93.2933 49.4245 93 53.1203C92.34 53.7803 91.68 54.4403 91 55.1203C90.3575 57.189 90.3575 57.189 90 59.1203C88.68 59.1203 87.36 59.1203 86 59.1203C86 58.1303 86 57.1403 86 56.1203C73.79 56.1203 61.58 56.1203 49 56.1203C49 55.4603 49 54.8003 49 54.1203C48.01 54.1203 47.02 54.1203 46 54.1203C46 49.5003 46 44.8803 46 40.1203Z" fill="#595FBD"/>
<path d="M22 30.1202C23.98 30.1202 25.96 30.1202 28 30.1202C28.33 36.3902 28.66 42.6602 29 49.1202C29.66 49.1202 30.32 49.1202 31 49.1202C31 50.4402 31 51.7602 31 53.1202C31.99 53.1202 32.98 53.1202 34 53.1202C34 48.8302 34 44.5402 34 40.1202C34.33 40.1202 34.66 40.1202 35 40.1202C35.0735 41.3848 35.0735 41.3848 35.1484 42.6749C35.2232 43.7706 35.298 44.8663 35.375 45.9952C35.4446 47.0858 35.5142 48.1763 35.5859 49.2999C35.7325 52.2507 35.7325 52.2507 38 54.1202C38.625 56.2452 38.625 56.2452 39 58.1202C40.98 58.4502 42.96 58.7802 45 59.1202C45.33 60.1102 45.66 61.1002 46 62.1202C48.0002 63.3291 48.0002 63.3291 50 64.1202C50 64.7802 50 65.4402 50 66.1202C53.465 65.6252 53.465 65.6252 57 65.1202C57.66 62.4802 58.32 59.8402 59 57.1202C58.34 56.7902 57.68 56.4602 57 56.1202C66.57 56.1202 76.14 56.1202 86 56.1202C86 57.1102 86 58.1002 86 59.1202C85.01 59.4502 84.02 59.7802 83 60.1202C82.67 60.7802 82.34 61.4402 82 62.1202C78.9375 62.7452 78.9375 62.7452 76 63.1202C76.33 63.7802 76.66 64.4402 77 65.1202C75.5769 65.2749 75.5769 65.2749 74.125 65.4327C70.7089 65.8056 70.7089 65.8056 69 69.1202C66.937 69.4608 66.937 69.4608 64.4297 69.4132C63.5338 69.4035 62.6379 69.3939 61.7148 69.3839C60.3091 69.3462 60.3091 69.3462 58.875 69.3077C57.9301 69.2942 56.9852 69.2807 56.0117 69.2667C53.6739 69.2313 51.3372 69.1819 49 69.1202C49.33 71.1002 49.66 73.0802 50 75.1202C48.35 75.1202 46.7 75.1202 45 75.1202C45 73.4702 45 71.8202 45 70.1202C42.03 69.7902 39.06 69.4602 36 69.1202C36 67.8002 36 66.4802 36 65.1202C35.01 65.1202 34.02 65.1202 33 65.1202C32.505 63.6352 32.505 63.6352 32 62.1202C31.01 61.7902 30.02 61.4602 29 61.1202C29 60.1302 29 59.1402 29 58.1202C27.68 58.1202 26.36 58.1202 25 58.1202C25 55.4802 25 52.8402 25 50.1202C24.01 50.1202 23.02 50.1202 22 50.1202C22 43.5202 22 36.9202 22 30.1202Z" fill="#D0D6EB"/>
<path d="M84 67.1202C85.98 67.1202 87.96 67.1202 90 67.1202C90 68.1102 90 69.1002 90 70.1202C89.34 70.1202 88.68 70.1202 88 70.1202C88 71.4402 88 72.7602 88 74.1202C86.02 74.1202 84.04 74.1202 82 74.1202C82 74.7802 82 75.4402 82 76.1202C80.68 76.1202 79.36 76.1202 78 76.1202C78 78.4302 78 80.7402 78 83.1202C79.32 83.1202 80.64 83.1202 82 83.1202C82 84.4402 82 85.7602 82 87.1202C84.97 87.1202 87.94 87.1202 91 87.1202C91.2681 88.2546 91.5362 89.389 91.8125 90.5577C92.4003 92.3212 92.4003 92.3212 93 94.1202C93.99 94.4502 94.98 94.7802 96 95.1202C96 95.7802 96 96.4402 96 97.1202C96.99 97.1202 97.98 97.1202 99 97.1202C99 98.4402 99 99.7602 99 101.12C100.32 101.12 101.64 101.12 103 101.12C103 103.76 103 106.4 103 109.12C104.32 109.12 105.64 109.12 107 109.12C107 114.73 107 120.34 107 126.12C108.485 126.615 108.485 126.615 110 127.12C110 128.77 110 130.42 110 132.12C110.99 132.12 111.98 132.12 113 132.12C113 135.09 113 138.06 113 141.12C111.68 141.12 110.36 141.12 109 141.12C109 142.44 109 143.76 109 145.12C94.4012 145.963 79.841 146.307 65.2183 146.306C61.816 146.308 58.414 146.326 55.0117 146.345C52.8385 146.348 50.6654 146.35 48.4922 146.351C46.9737 146.361 46.9737 146.361 45.4245 146.372C44.4915 146.369 43.5585 146.366 42.5972 146.363C41.3698 146.365 41.3698 146.365 40.1176 146.367C38 146.12 38 146.12 35 144.12C51.17 144.12 67.34 144.12 84 144.12C84 142.8 84 141.48 84 140.12C92.25 140.12 100.5 140.12 109 140.12C109 137.81 109 135.5 109 133.12C107.02 132.625 107.02 132.625 105 132.12C105 130.47 105 128.82 105 127.12C104.01 127.12 103.02 127.12 102 127.12C102 126.46 102 125.8 102 125.12C100.515 124.625 100.515 124.625 99 124.12C99.99 124.12 100.98 124.12 102 124.12C102 118.84 102 113.56 102 108.12C100.68 108.12 99.36 108.12 98 108.12C98 106.14 98 104.16 98 102.12C96.35 102.12 94.7 102.12 93 102.12C92.67 101.46 92.34 100.8 92 100.12C91.01 99.7902 90.02 99.4602 89 99.1202C89 97.8002 89 96.4802 89 95.1202C87.68 94.7902 86.36 94.4602 85 94.1202C85 93.1302 85 92.1402 85 91.1202C82.69 91.1202 80.38 91.1202 78 91.1202C78.33 89.8002 78.66 88.4802 79 87.1202C78.01 87.1202 77.02 87.1202 76 87.1202C76 86.1302 76 85.1402 76 84.1202C75.01 84.1202 74.02 84.1202 73 84.1202C73 81.1502 73 78.1802 73 75.1202C74.32 74.7902 75.64 74.4602 77 74.1202C77.33 72.8002 77.66 71.4802 78 70.1202C79.98 70.1202 81.96 70.1202 84 70.1202C84 69.1302 84 68.1402 84 67.1202Z" fill="#1E131B"/>
<path d="M68.9999 75.1202C70.3199 75.1202 71.6399 75.1202 72.9999 75.1202C72.9999 78.0902 72.9999 81.0602 72.9999 84.1202C73.9899 84.1202 74.9799 84.1202 75.9999 84.1202C75.9999 85.1102 75.9999 86.1002 75.9999 87.1202C76.9899 87.1202 77.9799 87.1202 78.9999 87.1202C78.6699 88.4402 78.3399 89.7602 77.9999 91.1202C80.3099 91.1202 82.6199 91.1202 84.9999 91.1202C85.3299 92.1102 85.6599 93.1002 85.9999 94.1202C86.9899 94.4502 87.9799 94.7802 88.9999 95.1202C88.9999 96.4402 88.9999 97.7602 88.9999 99.1202C90.3199 99.4502 91.6399 99.7802 92.9999 100.12C92.9999 100.78 92.9999 101.44 92.9999 102.12C94.6499 102.12 96.2999 102.12 97.9999 102.12C97.9999 104.1 97.9999 106.08 97.9999 108.12C99.3199 108.12 100.64 108.12 102 108.12C102 113.4 102 118.68 102 124.12C100.35 124.12 98.6999 124.12 96.9999 124.12C96.9999 121.48 96.9999 118.84 96.9999 116.12C95.6799 115.79 94.3599 115.46 92.9999 115.12C92.9999 114.46 92.9999 113.8 92.9999 113.12C92.0099 112.935 92.0099 112.935 90.9999 112.745C87.3029 111.975 83.6598 111.051 79.9999 110.12C79.9999 109.13 79.9999 108.14 79.9999 107.12C76.0399 107.12 72.0799 107.12 67.9999 107.12C64.1345 101.443 63.5784 97.9692 63.9999 91.1202C67.2999 91.4502 70.5999 91.7802 73.9999 92.1202C71.7268 88.4418 71.7268 88.4418 68.9999 85.1202C68.9278 83.4341 68.916 81.7452 68.9374 80.0577C68.9464 79.1386 68.9554 78.2195 68.9647 77.2726C68.9763 76.5623 68.9879 75.852 68.9999 75.1202Z" fill="#BFC5E0"/>
<path d="M44.9994 110.12C55.8894 110.12 66.7794 110.12 77.9994 110.12C77.9994 111.44 77.9994 112.76 77.9994 114.12C80.4744 114.615 80.4744 114.615 82.9994 115.12C83.3807 117.112 83.7127 119.113 83.9994 121.12C82.9994 122.12 82.9994 122.12 79.4894 122.234C77.9289 122.234 76.3684 122.228 74.808 122.218C73.9882 122.216 73.1683 122.215 72.3236 122.214C69.6947 122.208 67.0658 122.195 64.4369 122.183C62.6589 122.178 60.8809 122.173 59.1029 122.169C54.735 122.158 50.3672 122.141 45.9994 122.12C45.9994 122.78 45.9994 123.44 45.9994 124.12C46.9894 124.45 47.9794 124.78 48.9994 125.12C42.0694 125.12 35.1394 125.12 27.9994 125.12C26.737 122.595 26.9008 120.808 26.9369 117.995C26.9459 117.085 26.9549 116.175 26.9642 115.237C26.9758 114.539 26.9874 113.84 26.9994 113.12C29.3094 113.12 31.6194 113.12 33.9994 113.12C33.9994 112.46 33.9994 111.8 33.9994 111.12C34.6594 111.12 35.3194 111.12 35.9994 111.12C35.6694 112.77 35.3394 114.42 34.9994 116.12C33.6794 116.12 32.3594 116.12 30.9994 116.12C30.9994 117.77 30.9994 119.42 30.9994 121.12C37.9294 121.615 37.9294 121.615 44.9994 122.12C44.9994 118.16 44.9994 114.2 44.9994 110.12Z" fill="#FCD724"/>
<path d="M109 8.12026C109 11.7503 109 15.3803 109 19.1203C107.35 19.1203 105.7 19.1203 104 19.1203C104 19.7803 104 20.4403 104 21.1203C83.54 21.1203 63.08 21.1203 42 21.1203C42 20.4603 42 19.8003 42 19.1203C41.34 19.1203 40.68 19.1203 40 19.1203C40 18.4603 40 17.8003 40 17.1203C51.22 17.1203 62.44 17.1203 74 17.1203C74 14.4803 74 11.8403 74 9.12026C75.0042 9.13186 76.0084 9.14346 77.043 9.15542C84.7872 9.21632 92.4127 9.06089 100.133 8.33901C103.1 8.11266 106.026 8.08496 109 8.12026Z" fill="#EF8603"/>
<path d="M30.6259 0C31.7961 0.00222061 32.9664 0.00444122 34.1721 0.00672913C34.816 0.0065831 35.4599 0.00643707 36.1233 0.00628662C38.2606 0.00698567 40.3978 0.0147776 42.5352 0.0225983C44.0135 0.0244625 45.4918 0.0258864 46.9701 0.026886C50.868 0.0307109 54.7659 0.040541 58.6638 0.05159C62.6385 0.0618046 66.6132 0.0663837 70.5879 0.0714264C78.3919 0.0821633 86.196 0.0992394 94 0.120255C94 1.77025 94 3.42025 94 5.12025C73.649 5.30762 53.3382 4.76228 33 4.12025C33 4.78025 33 5.44025 33 6.12025C28.38 6.12025 23.76 6.12025 19 6.12025C19 7.11025 19 8.10025 19 9.12025C17.68 9.12025 16.36 9.12025 15 9.12025C15 12.4203 15 15.7203 15 19.1203C16.32 19.1203 17.64 19.1203 19 19.1203C19 20.1103 19 21.1003 19 22.1203C23.95 22.1203 28.9 22.1203 34 22.1203C34 22.4503 34 22.7803 34 23.1203C33.0964 23.1692 32.1927 23.2182 31.2617 23.2687C30.0822 23.3435 28.9027 23.4182 27.6875 23.4953C26.5157 23.5649 25.344 23.6345 24.1367 23.7062C20.843 23.9064 20.843 23.9064 18 26.1203C17.4916 28.4378 17.4916 28.4378 17.4883 31.1281C17.4351 32.6073 17.4351 32.6073 17.3809 34.1163C17.3583 35.1489 17.3357 36.1814 17.3125 37.2453C17.2783 38.2855 17.2442 39.3258 17.209 40.3976C17.1263 42.9717 17.0572 45.5455 17 48.1203C16.67 48.1203 16.34 48.1203 16 48.1203C16 40.5303 16 32.9403 16 25.1203C15.01 25.1203 14.02 25.1203 13 25.1203C13 23.4703 13 21.8203 13 20.1203C12.01 20.1203 11.02 20.1203 10 20.1203C10 15.5003 10 10.8803 10 6.12025C11.32 6.12025 12.64 6.12025 14 6.12025C14 4.80025 14 3.48025 14 2.12025C14.9268 2.05967 15.8537 1.99908 16.8086 1.93666C18.6049 1.81098 18.6049 1.81098 20.4375 1.68275C22.2299 1.56094 22.2299 1.56094 24.0586 1.43666C27.2193 1.09667 27.5457 0.14106 30.6259 0Z" fill="#311D22"/>
<path d="M23 26.1202C49.07 26.1202 75.14 26.1202 102 26.1202C102 27.1102 102 28.1002 102 29.1202C96.3113 31.5515 90.9689 31.3933 84.8984 31.3507C83.8256 31.3502 82.7527 31.3498 81.6474 31.3493C79.3796 31.3463 77.1119 31.3384 74.8442 31.326C71.4078 31.3079 67.9716 31.3055 64.5352 31.3058C62.3229 31.3009 60.1107 31.295 57.8984 31.2882C56.379 31.2865 56.379 31.2865 54.8289 31.2848C47.839 31.2394 40.9604 30.7684 34 30.1202C34 37.7102 34 45.3002 34 53.1202C33.01 53.1202 32.02 53.1202 31 53.1202C31 51.8002 31 50.4802 31 49.1202C30.34 49.1202 29.68 49.1202 29 49.1202C27.345 45.8103 27.8992 42.129 27.9375 38.4952C27.942 37.6934 27.9465 36.8916 27.9512 36.0656C27.963 34.0837 27.9809 32.102 28 30.1202C26.35 30.1202 24.7 30.1202 23 30.1202C23 28.8002 23 27.4802 23 26.1202Z" fill="#89839F"/>
<path d="M33 4.12024C36.96 4.12024 40.92 4.12024 45 4.12024C45 6.10024 45 8.08024 45 10.1202C43.35 10.1202 41.7 10.1202 40 10.1202C40 12.7602 40 15.4002 40 18.1202C40.66 18.4502 41.32 18.7802 42 19.1202C42 20.4402 42 21.7602 42 23.1202C30.615 22.6252 30.615 22.6252 19 22.1202C19 21.1302 19 20.1402 19 19.1202C17.68 19.1202 16.36 19.1202 15 19.1202C15 15.8202 15 12.5202 15 9.12024C16.32 9.12024 17.64 9.12024 19 9.12024C19 8.13024 19 7.14024 19 6.12024C23.62 6.12024 28.24 6.12024 33 6.12024C33 5.46024 33 4.80024 33 4.12024Z" fill="#FDF7A5"/>
<path d="M102 125.12C102 125.78 102 126.44 102 127.12C102.99 127.12 103.98 127.12 105 127.12C104.67 128.44 104.34 129.76 104 131.12C80.9 131.12 57.8 131.12 34 131.12C34 131.45 34 131.78 34 132.12C32.35 132.12 30.7 132.12 29 132.12C28.7498 135.537 28.7498 135.537 29 139.12C29.99 139.78 30.98 140.44 32 141.12C26.39 141.12 20.78 141.12 15 141.12C15 138.48 15 135.84 15 133.12C16.32 133.12 17.64 133.12 19 133.12C19 131.8 19 130.48 19 129.12C29.89 128.79 40.78 128.46 52 128.12C46.39 127.79 40.78 127.46 35 127.12C35 126.79 35 126.46 35 126.12C35.7472 126.11 36.4945 126.1 37.2644 126.089C44.2981 125.991 51.3318 125.889 58.3655 125.781C61.9817 125.726 65.598 125.672 69.2144 125.623C72.7028 125.575 76.191 125.523 79.6793 125.467C81.6613 125.437 83.6434 125.411 85.6255 125.386C86.8266 125.366 88.0276 125.346 89.2651 125.326C90.8573 125.302 90.8573 125.302 92.4817 125.278C100.532 124.773 100.532 124.773 102 125.12Z" fill="#551C08"/>
<path d="M42.001 21.1202C46.951 21.4502 51.901 21.7802 57.001 22.1202C57.001 22.4502 57.001 22.7802 57.001 23.1202C68.551 23.4502 80.101 23.7802 92.001 24.1202C92.001 24.4502 92.001 24.7802 92.001 25.1202C69.231 25.4502 46.461 25.7802 23.001 26.1202C22.671 34.0402 22.341 41.9602 22.001 50.1202C22.991 50.1202 23.981 50.1202 25.001 50.1202C25.001 52.7602 25.001 55.4002 25.001 58.1202C26.321 58.1202 27.641 58.1202 29.001 58.1202C29.001 59.1102 29.001 60.1002 29.001 61.1202C30.321 61.4502 31.641 61.7802 33.001 62.1202C33.001 63.1102 33.001 64.1002 33.001 65.1202C33.991 65.1202 34.981 65.1202 36.001 65.1202C36.331 67.1002 36.661 69.0802 37.001 71.1202C39.311 71.1202 41.621 71.1202 44.001 71.1202C40.3568 73.5497 38.2886 73.282 34.001 73.1202C34.001 72.1302 34.001 71.1402 34.001 70.1202C33.011 70.1202 32.021 70.1202 31.001 70.1202C30.506 68.6352 30.506 68.6352 30.001 67.1202C29.011 66.7902 28.021 66.4602 27.001 66.1202C27.001 65.1302 27.001 64.1402 27.001 63.1202C26.341 63.1202 25.681 63.1202 25.001 63.1202C25.001 62.4602 25.001 61.8002 25.001 61.1202C24.341 61.1202 23.681 61.1202 23.001 61.1202C23.001 60.1302 23.001 59.1402 23.001 58.1202C22.011 58.1202 21.021 58.1202 20.001 58.1202C20.001 55.1502 20.001 52.1802 20.001 49.1202C19.011 49.1202 18.021 49.1202 17.001 49.1202C16.885 45.3497 16.8138 41.5795 16.751 37.8077C16.7175 36.7359 16.6839 35.664 16.6494 34.5597C16.6365 33.5317 16.6236 32.5036 16.6104 31.4445C16.5894 30.4966 16.5685 29.5487 16.5469 28.5721C17.001 26.1202 17.001 26.1202 18.7139 24.3058C21.3709 22.9285 23.006 22.7728 25.9854 22.8273C26.9199 22.8369 27.8545 22.8466 28.8174 22.8566C29.7855 22.8817 30.7536 22.9068 31.751 22.9327C33.2263 22.953 33.2263 22.953 34.7314 22.9738C37.1552 23.0091 39.5778 23.0584 42.001 23.1202C42.001 22.4602 42.001 21.8002 42.001 21.1202Z" fill="#170913"/>
<path d="M52 70.1202C54.9584 70.0933 57.9165 70.0735 60.875 70.0577C61.7168 70.0494 62.5585 70.041 63.4258 70.0323C64.2314 70.0291 65.0371 70.0259 65.8672 70.0226C66.9826 70.0147 66.9826 70.0147 68.1206 70.0067C70 70.1202 70 70.1202 72 71.1202C72 72.1102 72 73.1002 72 74.1202C71.01 74.1202 70.02 74.1202 69 74.1202C69.2058 82.9577 69.2058 82.9577 74 90.1202C74 90.7802 74 91.4402 74 92.1202C67.375 92.2452 67.375 92.2452 64 91.1202C64.365 96.7847 65.0554 101.127 68 106.12C65.69 106.12 63.38 106.12 61 106.12C60.0474 101.357 59.9167 96.9536 60 92.1202C58.35 92.1202 56.7 92.1202 55 92.1202C54.67 90.8002 54.34 89.4802 54 88.1202C55.32 87.7902 56.64 87.4602 58 87.1202C57.8589 85.6614 57.712 84.2032 57.5625 82.7452C57.4813 81.9331 57.4001 81.121 57.3164 80.2843C57.1091 78.0775 57.1091 78.0775 56 76.1202C53.4727 75.4647 53.4727 75.4647 51 75.1202C51.33 73.4702 51.66 71.8202 52 70.1202Z" fill="#464584"/>
<path d="M57 56.1202C66.57 56.1202 76.14 56.1202 86 56.1202C86 57.1102 86 58.1002 86 59.1202C85.01 59.4502 84.02 59.7802 83 60.1202C82.67 60.7802 82.34 61.4402 82 62.1202C78.9375 62.7452 78.9375 62.7452 76 63.1202C76.33 63.7802 76.66 64.4402 77 65.1202C76.0512 65.2234 75.1025 65.3265 74.125 65.4327C70.7089 65.8056 70.7089 65.8056 69 69.1202C66.937 69.4608 66.937 69.4608 64.4297 69.4132C63.5338 69.4035 62.6379 69.3939 61.7148 69.3839C60.3091 69.3462 60.3091 69.3462 58.875 69.3077C57.4577 69.2874 57.4577 69.2874 56.0117 69.2667C53.6739 69.2313 51.3372 69.1819 49 69.1202C49.33 71.1002 49.66 73.0802 50 75.1202C48.68 75.1202 47.36 75.1202 46 75.1202C46 71.1602 46 67.2002 46 63.1202C47.32 63.4502 48.64 63.7802 50 64.1202C50 64.7802 50 65.4402 50 66.1202C53.465 65.6252 53.465 65.6252 57 65.1202C57.66 62.4802 58.32 59.8402 59 57.1202C58.34 56.7902 57.68 56.4602 57 56.1202Z" fill="#B0DFF4"/>
<path d="M40 130.12C40.33 133.42 40.66 136.72 41 140.12C41.811 139.953 42.622 139.785 43.4575 139.613C47.5973 139.037 51.5131 139.097 55.6797 139.241C56.8988 139.277 56.8988 139.277 58.1426 139.313C60.7203 139.389 63.2976 139.473 65.875 139.558C67.6302 139.611 69.3854 139.664 71.1406 139.716C75.4273 139.845 79.7137 139.98 84 140.12C84 141.44 84 142.76 84 144.12C67.17 144.12 50.34 144.12 33 144.12C32.67 143.13 32.34 142.14 32 141.12C28.37 140.79 24.74 140.46 21 140.12C21 139.79 21 139.46 21 139.12C23.64 139.12 26.28 139.12 29 139.12C29 136.81 29 134.5 29 132.12C32.6342 129.794 35.7709 129.958 40 130.12Z" fill="#EDB124"/>
<path d="M46 31.1202C57.22 31.1202 68.44 31.1202 80 31.1202C80 34.0902 80 37.0602 80 40.1202C68.78 40.1202 57.56 40.1202 46 40.1202C46 37.1502 46 34.1802 46 31.1202Z" fill="#D9DADF"/>
<path d="M46 40.1203C50.9662 40.0956 55.9324 40.0774 60.8987 40.0653C62.5894 40.0603 64.2802 40.0535 65.9709 40.0448C68.396 40.0327 70.821 40.027 73.2461 40.0226C74.3867 40.0149 74.3867 40.0149 75.5504 40.007C77.3673 40.0068 79.1841 40.0583 81 40.1203C81.495 40.6153 81.495 40.6153 82 41.1203C83.9181 41.3059 83.9181 41.3059 85.875 41.4953C88.3321 41.7947 89.8272 42.023 92 43.2453C93.5557 46.1621 93.183 48.8865 93 52.1203C92.0306 52.244 91.0612 52.3678 90.0625 52.4953C89.0519 52.7015 88.0412 52.9078 87 53.1203C86.67 53.7803 86.34 54.4403 86 55.1203C81.71 55.1203 77.42 55.1203 73 55.1203C73.99 54.1303 74.98 53.1403 76 52.1203C76.66 49.1503 77.32 46.1803 78 43.1203C67.44 43.1203 56.88 43.1203 46 43.1203C46 42.1303 46 41.1403 46 40.1203Z" fill="#4A5DC5"/>
<path d="M36 69.1202C38.97 69.4502 41.94 69.7802 45 70.1202C45 71.7702 45 73.4202 45 75.1202C46.65 75.1202 48.3 75.1202 50 75.1202C50 78.4202 50 81.7202 50 85.1202C49.34 85.1202 48.68 85.1202 48 85.1202C48 85.7802 48 86.4402 48 87.1202C47.34 87.1202 46.68 87.1202 46 87.1202C46 88.1102 46 89.1002 46 90.1202C43.69 90.1202 41.38 90.1202 39 90.1202C39 91.4402 39 92.7602 39 94.1202C37.02 94.4502 35.04 94.7802 33 95.1202C32.8762 96.2649 32.8762 96.2649 32.75 97.4327C31.8473 100.667 30.8641 101.471 28 103.12C27.34 103.12 26.68 103.12 26 103.12C25.67 103.78 25.34 104.44 25 105.12C24.34 104.79 23.68 104.46 23 104.12C22.01 106.595 22.01 106.595 21 109.12C20.67 109.12 20.34 109.12 20 109.12C20 106.81 20 104.5 20 102.12C21.32 102.12 22.64 102.12 24 102.12C24 100.8 24 99.4802 24 98.1202C24.66 98.1202 25.32 98.1202 26 98.1202C27.523 95.183 28.801 92.2034 30 89.1202C31.98 89.1202 33.96 89.1202 36 89.1202C36 88.4602 36 87.8002 36 87.1202C36.66 87.1202 37.32 87.1202 38 87.1202C38.33 85.8002 38.66 84.4802 39 83.1202C40.65 83.1202 42.3 83.1202 44 83.1202C44 80.8102 44 78.5002 44 76.1202C42.7934 75.9346 42.7934 75.9346 41.5625 75.7452C40.7169 75.539 39.8712 75.3327 39 75.1202C38.67 74.4602 38.34 73.8002 38 73.1202C38.33 72.7902 38.66 72.4602 39 72.1202C37.68 71.7902 36.36 71.4602 35 71.1202C35.33 70.4602 35.66 69.8002 36 69.1202Z" fill="#2E1B24"/>
<path d="M109 127.12C109.33 127.12 109.66 127.12 110 127.12C110 128.77 110 130.42 110 132.12C110.99 132.12 111.98 132.12 113 132.12C113 135.09 113 138.06 113 141.12C111.68 141.12 110.36 141.12 109 141.12C109 142.44 109 143.76 109 145.12C94.4012 145.963 79.841 146.307 65.2183 146.306C61.816 146.308 58.414 146.326 55.0117 146.345C52.8385 146.348 50.6654 146.35 48.4922 146.351C46.9737 146.361 46.9737 146.361 45.4245 146.372C44.4915 146.369 43.5585 146.366 42.5972 146.363C41.3698 146.365 41.3698 146.365 40.1176 146.367C38 146.12 38 146.12 35 144.12C51.17 144.12 67.34 144.12 84 144.12C84 142.8 84 141.48 84 140.12C92.25 140.12 100.5 140.12 109 140.12C109 137.81 109 135.5 109 133.12C108.01 132.79 107.02 132.46 106 132.12C106.99 132.12 107.98 132.12 109 132.12C109 130.47 109 128.82 109 127.12Z" fill="#100506"/>
<path d="M109 8.12018C109 11.7502 109 15.3802 109 19.1202C107.35 19.1202 105.7 19.1202 104 19.1202C104 19.7802 104 20.4402 104 21.1202C83.87 21.1202 63.74 21.1202 43 21.1202C43 20.7902 43 20.4602 43 20.1202C44.1762 20.0951 45.3524 20.0701 46.5642 20.0443C50.9121 19.9504 55.2599 19.8501 59.6077 19.7479C61.4924 19.7044 63.3772 19.6628 65.262 19.6229C67.9651 19.5653 70.6681 19.5016 73.3711 19.4366C74.219 19.4199 75.0669 19.4032 75.9405 19.3859C79.7829 19.6561 79.7829 19.6561 83 18.1202C84.6662 18.0795 86.3339 18.0775 88 18.1202C88 16.4702 88 14.8202 88 13.1202C89.32 13.4502 90.64 13.7802 92 14.1202C92 15.1102 92 16.1002 92 17.1202C93.98 17.1202 95.96 17.1202 98 17.1202C98 15.8002 98 14.4802 98 13.1202C95.69 12.7902 93.38 12.4602 91 12.1202C91 11.1302 91 10.1402 91 9.12018C92.8747 8.9503 94.7498 8.78443 96.625 8.62018C97.6691 8.52737 98.7133 8.43455 99.7891 8.33893C102.871 8.12894 105.912 8.08308 109 8.12018Z" fill="#D76D04"/>
<path d="M104 19.1202C104.66 19.1202 105.32 19.1202 106 19.1202C106.495 20.6052 106.495 20.6052 107 22.1202C105.02 22.7802 103.04 23.4402 101 24.1202C101 24.7802 101 25.4402 101 26.1202C78.89 26.1202 56.78 26.1202 34 26.1202C34 25.7902 34 25.4602 34 25.1202C41.26 24.7902 48.52 24.4602 56 24.1202C56 23.7902 56 23.4602 56 23.1202C52.04 22.7902 48.08 22.4602 44 22.1202C44 21.7902 44 21.4602 44 21.1202C63.8 21.1202 83.6 21.1202 104 21.1202C104 20.4602 104 19.8002 104 19.1202Z" fill="#391113"/>
<path d="M53 75.1202C54.32 75.4502 55.64 75.7802 57 76.1202C58.2027 78.5257 58.1007 80.0702 58.0625 82.7452C58.0535 83.5625 58.0445 84.3798 58.0352 85.2218C58.0236 85.8483 58.012 86.4748 58 87.1202C57.01 87.4502 56.02 87.7802 55 88.1202C55 89.4402 55 90.7602 55 92.1202C56.65 92.1202 58.3 92.1202 60 92.1202C60.33 96.7402 60.66 101.36 61 106.12C57.2314 106.874 54.4333 107.233 50.6875 107.183C49.8045 107.174 48.9215 107.165 48.0117 107.155C47.3479 107.144 46.684 107.132 46 107.12C46.99 105.635 46.99 105.635 48 104.12C49.1704 100.617 49.3058 97.0378 49.5625 93.3702C49.6463 92.1998 49.7301 91.0293 49.8164 89.8234C49.877 88.9313 49.9376 88.0393 50 87.1202C50.99 87.1202 51.98 87.1202 53 87.1202C53 83.1602 53 79.2002 53 75.1202Z" fill="#E0EAF1"/>
<path d="M88 130.12C90.5631 130.039 93.1237 129.98 95.6875 129.933C96.4087 129.908 97.13 129.882 97.873 129.857C102.383 129.795 105.684 129.896 109 133.12C109 135.43 109 137.74 109 140.12C100.75 140.12 92.5 140.12 84 140.12C84 139.13 84 138.14 84 137.12C85.32 137.12 86.64 137.12 88 137.12C88 134.81 88 132.5 88 130.12Z" fill="#E67A03"/>
<path d="M13 127.12C13.33 127.12 13.66 127.12 14 127.12C15.2714 132.047 15 135.657 15 141.12C20.94 141.12 26.88 141.12 33 141.12C33 142.11 33 143.1 33 144.12C36.3686 144.87 39.5256 145.262 42.9739 145.326C44.4148 145.355 44.4148 145.355 45.8848 145.386C47.421 145.411 47.421 145.411 48.9883 145.437C50.0466 145.457 51.105 145.478 52.1954 145.5C55.5677 145.565 58.9401 145.624 62.3125 145.683C64.6022 145.726 66.8919 145.77 69.1816 145.814C74.7877 145.921 80.3938 146.022 86 146.12C86 146.45 86 146.78 86 147.12C79.4428 147.172 72.8857 147.206 66.3284 147.23C64.1089 147.24 61.8895 147.254 59.6702 147.271C44.3305 147.389 29.2565 146.75 14 145.12C14 144.13 14 143.14 14 142.12C12.68 142.12 11.36 142.12 10 142.12C10 138.82 10 135.52 10 132.12C10.99 132.12 11.98 132.12 13 132.12C13 130.47 13 128.82 13 127.12Z" fill="#564C56"/>
<path d="M40 130.12C49.57 130.12 59.14 130.12 69 130.12C69.33 130.78 69.66 131.44 70 132.12C69 135.12 69 135.12 67 136.12C63.7052 136.353 60.4174 136.514 57.1172 136.638C52.7378 136.854 49.1446 137.563 45 139.12C43.68 139.45 42.36 139.78 41 140.12C40.67 136.82 40.34 133.52 40 130.12Z" fill="#FCB909"/>
<path d="M33 4.12024C33.33 5.11024 33.66 6.10024 34 7.12024C28.06 7.61524 28.06 7.61524 22 8.12024C23.98 8.78024 25.96 9.44024 28 10.1202C28.33 12.4302 28.66 14.7402 29 17.1202C29.99 17.4502 30.98 17.7802 32 18.1202C32 19.4402 32 20.7602 32 22.1202C27.71 22.1202 23.42 22.1202 19 22.1202C19 21.1302 19 20.1402 19 19.1202C17.68 19.1202 16.36 19.1202 15 19.1202C15 15.8202 15 12.5202 15 9.12024C16.32 9.12024 17.64 9.12024 19 9.12024C19 8.13024 19 7.14024 19 6.12024C23.62 6.12024 28.24 6.12024 33 6.12024C33 5.46024 33 4.80024 33 4.12024Z" fill="#DA8F10"/>
<path d="M80 107.12C80 108.11 80 109.1 80 110.12C81.2684 110.027 81.2684 110.027 82.5625 109.933C86.7362 110.16 89.2543 111.322 93 113.12C93 114.44 93 115.76 93 117.12C90.36 117.12 87.72 117.12 85 117.12C85 116.13 85 115.14 85 114.12C82.69 114.12 80.38 114.12 78 114.12C78 112.8 78 111.48 78 110.12C67.11 110.12 56.22 110.12 45 110.12C45 109.13 45 108.14 45 107.12C56.7934 105.82 68.1991 105.949 80 107.12Z" fill="#8E4F29"/>
<path d="M83 59.1202C83.99 59.4502 84.98 59.7802 86 60.1202C85 63.1202 85 63.1202 83 64.1202C85.475 65.1102 85.475 65.1102 88 66.1202C86.68 66.4502 85.36 66.7802 84 67.1202C84 68.1102 84 69.1002 84 70.1202C82.02 70.1202 80.04 70.1202 78 70.1202C77.67 71.7702 77.34 73.4202 77 75.1202C74.36 75.1202 71.72 75.1202 69 75.1202C69.99 74.7902 70.98 74.4602 72 74.1202C72 73.1302 72 72.1402 72 71.1202C65.4 70.7902 58.8 70.4602 52 70.1202C51.67 71.7702 51.34 73.4202 51 75.1202C49 72.1202 49 72.1202 49 69.1202C49.5954 69.1057 50.1908 69.0911 50.8042 69.076C53.4951 69.0017 56.1848 68.905 58.875 68.8077C60.2807 68.7739 60.2807 68.7739 61.7148 68.7394C62.6107 68.7039 63.5066 68.6685 64.4297 68.632C65.2571 68.6058 66.0845 68.5796 66.937 68.5526C69.3933 68.2893 69.3933 68.2893 71 65.1202C73.0625 63.9952 73.0625 63.9952 75 63.1202C75.33 62.7902 75.66 62.4602 76 62.1202C77.9996 62.0794 80.0005 62.0777 82 62.1202C82.33 61.1302 82.66 60.1402 83 59.1202Z" fill="#96ADDB"/>
<path d="M45 4.12026C64.7383 3.74006 84.3136 4.84403 104 6.12026C103.67 7.11026 103.34 8.10026 103 9.12026C100.772 9.31626 98.5422 9.50172 96.3125 9.68276C95.0711 9.78717 93.8298 9.89159 92.5508 9.99916C89.3762 10.1074 87.0689 9.76435 84 9.12026C81.3852 9.05252 78.8002 9.02526 76.1875 9.05776C75.4946 9.06227 74.8018 9.06678 74.0879 9.07143C72.3919 9.08313 70.6959 9.10106 69 9.12026C69 8.13026 69 7.14026 69 6.12026C61.08 6.12026 53.16 6.12026 45 6.12026C45 5.46026 45 4.80026 45 4.12026Z" fill="#EFC316"/>
<path d="M57 74.1202C60.96 74.1202 64.92 74.1202 69 74.1202C69.1238 76.6881 69.1238 76.6881 69.25 79.3077C69.665 84.1271 70.5006 86.6208 74 90.1202C74 90.7802 74 91.4402 74 92.1202C67.375 92.3702 67.375 92.3702 64 90.1202C64.66 89.7902 65.32 89.4602 66 89.1202C65.67 87.4702 65.34 85.8202 65 84.1202C64.67 85.7702 64.34 87.4202 64 89.1202C62.68 89.1202 61.36 89.1202 60 89.1202C59.9265 88.1244 59.9265 88.1244 59.8516 87.1085C59.7394 85.784 59.7394 85.784 59.625 84.4327C59.5554 83.5626 59.4858 82.6925 59.4141 81.796C59.0303 78.6523 59.0303 78.6523 57 74.1202Z" fill="#5E5776"/>
<path d="M97 102.12C97.33 102.12 97.66 102.12 98 102.12C98 104.1 98 106.08 98 108.12C99.32 108.12 100.64 108.12 102 108.12C102 113.4 102 118.68 102 124.12C100.35 124.12 98.7 124.12 97 124.12C97 121.48 97 118.84 97 116.12C95.68 115.79 94.36 115.46 93 115.12C93 114.46 93 113.8 93 113.12C92.34 112.996 91.68 112.873 91 112.745C87.303 111.975 83.6599 111.051 80 110.12C80.33 109.13 80.66 108.14 81 107.12C81 107.78 81 108.44 81 109.12C82.6066 108.864 84.2102 108.59 85.8125 108.308C87.1525 108.082 87.1525 108.082 88.5195 107.851C91.1832 107.066 92.2569 106.234 94 104.12C94.1238 104.76 94.2475 105.399 94.375 106.058C94.5812 106.738 94.7875 107.419 95 108.12C95.66 108.45 96.32 108.78 97 109.12C97 106.81 97 104.5 97 102.12Z" fill="#A7A3BD"/>
<path d="M40 130.12C40.33 133.42 40.66 136.72 41 140.12C42.65 140.12 44.3 140.12 46 140.12C46 141.11 46 142.1 46 143.12C41.71 143.12 37.42 143.12 33 143.12C32.67 142.46 32.34 141.8 32 141.12C29.4139 140.652 29.4139 140.652 26.4375 140.495C25.4256 140.42 24.4137 140.346 23.3711 140.269C22.1974 140.195 22.1974 140.195 21 140.12C21 139.79 21 139.46 21 139.12C23.64 139.12 26.28 139.12 29 139.12C29 136.81 29 134.5 29 132.12C32.6342 129.794 35.7709 129.958 40 130.12Z" fill="#FDF4A3"/>
<path d="M19 129.12C24.5268 128.926 28.7561 129.372 34 131.12C34 131.45 34 131.78 34 132.12C32.35 132.12 30.7 132.12 29 132.12C28.7498 135.537 28.7498 135.537 29 139.12C29.99 139.78 30.98 140.44 32 141.12C26.39 141.12 20.78 141.12 15 141.12C15 138.48 15 135.84 15 133.12C16.32 133.12 17.64 133.12 19 133.12C19 131.8 19 130.48 19 129.12Z" fill="#F3A509"/>
<path d="M97 29.1202C98.65 29.1202 100.3 29.1202 102 29.1202C102 36.3802 102 43.6402 102 51.1202C100.68 51.1202 99.36 51.1202 98 51.1202C98 53.4302 98 55.7402 98 58.1202C96.68 57.4602 95.36 56.8002 94 56.1202C94 53.1502 94 50.1802 94 47.1202C94.99 47.1202 95.98 47.1202 97 47.1202C97 41.1802 97 35.2402 97 29.1202Z" fill="#C8C7DB"/>
<path d="M99 103.12C100.32 103.12 101.64 103.12 103 103.12C103 105.1 103 107.08 103 109.12C104.32 109.12 105.64 109.12 107 109.12C107 114.73 107 120.34 107 126.12C107.66 126.12 108.32 126.12 109 126.12C109 128.1 109 130.08 109 132.12C107.68 132.12 106.36 132.12 105 132.12C105 130.47 105 128.82 105 127.12C104.01 127.12 103.02 127.12 102 127.12C102 126.46 102 125.8 102 125.12C101.01 124.79 100.02 124.46 99 124.12C99.99 124.12 100.98 124.12 102 124.12C102 118.84 102 113.56 102 108.12C100.68 107.79 99.36 107.46 98 107.12C98.33 105.8 98.66 104.48 99 103.12Z" fill="#200F1D"/>
<path d="M87.5625 87.0577C88.6969 87.0784 89.8312 87.099 91 87.1202C91.2681 88.2546 91.5362 89.389 91.8125 90.5577C92.2044 91.7334 92.5962 92.909 93 94.1202C93.99 94.4502 94.98 94.7802 96 95.1202C96 95.7802 96 96.4402 96 97.1202C96.99 97.1202 97.98 97.1202 99 97.1202C99 98.4402 99 99.7602 99 101.12C100.32 101.12 101.64 101.12 103 101.12C103 101.78 103 102.44 103 103.12C101.68 103.12 100.36 103.12 99 103.12C98.67 104.44 98.34 105.76 98 107.12C98 105.47 98 103.82 98 102.12C96.35 102.12 94.7 102.12 93 102.12C92.67 101.46 92.34 100.8 92 100.12C91.01 99.7902 90.02 99.4602 89 99.1202C89 97.8002 89 96.4802 89 95.1202C87.68 94.7902 86.36 94.4602 85 94.1202C85 93.1302 85 92.1402 85 91.1202C82.69 91.1202 80.38 91.1202 78 91.1202C78.33 90.4602 78.66 89.8002 79 89.1202C80.323 88.7481 81.6574 88.4139 83 88.1202C84 87.1202 84 87.1202 87.5625 87.0577Z" fill="#221820"/>
<path d="M11 8.12024C13.64 8.12024 16.28 8.12024 19 8.12024C17.68 8.45024 16.36 8.78024 15 9.12024C15 12.4202 15 15.7202 15 19.1202C16.32 19.1202 17.64 19.1202 19 19.1202C19 20.1102 19 21.1002 19 22.1202C23.95 22.1202 28.9 22.1202 34 22.1202C34 22.4502 34 22.7802 34 23.1202C33.0964 23.1692 32.1927 23.2182 31.2617 23.2687C29.4925 23.3808 29.4925 23.3808 27.6875 23.4952C25.9299 23.5997 25.9299 23.5997 24.1367 23.7062C20.843 23.9064 20.843 23.9064 18 26.1202C17.4916 28.4378 17.4916 28.4378 17.4883 31.1281C17.4351 32.6073 17.4351 32.6073 17.3809 34.1163C17.3583 35.1489 17.3357 36.1814 17.3125 37.2452C17.2783 38.2855 17.2442 39.3258 17.209 40.3976C17.1263 42.9717 17.0572 45.5455 17 48.1202C16.67 48.1202 16.34 48.1202 16 48.1202C16 40.5302 16 32.9402 16 25.1202C15.01 25.1202 14.02 25.1202 13 25.1202C13 23.4702 13 21.8202 13 20.1202C12.01 19.7902 11.02 19.4602 10 19.1202C10.33 15.4902 10.66 11.8602 11 8.12024Z" fill="#431708"/>
<path d="M46 40.1203C50.9662 40.0956 55.9324 40.0774 60.8987 40.0653C62.5894 40.0603 64.2802 40.0535 65.9709 40.0448C68.396 40.0327 70.821 40.027 73.2461 40.0226C74.3867 40.0149 74.3867 40.0149 75.5504 40.007C77.3673 40.0068 79.1841 40.0583 81 40.1203C81.495 40.6153 81.495 40.6153 82 41.1203C84.0588 41.3998 86.1173 41.5676 88.1875 41.7413C88.7856 41.8664 89.3838 41.9914 90 42.1203C90.495 43.1103 90.495 43.1103 91 44.1203C76.15 43.7903 61.3 43.4603 46 43.1203C46 42.1303 46 41.1403 46 40.1203Z" fill="#635070"/>
<path d="M21 103.12C22.32 103.45 23.64 103.78 25 104.12C25 105.77 25 107.42 25 109.12C24.01 109.12 23.02 109.12 22 109.12C22.33 114.07 22.66 119.02 23 124.12C21.02 125.11 21.02 125.11 19 126.12C18.1842 129.179 18.1842 129.179 18 132.12C16.68 132.12 15.36 132.12 14 132.12C14 130.47 14 128.82 14 127.12C14.99 127.12 15.98 127.12 17 127.12C17 121.18 17 115.24 17 109.12C18.32 109.12 19.64 109.12 21 109.12C21 107.14 21 105.16 21 103.12Z" fill="#110305"/>
<path d="M34 30.1202C37.96 30.1202 41.92 30.1202 46 30.1202C46 33.4202 46 36.7202 46 40.1202C42.3465 41.947 37.9441 40.5753 34 40.1202C34 36.8202 34 33.5202 34 30.1202Z" fill="#FBFBFA"/>
<path d="M22 50.1202C22.99 50.1202 23.98 50.1202 25 50.1202C25 52.7602 25 55.4002 25 58.1202C26.32 58.1202 27.64 58.1202 29 58.1202C29 59.1102 29 60.1002 29 61.1202C30.32 61.4502 31.64 61.7802 33 62.1202C33 63.1102 33 64.1002 33 65.1202C33.99 65.1202 34.98 65.1202 36 65.1202C36.33 67.1002 36.66 69.0802 37 71.1202C39.31 71.1202 41.62 71.1202 44 71.1202C40.3558 73.5497 38.2876 73.282 34 73.1202C34 72.1302 34 71.1402 34 70.1202C33.01 70.1202 32.02 70.1202 31 70.1202C30.67 69.1302 30.34 68.1402 30 67.1202C29.01 66.7902 28.02 66.4602 27 66.1202C27 65.1302 27 64.1402 27 63.1202C26.34 63.1202 25.68 63.1202 25 63.1202C25 62.4602 25 61.8002 25 61.1202C24.34 61.1202 23.68 61.1202 23 61.1202C23 60.1302 23 59.1402 23 58.1202C22.01 57.7902 21.02 57.4602 20 57.1202C20.66 57.1202 21.32 57.1202 22 57.1202C22 54.8102 22 52.5002 22 50.1202Z" fill="#190F1B"/>
<path d="M104 31.1202C104.33 31.1202 104.66 31.1202 105 31.1202C105 37.0602 105 43.0002 105 49.1202C104.34 49.1202 103.68 49.1202 103 49.1202C103 51.7602 103 54.4002 103 57.1202C102.01 57.4502 101.02 57.7802 100 58.1202C100 59.1102 100 60.1002 100 61.1202C99.34 61.1202 98.68 61.1202 98 61.1202C98 62.1102 98 63.1002 98 64.1202C96.68 64.1202 95.36 64.1202 94 64.1202C94 65.1102 94 66.1002 94 67.1202C92.02 67.1202 90.04 67.1202 88 67.1202C88.66 65.4702 89.32 63.8202 90 62.1202C90.66 62.1202 91.32 62.1202 92 62.1202C92 61.4602 92 60.8002 92 60.1202C95 58.1202 95 58.1202 98 58.1202C98 55.8102 98 53.5002 98 51.1202C99.32 51.1202 100.64 51.1202 102 51.1202C103.108 47.0672 103.337 43.0491 103.562 38.8702C103.606 38.1252 103.649 37.3801 103.693 36.6124C103.799 34.7819 103.9 32.9511 104 31.1202Z" fill="#261A27"/>
<path d="M25 106.12C26.32 106.12 27.64 106.12 29 106.12C29 106.78 29 107.44 29 108.12C30.32 108.12 31.64 108.12 33 108.12C33.33 109.77 33.66 111.42 34 113.12C31.69 113.12 29.38 113.12 27 113.12C27 116.42 27 119.72 27 123.12C25.35 123.12 23.7 123.12 22 123.12C22 118.5 22 113.88 22 109.12C22.99 109.12 23.98 109.12 25 109.12C25 108.13 25 107.14 25 106.12Z" fill="#E5E9F6"/>
<path d="M42 21.1202C46.95 21.4502 51.9 21.7802 57 22.1202C57 22.4502 57 22.7802 57 23.1202C68.55 23.4502 80.1 23.7802 92 24.1202C92 24.4502 92 24.7802 92 25.1202C84.4628 25.1435 76.9256 25.1612 69.3884 25.1721C65.8877 25.1772 62.3871 25.1843 58.8865 25.1957C54.8527 25.2087 50.819 25.2135 46.7852 25.2179C45.5411 25.2231 44.297 25.2282 43.0152 25.2335C36.5877 25.2339 30.3708 24.985 24 24.1202C24 23.7902 24 23.4602 24 23.1202C29.94 23.1202 35.88 23.1202 42 23.1202C42 22.4602 42 21.8002 42 21.1202Z" fill="#160305"/>
<path d="M36 69.1202C38.97 69.4502 41.94 69.7802 45 70.1202C45 71.7702 45 73.4202 45 75.1202C46.65 75.1202 48.3 75.1202 50 75.1202C50 78.4202 50 81.7202 50 85.1202C49.34 85.1202 48.68 85.1202 48 85.1202C48 85.7802 48 86.4402 48 87.1202C47.34 87.1202 46.68 87.1202 46 87.1202C45.67 88.1102 45.34 89.1002 45 90.1202C45 88.1402 45 86.1602 45 84.1202C43.02 84.1202 41.04 84.1202 39 84.1202C39 83.7902 39 83.4602 39 83.1202C40.65 83.1202 42.3 83.1202 44 83.1202C44 80.8102 44 78.5002 44 76.1202C42.7934 75.9346 42.7934 75.9346 41.5625 75.7452C40.7169 75.539 39.8712 75.3327 39 75.1202C38.67 74.4602 38.34 73.8002 38 73.1202C38.33 72.7902 38.66 72.4602 39 72.1202C37.68 71.7902 36.36 71.4602 35 71.1202C35.33 70.4602 35.66 69.8002 36 69.1202Z" fill="#32232C"/>
<path d="M109 21.1202C109 22.4402 109 23.7602 109 25.1202C108.01 25.1202 107.02 25.1202 106 25.1202C106 33.3702 106 41.6202 106 50.1202C105.01 49.7902 104.02 49.4602 103 49.1202C103.33 48.7902 103.66 48.4602 104 48.1202C103.34 47.7902 102.68 47.4602 102 47.1202C101.67 39.5302 101.34 31.9402 101 24.1202C107 21.1202 107 21.1202 109 21.1202Z" fill="#0D020E"/>
<path d="M82 26.1202C88.6 26.1202 95.2 26.1202 102 26.1202C102 27.1102 102 28.1002 102 29.1202C97.0299 31.1114 92.8767 31.3687 87.625 31.2452C86.5209 31.2317 86.5209 31.2317 85.3945 31.2179C83.5962 31.1945 81.7981 31.1587 80 31.1202C80.66 29.4702 81.32 27.8202 82 26.1202Z" fill="#716480"/>
<path d="M97 130.12C100.663 129.905 103.468 129.928 106.938 131.183C107.618 131.822 108.299 132.461 109 133.12C109 135.43 109 137.74 109 140.12C101.575 139.13 101.575 139.13 94 138.12C94 137.46 94 136.8 94 136.12C95.32 136.12 96.64 136.12 98 136.12C97.67 134.14 97.34 132.16 97 130.12Z" fill="#C35200"/>
<path d="M40 94.1202C40 96.1002 40 98.0802 40 100.12C38.68 100.45 37.36 100.78 36 101.12C36 102.11 36 103.1 36 104.12C34.35 104.12 32.7 104.12 31 104.12C30.67 105.44 30.34 106.76 30 108.12C29.67 107.46 29.34 106.8 29 106.12C26.9754 105.468 26.9754 105.468 25 105.12C26.6234 103.411 28.2932 101.746 30 100.12C30.66 100.12 31.32 100.12 32 100.12C32.1856 98.9137 32.1856 98.9137 32.375 97.6827C32.5812 96.8371 32.7875 95.9915 33 95.1202C35.4628 93.8888 37.2795 94.0487 40 94.1202Z" fill="#DFE1EB"/>
<path d="M46 122.12C56.23 122.12 66.46 122.12 77 122.12C77 123.11 77 124.1 77 125.12C73.0673 125.145 69.1347 125.163 65.2019 125.175C63.2069 125.183 61.2118 125.195 59.2168 125.208C57.9632 125.211 56.7096 125.215 55.418 125.218C54.2606 125.223 53.1033 125.228 51.9109 125.234C49 125.12 49 125.12 46 124.12C46 123.46 46 122.8 46 122.12Z" fill="#E98E0C"/>
<path d="M53 75.1202C54.32 75.4502 55.64 75.7802 57 76.1202C58.2027 78.5257 58.1007 80.0702 58.0625 82.7452C58.0535 83.5625 58.0445 84.3798 58.0352 85.2218C58.0236 85.8483 58.012 86.4748 58 87.1202C57.01 87.4502 56.02 87.7802 55 88.1202C55 89.4402 55 90.7602 55 92.1202C55.66 92.4502 56.32 92.7802 57 93.1202C54.69 93.1202 52.38 93.1202 50 93.1202C50 91.1402 50 89.1602 50 87.1202C50.99 87.1202 51.98 87.1202 53 87.1202C53 83.1602 53 79.2002 53 75.1202Z" fill="#98A4CA"/>
<path d="M34 40.1202C34.33 40.1202 34.66 40.1202 35 40.1202C35.049 40.9633 35.098 41.8063 35.1484 42.6749C35.2232 43.7706 35.298 44.8663 35.375 45.9952C35.4446 47.0858 35.5142 48.1763 35.5859 49.2999C35.7325 52.2507 35.7325 52.2507 38 54.1202C38.7193 56.4379 39.391 58.7712 40 61.1202C40.66 61.1202 41.32 61.1202 42 61.1202C42 62.1102 42 63.1002 42 64.1202C42.66 64.1202 43.32 64.1202 44 64.1202C44 64.7802 44 65.4402 44 66.1202C42.68 66.4502 41.36 66.7802 40 67.1202C40.33 66.1302 40.66 65.1402 41 64.1202C39.68 63.7902 38.36 63.4602 37 63.1202C37 62.4602 37 61.8002 37 61.1202C35.68 60.7902 34.36 60.4602 33 60.1202C33 58.1402 33 56.1602 33 54.1202C32.01 54.1202 31.02 54.1202 30 54.1202C30 52.4702 30 50.8202 30 49.1202C30.33 50.4402 30.66 51.7602 31 53.1202C31.99 53.1202 32.98 53.1202 34 53.1202C34 48.8302 34 44.5402 34 40.1202Z" fill="#98AEE5"/>
<path d="M33.9994 111.12C34.6594 111.12 35.3194 111.12 35.9994 111.12C35.6694 112.77 35.3394 114.42 34.9994 116.12C33.6794 116.12 32.3594 116.12 30.9994 116.12C30.9994 117.77 30.9994 119.42 30.9994 121.12C32.3194 121.45 33.6394 121.78 34.9994 122.12C34.9994 123.11 34.9994 124.1 34.9994 125.12C32.6894 125.12 30.3794 125.12 27.9994 125.12C26.737 122.595 26.9008 120.808 26.9369 117.995C26.9459 117.085 26.9549 116.175 26.9642 115.237C26.9758 114.539 26.9874 113.84 26.9994 113.12C29.3094 113.12 31.6194 113.12 33.9994 113.12C33.9994 112.46 33.9994 111.8 33.9994 111.12Z" fill="#CC7B12"/>
<path d="M80 114.12C81.65 114.12 83.3 114.12 85 114.12C85 115.11 85 116.1 85 117.12C87.64 117.12 90.28 117.12 93 117.12C93 116.46 93 115.8 93 115.12C94.32 115.45 95.64 115.78 97 116.12C97 118.43 97 120.74 97 123.12C96.34 122.13 95.68 121.14 95 120.12C94.67 120.78 94.34 121.44 94 122.12C90.37 122.12 86.74 122.12 83 122.12C83 119.81 83 117.5 83 115.12C82.01 114.79 81.02 114.46 80 114.12Z" fill="#D98722"/>
<path d="M68 106.12C68 106.45 68 106.78 68 107.12C66.35 107.12 64.7 107.12 63 107.12C63 107.78 63 108.44 63 109.12C66.3 109.12 69.6 109.12 73 109.12C73 109.45 73 109.78 73 110.12C63.76 110.12 54.52 110.12 45 110.12C45 109.13 45 108.14 45 107.12C52.6926 106.272 60.2629 105.999 68 106.12Z" fill="#AB6B24"/>
<path d="M45 6.12024C52.92 6.12024 60.84 6.12024 69 6.12024C68.67 7.44024 68.34 8.76024 68 10.1202C56.615 9.62524 56.615 9.62524 45 9.12024C45 8.13024 45 7.14024 45 6.12024Z" fill="#FDEE1C"/>
<path d="M109 127.12C109.33 127.12 109.66 127.12 110 127.12C110 128.77 110 130.42 110 132.12C110.99 132.12 111.98 132.12 113 132.12C113 135.09 113 138.06 113 141.12C103.76 141.12 94.52 141.12 85 141.12C84.67 142.11 84.34 143.1 84 144.12C84 142.8 84 141.48 84 140.12C92.25 140.12 100.5 140.12 109 140.12C109 137.81 109 135.5 109 133.12C108.01 132.79 107.02 132.46 106 132.12C106.99 132.12 107.98 132.12 109 132.12C109 130.47 109 128.82 109 127.12Z" fill="#482115"/>
<path d="M29 93.1202C30.32 93.7802 31.64 94.4402 33 95.1202C32.6593 98.2716 32.4192 99.7281 30.0625 101.933C28 103.12 28 103.12 26 103.12C25.67 103.78 25.34 104.44 25 105.12C24.34 104.79 23.68 104.46 23 104.12C22.34 105.77 21.68 107.42 21 109.12C20.67 109.12 20.34 109.12 20 109.12C20 106.81 20 104.5 20 102.12C21.32 102.12 22.64 102.12 24 102.12C24 100.8 24 99.4802 24 98.1202C24.66 98.1202 25.32 98.1202 26 98.1202C26.3094 97.4809 26.6188 96.8415 26.9375 96.1827C28 94.1202 28 94.1202 29 93.1202Z" fill="#251822"/>
<path d="M50 75.1202C50.99 75.1202 51.98 75.1202 53 75.1202C53 79.0802 53 83.0402 53 87.1202C52.01 87.1202 51.02 87.1202 50 87.1202C50 89.1002 50 91.0802 50 93.1202C48.35 93.4502 46.7 93.7802 45 94.1202C45 93.4602 45 92.8002 45 92.1202C43.68 91.4602 42.36 90.8002 41 90.1202C42.65 90.1202 44.3 90.1202 46 90.1202C46 89.1302 46 88.1402 46 87.1202C46.66 87.1202 47.32 87.1202 48 87.1202C48 86.4602 48 85.8002 48 85.1202C48.66 85.1202 49.32 85.1202 50 85.1202C50 81.8202 50 78.5202 50 75.1202Z" fill="#F5F4F2"/>
<path d="M93 51.1202C93.33 51.1202 93.66 51.1202 94 51.1202C94.66 53.4302 95.32 55.7402 96 58.1202C94.02 59.1102 94.02 59.1102 92 60.1202C92 60.7802 92 61.4402 92 62.1202C91.01 62.6152 91.01 62.6152 90 63.1202C89.67 64.1102 89.34 65.1002 89 66.1202C86.625 66.3077 86.625 66.3077 84 66.1202C83.34 65.1302 82.68 64.1402 82 63.1202C82.99 62.7902 83.98 62.4602 85 62.1202C85 61.1302 85 60.1402 85 59.1202C86.65 59.1202 88.3 59.1202 90 59.1202C90.1238 58.3571 90.2475 57.594 90.375 56.8077C91 54.1202 91 54.1202 93 51.1202Z" fill="#A9B1D3"/>
<path d="M57 74.1202C59.64 74.1202 62.28 74.1202 65 74.1202C64.67 79.0702 64.34 84.0202 64 89.1202C62.68 89.1202 61.36 89.1202 60 89.1202C59.9265 88.1244 59.9265 88.1244 59.8516 87.1085C59.2887 80.409 59.2887 80.409 57 74.1202Z" fill="#6064B8"/>
<path d="M78 43.1202C80.3128 43.2605 82.6253 43.4076 84.9375 43.5577C86.8692 43.6796 86.8692 43.6796 88.8398 43.8038C92 44.1202 92 44.1202 93 45.1202C93.0409 47.4532 93.0424 49.7873 93 52.1202C92.01 52.1202 91.02 52.1202 90 52.1202C89.67 51.1302 89.34 50.1402 89 49.1202C86.0154 47.1648 84.7359 47.1202 81 47.1202C80.34 48.4402 79.68 49.7602 79 51.1202C78.67 48.4802 78.34 45.8402 78 43.1202Z" fill="#4549A1"/>
<path d="M75 76.1202C75.99 76.1202 76.98 76.1202 78 76.1202C78 78.4302 78 80.7402 78 83.1202C79.32 83.1202 80.64 83.1202 82 83.1202C82 84.4402 82 85.7602 82 87.1202C82.66 87.4502 83.32 87.7802 84 88.1202C84.33 88.7802 84.66 89.4402 85 90.1202C83.02 90.1202 81.04 90.1202 79 90.1202C79 89.1302 79 88.1402 79 87.1202C78.01 87.1202 77.02 87.1202 76 87.1202C76 86.1302 76 85.1402 76 84.1202C75.34 84.1202 74.68 84.1202 74 84.1202C73.875 78.3702 73.875 78.3702 75 76.1202Z" fill="#080208"/>
<path d="M23 30.1202C24.65 30.1202 26.3 30.1202 28 30.1202C28 33.4202 28 36.7202 28 40.1202C27.34 40.1202 26.68 40.1202 26 40.1202C25.2268 43.1027 24.588 46.096 24 49.1202C23.67 49.1202 23.34 49.1202 23 49.1202C23 42.8502 23 36.5802 23 30.1202Z" fill="#EDEEEE"/>
<path d="M20 8.12024C26.875 8.99524 26.875 8.99524 28 10.1202C28.4546 12.7749 28.7024 15.4421 29 18.1202C26.36 18.1202 23.72 18.1202 21 18.1202C20.67 14.8202 20.34 11.5202 20 8.12024Z" fill="#FCC80F"/>
<path d="M93 104.12C95 107.87 95 107.87 95 110.12C95.66 110.45 96.32 110.78 97 111.12C97 112.77 97 114.42 97 116.12C95.68 115.79 94.36 115.46 93 115.12C93 114.46 93 113.8 93 113.12C92.34 112.996 91.68 112.873 91 112.745C87.303 111.975 83.6599 111.051 80 110.12C80.33 109.13 80.66 108.14 81 107.12C81 107.78 81 108.44 81 109.12C82.6275 108.865 84.252 108.59 85.875 108.308C87.2324 108.082 87.2324 108.082 88.6172 107.851C91.3441 107.29 91.3441 107.29 93 104.12Z" fill="#AAA7C3"/>
<path d="M28.0005 40.1202C29.9805 40.1202 31.9605 40.1202 34.0005 40.1202C34.0005 44.4102 34.0005 48.7002 34.0005 53.1202C33.0105 53.1202 32.0205 53.1202 31.0005 53.1202C31.0005 51.8002 31.0005 50.4802 31.0005 49.1202C30.3405 49.1202 29.6805 49.1202 29.0005 49.1202C27.5222 46.1636 27.9402 43.3779 28.0005 40.1202Z" fill="#3E52B7"/>
<path d="M55 87.1202C55.99 87.1202 56.98 87.1202 58 87.1202C58 88.4402 58 89.7602 58 91.1202C58.99 91.1202 59.98 91.1202 61 91.1202C61 93.7602 61 96.4002 61 99.1202C61.5981 99.1615 62.1963 99.2027 62.8125 99.2452C65 100.12 65 100.12 66.75 103.183C67.1625 104.152 67.575 105.121 68 106.12C65.69 106.12 63.38 106.12 61 106.12C60.0474 101.357 59.9167 96.9536 60 92.1202C58.35 92.1202 56.7 92.1202 55 92.1202C54.4375 90.1827 54.4375 90.1827 54 88.1202C54.33 87.7902 54.66 87.4602 55 87.1202Z" fill="#4467B1"/>
<path d="M29 133.12C29.33 133.12 29.66 133.12 30 133.12C30 135.1 30 137.08 30 139.12C35.28 139.45 40.56 139.78 46 140.12C46 141.11 46 142.1 46 143.12C41.71 143.12 37.42 143.12 33 143.12C32.67 142.46 32.34 141.8 32 141.12C29.4139 140.652 29.4139 140.652 26.4375 140.495C25.4256 140.42 24.4137 140.346 23.3711 140.269C22.1974 140.195 22.1974 140.195 21 140.12C21 139.79 21 139.46 21 139.12C23.64 139.12 26.28 139.12 29 139.12C29 137.14 29 135.16 29 133.12Z" fill="#FDF7BE"/>
<path d="M21 133.12C21 135.43 21 137.74 21 140.12C24.63 140.12 28.26 140.12 32 140.12C32 140.45 32 140.78 32 141.12C26.39 141.12 20.78 141.12 15 141.12C15 138.48 15 135.84 15 133.12C18.75 131.995 18.75 131.995 21 133.12Z" fill="#C56C13"/>
<path d="M28 123.12C28 123.78 28 124.44 28 125.12C30.31 125.12 32.62 125.12 35 125.12C35 125.45 35 125.78 35 126.12C32.36 126.12 29.72 126.12 27 126.12C27 126.78 27 127.44 27 128.12C24.2912 129.475 21.9907 129.185 19 129.12C19 130.44 19 131.76 19 133.12C17.68 132.79 16.36 132.46 15 132.12C15.99 132.12 16.98 132.12 18 132.12C18 129.81 18 127.5 18 125.12C21.5078 123.517 24.1435 122.9 28 123.12Z" fill="#501D0E"/>
<path d="M77 110.12C77.33 111.44 77.66 112.76 78 114.12C79.65 114.45 81.3 114.78 83 115.12C83.3813 117.112 83.7132 119.113 84 121.12C83 122.12 83 122.12 79.9375 122.183C78.9681 122.162 77.9987 122.141 77 122.12C75.505 119.13 75.8842 116.42 76 113.12C76.33 112.13 76.66 111.14 77 110.12Z" fill="#F9B213"/>
<path d="M77 66.1202C77 67.1102 77 68.1002 77 69.1202C79.31 69.1202 81.62 69.1202 84 69.1202C84 69.4502 84 69.7802 84 70.1202C82.02 70.1202 80.04 70.1202 78 70.1202C77.67 71.7702 77.34 73.4202 77 75.1202C74.36 75.1202 71.72 75.1202 69 75.1202C69.99 74.7902 70.98 74.4602 72 74.1202C72 73.1302 72 72.1402 72 71.1202C71.34 70.7902 70.68 70.4602 70 70.1202C73.625 66.1202 73.625 66.1202 77 66.1202Z" fill="#9FA3BF"/>
<path d="M28 30.1202C29.98 30.1202 31.96 30.1202 34 30.1202C34 33.4202 34 36.7202 34 40.1202C32.02 40.1202 30.04 40.1202 28 40.1202C28 36.8202 28 33.5202 28 30.1202Z" fill="#D1B8A8"/>
<path d="M40 59.1202C41.65 59.1202 43.3 59.1202 45 59.1202C46.1578 62.5935 46.0687 65.4809 46 69.1202C46.66 69.4502 47.32 69.7802 48 70.1202C47.34 70.1202 46.68 70.1202 46 70.1202C46 71.7702 46 73.4202 46 75.1202C45.67 75.1202 45.34 75.1202 45 75.1202C45 73.4702 45 71.8202 45 70.1202C42.03 69.7902 39.06 69.4602 36 69.1202C38.9176 67.1751 40.6254 66.6675 44 66.1202C44 65.4602 44 64.8002 44 64.1202C43.34 64.1202 42.68 64.1202 42 64.1202C42 63.1302 42 62.1402 42 61.1202C41.34 61.1202 40.68 61.1202 40 61.1202C40 60.4602 40 59.8002 40 59.1202Z" fill="#B2D0ED"/>
<path d="M52 70.1202C54.9584 70.0933 57.9165 70.0735 60.875 70.0577C61.7168 70.0494 62.5585 70.041 63.4258 70.0323C64.2314 70.0291 65.0371 70.0259 65.8672 70.0226C66.9826 70.0147 66.9826 70.0147 68.1206 70.0067C70 70.1202 70 70.1202 72 71.1202C72 72.1102 72 73.1002 72 74.1202C69.6671 74.1627 67.333 74.1612 65 74.1202C64.67 73.7902 64.34 73.4602 64 73.1202C57.9153 72.8865 57.9153 72.8865 52 74.1202C52 72.8002 52 71.4802 52 70.1202Z" fill="#2E468E"/>
<path d="M87.5625 87.0577C88.6969 87.0784 89.8312 87.099 91 87.1202C91.3813 89.1116 91.7133 91.113 92 93.1202C91 94.1202 91 94.1202 87.9375 94.1827C86.9681 94.1621 85.9987 94.1415 85 94.1202C85 93.1302 85 92.1402 85 91.1202C82.69 91.1202 80.38 91.1202 78 91.1202C78.33 90.4602 78.66 89.8002 79 89.1202C80.323 88.7481 81.6574 88.4139 83 88.1202C84 87.1202 84 87.1202 87.5625 87.0577Z" fill="#160A13"/>
<path d="M22 30.1202C22.33 30.1202 22.66 30.1202 23 30.1202C23.33 34.4102 23.66 38.7002 24 43.1202C24.66 42.1302 25.32 41.1402 26 40.1202C26.66 40.1202 27.32 40.1202 28 40.1202C27.3333 46.1202 26.6667 52.1202 26 58.1202C25.67 58.1202 25.34 58.1202 25 58.1202C25 55.4802 25 52.8402 25 50.1202C24.01 50.1202 23.02 50.1202 22 50.1202C22 43.5202 22 36.9202 22 30.1202Z" fill="#AAA9BB"/>
<path d="M15 18.1202C20.61 18.1202 26.22 18.1202 32 18.1202C32 19.4402 32 20.7602 32 22.1202C27.71 22.1202 23.42 22.1202 19 22.1202C19 21.1302 19 20.1402 19 19.1202C17.68 18.7902 16.36 18.4602 15 18.1202Z" fill="#E4950C"/>
<path d="M35 113.12C35.33 113.12 35.66 113.12 36 113.12C36 115.43 36 117.74 36 120.12C39.0439 120.203 41.0718 120.096 44 119.12C44 117.14 44 115.16 44 113.12C44.33 113.12 44.66 113.12 45 113.12C45 116.09 45 119.06 45 122.12C43.2293 122.147 41.4584 122.167 39.6875 122.183C38.7014 122.194 37.7152 122.206 36.6992 122.218C34 122.12 34 122.12 31 121.12C31 119.47 31 117.82 31 116.12C32.32 116.12 33.64 116.12 35 116.12C35 115.13 35 114.14 35 113.12Z" fill="#F9F3B4"/>
<path d="M101 29.1202C101 35.3902 101 41.6602 101 48.1202C100.01 48.1202 99.02 48.1202 98 48.1202C98 42.1802 98 36.2402 98 30.1202C100 29.1202 100 29.1202 101 29.1202Z" fill="#E1E6F4"/>
<path d="M76 2.12024C76 2.78024 76 3.44024 76 4.12024C76.66 4.45024 77.32 4.78024 78 5.12024C56.22 4.62524 56.22 4.62524 34 4.12024C34 3.79024 34 3.46024 34 3.12024C39.3385 2.97715 44.6771 2.83475 50.0156 2.69299C51.8314 2.64468 53.6471 2.59618 55.4629 2.54749C58.0742 2.47749 60.6855 2.40817 63.2969 2.33899C64.1074 2.31712 64.918 2.29524 65.7531 2.27271C69.1706 2.18274 72.5811 2.12024 76 2.12024Z" fill="#4E2919"/>
<path d="M29 62.1202C30.32 62.1202 31.64 62.1202 33 62.1202C33 63.1102 33 64.1002 33 65.1202C33.99 65.1202 34.98 65.1202 36 65.1202C36.33 67.1002 36.66 69.0802 37 71.1202C39.31 71.1202 41.62 71.1202 44 71.1202C40.3558 73.5497 38.2876 73.282 34 73.1202C34 72.1302 34 71.1402 34 70.1202C33.01 70.1202 32.02 70.1202 31 70.1202C29.7434 67.2142 29 65.3242 29 62.1202Z" fill="#180C16"/>
<path d="M15 3.12024C18.96 3.12024 22.92 3.12024 27 3.12024C27 3.45024 27 3.78024 27 4.12024C28.98 4.12024 30.96 4.12024 33 4.12024C33 4.78024 33 5.44024 33 6.12024C28.38 6.12024 23.76 6.12024 19 6.12024C19 6.78024 19 7.44024 19 8.12024C16.36 8.12024 13.72 8.12024 11 8.12024C11 11.7502 11 15.3802 11 19.1202C10.67 19.1202 10.34 19.1202 10 19.1202C10 15.1602 10 11.2002 10 7.12024C12.31 6.46024 14.62 5.80024 17 5.12024C16.34 4.46024 15.68 3.80024 15 3.12024Z" fill="#120303"/>
<path d="M68.9998 75.1202C70.3198 75.1202 71.6398 75.1202 72.9998 75.1202C72.9998 78.0902 72.9998 81.0602 72.9998 84.1202C73.6598 84.1202 74.3198 84.1202 74.9998 84.1202C74.6698 85.4402 74.3398 86.7602 73.9998 88.1202C70.1248 86.2452 70.1248 86.2452 68.9998 85.1202C68.9277 83.4341 68.9159 81.7452 68.9373 80.0577C68.9463 79.1386 68.9553 78.2195 68.9646 77.2726C68.9762 76.5623 68.9878 75.852 68.9998 75.1202Z" fill="#D4DDF1"/>
<path d="M99 103.12C100.32 103.12 101.64 103.12 103 103.12C103 105.1 103 107.08 103 109.12C103.99 109.12 104.98 109.12 106 109.12C106 113.41 106 117.7 106 122.12C105.67 122.12 105.34 122.12 105 122.12C105 118.16 105 114.2 105 110.12C104.34 110.12 103.68 110.12 103 110.12C103 114.74 103 119.36 103 124.12C102.67 124.12 102.34 124.12 102 124.12C102 118.84 102 113.56 102 108.12C100.68 107.79 99.36 107.46 98 107.12C98.33 105.8 98.66 104.48 99 103.12Z" fill="#09020C"/>
<path d="M46 75.1202C47.32 75.1202 48.64 75.1202 50 75.1202C50 78.4202 50 81.7202 50 85.1202C49.34 85.1202 48.68 85.1202 48 85.1202C48 85.7802 48 86.4402 48 87.1202C47.34 87.1202 46.68 87.1202 46 87.1202C45.67 88.1102 45.34 89.1002 45 90.1202C45.33 85.1702 45.66 80.2202 46 75.1202Z" fill="#12070D"/>
<path d="M46 63.1202C47.32 63.4502 48.64 63.7802 50 64.1202C50.33 64.7802 50.66 65.4402 51 66.1202C51.99 66.7802 52.98 67.4402 54 68.1202C52.35 68.4502 50.7 68.7802 49 69.1202C49.33 71.1002 49.66 73.0802 50 75.1202C48.68 75.1202 47.36 75.1202 46 75.1202C46 71.1602 46 67.2002 46 63.1202Z" fill="#A3D4F9"/>
<path d="M18 110.12C18.99 110.12 19.98 110.12 21 110.12C21 114.41 21 118.7 21 123.12C21.66 123.45 22.32 123.78 23 124.12C21.02 125.11 21.02 125.11 19 126.12C18 125.12 18 125.12 17.9023 121.741C17.909 120.347 17.921 118.952 17.9375 117.558C17.942 116.847 17.9465 116.136 17.9512 115.403C17.963 113.642 17.9809 111.881 18 110.12Z" fill="#1F0A14"/>
<path d="M23 26.1202C26.96 26.1202 30.92 26.1202 35 26.1202C35 27.4402 35 28.7602 35 30.1202C31.04 30.1202 27.08 30.1202 23 30.1202C23 28.8002 23 27.4802 23 26.1202Z" fill="#7D7486"/>
<path d="M10 19.1202C12.375 19.4327 12.375 19.4327 15 20.1202C15.66 21.1102 16.32 22.1002 17 23.1202C17.99 23.7802 18.98 24.4402 20 25.1202C19.01 25.6152 19.01 25.6152 18 26.1202C17.67 33.3802 17.34 40.6402 17 48.1202C16.67 48.1202 16.34 48.1202 16 48.1202C16 40.5302 16 32.9402 16 25.1202C15.01 25.1202 14.02 25.1202 13 25.1202C13 23.4702 13 21.8202 13 20.1202C12.01 19.7902 11.02 19.4602 10 19.1202Z" fill="#443339"/>
<path d="M34 4.12024C37.63 4.12024 41.26 4.12024 45 4.12024C45 5.77024 45 7.42024 45 9.12024C40.7812 9.31646 37.8299 8.92254 34 7.12024C34 6.13024 34 5.14024 34 4.12024Z" fill="#FDFCD6"/>
<path d="M63 107.12C68.61 107.12 74.22 107.12 80 107.12C79.67 109.1 79.34 111.08 79 113.12C79.99 113.45 80.98 113.78 82 114.12C80.68 114.12 79.36 114.12 78 114.12C78 112.8 78 111.48 78 110.12C73.05 109.79 68.1 109.46 63 109.12C63 108.46 63 107.8 63 107.12Z" fill="#9E5C19"/>
<path d="M15 141.12C20.94 141.12 26.88 141.12 33 141.12C32.67 142.11 32.34 143.1 32 144.12C26.2224 144.241 20.7204 143.952 15 143.12C15 142.46 15 141.8 15 141.12Z" fill="#180706"/>
<path d="M22 109.12C22.99 109.615 22.99 109.615 24 110.12C24 113.09 24 116.06 24 119.12C24.66 119.12 25.32 119.12 26 119.12C26 116.81 26 114.5 26 112.12C28.64 112.12 31.28 112.12 34 112.12C34 112.45 34 112.78 34 113.12C31.69 113.12 29.38 113.12 27 113.12C27 116.42 27 119.72 27 123.12C25.35 123.12 23.7 123.12 22 123.12C22 118.5 22 113.88 22 109.12Z" fill="#AC9FA8"/>
<path d="M75 84.1202C75.33 85.1102 75.66 86.1002 76 87.1202C76.99 87.1202 77.98 87.1202 79 87.1202C79 89.7602 79 92.4002 79 95.1202C77.68 95.1202 76.36 95.1202 75 95.1202C75 94.4602 75 93.8002 75 93.1202C72.36 93.1202 69.72 93.1202 67 93.1202C67 92.7902 67 92.4602 67 92.1202C69.31 92.1202 71.62 92.1202 74 92.1202C73.7938 91.5427 73.5875 90.9652 73.375 90.3702C72.9134 87.6006 73.5706 86.4746 75 84.1202Z" fill="#BFC1D4"/>
<path d="M45 76.1202C45.33 76.1202 45.66 76.1202 46 76.1202C46.1845 85.5303 46.1845 85.5303 45 90.1202C42.03 89.6252 42.03 89.6252 39 89.1202C39 87.4702 39 85.8202 39 84.1202C40.98 84.1202 42.96 84.1202 45 84.1202C45 81.4802 45 78.8402 45 76.1202Z" fill="#0E0208"/>
<path d="M30 58.1202C30.33 58.7802 30.66 59.4402 31 60.1202C34.0293 60.778 34.0293 60.778 37 61.1202C37 61.7802 37 62.4402 37 63.1202C38.32 63.4502 39.64 63.7802 41 64.1202C40.34 65.4402 39.68 66.7602 39 68.1202C38.01 68.1202 37.02 68.1202 36 68.1202C36 67.1302 36 66.1402 36 65.1202C35.01 65.1202 34.02 65.1202 33 65.1202C32.67 64.1302 32.34 63.1402 32 62.1202C31.34 61.7902 30.68 61.4602 30 61.1202C30 60.1302 30 59.1402 30 58.1202Z" fill="#D2D9E9"/>
<path d="M101 109.12C101 113.74 101 118.36 101 123.12C99.68 122.79 98.36 122.46 97 122.12C97.1135 120.14 97.2411 118.161 97.375 116.183C97.4446 115.081 97.5142 113.978 97.5859 112.843C97.7226 111.944 97.8592 111.046 98 110.12C100 109.12 100 109.12 101 109.12Z" fill="#CED4EC"/>
<path d="M78 91.1202C80.31 91.1202 82.62 91.1202 85 91.1202C85.33 92.1102 85.66 93.1002 86 94.1202C86.99 94.4502 87.98 94.7802 89 95.1202C89 96.7702 89 98.4202 89 100.12C86.525 99.1302 86.525 99.1302 84 98.1202C84 97.1302 84 96.1402 84 95.1202C82.02 94.4602 80.04 93.8002 78 93.1202C78 92.4602 78 91.8002 78 91.1202Z" fill="#E8E8F2"/>
<path d="M91.3125 51.9952C92.1478 52.5521 92.1478 52.5521 93 53.1202C92.34 53.7802 91.68 54.4402 91 55.1202C90.3575 57.1889 90.3575 57.1889 90 59.1202C88.68 59.1202 87.36 59.1202 86 59.1202C86 58.1302 86 57.1402 86 56.1202C84.35 56.1202 82.7 56.1202 81 56.1202C83.8217 52.8529 86.9725 50.3531 91.3125 51.9952Z" fill="#5675BB"/>
<path d="M74 40.1202C76.3329 40.0778 78.667 40.0793 81 40.1202C81.33 40.4502 81.66 40.7802 82 41.1202C84.0588 41.3998 86.1173 41.5676 88.1875 41.7413C89.0847 41.9289 89.0847 41.9289 90 42.1202C90.33 42.7802 90.66 43.4402 91 44.1202C85.2224 44.2406 79.7204 43.9523 74 43.1202C74 42.1302 74 41.1402 74 40.1202Z" fill="#726288"/>
<path d="M35 26.1202C38.3 26.1202 41.6 26.1202 45 26.1202C45 27.4402 45 28.7602 45 30.1202C41.7 30.1202 38.4 30.1202 35 30.1202C35 28.8002 35 27.4802 35 26.1202Z" fill="#99A1CF"/>
<path d="M37 115.12C39.31 115.12 41.62 115.12 44 115.12C44 116.44 44 117.76 44 119.12C39.375 121.245 39.375 121.245 36 120.12C36.33 118.47 36.66 116.82 37 115.12Z" fill="#FDFDCF"/>
<path d="M86 142.12C90.29 142.12 94.58 142.12 99 142.12C99 142.45 99 142.78 99 143.12C101.64 143.45 104.28 143.78 107 144.12C107 144.45 107 144.78 107 145.12C100.4 145.45 93.8 145.78 87 146.12C86.67 144.8 86.34 143.48 86 142.12Z" fill="#28212A"/>
<path d="M83 59.1202C83.99 59.4502 84.98 59.7802 86 60.1202C85 63.1202 85 63.1202 83 64.1202C85.475 65.1102 85.475 65.1102 88 66.1202C88 66.4502 88 66.7802 88 67.1202C83.4287 66.5717 79.3256 65.7028 75 64.1202C75.33 63.4602 75.66 62.8002 76 62.1202C77.98 62.1202 79.96 62.1202 82 62.1202C82.33 61.1302 82.66 60.1402 83 59.1202Z" fill="#7D89BB"/>
<path d="M89 137.12C91.0419 137.263 93.0835 137.409 95.125 137.558C96.8304 137.68 96.8304 137.68 98.5703 137.804C101.754 138.098 104.855 138.551 108 139.12C108 139.45 108 139.78 108 140.12C101.73 140.12 95.46 140.12 89 140.12C89 139.13 89 138.14 89 137.12Z" fill="#ED980B"/>
<path d="M15 143.12C17.8961 143.066 20.7912 143.027 23.6875 142.995C24.9124 142.97 24.9124 142.97 26.1621 142.944C30.5709 142.909 33.9873 143.044 38 145.12C38 145.45 38 145.78 38 146.12C30.0002 146.325 22.7387 146.255 15 144.12C15 143.79 15 143.46 15 143.12Z" fill="#261D26"/>
<path d="M22 130.12C25.63 130.12 29.26 130.12 33 130.12C33.33 130.78 33.66 131.44 34 132.12C32.35 132.12 30.7 132.12 29 132.12C29 134.43 29 136.74 29 139.12C28.67 139.12 28.34 139.12 28 139.12C28 137.14 28 135.16 28 133.12C26.02 133.45 24.04 133.78 22 134.12C22 132.8 22 131.48 22 130.12Z" fill="#F9C420"/>
<path d="M35 122.12C38.63 122.12 42.26 122.12 46 122.12C46 122.78 46 123.44 46 124.12C46.99 124.45 47.98 124.78 49 125.12C44.38 125.12 39.76 125.12 35 125.12C35 124.13 35 123.14 35 122.12Z" fill="#F1B125"/>
<path d="M59 92.1202C59.33 92.1202 59.66 92.1202 60 92.1202C60.33 96.7402 60.66 101.36 61 106.12C59.35 106.12 57.7 106.12 56 106.12C56.9072 101.433 57.9547 96.7783 59 92.1202Z" fill="#98B3DD"/>
<path d="M48 85.1202C48.99 85.7802 49.98 86.4402 51 87.1202C50.67 89.1002 50.34 91.0802 50 93.1202C48.35 93.4502 46.7 93.7802 45 94.1202C45 93.4602 45 92.8002 45 92.1202C43.68 91.4602 42.36 90.8002 41 90.1202C42.65 90.1202 44.3 90.1202 46 90.1202C46 89.1302 46 88.1402 46 87.1202C46.66 87.1202 47.32 87.1202 48 87.1202C48 86.4602 48 85.8002 48 85.1202Z" fill="#E5E6ED"/>
<path d="M93 130.12C94.65 130.45 96.3 130.78 98 131.12C98 132.77 98 134.42 98 136.12C93.545 136.615 93.545 136.615 89 137.12C90.32 136.79 91.64 136.46 93 136.12C93 134.14 93 132.16 93 130.12Z" fill="#E68201"/>
<path d="M105 133.12C106.32 133.12 107.64 133.12 109 133.12C109 135.43 109 137.74 109 140.12C101.575 139.13 101.575 139.13 94 138.12C94 137.79 94 137.46 94 137.12C98.29 137.12 102.58 137.12 107 137.12C107 136.13 107 135.14 107 134.12C106.34 133.79 105.68 133.46 105 133.12Z" fill="#CF6709"/>
<path d="M27 126.12C29.64 126.12 32.28 126.12 35 126.12C35 126.78 35 127.44 35 128.12C37.31 128.12 39.62 128.12 42 128.12C42 128.45 42 128.78 42 129.12C36.39 129.12 30.78 129.12 25 129.12C25.66 128.79 26.32 128.46 27 128.12C27 127.46 27 126.8 27 126.12Z" fill="#2D0602"/>
<path d="M53 75.1202C54.9375 75.4952 54.9375 75.4952 57 76.1202C58.6073 79.3348 58.0575 82.5564 58 86.1202C57.01 86.1202 56.02 86.1202 55 86.1202C55.0413 85.2334 55.0825 84.3465 55.125 83.4327C55.001 80.1475 54.3861 78.0657 53 75.1202Z" fill="#8C8EB0"/>
<path d="M71 70.1202C64.73 70.1202 58.46 70.1202 52 70.1202C51.67 71.7702 51.34 73.4202 51 75.1202C49 72.1202 49 72.1202 49 69.1202C52.2907 68.8949 55.5825 68.6929 58.875 68.4952C60.2807 68.3986 60.2807 68.3986 61.7148 68.2999C62.6107 68.2484 63.5066 68.1968 64.4297 68.1437C65.2571 68.0913 66.0845 68.0389 66.937 67.985C69 68.1202 69 68.1202 71 70.1202Z" fill="#8BB7E6"/>
<path d="M69 85.1202C70.7088 86.7436 72.3745 88.4134 74 90.1202C74 90.7802 74 91.4402 74 92.1202C67.375 92.3702 67.375 92.3702 64 90.1202C65.32 89.7902 66.64 89.4602 68 89.1202C68.33 87.8002 68.66 86.4802 69 85.1202Z" fill="#73769E"/>
<path d="M21 23.1202C23.0024 23.1581 25.0035 23.275 27 23.4327C28.6397 23.5507 28.6397 23.5507 30.3125 23.671C31.6428 23.8934 31.6428 23.8934 33 24.1202C33.33 24.7802 33.66 25.4402 34 26.1202C30.37 26.1202 26.74 26.1202 23 26.1202C22.67 27.4402 22.34 28.7602 22 30.1202C22 28.4702 22 26.8202 22 25.1202C21.34 24.7902 20.68 24.4602 20 24.1202C20.33 23.7902 20.66 23.4602 21 23.1202Z" fill="#2C151A"/>
<path d="M102 125.12C102 125.78 102 126.44 102 127.12C102.99 127.12 103.98 127.12 105 127.12C104.67 128.44 104.34 129.76 104 131.12C104 130.46 104 129.8 104 129.12C103.072 128.976 102.144 128.832 101.188 128.683C98 128.12 98 128.12 95 127.12C95 126.46 95 125.8 95 125.12C97.6666 123.787 99.1668 124.449 102 125.12Z" fill="#56150C"/>
<path d="M20 7.12024C23.63 7.12024 27.26 7.12024 31 7.12024C30.34 10.4202 29.68 13.7202 29 17.1202C28.67 17.1202 28.34 17.1202 28 17.1202C27.67 14.8102 27.34 12.5002 27 10.1202C24.69 9.46024 22.38 8.80024 20 8.12024C20 7.79024 20 7.46024 20 7.12024Z" fill="#FDF363"/>
<path d="M104 6.12024C103.67 7.11024 103.34 8.10024 103 9.12024C99.04 9.12024 95.08 9.12024 91 9.12024C94.7429 5.37735 98.9023 6.0222 104 6.12024Z" fill="#F4AD08"/>
<path d="M45 67.1202C46.875 68.6202 46.875 68.6202 48 70.1202C47.34 70.1202 46.68 70.1202 46 70.1202C46 71.7702 46 73.4202 46 75.1202C45.67 75.1202 45.34 75.1202 45 75.1202C45 73.4702 45 71.8202 45 70.1202C42.03 69.7902 39.06 69.4602 36 69.1202C39.4692 66.8074 40.9221 66.6954 45 67.1202Z" fill="#C6C3D4"/>
<path d="M37 58.1202C37.99 58.4502 38.98 58.7802 40 59.1202C40 59.7802 40 60.4402 40 61.1202C40.66 61.1202 41.32 61.1202 42 61.1202C42 62.1102 42 63.1002 42 64.1202C42.66 64.1202 43.32 64.1202 44 64.1202C44 64.7802 44 65.4402 44 66.1202C42.68 66.4502 41.36 66.7802 40 67.1202C40.33 66.1302 40.66 65.1402 41 64.1202C39.68 63.7902 38.36 63.4602 37 63.1202C37 61.4702 37 59.8202 37 58.1202Z" fill="#9FC0E9"/>
<path d="M27 1.12024C27.33 1.78024 27.66 2.44024 28 3.12024C26.952 3.17631 26.952 3.17631 25.8828 3.23352C24.5177 3.33213 24.5177 3.33213 23.125 3.43274C21.7676 3.51975 21.7676 3.51975 20.3828 3.60852C17.6378 3.90844 17.6378 3.90844 16 7.12024C12.875 7.30774 12.875 7.30774 10 7.12024C11.32 6.79024 12.64 6.46024 14 6.12024C14 4.80024 14 3.48024 14 2.12024C20.435 1.62524 20.435 1.62524 27 1.12024Z" fill="#3B2D30"/>
<path d="M24 109.12C26 111.12 26 111.12 26.1953 113.066C26.1302 115.084 26.0651 117.102 26 119.12C25.01 119.45 24.02 119.78 23 120.12C22.9731 118.474 22.9537 116.829 22.9375 115.183C22.9259 114.266 22.9143 113.35 22.9023 112.405C23 110.12 23 110.12 24 109.12Z" fill="#DAD9E9"/>
<path d="M55 87.1202C55.99 87.1202 56.98 87.1202 58 87.1202C58 88.4402 58 89.7602 58 91.1202C58.99 91.1202 59.98 91.1202 61 91.1202C61 94.0902 61 97.0602 61 100.12C60.67 100.12 60.34 100.12 60 100.12C60 97.4802 60 94.8402 60 92.1202C58.35 92.1202 56.7 92.1202 55 92.1202C54.4375 90.1827 54.4375 90.1827 54 88.1202C54.33 87.7902 54.66 87.4602 55 87.1202Z" fill="#6E7FBF"/>
<path d="M77 66.1202C77 66.7802 77 67.4402 77 68.1202C76.01 68.1202 75.02 68.1202 74 68.1202C73.67 70.1002 73.34 72.0802 73 74.1202C74.32 74.4502 75.64 74.7802 77 75.1202C74.36 75.1202 71.72 75.1202 69 75.1202C69.99 74.7902 70.98 74.4602 72 74.1202C72 73.1302 72 72.1402 72 71.1202C71.34 70.7902 70.68 70.4602 70 70.1202C73.625 66.1202 73.625 66.1202 77 66.1202Z" fill="#6D7CAD"/>
<path d="M97 98.1202C97.66 98.1202 98.32 98.1202 99 98.1202C99 99.1102 99 100.1 99 101.12C100.32 101.12 101.64 101.12 103 101.12C103 101.78 103 102.44 103 103.12C101.68 103.12 100.36 103.12 99 103.12C98.67 104.44 98.34 105.76 98 107.12C98 105.47 98 103.82 98 102.12C96.35 102.12 94.7 102.12 93 102.12C93 101.46 93 100.8 93 100.12C94.32 100.45 95.64 100.78 97 101.12C97 100.13 97 99.1402 97 98.1202Z" fill="#150F17"/>
<path d="M64 72.1203C64.33 72.7803 64.66 73.4403 65 74.1203C60.38 74.4503 55.76 74.7803 51 75.1203C52 73.1203 52 73.1203 53.5625 72.4953C57.064 71.9566 60.4581 72.0613 64 72.1203Z" fill="#4354A2"/>
<path d="M57 56.1202C62.61 56.1202 68.22 56.1202 74 56.1202C74 56.4502 74 56.7802 74 57.1202C73.0848 57.253 72.1695 57.3858 71.2266 57.5226C70.038 57.6992 68.8495 57.8758 67.625 58.0577C66.4416 58.2318 65.2583 58.4058 64.0391 58.5851C61.093 58.9549 61.093 58.9549 59 60.1202C59 59.1302 59 58.1402 59 57.1202C58.34 56.7902 57.68 56.4602 57 56.1202Z" fill="#BDDFF3"/>
<path d="M93 51.1202C93.33 51.1202 93.66 51.1202 94 51.1202C94.66 53.4302 95.32 55.7402 96 58.1202C94.35 58.4502 92.7 58.7802 91 59.1202C90.3125 57.3702 90.3125 57.3702 90 55.1202C91.375 52.8702 91.375 52.8702 93 51.1202Z" fill="#ACBDDA"/>
<path d="M10 133.12C11.32 133.12 12.64 133.12 14 133.12C14 135.76 14 138.4 14 141.12C13.01 141.12 12.02 141.12 11 141.12C10.67 138.48 10.34 135.84 10 133.12Z" fill="#1A0607"/>
<path d="M34 111.12C34.66 111.12 35.32 111.12 36 111.12C35.67 112.77 35.34 114.42 35 116.12C32.36 115.79 29.72 115.46 27 115.12C27 114.46 27 113.8 27 113.12C29.31 113.12 31.62 113.12 34 113.12C34 112.46 34 111.8 34 111.12Z" fill="#9C5E3D"/>
<path d="M87.5625 87.0577C88.6969 87.0784 89.8312 87.099 91 87.1202C90.3606 87.3471 89.7212 87.574 89.0625 87.8077C86.7281 88.9727 86.7281 88.9727 86.25 91.7452C86.1675 92.529 86.085 93.3127 86 94.1202C85.67 93.1302 85.34 92.1402 85 91.1202C82.69 91.1202 80.38 91.1202 78 91.1202C78.33 90.4602 78.66 89.8002 79 89.1202C80.323 88.7481 81.6574 88.4139 83 88.1202C84 87.1202 84 87.1202 87.5625 87.0577Z" fill="#433641"/>
<path d="M92 60.1202C93.4606 62.7676 94 64.0147 94 67.1202C92.02 67.1202 90.04 67.1202 88 67.1202C88.66 65.4702 89.32 63.8202 90 62.1202C90.66 62.1202 91.32 62.1202 92 62.1202C92 61.4602 92 60.8002 92 60.1202Z" fill="#251B26"/>
<path d="M31.0625 2.05774C32.5166 2.08868 32.5166 2.08868 34 2.12024C34 2.78024 34 3.44024 34 4.12024C31.2355 5.5025 28.9539 5.21549 25.875 5.18274C24.7793 5.17372 23.6836 5.16469 22.5547 5.1554C21.2901 5.13799 21.2901 5.13799 20 5.12024C20 4.79024 20 4.46024 20 4.12024C21.1344 3.97586 22.2687 3.83149 23.4375 3.68274C27.09 3.10603 27.5157 2.13012 31.0625 2.05774Z" fill="#220C14"/>
<path d="M92 13.1202C93.98 13.1202 95.96 13.1202 98 13.1202C98 14.4402 98 15.7602 98 17.1202C96.02 17.1202 94.04 17.1202 92 17.1202C92 15.8002 92 14.4802 92 13.1202Z" fill="#F59C00"/>
<path d="M28 115.12C28.99 115.45 29.98 115.78 31 116.12C31 117.77 31 119.42 31 121.12C31.99 121.45 32.98 121.78 34 122.12C32.02 122.12 30.04 122.12 28 122.12C28 119.81 28 117.5 28 115.12Z" fill="#E1920B"/>
<path d="M86 114.12C87.98 114.12 89.96 114.12 92 114.12C92.33 115.11 92.66 116.1 93 117.12C90.36 117.12 87.72 117.12 85 117.12C85.33 116.13 85.66 115.14 86 114.12Z" fill="#A04B13"/>
<path d="M49 75.1202C49.33 75.1202 49.66 75.1202 50 75.1202C50 78.4202 50 81.7202 50 85.1202C49.34 85.1202 48.68 85.1202 48 85.1202C48 85.7802 48 86.4402 48 87.1202C47.34 87.1202 46.68 87.1202 46 87.1202C45.67 88.1102 45.34 89.1002 45 90.1202C45 88.4702 45 86.8202 45 85.1202C46.32 84.7902 47.64 84.4602 49 84.1202C49 81.1502 49 78.1802 49 75.1202Z" fill="#675862"/>
<path d="M75 76.1202C75.66 76.1202 76.32 76.1202 77 76.1202C77 78.7602 77 81.4002 77 84.1202C76.01 84.1202 75.02 84.1202 74 84.1202C73.875 78.3702 73.875 78.3702 75 76.1202Z" fill="#13090E"/>
<path d="M31 116.12C32.32 116.12 33.64 116.12 35 116.12C35 118.1 35 120.08 35 122.12C33.68 121.79 32.36 121.46 31 121.12C31 119.47 31 117.82 31 116.12Z" fill="#FAE04D"/>
<path d="M51 62.1202C52.32 62.1202 53.64 62.1202 55 62.1202C55 62.7802 55 63.4402 55 64.1202C55.66 64.4502 56.32 64.7802 57 65.1202C54.69 65.4502 52.38 65.7802 50 66.1202C50.33 64.8002 50.66 63.4802 51 62.1202Z" fill="#D2F1FA"/>
<path d="M89 131.12C90.32 131.12 91.64 131.12 93 131.12C93 132.77 93 134.42 93 136.12C91.68 136.12 90.36 136.12 89 136.12C89 134.47 89 132.82 89 131.12Z" fill="#CE5A00"/>
<path d="M61 91.1202C61.66 91.1202 62.32 91.1202 63 91.1202C63.33 94.0902 63.66 97.0602 64 100.12C63.01 99.7902 62.02 99.4602 61 99.1202C61 96.4802 61 93.8402 61 91.1202Z" fill="#334796"/>
<path d="M81 57.1202C82.65 57.1202 84.3 57.1202 86 57.1202C86 57.7802 86 58.4402 86 59.1202C85.01 59.4502 84.02 59.7802 83 60.1202C82.67 60.7802 82.34 61.4402 82 62.1202C81.01 62.1202 80.02 62.1202 79 62.1202C79.66 60.4702 80.32 58.8202 81 57.1202Z" fill="#ACC6E7"/>
<path d="M88 53.1202C88.33 53.7802 88.66 54.4402 89 55.1202C88.67 55.7802 88.34 56.4402 88 57.1202C88.66 57.1202 89.32 57.1202 90 57.1202C90 57.7802 90 58.4402 90 59.1202C88.68 59.1202 87.36 59.1202 86 59.1202C86 58.1302 86 57.1402 86 56.1202C84.35 56.1202 82.7 56.1202 81 56.1202C81 55.7902 81 55.4602 81 55.1202C83.31 54.4602 85.62 53.8002 88 53.1202Z" fill="#768EC3"/>
<path d="M93.9998 47.1202C95.9788 50.7564 96.5249 54.0045 96.9998 58.1202C96.0098 57.4602 95.0198 56.8002 93.9998 56.1202C93.7068 53.9562 93.7068 53.9562 93.8123 51.4952C93.8394 50.678 93.8665 49.8607 93.8943 49.0187C93.9466 48.079 93.9466 48.079 93.9998 47.1202Z" fill="#D1D9EE"/>
<path d="M42 20.1202C42 21.1102 42 22.1002 42 23.1202C39.36 23.1202 36.72 23.1202 34 23.1202C34 22.4602 34 21.8002 34 21.1202C36.8923 20.2939 38.8874 20.1202 42 20.1202Z" fill="#EFE8BE"/>
<path d="M22 50.1202C22.99 50.1202 23.98 50.1202 25 50.1202C24.67 52.4302 24.34 54.7402 24 57.1202C22.68 57.4502 21.36 57.7802 20 58.1202C20.66 57.7902 21.32 57.4602 22 57.1202C22 54.8102 22 52.5002 22 50.1202Z" fill="#302233"/>
<path d="M109 127.12C109 128.77 109 130.42 109 132.12C107.68 132.12 106.36 132.12 105 132.12C105 130.8 105 129.48 105 128.12C107 127.12 107 127.12 109 127.12Z" fill="#180306"/>
<path d="M97 102.12C97 104.43 97 106.74 97 109.12C96.01 108.79 95.02 108.46 94 108.12C94 106.47 94 104.82 94 103.12C96 102.12 96 102.12 97 102.12Z" fill="#E9EBF8"/>
<path d="M57 74.1202C59.64 74.1202 62.28 74.1202 65 74.1202C63.68 75.4402 62.36 76.7602 61 78.1202C60.67 77.4602 60.34 76.8002 60 76.1202C59.01 75.7902 58.02 75.4602 57 75.1202C57 74.7902 57 74.4602 57 74.1202Z" fill="#7975C3"/>
<path d="M46 70.1202C46.99 70.1202 47.98 70.1202 49 70.1202C49.33 71.7702 49.66 73.4202 50 75.1202C48.68 75.1202 47.36 75.1202 46 75.1202C46 73.4702 46 71.8202 46 70.1202Z" fill="#F2F3F6"/>
<path d="M94 59.1202C94.99 59.4502 95.98 59.7802 97 60.1202C97 61.4402 97 62.7602 97 64.1202C95.68 64.1202 94.36 64.1202 93 64.1202C93.33 62.4702 93.66 60.8202 94 59.1202Z" fill="#0D050F"/>
<path d="M78 56.1202C80.64 56.1202 83.28 56.1202 86 56.1202C86 56.4502 86 56.7802 86 57.1202C84.8244 57.244 84.8244 57.244 83.625 57.3702C80.8525 57.8483 80.8525 57.8483 79.6875 60.1827C79.3472 61.1418 79.3472 61.1418 79 62.1202C78.34 61.7902 77.68 61.4602 77 61.1202C77.33 59.4702 77.66 57.8202 78 56.1202Z" fill="#B3D4F0"/>
<path d="M29 40.1202C30.65 40.1202 32.3 40.1202 34 40.1202C33.67 41.4402 33.34 42.7602 33 44.1202C31.68 43.7902 30.36 43.4602 29 43.1202C29 42.1302 29 41.1402 29 40.1202Z" fill="#5E4368"/>
<path d="M82 27.1202C81.01 28.6052 81.01 28.6052 80 30.1202C76.375 30.3077 76.375 30.3077 73 30.1202C75 27.1202 75 27.1202 76.9375 26.3702C79 26.1202 79 26.1202 82 27.1202Z" fill="#7B7391"/>
<path d="M21 103.12C22.32 103.45 23.64 103.78 25 104.12C25 105.77 25 107.42 25 109.12C24.01 109.12 23.02 109.12 22 109.12C21.67 107.14 21.34 105.16 21 103.12Z" fill="#1A0B14"/>
<path d="M30 58.1202C30.33 58.7802 30.66 59.4402 31 60.1202C33.5273 60.7758 33.5273 60.7758 36 61.1202C36 62.1102 36 63.1002 36 64.1202C33 64.1202 33 64.1202 31.3125 62.8077C30 61.1202 30 61.1202 30 58.1202Z" fill="#E6E7EF"/>
</svg>
