<svg width="170" height="151" viewBox="0 0 170 151" fill="none" xmlns="http://www.w3.org/2000/svg">
<path d="M17.0005 0C52.3105 0.33 87.6205 0.66 124.001 1C124.001 1.99 124.001 2.98 124.001 4C128.291 4 132.581 4 137.001 4C137.001 4.66 137.001 5.32 137.001 6C138.651 6 140.301 6 142.001 6C142.001 6.99 142.001 7.98 142.001 9C143.145 8.93812 143.145 8.93812 144.313 8.875C147.001 9 147.001 9 150.001 11C150.188 13.625 150.188 13.625 150.001 16C150.991 16 151.981 16 153.001 16C153.001 20.62 153.001 25.24 153.001 30C152.011 30.33 151.021 30.66 150.001 31C149.671 31.99 149.341 32.98 149.001 34C147.021 34 145.041 34 143.001 34C143.001 34.99 143.001 35.98 143.001 37C140.031 37 137.061 37 134.001 37C134.001 58.12 134.001 79.24 134.001 101C138.621 101 143.241 101 148.001 101C148.001 101.99 148.001 102.98 148.001 104C150.971 104 153.941 104 157.001 104C157.661 105.32 158.321 106.64 159.001 108C159.661 108.33 160.321 108.66 161.001 109C161.001 113.62 161.001 118.24 161.001 123C159.681 123 158.361 123 157.001 123C157.001 124.98 157.001 126.96 157.001 129C156.011 129.33 155.021 129.66 154.001 130C153.671 130.99 153.341 131.98 153.001 133C150.361 133 147.721 133 145.001 133C145.001 134.32 145.001 135.64 145.001 137C107.051 137 69.1005 137 30.0005 137C30.0005 136.01 30.0005 135.02 30.0005 134C27.0305 134 24.0605 134 21.0005 134C20.6705 133.34 20.3405 132.68 20.0005 132C17.4732 131.344 17.4732 131.344 15.0005 131C15.0005 130.01 15.0005 129.02 15.0005 128C14.3405 128 13.6805 128 13.0005 128C13.0005 122.06 13.0005 116.12 13.0005 110C13.9905 110 14.9805 110 16.0005 110C16.3305 108.35 16.6605 106.7 17.0005 105C18.6505 105 20.3005 105 22.0005 105C22.3305 106.32 22.6605 107.64 23.0005 109C24.9805 108.01 26.9605 107.02 29.0005 106C28.3405 105.67 27.6805 105.34 27.0005 105C27.0005 104.01 27.0005 103.02 27.0005 102C24.0305 101.67 21.0605 101.34 18.0005 101C18.0005 100.01 18.0005 99.02 18.0005 98C16.6805 98 15.3605 98 14.0005 98C13.9736 95.7084 13.9542 93.4167 13.938 91.125C13.9264 89.8488 13.9148 88.5727 13.9029 87.2578C14.0005 84 14.0005 84 15.0005 82C15.6605 82 16.3205 82 17.0005 82C17.3305 78.7 17.6605 75.4 18.0005 72C21.1784 70.9407 23.4264 70.8854 26.7623 70.9023C28.4396 70.9072 28.4396 70.9072 30.1509 70.9121C31.3182 70.9205 32.4854 70.9289 33.688 70.9375C34.8669 70.942 36.0457 70.9465 37.2603 70.9512C40.1738 70.963 43.0871 70.9794 46.0005 71C46.0005 70.34 46.0005 69.68 46.0005 69C45.2537 69.0052 44.5068 69.0105 43.7374 69.0159C40.3668 69.0366 36.9962 69.0496 33.6255 69.0625C31.8621 69.0751 31.8621 69.0751 30.063 69.0879C28.9416 69.0911 27.8201 69.0943 26.6646 69.0977C25.1093 69.1055 25.1093 69.1055 23.5225 69.1135C21.0005 69 21.0005 69 19.0005 68C19.0005 58.43 19.0005 48.86 19.0005 39C22.9605 38.34 26.9205 37.68 31.0005 37C29.9641 36.902 28.9277 36.8041 27.8599 36.7031C26.49 36.553 25.1202 36.4019 23.7505 36.25C22.7277 36.1572 22.7277 36.1572 21.6841 36.0625C18.5354 35.6957 16.3502 35.263 13.7955 33.3418C11.4532 30.2859 11.5378 28.5231 11.6099 24.7031C11.6228 23.4979 11.6357 22.2926 11.649 21.0508C11.6825 19.7965 11.716 18.5423 11.7505 17.25C11.7686 15.9803 11.7866 14.7105 11.8052 13.4023C11.8524 10.2675 11.9182 7.13411 12.0005 4C13.6505 4 15.3005 4 17.0005 4C17.0005 2.68 17.0005 1.36 17.0005 0Z" fill="#FAE5A0"/>
<path d="M18 72C26.91 72 35.82 72 45 72C45 72.99 45 73.98 45 75C46.65 75 48.3 75 50 75C50 77.97 50 80.94 50 84C51.65 84 53.3 84 55 84C55.33 82.35 55.66 80.7 56 79C56.99 79.33 57.98 79.66 59 80C59 79.01 59 78.02 59 77C62.63 77 66.26 77 70 77C70 78.32 70 79.64 70 81C70.66 81 71.32 81 72 81C72 83.31 72 85.62 72 88C71.01 88 70.02 88 69 88C69 88.99 69 89.98 69 91C67.68 91 66.36 91 65 91C64.67 92.32 64.34 93.64 64 95C63.34 95 62.68 95 62 95C62.0206 95.9694 62.0412 96.9388 62.0625 97.9375C62 101 62 101 61 102C59.0004 102.041 56.9995 102.043 55 102C55 100.68 55 99.36 55 98C54.01 98 53.02 98 52 98C51.34 99.32 50.68 100.64 50 102C48.35 102 46.7 102 45 102C45 103.65 45 105.3 45 107C56.88 107 68.76 107 81 107C81 109.97 81 112.94 81 116C79.68 116 78.36 116 77 116C77 114.68 77 113.36 77 112C69.7501 112.238 62.5005 112.481 55.251 112.73C51.8847 112.846 48.5185 112.96 45.1521 113.07C41.2822 113.197 37.4126 113.331 33.543 113.465C32.3335 113.503 31.1241 113.542 29.878 113.582C28.757 113.622 27.6361 113.662 26.4812 113.703C25.493 113.736 24.5049 113.769 23.4867 113.804C20.869 113.91 20.869 113.91 18 115C17.67 118.63 17.34 122.26 17 126C18.65 126 20.3 126 22 126C22 127.65 22 129.3 22 131C37.9336 131.047 53.8671 131.082 69.8008 131.104C77.1992 131.114 84.5977 131.128 91.9961 131.151C98.4455 131.171 104.895 131.184 111.344 131.188C114.758 131.191 118.172 131.197 121.587 131.211C125.4 131.226 129.214 131.228 133.028 131.227C134.156 131.234 135.285 131.241 136.448 131.249C141.688 131.235 146.109 131.141 151 129C151 128.34 151 127.68 151 127C151.66 127 152.32 127 153 127C153 125.68 153 124.36 153 123C154.32 123 155.64 123 157 123C157 124.98 157 126.96 157 129C156.01 129.33 155.02 129.66 154 130C153.67 130.99 153.34 131.98 153 133C150.36 133 147.72 133 145 133C145 134.32 145 135.64 145 137C107.05 137 69.1 137 30 137C30 136.01 30 135.02 30 134C27.03 134 24.06 134 21 134C20.67 133.34 20.34 132.68 20 132C17.4727 131.344 17.4727 131.344 15 131C15 130.01 15 129.02 15 128C14.34 128 13.68 128 13 128C13 122.06 13 116.12 13 110C13.99 110 14.98 110 16 110C16.33 108.35 16.66 106.7 17 105C18.65 105 20.3 105 22 105C22.33 106.32 22.66 107.64 23 109C24.98 108.01 26.96 107.02 29 106C28.34 105.67 27.68 105.34 27 105C27 104.01 27 103.02 27 102C24.03 101.67 21.06 101.34 18 101C18 100.01 18 99.02 18 98C16.68 98 15.36 98 14 98C13.9731 95.7084 13.9536 93.4167 13.9375 91.125C13.9259 89.8488 13.9143 88.5727 13.9023 87.2578C14 84 14 84 15 82C15.66 82 16.32 82 17 82C17.33 78.7 17.66 75.4 18 72Z" fill="#42080D"/>
<path d="M16.9992 0C52.3092 0.33 87.6192 0.66 123.999 1C123.999 1.99 123.999 2.98 123.999 4C128.289 4 132.579 4 136.999 4C136.999 4.66 136.999 5.32 136.999 6C138.649 6 140.299 6 141.999 6C141.999 6.99 141.999 7.98 141.999 9C143.144 8.93812 143.144 8.93812 144.312 8.875C146.999 9 146.999 9 149.999 11C150.187 13.625 150.187 13.625 149.999 16C150.989 16 151.979 16 152.999 16C152.999 20.62 152.999 25.24 152.999 30C152.009 30.33 151.019 30.66 149.999 31C149.669 31.99 149.339 32.98 148.999 34C147.019 34 145.039 34 142.999 34C142.999 34.99 142.999 35.98 142.999 37C140.029 37 137.059 37 133.999 37C133.999 58.12 133.999 79.24 133.999 101C138.619 101 143.239 101 147.999 101C147.999 101.99 147.999 102.98 147.999 104C150.969 104 153.939 104 156.999 104C157.659 105.32 158.319 106.64 158.999 108C159.659 108.33 160.319 108.66 160.999 109C160.999 113.62 160.999 118.24 160.999 123C159.679 123 158.359 123 156.999 123C156.669 118.71 156.339 114.42 155.999 110C154.865 109.876 153.73 109.752 152.562 109.625C151.386 109.419 150.21 109.213 148.999 109C148.669 108.34 148.339 107.68 147.999 107C141.729 106.67 135.459 106.34 128.999 106C128.669 108.64 128.339 111.28 127.999 114C127.009 114 126.019 114 124.999 114C124.999 116.31 124.999 118.62 124.999 121C124.009 121 123.019 121 121.999 121C121.669 122.65 121.339 124.3 120.999 126C120.009 126 119.019 126 117.999 126C117.504 122.535 117.504 122.535 116.999 119C117.989 119 118.979 119 119.999 119C120.329 116.69 120.659 114.38 120.999 112C121.989 112 122.979 112 123.999 112C123.999 109.69 123.999 107.38 123.999 105C124.989 105 125.979 105 126.999 105C126.999 99.39 126.999 93.78 126.999 88C127.989 88 128.979 88 129.999 88C129.999 76.12 129.999 64.24 129.999 52C128.679 52 127.359 52 125.999 52C125.999 47.38 125.999 42.76 125.999 38C124.349 37.67 122.699 37.34 120.999 37C120.999 36.01 120.999 35.02 120.999 34C119.679 34 118.359 34 116.999 34C116.999 28.72 116.999 23.44 116.999 18C118.979 18.495 118.979 18.495 120.999 19C120.999 23.62 120.999 28.24 120.999 33C127.599 33 134.199 33 140.999 33C141.329 32.01 141.659 31.02 141.999 30C144.309 29.67 146.619 29.34 148.999 29C148.999 25.04 148.999 21.08 148.999 17C147.679 17 146.359 17 144.999 17C144.999 15.68 144.999 14.36 144.999 13C143.019 13 141.039 13 138.999 13C138.504 12.01 138.504 12.01 137.999 11C135.183 10.531 135.183 10.531 131.937 10.375C130.28 10.2629 130.28 10.2629 128.589 10.1484C127.734 10.0995 126.88 10.0505 125.999 10C125.339 11.98 124.679 13.96 123.999 16C122.679 16 121.359 16 119.999 16C119.999 14.02 119.999 12.04 119.999 10C121.319 10 122.639 10 123.999 10C123.999 8.35 123.999 6.7 123.999 5C98.9192 5 73.8392 5 47.9992 5C47.6692 12.92 47.3392 20.84 46.9992 29C41.9992 35 41.9992 35 39.1083 35.7446C37.5519 35.7357 37.5519 35.7357 35.964 35.7266C34.8252 35.7253 33.6863 35.724 32.5129 35.7227C30.7427 35.6743 30.7427 35.6743 28.9367 35.625C27.7527 35.6314 26.5687 35.6379 25.3488 35.6445C16.7658 35.5375 16.7658 35.5375 13.6547 33.356C11.498 30.2867 11.5382 28.4328 11.6086 24.7031C11.6215 23.4979 11.6344 22.2926 11.6476 21.0508C11.6812 19.7965 11.7147 18.5423 11.7492 17.25C11.7673 15.9803 11.7853 14.7105 11.8039 13.4023C11.851 10.2675 11.9168 7.13411 11.9992 4C13.6492 4 15.2992 4 16.9992 4C16.9992 2.68 16.9992 1.36 16.9992 0Z" fill="#24050D"/>
<path d="M100 39C100.66 39 101.32 39 102 39C102 41.64 102 44.28 102 47C102.99 47 103.98 47 105 47C105 47.66 105 48.32 105 49C105.66 49 106.32 49 107 49C107 48.34 107 47.68 107 47C108.437 46.8313 109.875 46.6651 111.312 46.5C112.113 46.4072 112.914 46.3144 113.738 46.2188C116 46 116 46 119 46C119 47.65 119 49.3 119 51C120.32 51 121.64 51 123 51C123.081 52.6033 123.139 54.2078 123.188 55.8125C123.24 57.1525 123.24 57.1525 123.293 58.5195C123 61 123 61 121.676 62.8242C120 64 120 64 117 64C116.67 66.31 116.34 68.62 116 71C116.66 71.33 117.32 71.66 118 72C117.505 72.99 117.505 72.99 117 74C120.96 74.66 124.92 75.32 129 76C129 79.3 129 82.6 129 86C127.35 86 125.7 86 124 86C124 88.64 124 91.28 124 94C122.02 94 120.04 94 118 94C118 95.32 118 96.64 118 98C119.65 98 121.3 98 123 98C123 102.29 123 106.58 123 111C122.67 110.01 122.34 109.02 122 108C121.34 108 120.68 108 120 108C120 109.65 120 111.3 120 113C112.571 113.286 112.571 113.286 109 111C109 110.34 109 109.68 109 109C87.88 108.34 66.76 107.68 45 107C45 105.35 45 103.7 45 102C45.9694 101.711 46.9388 101.423 47.9375 101.125C51.1066 100.358 51.1066 100.358 52 98C52.99 98 53.98 98 55 98C55 99.32 55 100.64 55 102C57.97 101.505 57.97 101.505 61 101C61.33 99.02 61.66 97.04 62 95C64.97 94.505 64.97 94.505 68 94C68 95.65 68 97.3 68 99C71.3 99 74.6 99 78 99C77.34 97.68 76.68 96.36 76 95C76 93.68 76 92.36 76 91C78.64 91 81.28 91 84 91C83.67 93.31 83.34 95.62 83 98C82.34 98 81.68 98 81 98C81 98.99 81 99.98 81 101C84.0795 100.495 84.0795 100.495 86.25 98.375C87.1162 97.6944 87.1162 97.6944 88 97C90.918 97.3633 90.918 97.3633 94.1875 98.3125C95.2742 98.618 96.3609 98.9235 97.4805 99.2383C98.7276 99.6153 98.7276 99.6153 100 100C99.505 95.545 99.505 95.545 99 91C95.04 90.67 91.08 90.34 87 90C87 89.67 87 89.34 87 89C96.24 89 105.48 89 115 89C115 87.68 115 86.36 115 85C102.46 85 89.92 85 77 85C76.67 86.32 76.34 87.64 76 89C76 86.69 76 84.38 76 82C78.7088 80.6456 81.0093 80.935 84 81C84 79.35 84 77.7 84 76C86.64 76 89.28 76 92 76C92 74.35 92 72.7 92 71C89.03 71 86.06 71 83 71C83 70.01 83 69.02 83 68C83.99 68 84.98 68 86 68C86 65.36 86 62.72 86 60C83.03 59.67 80.06 59.34 77 59C77 58.67 77 58.34 77 58C89.54 58 102.08 58 115 58C115 56.35 115 54.7 115 53C102.46 53 89.92 53 77 53C77 52.67 77 52.34 77 52C78.6706 51.8762 78.6706 51.8762 80.375 51.75C84.0575 51.4213 84.0575 51.4213 85.4375 48.9375C85.7159 47.9784 85.7159 47.9784 86 47C87.32 47 88.64 47 90 47C90 47.99 90 48.98 90 50C93.3 50 96.6 50 100 50C100 46.37 100 42.74 100 39Z" fill="#FDF4B7"/>
<path d="M129 106C135.27 106 141.54 106 148 106C148.33 106.99 148.66 107.98 149 109C150.702 108.969 150.702 108.969 152.438 108.938C156 109 156 109 157 110C157.073 112.186 157.084 114.375 157.062 116.562C157.053 117.76 157.044 118.958 157.035 120.191C157.018 121.582 157.018 121.582 157 123C155.68 123 154.36 123 153 123C153 124.32 153 125.64 153 127C152.34 127 151.68 127 151 127C151 127.66 151 128.32 151 129C145.38 132.623 140.226 132.413 133.674 132.356C132.541 132.358 131.409 132.361 130.242 132.363C126.505 132.366 122.768 132.347 119.031 132.328C116.431 132.325 113.831 132.323 111.231 132.322C105.783 132.318 100.336 132.304 94.8892 132.281C87.9083 132.252 80.9275 132.242 73.9466 132.238C68.5781 132.234 63.2095 132.224 57.8409 132.212C55.2669 132.206 52.6929 132.201 50.1189 132.197C46.5213 132.191 42.9238 132.177 39.3262 132.161C38.2631 132.16 37.2001 132.159 36.1048 132.158C31.2934 132.13 26.7292 132.011 22 131C22 129.35 22 127.7 22 126C20.35 126 18.7 126 17 126C17 122.04 17 118.08 17 114C21.9724 112.757 26.7051 112.631 31.8125 112.438C33.4269 112.374 33.4269 112.374 35.074 112.309C49.0453 111.816 63.0224 111.909 77 112C77 113.32 77 114.64 77 116C79.31 116 81.62 116 84 116C84 116.99 84 117.98 84 119C87.465 118.505 87.465 118.505 91 118C90.34 120.31 89.68 122.62 89 125C90.65 125 92.3 125 94 125C94 126.32 94 127.64 94 129C97.3 129 100.6 129 104 129C104 129.33 104 129.66 104 130C105.98 130.33 107.96 130.66 110 131C110 130.01 110 129.02 110 128C111.32 128 112.64 128 114 128C114 126.68 114 125.36 114 124C115.32 124 116.64 124 118 124C118 124.66 118 125.32 118 126C118.99 125.67 119.98 125.34 121 125C121.733 122.985 121.733 122.985 122 121C122.99 121 123.98 121 125 121C125 118.69 125 116.38 125 114C125.99 114 126.98 114 128 114C128.33 111.36 128.66 108.72 129 106Z" fill="#BB6851"/>
<path d="M12 110C12.33 110 12.66 110 13 110C13 115.94 13 121.88 13 128C13.66 128 14.32 128 15 128C15 128.99 15 129.98 15 131C16.65 131 18.3 131 20 131C20.33 131.99 20.66 132.98 21 134C23.97 134 26.94 134 30 134C30 134.99 30 135.98 30 137C67.95 137 105.9 137 145 137C145 135.68 145 134.36 145 133C146.258 132.897 147.516 132.794 148.812 132.688C151.306 132.361 152.779 132.136 154.938 130.812C156.415 128.292 156.68 125.878 157 123C158.98 123.495 158.98 123.495 161 124C160.01 124 159.02 124 158 124C158 125.32 158 126.64 158 128C158.615 128.182 159.23 128.364 159.863 128.551C160.672 128.802 161.48 129.054 162.312 129.312C163.113 129.556 163.914 129.8 164.738 130.051C167.127 131.053 168.399 131.978 170 134C169.916 136.691 169.311 137.701 167.375 139.562C160.637 143.641 154.083 144.901 146.375 146.062C145.39 146.223 144.405 146.383 143.391 146.549C123.985 149.576 104.743 150.372 85.125 150.312C83.3168 150.31 83.3168 150.31 81.4721 150.308C15.5941 150.162 15.5941 150.162 1 138C0.3125 135.844 0.3125 135.844 0 134C4.15595 130.222 6.13115 129.677 12 128C12 122.06 12 116.12 12 110Z" fill="#CDD5EA"/>
<path d="M76 53C76.33 54.65 76.66 56.3 77 58C80.3 58.33 83.6 58.66 87 59C86.67 61.97 86.34 64.94 86 68C85.01 68 84.02 68 83 68C83 68.99 83 69.98 83 71C85.97 71 88.94 71 92 71C92 72.65 92 74.3 92 76C88.713 76.7995 87.2898 77.0966 84 76C84 77.65 84 79.3 84 81C80.04 81.495 80.04 81.495 76 82C76.33 82.99 76.66 83.98 77 85C89.54 85 102.08 85 115 85C115 86.32 115 87.64 115 89C110.05 89.33 105.1 89.66 100 90C100 93.3 100 96.6 100 100C90.4286 99 90.4286 99 86 98C85.67 98.99 85.34 99.98 85 101C83.68 101 82.36 101 81 101C81 100.01 81 99.02 81 98C81.66 98 82.32 98 83 98C83.33 95.69 83.66 93.38 84 91C81.36 91 78.72 91 76 91C76.66 93.64 77.32 96.28 78 99C74.7 99 71.4 99 68 99C68 97.35 68 95.7 68 94C67.01 94 66.02 94 65 94C65 93.01 65 92.02 65 91C66.32 91 67.64 91 69 91C69 90.01 69 89.02 69 88C69.99 88 70.98 88 72 88C72 85.69 72 83.38 72 81C71.34 81 70.68 81 70 81C70 79.68 70 78.36 70 77C66.37 77 62.74 77 59 77C59 77.99 59 78.98 59 80C58.34 80 57.68 80 57 80C56.34 81.32 55.68 82.64 55 84C53.35 84 51.7 84 50 84C50 81.03 50 78.06 50 75C48.68 75 47.36 75 46 75C46 74.01 46 73.02 46 72C46.7837 71.8969 47.5675 71.7938 48.375 71.6875C51.3305 71.224 51.3305 71.224 53 68C53.99 68 54.98 68 56 68C56 65.36 56 62.72 56 60C57.32 60 58.64 60 60 60C60 60.66 60 61.32 60 62C61.65 62.33 63.3 62.66 65 63C65 61.68 65 60.36 65 59C66.32 59 67.64 59 69 59C69 58.01 69 57.02 69 56C69.99 56 70.98 56 72 56C72.33 55.34 72.66 54.68 73 54C75 53 75 53 76 53Z" fill="#FAE8AB"/>
<path d="M121 37C123.475 37.495 123.475 37.495 126 38C126 42.62 126 47.24 126 52C127.32 52 128.64 52 130 52C130 63.88 130 75.76 130 88C129.01 88 128.02 88 127 88C127 93.61 127 99.22 127 105C126.01 105 125.02 105 124 105C124 107.31 124 109.62 124 112C123.01 112 122.02 112 121 112C121 114.64 121 117.28 121 120C119.68 119.67 118.36 119.34 117 119C117 120.98 117 122.96 117 125C116.01 124.67 115.02 124.34 114 124C114 125.32 114 126.64 114 128C112.68 128 111.36 128 110 128C110 128.99 110 129.98 110 131C105.05 131 100.1 131 95 131C94.505 128.03 94.505 128.03 94 125C92.35 125 90.7 125 89 125C89.33 123.02 89.66 121.04 90 119C88.02 119 86.04 119 84 119C84 118.01 84 117.02 84 116C83.01 116 82.02 116 81 116C81 113.03 81 110.06 81 107C84.3544 107.142 87.7084 107.288 91.0625 107.438C92.0054 107.477 92.9484 107.516 93.9199 107.557C99.0112 107.787 103.971 108.17 109 109C109 109.66 109 110.32 109 111C112.63 111.66 116.26 112.32 120 113C120 111.35 120 109.7 120 108C120.66 108 121.32 108 122 108C122.33 104.7 122.66 101.4 123 98C121.35 98 119.7 98 118 98C118 96.68 118 95.36 118 94C119.98 94 121.96 94 124 94C124 91.36 124 88.72 124 86C125.65 86 127.3 86 129 86C129 82.7 129 79.4 129 76C127.391 75.8556 125.783 75.7113 124.125 75.5625C119.25 75.125 119.25 75.125 117 74C115.706 66.5882 115.706 66.5882 117 64C119.31 62.9465 121.643 61.9428 124 61C124.33 57.37 124.66 53.74 125 50C123.68 50 122.36 50 121 50C121 45.71 121 41.42 121 37Z" fill="#D9AC79"/>
<path d="M16.9991 0C21.6191 0 26.2391 0 30.9991 0C30.9991 0.33 30.9991 0.66 30.9991 1C26.7091 1 22.4191 1 17.9991 1C19.1876 2.41775 19.1876 2.41775 22.5968 2.09766C24.0851 2.09098 25.5734 2.07902 27.0616 2.0625C28.1995 2.05573 28.1995 2.05573 29.3604 2.04883C31.24 2.03701 33.1196 2.01907 34.9991 2C34.9991 2.99 34.9991 3.98 34.9991 5C35.6591 5 36.3191 5 36.9991 5C36.9991 4.34 36.9991 3.68 36.9991 3C38.3191 3 39.6391 3 40.9991 3C40.9991 4.65 40.9991 6.3 40.9991 8C41.6591 8 42.3191 8 42.9991 8C43.0189 8.59539 43.0387 9.19077 43.0592 9.8042C43.1543 12.4949 43.264 15.1849 43.3741 17.875C43.405 18.8121 43.436 19.7493 43.4678 20.7148C43.5065 21.6107 43.5452 22.5066 43.585 23.4297C43.6322 24.6708 43.6322 24.6708 43.6803 25.937C43.8251 28.2199 43.8251 28.2199 45.9991 30C42.8114 34.8154 42.8114 34.8154 39.2218 35.6311C37.6575 35.63 37.6575 35.63 36.0616 35.6289C34.3484 35.6318 34.3484 35.6318 32.6007 35.6348C31.4121 35.6109 30.2236 35.5871 28.9991 35.5625C27.2163 35.5789 27.2163 35.5789 25.3975 35.5957C16.7459 35.5225 16.7459 35.5225 13.6524 33.3582C11.4995 30.2874 11.5381 28.4321 11.6085 24.7031C11.6214 23.4979 11.6343 22.2926 11.6475 21.0508C11.6811 19.7965 11.7146 18.5423 11.7491 17.25C11.7671 15.9803 11.7852 14.7105 11.8038 13.4023C11.8509 10.2675 11.9167 7.13411 11.9991 4C13.6491 4 15.2991 4 16.9991 4C16.9991 2.68 16.9991 1.36 16.9991 0Z" fill="#23131A"/>
<path d="M77 112C77 113.32 77 114.64 77 116C78.32 116 79.64 116 81 116C81.495 118.475 81.495 118.475 82 121C82.99 121 83.98 121 85 121C85 123.31 85 125.62 85 128C65.2 128 45.4 128 25 128C25 128.66 25 129.32 25 130C24.01 130 23.02 130 22 130C22 128.68 22 127.36 22 126C20.35 126 18.7 126 17 126C17 122.04 17 118.08 17 114C21.9724 112.757 26.7051 112.631 31.8125 112.438C33.4269 112.374 33.4269 112.374 35.074 112.309C49.0453 111.816 63.0224 111.909 77 112Z" fill="#F3C37F"/>
<path d="M123 5C123.33 5 123.66 5 124 5C124 6.65 124 8.3 124 10C122.68 10 121.36 10 120 10C120 11.98 120 13.96 120 16C121.32 16 122.64 16 124 16C124.144 15.3813 124.289 14.7625 124.438 14.125C125 12 125 12 126 10C129.96 10 133.92 10 138 10C138.495 11.485 138.495 11.485 139 13C140.98 13 142.96 13 145 13C145 14.32 145 15.64 145 17C146.32 17 147.64 17 149 17C149 20.96 149 24.92 149 29C147.866 29.2887 146.731 29.5775 145.562 29.875C144.387 30.2463 143.211 30.6175 142 31C141.67 31.66 141.34 32.32 141 33C134.4 33 127.8 33 121 33C121 28.38 121 23.76 121 19C119.68 18.67 118.36 18.34 117 18C117 16.68 117 15.36 117 14C104.13 14 91.26 14 78 14C79.32 14.33 80.64 14.66 82 15C82 16.32 82 17.64 82 19C82.99 19 83.98 19 85 19C85 21.97 85 24.94 85 28C82.03 28.33 79.06 28.66 76 29C76 28.34 76 27.68 76 27C75.01 26.67 74.02 26.34 73 26C73 23.36 73 20.72 73 18C73.99 18 74.98 18 76 18C75.34 15.69 74.68 13.38 74 11C75.9486 9.05136 78.8981 9.87081 81.4912 9.86105C82.8568 9.86409 82.8568 9.86409 84.25 9.86719C85.1784 9.86623 86.1069 9.86527 87.0635 9.86429C89.0306 9.86361 90.9977 9.86546 92.9648 9.86963C95.987 9.87498 99.0091 9.86968 102.031 9.86328C103.938 9.86394 105.844 9.86522 107.75 9.86719C108.66 9.86516 109.571 9.86314 110.509 9.86105C116.885 9.88505 116.885 9.88505 118 11C118.33 10.34 118.66 9.68 119 9C120.32 9 121.64 9 123 9C123 7.68 123 6.36 123 5Z" fill="#F3CF86"/>
<path d="M17 105C18.65 105 20.3 105 22 105C22 106.98 22 108.96 22 111C21.0332 111.29 21.0332 111.29 20.0469 111.586C17.6565 112.887 17.6565 112.887 17.3906 116.039C17.3442 117.222 17.2978 118.406 17.25 119.625C17.1933 120.814 17.1366 122.002 17.0781 123.227C17.0523 124.142 17.0266 125.057 17 126C18.65 126 20.3 126 22 126C22 127.65 22 129.3 22 131C37.9336 131.047 53.8671 131.082 69.8008 131.104C77.1992 131.114 84.5977 131.128 91.9961 131.151C98.4455 131.171 104.895 131.184 111.344 131.188C114.758 131.191 118.172 131.197 121.587 131.211C125.4 131.226 129.214 131.228 133.028 131.227C134.156 131.234 135.285 131.241 136.448 131.249C141.688 131.235 146.109 131.141 151 129C151 128.34 151 127.68 151 127C151.66 127 152.32 127 153 127C153 125.68 153 124.36 153 123C154.32 123 155.64 123 157 123C157 124.98 157 126.96 157 129C156.01 129.33 155.02 129.66 154 130C153.67 130.99 153.34 131.98 153 133C150.36 133 147.72 133 145 133C145 134.32 145 135.64 145 137C107.05 137 69.1 137 30 137C30 136.01 30 135.02 30 134C27.03 134 24.06 134 21 134C20.67 133.34 20.34 132.68 20 132C17.4727 131.344 17.4727 131.344 15 131C15 130.01 15 129.02 15 128C14.34 128 13.68 128 13 128C13 122.06 13 116.12 13 110C13.99 110 14.98 110 16 110C16.33 108.35 16.66 106.7 17 105Z" fill="#533B47"/>
<path d="M49 75C49.33 75 49.66 75 50 75C50 77.97 50 80.94 50 84C51.65 84 53.3 84 55 84C55.33 82.35 55.66 80.7 56 79C56.99 79.33 57.98 79.66 59 80C59 79.01 59 78.02 59 77C62.63 77 66.26 77 70 77C70 78.32 70 79.64 70 81C70.66 81 71.32 81 72 81C72 83.31 72 85.62 72 88C71.01 88 70.02 88 69 88C69 88.99 69 89.98 69 91C67.68 91 66.36 91 65 91C64.67 92.32 64.34 93.64 64 95C63.34 95 62.68 95 62 95C62.0206 95.9694 62.0412 96.9388 62.0625 97.9375C62 101 62 101 61 102C59.0004 102.041 56.9995 102.043 55 102C55 100.68 55 99.36 55 98C54.01 98 53.02 98 52 98C51.34 99.32 50.68 100.64 50 102C48.35 102 46.7 102 45 102C45 103.65 45 105.3 45 107C56.88 107 68.76 107 81 107C81 109.97 81 112.94 81 116C79.68 116 78.36 116 77 116C77 114.68 77 113.36 77 112C76.3073 112.025 75.6146 112.05 74.9009 112.076C67.6986 112.336 60.4963 112.596 53.2939 112.854C50.6051 112.951 47.9163 113.048 45.2275 113.146C41.3653 113.285 37.5029 113.424 33.6406 113.562C32.4363 113.606 31.2321 113.65 29.9913 113.695C28.8704 113.735 27.7496 113.775 26.5947 113.816C25.1158 113.87 25.1158 113.87 23.607 113.924C21.4055 113.988 19.2025 114 17 114C18 112 18 112 21 111C21.33 109.35 21.66 107.7 22 106C22.33 106.99 22.66 107.98 23 109C23.8379 108.519 24.6758 108.038 25.5391 107.543C29.3474 105.845 32.2283 105.508 36.375 105.312C37.6202 105.247 38.8655 105.181 40.1484 105.113C41.56 105.057 41.56 105.057 43 105C43.33 102.69 43.66 100.38 44 98C44.99 98 45.98 98 47 98C47 95.69 47 93.38 47 91C47.66 91 48.32 91 49 91C49 85.72 49 80.44 49 75Z" fill="#F0CB93"/>
<path d="M67 38C70.96 38 74.92 38 79 38C79 40.64 79 43.28 79 46C80.65 46 82.3 46 84 46C84.3822 47.6561 84.714 49.3246 85 51C84.67 51.33 84.34 51.66 84 52C94.23 52.33 104.46 52.66 115 53C115 54.65 115 56.3 115 58C102.13 58 89.26 58 76 58C75.67 56.68 75.34 55.36 75 54C74.34 54.66 73.68 55.32 73 56C71.68 56 70.36 56 69 56C69 56.99 69 57.98 69 59C67.68 59 66.36 59 65 59C65 60.32 65 61.64 65 63C63.02 63 61.04 63 59 63C59.33 62.01 59.66 61.02 60 60C58.68 60 57.36 60 56 60C56 58.68 56 57.36 56 56C54.35 56 52.7 56 51 56C51 54.68 51 53.36 51 52C52.32 52 53.64 52 55 52C55 51.01 55 50.02 55 49C56.65 49 58.3 49 60 49C60 48.01 60 47.02 60 46C62.64 46 65.28 46 68 46C68 46.99 68 47.98 68 49C69.98 48.01 71.96 47.02 74 46C71.6405 43.6405 70.221 43.5086 67 43C67 41.35 67 39.7 67 38Z" fill="#DDC28E"/>
<path d="M129 106C135.27 106 141.54 106 148 106C148.33 106.99 148.66 107.98 149 109C150.134 108.979 151.269 108.959 152.438 108.938C156 109 156 109 157 110C157.073 112.186 157.084 114.375 157.062 116.562C157.053 117.76 157.044 118.958 157.035 120.191C157.024 121.118 157.012 122.045 157 123C155.68 123 154.36 123 153 123C153 124.32 153 125.64 153 127C152.34 127 151.68 127 151 127C151 127.66 151 128.32 151 129C148.854 129.027 146.708 129.046 144.562 129.062C143.368 129.074 142.173 129.086 140.941 129.098C138 129 138 129 137 128C135.151 127.766 133.295 127.587 131.438 127.438C130.426 127.354 129.414 127.27 128.371 127.184C127.197 127.093 127.197 127.093 126 127C126 126.01 126 125.02 126 124C127.32 124 128.64 124 130 124C129.67 118.06 129.34 112.12 129 106Z" fill="#A35840"/>
<path d="M76 91C78.64 91 81.28 91 84 91C83.67 93.31 83.34 95.62 83 98C82.34 98 81.68 98 81 98C81 98.99 81 99.98 81 101C84.2695 100.436 85.8258 99.5004 88 97C89.0519 97.33 90.1037 97.66 91.1875 98C94.3887 98.8397 96.7411 99.1975 100 99C100.33 98.34 100.66 97.68 101 97C102.32 97.66 103.64 98.32 105 99C104.125 105.875 104.125 105.875 103 107C101.189 107.094 99.3752 107.117 97.5623 107.114C95.8206 107.113 95.8206 107.113 94.0437 107.113C92.1484 107.106 92.1484 107.106 90.2148 107.098C88.9289 107.096 87.6429 107.095 86.318 107.093C82.8936 107.09 79.4692 107.08 76.0447 107.069C72.5526 107.058 69.0605 107.054 65.5684 107.049C58.7122 107.038 51.8561 107.021 45 107C45 105.35 45 103.7 45 102C45.9694 101.711 46.9388 101.423 47.9375 101.125C51.1066 100.358 51.1066 100.358 52 98C52.99 98 53.98 98 55 98C55 99.32 55 100.64 55 102C56.98 101.67 58.96 101.34 61 101C61.33 99.02 61.66 97.04 62 95C63.98 94.67 65.96 94.34 68 94C68 95.65 68 97.3 68 99C71.3 99 74.6 99 78 99C77.34 97.68 76.68 96.36 76 95C76 93.68 76 92.36 76 91Z" fill="#FDF7C5"/>
<path d="M23 42C30.59 42 38.18 42 46 42C46.0206 45.4444 46.0412 48.8888 46.0625 52.4375C46.0716 53.5247 46.0807 54.612 46.0901 55.7322C46.0926 56.5824 46.0951 57.4326 46.0977 58.3086C46.1055 59.6204 46.1055 59.6204 46.1135 60.9587C46 63 46 63 45 64C43.3653 64.087 41.7269 64.107 40.0898 64.0977C39.199 64.0952 38.3082 64.0927 37.3904 64.0901C36.2509 64.081 35.1115 64.0719 33.9375 64.0625C30.3281 64.0419 26.7188 64.0213 23 64C23 56.74 23 49.48 23 42Z" fill="#F9ECCD"/>
<path d="M48 5C72.75 5 97.5 5 123 5C123 6.32 123 7.64 123 9C121.68 9 120.36 9 119 9C118.67 9.99 118.34 10.98 118 12C117.505 11.505 117.505 11.505 117 11C115.129 10.8766 113.253 10.8221 111.379 10.7947C110.177 10.7747 108.976 10.7548 107.739 10.7342C106.431 10.7175 105.124 10.7008 103.777 10.6836C102.434 10.663 101.09 10.642 99.746 10.6206C96.2033 10.5653 92.6605 10.516 89.1176 10.4678C85.5048 10.4176 81.892 10.3619 78.2793 10.3066C71.1863 10.199 64.0932 10.0976 57 10C57 10.66 57 11.32 57 12C57.66 12.33 58.32 12.66 59 13C59 14.65 59 16.3 59 18C58.01 18 57.02 18 56 18C56 18.66 56 19.32 56 20C53.36 20.33 50.72 20.66 48 21C48 15.72 48 10.44 48 5Z" fill="#FDF8D1"/>
<path d="M17 114C22 115 22 115 24.8931 116.023C28.2441 117.077 31.209 117.408 34.7109 117.633C35.9549 117.717 37.1988 117.8 38.4805 117.887C40.4083 118.005 40.4083 118.005 42.375 118.125C43.6834 118.211 44.9918 118.298 46.3398 118.387C49.5595 118.598 52.7795 118.802 56 119C56 119.66 56 120.32 56 121C49.73 121.33 43.46 121.66 37 122C40.96 122.33 44.92 122.66 49 123C48.67 124.32 48.34 125.64 48 127C52.62 127 57.24 127 62 127C62.33 126.01 62.66 125.02 63 124C66.5438 122.495 70.4671 122.902 74.25 122.938C76.1449 122.951 76.1449 122.951 78.0781 122.965C79.0423 122.976 80.0066 122.988 81 123C81.33 122.34 81.66 121.68 82 121C82.99 121 83.98 121 85 121C85 123.31 85 125.62 85 128C65.2 128 45.4 128 25 128C25 128.66 25 129.32 25 130C24.01 130 23.02 130 22 130C22 128.68 22 127.36 22 126C20.35 126 18.7 126 17 126C17 122.04 17 118.08 17 114Z" fill="#EAB776"/>
<path d="M133 38C133.33 38 133.66 38 134 38C134 58.79 134 79.58 134 101C138.62 101 143.24 101 148 101C148 101.99 148 102.98 148 104C150.97 104 153.94 104 157 104C157.66 105.32 158.32 106.64 159 108C159.99 108.495 159.99 108.495 161 109C161 113.62 161 118.24 161 123C159.68 123 158.36 123 157 123C156.67 118.71 156.34 114.42 156 110C154.298 109.814 154.298 109.814 152.562 109.625C150.799 109.316 150.799 109.316 149 109C148.505 108.01 148.505 108.01 148 107C141.73 106.67 135.46 106.34 129 106C128.67 108.64 128.34 111.28 128 114C127.01 114 126.02 114 125 114C125 116.31 125 118.62 125 121C124.01 121 123.02 121 122 121C121.67 122.65 121.34 124.3 121 126C120.01 126 119.02 126 118 126C117.67 123.69 117.34 121.38 117 119C117.99 119 118.98 119 120 119C120.33 116.69 120.66 114.38 121 112C121.99 112 122.98 112 124 112C124 109.69 124 107.38 124 105C124.99 105 125.98 105 127 105C127 99.39 127 93.78 127 88C127.66 88.33 128.32 88.66 129 89C130.485 88.505 130.485 88.505 132 88C132.33 71.5 132.66 55 133 38Z" fill="#2F1420"/>
<path d="M18 1C52.98 1 87.96 1 124 1C124 1.99 124 2.98 124 4C98.92 4 73.84 4 48 4C47.67 12.25 47.34 20.5 47 29C45.68 28.67 44.36 28.34 43 28C43 21.4 43 14.8 43 8C42.34 8 41.68 8 41 8C41 6.35 41 4.7 41 3C39.68 3 38.36 3 37 3C37 3.66 37 4.32 37 5C36.34 5 35.68 5 35 5C35 4.01 35 3.02 35 2C26.585 2.495 26.585 2.495 18 3C18 2.34 18 1.68 18 1Z" fill="#1D080C"/>
<path d="M81 107C84.3544 107.142 87.7084 107.288 91.0625 107.438C92.0054 107.477 92.9484 107.516 93.9199 107.557C99.0112 107.787 103.971 108.17 109 109C109 109.66 109 110.32 109 111C109.66 111.33 110.32 111.66 111 112C110.01 112 109.02 112 108 112C108 111.34 108 110.68 108 110C106.02 110 104.04 110 102 110C102 110.66 102 111.32 102 112C103.083 111.845 103.083 111.845 104.188 111.688C107 112 107 112 109.875 114.125C112 117 112 117 111.938 120.188C111 123 111 123 109 125C105.562 125.438 105.562 125.438 102 125C100 122.812 100 122.812 99 120C99.2768 117.094 100.076 114.772 101 112C100.01 112 99.02 112 98 112C97.9729 113.917 97.9535 115.833 97.9375 117.75C97.9259 118.817 97.9143 119.885 97.9023 120.984C97.9849 123.534 98.2538 125.579 99 128C97.35 128 95.7 128 94 128C94 127.01 94 126.02 94 125C92.35 125 90.7 125 89 125C89.33 123.02 89.66 121.04 90 119C88.02 119 86.04 119 84 119C84 118.01 84 117.02 84 116C83.01 116 82.02 116 81 116C81 113.03 81 110.06 81 107Z" fill="#EDC07D"/>
<path d="M23 76C28.94 76 34.88 76 41 76C41 77.32 41 78.64 41 80C41.66 80 42.32 80 43 80C43 84.62 43 89.24 43 94C36.07 94 29.14 94 22 94C21.875 80.5 21.875 80.5 23 76Z" fill="#F47D64"/>
<path d="M142.562 12.9375C143.769 12.9684 143.769 12.9684 145 13C145 14.32 145 15.64 145 17C146.32 17 147.64 17 149 17C149 20.96 149 24.92 149 29C147.865 29.2887 146.731 29.5775 145.562 29.875C144.387 30.2463 143.211 30.6175 142 31C141.67 31.66 141.34 32.32 141 33C136.71 33 132.42 33 128 33C126.017 29.0334 126.458 24.3135 127 20C129.062 16.875 129.062 16.875 132 15C135.75 14.25 135.75 14.25 139 14C140 13 140 13 142.562 12.9375Z" fill="#CF8C68"/>
<path d="M19 39C27.91 39 36.82 39 46 39C46 39.99 46 40.98 46 42C46.99 42 47.98 42 49 42C49 49.92 49 57.84 49 66C48.01 66 47.02 66 46 66C46 66.66 46 67.32 46 68C37.09 68 28.18 68 19 68C19 58.43 19 48.86 19 39ZM23 42C23 49.26 23 56.52 23 64C28.4141 64.0309 28.4141 64.0309 33.9375 64.0625C35.077 64.0716 36.2164 64.0807 37.3904 64.0901C38.2812 64.0926 39.172 64.0951 40.0898 64.0977C41.0063 64.1029 41.9227 64.1081 42.8669 64.1135C44.9836 64.2392 44.9836 64.2392 46 63C46.0869 61.4383 46.107 59.8727 46.0977 58.3086C46.0952 57.4584 46.0927 56.6082 46.0901 55.7322C46.081 54.6449 46.0719 53.5577 46.0625 52.4375C46.0316 47.2709 46.0316 47.2709 46 42C38.41 42 30.82 42 23 42Z" fill="#1F090F"/>
<path d="M37 3C38.32 3 39.64 3 41 3C41 4.65 41 6.3 41 8C41.66 8 42.32 8 43 8C42.67 9.32 42.34 10.64 42 12C41.01 12 40.02 12 39 12C38.67 12.99 38.34 13.98 38 15C37.01 15 36.02 15 35 15C34.9175 15.5569 34.835 16.1137 34.75 16.6875C33.7333 19.8224 32.3255 21.6745 30 24C27.5 24.5625 27.5 24.5625 25 24C22.6875 22.125 22.6875 22.125 21 20C21 19.34 21 18.68 21 18C19.68 17.67 18.36 17.34 17 17C17 13.7 17 10.4 17 7C17.99 7 18.98 7 20 7C20 6.34 20 5.68 20 5C25.61 5 31.22 5 37 5C37 4.34 37 3.68 37 3Z" fill="#63A935"/>
<path d="M30 133C67.62 133 105.24 133 144 133C144 133.99 144 134.98 144 136C106.38 136 68.76 136 30 136C30 135.01 30 134.02 30 133Z" fill="#19050C"/>
<path d="M22 106C22.33 106.99 22.66 107.98 23 109C23.66 108.67 24.32 108.34 25 108C27.4531 107.758 29.8804 107.576 32.3398 107.441C33.0897 107.399 33.8395 107.357 34.612 107.313C43.9262 106.838 53.2392 106.891 62.5625 106.938C64.3639 106.943 66.1654 106.947 67.9668 106.951C72.3112 106.962 76.6556 106.979 81 107C81 109.97 81 112.94 81 116C79.68 116 78.36 116 77 116C77 114.68 77 113.36 77 112C76.3073 112.025 75.6146 112.05 74.9009 112.076C67.6986 112.336 60.4963 112.596 53.2939 112.854C50.6051 112.951 47.9163 113.048 45.2275 113.146C41.3653 113.285 37.5029 113.424 33.6406 113.562C32.4363 113.606 31.2321 113.65 29.9913 113.695C28.8704 113.735 27.7496 113.775 26.5947 113.816C25.1158 113.87 25.1158 113.87 23.607 113.924C21.4055 113.988 19.2025 114 17 114C18 112 18 112 21 111C21.33 109.35 21.66 107.7 22 106Z" fill="#AE6D40"/>
<path d="M78 85C90.21 85 102.42 85 115 85C115 86.32 115 87.64 115 89C110.05 89.33 105.1 89.66 100 90C100 93.3 100 96.6 100 100C90.4286 99 90.4286 99 86 98C85.67 98.99 85.34 99.98 85 101C83.68 101 82.36 101 81 101C81 100.01 81 99.02 81 98C81.66 98 82.32 98 83 98C83.33 95.69 83.66 93.38 84 91C81.69 91 79.38 91 77 91C77.33 89.02 77.66 87.04 78 85Z" fill="#FDEAAB"/>
<path d="M16 8C16.33 8 16.66 8 17 8C17 10.97 17 13.94 17 17C18.98 17.495 18.98 17.495 21 18C21 18.66 21 19.32 21 20C22.32 20.66 23.64 21.32 25 22C25 22.66 25 23.32 25 24C26.65 24 28.3 24 30 24C30.2681 23.4431 30.5362 22.8863 30.8125 22.3125C34.4783 15.1739 34.4783 15.1739 38 14C38.33 13.34 38.66 12.68 39 12C40.32 11.67 41.64 11.34 43 11C43 16.61 43 22.22 43 28C40.1478 28.5342 37.2941 29.0526 34.4375 29.5625C33.6376 29.714 32.8378 29.8654 32.0137 30.0215C27.0079 30.9 22.988 31.011 18 30C18 29.34 18 28.68 18 28C17.34 28 16.68 28 16 28C16 21.4 16 14.8 16 8Z" fill="#257230"/>
<path d="M47 12C47.33 12 47.66 12 48 12C48 14.97 48 17.94 48 21C49.98 21 51.96 21 54 21C53.5455 22.4179 53.0863 23.8343 52.625 25.25C52.2421 26.4334 52.2421 26.4334 51.8516 27.6406C51 30 51 30 49 34C52.3 34 55.6 34 59 34C59 36.64 59 39.28 59 42C56.36 42.99 53.72 43.98 51 45C50.67 52.59 50.34 60.18 50 68C48.68 68 47.36 68 46 68C46 67.34 46 66.68 46 66C46.99 66 47.98 66 49 66C49 58.08 49 50.16 49 42C48.01 42 47.02 42 46 42C46 41.01 46 40.02 46 39C38.08 39 30.16 39 22 39C22 38.67 22 38.34 22 38C24.97 37.67 27.94 37.34 31 37C28.69 36.67 26.38 36.34 24 36C24 35.67 24 35.34 24 35C25.253 34.9858 26.5059 34.9716 27.7969 34.957C29.448 34.9101 31.099 34.8619 32.75 34.8125C33.9875 34.8038 33.9875 34.8038 35.25 34.7949C39.2236 34.6507 41.3495 34.514 44.5312 32C46.4875 28.0043 46.6689 24.5855 46.75 20.1875C46.7945 19.0051 46.7945 19.0051 46.8398 17.7988C46.9101 15.8664 46.9574 13.9332 47 12Z" fill="#D8B078"/>
<path d="M48 4C77.37 4 106.74 4 137 4C137 4.66 137 5.32 137 6C138.65 6 140.3 6 142 6C142 6.99 142 7.98 142 9C143.145 8.93812 143.145 8.93812 144.312 8.875C147 9 147 9 150 11C150.188 13.625 150.188 13.625 150 16C150.99 16.33 151.98 16.66 153 17C149.947 17.9812 148.053 17.9812 145 17C145 15.68 145 14.36 145 13C143.02 13 141.04 13 139 13C138.505 12.01 138.505 12.01 138 11C135.184 10.531 135.184 10.531 131.938 10.375C130.833 10.3002 129.728 10.2255 128.59 10.1484C127.735 10.0995 126.881 10.0505 126 10C125.34 11.98 124.68 13.96 124 16C122.68 16 121.36 16 120 16C120 14.02 120 12.04 120 10C121.32 10 122.64 10 124 10C124 8.35 124 6.7 124 5C98.92 5 73.84 5 48 5C48 4.67 48 4.34 48 4Z" fill="#523735"/>
<path d="M121 37C122.65 37.33 124.3 37.66 126 38C126 44.93 126 51.86 126 59C126.99 59 127.98 59 129 59C129 64.61 129 70.22 129 76C119.25 75.125 119.25 75.125 117 74C115.706 66.5882 115.706 66.5882 117 64C119.31 62.9465 121.643 61.9428 124 61C124.33 57.37 124.66 53.74 125 50C123.68 50 122.36 50 121 50C121 45.71 121 41.42 121 37Z" fill="#F1B974"/>
<path d="M128 111C130 113 130 113 130.195 115.602C130.172 116.599 130.149 117.597 130.125 118.625C130.107 119.628 130.089 120.631 130.07 121.664C130.047 122.435 130.024 123.206 130 124C128.68 124 127.36 124 126 124C126 124.99 126 125.98 126 127C127.212 126.983 127.212 126.983 128.449 126.965C129.518 126.956 130.586 126.947 131.688 126.938C132.743 126.926 133.799 126.914 134.887 126.902C137.738 126.992 140.229 127.363 143 128C144.999 128.339 146.999 128.674 149 129C145.491 132.307 142.845 132.364 138.117 132.328C137.462 132.326 136.806 132.324 136.131 132.322C134.751 132.316 133.371 132.302 131.991 132.281C129.875 132.25 127.76 132.24 125.645 132.234C115.328 132.164 115.328 132.164 113 131C113.33 128.69 113.66 126.38 114 124C115.32 124 116.64 124 118 124C118 124.66 118 125.32 118 126C118.99 125.67 119.98 125.34 121 125C121.733 122.985 121.733 122.985 122 121C122.99 121 123.98 121 125 121C125 118.69 125 116.38 125 114C125.99 114 126.98 114 128 114C128 113.01 128 112.02 128 111Z" fill="#9A4D3F"/>
<path d="M66 116C66.99 116.66 67.98 117.32 69 118C71.0487 118.444 73.1145 118.813 75.1875 119.125C76.8175 119.376 76.8175 119.376 78.4805 119.633C79.7276 119.815 79.7276 119.815 81 120C81 120.99 81 121.98 81 123C80.0358 123.061 79.0716 123.121 78.0781 123.184C76.8148 123.267 75.5516 123.351 74.25 123.437C72.997 123.519 71.7441 123.6 70.4531 123.684C66.6471 124.008 66.6471 124.008 63 125C62.67 125.66 62.34 126.32 62 127C57.38 127 52.76 127 48 127C48.33 125.68 48.66 124.36 49 123C43.06 123 37.12 123 31 123C31 122.67 31 122.34 31 122C36.3287 120.891 41.4628 120.884 46.875 120.937C47.7541 120.942 48.6333 120.946 49.5391 120.951C51.6927 120.963 53.8464 120.981 56 121C55.67 120.01 55.34 119.02 55 118C58.8226 116.201 61.7791 115.633 66 116Z" fill="#F7CD84"/>
<path d="M60 46C62.64 46 65.28 46 68 46C68 46.99 68 47.98 68 49C68.99 48.67 69.98 48.34 71 48C71.33 50.64 71.66 53.28 72 56C71.01 56 70.02 56 69 56C69 56.99 69 57.98 69 59C67.68 59 66.36 59 65 59C65 60.32 65 61.64 65 63C63.02 63 61.04 63 59 63C59.33 62.01 59.66 61.02 60 60C58.68 60 57.36 60 56 60C56 58.68 56 57.36 56 56C54.35 56 52.7 56 51 56C51 54.68 51 53.36 51 52C52.32 52 53.64 52 55 52C55 51.01 55 50.02 55 49C56.65 49 58.3 49 60 49C60 48.01 60 47.02 60 46Z" fill="#71A647"/>
<path d="M59 77C62.63 77 66.26 77 70 77C70 78.32 70 79.64 70 81C70.66 81 71.32 81 72 81C72 83.31 72 85.62 72 88C71.01 88 70.02 88 69 88C69 88.99 69 89.98 69 91C67.68 91 66.36 91 65 91C65 91.99 65 92.98 65 94C63.35 93.67 61.7 93.34 60 93C60 92.34 60 91.68 60 91C59.34 91 58.68 91 58 91C58 90.34 58 89.68 58 89C57.01 88.67 56.02 88.34 55 88C55.33 85.03 55.66 82.06 56 79C56.99 79.33 57.98 79.66 59 80C59 79.01 59 78.02 59 77Z" fill="#56723A"/>
<path d="M126 10C129.96 10 133.92 10 138 10C138.66 11.32 139.32 12.64 140 14C139 15 139 15 135.688 15.3125C131.519 16.0897 130.5 16.6687 128 20C127.517 23.274 127.517 23.274 127.75 26.75C127.786 27.9205 127.822 29.0909 127.859 30.2969C127.906 31.1889 127.952 32.0809 128 33C125.69 33 123.38 33 121 33C121 28.38 121 23.76 121 19C119.68 18.67 118.36 18.34 117 18C117 17.01 117 16.02 117 15C119.31 15.33 121.62 15.66 124 16C124.144 15.3813 124.289 14.7625 124.438 14.125C125 12 125 12 126 10Z" fill="#B16D58"/>
<path d="M86 62C86 63.98 86 65.96 86 68C85.01 68 84.02 68 83 68C83 68.99 83 69.98 83 71C85.97 71 88.94 71 92 71C92 72.65 92 74.3 92 76C88.713 76.7995 87.2898 77.0966 84 76C84 77.65 84 79.3 84 81C82.02 81 80.04 81 78 81C78.33 78.36 78.66 75.72 79 73C77.68 73 76.36 73 75 73C75 72.01 75 71.02 75 70C73.35 70 71.7 70 70 70C70 68.68 70 67.36 70 66C71.65 66 73.3 66 75 66C75 65.34 75 64.68 75 64C76.6456 63.6655 78.2915 63.3324 79.9375 63C81.3123 62.7216 81.3123 62.7216 82.7148 62.4375C85 62 85 62 86 62Z" fill="#FAD48E"/>
<path d="M25 47C30.61 47 36.22 47 42 47C42 54 42 54 39.9375 57.375C36.519 60.4298 34.5126 60.823 30 61C30 59.68 30 58.36 30 57C28.68 57 27.36 57 26 57C25 55 25 55 25 47Z" fill="#F4C388"/>
<path d="M129 106C135.27 106 141.54 106 148 106C148 106.99 148 107.98 148 109C147.397 109.121 146.793 109.242 146.172 109.367C144.973 109.619 144.973 109.619 143.75 109.875C142.567 110.119 142.567 110.119 141.359 110.367C138.982 111.005 137.081 111.683 135 113C133.325 118.024 133.764 122.901 135 128C132.03 127.67 129.06 127.34 126 127C126 126.01 126 125.02 126 124C127.32 124 128.64 124 130 124C129.67 118.06 129.34 112.12 129 106Z" fill="#C1755B"/>
<path d="M81 38C86.94 38 92.88 38 99 38C99.0977 46.4961 99.0977 46.4961 99 49C98 50 98 50 94.4375 50.0625C93.3031 50.0419 92.1688 50.0213 91 50C91 48.68 91 47.36 91 46C90.0925 46.1031 89.185 46.2062 88.25 46.3125C85 46 85 46 82.625 43.6875C81 41 81 41 81 38Z" fill="#F5C67F"/>
<path d="M127 88C127.33 88 127.66 88 128 88C128 93.61 128 99.22 128 105C130.456 104.983 130.456 104.983 132.961 104.965C135.099 104.955 137.237 104.946 139.375 104.938C140.455 104.929 141.535 104.921 142.648 104.912C144.195 104.907 144.195 104.907 145.773 104.902C146.727 104.897 147.68 104.892 148.662 104.886C151 105 151 105 153 106C153 106.99 153 107.98 153 109C151.68 109 150.36 109 149 109C148.67 108.34 148.34 107.68 148 107C141.73 106.67 135.46 106.34 129 106C128.67 108.64 128.34 111.28 128 114C127.01 114 126.02 114 125 114C125 116.31 125 118.62 125 121C124.01 121 123.02 121 122 121C121.505 123.475 121.505 123.475 121 126C120.01 126 119.02 126 118 126C117.67 123.69 117.34 121.38 117 119C117.99 119 118.98 119 120 119C120.33 116.69 120.66 114.38 121 112C121.99 112 122.98 112 124 112C124 109.69 124 107.38 124 105C124.99 105 125.98 105 127 105C127 99.39 127 93.78 127 88Z" fill="#40191A"/>
<path d="M18 72C26.91 72 35.82 72 45 72C45 72.99 45 73.98 45 75C46.32 75 47.64 75 49 75C49 78.63 49 82.26 49 86C48.01 86 47.02 86 46 86C46 82.7 46 79.4 46 76C37.75 76 29.5 76 21 76C20.67 77.65 20.34 79.3 20 81C19.34 81 18.68 81 18 81C18 78.03 18 75.06 18 72Z" fill="#3C0B0C"/>
<path d="M46 112C56.23 112 66.46 112 77 112C77 113.32 77 114.64 77 116C78.32 116 79.64 116 81 116C81 117.32 81 118.64 81 120C79.0618 119.886 77.1244 119.758 75.1875 119.625C74.1086 119.555 73.0296 119.486 71.918 119.414C69 119 69 119 66 117C63.9746 116.636 63.9746 116.636 61.7695 116.586C60.9671 116.547 60.1646 116.509 59.3379 116.469C58.0878 116.422 58.0878 116.422 56.8125 116.375C55.545 116.317 55.545 116.317 54.252 116.258C52.1683 116.164 50.0842 116.081 48 116C48 115.34 48 114.68 48 114C47.34 113.34 46.68 112.68 46 112Z" fill="#E1AB6C"/>
<path d="M50 52C50.33 53.32 50.66 54.64 51 56C52.65 56 54.3 56 56 56C56 59.96 56 63.92 56 68C54.02 68.99 54.02 68.99 52 70C52 70.66 52 71.32 52 72C50.02 72 48.04 72 46 72C45.67 72.99 45.34 73.98 45 75C45 74.01 45 73.02 45 72C37.08 72 29.16 72 21 72C21 71.67 21 71.34 21 71C29.25 71 37.5 71 46 71C46 70.34 46 69.68 46 69C37.75 69 29.5 69 21 69C21 68.67 21 68.34 21 68C30.57 68 40.14 68 50 68C50 62.72 50 57.44 50 52Z" fill="#D9CABD"/>
<path d="M16 8C16.33 8 16.66 8 17 8C17 10.97 17 13.94 17 17C18.98 17.495 18.98 17.495 21 18C21 18.66 21 19.32 21 20C22.32 20.66 23.64 21.32 25 22C25 22.66 25 23.32 25 24C26.65 24 28.3 24 30 24C30.2681 23.4431 30.5362 22.8863 30.8125 22.3125C34.4783 15.1739 34.4783 15.1739 38 14C38.66 13.34 39.32 12.68 40 12C39.67 13.32 39.34 14.64 39 16C38.01 16 37.02 16 36 16C36.66 18.31 37.32 20.62 38 23C36.35 23.33 34.7 23.66 33 24C33 24.66 33 25.32 33 26C31.68 26 30.36 26 29 26C29 26.66 29 27.32 29 28C27.3968 28.1955 25.7924 28.3811 24.1875 28.5625C23.2942 28.6669 22.4009 28.7713 21.4805 28.8789C19 29 19 29 16 28C16 21.4 16 14.8 16 8Z" fill="#45A24B"/>
<path d="M78 85C90.21 85 102.42 85 115 85C115 86.32 115 87.64 115 89C102.79 89 90.58 89 78 89C78 87.68 78 86.36 78 85Z" fill="#784B33"/>
<path d="M38 6C39.65 6.66 41.3 7.32 43 8C42.67 9.32 42.34 10.64 42 12C41.01 12 40.02 12 39 12C38.67 12.99 38.34 13.98 38 15C37.01 15 36.02 15 35 15C34.9175 15.5569 34.835 16.1137 34.75 16.6875C33.7333 19.8224 32.3255 21.6745 30 24C27.5 24.5625 27.5 24.5625 25 24C22.6875 22.125 22.6875 22.125 21 20C21 19.34 21 18.68 21 18C20.34 18 19.68 18 19 18C19 16.68 19 15.36 19 14C21.31 14.33 23.62 14.66 26 15C26 15.99 26 16.98 26 18C26.99 18 27.98 18 29 18C29 17.01 29 16.02 29 15C29.99 14.67 30.98 14.34 32 14C33.2088 11.9998 33.2088 11.9998 34 10C35.32 10 36.64 10 38 10C38 8.68 38 7.36 38 6Z" fill="#E1F3D5"/>
<path d="M101 110C101.33 110.66 101.66 111.32 102 112C103.083 111.845 103.083 111.845 104.188 111.688C107 112 107 112 109.875 114.125C112 117 112 117 111.938 120.188C111 123 111 123 109 125C105.562 125.438 105.562 125.438 102 125C100 122.812 100 122.812 99 120C99.25 117.5 99.25 117.5 100 115C100.186 114.072 100.371 113.144 100.562 112.188C100.707 111.466 100.851 110.744 101 110Z" fill="#EDBE77"/>
<path d="M100 39C100.66 39 101.32 39 102 39C102 41.64 102 44.28 102 47C102.99 47 103.98 47 105 47C105 47.99 105 48.98 105 50C108.3 50.66 111.6 51.32 115 52C115 52.33 115 52.66 115 53C102.46 53 89.92 53 77 53C77 52.67 77 52.34 77 52C78.6706 51.8762 78.6706 51.8762 80.375 51.75C84.0575 51.4213 84.0575 51.4213 85.4375 48.9375C85.7159 47.9784 85.7159 47.9784 86 47C87.32 47 88.64 47 90 47C90 47.99 90 48.98 90 50C93.3 50 96.6 50 100 50C100 46.37 100 42.74 100 39Z" fill="#FEF8C3"/>
<path d="M95 15C96.32 15 97.64 15 99 15C99 16.32 99 17.64 99 19C100.32 19 101.64 19 103 19C103 21.64 103 24.28 103 27C101.68 27 100.36 27 99 27C99 27.66 99 28.32 99 29C93.25 29.125 93.25 29.125 91 28C91 25.03 91 22.06 91 19C92.32 19 93.64 19 95 19C95 17.68 95 16.36 95 15Z" fill="#5B3522"/>
<path d="M77 15C78.65 15 80.3 15 82 15C82 16.32 82 17.64 82 19C82.99 19 83.98 19 85 19C85 21.97 85 24.94 85 28C80.545 28.495 80.545 28.495 76 29C76 28.34 76 27.68 76 27C75.34 27 74.68 27 74 27C74 24.36 74 21.72 74 19C74.99 19 75.98 19 77 19C77 17.68 77 16.36 77 15Z" fill="#492015"/>
<path d="M59 15C60.65 15 62.3 15 64 15C64 16.32 64 17.64 64 19C64.99 19 65.98 19 67 19C67 21.97 67 24.94 67 28C63.37 28 59.74 28 56 28C56 24.7 56 21.4 56 18C56.99 18 57.98 18 59 18C59 17.01 59 16.02 59 15Z" fill="#4A1C11"/>
<path d="M157 110C157 114.29 157 118.58 157 123C155.68 123 154.36 123 153 123C153 124.32 153 125.64 153 127C152.34 127 151.68 127 151 127C151 127.66 151 128.32 151 129C149.68 129 148.36 129 147 129C147.506 126.831 148 125 149 123C149.096 121.336 149.13 119.667 149.125 118C149.128 117.113 149.13 116.226 149.133 115.313C149.151 112.973 149.151 112.973 148 111C150.957 109.522 153.742 109.94 157 110Z" fill="#B96F4A"/>
<path d="M135 101C139.29 101 143.58 101 148 101C148 101.99 148 102.98 148 104C150.97 104 153.94 104 157 104C157.66 105.32 158.32 106.64 159 108C159.66 108.33 160.32 108.66 161 109C161 113.62 161 118.24 161 123C159.68 123 158.36 123 157 123C156.505 116.565 156.505 116.565 156 110C155.01 109.67 154.02 109.34 153 109C153 108.01 153 107.02 153 106C145.74 105.67 138.48 105.34 131 105C131 104.67 131 104.34 131 104C136.28 104 141.56 104 147 104C147 103.34 147 102.68 147 102C143.04 102 139.08 102 135 102C135 101.67 135 101.34 135 101Z" fill="#22050C"/>
<path d="M142.001 112C143.981 112.99 145.961 113.98 148.001 115C148.196 121.055 148.196 121.055 148.001 123C146.001 125 146.001 125 144.091 125.23C138.112 125.111 138.112 125.111 137.001 124C136.489 118.801 136.489 118.801 137.001 116C139.501 113.5 139.501 113.5 142.001 112Z" fill="#C57553"/>
<path d="M78 54C90.21 54 102.42 54 115 54C115 54.99 115 55.98 115 57C102.79 57 90.58 57 78 57C78 56.01 78 55.02 78 54Z" fill="#532C1B"/>
<path d="M34.2812 38.8047C34.9773 38.8111 35.6734 38.8175 36.3906 38.8242C37.0867 38.8409 37.7828 38.8577 38.5 38.875C39.227 38.884 39.9541 38.893 40.7031 38.9023C42.4689 38.9255 44.2345 38.9614 46 39C46 39.99 46 40.98 46 42C38.41 42 30.82 42 23 42C23 49.26 23 56.52 23 64C29.93 64 36.86 64 44 64C44 64.33 44 64.66 44 65C36.74 65 29.48 65 22 65C22 57.08 22 49.16 22 41C31 38.75 31 38.75 34.2812 38.8047Z" fill="#4B322C"/>
<path d="M67 38C70.96 38 74.92 38 79 38C79 40.64 79 43.28 79 46C80.65 46 82.3 46 84 46C84 47.32 84 48.64 84 50C82.02 50 80.04 50 78 50C78 49.01 78 48.02 78 47C77.3813 46.8762 76.7625 46.7525 76.125 46.625C74 46 74 46 72 44C69.4294 43.3523 69.4294 43.3523 67 43C67 41.35 67 39.7 67 38Z" fill="#EFB770"/>
<path d="M103 38C107.29 38 111.58 38 116 38C116 40.64 116 43.28 116 46C111.71 46 107.42 46 103 46C103 43.36 103 40.72 103 38Z" fill="#F3C37F"/>
<path d="M45 42C45.33 42 45.66 42 46 42C46 48.93 46 55.86 46 63C42.8683 64.0439 41.175 64.007 37.9375 63.6875C37.0596 63.6089 36.1818 63.5302 35.2773 63.4492C33 63 33 63 31 61C32.0931 60.5875 33.1862 60.175 34.3125 59.75C37.5427 58.3405 39.3752 57.2495 41 54C41.7248 50.3473 41.7248 50.3473 42 47C42.66 47 43.32 47 44 47C44.33 45.35 44.66 43.7 45 42Z" fill="#E7D2AD"/>
<path d="M17 0C21.62 0 26.24 0 31 0C31 0.33 31 0.66 31 1C26.71 1 22.42 1 18 1C19.1885 2.41775 19.1885 2.41775 22.5977 2.09766C24.086 2.09098 25.5743 2.07902 27.0625 2.0625C28.2004 2.05573 28.2004 2.05573 29.3613 2.04883C31.2409 2.03701 33.1205 2.01907 35 2C35 2.99 35 3.98 35 5C30.05 5 25.1 5 20 5C20 5.66 20 6.32 20 7C18.68 7.33 17.36 7.66 16 8C15.67 14.27 15.34 20.54 15 27C14.67 27 14.34 27 14 27C14 19.74 14 12.48 14 5C14.99 4.67 15.98 4.34 17 4C17 2.68 17 1.36 17 0Z" fill="#2D191C"/>
<path d="M98 112C98.99 112 99.98 112 101 112C100.794 113.237 100.588 114.475 100.375 115.75C100.093 118.201 99.9991 119.995 100.438 122.438C103.104 125.104 106.333 124.763 110 125C110 125.66 110 126.32 110 127C108.35 127 106.7 127 105 127C105 127.66 105 128.32 105 129C106.65 129 108.3 129 110 129C110 129.66 110 130.32 110 131C105.05 131 100.1 131 95 131C94.67 130.01 94.34 129.02 94 128C95.32 127.67 96.64 127.34 98 127C97.67 126.01 97.34 125.02 97 124C96.7391 115.783 96.7391 115.783 98 112Z" fill="#C47B4E"/>
<path d="M95 110C95.66 110.33 96.32 110.66 97 111C96.67 115.29 96.34 119.58 96 124C96.66 124 97.32 124 98 124C98.33 125.32 98.66 126.64 99 128C97.35 128 95.7 128 94 128C94 127.01 94 126.02 94 125C92.35 125 90.7 125 89 125C89.875 120.25 89.875 120.25 91 118C89.02 118 87.04 118 85 118C85 117.34 85 116.68 85 116C86.0931 115.938 87.1862 115.876 88.3125 115.812C92.1433 115.387 92.1433 115.387 93.9375 112.438C94.2881 111.633 94.6387 110.829 95 110Z" fill="#F6D493"/>
<path d="M23 76C28.61 76 34.22 76 40 76C40 77.65 40 79.3 40 81C34.72 81 29.44 81 24 81C24 81.99 24 82.98 24 84C23.34 84 22.68 84 22 84C22.33 81.36 22.66 78.72 23 76Z" fill="#FABFA9"/>
<path d="M25.0004 49C29.7504 49.875 29.7504 49.875 32.0004 51C32.0004 51.66 32.0004 52.32 32.0004 53C33.6504 53.33 35.3004 53.66 37.0004 54C37.0004 55.98 37.0004 57.96 37.0004 60C34.6904 60.33 32.3804 60.66 30.0004 61C30.0004 59.68 30.0004 58.36 30.0004 57C28.6804 57 27.3604 57 26.0004 57C24.646 54.2912 24.9354 51.9907 25.0004 49Z" fill="#E58B59"/>
<path d="M102 110C103.98 110 105.96 110 108 110C108 110.66 108 111.32 108 112C109.65 112 111.3 112 113 112C113.66 114.64 114.32 117.28 115 120C115.66 120 116.32 120 117 120C117 121.65 117 123.3 117 125C116.01 124.67 115.02 124.34 114 124C114 125.32 114 126.64 114 128C111.03 128.33 108.06 128.66 105 129C105 128.34 105 127.68 105 127C106.65 127 108.3 127 110 127C109.67 126.01 109.34 125.02 109 124C109.66 123.01 110.32 122.02 111 121C110.918 117.923 110.918 117.923 110 115C107.082 113.055 105.375 112.547 102 112C102 111.34 102 110.68 102 110Z" fill="#D39A5F"/>
<path d="M104 63C105.32 63 106.64 63 108 63C107.412 66.0248 106.77 69.0164 106 72C105.814 72.7425 105.629 73.485 105.438 74.25C105.293 74.8275 105.149 75.405 105 76C102.674 76.3806 100.339 76.7127 98 77C97 76 97 76 96.9375 73.4375C96.9581 72.6331 96.9787 71.8288 97 71C98.32 70.67 99.64 70.34 101 70C101 69.01 101 68.02 101 67C101.66 66.67 102.32 66.34 103 66C103.33 65.01 103.66 64.02 104 63Z" fill="#F6CE88"/>
<path d="M153 17C153 21.29 153 25.58 153 30C152.01 30.33 151.02 30.66 150 31C149.67 31.99 149.34 32.98 149 34C143.25 34.125 143.25 34.125 141 33C141.33 32.01 141.66 31.02 142 30C145.465 29.505 145.465 29.505 149 29C149 25.37 149 21.74 149 18C151 17 151 17 153 17Z" fill="#2A0813"/>
<path d="M49 75C49.33 75 49.66 75 50 75C50 77.97 50 80.94 50 84C51.65 84 53.3 84 55 84C55.33 83.34 55.66 82.68 56 82C55.67 83.98 55.34 85.96 55 88C53.68 88 52.36 88 51 88C51 91.3 51 94.6 51 98C50.01 98 49.02 98 48 98C48 98.99 48 99.98 48 101C46.68 101 45.36 101 44 101C44 100.01 44 99.02 44 98C44.99 98 45.98 98 47 98C47 95.69 47 93.38 47 91C47.66 91 48.32 91 49 91C49 85.72 49 80.44 49 75Z" fill="#C4A782"/>
<path d="M100 15C105.61 15 111.22 15 117 15C117 15.99 117 16.98 117 18C116.01 18 115.02 18 114 18C114 18.99 114 19.98 114 21C111.03 21 108.06 21 105 21C104.67 20.01 104.34 19.02 104 18C102.68 18.33 101.36 18.66 100 19C100 17.68 100 16.36 100 15Z" fill="#FEF7C4"/>
<path d="M117 18C118.32 18.33 119.64 18.66 121 19C121 23.62 121 28.24 121 33C126.94 33 132.88 33 139 33C139 33.33 139 33.66 139 34C131.74 34 124.48 34 117 34C117 28.72 117 23.44 117 18Z" fill="#461F1C"/>
<path d="M12 4C13.98 4 15.96 4 18 4C16.68 4.33 15.36 4.66 14 5C14.66 5.66 15.32 6.32 16 7C16.2271 9.15479 16.2271 9.15479 16.1953 11.7891C16.1889 12.7301 16.1824 13.6711 16.1758 14.6406C16.159 15.6255 16.1423 16.6103 16.125 17.625C16.116 18.6176 16.107 19.6102 16.0977 20.6328C16.074 23.0888 16.0411 25.5443 16 28C15.34 28 14.68 28 14 28C14 28.66 14 29.32 14 30C13.34 30 12.68 30 12 30C12 21.42 12 12.84 12 4Z" fill="#1B0E13"/>
<path d="M25 128C33.58 128 42.16 128 51 128C51 128.66 51 129.32 51 130C47.6561 131.011 44.6252 131.115 41.1406 131.098C40.0256 131.094 38.9105 131.091 37.7617 131.088C36.6029 131.08 35.444 131.071 34.25 131.062C33.0757 131.058 31.9013 131.053 30.6914 131.049C27.7942 131.037 24.8971 131.021 22 131C22.99 130.67 23.98 130.34 25 130C25 129.34 25 128.68 25 128Z" fill="#C47251"/>
<path d="M66 107C70.95 107 75.9 107 81 107C81 109.97 81 112.94 81 116C79.68 116 78.36 116 77 116C77 114.35 77 112.7 77 111C75.9275 111.021 74.855 111.041 73.75 111.062C70.8521 111.014 68.7139 110.868 66 110C66 109.01 66 108.02 66 107Z" fill="#4D2116"/>
<path d="M69 88C72.2598 89.1241 72.9619 89.9281 74.625 93.0625C75.0788 94.0319 75.5325 95.0013 76 96C76.66 96.33 77.32 96.66 78 97C78 97.66 78 98.32 78 99C74.7 99 71.4 99 68 99C68 97.35 68 95.7 68 94C67.01 94 66.02 94 65 94C65 93.01 65 92.02 65 91C66.32 91 67.64 91 69 91C69 90.01 69 89.02 69 88Z" fill="#F2D38F"/>
<path d="M21 101C28.59 101 36.18 101 44 101C44 102.32 44 103.64 44 105C38.39 105 32.78 105 27 105C27 104.01 27 103.02 27 102C25.02 102 23.04 102 21 102C21 101.67 21 101.34 21 101Z" fill="#5D5266"/>
<path d="M132 106C137.28 106 142.56 106 148 106C148 106.99 148 107.98 148 109C147.397 109.11 146.793 109.219 146.172 109.332C141.713 110.217 138.491 110.928 135 114C134.34 114 133.68 114 133 114C132.67 111.36 132.34 108.72 132 106Z" fill="#CE835F"/>
<path d="M56 81C56.66 81.33 57.32 81.66 58 82C57.67 83.98 57.34 85.96 57 88C61.4472 88.2118 64.9209 87.8542 69 86C70.4206 83.9986 70.4206 83.9986 71 82C71 83.65 71 85.3 71 87C70.34 87 69.68 87 69 87C69 88.32 69 89.64 69 91C67.68 91 66.36 91 65 91C65 91.99 65 92.98 65 94C63.35 93.67 61.7 93.34 60 93C60 92.34 60 91.68 60 91C59.34 91 58.68 91 58 91C58 90.34 58 89.68 58 89C57.01 88.67 56.02 88.34 55 88C55.33 85.69 55.66 83.38 56 81Z" fill="#35271A"/>
<path d="M16 8C16.33 8 16.66 8 17 8C17 10.97 17 13.94 17 17C18.98 17.495 18.98 17.495 21 18C21 18.66 21 19.32 21 20C21.99 20.33 22.98 20.66 24 21C24 22.98 24 24.96 24 27C23.0512 26.9794 22.1025 26.9588 21.125 26.9375C18.0933 26.7745 18.0933 26.7745 16 28C16 21.4 16 14.8 16 8Z" fill="#448530"/>
<path d="M126 10C129.96 10 133.92 10 138 10C138.66 11.32 139.32 12.64 140 14C139 15 139 15 135.621 15.0977C134.227 15.091 132.832 15.079 131.438 15.0625C130.727 15.058 130.016 15.0535 129.283 15.0488C127.522 15.037 125.761 15.0191 124 15C124.66 13.35 125.32 11.7 126 10Z" fill="#AB5F49"/>
<path d="M124 4C128.29 4 132.58 4 137 4C137 4.99 137 5.98 137 7C138.32 7.33 139.64 7.66 141 8C137.39 9.13481 134.016 9.10016 130.25 9.0625C129.08 9.05348 127.909 9.04445 126.703 9.03516C125.811 9.02355 124.919 9.01195 124 9C124 7.35 124 5.7 124 4Z" fill="#25060F"/>
<path d="M121 112C123.31 112.33 125.62 112.66 128 113C127.01 113.33 126.02 113.66 125 114C125 116.31 125 118.62 125 121C124.01 121 123.02 121 122 121C121.67 122.65 121.34 124.3 121 126C120.01 126 119.02 126 118 126C117.67 123.69 117.34 121.38 117 119C117.99 119 118.98 119 120 119C120.33 116.69 120.66 114.38 121 112Z" fill="#5B2C29"/>
<path d="M81 116C81.99 116 82.98 116 84 116C84 116.99 84 117.98 84 119C87.465 118.505 87.465 118.505 91 118C90.34 120.31 89.68 122.62 89 125C90.32 125.66 91.64 126.32 93 127C92.67 127.33 92.34 127.66 92 128C89.6606 127.713 87.3261 127.381 85 127C85 125.02 85 123.04 85 121C84.34 121 83.68 121 83 121C82.67 121.66 82.34 122.32 82 123C81.67 120.69 81.34 118.38 81 116Z" fill="#7B4325"/>
<path d="M21 98C28.26 98 35.52 98 43 98C43 98.99 43 99.98 43 101C35.74 101 28.48 101 21 101C21 100.01 21 99.02 21 98Z" fill="#1B0208"/>
<path d="M24 35C31.92 35 39.84 35 48 35C47.67 36.32 47.34 37.64 47 39C38.75 39 30.5 39 22 39C22 38.67 22 38.34 22 38C26.455 37.505 26.455 37.505 31 37C28.69 36.67 26.38 36.34 24 36C24 35.67 24 35.34 24 35Z" fill="#D3C8BB"/>
<path d="M23 42C28.61 42.33 34.22 42.66 40 43C37 46 37 46 33.8633 46.293C28.9316 46.1465 28.9316 46.1465 24 46C24 51.94 24 57.88 24 64C23.67 64 23.34 64 23 64C23 56.74 23 49.48 23 42Z" fill="#FCF7D7"/>
<path d="M128 111C130 113 130 113 130.195 115.602C130.172 116.599 130.149 117.597 130.125 118.625C130.107 119.628 130.089 120.631 130.07 121.664C130.036 122.82 130.036 122.82 130 124C128.68 124 127.36 124 126 124C125.67 125.32 125.34 126.64 125 128C124.67 128 124.34 128 124 128C124.33 123.38 124.66 118.76 125 114C125.99 114 126.98 114 128 114C128 113.01 128 112.02 128 111Z" fill="#9A5951"/>
<path d="M16.9995 105C18.6495 105 20.2995 105 21.9995 105C21.9995 106.98 21.9995 108.96 21.9995 111C21.0327 111.29 21.0327 111.29 20.0463 111.586C17.656 112.887 17.656 112.887 17.3901 116.039C17.3437 117.222 17.2973 118.406 17.2495 119.625C17.1928 120.814 17.136 122.002 17.0776 123.227C17.0518 124.142 17.026 125.057 16.9995 126C18.6495 126 20.2995 126 21.9995 126C21.6695 126.66 21.3395 127.32 20.9995 128C19.3495 127.67 17.6995 127.34 15.9995 127C15.7761 124.459 15.5705 121.918 15.3745 119.375C15.31 118.662 15.2456 117.949 15.1792 117.215C14.8445 112.655 15.2171 109.313 16.9995 105Z" fill="#573A32"/>
<path d="M22 94C28.93 94 35.86 94 43 94C43 94.99 43 95.98 43 97C36.07 97 29.14 97 22 97C22 96.01 22 95.02 22 94Z" fill="#941B1C"/>
<path d="M51 88C53.31 88.33 55.62 88.66 58 89C58 89.66 58 90.32 58 91C58.66 91 59.32 91 60 91C60.33 91.99 60.66 92.98 61 94C57.2703 96.0344 55.3309 97 51 97C51 94.03 51 91.06 51 88Z" fill="#EDC793"/>
<path d="M27.418 110.902C28.6716 110.906 29.9252 110.909 31.2168 110.912C33.1823 110.925 33.1823 110.925 35.1875 110.938C36.5228 110.943 37.8581 110.947 39.1934 110.951C42.4623 110.963 45.7311 110.979 49 111C45.6427 113.238 44.3221 113.291 40.3789 113.414C38.7286 113.472 38.7286 113.472 37.0449 113.531C35.3211 113.578 35.3211 113.578 33.5625 113.625C31.8445 113.683 31.8445 113.683 30.0918 113.742C25.7251 113.885 21.3693 114 17 114C19.0182 109.964 23.4432 110.884 27.418 110.902Z" fill="#CA8850"/>
<path d="M103 94C107 95 107 95 110 97C111.326 97.6818 112.658 98.3519 114 99C114 100.32 114 101.64 114 103C111.03 103 108.06 103 105 103C104.34 100.03 103.68 97.06 103 94Z" fill="#FADA9A"/>
<path d="M40 76C40.33 77.32 40.66 78.64 41 80C41.66 80 42.32 80 43 80C43 84.62 43 89.24 43 94C41.02 94 39.04 94 37 94C37 92.68 37 91.36 37 90C37.66 90 38.32 90 39 90C39.33 85.38 39.66 80.76 40 76Z" fill="#D33E33"/>
<path d="M121 37C123.475 37.495 123.475 37.495 126 38C126 41.96 126 45.92 126 50C124.35 50 122.7 50 121 50C121 45.71 121 41.42 121 37Z" fill="#C88C5D"/>
<path d="M95 15C96.32 15 97.64 15 99 15C99 16.32 99 17.64 99 19C100.32 19 101.64 19 103 19C103 21.64 103 24.28 103 27C102.34 27 101.68 27 101 27C101 25.02 101 23.04 101 21C100.34 21 99.68 21 99 21C99 22.32 99 23.64 99 25C97.68 24.67 96.36 24.34 95 24C95 22.68 95 21.36 95 20C94.34 19.67 93.68 19.34 93 19C93.66 19 94.32 19 95 19C95 17.68 95 16.36 95 15Z" fill="#613724"/>
<path d="M51 56C52.65 56 54.3 56 56 56C56 59.96 56 63.92 56 68C54.35 68 52.7 68 51 68C51 64.04 51 60.08 51 56Z" fill="#EAC392"/>
<path d="M114 18C114.99 18 115.98 18 117 18C117.33 23.61 117.66 29.22 118 35C117.34 35 116.68 35 116 35C116 31.37 116 27.74 116 24C112.04 24 108.08 24 104 24C104 23.01 104 22.02 104 21C107.3 21 110.6 21 114 21C114 20.01 114 19.02 114 18Z" fill="#F0CD8B"/>
<path d="M83 12.9999C86.6041 12.9704 90.2083 12.953 93.8125 12.9374C94.8173 12.929 95.8221 12.9207 96.8574 12.912C103.629 12.8903 110.269 13.2629 117 13.9999C117 14.3299 117 14.6599 117 14.9999C111.39 14.9999 105.78 14.9999 100 14.9999C99.67 16.3199 99.34 17.6399 99 18.9999C99 17.6799 99 16.3599 99 14.9999C97.68 14.9999 96.36 14.9999 95 14.9999C95 16.3199 95 17.6399 95 18.9999C93.68 18.6699 92.36 18.3399 91 17.9999C91.99 17.9999 92.98 17.9999 94 17.9999C94 17.0099 94 16.0199 94 14.9999C90.37 14.6699 86.74 14.3399 83 13.9999C83 13.6699 83 13.3399 83 12.9999Z" fill="#F5DA9B"/>
<path d="M92 128C92.33 128.99 92.66 129.98 93 131C85.2723 131.137 77.6912 130.752 70 130C70 129.34 70 128.68 70 128C72.3537 127.803 74.7075 127.617 77.0625 127.437C78.3735 127.333 79.6845 127.229 81.0352 127.121C84.9233 127.002 88.1911 127.331 92 128Z" fill="#C87850"/>
<path d="M13 110C13.99 110.33 14.98 110.66 16 111C16 116.28 16 121.56 16 127C16.99 127.33 17.98 127.66 19 128C18.34 128 17.68 128 17 128C16.67 128.66 16.34 129.32 16 130C16 129.34 16 128.68 16 128C15.01 128 14.02 128 13 128C13 122.06 13 116.12 13 110Z" fill="#210A10"/>
<path d="M120 108C120.66 108 121.32 108 122 108C121.67 111.96 121.34 115.92 121 120C119.68 120 118.36 120 117 120C116.34 120.66 115.68 121.32 115 122C114.34 119.03 113.68 116.06 113 113C115.31 113 117.62 113 120 113C120 111.35 120 109.7 120 108Z" fill="#EEC47F"/>
<path d="M20.9995 76C21.6595 76 22.3195 76 22.9995 76C22.6695 81.94 22.3395 87.88 21.9995 94C21.0095 94 20.0195 94 18.9995 94C18.1272 91.0052 17.8912 88.3642 17.937 85.25C17.9461 84.4508 17.9551 83.6516 17.9644 82.8281C17.976 82.2248 17.9876 81.6216 17.9995 81C18.6595 80.67 19.3195 80.34 19.9995 80C20.6517 77.9754 20.6517 77.9754 20.9995 76Z" fill="#98221F"/>
<path d="M67 81C67.33 81.99 67.66 82.98 68 84C67.34 84 66.68 84 66 84C65.67 85.32 65.34 86.64 65 88C64.34 88 63.68 88 63 88C62.67 88.66 62.34 89.32 62 90C62 89.34 62 88.68 62 88C60.35 88 58.7 88 57 88C57 86.02 57 84.04 57 82C60.3 81.67 63.6 81.34 67 81Z" fill="#3C7B2C"/>
<path d="M98 93C99.4606 95.6474 100 96.8944 100 100C97.03 99.67 94.06 99.34 91 99C90.34 97.35 89.68 95.7 89 94C92.1964 92.9345 94.6575 92.9257 98 93Z" fill="#FADD99"/>
<path d="M94 15.0001C94 15.9901 94 16.9801 94 18.0001C93.01 18.0001 92.02 18.0001 91 18.0001C90.67 20.3101 90.34 22.6201 90 25.0001C89.01 25.3301 88.02 25.6601 87 26.0001C86.67 26.6601 86.34 27.3201 86 28.0001C85.9188 26.3967 85.8607 24.7922 85.8125 23.1876C85.7777 22.2943 85.7429 21.4009 85.707 20.4805C86 18.0001 86 18.0001 87.3438 16.1876C89.6076 14.5644 91.2831 14.7798 94 15.0001Z" fill="#FDEFB6"/>
<path d="M77.5002 9.97827C78.5843 10.0254 79.6683 10.0725 80.7852 10.1211C82.5399 10.1936 82.5399 10.1936 84.3301 10.2676C86.1776 10.3517 86.1776 10.3517 88.0625 10.4375C89.2981 10.4897 90.5336 10.5419 91.8066 10.5957C94.8713 10.7259 97.9357 10.8608 101 11C101 11.33 101 11.66 101 12C100.445 12.0198 99.8908 12.0396 99.3193 12.0601C96.7958 12.1556 94.273 12.2651 91.75 12.375C90.8773 12.4059 90.0046 12.4369 89.1055 12.4688C88.2611 12.5074 87.4168 12.5461 86.5469 12.5859C85.7718 12.6174 84.9968 12.6488 84.1982 12.6812C81.7506 13.0362 80.0909 13.6869 78 15C77.1947 17.05 77.1947 17.05 77 19C76.01 19 75.02 19 74 19C74 21.31 74 23.62 74 26C73.67 26 73.34 26 73 26C73 23.36 73 20.72 73 18C73.99 18 74.98 18 76 18C75.34 15.69 74.68 13.38 74 11C75 10 75 10 77.5002 9.97827Z" fill="#E8C483"/>
<path d="M58 56C61.63 56 65.26 56 69 56C69 56.99 69 57.98 69 59C67.68 59 66.36 59 65 59C65 60.32 65 61.64 65 63C63.02 63 61.04 63 59 63C59.66 61.68 60.32 60.36 61 59C59.68 59 58.36 59 57 59C57.33 58.01 57.66 57.02 58 56Z" fill="#526E36"/>
<path d="M150 110C151.98 110 153.96 110 156 110C156 113.96 156 117.92 156 122C155.34 121.67 154.68 121.34 154 121C154.33 120.01 154.66 119.02 155 118C154.34 118 153.68 118 153 118C152.67 118.66 152.34 119.32 152 120C151.67 117.69 151.34 115.38 151 113C150.01 112.67 149.02 112.34 148 112C148.66 111.34 149.32 110.68 150 110Z" fill="#D58B5A"/>
<path d="M91 125C91.99 125 92.98 125 94 125C94 126.32 94 127.64 94 129C97.3 129 100.6 129 104 129C104 129.33 104 129.66 104 130C106.97 130.495 106.97 130.495 110 131C110 130.01 110 129.02 110 128C110.99 128 111.98 128 113 128C113 128.99 113 129.98 113 131C113.66 131.33 114.32 131.66 115 132C107.74 132 100.48 132 93 132C92.34 129.69 91.68 127.38 91 125Z" fill="#AB6046"/>
<path d="M153 123C154.32 123 155.64 123 157 123C157 124.98 157 126.96 157 129C156.01 129.33 155.02 129.66 154 130C154 130.66 154 131.32 154 132C151.03 132 148.06 132 145 132C145.33 131.34 145.66 130.68 146 130C148.562 129.375 148.562 129.375 151 129C151 128.34 151 127.68 151 127C151.66 127 152.32 127 153 127C153 125.68 153 124.36 153 123Z" fill="#27161F"/>
<path d="M21 102C22.98 102 24.96 102 27 102C27 102.99 27 103.98 27 105C32.28 105 37.56 105 43 105C43 105.33 43 105.66 43 106C41.5885 106.073 41.5885 106.073 40.1484 106.148C38.2806 106.261 38.2806 106.261 36.375 106.375C35.1452 106.445 33.9155 106.514 32.6484 106.586C29.1635 106.981 26.2695 107.763 23 109C21.5394 106.353 21 105.106 21 102Z" fill="#F1E4D7"/>
<path d="M42 3.00001C43.6661 2.95729 45.3338 2.95938 47 3.00001C48 4.00001 48 4.00001 48.0977 5.84767C48.0651 7.89845 48.0326 9.94923 48 12C47.67 12 47.34 12 47 12C46.67 17.28 46.34 22.56 46 28C45.67 28 45.34 28 45 28C44.9394 26.7238 44.8788 25.4477 44.8164 24.1328C44.732 22.4635 44.6474 20.7943 44.5625 19.125C44.5232 18.2833 44.4839 17.4415 44.4434 16.5742C44.4015 15.7686 44.3596 14.9629 44.3164 14.1328C44.2797 13.3892 44.2431 12.6456 44.2053 11.8794C44.1004 9.91137 44.1004 9.91137 43 8.00001C42.34 7.67001 41.68 7.34001 41 7.00001C41.33 5.68001 41.66 4.36001 42 3.00001Z" fill="#250E15"/>
<path d="M67 38C70.96 38 74.92 38 79 38C79 40.64 79 43.28 79 46C80.65 46 82.3 46 84 46C84 47.32 84 48.64 84 50C82.02 50 80.04 50 78 50C78 49.01 78 48.02 78 47C77.01 46.67 76.02 46.34 75 46C75.99 46 76.98 46 78 46C78 43.69 78 41.38 78 39C76.5412 39.1411 75.083 39.288 73.625 39.4375C72.8129 39.5187 72.0008 39.5999 71.1641 39.6836C68.9573 39.8909 68.9573 39.8909 67 41C67 40.01 67 39.02 67 38Z" fill="#F2C27B"/>
<path d="M76 112C76.33 113.32 76.66 114.64 77 116C78.32 116 79.64 116 81 116C81 117.32 81 118.64 81 120C79.0413 119.859 77.083 119.712 75.125 119.562C74.0345 119.481 72.9439 119.4 71.8203 119.316C69 119 69 119 67 118C67 117.34 67 116.68 67 116C69.97 116 72.94 116 76 116C76 114.68 76 113.36 76 112Z" fill="#C8925E"/>
<path d="M65 107C65.33 107.99 65.66 108.98 66 110C67.32 110.33 68.64 110.66 70 111C63.4 111 56.8 111 50 111C51 109 51 109 54 108C55.8921 107.778 57.7888 107.594 59.6875 107.438C60.6814 107.354 61.6752 107.27 62.6992 107.184C63.4585 107.123 64.2177 107.062 65 107Z" fill="#9F5A32"/>
<path d="M15 82C15.99 82.33 16.98 82.66 18 83C18.33 87.29 18.66 91.58 19 96C17.68 96.33 16.36 96.66 15 97C15 92.05 15 87.1 15 82Z" fill="#270911"/>
<path d="M49 20C51.31 20 53.62 20 56 20C56 22.64 56 25.28 56 28C57.98 28 59.96 28 62 28C62 28.33 62 28.66 62 29C58.04 29.66 54.08 30.32 50 31C50.99 28.03 51.98 25.06 53 22C51.68 21.34 50.36 20.68 49 20Z" fill="#E9C185"/>
<path d="M22 128C22 128.99 22 129.98 22 131C23.4231 130.969 23.4231 130.969 24.875 130.938C28 131 28 131 30 132C30 132.66 30 133.32 30 134C27.03 134 24.06 134 21 134C20.67 133.34 20.34 132.68 20 132C17.4727 131.344 17.4727 131.344 15 131C15.33 130.01 15.66 129.02 16 128C19 127 19 127 22 128Z" fill="#2F1921"/>
<path d="M158 108C158.99 108.33 159.98 108.66 161 109C161 113.62 161 118.24 161 123C159.68 123 158.36 123 157 123C157.33 118.05 157.66 113.1 158 108Z" fill="#3A1C28"/>
<path d="M63 112C67.29 112 71.58 112 76 112C76 113.32 76 114.64 76 116C69.07 115.505 69.07 115.505 62 115C62.33 114.01 62.66 113.02 63 112Z" fill="#F7CB86"/>
<path d="M126 52C127.32 52 128.64 52 130 52C130 60.25 130 68.5 130 77C129.67 77 129.34 77 129 77C129 71.06 129 65.12 129 59C128.01 59 127.02 59 126 59C126 56.69 126 54.38 126 52Z" fill="#A86749"/>
<path d="M47 12C47.33 12 47.66 12 48 12C48 19.26 48 26.52 48 34C47.01 34 46.02 34 45 34C45 34.66 45 35.32 45 36C42.36 36 39.72 36 37 36C37 35.67 37 35.34 37 35C37.9281 34.7525 38.8562 34.505 39.8125 34.25C43.3987 32.8436 44.1907 32.3241 46 29C46.4987 26.0898 46.6019 23.1979 46.6875 20.25C46.7217 19.4572 46.7558 18.6645 46.791 17.8477C46.8732 15.8989 46.9383 13.9495 47 12Z" fill="#8B715A"/>
<path d="M25 25C27.75 24.75 27.75 24.75 31 25C33.375 27 33.375 27 35 29C28.9777 30.4662 24.0963 31.3253 18 30C18.33 29.34 18.66 28.68 19 28C22.3 28 25.6 28 29 28C29 27.34 29 26.68 29 26C27.68 25.67 26.36 25.34 25 25Z" fill="#236330"/>
<path d="M143 33C143 34.32 143 35.64 143 37C139.7 37 136.4 37 133 37C133 36.34 133 35.68 133 35C129.37 35 125.74 35 122 35C122 34.67 122 34.34 122 34C124.75 33.8319 127.5 33.6655 130.25 33.5C131.027 33.4523 131.805 33.4046 132.605 33.3555C133.737 33.2878 133.737 33.2878 134.891 33.2188C135.582 33.1769 136.273 33.135 136.985 33.0918C138.988 33.0005 140.995 33 143 33Z" fill="#1C020A"/>
<path d="M131.75 8.93747C132.447 8.94198 133.145 8.94649 133.863 8.95114C135.576 8.96287 137.288 8.9808 139 8.99997C138.67 9.65997 138.34 10.32 138 11C134.04 10.67 130.08 10.34 126 9.99997C125.34 11.98 124.68 13.96 124 16C122.68 16 121.36 16 120 16C120 14.02 120 12.04 120 9.99997C123.867 8.73415 127.732 8.88809 131.75 8.93747Z" fill="#864237"/>
<path d="M51 128C57.27 128 63.54 128 70 128C70 128.66 70 129.32 70 130C64.06 130.33 58.12 130.66 52 131C51.67 130.01 51.34 129.02 51 128Z" fill="#C06D49"/>
<path d="M23 65C29.93 65 36.86 65 44 65C44 65.33 44 65.66 44 66C41.8135 66.3397 39.6257 66.6714 37.4375 67C35.6103 67.2784 35.6103 67.2784 33.7461 67.5625C30.1237 67.9856 26.6429 68.075 23 68C23 67.01 23 66.02 23 65Z" fill="#12040A"/>
<path d="M59 29C59 30.65 59 32.3 59 34C55.7 34 52.4 34 49 34C49 33.01 49 32.02 49 31C52.5078 29.3964 55.1435 28.7796 59 29Z" fill="#FCDF96"/>
<path d="M129 106C130.32 106.33 131.64 106.66 133 107C133 109.31 133 111.62 133 114C133.66 114.33 134.32 114.66 135 115C133.68 115.99 132.36 116.98 131 118C129.002 113.879 128.822 110.548 129 106Z" fill="#AF6856"/>
<path d="M83 19C83.66 19 84.32 19 85 19C85 21.97 85 24.94 85 28C82.36 28.33 79.72 28.66 77 29C77 28.01 77 27.02 77 26C78.65 26 80.3 26 82 26C81.9794 25.0306 81.9588 24.0612 81.9375 23.0625C82 20 82 20 83 19Z" fill="#34100A"/>
<path d="M60 16C61.32 16 62.64 16 64 16C64 16.99 64 17.98 64 19C64.99 19 65.98 19 67 19C67 21.97 67 24.94 67 28C64.03 27.505 64.03 27.505 61 27C61.66 26.34 62.32 25.68 63 25C63.2421 23.0187 63.2421 23.0187 63.125 20.875C63.0631 18.9569 63.0631 18.9569 63 17C62.34 17 61.68 17 61 17C60.67 17.66 60.34 18.32 60 19C60 18.01 60 17.02 60 16Z" fill="#2F0A06"/>
<path d="M20 5C23.96 5 27.92 5 32 5C32 5.66 32 6.32 32 7C27.38 7.33 22.76 7.66 18 8C18.33 10.97 18.66 13.94 19 17C18.34 17 17.68 17 17 17C17 13.7 17 10.4 17 7C17.99 7 18.98 7 20 7C20 6.34 20 5.68 20 5Z" fill="#80BA48"/>
<path d="M149 27C149.934 30.0103 150.044 30.8665 149 34C143.25 34.125 143.25 34.125 141 33C141.33 32.01 141.66 31.02 142 30C145.465 29.505 145.465 29.505 149 29C149 28.34 149 27.68 149 27Z" fill="#3A1B1E"/>
<path d="M14 84C14.33 84 14.66 84 15 84C15.33 87.96 15.66 91.92 16 96C17.65 95.67 19.3 95.34 21 95C21 96.98 21 98.96 21 101C20.01 101 19.02 101 18 101C18 100.01 18 99.02 18 98C16.68 98 15.36 98 14 98C14 93.38 14 88.76 14 84Z" fill="#5B4B51"/>
<path d="M36 30C38.31 30.33 40.62 30.66 43 31C42.67 32.32 42.34 33.64 42 35C39.36 35 36.72 35 34 35C34.66 33.35 35.32 31.7 36 30Z" fill="#310A18"/>
<path d="M56 81C56.66 81.33 57.32 81.66 58 82C57.67 83.98 57.34 85.96 57 88C60.522 88.08 63.6198 88.0401 67 87C67 87.66 67 88.32 67 89C66.01 89 65.02 89 64 89C64 89.66 64 90.32 64 91C63.01 91 62.02 91 61 91C60.67 91.66 60.34 92.32 60 93C60 92.34 60 91.68 60 91C59.34 91 58.68 91 58 91C58 90.34 58 89.68 58 89C57.01 88.67 56.02 88.34 55 88C55.33 85.69 55.66 83.38 56 81Z" fill="#3E4929"/>
<path d="M93 62C95.31 62 97.62 62 100 62C100 63.65 100 65.3 100 67C97.69 67 95.38 67 93 67C93 65.35 93 63.7 93 62Z" fill="#F8D48A"/>
<path d="M30 48C32.64 48 35.28 48 38 48C37.67 49.65 37.34 51.3 37 53C35.35 53 33.7 53 32 53C32 52.34 32 51.68 32 51C31.34 51 30.68 51 30 51C30 50.01 30 49.02 30 48Z" fill="#FAD4A2"/>
<path d="M42 11C43.5345 14.0689 42.5498 16.7009 42 20C40.35 20.33 38.7 20.66 37 21C36.67 19.35 36.34 17.7 36 16C36.99 15.67 37.98 15.34 39 15C39.33 14.01 39.66 13.02 40 12C40.66 11.67 41.32 11.34 42 11Z" fill="#2B9B33"/>
<path d="M35.6875 13.375C36.4506 13.5813 37.2138 13.7875 38 14C37.01 14.33 36.02 14.66 35 15C34.6566 16.3308 34.3238 17.6643 34 19C31 21 31 21 28.3125 20.625C27.5494 20.4188 26.7862 20.2125 26 20C27.32 19.67 28.64 19.34 30 19C30 17.68 30 16.36 30 15C33 13 33 13 35.6875 13.375Z" fill="#F0F9DE"/>
<path d="M130 105C133.458 104.971 136.917 104.953 140.375 104.938C141.36 104.929 142.345 104.921 143.359 104.912C144.771 104.907 144.771 104.907 146.211 104.902C147.515 104.894 147.515 104.894 148.845 104.886C151 105 151 105 153 106C153 106.99 153 107.98 153 109C151.68 109 150.36 109 149 109C148.67 108.34 148.34 107.68 148 107C142.06 106.67 136.12 106.34 130 106C130 105.67 130 105.34 130 105Z" fill="#561F1E"/>
<path d="M49 88C49.33 88 49.66 88 50 88C50 90.97 50 93.94 50 97C49.34 97 48.68 97 48 97C48 98.32 48 99.64 48 101C46.68 101 45.36 101 44 101C44 100.01 44 99.02 44 98C44.99 98 45.98 98 47 98C47 95.69 47 93.38 47 91C47.66 91 48.32 91 49 91C49 90.01 49 89.02 49 88Z" fill="#836F68"/>
<path d="M45 75C46.32 75 47.64 75 49 75C49 78.63 49 82.26 49 86C48.01 86 47.02 86 46 86C45.67 82.37 45.34 78.74 45 75Z" fill="#170608"/>
<path d="M37 3C38.32 3 39.64 3 41 3C40.67 4.32 40.34 5.64 40 7C39.34 6.67 38.68 6.34 38 6C38 7.32 38 8.64 38 10C36.68 10 35.36 10 34 10C33.67 10.66 33.34 11.32 33 12C33 10.35 33 8.7 33 7C34.32 6.34 35.64 5.68 37 5C37 4.34 37 3.68 37 3Z" fill="#56974B"/>
<path d="M81 107C81.33 108.32 81.66 109.64 82 111C83.9838 112.284 83.9838 112.284 86 113C85.67 114.65 85.34 116.3 85 118C86.65 118 88.3 118 90 118C90 118.33 90 118.66 90 119C88.02 119 86.04 119 84 119C84 118.01 84 117.02 84 116C83.01 116 82.02 116 81 116C81 113.03 81 110.06 81 107Z" fill="#D2A46D"/>
<path d="M24 81C26.31 81 28.62 81 31 81C30.2884 81.6187 30.2884 81.6187 29.5625 82.25C27.8373 84.1822 27.4342 85.4819 27 88C25.68 88 24.36 88 23 88C22.67 88.66 22.34 89.32 22 90C22 88.02 22 86.04 22 84C22.66 84 23.32 84 24 84C24 83.01 24 82.02 24 81Z" fill="#F68F73"/>
<path d="M18 8C20.3125 7.6875 20.3125 7.6875 23 8C24.8125 10.5 24.8125 10.5 26 13C23.69 13 21.38 13 19 13C18.67 13.66 18.34 14.32 18 15C18 12.69 18 10.38 18 8Z" fill="#5FC831"/>
<path d="M25 128C31.93 128.495 31.93 128.495 39 129C38.67 129.66 38.34 130.32 38 131C32.72 131 27.44 131 22 131C22.99 130.67 23.98 130.34 25 130C25 129.34 25 128.68 25 128Z" fill="#CE7C5A"/>
<path d="M45 63C45.33 63.66 45.66 64.32 46 65C46.99 65.33 47.98 65.66 49 66C48.01 66 47.02 66 46 66C46 66.66 46 67.32 46 68C40.72 68 35.44 68 30 68C30 67.67 30 67.34 30 67C34.62 66.67 39.24 66.34 44 66C44.33 65.01 44.66 64.02 45 63Z" fill="#1D1117"/>
<path d="M124 86C124.33 86 124.66 86 125 86C125.054 87.4371 125.093 88.8748 125.125 90.3125C125.148 91.113 125.171 91.9135 125.195 92.7383C125 95 125 95 123 98C120.375 98.1875 120.375 98.1875 118 98C118 96.68 118 95.36 118 94C119.98 94 121.96 94 124 94C124 91.36 124 88.72 124 86Z" fill="#EDC584"/>
<path d="M35 22C35.99 22.33 36.98 22.66 38 23C38 23.99 38 24.98 38 26C38.99 26 39.98 26 41 26C41.33 25.34 41.66 24.68 42 24C42 24.99 42 25.98 42 27C35.9453 27.9766 35.9453 27.9766 34 28C33.34 27.34 32.68 26.68 32 26C32.33 25.34 32.66 24.68 33 24C33.66 24 34.32 24 35 24C35 23.34 35 22.68 35 22Z" fill="#27873C"/>
<path d="M98.0004 112C98.9904 112 99.9804 112 101 112C100.707 113.986 100.414 115.971 100.122 117.957C99.8614 120.203 99.8614 120.203 101 123C99.6804 123.33 98.3604 123.66 97.0004 124C96.8576 115.429 96.8576 115.429 98.0004 112Z" fill="#B97A51"/>
<path d="M60 77C63.3 77 66.6 77 70 77C70 77.99 70 78.98 70 80C66.7 80 63.4 80 60 80C60 79.01 60 78.02 60 77Z" fill="#464E31"/>
<path d="M14 5C16.97 5.495 16.97 5.495 20 6C18.02 6.99 18.02 6.99 16 8C15.67 14.27 15.34 20.54 15 27C14.67 27 14.34 27 14 27C14 19.74 14 12.48 14 5Z" fill="#241617"/>
<path d="M41 76C42.32 76 43.64 76 45 76C45 79.63 45 83.26 45 87C44.34 86.67 43.68 86.34 43 86C43 84.02 43 82.04 43 80C42.34 80 41.68 80 41 80C41 78.68 41 77.36 41 76Z" fill="#AD1816"/>
<path d="M26.125 68.4375C27.2207 68.5394 28.3164 68.6412 29.4453 68.7461C30.2884 68.8299 31.1314 68.9137 32 69C28.7151 71.19 27.169 71.3528 23.3125 71.625C21.8217 71.7372 21.8217 71.7372 20.3008 71.8516C19.1619 71.9251 19.1619 71.9251 18 72C18 71.01 18 70.02 18 69C20.8356 67.5823 22.9909 68.1375 26.125 68.4375Z" fill="#F3F1F5"/>
<path d="M70 48C70.33 48 70.66 48 71 48C71.33 50.64 71.66 53.28 72 56C70.02 56 68.04 56 66 56C68.875 49.125 68.875 49.125 70 48Z" fill="#63863C"/>
<path d="M77 21C78.32 21 79.64 21 81 21C81.33 22.65 81.66 24.3 82 26C80.35 26 78.7 26 77 26C76.67 26.99 76.34 27.98 76 29C76 28.34 76 27.68 76 27C75.34 26.67 74.68 26.34 74 26C74.99 25.67 75.98 25.34 77 25C77 23.68 77 22.36 77 21Z" fill="#A37C5E"/>
<path d="M56 97.0001C56 98.3201 56 99.6401 56 101C57.65 101 59.3 101 61 101C61 101.33 61 101.66 61 102C59.02 102 57.04 102 55 102C55 100.68 55 99.3601 55 98.0001C54.01 98.0001 53.02 98.0001 52 98.0001C51.34 99.3201 50.68 100.64 50 102C49.34 102 48.68 102 48 102C48 100.68 48 99.3601 48 98.0001C50.9282 97.024 52.9561 96.9178 56 97.0001Z" fill="#F7E5A8"/>
<path d="M41 85C41.33 85 41.66 85 42 85C42 87.97 42 90.94 42 94C40.35 94 38.7 94 37 94C37 92.68 37 91.36 37 90C37.66 90 38.32 90 39 90C39.33 89.01 39.66 88.02 40 87C40.33 86.34 40.66 85.68 41 85Z" fill="#E35041"/>
<path d="M117 18C118.98 18.99 118.98 18.99 121 20C120.67 22.31 120.34 24.62 120 27C119.01 27.33 118.02 27.66 117 28C117 24.7 117 21.4 117 18Z" fill="#3C1B18"/>
<path d="M140.848 109.902C142.898 109.935 144.949 109.967 147 110C139.5 115 139.5 115 136 115C138.404 110.031 138.404 110.031 140.848 109.902Z" fill="#98523E"/>
<path d="M98 122C98.99 122.33 99.98 122.66 101 123C101 124.32 101 125.64 101 127C101.66 127 102.32 127 103 127C103 127.66 103 128.32 103 129C100.03 129 97.06 129 94 129C95.32 128.34 96.64 127.68 98 127C98 125.35 98 123.7 98 122Z" fill="#D89960"/>
<path d="M86 122C86.99 122.33 87.98 122.66 89 123C89 123.66 89 124.32 89 125C90.32 125.66 91.64 126.32 93 127C92 128 92 128 89.5 128.125C87 128 87 128 86 127C85.9594 125.334 85.9573 123.666 86 122Z" fill="#542113"/>
<path d="M111 124C111.99 124 112.98 124 114 124C114 125.32 114 126.64 114 128C109.545 128.495 109.545 128.495 105 129C105 128.34 105 127.68 105 127C106.65 127 108.3 127 110 127C110.33 126.01 110.66 125.02 111 124Z" fill="#EAB26E"/>
<path d="M117 119C118.32 119.33 119.64 119.66 121 120C121 121.98 121 123.96 121 126C120.01 126 119.02 126 118 126C117.67 123.69 117.34 121.38 117 119Z" fill="#47191C"/>
<path d="M55 59C55.33 59 55.66 59 56 59C56 61.97 56 64.94 56 68C54.35 68 52.7 68 51 68C51 67.34 51 66.68 51 66C51.66 66 52.32 66 53 66C53.66 63.69 54.32 61.38 55 59Z" fill="#E4BE85"/>
<path d="M20 21C21.32 21 22.64 21 24 21C24 22.98 24 24.96 24 27C22.02 27 20.04 27 18 27C18.99 26.01 19.98 25.02 21 24C20.34 23.34 19.68 22.68 19 22C19.33 21.67 19.66 21.34 20 21Z" fill="#33962E"/>
<path d="M58 11C60.31 11 62.62 11 65 11C64.67 12.32 64.34 13.64 64 15C62.35 15 60.7 15 59 15C58.67 13.68 58.34 12.36 58 11Z" fill="#F5D193"/>
<path d="M95 122C95.33 122.66 95.66 123.32 96 124C96.66 124 97.32 124 98 124C98.33 125.32 98.66 126.64 99 128C97.35 128 95.7 128 94 128C94 127.01 94 126.02 94 125C92.68 125 91.36 125 90 125C90.33 124.34 90.66 123.68 91 123C92.98 123.495 92.98 123.495 95 124C95 123.34 95 122.68 95 122Z" fill="#FBE19B"/>
<path d="M59 82C60.32 82 61.64 82 63 82C63 83.65 63 85.3 63 87C61.35 87 59.7 87 58 87C58.33 85.35 58.66 83.7 59 82Z" fill="#348E27"/>
<path d="M41 50C41.25 52.25 41.25 52.25 41 55C39 57.3125 39 57.3125 37 59C36.67 57.02 36.34 55.04 36 53C39.875 50 39.875 50 41 50Z" fill="#EDA876"/>
<path d="M102 110C103.98 110 105.96 110 108 110C108 110.66 108 111.32 108 112C109.32 112 110.64 112 112 112C112 112.99 112 113.98 112 115C108.7 114.01 105.4 113.02 102 112C102 111.34 102 110.68 102 110Z" fill="#BD8046"/>
<path d="M17 114C21.3889 114.665 24.9811 116.188 29 118C28.67 118.66 28.34 119.32 28 120C24.37 118.68 20.74 117.36 17 116C17 115.34 17 114.68 17 114Z" fill="#E3AE6F"/>
<path d="M78.0004 108C78.9904 108 79.9804 108 81.0004 108C81.0004 110.64 81.0004 113.28 81.0004 116C80.3404 116 79.6804 116 79.0004 116C77.646 113.291 77.9354 110.991 78.0004 108Z" fill="#3E120F"/>
<path d="M46 86C46.99 86 47.98 86 49 86C49 87.65 49 89.3 49 91C48.34 91 47.68 91 47 91C47 93.31 47 95.62 47 98C46.67 98 46.34 98 46 98C46 94.04 46 90.08 46 86Z" fill="#3E2C2F"/>
<path d="M55 88C55.99 88.33 56.98 88.66 58 89C58 89.66 58 90.32 58 91C58.66 91 59.32 91 60 91C60.33 91.99 60.66 92.98 61 94C59.3339 94.0427 57.6662 94.0406 56 94C55 93 55 93 54.9375 90.4375C54.9581 89.6331 54.9787 88.8288 55 88Z" fill="#BB9972"/>
<path d="M76 91C78.64 91 81.28 91 84 91C83.67 91.99 83.34 92.98 83 94C81.35 93.67 79.7 93.34 78 93C77.67 93.99 77.34 94.98 77 96C76.67 94.35 76.34 92.7 76 91Z" fill="#FEF7BC"/>
<path d="M23 88C23.99 88 24.98 88 26 88C26 89.98 26 91.96 26 94C24.68 94 23.36 94 22 94C22.33 92.02 22.66 90.04 23 88Z" fill="#DA4F3A"/>
<path d="M46 72C47.32 72 48.64 72 50 72C51.2624 74.5248 51.0986 76.312 51.0625 79.125C51.0535 80.0351 51.0445 80.9452 51.0352 81.8828C51.0236 82.5815 51.012 83.2802 51 84C50.67 84 50.34 84 50 84C50 81.03 50 78.06 50 75C48.68 75 47.36 75 46 75C46 74.01 46 73.02 46 72Z" fill="#FBF2CC"/>
<path d="M24 46C25.32 46.33 26.64 46.66 28 47C27.01 47 26.02 47 25 47C25.1136 48.6467 25.2412 50.2924 25.375 51.9375C25.4446 52.854 25.5142 53.7705 25.5859 54.7148C25.7226 55.4689 25.8592 56.223 26 57C26.66 57.33 27.32 57.66 28 58C26.68 58.33 25.36 58.66 24 59C24 54.71 24 50.42 24 46Z" fill="#F8DCA9"/>
<path d="M44 44C44 44.99 44 45.98 44 47C38.72 47 33.44 47 28 47C28 46.67 28 46.34 28 46C28.843 45.9394 29.6861 45.8788 30.5547 45.8164C31.6504 45.7326 32.7461 45.6488 33.875 45.5625C34.9655 45.4813 36.0561 45.4001 37.1797 45.3164C39.736 45.0296 41.4948 44 44 44Z" fill="#FCEDBC"/>
<path d="M120 10C120.99 10 121.98 10 123 10C123.33 11.98 123.66 13.96 124 16C122.68 16 121.36 16 120 16C120 14.02 120 12.04 120 10Z" fill="#623525"/>
<path d="M82 107C84.31 107.33 86.62 107.66 89 108C89 108.66 89 109.32 89 110C86.69 110.33 84.38 110.66 82 111C82 109.68 82 108.36 82 107Z" fill="#F3D18A"/>
<path d="M79 46C80.65 46 82.3 46 84 46C84 47.32 84 48.64 84 50C82.02 50 80.04 50 78 50C78.33 48.68 78.66 47.36 79 46Z" fill="#FBD289"/>
<path d="M81 116C81.99 116 82.98 116 84 116C84 116.99 84 117.98 84 119C87.465 118.505 87.465 118.505 91 118C91 118.66 91 119.32 91 120C87.7 120 84.4 120 81 120C81 118.68 81 117.36 81 116Z" fill="#47160D"/>
<path d="M35 84C36.32 84 37.64 84 39 84C39 85.65 39 87.3 39 89C37.68 89 36.36 89 35 89C35 87.35 35 85.7 35 84Z" fill="#FBA387"/>
<path d="M70 66C71.65 66 73.3 66 75 66C75 67.32 75 68.64 75 70C73.35 70 71.7 70 70 70C70 68.68 70 67.36 70 66Z" fill="#FBDE99"/>
<path d="M55 49C55.9342 52.0103 56.0445 52.8665 55 56C53.68 56 52.36 56 51 56C51 54.68 51 53.36 51 52C52.32 52 53.64 52 55 52C55 51.01 55 50.02 55 49Z" fill="#B9A16D"/>
<path d="M82 25C82.33 25.66 82.66 26.32 83 27C83.66 27.33 84.32 27.66 85 28C82.36 28.33 79.72 28.66 77 29C77 28.01 77 27.02 77 26C78.65 25.67 80.3 25.34 82 25Z" fill="#4D291B"/>
<path d="M151 127C153 130.875 153 130.875 153 132C150.36 132 147.72 132 145 132C145.33 131.34 145.66 130.68 146 130C148.562 129.375 148.562 129.375 151 129C151 128.34 151 127.68 151 127Z" fill="#35100E"/>
<path d="M18 107C18.99 107 19.98 107 21 107C21.33 108.32 21.66 109.64 22 111C20.35 111.33 18.7 111.66 17 112C17.33 110.35 17.66 108.7 18 107Z" fill="#23070E"/>
<path d="M61 59C62.32 59 63.64 59 65 59C65 60.32 65 61.64 65 63C63.02 63 61.04 63 59 63C59.66 61.68 60.32 60.36 61 59Z" fill="#5D472A"/>
<path d="M39 28C41.31 28.33 43.62 28.66 46 29C45.34 30.32 44.68 31.64 44 33C42 32 42 32 39 30C39 29.34 39 28.68 39 28Z" fill="#1E0D10"/>
<path d="M92 19C92.99 19.33 93.98 19.66 95 20C95 21.98 95 23.96 95 26C94.01 26 93.02 26 92 26C92 23.69 92 21.38 92 19Z" fill="#452215"/>
<path d="M117 15C119.31 15.33 121.62 15.66 124 16C123.01 16.495 123.01 16.495 122 17C122 17.66 122 18.32 122 19C120.35 18.67 118.7 18.34 117 18C117 17.01 117 16.02 117 15Z" fill="#9E6141"/>
<path d="M76 113C76 113.99 76 114.98 76 116C73.36 115.67 70.72 115.34 68 115C71.2279 112.848 72.284 112.799 76 113Z" fill="#FAD891"/>
<path d="M95 20C96.32 20.33 97.64 20.66 99 21C99 22.32 99 23.64 99 25C97.68 24.67 96.36 24.34 95 24C95 22.68 95 21.36 95 20Z" fill="#CBA47F"/>
<path d="M117 115C118.32 115 119.64 115 121 115C121 116.65 121 118.3 121 120C119.68 119.67 118.36 119.34 117 119C117 117.68 117 116.36 117 115Z" fill="#BA754B"/>
<path d="M148 107C148.33 107.66 148.66 108.32 149 109C151.31 109 153.62 109 156 109C156 109.33 156 109.66 156 110C147.571 111.286 147.571 111.286 143 110C143 109.67 143 109.34 143 109C144.65 109 146.3 109 148 109C148 108.34 148 107.68 148 107Z" fill="#B46848"/>
<path d="M142 106C143.98 106 145.96 106 148 106C148 106.99 148 107.98 148 109C146.02 109 144.04 109 142 109C142 108.01 142 107.02 142 106Z" fill="#DD8F62"/>
<path d="M56 49C56.99 49.33 57.98 49.66 59 50C58.34 51.98 57.68 53.96 57 56C56.34 56 55.68 56 55 56C55.33 53.69 55.66 51.38 56 49Z" fill="#4B7E34"/>
<path d="M136 10C136.99 10.33 137.98 10.66 139 11C139.33 11.99 139.66 12.98 140 14C138.68 14.33 137.36 14.66 136 15C135.67 14.01 135.34 13.02 135 12C135.33 11.34 135.66 10.68 136 10Z" fill="#B76D51"/>
<path d="M22 7C23.65 7 25.3 7 27 7C26.67 8.65 26.34 10.3 26 12C24.6457 10.688 23.3127 9.35369 22 8C22 7.67 22 7.34 22 7Z" fill="#6EB82C"/>
</svg>
