<svg width="165" height="152" viewBox="0 0 165 152" fill="none" xmlns="http://www.w3.org/2000/svg">
<path d="M35.4375 0.360718C66.4575 0.360718 97.4775 0.360718 129.438 0.360718C129.438 1.35072 129.438 2.34072 129.438 3.36072C134.718 3.36072 139.997 3.36072 145.438 3.36072C145.438 4.68072 145.438 6.00072 145.438 7.36072C147.747 7.36072 150.057 7.36072 152.438 7.36072C152.768 8.02072 153.097 8.68072 153.438 9.36072C155.462 10.0129 155.462 10.0129 157.438 10.3607C157.438 12.0107 157.438 13.6607 157.438 15.3607C158.758 15.3607 160.077 15.3607 161.438 15.3607C161.438 20.3107 161.438 25.2607 161.438 30.3607C160.117 30.3607 158.798 30.3607 157.438 30.3607C157.107 31.3507 156.778 32.3407 156.438 33.3607C154.788 33.3607 153.138 33.3607 151.438 33.3607C151.438 34.6807 151.438 36.0007 151.438 37.3607C145.497 37.3607 139.557 37.3607 133.438 37.3607C133.438 55.8407 133.438 74.3207 133.438 93.3607C132.447 93.3607 131.457 93.3607 130.438 93.3607C130.438 96.0007 130.438 98.6407 130.438 101.361C135.387 101.361 140.338 101.361 145.438 101.361C145.438 102.351 145.438 103.341 145.438 104.361C148.078 104.361 150.717 104.361 153.438 104.361C153.768 106.011 154.097 107.661 154.438 109.361C155.428 109.361 156.418 109.361 157.438 109.361C157.438 113.321 157.438 117.281 157.438 121.361C156.447 121.361 155.457 121.361 154.438 121.361C154.438 123.671 154.438 125.981 154.438 128.361C153.447 128.361 152.457 128.361 151.438 128.361C151.438 129.681 151.438 131.001 151.438 132.361C150.447 132.361 149.457 132.361 148.438 132.361C148.438 133.351 148.438 134.341 148.438 135.361C145.467 135.361 142.497 135.361 139.438 135.361C139.438 136.351 139.438 137.341 139.438 138.361C103.138 138.361 66.8375 138.361 29.4375 138.361C29.4375 137.371 29.4375 136.381 29.4375 135.361C26.1375 135.361 22.8375 135.361 19.4375 135.361C19.4375 134.371 19.4375 133.381 19.4375 132.361C17.7875 132.361 16.1375 132.361 14.4375 132.361C14.4375 131.041 14.4375 129.721 14.4375 128.361C13.1175 128.361 11.7975 128.361 10.4375 128.361C10.3561 126.132 10.2981 123.903 10.25 121.673C10.2152 120.432 10.1804 119.19 10.1445 117.911C10.454 114.161 11.1215 112.294 13.4375 109.361C14.0975 109.361 14.7575 109.361 15.4375 109.361C15.4375 106.721 15.4375 104.081 15.4375 101.361C16.7575 101.361 18.0775 101.361 19.4375 101.361C19.4375 98.3907 19.4375 95.4207 19.4375 92.3607C20.9225 91.8657 20.9225 91.8657 22.4375 91.3607C22.7675 87.7307 23.0975 84.1007 23.4375 80.3607C24.0975 80.3607 24.7575 80.3607 25.4375 80.3607C25.3174 75.7748 25.1931 71.1891 25.0652 66.6034C25.0224 65.05 24.9807 63.4967 24.9402 61.9432C24.6813 52.0554 24.2436 42.2218 23.4375 32.3607C22.4475 32.0307 21.4575 31.7007 20.4375 31.3607C20.4375 25.4207 20.4375 19.4807 20.4375 13.3607C21.7575 13.3607 23.0775 13.3607 24.4375 13.3607C24.4375 11.3807 24.4375 9.40072 24.4375 7.36072C25.4275 7.03072 26.4175 6.70072 27.4375 6.36072C27.7675 5.37072 28.0975 4.38072 28.4375 3.36072C30.7475 3.36072 33.0575 3.36072 35.4375 3.36072C35.4375 2.37072 35.4375 1.38072 35.4375 0.360718Z" fill="#FDEBA2"/>
<path d="M35.4375 0.360718C66.4575 0.360718 97.4775 0.360718 129.438 0.360718C129.438 1.35072 129.438 2.34072 129.438 3.36072C134.387 3.36072 139.338 3.36072 144.438 3.36072C144.438 5.67072 144.438 7.98072 144.438 10.3607C138.497 10.8557 138.497 10.8557 132.438 11.3607C132.107 12.6807 131.778 14.0007 131.438 15.3607C130.447 15.0307 129.457 14.7007 128.438 14.3607C128.438 13.0407 128.438 11.7207 128.438 10.3607C129.428 10.3607 130.418 10.3607 131.438 10.3607C131.438 8.71072 131.438 7.06072 131.438 5.36072C84.4125 5.85572 84.4125 5.85572 36.4375 6.36072C36.1075 7.02072 35.7775 7.68072 35.4375 8.36072C33.1275 8.36072 30.8175 8.36072 28.4375 8.36072C28.4375 10.3407 28.4375 12.3207 28.4375 14.3607C27.4475 14.3607 26.4575 14.3607 25.4375 14.3607C25.4375 17.9907 25.4375 21.6207 25.4375 25.3607C26.4275 25.3607 27.4175 25.3607 28.4375 25.3607C29.6858 44.3534 29.5391 63.3382 29.4375 82.3607C28.7775 82.3607 28.1175 82.3607 27.4375 82.3607C27.4375 85.9907 27.4375 89.6207 27.4375 93.3607C26.4475 93.3607 25.4575 93.3607 24.4375 93.3607C24.4375 96.0007 24.4375 98.6407 24.4375 101.361C23.4475 101.361 22.4575 101.361 21.4375 101.361C21.4375 104.001 21.4375 106.641 21.4375 109.361C50.4775 109.361 79.5175 109.361 109.438 109.361C109.438 110.351 109.438 111.341 109.438 112.361C110.613 112.825 110.613 112.825 111.812 113.298C114.438 114.361 114.438 114.361 116.438 115.361C116.438 113.381 116.438 111.401 116.438 109.361C117.428 109.361 118.418 109.361 119.438 109.361C119.463 108.613 119.489 107.865 119.516 107.095C119.864 101.046 120.145 98.6531 124.438 94.3607C125.1 90.7065 125.31 87.0687 125.438 83.3607C126.758 83.3607 128.077 83.3607 129.438 83.3607C129.438 72.1407 129.438 60.9207 129.438 49.3607C128.117 49.3607 126.798 49.3607 125.438 49.3607C125.438 38.1407 125.438 26.9207 125.438 15.3607C125.933 16.3507 125.933 16.3507 126.438 17.3607C127.098 17.3607 127.757 17.3607 128.438 17.3607C128.438 22.6407 128.438 27.9207 128.438 33.3607C131.522 33.2737 134.604 33.1668 137.688 33.0482C138.997 33.0144 138.997 33.0144 140.332 32.9799C145.012 32.7834 147.876 32.6592 151.438 29.3607C153.418 28.8657 153.418 28.8657 155.438 28.3607C155.768 24.4007 156.097 20.4407 156.438 16.3607C155.447 16.3607 154.457 16.3607 153.438 16.3607C153.438 14.7107 153.438 13.0607 153.438 11.3607C150.797 11.3607 148.158 11.3607 145.438 11.3607C145.438 10.0407 145.438 8.72072 145.438 7.36072C147.747 7.36072 150.057 7.36072 152.438 7.36072C152.768 8.02072 153.097 8.68072 153.438 9.36072C155.462 10.0129 155.462 10.0129 157.438 10.3607C157.438 12.0107 157.438 13.6607 157.438 15.3607C158.758 15.3607 160.077 15.3607 161.438 15.3607C161.438 20.3107 161.438 25.2607 161.438 30.3607C160.117 30.3607 158.798 30.3607 157.438 30.3607C157.107 31.3507 156.778 32.3407 156.438 33.3607C154.788 33.3607 153.138 33.3607 151.438 33.3607C151.438 34.6807 151.438 36.0007 151.438 37.3607C145.497 37.3607 139.557 37.3607 133.438 37.3607C133.438 55.8407 133.438 74.3207 133.438 93.3607C132.447 93.3607 131.457 93.3607 130.438 93.3607C130.438 96.0007 130.438 98.6407 130.438 101.361C135.387 101.361 140.338 101.361 145.438 101.361C145.438 102.351 145.438 103.341 145.438 104.361C148.078 104.361 150.717 104.361 153.438 104.361C153.768 106.011 154.097 107.661 154.438 109.361C155.428 109.361 156.418 109.361 157.438 109.361C157.438 113.321 157.438 117.281 157.438 121.361C156.447 121.361 155.457 121.361 154.438 121.361C154.438 123.671 154.438 125.981 154.438 128.361C153.447 128.361 152.457 128.361 151.438 128.361C151.438 129.681 151.438 131.001 151.438 132.361C150.447 132.361 149.457 132.361 148.438 132.361C148.438 133.351 148.438 134.341 148.438 135.361C145.467 135.361 142.497 135.361 139.438 135.361C139.438 136.351 139.438 137.341 139.438 138.361C103.138 138.361 66.8375 138.361 29.4375 138.361C29.4375 137.371 29.4375 136.381 29.4375 135.361C26.1375 135.361 22.8375 135.361 19.4375 135.361C19.4375 134.371 19.4375 133.381 19.4375 132.361C17.7875 132.361 16.1375 132.361 14.4375 132.361C14.4375 131.041 14.4375 129.721 14.4375 128.361C13.1175 128.361 11.7975 128.361 10.4375 128.361C10.3561 126.132 10.2981 123.903 10.25 121.673C10.2152 120.432 10.1804 119.19 10.1445 117.911C10.454 114.161 11.1215 112.294 13.4375 109.361C14.0975 109.361 14.7575 109.361 15.4375 109.361C15.4375 106.721 15.4375 104.081 15.4375 101.361C16.7575 101.361 18.0775 101.361 19.4375 101.361C19.4375 98.3907 19.4375 95.4207 19.4375 92.3607C20.9225 91.8657 20.9225 91.8657 22.4375 91.3607C22.7675 87.7307 23.0975 84.1007 23.4375 80.3607C24.0975 80.3607 24.7575 80.3607 25.4375 80.3607C25.3174 75.7748 25.1931 71.1891 25.0652 66.6034C25.0224 65.05 24.9807 63.4967 24.9402 61.9432C24.6813 52.0554 24.2436 42.2218 23.4375 32.3607C22.4475 32.0307 21.4575 31.7007 20.4375 31.3607C20.4375 25.4207 20.4375 19.4807 20.4375 13.3607C21.7575 13.3607 23.0775 13.3607 24.4375 13.3607C24.4375 11.3807 24.4375 9.40072 24.4375 7.36072C25.4275 7.03072 26.4175 6.70072 27.4375 6.36072C27.7675 5.37072 28.0975 4.38072 28.4375 3.36072C30.7475 3.36072 33.0575 3.36072 35.4375 3.36072C35.4375 2.37072 35.4375 1.38072 35.4375 0.360718Z" fill="#C17D4B"/>
<path d="M35.4375 48.3607C36.0975 49.3507 36.7575 50.3407 37.4375 51.3607C40.0668 51.6769 42.4661 51.7981 45.1001 51.7931C46.2856 51.8084 46.2856 51.8084 47.495 51.824C50.114 51.8542 52.7325 51.8634 55.3516 51.8724C57.1648 51.8893 58.9779 51.9074 60.7911 51.9268C65.5685 51.9744 70.3458 52.0042 75.1234 52.0303C79.9964 52.06 84.8693 52.1066 89.7422 52.1517C99.3072 52.2379 108.872 52.3052 118.438 52.3607C118.768 51.7007 119.097 51.0407 119.438 50.3607C119.438 51.3507 119.438 52.3407 119.438 53.3607C105.908 53.3607 92.3775 53.3607 78.4375 53.3607C78.4375 54.6807 78.4375 56.0007 78.4375 57.3607C75.1375 57.3607 71.8375 57.3607 68.4375 57.3607C67.9425 56.3707 67.9425 56.3707 67.4375 55.3607C64.4675 55.3607 61.4975 55.3607 58.4375 55.3607C58.4375 56.0207 58.4375 56.6807 58.4375 57.3607C56.1275 57.3607 53.8175 57.3607 51.4375 57.3607C51.4375 56.7007 51.4375 56.0407 51.4375 55.3607C48.4675 55.0307 45.4975 54.7007 42.4375 54.3607C42.4375 55.3507 42.4375 56.3407 42.4375 57.3607C40.7875 57.6907 39.1375 58.0207 37.4375 58.3607C37.4375 60.0107 37.4375 61.6607 37.4375 63.3607C64.1675 63.3607 90.8975 63.3607 118.438 63.3607C118.438 63.6907 118.438 64.0207 118.438 64.3607C112.827 64.3607 107.218 64.3607 101.438 64.3607C101.438 65.0207 101.438 65.6807 101.438 66.3607C103.282 66.4516 103.282 66.4516 105.164 66.5443C106.797 66.6288 108.43 66.7134 110.062 66.7982C110.871 66.8375 111.679 66.8769 112.512 66.9174C113.304 66.9593 114.097 67.0011 114.914 67.0443C115.998 67.0993 115.998 67.0993 117.104 67.1554C119.9 67.4014 122.669 67.8993 125.438 68.3607C125.438 76.9407 125.438 85.5207 125.438 94.3607C123.457 95.3507 123.457 95.3507 121.438 96.3607C120.513 99.459 120.513 99.459 120.188 102.986C120.038 104.174 119.888 105.363 119.734 106.587C119.636 107.503 119.538 108.418 119.438 109.361C118.447 109.361 117.457 109.361 116.438 109.361C116.438 111.341 116.438 113.321 116.438 115.361C111.688 113.486 111.688 113.486 109.438 112.361C109.438 111.371 109.438 110.381 109.438 109.361C80.3975 109.361 51.3575 109.361 21.4375 109.361C21.4375 106.721 21.4375 104.081 21.4375 101.361C22.4275 101.361 23.4175 101.361 24.4375 101.361C24.4375 98.7207 24.4375 96.0807 24.4375 93.3607C25.4275 93.3607 26.4175 93.3607 27.4375 93.3607C27.7675 92.3707 28.0975 91.3807 28.4375 90.3607C29.0975 91.0207 29.7575 91.6807 30.4375 92.3607C31.0975 92.3607 31.7575 92.3607 32.4375 92.3607C33.0975 91.0407 33.7575 89.7207 34.4375 88.3607C34.4375 91.6607 34.4375 94.9607 34.4375 98.3607C37.4075 98.3607 40.3775 98.3607 43.4375 98.3607C43.4375 97.3707 43.4375 96.3807 43.4375 95.3607C44.7575 95.3607 46.0775 95.3607 47.4375 95.3607C47.4375 93.7107 47.4375 92.0607 47.4375 90.3607C48.7575 90.6907 50.0775 91.0207 51.4375 91.3607C51.4375 92.6807 51.4375 94.0007 51.4375 95.3607C52.4275 95.3607 53.4175 95.3607 54.4375 95.3607C54.4375 96.3507 54.4375 97.3407 54.4375 98.3607C58.8925 97.8657 58.8925 97.8657 63.4375 97.3607C62.9425 92.9057 62.9425 92.9057 62.4375 88.3607C61.4475 88.3607 60.4575 88.3607 59.4375 88.3607C59.4375 87.0407 59.4375 85.7207 59.4375 84.3607C58.7775 84.3607 58.1175 84.3607 57.4375 84.3607C57.7675 82.0507 58.0975 79.7407 58.4375 77.3607C57.6666 77.3839 56.8958 77.4071 56.1016 77.431C55.0987 77.4491 54.0958 77.4671 53.0625 77.4857C52.0648 77.5089 51.067 77.5321 50.0391 77.556C47.4375 77.3607 47.4375 77.3607 45.4375 75.3607C42.7821 74.7955 40.1461 74.6228 37.4375 74.3607C37.4375 74.0307 37.4375 73.7007 37.4375 73.3607C64.1675 73.3607 90.8975 73.3607 118.438 73.3607C118.438 71.7107 118.438 70.0607 118.438 68.3607C91.7075 68.3607 64.9775 68.3607 37.4375 68.3607C37.4375 69.6807 37.4375 71.0007 37.4375 72.3607C36.7775 72.3607 36.1175 72.3607 35.4375 72.3607C34.146 68.4248 34.2903 64.4534 34.3125 60.3607C34.3086 59.6492 34.3048 58.9376 34.3008 58.2045C34.3072 54.7853 34.3655 51.6278 35.4375 48.3607Z" fill="#FCEDAE"/>
<path d="M35.4375 0.360718C66.4575 0.360718 97.4775 0.360718 129.438 0.360718C129.438 1.35072 129.438 2.34072 129.438 3.36072C134.387 3.36072 139.338 3.36072 144.438 3.36072C144.438 5.67072 144.438 7.98072 144.438 10.3607C138.497 10.8557 138.497 10.8557 132.438 11.3607C132.107 12.6807 131.778 14.0007 131.438 15.3607C130.447 15.0307 129.457 14.7007 128.438 14.3607C128.438 13.0407 128.438 11.7207 128.438 10.3607C129.428 10.3607 130.418 10.3607 131.438 10.3607C131.438 8.71072 131.438 7.06072 131.438 5.36072C84.4125 5.85572 84.4125 5.85572 36.4375 6.36072C36.1075 7.02072 35.7775 7.68072 35.4375 8.36072C33.1275 8.36072 30.8175 8.36072 28.4375 8.36072C28.4375 10.3407 28.4375 12.3207 28.4375 14.3607C27.4475 14.3607 26.4575 14.3607 25.4375 14.3607C25.4375 17.9907 25.4375 21.6207 25.4375 25.3607C26.4275 25.3607 27.4175 25.3607 28.4375 25.3607C29.6858 44.3534 29.5391 63.3382 29.4375 82.3607C28.7775 82.3607 28.1175 82.3607 27.4375 82.3607C27.4375 85.9907 27.4375 89.6207 27.4375 93.3607C26.4475 93.3607 25.4575 93.3607 24.4375 93.3607C24.4375 96.0007 24.4375 98.6407 24.4375 101.361C23.1175 101.361 21.7975 101.361 20.4375 101.361C20.4375 105.651 20.4375 109.941 20.4375 114.361C18.7875 114.361 17.1375 114.361 15.4375 114.361C15.7675 118.651 16.0975 122.941 16.4375 127.361C17.4275 127.691 18.4175 128.021 19.4375 128.361C19.4375 129.351 19.4375 130.341 19.4375 131.361C29.0702 132.528 38.6722 132.49 48.3555 132.458C50.0661 132.457 51.7767 132.455 53.4874 132.454C57.954 132.45 62.4205 132.441 66.8871 132.429C71.4592 132.419 76.0314 132.415 80.6035 132.41C89.5482 132.399 98.4928 132.382 107.438 132.361C107.768 131.371 108.097 130.381 108.438 129.361C109.428 129.361 110.418 129.361 111.438 129.361C111.438 128.371 111.438 127.381 111.438 126.361C112.428 126.361 113.418 126.361 114.438 126.361C114.438 123.721 114.438 121.081 114.438 118.361C115.428 118.031 116.418 117.701 117.438 117.361C117.768 115.711 118.097 114.061 118.438 112.361C119.758 112.361 121.077 112.361 122.438 112.361C122.438 114.671 122.438 116.981 122.438 119.361C121.447 119.361 120.457 119.361 119.438 119.361C119.52 120.413 119.602 121.464 119.688 122.548C119.4 126.93 118.489 128.309 115.438 131.361C114.777 131.691 114.118 132.021 113.438 132.361C122.017 132.691 130.597 133.021 139.438 133.361C139.438 132.701 139.438 132.041 139.438 131.361C142.078 131.361 144.717 131.361 147.438 131.361C147.561 130.268 147.685 129.174 147.812 128.048C148.438 124.361 148.438 124.361 150.438 121.361C151.428 121.361 152.418 121.361 153.438 121.361C153.438 117.401 153.438 113.441 153.438 109.361C152.117 109.361 150.798 109.361 149.438 109.361C149.438 108.701 149.438 108.041 149.438 107.361C148.812 107.336 148.186 107.311 147.542 107.285C144.715 107.169 141.889 107.046 139.062 106.923C138.078 106.884 137.093 106.845 136.078 106.804C135.137 106.762 134.196 106.72 133.227 106.677C132.357 106.64 131.488 106.604 130.592 106.566C128.438 106.361 128.438 106.361 126.438 105.361C126.438 107.341 126.438 109.321 126.438 111.361C125.117 111.361 123.798 111.361 122.438 111.361C122.438 109.381 122.438 107.401 122.438 105.361C123.098 105.361 123.757 105.361 124.438 105.361C124.426 104.694 124.414 104.028 124.402 103.341C124.337 96.6184 124.714 90.0433 125.438 83.3607C126.758 83.3607 128.077 83.3607 129.438 83.3607C129.438 72.1407 129.438 60.9207 129.438 49.3607C128.117 49.3607 126.798 49.3607 125.438 49.3607C125.438 38.1407 125.438 26.9207 125.438 15.3607C125.933 16.3507 125.933 16.3507 126.438 17.3607C127.098 17.3607 127.757 17.3607 128.438 17.3607C128.438 22.6407 128.438 27.9207 128.438 33.3607C131.522 33.2737 134.604 33.1668 137.688 33.0482C138.997 33.0144 138.997 33.0144 140.332 32.9799C145.012 32.7834 147.876 32.6592 151.438 29.3607C153.418 28.8657 153.418 28.8657 155.438 28.3607C155.768 24.4007 156.097 20.4407 156.438 16.3607C155.447 16.3607 154.457 16.3607 153.438 16.3607C153.438 14.7107 153.438 13.0607 153.438 11.3607C150.797 11.3607 148.158 11.3607 145.438 11.3607C145.438 10.0407 145.438 8.72072 145.438 7.36072C147.747 7.36072 150.057 7.36072 152.438 7.36072C152.768 8.02072 153.097 8.68072 153.438 9.36072C155.462 10.0129 155.462 10.0129 157.438 10.3607C157.438 12.0107 157.438 13.6607 157.438 15.3607C158.758 15.3607 160.077 15.3607 161.438 15.3607C161.438 20.3107 161.438 25.2607 161.438 30.3607C160.117 30.3607 158.798 30.3607 157.438 30.3607C157.107 31.3507 156.778 32.3407 156.438 33.3607C154.788 33.3607 153.138 33.3607 151.438 33.3607C151.438 34.6807 151.438 36.0007 151.438 37.3607C145.497 37.3607 139.557 37.3607 133.438 37.3607C133.438 55.8407 133.438 74.3207 133.438 93.3607C132.447 93.3607 131.457 93.3607 130.438 93.3607C130.438 96.0007 130.438 98.6407 130.438 101.361C135.387 101.361 140.338 101.361 145.438 101.361C145.438 102.351 145.438 103.341 145.438 104.361C148.078 104.361 150.717 104.361 153.438 104.361C153.768 106.011 154.097 107.661 154.438 109.361C155.428 109.361 156.418 109.361 157.438 109.361C157.438 113.321 157.438 117.281 157.438 121.361C156.447 121.361 155.457 121.361 154.438 121.361C154.438 123.671 154.438 125.981 154.438 128.361C153.447 128.361 152.457 128.361 151.438 128.361C151.438 129.681 151.438 131.001 151.438 132.361C150.447 132.361 149.457 132.361 148.438 132.361C148.438 133.351 148.438 134.341 148.438 135.361C145.467 135.361 142.497 135.361 139.438 135.361C139.438 136.351 139.438 137.341 139.438 138.361C103.138 138.361 66.8375 138.361 29.4375 138.361C29.4375 137.371 29.4375 136.381 29.4375 135.361C26.1375 135.361 22.8375 135.361 19.4375 135.361C19.4375 134.371 19.4375 133.381 19.4375 132.361C17.7875 132.361 16.1375 132.361 14.4375 132.361C14.4375 131.041 14.4375 129.721 14.4375 128.361C13.1175 128.361 11.7975 128.361 10.4375 128.361C10.3561 126.132 10.2981 123.903 10.25 121.673C10.2152 120.432 10.1804 119.19 10.1445 117.911C10.454 114.161 11.1215 112.294 13.4375 109.361C14.0975 109.361 14.7575 109.361 15.4375 109.361C15.4375 106.721 15.4375 104.081 15.4375 101.361C16.7575 101.361 18.0775 101.361 19.4375 101.361C19.4375 98.3907 19.4375 95.4207 19.4375 92.3607C20.9225 91.8657 20.9225 91.8657 22.4375 91.3607C22.7675 87.7307 23.0975 84.1007 23.4375 80.3607C24.0975 80.3607 24.7575 80.3607 25.4375 80.3607C25.3174 75.7748 25.1931 71.1891 25.0652 66.6034C25.0224 65.05 24.9807 63.4967 24.9402 61.9432C24.6813 52.0554 24.2436 42.2218 23.4375 32.3607C22.4475 32.0307 21.4575 31.7007 20.4375 31.3607C20.4375 25.4207 20.4375 19.4807 20.4375 13.3607C21.7575 13.3607 23.0775 13.3607 24.4375 13.3607C24.4375 11.3807 24.4375 9.40072 24.4375 7.36072C25.4275 7.03072 26.4175 6.70072 27.4375 6.36072C27.7675 5.37072 28.0975 4.38072 28.4375 3.36072C30.7475 3.36072 33.0575 3.36072 35.4375 3.36072C35.4375 2.37072 35.4375 1.38072 35.4375 0.360718Z" fill="#412428"/>
<path d="M35.4375 20.3607C55.5675 20.3607 75.6975 20.3607 96.4375 20.3607C97.4375 24.3607 97.4375 24.3607 97.4375 35.3607C78.6275 35.3607 59.8175 35.3607 40.4375 35.3607C39.7775 38.0007 39.1175 40.6407 38.4375 43.3607C38.1075 44.3507 37.7775 45.3407 37.4375 46.3607C64.1675 46.6907 90.8975 47.0207 118.438 47.3607C118.438 49.0107 118.438 50.6607 118.438 52.3607C90.7708 52.3607 63.1042 52.3607 35.4375 52.3607C35.4375 58.9607 35.4375 65.5607 35.4375 72.3607C36.0975 72.3607 36.7575 72.3607 37.4375 72.3607C37.4375 71.0407 37.4375 69.7207 37.4375 68.3607C64.1675 68.3607 90.8975 68.3607 118.438 68.3607C118.438 70.0107 118.438 71.6607 118.438 73.3607C94.3475 73.6907 70.2575 74.0207 45.4375 74.3607C48.0268 76.95 49.4646 76.7347 53.0625 76.9857C54.0654 77.0605 55.0683 77.1352 56.1016 77.2123C56.8724 77.2613 57.6433 77.3102 58.4375 77.3607C59.4375 80.3607 59.4375 80.3607 58.5 82.5482C58.1494 83.1463 57.7988 83.7445 57.4375 84.3607C58.0975 84.3607 58.7575 84.3607 59.4375 84.3607C59.4375 85.6807 59.4375 87.0007 59.4375 88.3607C61.4175 87.8657 61.4175 87.8657 63.4375 87.3607C63.4375 90.6607 63.4375 93.9607 63.4375 97.3607C58.9825 97.8557 58.9825 97.8557 54.4375 98.3607C54.4375 97.3707 54.4375 96.3807 54.4375 95.3607C53.4475 95.3607 52.4575 95.3607 51.4375 95.3607C51.3344 94.7213 51.2313 94.082 51.125 93.4232C50.8981 92.7426 50.6713 92.062 50.4375 91.3607C48.9525 90.8657 48.9525 90.8657 47.4375 90.3607C47.4375 92.0107 47.4375 93.6607 47.4375 95.3607C46.1175 95.3607 44.7975 95.3607 43.4375 95.3607C43.4375 96.3507 43.4375 97.3407 43.4375 98.3607C40.3845 98.6543 37.4795 98.8073 34.4375 98.3607C32 95.8607 32 95.8607 30.4375 93.3607C29.7775 93.3607 29.1175 93.3607 28.4375 93.3607C27.1543 89.5112 27.3711 86.4133 27.4375 82.3607C28.0975 82.3607 28.7575 82.3607 29.4375 82.3607C29.4072 81.3801 29.3769 80.3996 29.3457 79.3893C28.7942 61.3781 28.2471 43.3827 28.4375 25.3607C27.4475 25.0307 26.4575 24.7007 25.4375 24.3607C28.7375 24.3607 32.0375 24.3607 35.4375 24.3607C35.4375 23.0407 35.4375 21.7207 35.4375 20.3607Z" fill="#FBE8A8"/>
<path d="M144.438 3.36072C144.768 3.36072 145.097 3.36072 145.438 3.36072C145.438 6.00072 145.438 8.64072 145.438 11.3607C148.078 11.3607 150.717 11.3607 153.438 11.3607C153.438 13.0107 153.438 14.6607 153.438 16.3607C154.428 16.3607 155.418 16.3607 156.438 16.3607C156.438 20.3207 156.438 24.2807 156.438 28.3607C154.788 29.0207 153.138 29.6807 151.438 30.3607C150.777 31.0207 150.118 31.6807 149.438 32.3607C147.089 33.535 145.7 33.4758 143.086 33.4584C141.81 33.4535 141.81 33.4535 140.508 33.4486C139.618 33.4402 138.729 33.4319 137.812 33.4232C136.915 33.4187 136.018 33.4142 135.094 33.4095C132.875 33.3977 130.656 33.3798 128.438 33.3607C128.438 28.0807 128.438 22.8007 128.438 17.3607C127.447 17.6907 126.457 18.0207 125.438 18.3607C125.107 20.3407 124.778 22.3207 124.438 24.3607C120.148 24.3607 115.858 24.3607 111.438 24.3607C111.438 22.7107 111.438 21.0607 111.438 19.3607C109.788 19.3607 108.138 19.3607 106.438 19.3607C106.438 21.0107 106.438 22.6607 106.438 24.3607C103.138 24.3607 99.8375 24.3607 96.4375 24.3607C96.4375 23.0407 96.4375 21.7207 96.4375 20.3607C76.3075 20.3607 56.1775 20.3607 35.4375 20.3607C35.4375 21.6807 35.4375 23.0007 35.4375 24.3607C32.1375 24.3607 28.8375 24.3607 25.4375 24.3607C25.4375 21.0607 25.4375 17.7607 25.4375 14.3607C26.4275 14.3607 27.4175 14.3607 28.4375 14.3607C28.4375 12.3807 28.4375 10.4007 28.4375 8.36072C30.7475 8.36072 33.0575 8.36072 35.4375 8.36072C35.7675 7.37072 36.0975 6.38072 36.4375 5.36072C67.7875 5.36072 99.1375 5.36072 131.438 5.36072C131.438 7.01072 131.438 8.66072 131.438 10.3607C130.447 10.3607 129.457 10.3607 128.438 10.3607C128.785 12.3361 128.785 12.3361 129.438 14.3607C130.428 14.8557 130.428 14.8557 131.438 15.3607C131.768 13.7107 132.097 12.0607 132.438 10.3607C136.398 10.3607 140.358 10.3607 144.438 10.3607C144.438 8.05072 144.438 5.74072 144.438 3.36072Z" fill="#FCEFAF"/>
<path d="M154.438 121.361C156.438 121.361 156.438 121.361 158.164 122.865C161.297 126.262 163.25 128.441 164.188 133.048C163.199 137.413 162.042 138.694 158.438 141.361C150.969 145.081 143.17 146.657 135 148.048C133.758 148.262 132.516 148.477 131.236 148.697C121.257 150.351 111.542 151.278 101.438 151.361C100.385 151.374 99.3334 151.388 98.2495 151.402C21.1484 152.302 21.1484 152.302 2.4375 138.361C0.4375 136.361 0.4375 136.361 0 133.548C0.585223 129.284 2.12147 128.014 5.4375 125.361C8.25 124.048 8.25 124.048 10.4375 123.361C10.4375 125.011 10.4375 126.661 10.4375 128.361C11.7575 128.361 13.0775 128.361 14.4375 128.361C14.4375 129.681 14.4375 131.001 14.4375 132.361C16.0875 132.361 17.7375 132.361 19.4375 132.361C19.4375 133.351 19.4375 134.341 19.4375 135.361C22.7375 135.361 26.0375 135.361 29.4375 135.361C29.4375 136.351 29.4375 137.341 29.4375 138.361C65.7375 138.361 102.037 138.361 139.438 138.361C139.438 137.371 139.438 136.381 139.438 135.361C142.408 135.361 145.378 135.361 148.438 135.361C148.438 134.371 148.438 133.381 148.438 132.361C149.428 132.361 150.418 132.361 151.438 132.361C151.438 131.041 151.438 129.721 151.438 128.361C152.428 128.361 153.418 128.361 154.438 128.361C154.438 126.051 154.438 123.741 154.438 121.361Z" fill="#CAD2E8"/>
<path d="M94.4375 113.361C95.6247 117.726 95.1076 120.893 94.4375 125.361C95.0975 125.361 95.7575 125.361 96.4375 125.361C96.9325 126.846 96.9325 126.846 97.4375 128.361C102.387 128.856 102.387 128.856 107.438 129.361C107.438 128.371 107.438 127.381 107.438 126.361C108.758 126.031 110.077 125.701 111.438 125.361C111.438 126.681 111.438 128.001 111.438 129.361C110.447 129.361 109.457 129.361 108.438 129.361C108.107 130.681 107.778 132.001 107.438 133.361C97.5879 133.407 87.7384 133.443 77.8888 133.464C73.3142 133.475 68.7398 133.489 64.1653 133.512C59.7432 133.534 55.3213 133.545 50.8992 133.551C49.2196 133.554 47.5401 133.561 45.8606 133.572C36.8763 133.628 28.2297 133.492 19.4375 131.361C19.4375 130.371 19.4375 129.381 19.4375 128.361C18.4475 128.361 17.4575 128.361 16.4375 128.361C16.4375 124.071 16.4375 119.781 16.4375 115.361C27.5201 114.443 38.5611 114.082 49.676 113.858C52.6025 113.799 55.5288 113.733 58.4551 113.667C70.451 113.406 82.439 113.306 94.4375 113.361Z" fill="#ECBB79"/>
<path d="M35.4375 20.3607C55.5675 20.3607 75.6975 20.3607 96.4375 20.3607C97.4375 24.3607 97.4375 24.3607 97.4375 34.3607C76.9775 34.3607 56.5175 34.3607 35.4375 34.3607C35.4375 29.7407 35.4375 25.1207 35.4375 20.3607Z" fill="#955B36"/>
<path d="M121.438 105.361C121.768 105.361 122.097 105.361 122.438 105.361C122.438 107.341 122.438 109.321 122.438 111.361C123.758 111.361 125.077 111.361 126.438 111.361C126.438 109.381 126.438 107.401 126.438 105.361C129.334 105.502 132.229 105.649 135.125 105.798C135.942 105.838 136.758 105.877 137.6 105.917C141.634 106.13 145.495 106.405 149.438 107.361C149.438 108.021 149.438 108.681 149.438 109.361C150.758 109.361 152.077 109.361 153.438 109.361C153.438 113.321 153.438 117.281 153.438 121.361C152.447 121.691 151.457 122.021 150.438 122.361C149.415 124.458 149.415 124.458 148.75 126.923C148.499 127.75 148.247 128.576 147.988 129.427C147.807 130.065 147.625 130.703 147.438 131.361C144.797 131.361 142.158 131.361 139.438 131.361C139.438 132.021 139.438 132.681 139.438 133.361C130.528 133.361 121.618 133.361 112.438 133.361C114.087 131.711 115.737 130.061 117.438 128.361C117.107 127.701 116.778 127.041 116.438 126.361C117.428 126.361 118.418 126.361 119.438 126.361C119.438 124.051 119.438 121.741 119.438 119.361C120.428 119.361 121.418 119.361 122.438 119.361C122.438 117.051 122.438 114.741 122.438 112.361C121.447 112.031 120.457 111.701 119.438 111.361C120.098 111.361 120.757 111.361 121.438 111.361C121.438 109.381 121.438 107.401 121.438 105.361Z" fill="#955041"/>
<path d="M25.4375 24.3607C28.7375 24.3607 32.0375 24.3607 35.4375 24.3607C35.4375 27.6607 35.4375 30.9607 35.4375 34.3607C55.8975 34.3607 76.3575 34.3607 97.4375 34.3607C97.4375 34.6907 97.4375 35.0207 97.4375 35.3607C78.6275 35.3607 59.8175 35.3607 40.4375 35.3607C39.7775 38.0007 39.1175 40.6407 38.4375 43.3607C38.1075 44.3507 37.7775 45.3407 37.4375 46.3607C64.1675 46.6907 90.8975 47.0207 118.438 47.3607C118.438 49.0107 118.438 50.6607 118.438 52.3607C90.7708 52.3607 63.1042 52.3607 35.4375 52.3607C33.9525 55.8257 33.9525 55.8257 32.4375 59.3607C32.1075 59.3607 31.7775 59.3607 31.4375 59.3607C31.1075 66.9507 30.7775 74.5407 30.4375 82.3607C30.1075 82.3607 29.7775 82.3607 29.4375 82.3607C28.2436 43.7151 28.2436 43.7151 28.4375 25.3607C27.4475 25.0307 26.4575 24.7007 25.4375 24.3607Z" fill="#DAAD71"/>
<path d="M36.4375 5.36072C67.7875 5.36072 99.1375 5.36072 131.438 5.36072C131.438 7.01072 131.438 8.66072 131.438 10.3607C126.422 11.7235 121.467 11.3881 116.324 11.2396C114.87 11.2042 114.87 11.2042 113.386 11.1681C110.299 11.0917 107.212 11.0076 104.125 10.9232C102.028 10.87 99.931 10.8172 97.834 10.765C92.7017 10.6361 87.5696 10.5003 82.4375 10.3607C82.4375 12.3407 82.4375 14.3207 82.4375 16.3607C85.7375 16.0307 89.0375 15.7007 92.4375 15.3607C92.4375 16.6807 92.4375 18.0007 92.4375 19.3607C76.2675 19.3607 60.0975 19.3607 43.4375 19.3607C43.4375 19.0307 43.4375 18.7007 43.4375 18.3607C46.9025 17.8657 46.9025 17.8657 50.4375 17.3607C50.7675 16.3707 51.0975 15.3807 51.4375 14.3607C54.6875 14.3316 57.9374 14.3139 61.1875 14.2982C62.5681 14.2856 62.5681 14.2856 63.9766 14.2728C64.866 14.2696 65.7555 14.2664 66.6719 14.2631C67.4888 14.2578 68.3058 14.2526 69.1475 14.2472C71.3772 14.3577 73.2988 14.7402 75.4375 15.3607C75.7675 13.7107 76.0975 12.0607 76.4375 10.3607C63.5675 10.6907 50.6975 11.0207 37.4375 11.3607C37.1075 12.3507 36.7775 13.3407 36.4375 14.3607C34.1275 14.0307 31.8175 13.7007 29.4375 13.3607C29.4375 12.7007 29.4375 12.0407 29.4375 11.3607C30.2212 11.1132 31.005 10.8657 31.8125 10.6107C34.8937 9.47368 34.8937 9.47368 36.4375 5.36072Z" fill="#FAF7D6"/>
<path d="M144.438 3.36072C144.768 3.36072 145.097 3.36072 145.438 3.36072C145.438 6.00072 145.438 8.64072 145.438 11.3607C148.078 11.3607 150.717 11.3607 153.438 11.3607C153.438 13.0107 153.438 14.6607 153.438 16.3607C154.428 16.3607 155.418 16.3607 156.438 16.3607C156.438 20.3207 156.438 24.2807 156.438 28.3607C154.788 29.0207 153.138 29.6807 151.438 30.3607C150.777 31.0207 150.118 31.6807 149.438 32.3607C147.089 33.535 145.7 33.4758 143.086 33.4584C142.235 33.4552 141.384 33.4519 140.508 33.4486C139.618 33.4402 138.729 33.4319 137.812 33.4232C136.915 33.4187 136.018 33.4142 135.094 33.4095C132.875 33.3977 130.656 33.3798 128.438 33.3607C128.438 28.0807 128.438 22.8007 128.438 17.3607C127.777 17.3607 127.118 17.3607 126.438 17.3607C126.107 16.3707 125.778 15.3807 125.438 14.3607C126.098 14.3607 126.757 14.3607 127.438 14.3607C127.768 13.0407 128.097 11.7207 128.438 10.3607C128.623 11.3198 128.623 11.3198 128.812 12.2982C129.019 12.9788 129.225 13.6595 129.438 14.3607C130.098 14.6907 130.757 15.0207 131.438 15.3607C131.768 13.7107 132.097 12.0607 132.438 10.3607C136.398 10.3607 140.358 10.3607 144.438 10.3607C144.438 8.05072 144.438 5.74072 144.438 3.36072Z" fill="#D89166"/>
<path d="M35.4375 0.360718C66.4575 0.360718 97.4775 0.360718 129.438 0.360718C129.438 1.35072 129.438 2.34072 129.438 3.36072C134.387 3.36072 139.338 3.36072 144.438 3.36072C144.438 5.67072 144.438 7.98072 144.438 10.3607C140.477 10.6907 136.517 11.0207 132.438 11.3607C132.107 12.6807 131.778 14.0007 131.438 15.3607C130.447 15.0307 129.457 14.7007 128.438 14.3607C128.438 13.0407 128.438 11.7207 128.438 10.3607C129.428 10.3607 130.418 10.3607 131.438 10.3607C131.438 8.71072 131.438 7.06072 131.438 5.36072C100.087 5.03072 68.7375 4.70072 36.4375 4.36072C36.1075 3.04072 35.7775 1.72072 35.4375 0.360718Z" fill="#220511"/>
<path d="M40.4375 35.3607C55.9475 35.3607 71.4575 35.3607 87.4375 35.3607C88.4375 39.3607 88.4375 39.3607 86.4375 46.3607C81.1575 46.3607 75.8775 46.3607 70.4375 46.3607C70.4375 45.7007 70.4375 45.0407 70.4375 44.3607C67.7975 44.6907 65.1575 45.0207 62.4375 45.3607C62.4375 43.7107 62.4375 42.0607 62.4375 40.3607C59.7975 40.6907 57.1575 41.0207 54.4375 41.3607C54.4375 43.3407 54.4375 45.3207 54.4375 47.3607C48.4975 47.3607 42.5575 47.3607 36.4375 47.3607C37.7575 43.4007 39.0775 39.4407 40.4375 35.3607ZM72.4375 40.3607C73.4375 43.3607 73.4375 43.3607 73.4375 43.3607L72.4375 40.3607Z" fill="#FBD68E"/>
<path d="M124.438 18.3607C124.768 18.3607 125.097 18.3607 125.438 18.3607C125.438 28.5907 125.438 38.8207 125.438 49.3607C126.758 49.3607 128.077 49.3607 129.438 49.3607C129.438 60.5807 129.438 71.8007 129.438 83.3607C128.117 83.3607 126.798 83.3607 125.438 83.3607C125.438 74.4507 125.438 65.5407 125.438 56.3607C122.963 56.8557 122.963 56.8557 120.438 57.3607C120.438 56.7007 120.438 56.0407 120.438 55.3607C121.758 55.3607 123.077 55.3607 124.438 55.3607C124.438 53.0507 124.438 50.7407 124.438 48.3607C123.654 48.2576 122.87 48.1545 122.062 48.0482C119.438 47.3607 119.438 47.3607 117.438 44.3607C116.777 44.3607 116.118 44.3607 115.438 44.3607C115.438 43.3707 115.438 42.3807 115.438 41.3607C113.788 41.3607 112.138 41.3607 110.438 41.3607C110.438 42.3507 110.438 43.3407 110.438 44.3607C108.788 44.3607 107.138 44.3607 105.438 44.3607C105.438 43.0407 105.438 41.7207 105.438 40.3607C108.082 39.0384 110.115 39.2639 113.062 39.2982C114.567 39.3118 114.567 39.3118 116.102 39.3256C116.872 39.3372 117.643 39.3488 118.438 39.3607C118.438 37.3807 118.438 35.4007 118.438 33.3607C114.807 33.6907 111.178 34.0207 107.438 34.3607C107.107 33.0407 106.778 31.7207 106.438 30.3607C107.758 30.3607 109.077 30.3607 110.438 30.3607C110.438 28.3807 110.438 26.4007 110.438 24.3607C109.447 24.3607 108.457 24.3607 107.438 24.3607C107.438 23.0407 107.438 21.7207 107.438 20.3607C108.758 20.3607 110.077 20.3607 111.438 20.3607C111.438 21.6807 111.438 23.0007 111.438 24.3607C115.727 24.3607 120.017 24.3607 124.438 24.3607C124.438 22.3807 124.438 20.4007 124.438 18.3607Z" fill="#F3C27E"/>
<path d="M30.4375 134.361C66.4075 134.361 102.377 134.361 139.438 134.361C139.438 135.681 139.438 137.001 139.438 138.361C129.36 138.384 119.283 138.402 109.205 138.413C104.522 138.418 99.8395 138.425 95.1567 138.436C73.5589 138.488 52.0152 138.392 30.4375 137.361C30.4375 136.371 30.4375 135.381 30.4375 134.361Z" fill="#19010A"/>
<path d="M37.4375 68.3607C64.1675 68.3607 90.8975 68.3607 118.438 68.3607C118.438 70.0107 118.438 71.6607 118.438 73.3607C91.7075 73.3607 64.9775 73.3607 37.4375 73.3607C37.4375 71.7107 37.4375 70.0607 37.4375 68.3607Z" fill="#B4794E"/>
<path d="M152.438 110.361C152.768 113.991 153.097 117.621 153.438 121.361C152.447 121.691 151.457 122.021 150.438 122.361C149.219 124.865 149.219 124.865 148.438 127.361C147.777 127.361 147.118 127.361 146.438 127.361C146.438 128.351 146.438 129.341 146.438 130.361C145.117 130.361 143.798 130.361 142.438 130.361C142.438 129.041 142.438 127.721 142.438 126.361C140.128 126.361 137.818 126.361 135.438 126.361C133.673 123.273 133.438 122.128 133.438 118.361C134.428 118.361 135.418 118.361 136.438 118.361C136.438 117.041 136.438 115.721 136.438 114.361C138.437 114.318 140.438 114.32 142.438 114.361C143.438 115.361 143.438 115.361 143.535 117.865C143.524 118.874 143.512 119.883 143.5 120.923C143.491 121.935 143.482 122.947 143.473 123.99C143.461 124.772 143.449 125.555 143.438 126.361C144.098 126.361 144.757 126.361 145.438 126.361C145.438 122.071 145.438 117.781 145.438 113.361C144.035 113.175 142.633 112.989 141.188 112.798C140.399 112.694 139.61 112.589 138.797 112.482C136.133 112.23 136.133 112.23 132.438 113.361C131.777 118.641 131.118 123.921 130.438 129.361C129.117 129.361 127.798 129.361 126.438 129.361C126.383 127.424 126.345 125.486 126.312 123.548C126.289 122.469 126.266 121.39 126.242 120.279C126.438 117.361 126.438 117.361 128.438 114.361C128.603 113.494 128.767 112.628 128.938 111.736C129.103 110.952 129.267 110.168 129.438 109.361C136.034 106.063 145.643 108.785 152.438 110.361Z" fill="#CD845E"/>
<path d="M37.4375 48.3607C64.1675 48.3607 90.8975 48.3607 118.438 48.3607C118.438 49.6807 118.438 51.0007 118.438 52.3607C91.7075 52.3607 64.9775 52.3607 37.4375 52.3607C37.4375 51.0407 37.4375 49.7207 37.4375 48.3607Z" fill="#B9794C"/>
<path d="M38.4375 58.3607C64.8375 58.3607 91.2375 58.3607 118.438 58.3607C118.438 59.6807 118.438 61.0007 118.438 62.3607C92.0375 62.3607 65.6375 62.3607 38.4375 62.3607C38.4375 61.0407 38.4375 59.7207 38.4375 58.3607Z" fill="#864425"/>
<path d="M19.4375 128.361C20.4275 128.856 20.4275 128.856 21.4375 129.361C23.5554 129.447 25.676 129.468 27.7957 129.458C28.4479 129.457 29.1002 129.455 29.7723 129.454C31.191 129.45 32.6097 129.444 34.0283 129.436C36.2777 129.423 38.5271 129.417 40.7766 129.412C46.3681 129.398 51.9597 129.374 57.5512 129.35C62.2684 129.331 66.9856 129.315 71.7029 129.305C73.9113 129.298 76.1196 129.286 78.328 129.273C79.6962 129.269 81.0643 129.266 82.4324 129.263C83.6188 129.258 84.8052 129.253 86.0276 129.247C89.5625 129.365 92.9439 129.826 96.4375 130.361C98.5825 130.424 100.729 130.447 102.875 130.423C103.926 130.414 104.976 130.405 106.059 130.396C107.236 130.378 107.236 130.378 108.438 130.361C108.107 131.351 107.778 132.341 107.438 133.361C97.5879 133.407 87.7384 133.443 77.8888 133.464C73.3142 133.475 68.7398 133.489 64.1653 133.512C59.7432 133.533 55.3213 133.545 50.8992 133.55C49.2196 133.554 47.5401 133.561 45.8606 133.572C36.8763 133.628 28.2297 133.492 19.4375 131.361C19.4375 130.371 19.4375 129.381 19.4375 128.361Z" fill="#B86E4A"/>
<path d="M80.4375 55.3607C91.6575 55.3607 102.877 55.3607 114.438 55.3607C114.438 55.6907 114.438 56.0207 114.438 56.3607C118.068 56.3607 121.697 56.3607 125.438 56.3607C125.438 60.3207 125.438 64.2807 125.438 68.3607C115.868 68.0307 106.297 67.7007 96.4375 67.3607C96.4375 67.0307 96.4375 66.7007 96.4375 66.3607C98.0875 66.3607 99.7375 66.3607 101.438 66.3607C101.438 65.7007 101.438 65.0407 101.438 64.3607C69.7575 63.8657 69.7575 63.8657 37.4375 63.3607C37.4375 61.7107 37.4375 60.0607 37.4375 58.3607C37.7675 59.6807 38.0975 61.0007 38.4375 62.3607C64.8375 62.3607 91.2375 62.3607 118.438 62.3607C118.438 61.0407 118.438 59.7207 118.438 58.3607C105.898 58.3607 93.3575 58.3607 80.4375 58.3607C80.4375 57.3707 80.4375 56.3807 80.4375 55.3607Z" fill="#ECCD93"/>
<path d="M35.4375 48.3607C36.0975 49.3507 36.7575 50.3407 37.4375 51.3607C40.0668 51.6769 42.4661 51.7981 45.1001 51.7931C46.2856 51.8084 46.2856 51.8084 47.495 51.824C50.114 51.8542 52.7325 51.8634 55.3516 51.8724C57.1648 51.8893 58.9779 51.9074 60.7911 51.9268C65.5685 51.9744 70.3458 52.0042 75.1234 52.0303C79.9964 52.06 84.8693 52.1066 89.7422 52.1517C99.3072 52.2379 108.872 52.3052 118.438 52.3607C118.768 51.7007 119.097 51.0407 119.438 50.3607C119.438 51.3507 119.438 52.3407 119.438 53.3607C105.908 53.3607 92.3775 53.3607 78.4375 53.3607C78.4375 54.6807 78.4375 56.0007 78.4375 57.3607C75.1375 57.3607 71.8375 57.3607 68.4375 57.3607C67.9425 56.3707 67.9425 56.3707 67.4375 55.3607C64.4675 55.3607 61.4975 55.3607 58.4375 55.3607C58.4375 56.0207 58.4375 56.6807 58.4375 57.3607C56.1275 57.3607 53.8175 57.3607 51.4375 57.3607C51.4375 56.7007 51.4375 56.0407 51.4375 55.3607C48.4675 55.0307 45.4975 54.7007 42.4375 54.3607C42.4375 55.3507 42.4375 56.3407 42.4375 57.3607C40.7875 57.6907 39.1375 58.0207 37.4375 58.3607C37.4375 60.0107 37.4375 61.6607 37.4375 63.3607C56.9075 63.3607 76.3775 63.3607 96.4375 63.3607C96.4375 63.6907 96.4375 64.0207 96.4375 64.3607C87.1975 64.3607 77.9575 64.3607 68.4375 64.3607C68.4375 65.0207 68.4375 65.6807 68.4375 66.3607C66.7875 66.3607 65.1375 66.3607 63.4375 66.3607C63.4375 65.7007 63.4375 65.0407 63.4375 64.3607C62.5945 64.3962 61.7516 64.4318 60.8831 64.4684C57.7654 64.5973 54.6475 64.7217 51.5295 64.8429C50.1782 64.8964 48.827 64.9517 47.4758 65.0089C45.5375 65.0907 43.5988 65.1653 41.6602 65.2396C40.4923 65.2868 39.3245 65.3339 38.1213 65.3824C35.4375 65.3607 35.4375 65.3607 34.4375 64.3607C34.3379 62.4253 34.3078 60.4862 34.3125 58.5482C34.3099 57.4899 34.3073 56.4316 34.3047 55.3412C34.4169 52.8238 34.7066 50.7565 35.4375 48.3607Z" fill="#FEF2B8"/>
<path d="M38.4375 81.3607C39.0975 81.3607 39.7575 81.3607 40.4375 81.3607C40.4375 82.3507 40.4375 83.3407 40.4375 84.3607C45.0575 84.0307 49.6775 83.7007 54.4375 83.3607C55.6402 85.7662 55.5382 87.3107 55.5 89.9857C55.491 90.803 55.482 91.6202 55.4727 92.4623C55.4611 93.0888 55.4495 93.7152 55.4375 94.3607C56.7575 94.3607 58.0775 94.3607 59.4375 94.3607C59.4375 92.3807 59.4375 90.4007 59.4375 88.3607C60.7575 88.0307 62.0775 87.7007 63.4375 87.3607C63.4375 90.6607 63.4375 93.9607 63.4375 97.3607C60.4675 97.6907 57.4975 98.0207 54.4375 98.3607C54.4375 97.3707 54.4375 96.3807 54.4375 95.3607C53.4475 95.3607 52.4575 95.3607 51.4375 95.3607C51.3344 94.7213 51.2313 94.082 51.125 93.4232C50.8981 92.7426 50.6713 92.062 50.4375 91.3607C49.4475 91.0307 48.4575 90.7007 47.4375 90.3607C47.4375 92.0107 47.4375 93.6607 47.4375 95.3607C46.1175 95.3607 44.7975 95.3607 43.4375 95.3607C43.4375 96.3507 43.4375 97.3407 43.4375 98.3607C40.7975 98.3607 38.1575 98.3607 35.4375 98.3607C35.4375 95.0607 35.4375 91.7607 35.4375 88.3607C36.4275 88.3607 37.4175 88.3607 38.4375 88.3607C38.4375 86.0507 38.4375 83.7407 38.4375 81.3607Z" fill="#F6DEA2"/>
<path d="M28.4375 8.36072C30.7475 8.36072 33.0575 8.36072 35.4375 8.36072C34.4475 9.84572 34.4475 9.84572 33.4375 11.3607C32.1175 11.3607 30.7975 11.3607 29.4375 11.3607C32.9025 12.8457 32.9025 12.8457 36.4375 14.3607C36.7675 13.0407 37.0975 11.7207 37.4375 10.3607C50.3075 10.3607 63.1775 10.3607 76.4375 10.3607C76.4375 12.0107 76.4375 13.6607 76.4375 15.3607C74.5 15.9232 74.5 15.9232 72.4375 16.3607C71.9425 15.8657 71.9425 15.8657 71.4375 15.3607C69.9511 15.2042 68.458 15.11 66.9648 15.0443C66.0657 15.0024 65.1666 14.9605 64.2402 14.9174C63.2947 14.878 62.3492 14.8387 61.375 14.7982C60.4256 14.755 59.4762 14.7119 58.498 14.6674C56.1447 14.5609 53.7912 14.4589 51.4375 14.3607C51.4375 15.3507 51.4375 16.3407 51.4375 17.3607C49.7084 17.388 47.9792 17.4072 46.25 17.4232C44.8056 17.4406 44.8056 17.4406 43.332 17.4584C40.5757 17.3654 38.1256 16.9419 35.4375 16.3607C33.7712 16.3237 32.1035 16.3131 30.4375 16.3607C30.1075 18.6707 29.7775 20.9807 29.4375 23.3607C28.1175 23.3607 26.7975 23.3607 25.4375 23.3607C25.4375 20.3907 25.4375 17.4207 25.4375 14.3607C26.4275 14.3607 27.4175 14.3607 28.4375 14.3607C28.4375 12.3807 28.4375 10.4007 28.4375 8.36072Z" fill="#FAD285"/>
<path d="M132.438 37.3607C132.768 37.3607 133.097 37.3607 133.438 37.3607C133.438 55.8407 133.438 74.3207 133.438 93.3607C132.447 93.3607 131.457 93.3607 130.438 93.3607C130.438 96.0007 130.438 98.6407 130.438 101.361C135.057 101.361 139.677 101.361 144.438 101.361C144.438 102.681 144.438 104.001 144.438 105.361C138.497 105.361 132.557 105.361 126.438 105.361C126.438 107.341 126.438 109.321 126.438 111.361C125.117 111.361 123.798 111.361 122.438 111.361C122.438 109.381 122.438 107.401 122.438 105.361C123.098 105.361 123.757 105.361 124.438 105.361C124.438 102.061 124.438 98.7607 124.438 95.3607C126.418 94.8657 126.418 94.8657 128.438 94.3607C128.438 91.0607 128.438 87.7607 128.438 84.3607C129.098 84.3607 129.757 84.3607 130.438 84.3607C130.438 75.4507 130.438 66.5407 130.438 57.3607C130.768 57.3607 131.097 57.3607 131.438 57.3607C131.768 50.7607 132.097 44.1607 132.438 37.3607Z" fill="#17060B"/>
<path d="M26.4375 50.3607C27.4275 50.3607 28.4175 50.3607 29.4375 50.3607C29.4375 60.9207 29.4375 71.4807 29.4375 82.3607C28.7775 82.3607 28.1175 82.3607 27.4375 82.3607C27.4375 85.9907 27.4375 89.6207 27.4375 93.3607C26.4475 93.3607 25.4575 93.3607 24.4375 93.3607C24.4375 96.0007 24.4375 98.6407 24.4375 101.361C23.1175 101.361 21.7975 101.361 20.4375 101.361C20.4375 105.651 20.4375 109.941 20.4375 114.361C18.7875 114.361 17.1375 114.361 15.4375 114.361C15.4375 117.661 15.4375 120.961 15.4375 124.361C15.1075 124.361 14.7775 124.361 14.4375 124.361C14.1075 120.401 13.7775 116.441 13.4375 112.361C14.4275 112.361 15.4175 112.361 16.4375 112.361C16.4375 108.731 16.4375 105.101 16.4375 101.361C17.4275 101.361 18.4175 101.361 19.4375 101.361C19.4375 98.3907 19.4375 95.4207 19.4375 92.3607C20.9225 91.8657 20.9225 91.8657 22.4375 91.3607C22.7675 87.7307 23.0975 84.1007 23.4375 80.3607C24.4275 80.3607 25.4175 80.3607 26.4375 80.3607C26.4375 70.4607 26.4375 60.5607 26.4375 50.3607Z" fill="#331E21"/>
<path d="M85.0625 9.29825C86.251 9.30727 87.4395 9.3163 88.6641 9.32559C89.5793 9.33719 90.4945 9.3488 91.4375 9.36075C91.4375 9.69075 91.4375 10.0207 91.4375 10.3607C88.4675 10.3607 85.4975 10.3607 82.4375 10.3607C82.4375 12.3407 82.4375 14.3207 82.4375 16.3607C85.7375 16.0307 89.0375 15.7007 92.4375 15.3607C92.4375 16.6807 92.4375 18.0007 92.4375 19.3607C76.2675 19.3607 60.0975 19.3607 43.4375 19.3607C43.4375 19.0307 43.4375 18.7007 43.4375 18.3607C46.9025 17.8657 46.9025 17.8657 50.4375 17.3607C50.7675 16.3707 51.0975 15.3807 51.4375 14.3607C54.6875 14.3317 57.9374 14.3139 61.1875 14.2982C62.5681 14.2857 62.5681 14.2857 63.9766 14.2729C65.3107 14.268 65.3107 14.268 66.6719 14.2631C67.4888 14.2579 68.3058 14.2526 69.1475 14.2472C71.3772 14.3578 73.2988 14.7402 75.4375 15.3607C75.6231 14.1542 75.6231 14.1542 75.8125 12.9232C76.0187 12.0776 76.225 11.232 76.4375 10.3607C79.3217 8.91867 81.8547 9.2668 85.0625 9.29825Z" fill="#FEF7BB"/>
<path d="M144.438 3.36072C144.768 3.36072 145.097 3.36072 145.438 3.36072C145.438 6.00072 145.438 8.64072 145.438 11.3607C148.078 11.3607 150.717 11.3607 153.438 11.3607C153.438 13.0107 153.438 14.6607 153.438 16.3607C152.777 15.7007 152.118 15.0407 151.438 14.3607C148.669 14.2248 148.669 14.2248 145.562 14.5482C143.989 14.6623 143.989 14.6623 142.383 14.7787C139.113 15.4248 137.638 15.8507 135.438 18.3607C134.735 21.777 134.735 21.777 134.688 25.5482C134.631 26.8205 134.574 28.0928 134.516 29.4037C134.49 30.3795 134.464 31.3553 134.438 32.3607C135.428 32.6907 136.418 33.0207 137.438 33.3607C134.467 33.3607 131.497 33.3607 128.438 33.3607C128.438 28.0807 128.438 22.8007 128.438 17.3607C127.777 17.3607 127.118 17.3607 126.438 17.3607C126.107 16.3707 125.778 15.3807 125.438 14.3607C126.098 14.3607 126.757 14.3607 127.438 14.3607C127.768 13.0407 128.097 11.7207 128.438 10.3607C128.623 11.3198 128.623 11.3198 128.812 12.2982C129.019 12.9788 129.225 13.6595 129.438 14.3607C130.098 14.6907 130.757 15.0207 131.438 15.3607C131.768 13.7107 132.097 12.0607 132.438 10.3607C136.398 10.3607 140.358 10.3607 144.438 10.3607C144.438 8.05072 144.438 5.74072 144.438 3.36072Z" fill="#A15B4A"/>
<path d="M124.438 95.3607C124.438 98.6607 124.438 101.961 124.438 105.361C123.447 105.361 122.457 105.361 121.438 105.361C121.438 107.341 121.438 109.321 121.438 111.361C120.777 111.691 120.118 112.021 119.438 112.361C118.711 114.34 118.039 116.34 117.438 118.361C116.447 118.361 115.457 118.361 114.438 118.361C114.438 121.001 114.438 123.641 114.438 126.361C113.117 126.031 111.798 125.701 110.438 125.361C110.768 122.061 111.097 118.761 111.438 115.361C110.117 115.031 108.798 114.701 107.438 114.361C107.438 113.371 107.438 112.381 107.438 111.361C66.3525 110.866 66.3525 110.866 24.4375 110.361C24.4375 110.031 24.4375 109.701 24.4375 109.361C52.4875 109.361 80.5375 109.361 109.438 109.361C109.438 110.351 109.438 111.341 109.438 112.361C110.613 112.825 110.613 112.825 111.812 113.298C114.438 114.361 114.438 114.361 116.438 115.361C116.438 113.381 116.438 111.401 116.438 109.361C117.428 109.361 118.418 109.361 119.438 109.361C119.475 108.601 119.512 107.842 119.551 107.06C119.617 106.066 119.682 105.072 119.75 104.048C119.808 103.062 119.866 102.076 119.926 101.06C120.394 98.5893 121.352 95.3607 124.438 95.3607Z" fill="#D29B64"/>
<path d="M82.4375 10.3607C96.9575 10.3607 111.477 10.3607 126.438 10.3607C126.933 12.3407 126.933 12.3407 127.438 14.3607C126.777 14.3607 126.118 14.3607 125.438 14.3607C125.107 15.6807 124.778 17.0007 124.438 18.3607C124.438 17.0407 124.438 15.7207 124.438 14.3607C112.227 14.3607 100.017 14.3607 87.4375 14.3607C87.4375 15.0207 87.4375 15.6807 87.4375 16.3607C85.7875 16.3607 84.1375 16.3607 82.4375 16.3607C82.4375 14.3807 82.4375 12.4007 82.4375 10.3607Z" fill="#F7D58E"/>
<path d="M124.438 18.3607C124.768 18.3607 125.097 18.3607 125.438 18.3607C125.438 28.5907 125.438 38.8207 125.438 49.3607C126.758 49.3607 128.077 49.3607 129.438 49.3607C129.438 60.5807 129.438 71.8007 129.438 83.3607C128.117 83.3607 126.798 83.3607 125.438 83.3607C125.438 74.4507 125.438 65.5407 125.438 56.3607C122.963 56.8557 122.963 56.8557 120.438 57.3607C120.438 56.7007 120.438 56.0407 120.438 55.3607C121.758 55.3607 123.077 55.3607 124.438 55.3607C124.438 43.1507 124.438 30.9407 124.438 18.3607Z" fill="#D19E61"/>
<path d="M144.438 101.361C144.768 102.351 145.097 103.341 145.438 104.361C148.078 104.361 150.717 104.361 153.438 104.361C153.768 106.011 154.097 107.661 154.438 109.361C155.428 109.361 156.418 109.361 157.438 109.361C157.438 113.321 157.438 117.281 157.438 121.361C156.447 121.361 155.457 121.361 154.438 121.361C154.438 123.671 154.438 125.981 154.438 128.361C153.447 128.361 152.457 128.361 151.438 128.361C151.438 129.681 151.438 131.001 151.438 132.361C150.447 132.361 149.457 132.361 148.438 132.361C148.438 133.351 148.438 134.341 148.438 135.361C145.797 135.031 143.158 134.701 140.438 134.361C140.438 133.371 140.438 132.381 140.438 131.361C142.747 131.361 145.057 131.361 147.438 131.361C147.623 129.721 147.623 129.721 147.812 128.048C148.438 124.361 148.438 124.361 150.438 121.361C151.428 121.361 152.418 121.361 153.438 121.361C153.438 117.401 153.438 113.441 153.438 109.361C152.117 109.361 150.798 109.361 149.438 109.361C149.438 108.701 149.438 108.041 149.438 107.361C142.508 107.031 135.577 106.701 128.438 106.361C128.438 106.031 128.438 105.701 128.438 105.361C133.718 105.361 138.997 105.361 144.438 105.361C144.438 104.041 144.438 102.721 144.438 101.361Z" fill="#150610"/>
<path d="M118.438 112.361C119.758 112.361 121.077 112.361 122.438 112.361C122.438 114.671 122.438 116.981 122.438 119.361C121.447 119.361 120.457 119.361 119.438 119.361C119.561 120.939 119.561 120.939 119.688 122.548C119.4 126.93 118.489 128.309 115.438 131.361C114.777 131.691 114.118 132.021 113.438 132.361C126.307 132.856 126.307 132.856 139.438 133.361C139.768 132.701 140.097 132.041 140.438 131.361C142.418 131.691 144.398 132.021 146.438 132.361C145.777 133.351 145.118 134.341 144.438 135.361C142.147 135.684 142.147 135.684 139.253 135.609C138.172 135.589 137.091 135.569 135.978 135.548C134.807 135.511 133.636 135.473 132.43 135.435C131.234 135.408 130.038 135.382 128.806 135.355C124.974 135.267 121.144 135.158 117.312 135.048C114.72 134.985 112.128 134.923 109.535 134.863C103.169 134.711 96.8031 134.542 90.4375 134.361C90.4375 134.031 90.4375 133.701 90.4375 133.361C98.8525 132.866 98.8525 132.866 107.438 132.361C107.768 131.371 108.097 130.381 108.438 129.361C109.428 129.361 110.418 129.361 111.438 129.361C111.438 128.371 111.438 127.381 111.438 126.361C112.428 126.361 113.418 126.361 114.438 126.361C114.438 123.721 114.438 121.081 114.438 118.361C115.428 118.031 116.418 117.701 117.438 117.361C117.768 115.711 118.097 114.061 118.438 112.361Z" fill="#7B3E34"/>
<path d="M35.4375 0.360764C44.6602 0.291344 53.8828 0.237993 63.1056 0.205327C67.3879 0.189651 71.67 0.168378 75.9521 0.134445C80.0824 0.10192 84.2125 0.0839251 88.3428 0.0761318C89.921 0.070576 91.4991 0.0597271 93.0771 0.0435734C95.2826 0.0218892 97.4873 0.0187927 99.6929 0.0201874C100.95 0.0135255 102.207 0.00686371 103.502 0C104.955 0.178578 104.955 0.178578 106.438 0.360764C107.428 1.84576 107.428 1.84576 108.438 3.36076C72.7975 3.85576 72.7975 3.85576 36.4375 4.36076C36.1075 3.04076 35.7775 1.72076 35.4375 0.360764Z" fill="#2B0F1E"/>
<path d="M145.438 7.36072C147.747 7.36072 150.057 7.36072 152.438 7.36072C152.768 8.02072 153.097 8.68072 153.438 9.36072C155.462 10.0129 155.462 10.0129 157.438 10.3607C157.438 12.0107 157.438 13.6607 157.438 15.3607C158.758 15.3607 160.077 15.3607 161.438 15.3607C161.438 20.3107 161.438 25.2607 161.438 30.3607C160.117 30.3607 158.798 30.3607 157.438 30.3607C157.107 31.3507 156.778 32.3407 156.438 33.3607C154.788 33.0307 153.138 32.7007 151.438 32.3607C151.438 31.3707 151.438 30.3807 151.438 29.3607C152.758 29.0307 154.077 28.7007 155.438 28.3607C155.768 24.4007 156.097 20.4407 156.438 16.3607C155.447 16.3607 154.457 16.3607 153.438 16.3607C153.438 14.7107 153.438 13.0607 153.438 11.3607C150.797 11.3607 148.158 11.3607 145.438 11.3607C145.438 10.0407 145.438 8.72072 145.438 7.36072Z" fill="#21080C"/>
<path d="M69.4375 90.3607C84.6175 90.3607 99.7975 90.3607 115.438 90.3607C115.438 91.3507 115.438 92.3407 115.438 93.3607C100.257 93.3607 85.0775 93.3607 69.4375 93.3607C69.4375 92.3707 69.4375 91.3807 69.4375 90.3607Z" fill="#925834"/>
<path d="M19.4375 128.361C20.4275 128.856 20.4275 128.856 21.4375 129.361C24.0638 129.447 26.6631 129.476 29.2891 129.458C30.0631 129.457 30.8371 129.456 31.6346 129.454C34.1106 129.448 36.5865 129.436 39.0625 129.423C40.7396 129.418 42.4167 129.414 44.0938 129.41C48.2084 129.399 52.3229 129.381 56.4375 129.361C56.4375 130.681 56.4375 132.001 56.4375 133.361C52.3334 133.42 48.2294 133.455 44.125 133.486C42.4031 133.511 42.4031 133.511 40.6465 133.536C33.3454 133.578 26.5639 132.964 19.4375 131.361C19.4375 130.371 19.4375 129.381 19.4375 128.361Z" fill="#A45B3D"/>
<path d="M44.4375 76.3607C51.3675 76.8557 51.3675 76.8557 58.4375 77.3607C59.4375 80.3607 59.4375 80.3607 58.5 82.5482C58.1494 83.1463 57.7988 83.7445 57.4375 84.3607C58.0975 84.3607 58.7575 84.3607 59.4375 84.3607C59.4375 87.6607 59.4375 90.9607 59.4375 94.3607C58.1175 94.3607 56.7975 94.3607 55.4375 94.3607C55.1075 90.7307 54.7775 87.1007 54.4375 83.3607C51.1375 83.3607 47.8375 83.3607 44.4375 83.3607C44.4375 81.0507 44.4375 78.7407 44.4375 76.3607Z" fill="#FCE199"/>
<path d="M34.4375 64.3607C44.0075 64.3607 53.5775 64.3607 63.4375 64.3607C63.4375 65.6807 63.4375 67.0007 63.4375 68.3607C54.8575 68.3607 46.2775 68.3607 37.4375 68.3607C37.4375 69.6807 37.4375 71.0007 37.4375 72.3607C36.7775 72.3607 36.1175 72.3607 35.4375 72.3607C35.1075 69.7207 34.7775 67.0807 34.4375 64.3607Z" fill="#FCE5A7"/>
<path d="M99.4375 114.361C101.418 114.361 103.398 114.361 105.438 114.361C105.438 115.021 105.438 115.681 105.438 116.361C106.758 116.361 108.077 116.361 109.438 116.361C109.633 120.661 109.433 122.37 107.438 126.361C104.467 126.361 101.497 126.361 98.4375 126.361C97.1809 123.455 96.4375 121.565 96.4375 118.361C97.0975 118.031 97.7575 117.701 98.4375 117.361C98.7675 116.371 99.0975 115.381 99.4375 114.361Z" fill="#F1BE77"/>
<path d="M51.4375 58.3607C70.9075 58.3607 90.3775 58.3607 110.438 58.3607C110.438 58.6907 110.438 59.0207 110.438 59.3607C108.788 59.6907 107.138 60.0207 105.438 60.3607C105.438 60.6907 105.438 61.0207 105.438 61.3607C90.2575 61.3607 75.0775 61.3607 59.4375 61.3607C59.4375 61.0307 59.4375 60.7007 59.4375 60.3607C56.7975 60.0307 54.1575 59.7007 51.4375 59.3607C51.4375 59.0307 51.4375 58.7007 51.4375 58.3607Z" fill="#9D5B35"/>
<path d="M137.062 108.298C138.567 108.312 138.567 108.312 140.102 108.326C140.872 108.337 141.643 108.349 142.438 108.361C142.107 109.351 141.778 110.341 141.438 111.361C138.492 112.402 135.521 112.796 132.438 113.361C131.777 118.641 131.118 123.921 130.438 129.361C129.117 129.361 127.798 129.361 126.438 129.361C126.383 127.424 126.345 125.486 126.312 123.548C126.289 122.469 126.266 121.39 126.242 120.279C126.438 117.361 126.438 117.361 128.438 114.361C128.603 113.494 128.767 112.628 128.938 111.736C129.103 110.952 129.267 110.168 129.438 109.361C132.082 108.038 134.115 108.264 137.062 108.298Z" fill="#BD7558"/>
<path d="M129.438 3.36072C134.387 3.36072 139.338 3.36072 144.438 3.36072C144.438 5.67072 144.438 7.98072 144.438 10.3607C138.497 10.8557 138.497 10.8557 132.438 11.3607C132.107 12.6807 131.778 14.0007 131.438 15.3607C130.447 15.0307 129.457 14.7007 128.438 14.3607C128.438 13.0407 128.438 11.7207 128.438 10.3607C129.428 10.3607 130.418 10.3607 131.438 10.3607C131.438 8.71072 131.438 7.06072 131.438 5.36072C130.777 5.36072 130.118 5.36072 129.438 5.36072C129.438 4.70072 129.438 4.04072 129.438 3.36072Z" fill="#451D1D"/>
<path d="M118.438 50.3607C118.933 51.8457 118.933 51.8457 119.438 53.3607C105.908 53.3607 92.3775 53.3607 78.4375 53.3607C78.4375 54.6807 78.4375 56.0007 78.4375 57.3607C75.1375 57.3607 71.8375 57.3607 68.4375 57.3607C68.1075 56.7007 67.7775 56.0407 67.4375 55.3607C65.3117 54.8942 65.3117 54.8942 62.875 54.7357C62.0487 54.661 61.2224 54.5862 60.3711 54.5092C59.733 54.4602 59.0949 54.4112 58.4375 54.3607C58.4375 53.7007 58.4375 53.0407 58.4375 52.3607C78.2375 52.3607 98.0375 52.3607 118.438 52.3607C118.438 51.7007 118.438 51.0407 118.438 50.3607Z" fill="#FEF4B4"/>
<path d="M107.438 134.361C117.998 134.361 128.557 134.361 139.438 134.361C139.107 135.681 138.778 137.001 138.438 138.361C137.942 137.866 137.942 137.866 137.438 137.361C134.626 137.272 131.839 137.245 129.027 137.263C127.764 137.265 127.764 137.265 126.476 137.267C123.775 137.273 121.075 137.286 118.375 137.298C116.549 137.303 114.723 137.308 112.896 137.312C108.41 137.323 103.924 137.34 99.4375 137.361C99.4375 137.031 99.4375 136.701 99.4375 136.361C102.078 136.361 104.717 136.361 107.438 136.361C107.438 135.701 107.438 135.041 107.438 134.361Z" fill="#280510"/>
<path d="M33.4375 53.3607C33.7675 53.3607 34.0975 53.3607 34.4375 53.3607C34.637 56.5267 34.8198 59.6935 35 62.8607C35.0561 63.7476 35.1121 64.6345 35.1699 65.5482C35.4697 70.9834 35.2858 75.9817 34.4375 81.3607C33.1175 81.3607 31.7975 81.3607 30.4375 81.3607C30.4375 73.7707 30.4375 66.1807 30.4375 58.3607C31.0975 58.3607 31.7575 58.3607 32.4375 58.3607C32.7675 56.7107 33.0975 55.0607 33.4375 53.3607Z" fill="#F3CE82"/>
<path d="M15.4375 101.361C15.7675 101.361 16.0975 101.361 16.4375 101.361C16.4375 104.991 16.4375 108.621 16.4375 112.361C15.4475 112.856 15.4475 112.856 14.4375 113.361C14.5788 115.132 14.7257 116.903 14.875 118.673C14.9562 119.659 15.0374 120.645 15.1211 121.661C15.3556 124.454 15.3556 124.454 16.4375 127.361C17.4275 127.691 18.4175 128.021 19.4375 128.361C19.4375 129.351 19.4375 130.341 19.4375 131.361C18.1175 131.361 16.7975 131.361 15.4375 131.361C15.1075 130.701 14.7775 130.041 14.4375 129.361C12.4129 128.709 12.4129 128.709 10.4375 128.361C10.3561 126.132 10.2981 123.903 10.25 121.673C10.2152 120.432 10.1804 119.19 10.1445 117.911C10.454 114.161 11.1215 112.294 13.4375 109.361C14.0975 109.361 14.7575 109.361 15.4375 109.361C15.4375 106.721 15.4375 104.081 15.4375 101.361Z" fill="#1E0912"/>
<path d="M125.438 15.3607C125.768 16.0207 126.097 16.6807 126.438 17.3607C127.098 17.3607 127.757 17.3607 128.438 17.3607C128.438 27.9207 128.438 38.4807 128.438 49.3607C127.447 49.3607 126.457 49.3607 125.438 49.3607C125.438 38.1407 125.438 26.9207 125.438 15.3607Z" fill="#41150F"/>
<path d="M26.4375 50.3607C27.4275 50.3607 28.4175 50.3607 29.4375 50.3607C29.4375 60.9207 29.4375 71.4807 29.4375 82.3607C26.9625 82.8557 26.9625 82.8557 24.4375 83.3607C24.7675 82.3707 25.0975 81.3807 25.4375 80.3607C25.589 78.0781 25.6864 75.7918 25.7539 73.5052C25.7747 72.8436 25.7955 72.182 25.8169 71.5003C25.8821 69.3914 25.9412 67.2823 26 65.1732C26.0432 63.7416 26.0868 62.3099 26.1309 60.8783C26.2378 57.3726 26.3391 53.8667 26.4375 50.3607Z" fill="#100308"/>
<path d="M37.4375 48.3607C51.2975 48.3607 65.1575 48.3607 79.4375 48.3607C79.4375 48.6907 79.4375 49.0207 79.4375 49.3607C73.4975 49.6907 67.5575 50.0207 61.4375 50.3607C61.4375 50.6907 61.4375 51.0207 61.4375 51.3607C53.5175 51.3607 45.5975 51.3607 37.4375 51.3607C37.4375 50.3707 37.4375 49.3807 37.4375 48.3607Z" fill="#9D5932"/>
<path d="M56.4375 129.361C67.3275 129.361 78.2175 129.361 89.4375 129.361C89.4375 129.691 89.4375 130.021 89.4375 130.361C88.5455 130.41 87.6534 130.459 86.7344 130.509C85.5639 130.584 84.3934 130.659 83.1875 130.736C81.4473 130.84 81.4473 130.84 79.6719 130.947C76.5572 131.148 76.5572 131.148 74.5312 132.392C71.2116 133.928 67.771 133.568 64.1875 133.486C63.4424 133.477 62.6973 133.468 61.9297 133.458C60.0988 133.435 58.2681 133.399 56.4375 133.361C56.4375 132.041 56.4375 130.721 56.4375 129.361Z" fill="#CD8656"/>
<path d="M42.4375 54.3607C45.4075 54.6907 48.3775 55.0207 51.4375 55.3607C51.4375 56.0207 51.4375 56.6807 51.4375 57.3607C53.7475 57.3607 56.0575 57.3607 58.4375 57.3607C58.4375 56.7007 58.4375 56.0407 58.4375 55.3607C57.4475 55.0307 56.4575 54.7007 55.4375 54.3607C57.3955 54.3068 59.354 54.268 61.3125 54.2357C62.9483 54.2009 62.9483 54.2009 64.6172 54.1654C67.4375 54.3607 67.4375 54.3607 69.4375 56.3607C69.4375 57.0207 69.4375 57.6807 69.4375 58.3607C59.5375 58.3607 49.6375 58.3607 39.4375 58.3607C40.4275 58.0307 41.4175 57.7007 42.4375 57.3607C42.4375 56.3707 42.4375 55.3807 42.4375 54.3607Z" fill="#F7D18B"/>
<path d="M80.4375 55.3608C85.2063 55.2865 89.9749 55.2321 94.7441 55.196C96.3659 55.1809 97.9877 55.1604 99.6094 55.1344C101.943 55.098 104.276 55.081 106.609 55.0678C107.332 55.0523 108.056 55.0368 108.8 55.0209C113.464 55.0193 114.488 55.3985 118.438 58.3608C105.898 58.3608 93.3575 58.3608 80.4375 58.3608C80.4375 57.3708 80.4375 56.3808 80.4375 55.3608Z" fill="#F7D68D"/>
<path d="M37.4375 10.3607C50.3075 10.3607 63.1775 10.3607 76.4375 10.3607C76.4375 12.0107 76.4375 13.6607 76.4375 15.3607C74.5 15.9232 74.5 15.9232 72.4375 16.3607C71.9425 15.8657 71.9425 15.8657 71.4375 15.3607C68.9115 15.1242 66.4064 14.939 63.875 14.7982C62.8086 14.7334 62.8086 14.7334 61.7207 14.6674C59.9599 14.561 58.1987 14.4603 56.4375 14.3607C56.4375 14.0307 56.4375 13.7007 56.4375 13.3607C60.3975 13.3607 64.3575 13.3607 68.4375 13.3607C68.4375 12.7007 68.4375 12.0407 68.4375 11.3607C58.2075 11.3607 47.9775 11.3607 37.4375 11.3607C37.4375 11.0307 37.4375 10.7007 37.4375 10.3607Z" fill="#FBDF96"/>
<path d="M62.4375 40.3607C62.4375 42.0107 62.4375 43.6607 62.4375 45.3607C65.7375 44.7007 69.0375 44.0407 72.4375 43.3607C72.1075 44.6807 71.7775 46.0007 71.4375 47.3607C65.8275 47.3607 60.2175 47.3607 54.4375 47.3607C54.4375 45.3807 54.4375 43.4007 54.4375 41.3607C57.1463 40.0063 59.4468 40.2957 62.4375 40.3607Z" fill="#FDF1AE"/>
<path d="M106.438 19.3607C108.087 19.3607 109.737 19.3607 111.438 19.3607C110.117 19.6907 108.798 20.0207 107.438 20.3607C107.438 21.6807 107.438 23.0007 107.438 24.3607C108.428 24.3607 109.418 24.3607 110.438 24.3607C110.438 26.3407 110.438 28.3207 110.438 30.3607C106.104 30.3607 101.771 30.3607 97.4375 30.3607C97.4375 28.3807 97.4375 26.4007 97.4375 24.3607C100.408 24.3607 103.378 24.3607 106.438 24.3607C106.438 22.7107 106.438 21.0607 106.438 19.3607Z" fill="#F3DEA0"/>
<path d="M28.4375 8.36072C30.7475 8.36072 33.0575 8.36072 35.4375 8.36072C34.4475 9.84572 34.4475 9.84572 33.4375 11.3607C32.1175 11.3607 30.7975 11.3607 29.4375 11.3607C32.9025 12.8457 32.9025 12.8457 36.4375 14.3607C36.7675 13.3707 37.0975 12.3807 37.4375 11.3607C38.0975 12.6807 38.7575 14.0007 39.4375 15.3607C34.9825 15.8557 34.9825 15.8557 30.4375 16.3607C30.1075 18.6707 29.7775 20.9807 29.4375 23.3607C28.1175 23.3607 26.7975 23.3607 25.4375 23.3607C25.4375 20.3907 25.4375 17.4207 25.4375 14.3607C26.4275 14.3607 27.4175 14.3607 28.4375 14.3607C28.4375 12.3807 28.4375 10.4007 28.4375 8.36072Z" fill="#F7DF99"/>
<path d="M124.438 95.3607C124.438 98.6607 124.438 101.961 124.438 105.361C123.447 105.361 122.457 105.361 121.438 105.361C121.438 107.341 121.438 109.321 121.438 111.361C120.777 111.691 120.118 112.021 119.438 112.361C118.711 114.34 118.039 116.34 117.438 118.361C116.447 118.361 115.457 118.361 114.438 118.361C114.438 117.701 114.438 117.041 114.438 116.361C113.777 116.361 113.118 116.361 112.438 116.361C112.438 115.701 112.438 115.041 112.438 114.361C113.758 114.691 115.077 115.021 116.438 115.361C116.438 113.381 116.438 111.401 116.438 109.361C117.428 109.361 118.418 109.361 119.438 109.361C119.475 108.601 119.512 107.842 119.551 107.06C119.617 106.066 119.682 105.072 119.75 104.048C119.808 103.062 119.866 102.076 119.926 101.06C120.394 98.5893 121.352 95.3607 124.438 95.3607Z" fill="#CE9A61"/>
<path d="M63.4375 87.3607C63.4375 90.6607 63.4375 93.9607 63.4375 97.3607C58.9825 97.8557 58.9825 97.8557 54.4375 98.3607C54.4375 97.3707 54.4375 96.3807 54.4375 95.3607C53.7775 95.3607 53.1175 95.3607 52.4375 95.3607C52.4375 93.0507 52.4375 90.7407 52.4375 88.3607C53.4275 88.3607 54.4175 88.3607 55.4375 88.3607C55.4375 90.3407 55.4375 92.3207 55.4375 94.3607C56.7575 94.3607 58.0775 94.3607 59.4375 94.3607C59.4375 92.3807 59.4375 90.4007 59.4375 88.3607C62.4375 87.3607 62.4375 87.3607 63.4375 87.3607Z" fill="#593320"/>
<path d="M142.437 111.361C143.427 112.021 144.417 112.681 145.437 113.361C145.73 116.4 145.73 116.4 145.624 119.986C145.597 121.174 145.57 122.363 145.542 123.587C145.507 124.502 145.473 125.418 145.437 126.361C144.777 126.361 144.117 126.361 143.437 126.361C143.107 122.731 142.777 119.101 142.437 115.361C139.467 114.866 139.467 114.866 136.437 114.361C136.437 115.681 136.437 117.001 136.437 118.361C135.447 118.361 134.457 118.361 133.437 118.361C133.767 120.341 134.097 122.321 134.437 124.361C133.777 124.031 133.117 123.701 132.437 123.361C131.577 119.844 130.874 116.728 132.437 113.361C135.605 111.014 138.595 111.034 142.437 111.361Z" fill="#A15840"/>
<path d="M38.4375 81.3607C39.0975 81.3607 39.7575 81.3607 40.4375 81.3607C40.4375 82.3507 40.4375 83.3407 40.4375 84.3607C41.4275 84.3607 42.4175 84.3607 43.4375 84.3607C43.4375 86.0107 43.4375 87.6607 43.4375 89.3607C41.7875 89.3607 40.1375 89.3607 38.4375 89.3607C38.4375 91.3407 38.4375 93.3207 38.4375 95.3607C39.7575 95.3607 41.0775 95.3607 42.4375 95.3607C42.4375 96.3507 42.4375 97.3407 42.4375 98.3607C40.1275 98.3607 37.8175 98.3607 35.4375 98.3607C35.4375 95.0607 35.4375 91.7607 35.4375 88.3607C36.4275 88.3607 37.4175 88.3607 38.4375 88.3607C38.4375 86.0507 38.4375 83.7407 38.4375 81.3607Z" fill="#6D482E"/>
<path d="M20.4375 14.3607C21.7575 14.3607 23.0775 14.3607 24.4375 14.3607C24.4375 19.9707 24.4375 25.5807 24.4375 31.3607C23.1175 31.3607 21.7975 31.3607 20.4375 31.3607C20.4375 25.7507 20.4375 20.1407 20.4375 14.3607Z" fill="#17050D"/>
<path d="M16.4375 101.361C17.7575 101.361 19.0775 101.361 20.4375 101.361C20.4375 105.651 20.4375 109.941 20.4375 114.361C18.7875 114.361 17.1375 114.361 15.4375 114.361C15.4375 117.661 15.4375 120.961 15.4375 124.361C15.1075 124.361 14.7775 124.361 14.4375 124.361C14.1075 120.401 13.7775 116.441 13.4375 112.361C14.4275 112.361 15.4175 112.361 16.4375 112.361C16.4375 108.731 16.4375 105.101 16.4375 101.361Z" fill="#1C0609"/>
<path d="M37.4375 73.3607C48.3275 73.3607 59.2175 73.3607 70.4375 73.3607C70.4375 73.6907 70.4375 74.0207 70.4375 74.3607C66.1475 74.3607 61.8575 74.3607 57.4375 74.3607C57.1075 75.3507 56.7775 76.3407 56.4375 77.3607C54.9796 77.4147 53.5211 77.4535 52.0625 77.4857C51.2504 77.5089 50.4383 77.5321 49.6016 77.556C47.4375 77.3607 47.4375 77.3607 45.4375 75.3607C42.7821 74.7955 40.1461 74.6228 37.4375 74.3607C37.4375 74.0307 37.4375 73.7007 37.4375 73.3607Z" fill="#FDF9D5"/>
<path d="M129.438 56.3607C129.768 56.3607 130.097 56.3607 130.438 56.3607C130.438 65.6007 130.438 74.8407 130.438 84.3607C129.777 84.3607 129.118 84.3607 128.438 84.3607C128.438 87.6607 128.438 90.9607 128.438 94.3607C126.457 94.8557 126.457 94.8557 124.438 95.3607C124.768 91.4007 125.097 87.4407 125.438 83.3607C126.758 83.3607 128.077 83.3607 129.438 83.3607C129.438 74.4507 129.438 65.5407 129.438 56.3607Z" fill="#804C36"/>
<path d="M19.4375 128.361C20.4275 128.856 20.4275 128.856 21.4375 129.361C23.105 129.445 24.7758 129.468 26.4453 129.458C27.4314 129.455 28.4176 129.452 29.4336 129.449C30.9824 129.436 30.9824 129.436 32.5625 129.423C33.6028 129.419 34.643 129.414 35.7148 129.41C38.2891 129.398 40.8633 129.381 43.4375 129.361C42.4475 130.846 42.4475 130.846 41.4375 132.361C38.7681 132.612 36.3496 132.687 33.6875 132.611C32.9837 132.606 32.2798 132.6 31.5547 132.595C27.4244 132.534 23.504 132.154 19.4375 131.361C19.4375 130.371 19.4375 129.381 19.4375 128.361Z" fill="#B26B45"/>
<path d="M107.438 20.3607C108.758 20.3607 110.077 20.3607 111.438 20.3607C111.438 21.6807 111.438 23.0007 111.438 24.3607C112.428 24.3607 113.418 24.3607 114.438 24.3607C114.438 26.3407 114.438 28.3207 114.438 30.3607C113.777 30.3607 113.118 30.3607 112.438 30.3607C112.438 31.6807 112.438 33.0007 112.438 34.3607C110.788 34.3607 109.138 34.3607 107.438 34.3607C107.107 33.0407 106.778 31.7207 106.438 30.3607C107.758 30.3607 109.077 30.3607 110.438 30.3607C110.438 28.3807 110.438 26.4007 110.438 24.3607C109.447 24.3607 108.457 24.3607 107.438 24.3607C107.438 23.0407 107.438 21.7207 107.438 20.3607Z" fill="#7E502D"/>
<path d="M144.438 101.361C144.768 102.351 145.097 103.341 145.438 104.361C148.078 104.361 150.717 104.361 153.438 104.361C153.768 106.011 154.097 107.661 154.438 109.361C155.428 109.691 156.418 110.021 157.438 110.361C156.117 110.691 154.798 111.021 153.438 111.361C153.438 110.701 153.438 110.041 153.438 109.361C152.117 109.361 150.798 109.361 149.438 109.361C149.438 108.701 149.438 108.041 149.438 107.361C142.508 107.031 135.577 106.701 128.438 106.361C128.438 106.031 128.438 105.701 128.438 105.361C133.718 105.361 138.997 105.361 144.438 105.361C144.438 104.041 144.438 102.721 144.438 101.361Z" fill="#4D2E31"/>
<path d="M45.4375 63.3607C62.2675 63.3607 79.0975 63.3607 96.4375 63.3607C96.4375 63.6907 96.4375 64.0207 96.4375 64.3607C87.1975 64.3607 77.9575 64.3607 68.4375 64.3607C68.4375 65.0207 68.4375 65.6807 68.4375 66.3607C66.7875 66.3607 65.1375 66.3607 63.4375 66.3607C63.4375 65.7007 63.4375 65.0407 63.4375 64.3607C57.4975 64.3607 51.5575 64.3607 45.4375 64.3607C45.4375 64.0307 45.4375 63.7007 45.4375 63.3607Z" fill="#FEFDE8"/>
<path d="M118.438 112.361C119.758 112.361 121.077 112.361 122.438 112.361C122.438 114.671 122.438 116.981 122.438 119.361C121.447 119.361 120.457 119.361 119.438 119.361C119.438 121.671 119.438 123.981 119.438 126.361C118.117 126.361 116.798 126.361 115.438 126.361C115.438 123.721 115.438 121.081 115.438 118.361C116.098 118.031 116.757 117.701 117.438 117.361C118.093 114.833 118.093 114.833 118.438 112.361Z" fill="#3A1015"/>
<path d="M97.4375 109.361C101.398 109.361 105.358 109.361 109.438 109.361C109.438 110.351 109.438 111.341 109.438 112.361C110.758 113.021 112.077 113.681 113.438 114.361C113.107 115.021 112.778 115.681 112.438 116.361C113.098 116.361 113.757 116.361 114.438 116.361C114.438 119.661 114.438 122.961 114.438 126.361C113.117 126.031 111.798 125.701 110.438 125.361C110.768 122.061 111.097 118.761 111.438 115.361C110.117 115.031 108.798 114.701 107.438 114.361C107.438 113.371 107.438 112.381 107.438 111.361C104.138 111.031 100.838 110.701 97.4375 110.361C97.4375 110.031 97.4375 109.701 97.4375 109.361Z" fill="#E2A869"/>
<path d="M38.4375 89.3607C41.4075 89.3607 44.3775 89.3607 47.4375 89.3607C47.4375 91.3407 47.4375 93.3207 47.4375 95.3607C46.1175 95.3607 44.7975 95.3607 43.4375 95.3607C43.1075 96.3507 42.7775 97.3407 42.4375 98.3607C42.4375 97.3707 42.4375 96.3807 42.4375 95.3607C41.1175 95.3607 39.7975 95.3607 38.4375 95.3607C38.4375 93.3807 38.4375 91.4007 38.4375 89.3607Z" fill="#AC855E"/>
<path d="M152.438 122.361C152.768 122.361 153.097 122.361 153.438 122.361C153.768 124.341 154.097 126.321 154.438 128.361C153.447 128.361 152.457 128.361 151.438 128.361C151.438 129.681 151.438 131.001 151.438 132.361C150.447 132.361 149.457 132.361 148.438 132.361C148.438 133.351 148.438 134.341 148.438 135.361C145.797 135.031 143.158 134.701 140.438 134.361C140.438 133.371 140.438 132.381 140.438 131.361C142.747 131.361 145.057 131.361 147.438 131.361C147.768 129.711 148.097 128.061 148.438 126.361C149.428 126.361 150.418 126.361 151.438 126.361C151.768 125.041 152.097 123.721 152.438 122.361Z" fill="#23131D"/>
<path d="M94.4375 118.361C95.0975 118.361 95.7575 118.361 96.4375 118.361C97.6941 121.267 98.4375 123.157 98.4375 126.361C101.408 126.361 104.378 126.361 107.438 126.361C107.438 127.351 107.438 128.341 107.438 129.361C104.138 129.361 100.838 129.361 97.4375 129.361C97.1075 128.041 96.7775 126.721 96.4375 125.361C95.7775 125.361 95.1175 125.361 94.4375 125.361C94.4375 123.051 94.4375 120.741 94.4375 118.361Z" fill="#B97842"/>
<path d="M37.4375 52.3607C44.3675 52.3607 51.2975 52.3607 58.4375 52.3607C58.4375 54.0107 58.4375 55.6607 58.4375 57.3607C56.1275 57.3607 53.8175 57.3607 51.4375 57.3607C51.4375 56.7007 51.4375 56.0407 51.4375 55.3607C50.1175 55.3607 48.7975 55.3607 47.4375 55.3607C47.4375 54.7007 47.4375 54.0407 47.4375 53.3607C44.1375 53.3607 40.8375 53.3607 37.4375 53.3607C37.4375 53.0307 37.4375 52.7007 37.4375 52.3607Z" fill="#FEFAD8"/>
<path d="M130.438 118.361C131.098 118.361 131.758 118.361 132.438 118.361C132.541 119.124 132.644 119.887 132.75 120.673C133.504 123.618 133.991 124.613 136.438 126.361C139.044 127.083 139.044 127.083 141.438 127.361C141.438 128.021 141.438 128.681 141.438 129.361C136.983 129.856 136.983 129.856 132.438 130.361C131.145 126.241 130.175 122.692 130.438 118.361Z" fill="#904B3A"/>
<path d="M35.4375 4.3607C35.4375 5.6807 35.4375 7.0007 35.4375 8.3607C33.1275 8.3607 30.8175 8.3607 28.4375 8.3607C28.4375 10.3407 28.4375 12.3207 28.4375 14.3607C27.4475 14.0307 26.4575 13.7007 25.4375 13.3607C25.0796 7.99228 25.0796 7.99228 26.5 5.4857C29.4398 3.77873 32.1162 4.1727 35.4375 4.3607Z" fill="#110408"/>
<path d="M145.438 7.36072C147.747 7.36072 150.057 7.36072 152.438 7.36072C152.768 8.02072 153.097 8.68072 153.438 9.36072C154.428 9.69072 155.418 10.0207 156.438 10.3607C156.438 12.0107 156.438 13.6607 156.438 15.3607C155.447 15.6907 154.457 16.0207 153.438 16.3607C153.438 14.7107 153.438 13.0607 153.438 11.3607C150.797 11.3607 148.158 11.3607 145.438 11.3607C145.438 10.0407 145.438 8.72072 145.438 7.36072Z" fill="#1E060C"/>
<path d="M105.438 111.361C106.098 111.361 106.757 111.361 107.438 111.361C107.438 112.351 107.438 113.341 107.438 114.361C108.758 114.691 110.077 115.021 111.438 115.361C111.465 116.819 111.484 118.277 111.5 119.736C111.512 120.548 111.523 121.36 111.535 122.197C111.438 124.361 111.438 124.361 110.438 126.361C109.447 126.361 108.457 126.361 107.438 126.361C108.098 123.061 108.757 119.761 109.438 116.361C108.117 116.361 106.798 116.361 105.438 116.361C105.438 115.701 105.438 115.041 105.438 114.361C104.117 114.031 102.798 113.701 101.438 113.361C102.758 113.361 104.077 113.361 105.438 113.361C105.438 112.701 105.438 112.041 105.438 111.361Z" fill="#C8864F"/>
<path d="M38.4375 69.3607C42.7275 69.3607 47.0175 69.3607 51.4375 69.3607C51.4375 70.0207 51.4375 70.6807 51.4375 71.3607C52.7575 71.6907 54.0775 72.0207 55.4375 72.3607C49.4975 72.3607 43.5575 72.3607 37.4375 72.3607C37.7675 71.3707 38.0975 70.3807 38.4375 69.3607Z" fill="#925029"/>
<path d="M150.438 33.3607C150.438 34.6807 150.438 36.0007 150.438 37.3607C144.497 37.3607 138.557 37.3607 132.438 37.3607C132.438 36.7007 132.438 36.0407 132.438 35.3607C133.793 35.2698 133.793 35.2698 135.176 35.1771C136.945 35.0514 136.945 35.0514 138.75 34.9232C140.508 34.8014 140.508 34.8014 142.301 34.6771C145.143 34.3904 147.617 33.3607 150.438 33.3607Z" fill="#200711"/>
<path d="M133.438 107.361C138.718 107.361 143.997 107.361 149.438 107.361C149.438 108.021 149.438 108.681 149.438 109.361C150.758 109.361 152.077 109.361 153.438 109.361C153.438 112.991 153.438 116.621 153.438 120.361C153.107 120.361 152.778 120.361 152.438 120.361C152.438 117.061 152.438 113.761 152.438 110.361C150.519 110.392 150.519 110.392 148.562 110.423C144.688 110.486 144.688 110.486 142.438 109.361C140.901 109.136 139.358 108.953 137.812 108.798C136.995 108.714 136.178 108.631 135.336 108.544C134.709 108.484 134.083 108.423 133.438 108.361C133.438 108.031 133.438 107.701 133.438 107.361Z" fill="#A56046"/>
<path d="M42.4375 54.3607C45.4075 54.6907 48.3775 55.0207 51.4375 55.3607C51.4375 56.0207 51.4375 56.6807 51.4375 57.3607C53.7475 57.3607 56.0575 57.3607 58.4375 57.3607C58.4375 57.6907 58.4375 58.0207 58.4375 58.3607C52.1675 58.3607 45.8975 58.3607 39.4375 58.3607C40.4275 58.0307 41.4175 57.7007 42.4375 57.3607C42.4375 56.3707 42.4375 55.3807 42.4375 54.3607Z" fill="#F9D99C"/>
<path d="M67.5 39.2982C68.9541 39.3292 68.9541 39.3292 70.4375 39.3607C70.7675 40.6807 71.0975 42.0007 71.4375 43.3607C68.0665 44.8589 66.2331 45.3607 62.4375 45.3607C63.511 39.3796 63.511 39.3796 67.5 39.2982Z" fill="#F9CE82"/>
<path d="M55.4375 84.3607C56.7575 84.3607 58.0775 84.3607 59.4375 84.3607C59.4375 87.6607 59.4375 90.9607 59.4375 94.3607C58.1175 94.3607 56.7975 94.3607 55.4375 94.3607C55.4375 91.0607 55.4375 87.7607 55.4375 84.3607Z" fill="#BE9A71"/>
<path d="M126.438 29.3607C128.624 33.7337 128.671 36.8815 128.562 41.6107C128.553 42.3558 128.544 43.1009 128.535 43.8685C128.512 45.6994 128.476 47.5301 128.438 49.3607C127.447 49.3607 126.457 49.3607 125.438 49.3607C125.768 42.7607 126.097 36.1607 126.438 29.3607Z" fill="#4B1C17"/>
<path d="M71.4375 135.361C71.4375 136.021 71.4375 136.681 71.4375 137.361C72.4275 137.691 73.4175 138.021 74.4375 138.361C71.8539 138.415 69.2714 138.454 66.6875 138.486C65.9579 138.503 65.2283 138.519 64.4766 138.537C60.633 138.571 57.6914 138.536 54.4375 136.361C65.9591 135.213 65.9591 135.213 71.4375 135.361Z" fill="#1B0C1F"/>
<path d="M156.438 10.3607C156.768 10.3607 157.098 10.3607 157.438 10.3607C157.438 12.0107 157.438 13.6607 157.438 15.3607C158.758 15.3607 160.078 15.3607 161.438 15.3607C161.438 20.3107 161.438 25.2607 161.438 30.3607C160.118 30.0307 158.798 29.7007 157.438 29.3607C158.428 29.3607 159.418 29.3607 160.438 29.3607C160.438 25.0707 160.438 20.7807 160.438 16.3607C159.448 16.3607 158.458 16.3607 157.438 16.3607C157.438 19.9907 157.438 23.6207 157.438 27.3607C157.108 27.3607 156.778 27.3607 156.438 27.3607C156.242 25.4658 156.057 23.5697 155.876 21.6732C155.771 20.6175 155.667 19.5617 155.56 18.474C155.446 15.5465 155.73 13.1894 156.438 10.3607Z" fill="#604449"/>
<path d="M52.4375 88.3607C53.4275 88.3607 54.4175 88.3607 55.4375 88.3607C55.4375 90.3407 55.4375 92.3207 55.4375 94.3607C56.7575 94.3607 58.0775 94.3607 59.4375 94.3607C59.4375 92.3807 59.4375 90.4007 59.4375 88.3607C60.0975 88.6907 60.7575 89.0207 61.4375 89.3607C61.4375 91.3407 61.4375 93.3207 61.4375 95.3607C58.4675 95.3607 55.4975 95.3607 52.4375 95.3607C52.4375 93.0507 52.4375 90.7407 52.4375 88.3607Z" fill="#7C553A"/>
<path d="M102.438 48.3607C107.718 48.3607 112.997 48.3607 118.438 48.3607C118.438 49.3507 118.438 50.3407 118.438 51.3607C114.807 51.3607 111.178 51.3607 107.438 51.3607C107.438 51.0307 107.438 50.7007 107.438 50.3607C105.788 50.0307 104.138 49.7007 102.438 49.3607C102.438 49.0307 102.438 48.7007 102.438 48.3607Z" fill="#945633"/>
<path d="M116.438 11.3607C120.068 11.3607 123.697 11.3607 127.438 11.3607C127.438 12.3507 127.438 13.3407 127.438 14.3607C126.777 14.3607 126.118 14.3607 125.438 14.3607C125.107 15.6807 124.778 17.0007 124.438 18.3607C124.438 17.0407 124.438 15.7207 124.438 14.3607C121.797 14.3607 119.158 14.3607 116.438 14.3607C116.438 13.3707 116.438 12.3807 116.438 11.3607Z" fill="#EEC580"/>
<path d="M97.4375 24.3607C99.4175 24.3607 101.398 24.3607 103.438 24.3607C103.438 26.3407 103.438 28.3207 103.438 30.3607C101.457 30.3607 99.4775 30.3607 97.4375 30.3607C97.4375 28.3807 97.4375 26.4007 97.4375 24.3607Z" fill="#E4C078"/>
<path d="M15.4371 101.361C15.7671 101.361 16.0971 101.361 16.4371 101.361C16.4371 104.991 16.4371 108.621 16.4371 112.361C15.4471 112.361 14.4571 112.361 13.4371 112.361C12.4232 115.982 11.9381 119.639 11.4371 123.361C11.1071 123.361 10.7771 123.361 10.4371 123.361C9.86412 113.621 9.86412 113.621 13.4371 109.361C14.0971 109.361 14.7571 109.361 15.4371 109.361C15.4371 106.721 15.4371 104.081 15.4371 101.361Z" fill="#524048"/>
<path d="M37.4375 48.3607C39.2076 48.2796 40.9787 48.2215 42.75 48.1732C43.7361 48.1384 44.7223 48.1036 45.7383 48.0677C48.4375 48.3607 48.4375 48.3607 51.4375 51.3607C46.8175 51.3607 42.1975 51.3607 37.4375 51.3607C37.4375 50.3707 37.4375 49.3807 37.4375 48.3607Z" fill="#6F351C"/>
<path d="M140.438 11.3607C144.727 11.3607 149.017 11.3607 153.438 11.3607C153.438 13.0107 153.438 14.6607 153.438 16.3607C152.777 15.7007 152.118 15.0407 151.438 14.3607C149.105 14.3175 146.77 14.3205 144.438 14.3607C142 13.8607 142 13.8607 140.438 13.3607C140.438 12.7007 140.438 12.0407 140.438 11.3607Z" fill="#AA6249"/>
<path d="M89.4375 110.361C92.4075 110.691 95.3775 111.021 98.4375 111.361C98.4375 112.351 98.4375 113.341 98.4375 114.361C97.7775 114.361 97.1175 114.361 96.4375 114.361C96.4375 115.351 96.4375 116.341 96.4375 117.361C97.0975 117.691 97.7575 118.021 98.4375 118.361C97.1175 118.031 95.7975 117.701 94.4375 117.361C94.4375 116.371 94.4375 115.381 94.4375 114.361C92.1275 114.031 89.8175 113.701 87.4375 113.361C88.0975 112.371 88.7575 111.381 89.4375 110.361Z" fill="#C7814C"/>
<path d="M112.062 39.2982C113.288 39.3118 113.288 39.3118 114.539 39.3256C115.479 39.343 115.479 39.343 116.438 39.3607C116.107 40.0207 115.778 40.6807 115.438 41.3607C113.788 41.3607 112.138 41.3607 110.438 41.3607C110.438 42.3507 110.438 43.3407 110.438 44.3607C108.788 44.3607 107.138 44.3607 105.438 44.3607C105.438 43.0407 105.438 41.7207 105.438 40.3607C107.843 39.158 109.387 39.26 112.062 39.2982Z" fill="#FBD286"/>
<path d="M93.4375 130.361C98.3875 130.361 103.338 130.361 108.438 130.361C108.107 131.351 107.778 132.341 107.438 133.361C102.818 133.361 98.1975 133.361 93.4375 133.361C93.4375 132.371 93.4375 131.381 93.4375 130.361Z" fill="#C48456"/>
<path d="M124.438 96.3607C124.768 96.3607 125.097 96.3607 125.438 96.3607C125.768 101.311 126.097 106.261 126.438 111.361C125.117 111.361 123.798 111.361 122.438 111.361C122.438 109.381 122.438 107.401 122.438 105.361C123.098 105.361 123.757 105.361 124.438 105.361C124.438 102.391 124.438 99.4207 124.438 96.3607Z" fill="#3B1416"/>
<path d="M145.438 114.361C145.768 114.361 146.097 114.361 146.438 114.361C146.438 118.321 146.438 122.281 146.438 126.361C147.098 126.691 147.757 127.021 148.438 127.361C147.777 127.361 147.118 127.361 146.438 127.361C146.438 128.351 146.438 129.341 146.438 130.361C145.117 130.361 143.798 130.361 142.438 130.361C142.438 128.381 142.438 126.401 142.438 124.361C142.768 125.021 143.097 125.681 143.438 126.361C144.098 126.361 144.757 126.361 145.438 126.361C145.438 122.401 145.438 118.441 145.438 114.361Z" fill="#C17956"/>
<path d="M127.438 10.3607C127.726 10.9795 128.015 11.5982 128.312 12.2357C129.375 14.494 129.375 14.494 131.438 16.3607C130.777 16.3607 130.118 16.3607 129.438 16.3607C129.438 21.9707 129.438 27.5807 129.438 33.3607C129.107 33.3607 128.778 33.3607 128.438 33.3607C128.438 28.0807 128.438 22.8007 128.438 17.3607C127.777 17.3607 127.118 17.3607 126.438 17.3607C126.107 16.3707 125.778 15.3807 125.438 14.3607C126.098 14.3607 126.757 14.3607 127.438 14.3607C127.438 13.0407 127.438 11.7207 127.438 10.3607Z" fill="#713B2F"/>
<path d="M38.4375 81.3607C39.0975 81.3607 39.7575 81.3607 40.4375 81.3607C40.4375 82.3507 40.4375 83.3407 40.4375 84.3607C41.4275 84.3607 42.4175 84.3607 43.4375 84.3607C43.4375 86.0107 43.4375 87.6607 43.4375 89.3607C41.7875 89.3607 40.1375 89.3607 38.4375 89.3607C38.4375 86.7207 38.4375 84.0807 38.4375 81.3607Z" fill="#A07755"/>
<path d="M148.438 31.3607C150.5 31.7982 150.5 31.7982 152.438 32.3607C152.107 34.0107 151.778 35.6607 151.438 37.3607C151.107 36.0407 150.778 34.7207 150.438 33.3607C149.447 33.8557 149.447 33.8557 148.438 34.3607C147.062 34.4438 145.683 34.4681 144.305 34.4584C143.499 34.4552 142.693 34.4519 141.863 34.4486C141.022 34.4402 140.18 34.4319 139.312 34.4232C138.463 34.4187 137.614 34.4142 136.738 34.4095C134.638 34.3977 132.538 34.3798 130.438 34.3607C130.438 34.0307 130.438 33.7007 130.438 33.3607C132.261 33.2698 132.261 33.2698 134.121 33.1771C135.706 33.0927 137.29 33.0081 138.875 32.9232C139.677 32.8839 140.48 32.8446 141.307 32.8041C145.19 32.9553 145.19 32.9553 148.438 31.3607Z" fill="#562C30"/>
<path d="M46.4375 78.3607C48.7475 78.3607 51.0575 78.3607 53.4375 78.3607C53.4375 80.0107 53.4375 81.6607 53.4375 83.3607C51.1275 82.7007 48.8175 82.0407 46.4375 81.3607C46.4375 80.3707 46.4375 79.3807 46.4375 78.3607Z" fill="#F9D78A"/>
<path d="M101.438 64.3607C104.078 64.3607 106.717 64.3607 109.438 64.3607C109.107 65.3507 108.778 66.3407 108.438 67.3607C104.477 67.3607 100.517 67.3607 96.4375 67.3607C96.4375 67.0307 96.4375 66.7007 96.4375 66.3607C98.0875 66.3607 99.7375 66.3607 101.438 66.3607C101.438 65.7007 101.438 65.0407 101.438 64.3607Z" fill="#FBE8A3"/>
<path d="M38.4375 59.3607C40.0875 59.3607 41.7375 59.3607 43.4375 59.3607C43.4375 60.0207 43.4375 60.6807 43.4375 61.3607C47.3975 61.3607 51.3575 61.3607 55.4375 61.3607C55.4375 61.6907 55.4375 62.0207 55.4375 62.3607C49.8275 62.3607 44.2175 62.3607 38.4375 62.3607C38.4375 61.3707 38.4375 60.3807 38.4375 59.3607Z" fill="#7A3716"/>
<path d="M114.438 24.3607C115.428 25.0207 116.418 25.6807 117.438 26.3607C117.625 29.9857 117.625 29.9857 117.438 33.3607C115.788 33.6907 114.138 34.0207 112.438 34.3607C112.438 33.0407 112.438 31.7207 112.438 30.3607C113.098 30.3607 113.757 30.3607 114.438 30.3607C114.438 28.3807 114.438 26.4007 114.438 24.3607Z" fill="#EBC586"/>
<path d="M134.438 4.36072C137.737 4.36072 141.037 4.36072 144.438 4.36072C144.438 5.68072 144.438 7.00072 144.438 8.36072C137.812 7.73572 137.812 7.73572 134.438 4.36072Z" fill="#120207"/>
<path d="M152.438 122.361C152.768 122.361 153.097 122.361 153.438 122.361C153.768 124.341 154.097 126.321 154.438 128.361C153.447 128.361 152.457 128.361 151.438 128.361C151.438 129.351 151.438 130.341 151.438 131.361C150.447 131.361 149.457 131.361 148.438 131.361C148.438 129.711 148.438 128.061 148.438 126.361C149.428 126.361 150.418 126.361 151.438 126.361C151.768 125.041 152.097 123.721 152.438 122.361Z" fill="#10040D"/>
<path d="M125.438 49.3607C126.758 49.3607 128.077 49.3607 129.438 49.3607C129.438 51.6707 129.438 53.9807 129.438 56.3607C128.117 56.0307 126.798 55.7007 125.438 55.3607C125.438 53.3807 125.438 51.4007 125.438 49.3607Z" fill="#B47748"/>
<path d="M128.438 94.3607C128.438 97.0007 128.438 99.6407 128.438 102.361C127.447 102.361 126.457 102.361 125.438 102.361C125.107 100.051 124.778 97.7407 124.438 95.3607C126.438 94.3607 126.438 94.3607 128.438 94.3607Z" fill="#1D070F"/>
<path d="M125.438 74.3607C126.923 75.3507 126.923 75.3507 128.438 76.3607C128.625 79.9857 128.625 79.9857 128.438 83.3607C127.447 83.3607 126.457 83.3607 125.438 83.3607C125.438 80.3907 125.438 77.4207 125.438 74.3607Z" fill="#D4A25E"/>
<path d="M27.4375 44.3607C28.0975 45.0207 28.7575 45.6807 29.4375 46.3607C29.4141 48.7435 29.4141 48.7435 29.0625 51.4857C28.9516 52.3958 28.8408 53.3059 28.7266 54.2435C28.6312 54.9422 28.5358 55.6409 28.4375 56.3607C28.1075 56.3607 27.7775 56.3607 27.4375 56.3607C26.7775 52.7307 26.1175 49.1007 25.4375 45.3607C26.0975 45.0307 26.7575 44.7007 27.4375 44.3607Z" fill="#40272A"/>
<path d="M48.4375 48.3607C52.0675 48.3607 55.6975 48.3607 59.4375 48.3607C58.4475 49.8457 58.4475 49.8457 57.4375 51.3607C54.1375 51.0307 50.8375 50.7007 47.4375 50.3607C47.7675 49.7007 48.0975 49.0407 48.4375 48.3607Z" fill="#8E4E2B"/>
<path d="M24.4375 7.36072C24.7675 7.36072 25.0975 7.36072 25.4375 7.36072C26.6693 13.5197 26.1678 19.1475 25.4375 25.3607C25.1075 25.3607 24.7775 25.3607 24.4375 25.3607C24.4375 21.7307 24.4375 18.1007 24.4375 14.3607C23.1175 14.0307 21.7975 13.7007 20.4375 13.3607C21.7575 13.3607 23.0775 13.3607 24.4375 13.3607C24.4375 11.3807 24.4375 9.40072 24.4375 7.36072Z" fill="#452D2E"/>
<path d="M55.4375 52.3607C56.4275 52.3607 57.4175 52.3607 58.4375 52.3607C58.4375 54.0107 58.4375 55.6607 58.4375 57.3607C56.1275 57.3607 53.8175 57.3607 51.4375 57.3607C51.4375 56.7007 51.4375 56.0407 51.4375 55.3607C52.4275 55.3607 53.4175 55.3607 54.4375 55.3607C54.7675 54.3707 55.0975 53.3807 55.4375 52.3607Z" fill="#FDF5C8"/>
<path d="M150.438 121.361C151.758 121.361 153.077 121.361 154.438 121.361C154.438 123.341 154.438 125.321 154.438 127.361C153.777 126.371 153.118 125.381 152.438 124.361C152.107 125.021 151.778 125.681 151.438 126.361C150.447 126.361 149.457 126.361 148.438 126.361C149.098 124.711 149.757 123.061 150.438 121.361Z" fill="#5B3233"/>
<path d="M25.4375 84.3607C25.7675 84.3607 26.0975 84.3607 26.4375 84.3607C26.4375 87.0007 26.4375 89.6407 26.4375 92.3607C25.4475 92.6907 24.4575 93.0207 23.4375 93.3607C23.1875 87.7357 23.1875 87.7357 25.4375 84.3607Z" fill="#19050D"/>
<path d="M132.438 83.3607C132.438 86.0007 132.438 88.6407 132.438 91.3607C131.447 91.0307 130.457 90.7007 129.438 90.3607C129.438 88.3807 129.438 86.4007 129.438 84.3607C131.438 83.3607 131.438 83.3607 132.438 83.3607Z" fill="#210712"/>
<path d="M116.438 112.361C117.098 112.691 117.757 113.021 118.438 113.361C118.107 115.011 117.778 116.661 117.438 118.361C116.447 118.361 115.457 118.361 114.438 118.361C114.438 117.701 114.438 117.041 114.438 116.361C113.777 116.361 113.118 116.361 112.438 116.361C112.438 115.701 112.438 115.041 112.438 114.361C113.758 114.691 115.077 115.021 116.438 115.361C116.438 114.371 116.438 113.381 116.438 112.361Z" fill="#BB7F54"/>
<path d="M131.438 113.361C131.438 115.011 131.438 116.661 131.438 118.361C129.457 119.351 129.457 119.351 127.438 120.361C127.25 117.986 127.25 117.986 127.438 115.361C130.438 113.361 130.438 113.361 131.438 113.361Z" fill="#C88062"/>
<path d="M38.4375 89.3607C39.7575 89.3607 41.0775 89.3607 42.4375 89.3607C42.4375 91.0107 42.4375 92.6607 42.4375 94.3607C41.1175 94.3607 39.7975 94.3607 38.4375 94.3607C38.4375 92.7107 38.4375 91.0607 38.4375 89.3607Z" fill="#FDF6CA"/>
<path d="M34.4375 9.36072C35.4275 10.0207 36.4175 10.6807 37.4375 11.3607C37.1075 12.3507 36.7775 13.3407 36.4375 14.3607C34.1275 14.0307 31.8175 13.7007 29.4375 13.3607C29.4375 12.7007 29.4375 12.0407 29.4375 11.3607C31.75 10.2357 31.75 10.2357 34.4375 9.36072Z" fill="#FDF5B9"/>
<path d="M19.4375 128.361C20.4275 128.856 20.4275 128.856 21.4375 129.361C23.4371 129.401 25.438 129.404 27.4375 129.361C27.4375 130.351 27.4375 131.341 27.4375 132.361C24.7975 132.031 22.1575 131.701 19.4375 131.361C19.4375 130.371 19.4375 129.381 19.4375 128.361Z" fill="#A25939"/>
<path d="M84.4375 11.3607C86.8125 11.1732 86.8125 11.1732 89.4375 11.3607C90.0975 12.3507 90.7575 13.3407 91.4375 14.3607C89.1275 14.6907 86.8175 15.0207 84.4375 15.3607C84.4375 14.0407 84.4375 12.7207 84.4375 11.3607Z" fill="#FBD68B"/>
<path d="M34.4375 35.3607C35.7575 35.3607 37.0775 35.3607 38.4375 35.3607C38.4375 37.0107 38.4375 38.6607 38.4375 40.3607C37.1175 40.0307 35.7975 39.7007 34.4375 39.3607C34.4375 38.0407 34.4375 36.7207 34.4375 35.3607Z" fill="#FDE191"/>
<path d="M111.438 24.3607C112.428 24.3607 113.418 24.3607 114.438 24.3607C114.438 26.3407 114.438 28.3207 114.438 30.3607C113.447 30.3607 112.457 30.3607 111.438 30.3607C111.438 28.3807 111.438 26.4007 111.438 24.3607Z" fill="#562611"/>
<path d="M28.4375 8.36072C30.7475 8.36072 33.0575 8.36072 35.4375 8.36072C34.4475 9.84572 34.4475 9.84572 33.4375 11.3607C30.8125 11.5482 30.8125 11.5482 28.4375 11.3607C28.4375 10.3707 28.4375 9.38072 28.4375 8.36072Z" fill="#D0A77B"/>
<path d="M111.438 126.361C111.768 126.361 112.097 126.361 112.438 126.361C112.562 128.736 112.562 128.736 112.438 131.361C111.777 132.021 111.118 132.681 110.438 133.361C109.447 133.031 108.457 132.701 107.438 132.361C107.768 131.371 108.097 130.381 108.438 129.361C109.428 129.361 110.418 129.361 111.438 129.361C111.438 128.371 111.438 127.381 111.438 126.361Z" fill="#9A553A"/>
<path d="M52.4375 88.3607C53.4275 88.3607 54.4175 88.3607 55.4375 88.3607C55.4375 90.0107 55.4375 91.6607 55.4375 93.3607C54.4475 93.6907 53.4575 94.0207 52.4375 94.3607C52.4375 92.3807 52.4375 90.4007 52.4375 88.3607Z" fill="#65412D"/>
<path d="M27.4375 82.3607C28.9225 83.3507 28.9225 83.3507 30.4375 84.3607C30.625 87.4857 30.625 87.4857 30.4375 90.3607C29.4475 90.0307 28.4575 89.7007 27.4375 89.3607C27.4375 87.0507 27.4375 84.7407 27.4375 82.3607Z" fill="#E9CE9A"/>
<path d="M25.4375 8.36072C26.4275 8.36072 27.4175 8.36072 28.4375 8.36072C28.4375 10.3407 28.4375 12.3207 28.4375 14.3607C27.4475 14.0307 26.4575 13.7007 25.4375 13.3607C25.4375 11.7107 25.4375 10.0607 25.4375 8.36072Z" fill="#260C15"/>
</svg>
