<svg width="133" height="157" viewBox="0 0 133 157" fill="none" xmlns="http://www.w3.org/2000/svg">
<path d="M30.3281 0C52.7681 0 75.2081 0 98.3281 0C98.3281 2.31 98.3281 4.62 98.3281 7C107.238 7 116.148 7 125.328 7C125.328 7.99 125.328 8.98 125.328 10C126.648 10.33 127.968 10.66 129.328 11C129.328 25.52 129.328 40.04 129.328 55C128.008 55.33 126.688 55.66 125.328 56C125.235 57.8872 125.235 57.8872 125.141 59.8125C124.733 63.2031 124.661 63.7271 121.891 66C119.328 67 119.328 67 117.328 67C117.328 67.99 117.328 68.98 117.328 70C115.346 71.6873 113.345 73.3537 111.328 75C110.833 76.485 110.833 76.485 110.328 78C109.668 78 109.008 78 108.328 78C108.328 80.97 108.328 83.94 108.328 87C109.978 87 111.628 87 113.328 87C113.328 98.22 113.328 109.44 113.328 121C111.678 121 110.028 121 108.328 121C108.328 124.63 108.328 128.26 108.328 132C106.018 132 103.708 132 101.328 132C101.328 133.98 101.328 135.96 101.328 138C99.0181 138 96.7081 138 94.3281 138C94.3281 139.65 94.3281 141.3 94.3281 143C92.0181 143 89.7081 143 87.3281 143C87.3281 144.65 87.3281 146.3 87.3281 148C72.1481 148 56.9681 148 41.3281 148C41.3281 146.35 41.3281 144.7 41.3281 143C38.6881 143 36.0481 143 33.3281 143C33.3281 141.35 33.3281 139.7 33.3281 138C31.3481 138 29.3681 138 27.3281 138C27.3281 136.02 27.3281 134.04 27.3281 132C25.3481 132 23.3681 132 21.3281 132C21.3281 128.37 21.3281 124.74 21.3281 121C19.6781 121 18.0281 121 16.3281 121C16.3281 109.78 16.3281 98.56 16.3281 87C17.9781 87 19.6281 87 21.3281 87C21.3281 84.03 21.3281 81.06 21.3281 78C20.0081 78 18.6881 78 17.3281 78C17.3281 76.68 17.3281 75.36 17.3281 74C16.6681 74 16.0081 74 15.3281 74C15.3281 73.01 15.3281 72.02 15.3281 71C14.3381 71 13.3481 71 12.3281 71C12.3281 69.68 12.3281 68.36 12.3281 67C11.0081 67 9.68813 67 8.32812 67C8.32812 66.34 8.32812 65.68 8.32812 65C7.00812 64.67 5.68813 64.34 4.32812 64C4.32812 61.36 4.32812 58.72 4.32812 56C3.00812 56 1.68813 56 0.328125 56C0.328125 41.15 0.328125 26.3 0.328125 11C1.64813 11 2.96812 11 4.32812 11C4.32812 9.68 4.32812 8.36 4.32812 7C12.9081 7 21.4881 7 30.3281 7C30.3281 4.69 30.3281 2.38 30.3281 0Z" fill="#300F11"/>
<path d="M46.3281 60C57.5481 60 68.7681 60 80.3281 60C80.3281 61.32 80.3281 62.64 80.3281 64C81.3181 64 82.3081 64 83.3281 64C83.3281 65.98 83.3281 67.96 83.3281 70C86.6281 70 89.9281 70 93.3281 70C93.3281 71.65 93.3281 73.3 93.3281 75C94.6481 75 95.9681 75 97.3281 75C97.3281 76.32 97.3281 77.64 97.3281 79C98.9781 79 100.628 79 102.328 79C102.328 82.3 102.328 85.6 102.328 89C104.308 89 106.288 89 108.328 89C108.328 99.23 108.328 109.46 108.328 120C106.348 120 104.368 120 102.328 120C102.328 122.97 102.328 125.94 102.328 129C101.008 129.33 99.6881 129.66 98.3281 130C98.3281 130.66 98.3281 131.32 98.3281 132C96.6781 132 95.0281 132 93.3281 132C93.3281 133.98 93.3281 135.96 93.3281 138C90.0281 138 86.7281 138 83.3281 138C83.3281 139.98 83.3281 141.96 83.3281 144C71.4481 144 59.5681 144 47.3281 144C47.3281 142.02 47.3281 140.04 47.3281 138C43.6981 138 40.0681 138 36.3281 138C35.8331 135.03 35.8331 135.03 35.3281 132C34.1938 131.856 33.0594 131.711 31.8906 131.562C28.3281 131 28.3281 131 27.3281 130C27.2561 128.314 27.2443 126.625 27.2656 124.938C27.2746 124.018 27.2837 123.099 27.293 122.152C27.3104 121.087 27.3104 121.087 27.3281 120C25.3481 120 23.3681 120 21.3281 120C21.3281 109.77 21.3281 99.54 21.3281 89C23.3081 89 25.2881 89 27.3281 89C27.3281 85.7 27.3281 82.4 27.3281 79C28.6481 79 29.9681 79 31.3281 79C31.3281 77.68 31.3281 76.36 31.3281 75C32.9781 75 34.6281 75 36.3281 75C36.3281 73.02 36.3281 71.04 36.3281 69C39.6281 69 42.9281 69 46.3281 69C46.3281 66.03 46.3281 63.06 46.3281 60Z" fill="#F39821"/>
<path d="M52.3281 73C60.5781 73 68.8281 73 77.3281 73C77.3281 74.65 77.3281 76.3 77.3281 78C79.3081 78.33 81.2881 78.66 83.3281 79C83.8231 81.475 83.8231 81.475 84.3281 84C85.6481 84 86.9681 84 88.3281 84C88.3281 86.64 88.3281 89.28 88.3281 92C89.9781 92 91.6281 92 93.3281 92C93.3281 98.93 93.3281 105.86 93.3281 113C91.6781 113 90.0281 113 88.3281 113C88.3281 115.31 88.3281 117.62 88.3281 120C85.8531 120.495 85.8531 120.495 83.3281 121C83.3281 122.98 83.3281 124.96 83.3281 127C81.0181 127 78.7081 127 76.3281 127C76.3281 128.32 76.3281 129.64 76.3281 131C68.7381 131 61.1481 131 53.3281 131C53.3281 129.35 53.3281 127.7 53.3281 126C51.0181 126 48.7081 126 46.3281 126C45.9981 124.35 45.6681 122.7 45.3281 121C44.0081 120.67 42.6881 120.34 41.3281 120C41.3281 117.69 41.3281 115.38 41.3281 113C39.6781 113 38.0281 113 36.3281 113C36.3281 106.07 36.3281 99.14 36.3281 92C37.6481 91.67 38.9681 91.34 40.3281 91C40.4106 89.8863 40.4931 88.7725 40.5781 87.625C40.8256 86.4288 41.0731 85.2325 41.3281 84C43.3281 82.8125 43.3281 82.8125 45.3281 82C46.1334 79.95 46.1334 79.95 46.3281 78C48.3081 78 50.2881 78 52.3281 78C52.3281 76.35 52.3281 74.7 52.3281 73Z" fill="#62211B"/>
<path d="M36.3281 4C54.8081 4 73.2881 4 92.3281 4C92.3281 9.94 92.3281 15.88 92.3281 22C91.0081 22 89.6881 22 88.3281 22C88.3281 29.59 88.3281 37.18 88.3281 45C85.8531 45.495 85.8531 45.495 83.3281 46C83.3281 48.97 83.3281 51.94 83.3281 55C71.1181 55 58.9081 55 46.3281 55C46.3281 53.35 46.3281 51.7 46.3281 50C44.6781 50 43.0281 50 41.3281 50C41.3281 40.76 41.3281 31.52 41.3281 22C39.6781 22 38.0281 22 36.3281 22C36.3281 16.06 36.3281 10.12 36.3281 4Z" fill="#CA1D14"/>
<path d="M18.3281 121C19.3181 121 20.3081 121 21.3281 121C21.3281 124.63 21.3281 128.26 21.3281 132C23.3081 132 25.2881 132 27.3281 132C27.3281 133.98 27.3281 135.96 27.3281 138C29.3081 138 31.2881 138 33.3281 138C33.3281 139.65 33.3281 141.3 33.3281 143C35.9681 143 38.6081 143 41.3281 143C41.3281 144.65 41.3281 146.3 41.3281 148C56.5081 148 71.6881 148 87.3281 148C87.3281 146.35 87.3281 144.7 87.3281 143C89.6381 143 91.9481 143 94.3281 143C94.3281 141.35 94.3281 139.7 94.3281 138C96.6381 138 98.9481 138 101.328 138C101.328 136.02 101.328 134.04 101.328 132C103.638 132 105.948 132 108.328 132C108.328 128.37 108.328 124.74 108.328 121C109.978 121 111.628 121 113.328 121C112.008 121.33 110.688 121.66 109.328 122C109.328 123.98 109.328 125.96 109.328 128C110.006 128.086 110.684 128.173 111.383 128.262C119.002 129.412 126.723 131.395 132.328 137C132.258 139.93 132.258 139.93 131.328 143C111.276 160.155 68.563 156.106 44.2656 154.25C9.56678 151.239 9.56678 151.239 0.328125 142C-0.109375 139.625 -0.109375 139.625 0.328125 137C4.78361 132.257 11.4402 129.203 17.8906 128.75C18.695 128.833 19.4994 128.915 20.3281 129C20.3281 126.69 20.3281 124.38 20.3281 122C19.6681 121.67 19.0081 121.34 18.3281 121Z" fill="#D1D8EC"/>
<path d="M46.3281 60C57.5481 60 68.7681 60 80.3281 60C80.3281 61.32 80.3281 62.64 80.3281 64C81.3181 64 82.3081 64 83.3281 64C83.3281 65.98 83.3281 67.96 83.3281 70C86.6281 70 89.9281 70 93.3281 70C93.3281 71.65 93.3281 73.3 93.3281 75C94.6481 75 95.9681 75 97.3281 75C97.3708 76.6661 97.3688 78.3338 97.3281 80C96.8331 80.495 96.8331 80.495 96.3281 81C96.0953 82.6818 95.9155 84.3712 95.7656 86.0625C95.6399 87.4412 95.6399 87.4412 95.5117 88.8477C95.4511 89.5579 95.3905 90.2682 95.3281 91C93.0181 91.33 90.7081 91.66 88.3281 92C88.3281 89.36 88.3281 86.72 88.3281 84C87.0081 84 85.6881 84 84.3281 84C83.9981 82.35 83.6681 80.7 83.3281 79C81.3481 78.67 79.3681 78.34 77.3281 78C77.3281 76.35 77.3281 74.7 77.3281 73C69.0781 73 60.8281 73 52.3281 73C52.3281 74.65 52.3281 76.3 52.3281 78C50.3481 78 48.3681 78 46.3281 78C45.9981 79.65 45.6681 81.3 45.3281 83C44.0081 83.33 42.6881 83.66 41.3281 84C40.9981 86.31 40.6681 88.62 40.3281 91C39.3381 91.33 38.3481 91.66 37.3281 92C36.9981 99.26 36.6681 106.52 36.3281 114C37.6481 114 38.9681 114 40.3281 114C39.9981 114.66 39.6681 115.32 39.3281 116C37.6781 115.67 36.0281 115.34 34.3281 115C34.3281 117.31 34.3281 119.62 34.3281 122C33.6681 121.67 33.0081 121.34 32.3281 121C28.6981 120.67 25.0681 120.34 21.3281 120C21.3281 109.77 21.3281 99.54 21.3281 89C23.3081 89 25.2881 89 27.3281 89C27.3281 85.7 27.3281 82.4 27.3281 79C28.6481 79 29.9681 79 31.3281 79C31.3281 77.68 31.3281 76.36 31.3281 75C32.9781 75 34.6281 75 36.3281 75C36.3281 73.02 36.3281 71.04 36.3281 69C39.6281 69 42.9281 69 46.3281 69C46.3281 66.03 46.3281 63.06 46.3281 60Z" fill="#FBC430"/>
<path d="M99.3281 12C107.248 12 115.168 12 123.328 12C123.328 25.86 123.328 39.72 123.328 54C122.338 54 121.348 54 120.328 54C120.328 55.65 120.328 57.3 120.328 59C119.008 59 117.688 59 116.328 59C116.328 60.65 116.328 62.3 116.328 64C115.008 64 113.688 64 112.328 64C112.328 65.98 112.328 67.96 112.328 70C109.853 70.495 109.853 70.495 107.328 71C107.328 71.99 107.328 72.98 107.328 74C104.688 74 102.048 74 99.3281 74C98.6681 71.03 98.0081 68.06 97.3281 65C96.0081 64.67 94.6881 64.34 93.3281 64C93.3281 62.68 93.3281 61.36 93.3281 60C91.6781 60 90.0281 60 88.3281 60C88.3281 58.35 88.3281 56.7 88.3281 55C89.6481 55 90.9681 55 92.3281 55C92.3281 53.35 92.3281 51.7 92.3281 50C94.6381 50 96.9481 50 99.3281 50C99.3281 37.46 99.3281 24.92 99.3281 12Z" fill="#D71A1B"/>
<path d="M53.3281 85C60.5881 85 67.8481 85 75.3281 85C75.3281 85.99 75.3281 86.98 75.3281 88C78.2981 88 81.2681 88 84.3281 88C84.3281 92.62 84.3281 97.24 84.3281 102C83.0081 102 81.6881 102 80.3281 102C80.3281 107.94 80.3281 113.88 80.3281 120C77.3581 120 74.3881 120 71.3281 120C70.9981 119.34 70.6681 118.68 70.3281 118C66.0381 118 61.7481 118 57.3281 118C57.3281 118.66 57.3281 119.32 57.3281 120C54.0281 120 50.7281 120 47.3281 120C47.3281 117.69 47.3281 115.38 47.3281 113C47.9881 113 48.6481 113 49.3281 113C49.3075 111.928 49.2869 110.855 49.2656 109.75C49.3139 106.852 49.4597 104.714 50.3281 102C49.0081 102 47.6881 102 46.3281 102C46.3281 98.37 46.3281 94.74 46.3281 91C46.9881 91 47.6481 91 48.3281 91C48.3281 90.01 48.3281 89.02 48.3281 88C49.9781 88 51.6281 88 53.3281 88C53.3281 87.01 53.3281 86.02 53.3281 85Z" fill="#F6911A"/>
<path d="M8.64479 11.8865C9.64502 11.8917 10.6453 11.8969 11.6758 11.9023C12.6478 11.9048 13.6199 11.9073 14.6214 11.9099C16.4872 11.9236 16.4872 11.9236 18.3906 11.9375C22.33 11.9581 26.2694 11.9787 30.3281 12C30.3281 20.58 30.3281 29.16 30.3281 38C28.3481 38.99 28.3481 38.99 26.3281 40C25.6681 40.7013 25.0081 41.4025 24.3281 42.125C22.3281 44 22.3281 44 18.3281 44C17.9981 45.32 17.6681 46.64 17.3281 48C16.3381 48 15.3481 48 14.3281 48C14.3281 48.66 14.3281 49.32 14.3281 50C16.6381 50 18.9481 50 21.3281 50C21.3281 53.3 21.3281 56.6 21.3281 60C22.9781 60 24.6281 60 26.3281 60C26.3281 61.65 26.3281 63.3 26.3281 65C27.6481 65 28.9681 65 30.3281 65C30.3281 66.98 30.3281 68.96 30.3281 71C20.9181 71.1845 20.9181 71.1845 16.3281 70C16.3281 68.68 16.3281 67.36 16.3281 66C15.6681 66 15.0081 66 14.3281 66C13.9981 64.68 13.6681 63.36 13.3281 62C12.0081 62 10.6881 62 9.32814 62C9.32814 58.37 9.32814 54.74 9.32814 51C8.00814 51 6.68814 51 5.32814 51C5.30349 45.6065 5.28531 40.2131 5.27321 34.8196C5.26817 32.9833 5.26134 31.147 5.2527 29.3108C5.24062 26.6772 5.23491 24.0437 5.23048 21.4102C5.22532 20.5841 5.22016 19.7581 5.21484 18.907C5.21465 16.9376 5.2661 14.9684 5.32814 13C6.32814 12 6.32814 12 8.64479 11.8865Z" fill="#F92E25"/>
<path d="M37.3281 4C55.4781 4 73.6281 4 92.3281 4C92.3281 5.98 92.3281 7.96 92.3281 10C91.0081 10 89.6881 10 88.3281 10C88.2302 10.6033 88.1322 11.2066 88.0312 11.8281C86.5024 19.9998 86.5024 19.9998 82.3281 23C81.6681 23 81.0081 23 80.3281 23C80.3281 24.65 80.3281 26.3 80.3281 28C78.3481 28 76.3681 28 74.3281 28C73.9981 26.35 73.6681 24.7 73.3281 23C71.2449 22.9729 69.1615 22.9536 67.0781 22.9375C65.918 22.9259 64.7578 22.9143 63.5625 22.9023C60.9184 22.9822 58.8299 23.2136 56.3281 24C56.3281 25.32 56.3281 26.64 56.3281 28C53.6881 28 51.0481 28 48.3281 28C47.9981 25.03 47.6681 22.06 47.3281 19C45.6781 19 44.0281 19 42.3281 19C41.9981 16.03 41.6681 13.06 41.3281 10C40.0081 10 38.6881 10 37.3281 10C37.3281 8.02 37.3281 6.04 37.3281 4Z" fill="#F92E25"/>
<path d="M36.3281 22C37.9781 22 39.6281 22 41.3281 22C41.3281 31.24 41.3281 40.48 41.3281 50C42.9781 50 44.6281 50 46.3281 50C46.3281 51.65 46.3281 53.3 46.3281 55C58.5381 55 70.7481 55 83.3281 55C83.3281 52.03 83.3281 49.06 83.3281 46C84.6481 45.67 85.9681 45.34 87.3281 45C87.6581 37.41 87.9881 29.82 88.3281 22C89.9781 22 91.6281 22 93.3281 22C93.3281 28.27 93.3281 34.54 93.3281 41C95.3081 41 97.2881 41 99.3281 41C99.3281 43.97 99.3281 46.94 99.3281 50C97.0181 50 94.7081 50 92.3281 50C92.3281 51.65 92.3281 53.3 92.3281 55C91.0081 55 89.6881 55 88.3281 55C88.3281 56.65 88.3281 58.3 88.3281 60C89.9781 60 91.6281 60 93.3281 60C93.3281 61.32 93.3281 62.64 93.3281 64C90.3581 64 87.3881 64 84.3281 64C83.8331 62.02 83.8331 62.02 83.3281 60C82.6681 60 82.0081 60 81.3281 60C80.9981 61.32 80.6681 62.64 80.3281 64C80.3281 62.68 80.3281 61.36 80.3281 60C69.1081 60 57.8881 60 46.3281 60C46.3281 62.97 46.3281 65.94 46.3281 69C42.6981 69 39.0681 69 35.3281 69C35.3281 66.36 35.3281 63.72 35.3281 61C36.9781 61 38.6281 61 40.3281 61C40.3281 59.02 40.3281 57.04 40.3281 55C39.0081 55 37.6881 55 36.3281 55C36.3281 53.35 36.3281 51.7 36.3281 50C34.6781 50 33.0281 50 31.3281 50C31.3281 47.03 31.3281 44.06 31.3281 41C32.9781 41 34.6281 41 36.3281 41C36.3281 34.73 36.3281 28.46 36.3281 22Z" fill="#2C0205"/>
<path d="M98.3281 75C101.628 75 104.928 75 108.328 75C108.328 78.96 108.328 82.92 108.328 87C109.978 87 111.628 87 113.328 87C113.328 98.22 113.328 109.44 113.328 121C111.678 121 110.028 121 108.328 121C108.328 124.63 108.328 128.26 108.328 132C106.018 132 103.708 132 101.328 132C101.328 133.98 101.328 135.96 101.328 138C99.0181 138 96.7081 138 94.3281 138C94.3281 139.65 94.3281 141.3 94.3281 143C92.0181 143 89.7081 143 87.3281 143C87.3281 144.65 87.3281 146.3 87.3281 148C72.1481 148 56.9681 148 41.3281 148C41.3281 146.35 41.3281 144.7 41.3281 143C38.6881 143 36.0481 143 33.3281 143C33.3281 141.02 33.3281 139.04 33.3281 137C31.6781 137 30.0281 137 28.3281 137C28.3281 135.35 28.3281 133.7 28.3281 132C30.9681 132 33.6081 132 36.3281 132C36.3281 133.98 36.3281 135.96 36.3281 138C39.9581 138 43.5881 138 47.3281 138C47.3281 139.98 47.3281 141.96 47.3281 144C59.2081 144 71.0881 144 83.3281 144C83.3281 142.02 83.3281 140.04 83.3281 138C86.6281 138 89.9281 138 93.3281 138C93.3281 136.02 93.3281 134.04 93.3281 132C94.9781 132 96.6281 132 98.3281 132C98.3281 131.34 98.3281 130.68 98.3281 130C99.3181 129.67 100.308 129.34 101.328 129C101.658 126.03 101.988 123.06 102.328 120C104.308 120 106.288 120 108.328 120C108.328 109.77 108.328 99.54 108.328 89C106.348 89 104.368 89 102.328 89C102.328 85.7 102.328 82.4 102.328 79C101.008 79 99.6881 79 98.3281 79C98.3281 77.68 98.3281 76.36 98.3281 75Z" fill="#230506"/>
<path d="M99.3281 12C105.268 12 111.208 12 117.328 12C117.328 13.98 117.328 15.96 117.328 18C119.803 18.495 119.803 18.495 122.328 19C122.328 28.57 122.328 38.14 122.328 48C120.018 48 117.708 48 115.328 48C115.081 47.3606 114.833 46.7212 114.578 46.0625C113.513 43.8126 113.513 43.8126 111.203 43.25C110.584 43.1675 109.966 43.085 109.328 43C109.328 42.34 109.328 41.68 109.328 41C106.028 41 102.728 41 99.3281 41C99.3281 31.43 99.3281 21.86 99.3281 12Z" fill="#F72723"/>
<path d="M60.3281 25C62.9681 25 65.6081 25 68.3281 25C68.3281 25.99 68.3281 26.98 68.3281 28C69.6481 28 70.9681 28 72.3281 28C72.3281 30.64 72.3281 33.28 72.3281 36C74.2463 35.9691 74.2463 35.9691 76.2031 35.9375C80.0781 35.875 80.0781 35.875 82.3281 37C82.3281 39.64 82.3281 42.28 82.3281 45C80.6781 45 79.0281 45 77.3281 45C77.3281 46.98 77.3281 48.96 77.3281 51C76.0081 51 74.6881 51 73.3281 51C73.3281 51.99 73.3281 52.98 73.3281 54C66.3981 54 59.4681 54 52.3281 54C51.9981 51.03 51.6681 48.06 51.3281 45C50.0081 45 48.6881 45 47.3281 45C47.3281 42.03 47.3281 39.06 47.3281 36C50.2981 36 53.2681 36 56.3281 36C56.3281 33.36 56.3281 30.72 56.3281 28C57.6481 28 58.9681 28 60.3281 28C60.3281 27.01 60.3281 26.02 60.3281 25Z" fill="#FDF073"/>
<path d="M46.3281 60C57.5481 60 68.7681 60 80.3281 60C80.3281 61.32 80.3281 62.64 80.3281 64C81.3181 64 82.3081 64 83.3281 64C83.3281 65.98 83.3281 67.96 83.3281 70C86.6281 70 89.9281 70 93.3281 70C93.3281 71.65 93.3281 73.3 93.3281 75C94.6481 75 95.9681 75 97.3281 75C97.3708 76.6661 97.3688 78.3338 97.3281 80C96.8331 80.495 96.8331 80.495 96.3281 81C96.0953 82.6818 95.9155 84.3712 95.7656 86.0625C95.6818 86.9816 95.598 87.9007 95.5117 88.8477C95.4208 89.9131 95.4208 89.9131 95.3281 91C93.0181 91.33 90.7081 91.66 88.3281 92C88.3281 89.36 88.3281 86.72 88.3281 84C87.0081 84 85.6881 84 84.3281 84C83.9981 82.35 83.6681 80.7 83.3281 79C81.3481 78.67 79.3681 78.34 77.3281 78C77.3281 76.35 77.3281 74.7 77.3281 73C69.0781 72.67 60.8281 72.34 52.3281 72C52.3281 71.01 52.3281 70.02 52.3281 69C51.0081 68.67 49.6881 68.34 48.3281 68C49.6481 68 50.9681 68 52.3281 68C52.3281 65.69 52.3281 63.38 52.3281 61C50.6781 61 49.0281 61 47.3281 61C47.3281 63.97 47.3281 66.94 47.3281 70C43.6981 70 40.0681 70 36.3281 70C36.3281 69.67 36.3281 69.34 36.3281 69C39.6281 69 42.9281 69 46.3281 69C46.3281 66.03 46.3281 63.06 46.3281 60Z" fill="#F2BD2A"/>
<path d="M97.3281 79C98.9781 79 100.628 79 102.328 79C102.328 82.3 102.328 85.6 102.328 89C104.308 89 106.288 89 108.328 89C108.328 99.23 108.328 109.46 108.328 120C102.388 120.495 102.388 120.495 96.3281 121C95.8331 123.475 95.8331 123.475 95.3281 126C92.6881 126.66 90.0481 127.32 87.3281 128C87.9881 126.02 88.6481 124.04 89.3281 122C87.6781 122 86.0281 122 84.3281 122C85.3181 121.34 86.3081 120.68 87.3281 120C88.0642 116.432 88.0642 116.432 88.3281 113C89.9781 113 91.6281 113 93.3281 113C93.3281 105.74 93.3281 98.48 93.3281 91C93.9881 91 94.6481 91 95.3281 91C95.3049 90.3013 95.2817 89.6027 95.2578 88.8828C95.2398 87.9727 95.2217 87.0627 95.2031 86.125C95.1799 85.2201 95.1567 84.3152 95.1328 83.3828C95.3281 81 95.3281 81 97.3281 79Z" fill="#F8C02E"/>
<path d="M30.3281 12C30.6581 12 30.9881 12 31.3281 12C31.3281 15.3 31.3281 18.6 31.3281 22C32.9781 22 34.6281 22 36.3281 22C36.3281 28.27 36.3281 34.54 36.3281 41C34.6781 41 33.0281 41 31.3281 41C31.3281 43.97 31.3281 46.94 31.3281 50C32.9781 50 34.6281 50 36.3281 50C36.3281 51.65 36.3281 53.3 36.3281 55C37.6481 55 38.9681 55 40.3281 55C40.3281 56.98 40.3281 58.96 40.3281 61C38.6781 61 37.0281 61 35.3281 61C35.8231 67.93 35.8231 67.93 36.3281 75C34.6781 75 33.0281 75 31.3281 75C30.9981 76.32 30.6681 77.64 30.3281 79C29.3381 78.67 28.3481 78.34 27.3281 78C27.3281 77.01 27.3281 76.02 27.3281 75C25.3481 75 23.3681 75 21.3281 75C21.3281 73.68 21.3281 72.36 21.3281 71C24.2981 71 27.2681 71 30.3281 71C30.3281 69.02 30.3281 67.04 30.3281 65C29.0081 65 27.6881 65 26.3281 65C26.3281 63.35 26.3281 61.7 26.3281 60C24.6781 60 23.0281 60 21.3281 60C21.3281 56.7 21.3281 53.4 21.3281 50C19.0181 50 16.7081 50 14.3281 50C14.3281 49.34 14.3281 48.68 14.3281 48C15.8131 47.505 15.8131 47.505 17.3281 47C17.6581 46.01 17.9881 45.02 18.3281 44C20.0297 43.5359 20.0297 43.5359 21.7656 43.0625C25.3907 42.391 25.3907 42.391 26.7656 39.875C26.9513 39.2563 27.1369 38.6375 27.3281 38C28.3181 38 29.3081 38 30.3281 38C30.3281 29.42 30.3281 20.84 30.3281 12Z" fill="#CB141C"/>
<path d="M0.328125 11C0.658125 11 0.988125 11 1.32812 11C1.65813 25.19 1.98812 39.38 2.32812 54C2.65813 54 2.98812 54 3.32812 54C3.82313 51.03 3.82313 51.03 4.32812 48C4.65813 48.99 4.98812 49.98 5.32812 51C6.64813 51 7.96812 51 9.32812 51C9.32812 54.63 9.32812 58.26 9.32812 62C10.6481 62 11.9681 62 13.3281 62C13.6581 63.32 13.9881 64.64 14.3281 66C14.9881 66 15.6481 66 16.3281 66C16.3281 67.32 16.3281 68.64 16.3281 70C17.9781 70 19.6281 70 21.3281 70C21.3281 71.65 21.3281 73.3 21.3281 75C23.3081 75 25.2881 75 27.3281 75C27.3281 75.99 27.3281 76.98 27.3281 78C27.9881 78 28.6481 78 29.3281 78C29.8231 76.515 29.8231 76.515 30.3281 75C30.3281 76.32 30.3281 77.64 30.3281 79C29.3381 79 28.3481 79 27.3281 79C27.3281 82.3 27.3281 85.6 27.3281 89C25.3481 89 23.3681 89 21.3281 89C21.3281 99.23 21.3281 109.46 21.3281 120C23.3081 120 25.2881 120 27.3281 120C27.6581 123.3 27.9881 126.6 28.3281 130C30.6381 130.33 32.9481 130.66 35.3281 131C35.3281 131.33 35.3281 131.66 35.3281 132C33.0181 132 30.7081 132 28.3281 132C28.3281 133.65 28.3281 135.3 28.3281 137C29.9781 137 31.6281 137 33.3281 137C33.3281 137.33 33.3281 137.66 33.3281 138C31.3481 138 29.3681 138 27.3281 138C27.3281 136.02 27.3281 134.04 27.3281 132C25.3481 132 23.3681 132 21.3281 132C21.3281 128.37 21.3281 124.74 21.3281 121C19.6781 121 18.0281 121 16.3281 121C16.3281 109.78 16.3281 98.56 16.3281 87C17.9781 87 19.6281 87 21.3281 87C21.3281 84.03 21.3281 81.06 21.3281 78C20.0081 78 18.6881 78 17.3281 78C17.3281 76.68 17.3281 75.36 17.3281 74C16.6681 74 16.0081 74 15.3281 74C15.3281 73.01 15.3281 72.02 15.3281 71C14.3381 71 13.3481 71 12.3281 71C12.3281 69.68 12.3281 68.36 12.3281 67C11.0081 67 9.68813 67 8.32812 67C8.32812 66.34 8.32812 65.68 8.32812 65C7.00812 64.67 5.68813 64.34 4.32812 64C4.32812 61.36 4.32812 58.72 4.32812 56C3.00812 56 1.68813 56 0.328125 56C0.328125 41.15 0.328125 26.3 0.328125 11Z" fill="#220808"/>
<path d="M9.32812 13C12.9581 13 16.5881 13 20.3281 13C20.3281 14.98 20.3281 16.96 20.3281 19C18.3481 19 16.3681 19 14.3281 19C14.3281 29.23 14.3281 39.46 14.3281 50C16.6381 50 18.9481 50 21.3281 50C21.3281 53.3 21.3281 56.6 21.3281 60C22.9781 60 24.6281 60 26.3281 60C26.3281 61.65 26.3281 63.3 26.3281 65C27.6481 65 28.9681 65 30.3281 65C30.3281 66.98 30.3281 68.96 30.3281 71C20.9181 71.1845 20.9181 71.1845 16.3281 70C16.3281 68.68 16.3281 67.36 16.3281 66C15.6681 66 15.0081 66 14.3281 66C13.9981 64.68 13.6681 63.36 13.3281 62C12.0081 62 10.6881 62 9.32812 62C8.40938 53.2259 8.17133 44.5096 8.19775 35.6975C8.20318 33.5411 8.19774 31.3849 8.19141 29.2285C8.19207 27.8411 8.19335 26.4538 8.19531 25.0664C8.19644 23.8283 8.19757 22.5903 8.19873 21.3147C8.32812 18 8.32812 18 9.32812 13Z" fill="#F5492F"/>
<path d="M52.3281 73C60.5781 73 68.8281 73 77.3281 73C77.3281 74.65 77.3281 76.3 77.3281 78C79.3081 78.33 81.2881 78.66 83.3281 79C83.8231 81.475 83.8231 81.475 84.3281 84C83.6681 84 83.0081 84 82.3281 84C82.3281 84.99 82.3281 85.98 82.3281 87C81.5444 86.9794 80.7606 86.9588 79.9531 86.9375C77.347 86.8132 77.347 86.8132 75.3281 88C75.3281 87.01 75.3281 86.02 75.3281 85C68.0681 85 60.8081 85 53.3281 85C52.9981 85.99 52.6681 86.98 52.3281 88C52.3281 86.68 52.3281 85.36 52.3281 84C50.0181 84 47.7081 84 45.3281 84C45.3281 84.99 45.3281 85.98 45.3281 87C44.0081 87 42.6881 87 41.3281 87C41.3281 88.65 41.3281 90.3 41.3281 92C40.0081 91.67 38.6881 91.34 37.3281 91C38.3181 91 39.3081 91 40.3281 91C40.4106 89.8863 40.4931 88.7725 40.5781 87.625C40.8256 86.4288 41.0731 85.2325 41.3281 84C43.3281 82.8125 43.3281 82.8125 45.3281 82C46.1334 79.95 46.1334 79.95 46.3281 78C48.3081 78 50.2881 78 52.3281 78C52.3281 76.35 52.3281 74.7 52.3281 73Z" fill="#711C18"/>
<path d="M30.3281 0C32.9681 0 35.6081 0 38.3281 0C38.3281 0.33 38.3281 0.66 38.3281 1C36.3481 1 34.3681 1 32.3281 1C33.6481 1.33 34.9681 1.66 36.3281 2C36.3281 8.6 36.3281 15.2 36.3281 22C34.6781 22 33.0281 22 31.3281 22C31.3281 18.7 31.3281 15.4 31.3281 12C18.9531 12.495 18.9531 12.495 6.32812 13C6.26754 15.4454 6.20695 17.8907 6.14453 20.4102C6.0826 22.7965 6.01927 25.1828 5.95581 27.5691C5.91268 29.2188 5.87099 30.8685 5.83081 32.5183C5.77257 34.899 5.70903 37.2796 5.64453 39.6602C5.62782 40.3896 5.61111 41.1191 5.59389 41.8706C5.4671 46.3216 5.03699 50.603 4.32812 55C3.33812 55 2.34812 55 1.32812 55C1.32812 40.48 1.32812 25.96 1.32812 11C2.31813 11 3.30813 11 4.32812 11C4.32812 9.68 4.32812 8.36 4.32812 7C12.9081 7 21.4881 7 30.3281 7C30.3281 4.69 30.3281 2.38 30.3281 0Z" fill="#240407"/>
<path d="M47.3281 61C48.9781 61 50.6281 61 52.3281 61C52.3281 64.63 52.3281 68.26 52.3281 72C57.9381 72 63.5481 72 69.3281 72C69.3281 72.33 69.3281 72.66 69.3281 73C63.7181 73 58.1081 73 52.3281 73C52.3281 74.65 52.3281 76.3 52.3281 78C50.3481 78 48.3681 78 46.3281 78C45.9981 79.65 45.6681 81.3 45.3281 83C44.0081 83.33 42.6881 83.66 41.3281 84C40.9981 86.31 40.6681 88.62 40.3281 91C39.0287 90.9794 37.7294 90.9588 36.3906 90.9375C35.0365 90.916 33.6806 90.9285 32.3281 91C31.9981 91.33 31.6681 91.66 31.3281 92C29.8088 92.0718 28.2865 92.0839 26.7656 92.0625C25.9393 92.0535 25.113 92.0445 24.2617 92.0352C23.3046 92.0178 23.3046 92.0178 22.3281 92C22.3281 91.01 22.3281 90.02 22.3281 89C23.9781 89 25.6281 89 27.3281 89C27.3281 85.7 27.3281 82.4 27.3281 79C28.6481 79 29.9681 79 31.3281 79C31.3281 77.68 31.3281 76.36 31.3281 75C32.9781 75 34.6281 75 36.3281 75C36.3281 73.35 36.3281 71.7 36.3281 70C39.9581 70 43.5881 70 47.3281 70C47.3281 67.03 47.3281 64.06 47.3281 61Z" fill="#FCD235"/>
<path d="M53.3278 85C60.5878 85 67.8478 85 75.3278 85C75.6578 85.99 75.9878 86.98 76.3278 88C79.2978 88.495 79.2978 88.495 82.3278 89C81.9978 89.99 81.6678 90.98 81.3278 92C81.9878 92 82.6478 92 83.3278 92C83.3278 93.32 83.3278 94.64 83.3278 96C80.333 96.8723 77.6921 97.1083 74.5778 97.0625C73.7786 97.0535 72.9794 97.0445 72.1559 97.0352C71.5527 97.0236 70.9494 97.012 70.3278 97C70.3278 95.02 70.3278 93.04 70.3278 91C67.3578 90.505 67.3578 90.505 64.3278 90C64.3484 91.2787 64.3691 92.5575 64.3903 93.875C64.4528 97.75 64.4528 97.75 63.3278 100C58.5594 99.4185 54.6001 98.2183 50.3278 96C48.1482 93.0623 48.3278 91.8144 48.3278 88C49.9778 88 51.6278 88 53.3278 88C53.3278 87.01 53.3278 86.02 53.3278 85Z" fill="#FDF363"/>
<path d="M82.3281 84C84.3081 84 86.2881 84 88.3281 84C88.3281 86.64 88.3281 89.28 88.3281 92C89.9781 92 91.6281 92 93.3281 92C93.3281 98.93 93.3281 105.86 93.3281 113C91.6781 113 90.0281 113 88.3281 113C88.3281 115.31 88.3281 117.62 88.3281 120C86.0181 120 83.7081 120 81.3281 120C80.9981 114.06 80.6681 108.12 80.3281 102C81.6481 102 82.9681 102 84.3281 102C84.3281 97.38 84.3281 92.76 84.3281 88C81.6881 88 79.0481 88 76.3281 88C76.6581 87.01 76.9881 86.02 77.3281 85C77.3281 85.66 77.3281 86.32 77.3281 87C78.9781 87 80.6281 87 82.3281 87C82.3281 86.01 82.3281 85.02 82.3281 84Z" fill="#681511"/>
<path d="M48.3281 90C48.4519 90.6187 48.5756 91.2375 48.7031 91.875C49.2001 94.1912 49.2001 94.1912 51.3281 96C53.3486 96.7668 55.3944 97.468 57.4531 98.125C59.0967 98.6548 59.0967 98.6548 60.7734 99.1953C61.6165 99.4609 62.4595 99.7264 63.3281 100C63.6581 96.7 63.9881 93.4 64.3281 90C66.6381 90 68.9481 90 71.3281 90C70.9981 92.31 70.6681 94.62 70.3281 97C76.7631 96.505 76.7631 96.505 83.3281 96C80.3281 100 80.3281 100 77.3281 101C74.9332 101.07 72.5364 101.084 70.1406 101.062C68.8683 101.053 67.596 101.044 66.2852 101.035C64.8214 101.018 64.8214 101.018 63.3281 101C63.0239 101.762 62.7197 102.524 62.4062 103.309C59.9736 109.381 58.2281 112.736 52.3281 116C51.6681 116 51.0081 116 50.3281 116C50.3281 111.38 50.3281 106.76 50.3281 102C49.0081 102 47.6881 102 46.3281 102C46.3281 98.37 46.3281 94.74 46.3281 91C46.9881 90.67 47.6481 90.34 48.3281 90Z" fill="#FCDA26"/>
<path d="M37.3281 10C38.6481 10 39.9681 10 41.3281 10C41.6581 12.97 41.9881 15.94 42.3281 19C43.9781 19 45.6281 19 47.3281 19C47.6581 21.97 47.9881 24.94 48.3281 28C50.9681 28 53.6081 28 56.3281 28C56.3281 30.64 56.3281 33.28 56.3281 36C53.3581 36 50.3881 36 47.3281 36C47.3281 38.97 47.3281 41.94 47.3281 45C48.6481 45.33 49.9681 45.66 51.3281 46C48.3581 46 45.3881 46 42.3281 46C42.3281 37.75 42.3281 29.5 42.3281 21C40.6781 21 39.0281 21 37.3281 21C37.3281 17.37 37.3281 13.74 37.3281 10Z" fill="#C41115"/>
<path d="M104.328 13C108.618 13 112.908 13 117.328 13C117.328 14.65 117.328 16.3 117.328 18C118.978 18.33 120.628 18.66 122.328 19C122.328 28.57 122.328 38.14 122.328 48C120.018 48 117.708 48 115.328 48C115.328 38.43 115.328 28.86 115.328 19C111.698 18.34 108.068 17.68 104.328 17C104.328 15.68 104.328 14.36 104.328 13Z" fill="#FBD8B4"/>
<path d="M87.0166 69.8125C88.7859 69.8531 88.7859 69.8531 90.5908 69.8946C91.4945 69.9294 92.3981 69.9642 93.3291 70C93.3291 71.65 93.3291 73.3 93.3291 75C94.6491 75 95.9691 75 97.3291 75C97.3718 76.6661 97.3698 78.3339 97.3291 80C96.9991 80.33 96.6691 80.66 96.3291 81C96.0962 82.6819 95.9165 84.3713 95.7666 86.0625C95.6828 86.9816 95.599 87.9007 95.5127 88.8477C95.4218 89.9131 95.4218 89.9131 95.3291 91C93.0191 91.33 90.7091 91.66 88.3291 92C88.3291 89.36 88.3291 86.72 88.3291 84C87.0091 84 85.6891 84 84.3291 84C83.9991 82.35 83.6691 80.7 83.3291 79C80.3591 78.505 80.3591 78.505 77.3291 78C76.968 73.5468 76.968 73.5468 78.4229 71.3438C81.2613 69.3429 83.5948 69.7109 87.0166 69.8125Z" fill="#FBCA35"/>
<path d="M76.3281 88C78.9681 88 81.6081 88 84.3281 88C84.3281 92.62 84.3281 97.24 84.3281 102C83.0081 102 81.6881 102 80.3281 102C80.3281 106.62 80.3281 111.24 80.3281 116C74.3281 116 74.3281 116 72.3867 114.426C71.8518 113.728 71.3168 113.031 70.7656 112.312C70.1855 111.587 69.6055 110.861 69.0078 110.113C68.4535 109.416 67.8992 108.719 67.3281 108C65.704 106.282 64.0257 104.646 62.3281 103C62.6581 102.34 62.9881 101.68 63.3281 101C71.7431 100.505 71.7431 100.505 80.3281 100C80.6581 99.01 80.9881 98.02 81.3281 97C81.9881 97 82.6481 97 83.3281 97C83.3281 95.35 83.3281 93.7 83.3281 92C82.6681 92 82.0081 92 81.3281 92C81.3281 91.34 81.3281 90.68 81.3281 90C78.8531 89.505 78.8531 89.505 76.3281 89C76.3281 88.67 76.3281 88.34 76.3281 88Z" fill="#FDC123"/>
<path d="M36.3281 4C36.6581 4 36.9881 4 37.3281 4C37.3281 9.61 37.3281 15.22 37.3281 21C38.9781 21 40.6281 21 42.3281 21C42.3281 29.25 42.3281 37.5 42.3281 46C45.2981 46 48.2681 46 51.3281 46C51.6581 48.64 51.9881 51.28 52.3281 54C59.2581 54 66.1881 54 73.3281 54C73.3281 53.01 73.3281 52.02 73.3281 51C74.6481 51 75.9681 51 77.3281 51C77.3281 49.02 77.3281 47.04 77.3281 45C80.6281 45 83.9281 45 87.3281 45C85.3481 45.495 85.3481 45.495 83.3281 46C83.3281 48.97 83.3281 51.94 83.3281 55C71.1181 55 58.9081 55 46.3281 55C46.3281 53.35 46.3281 51.7 46.3281 50C44.6781 50 43.0281 50 41.3281 50C41.3281 40.76 41.3281 31.52 41.3281 22C39.6781 22 38.0281 22 36.3281 22C36.3281 16.06 36.3281 10.12 36.3281 4Z" fill="#80120E"/>
<path d="M97.3281 79C98.9781 79 100.628 79 102.328 79C102.328 82.3 102.328 85.6 102.328 89C104.308 89 106.288 89 108.328 89C108.328 99.23 108.328 109.46 108.328 120C106.348 120 104.368 120 102.328 120C100.973 106.692 101.23 93.3594 101.328 80C100.008 79.67 98.6881 79.34 97.3281 79Z" fill="#D97715"/>
<path d="M9.32837 13C12.9584 13 16.5884 13 20.3284 13C20.3284 14.65 20.3284 16.3 20.3284 18C18.0184 18 15.7084 18 13.3284 18C13.3284 28.56 13.3284 39.12 13.3284 50C11.6784 50 10.0284 50 8.32837 50C8.30357 45.5343 8.28546 41.0686 8.27344 36.6028C8.26842 35.0849 8.26161 33.567 8.25293 32.0491C8.24074 29.8621 8.23511 27.6753 8.23071 25.4883C8.22548 24.1738 8.22024 22.8594 8.21484 21.5051C8.32837 18 8.32837 18 9.32837 13Z" fill="#FEDFB0"/>
<path d="M92.3281 50C92.6581 50 92.9881 50 93.3281 50C93.3281 51.65 93.3281 53.3 93.3281 55C94.215 54.8969 95.1019 54.7938 96.0156 54.6875C99.3281 55 99.3281 55 102.203 57.1875C104.328 60 104.328 60 104.641 62.8125C104.538 63.5344 104.434 64.2563 104.328 65C102.678 65 101.028 65 99.3281 65C99.3281 66.98 99.3281 68.96 99.3281 71C101.638 71 103.948 71 106.328 71C106.658 69.35 106.988 67.7 107.328 66C108.318 65.67 109.308 65.34 110.328 65C110.328 63.35 110.328 61.7 110.328 60C112.308 59.67 114.288 59.34 116.328 59C116.328 60.65 116.328 62.3 116.328 64C115.008 64 113.688 64 112.328 64C112.328 65.98 112.328 67.96 112.328 70C110.678 70.33 109.028 70.66 107.328 71C107.328 71.99 107.328 72.98 107.328 74C104.688 74 102.048 74 99.3281 74C98.6681 71.03 98.0081 68.06 97.3281 65C96.0081 64.67 94.6881 64.34 93.3281 64C93.3281 62.68 93.3281 61.36 93.3281 60C91.6781 60 90.0281 60 88.3281 60C88.3281 58.35 88.3281 56.7 88.3281 55C89.6481 55 90.9681 55 92.3281 55C92.3281 53.35 92.3281 51.7 92.3281 50Z" fill="#C61717"/>
<path d="M41.3281 5C58.1581 5 74.9881 5 92.3281 5C92.3281 6.32 92.3281 7.64 92.3281 9C75.4981 9 58.6681 9 41.3281 9C41.3281 7.68 41.3281 6.36 41.3281 5Z" fill="#FD8970"/>
<path d="M32.3281 1C52.7881 1 73.2481 1 94.3281 1C93.9981 6.61 93.6681 12.22 93.3281 18C92.9981 18 92.6681 18 92.3281 18C92.3281 13.38 92.3281 8.76 92.3281 4C73.8481 4 55.3681 4 36.3281 4C36.3281 3.34 36.3281 2.68 36.3281 2C35.0081 2.33 33.6881 2.66 32.3281 3C32.3281 2.34 32.3281 1.68 32.3281 1Z" fill="#410809"/>
<path d="M36.3281 22C37.9781 22 39.6281 22 41.3281 22C41.3281 31.24 41.3281 40.48 41.3281 50C37.3281 51 35.2729 50.8069 31.3281 50C31.3281 47.03 31.3281 44.06 31.3281 41C32.9781 41 34.6281 41 36.3281 41C36.3281 34.73 36.3281 28.46 36.3281 22Z" fill="#240104"/>
<path d="M28.3281 132C30.9681 132 33.6081 132 36.3281 132C36.3281 133.98 36.3281 135.96 36.3281 138C39.9581 138 43.5881 138 47.3281 138C47.3281 139.98 47.3281 141.96 47.3281 144C52.9381 144.33 58.5481 144.66 64.3281 145C64.8231 146.485 64.8231 146.485 65.3281 148C57.4081 148 49.4881 148 41.3281 148C41.3281 146.35 41.3281 144.7 41.3281 143C38.6881 143 36.0481 143 33.3281 143C33.3281 141.02 33.3281 139.04 33.3281 137C31.6781 137 30.0281 137 28.3281 137C28.3281 135.35 28.3281 133.7 28.3281 132Z" fill="#2E1112"/>
<path d="M30.3281 12C30.6581 12 30.9881 12 31.3281 12C31.3281 15.3 31.3281 18.6 31.3281 22C32.9781 22 34.6281 22 36.3281 22C36.3281 28.27 36.3281 34.54 36.3281 41C34.6781 41 33.0281 41 31.3281 41C31.3281 43.97 31.3281 46.94 31.3281 50C32.9781 50 34.6281 50 36.3281 50C36.3281 51.65 36.3281 53.3 36.3281 55C35.9981 53.68 35.6681 52.36 35.3281 51C34.0081 51 32.6881 51 31.3281 51C30.8331 53.475 30.8331 53.475 30.3281 56C29.6681 56 29.0081 56 28.3281 56C28.3281 54.35 28.3281 52.7 28.3281 51C28.9881 51 29.6481 51 30.3281 51C30.3281 38.13 30.3281 25.26 30.3281 12Z" fill="#991010"/>
<path d="M53.3281 85C60.5881 85 67.8481 85 75.3281 85C75.3281 85.99 75.3281 86.98 75.3281 88C71.2259 89.3674 67.0727 89.211 62.7773 89.166C60.5274 89.1782 60.5274 89.1782 57.3281 90C55.2768 92.9171 55.2768 92.9171 54.3281 96C52.6781 95.67 51.0281 95.34 49.3281 95C48.3281 90.25 48.3281 90.25 48.3281 88C49.9781 88 51.6281 88 53.3281 88C53.3281 87.01 53.3281 86.02 53.3281 85Z" fill="#FEFCBD"/>
<path d="M109.328 51C111.308 51 113.288 51 115.328 51C116.207 57.1523 116.207 57.1523 116.328 59C115.328 60 115.328 60 112.766 60.0625C111.961 60.0419 111.157 60.0213 110.328 60C110.39 60.7837 110.452 61.5675 110.516 62.375C110.454 63.2412 110.392 64.1075 110.328 65C109.338 65.66 108.348 66.32 107.328 67C106.604 69.0593 106.604 69.0593 106.328 71C104.018 71 101.708 71 99.3281 71C99.3281 69.02 99.3281 67.04 99.3281 65C100.978 65 102.628 65 104.328 65C104.328 63.02 104.328 61.04 104.328 59C105.978 59 107.628 59 109.328 59C109.328 56.36 109.328 53.72 109.328 51Z" fill="#F06C1D"/>
<path d="M37.3281 4C55.4781 4 73.6281 4 92.3281 4C92.3281 4.33 92.3281 4.66 92.3281 5C75.4981 5 58.6681 5 41.3281 5C41.3281 6.32 41.3281 7.64 41.3281 9C58.1581 9 74.9881 9 92.3281 9C92.3281 9.33 92.3281 9.66 92.3281 10C76.1581 10 59.9881 10 43.3281 10C43.3281 11.65 43.3281 13.3 43.3281 15C42.6681 14.67 42.0081 14.34 41.3281 14C41.3281 12.68 41.3281 11.36 41.3281 10C40.0081 10 38.6881 10 37.3281 10C37.3281 8.02 37.3281 6.04 37.3281 4Z" fill="#E75044"/>
<path d="M102.328 120C104.308 120 106.288 120 108.328 120C108.328 123.96 108.328 127.92 108.328 132C106.018 132 103.708 132 101.328 132C101.328 133.98 101.328 135.96 101.328 138C99.0181 138 96.7081 138 94.3281 138C94.3281 139.65 94.3281 141.3 94.3281 143C93.9981 143 93.6681 143 93.3281 143C93.3281 139.37 93.3281 135.74 93.3281 132C94.9781 132 96.6281 132 98.3281 132C98.3281 131.34 98.3281 130.68 98.3281 130C99.3181 129.67 100.308 129.34 101.328 129C101.658 126.03 101.988 123.06 102.328 120Z" fill="#330F15"/>
<path d="M109.328 41C109.328 41.66 109.328 42.32 109.328 43C111.308 43 113.288 43 115.328 43C115.328 45.31 115.328 47.62 115.328 50C114.641 49.9652 113.954 49.9304 113.246 49.8945C112.345 49.8674 111.444 49.8404 110.516 49.8125C109.622 49.7777 108.729 49.7429 107.809 49.707C104.912 50.0492 104.103 50.7539 102.328 53C102.328 52.01 102.328 51.02 102.328 50C101.338 50 100.348 50 99.3281 50C99.3281 47.03 99.3281 44.06 99.3281 41C103.024 40.0497 105.633 40.0497 109.328 41Z" fill="#DB0F15"/>
<path d="M1.32812 11C2.31813 11 3.30813 11 4.32812 11C4.32812 25.52 4.32812 40.04 4.32812 55C3.33812 55 2.34812 55 1.32812 55C1.32812 40.48 1.32812 25.96 1.32812 11Z" fill="#100305"/>
<path d="M96.3281 120C98.3081 120 100.288 120 102.328 120C102.328 122.97 102.328 125.94 102.328 129C101.008 129.33 99.6881 129.66 98.3281 130C98.3281 130.66 98.3281 131.32 98.3281 132C96.6781 132 95.0281 132 93.3281 132C93.3281 133.98 93.3281 135.96 93.3281 138C90.0281 138 86.7281 138 83.3281 138C83.6581 136.02 83.9881 134.04 84.3281 132C88.2881 131.34 92.2481 130.68 96.3281 130C96.3281 126.7 96.3281 123.4 96.3281 120Z" fill="#CB6314"/>
<path d="M36.3281 70C39.9581 70 43.5881 70 47.3281 70C47.3281 70.33 47.3281 70.66 47.3281 71C44.6881 71.33 42.0481 71.66 39.3281 72C38.3381 74.97 37.3481 77.94 36.3281 81C34.6781 81 33.0281 81 31.3281 81C31.3281 84.63 31.3281 88.26 31.3281 92C28.3581 92 25.3881 92 22.3281 92C22.3281 91.01 22.3281 90.02 22.3281 89C23.9781 89 25.6281 89 27.3281 89C27.3281 85.7 27.3281 82.4 27.3281 79C28.6481 79 29.9681 79 31.3281 79C31.3281 77.68 31.3281 76.36 31.3281 75C32.9781 75 34.6281 75 36.3281 75C36.3281 73.35 36.3281 71.7 36.3281 70Z" fill="#FDEF97"/>
<path d="M98.3281 12C98.6581 12 98.9881 12 99.3281 12C99.3281 21.57 99.3281 31.14 99.3281 41C97.3481 41 95.3681 41 93.3281 41C93.3281 35.06 93.3281 29.12 93.3281 23C94.9781 23 96.6281 23 98.3281 23C98.3281 19.37 98.3281 15.74 98.3281 12Z" fill="#941215"/>
<path d="M0.328125 11C0.658125 11 0.988125 11 1.32812 11C1.65813 25.19 1.98812 39.38 2.32812 54C2.65813 54 2.98812 54 3.32812 54C3.82313 51.03 3.82313 51.03 4.32812 48C4.65813 48.99 4.98812 49.98 5.32812 51C6.64813 51 7.96812 51 9.32812 51C9.32812 55.29 9.32812 59.58 9.32812 64C7.67813 64 6.02813 64 4.32812 64C4.32812 61.36 4.32812 58.72 4.32812 56C3.00812 56 1.68813 56 0.328125 56C0.328125 41.15 0.328125 26.3 0.328125 11Z" fill="#53383B"/>
<path d="M125.328 13C125.988 13 126.648 13 127.328 13C127.328 26.53 127.328 40.06 127.328 54C125.843 54.495 125.843 54.495 124.328 55C124.303 50.3044 124.285 45.6088 124.273 40.9131C124.268 39.3187 124.261 37.7243 124.253 36.1299C124.24 33.8262 124.235 31.5225 124.23 29.2188C124.225 28.5163 124.22 27.8139 124.215 27.0902C124.214 22.3128 124.658 17.7312 125.328 13Z" fill="#190306"/>
<path d="M14.3281 55C16.3081 55 18.2881 55 20.3281 55C20.6581 56.32 20.9881 57.64 21.3281 59C22.9781 59.33 24.6281 59.66 26.3281 60C26.3281 61.65 26.3281 63.3 26.3281 65C27.6481 65 28.9681 65 30.3281 65C30.3281 66.98 30.3281 68.96 30.3281 71C27.3581 71 24.3881 71 21.3281 71C20.9981 67.37 20.6681 63.74 20.3281 60C18.3481 60 16.3681 60 14.3281 60C14.3281 58.35 14.3281 56.7 14.3281 55Z" fill="#FEAB12"/>
<path d="M27.3281 38C28.3181 38 29.3081 38 30.3281 38C30.3281 41.96 30.3281 45.92 30.3281 50C29.3381 49.67 28.3481 49.34 27.3281 49C27.3281 48.01 27.3281 47.02 27.3281 46C26.0081 46.33 24.6881 46.66 23.3281 47C22.9981 50.96 22.6681 54.92 22.3281 59C23.6481 59.33 24.9681 59.66 26.3281 60C24.6781 60 23.0281 60 21.3281 60C21.3281 56.7 21.3281 53.4 21.3281 50C19.0181 50 16.7081 50 14.3281 50C14.3281 49.34 14.3281 48.68 14.3281 48C15.3181 47.67 16.3081 47.34 17.3281 47C17.6581 46.01 17.9881 45.02 18.3281 44C19.4625 43.6906 20.5969 43.3812 21.7656 43.0625C25.3907 42.391 25.3907 42.391 26.7656 39.875C26.9513 39.2563 27.1369 38.6375 27.3281 38Z" fill="#E5191C"/>
<path d="M75.3281 121C79.0156 120.688 79.0156 120.688 82.3281 121C82.3281 122.65 82.3281 124.3 82.3281 126C80.0181 126 77.7081 126 75.3281 126C75.3281 127.65 75.3281 129.3 75.3281 131C68.0681 131 60.8081 131 53.3281 131C53.6581 129.68 53.9881 128.36 54.3281 127C54.3281 127.99 54.3281 128.98 54.3281 130C54.8425 129.687 55.3568 129.374 55.8867 129.051C60.0709 127.25 64.6099 127.257 69.1133 126.855C72.5151 126.33 72.5151 126.33 74.0312 123.445C74.4592 122.638 74.8872 121.831 75.3281 121Z" fill="#3E1412"/>
<path d="M123.328 12C123.658 12 123.988 12 124.328 12C124.328 26.19 124.328 40.38 124.328 55C125.648 55.33 126.968 55.66 128.328 56C127.338 56 126.348 56 125.328 56C124.998 58.64 124.668 61.28 124.328 64C123.998 62.68 123.668 61.36 123.328 60C122.338 60 121.348 60 120.328 60C120.328 61.65 120.328 63.3 120.328 65C117.688 65 115.048 65 112.328 65C114.308 64.505 114.308 64.505 116.328 64C116.328 62.35 116.328 60.7 116.328 59C117.648 59 118.968 59 120.328 59C120.328 57.35 120.328 55.7 120.328 54C121.318 54 122.308 54 123.328 54C123.328 40.14 123.328 26.28 123.328 12Z" fill="#4A0A0F"/>
<path d="M76.3281 45C76.6581 45 76.9881 45 77.3281 45C77.3281 46.98 77.3281 48.96 77.3281 51C76.0081 51 74.6881 51 73.3281 51C73.3281 51.99 73.3281 52.98 73.3281 54C66.3981 54 59.4681 54 52.3281 54C51.9981 51.36 51.6681 48.72 51.3281 46C51.6581 46.66 51.9881 47.32 52.3281 48C52.9881 48 53.6481 48 54.3281 48C54.3281 48.66 54.3281 49.32 54.3281 50C61.5881 50 68.8481 50 76.3281 50C76.3281 48.35 76.3281 46.7 76.3281 45Z" fill="#F7CF55"/>
<path d="M21.3281 120C23.3081 120 25.2881 120 27.3281 120C27.6581 123.3 27.9881 126.6 28.3281 130C30.6381 130.33 32.9481 130.66 35.3281 131C35.3281 131.33 35.3281 131.66 35.3281 132C33.0181 132 30.7081 132 28.3281 132C28.3281 133.65 28.3281 135.3 28.3281 137C29.9781 137 31.6281 137 33.3281 137C33.3281 137.33 33.3281 137.66 33.3281 138C31.3481 138 29.3681 138 27.3281 138C27.3281 136.02 27.3281 134.04 27.3281 132C25.3481 132 23.3681 132 21.3281 132C21.3281 128.04 21.3281 124.08 21.3281 120Z" fill="#2F0F0D"/>
<path d="M31.3281 66C32.6481 66 33.9681 66 35.3281 66C35.6581 68.97 35.9881 71.94 36.3281 75C34.6781 75 33.0281 75 31.3281 75C30.9981 76.32 30.6681 77.64 30.3281 79C29.3381 78.67 28.3481 78.34 27.3281 78C27.3281 77.01 27.3281 76.02 27.3281 75C25.3481 75 23.3681 75 21.3281 75C21.3281 73.68 21.3281 72.36 21.3281 71C24.6281 71 27.9281 71 31.3281 71C31.3281 69.35 31.3281 67.7 31.3281 66Z" fill="#4D0D0A"/>
<path d="M28.3281 132C30.9681 132 33.6081 132 36.3281 132C36.3281 133.98 36.3281 135.96 36.3281 138C38.6381 138 40.9481 138 43.3281 138C42.3381 138.495 42.3381 138.495 41.3281 139C41.6581 140.32 41.9881 141.64 42.3281 143C39.3581 143 36.3881 143 33.3281 143C33.3281 141.02 33.3281 139.04 33.3281 137C31.6781 137 30.0281 137 28.3281 137C28.3281 135.35 28.3281 133.7 28.3281 132Z" fill="#260809"/>
<path d="M27.3279 120C28.994 119.957 30.6617 119.959 32.3279 120C33.3279 121 33.3279 121 33.4256 123.066C33.414 123.89 33.4024 124.714 33.3904 125.563C33.3814 126.389 33.3724 127.215 33.3631 128.066C33.3457 129.024 33.3457 129.024 33.3279 130C34.6479 130.33 35.9679 130.66 37.3279 131C37.3279 132.98 37.3279 134.96 37.3279 137C40.6279 137 43.9279 137 47.3279 137C47.3279 137.33 47.3279 137.66 47.3279 138C43.6979 138 40.0679 138 36.3279 138C35.9979 136.02 35.6679 134.04 35.3279 132C34.1935 131.856 33.0592 131.711 31.8904 131.563C28.3279 131 28.3279 131 27.3279 130C27.2559 128.314 27.2441 126.625 27.2654 124.938C27.2744 124.018 27.2835 123.099 27.2928 122.152C27.3044 121.442 27.316 120.732 27.3279 120Z" fill="#DF8A28"/>
<path d="M9.32812 62C10.6481 62 11.9681 62 13.3281 62C13.6581 63.32 13.9881 64.64 14.3281 66C14.9881 66 15.6481 66 16.3281 66C16.3281 67.32 16.3281 68.64 16.3281 70C17.9781 70 19.6281 70 21.3281 70C21.3281 72.64 21.3281 75.28 21.3281 78C20.0081 78 18.6881 78 17.3281 78C17.3281 76.68 17.3281 75.36 17.3281 74C16.6681 74 16.0081 74 15.3281 74C15.3281 73.01 15.3281 72.02 15.3281 71C14.3381 71 13.3481 71 12.3281 71C12.3281 69.68 12.3281 68.36 12.3281 67C11.0081 67 9.68813 67 8.32812 67C8.32812 66.34 8.32812 65.68 8.32812 65C7.33812 64.67 6.34812 64.34 5.32812 64C6.64813 64 7.96812 64 9.32812 64C9.32812 63.34 9.32812 62.68 9.32812 62Z" fill="#321519"/>
<path d="M9.32812 54C10.3181 55.485 10.3181 55.485 11.3281 57C11.9881 56.34 12.6481 55.68 13.3281 55C13.3281 56.65 13.3281 58.3 13.3281 60C15.6381 60 17.9481 60 20.3281 60C21.9354 63.2145 21.3856 66.4361 21.3281 70C19.6781 70 18.0281 70 16.3281 70C16.3281 68.68 16.3281 67.36 16.3281 66C15.6681 66 15.0081 66 14.3281 66C13.9981 64.68 13.6681 63.36 13.3281 62C12.0081 62 10.6881 62 9.32812 62C9.32812 59.36 9.32812 56.72 9.32812 54Z" fill="#CC1F19"/>
<path d="M88.3282 10C89.6482 10 90.9682 10 92.3282 10C92.3282 13.96 92.3282 17.92 92.3282 22C91.0082 22 89.6882 22 88.3282 22C88.3282 29.59 88.3282 37.18 88.3282 45C87.9982 45 87.6682 45 87.3282 45C87.3035 40.3369 87.2853 35.6739 87.2732 31.0107C87.2682 29.4238 87.2614 27.8369 87.2527 26.25C87.2406 23.9713 87.2349 21.6927 87.2305 19.4141C87.2253 18.7026 87.2202 17.991 87.2149 17.258C87.2143 12.2277 87.2143 12.2277 88.3282 10Z" fill="#9E0E13"/>
<path d="M117.328 12C119.308 12 121.288 12 123.328 12C123.328 25.86 123.328 39.72 123.328 54C122.338 54 121.348 54 120.328 54C120.328 52.68 120.328 51.36 120.328 50C120.988 50 121.648 50 122.328 50C121.998 39.77 121.668 29.54 121.328 19C120.008 18.67 118.688 18.34 117.328 18C117.328 16.02 117.328 14.04 117.328 12Z" fill="#C51E1A"/>
<path d="M48.3281 29C50.9681 29 53.6081 29 56.3281 29C56.3281 31.31 56.3281 33.62 56.3281 36C53.0281 36 49.7281 36 46.3281 36C46.3281 38.97 46.3281 41.94 46.3281 45C45.9981 45 45.6681 45 45.3281 45C45.1838 43.7625 45.0394 42.525 44.8906 41.25C44.5412 38.435 44.1243 35.7299 43.3281 33C44.6481 33 45.9681 33 47.3281 33C47.6581 31.68 47.9881 30.36 48.3281 29Z" fill="#CF150D"/>
<path d="M21.3281 89C23.3081 89.99 23.3081 89.99 25.3281 91C26.9855 91.3767 28.6516 91.7206 30.3281 92C30.3281 92.33 30.3281 92.66 30.3281 93C28.0181 93 25.7081 93 23.3281 93C23.3281 101.25 23.3281 109.5 23.3281 118C26.2981 118.33 29.2681 118.66 32.3281 119C32.3281 119.33 32.3281 119.66 32.3281 120C28.6981 120 25.0681 120 21.3281 120C21.3281 109.77 21.3281 99.54 21.3281 89Z" fill="#ECC145"/>
<path d="M86.3281 143C86.6581 143 86.9881 143 87.3281 143C87.3281 144.65 87.3281 146.3 87.3281 148C74.2836 148.118 61.3399 147.966 48.3281 147C48.3281 146.67 48.3281 146.34 48.3281 146C56.9082 145.345 65.4716 144.883 74.0781 144.812C74.8398 144.8 75.6015 144.787 76.3862 144.773C80.1875 144.767 83.1081 144.856 86.3281 147C86.3281 145.68 86.3281 144.36 86.3281 143Z" fill="#2A090B"/>
<path d="M30.3281 12C30.6581 12 30.9881 12 31.3281 12C32.1665 24.7699 32.8769 37.2503 31.3281 50C32.9781 50 34.6281 50 36.3281 50C36.3281 51.65 36.3281 53.3 36.3281 55C35.9981 53.68 35.6681 52.36 35.3281 51C34.0081 51 32.6881 51 31.3281 51C30.8331 53.475 30.8331 53.475 30.3281 56C29.6681 56 29.0081 56 28.3281 56C28.3281 54.35 28.3281 52.7 28.3281 51C28.9881 51 29.6481 51 30.3281 51C30.3281 38.13 30.3281 25.26 30.3281 12Z" fill="#BA1615"/>
<path d="M80.3281 102C81.6481 102.33 82.9681 102.66 84.3281 103C83.6681 105.97 83.0081 108.94 82.3281 112C83.9781 111.67 85.6281 111.34 87.3281 111C87.3281 113.97 87.3281 116.94 87.3281 120C85.3481 120 83.3681 120 81.3281 120C80.9981 114.06 80.6681 108.12 80.3281 102Z" fill="#57120A"/>
<path d="M46.3281 78C46.9881 78 47.6481 78 48.3281 78C48.5756 78.6394 48.8231 79.2788 49.0781 79.9375C50.1095 82.1353 50.1095 82.1353 52.0947 82.6091C54.518 83.0332 56.8545 83.2115 59.3125 83.3164C60.7144 83.3792 60.7144 83.3792 62.1445 83.4434C63.1126 83.4827 64.0807 83.522 65.0781 83.5625C66.0617 83.6057 67.0452 83.6489 68.0586 83.6934C70.4816 83.7992 72.9048 83.9013 75.3281 84C75.3281 84.33 75.3281 84.66 75.3281 85C68.0681 85 60.8081 85 53.3281 85C52.9981 85.99 52.6681 86.98 52.3281 88C52.3281 86.68 52.3281 85.36 52.3281 84C50.0181 84 47.7081 84 45.3281 84C45.3281 84.99 45.3281 85.98 45.3281 87C44.0081 87 42.6881 87 41.3281 87C41.3281 88.65 41.3281 90.3 41.3281 92C40.0081 91.67 38.6881 91.34 37.3281 91C38.3181 91 39.3081 91 40.3281 91C40.4106 89.8863 40.4931 88.7725 40.5781 87.625C40.8256 86.4288 41.0731 85.2325 41.3281 84C43.3281 82.8125 43.3281 82.8125 45.3281 82C46.1334 79.95 46.1334 79.95 46.3281 78Z" fill="#9C5C39"/>
<path d="M101.328 7C109.248 7 117.168 7 125.328 7C125.328 7.99 125.328 8.98 125.328 10C126.318 10.33 127.308 10.66 128.328 11C127.998 11.66 127.668 12.32 127.328 13C126.668 13 126.008 13 125.328 13C125.328 15.64 125.328 18.28 125.328 21C124.998 21 124.668 21 124.328 21C124.268 20.3851 124.207 19.7702 124.145 19.1367C124.019 17.9244 124.019 17.9244 123.891 16.6875C123.809 15.887 123.728 15.0865 123.645 14.2617C123.375 11.8391 123.375 11.8391 122.328 9C121.48 9.01571 121.48 9.01571 120.616 9.03174C118.062 9.07325 115.507 9.09931 112.953 9.125C112.064 9.14176 111.174 9.15852 110.258 9.17578C109.407 9.18223 108.556 9.18867 107.68 9.19531C106.501 9.21102 106.501 9.21102 105.299 9.22705C103.328 9 103.328 9 101.328 7Z" fill="#2E1014"/>
<path d="M36.3281 4C36.6581 4 36.9881 4 37.3281 4C37.3281 9.61 37.3281 15.22 37.3281 21C38.9781 21 40.6281 21 42.3281 21C42.3281 29.25 42.3281 37.5 42.3281 46C43.6481 46 44.9681 46 46.3281 46C46.3281 47.32 46.3281 48.64 46.3281 50C44.6781 50 43.0281 50 41.3281 50C41.3281 40.76 41.3281 31.52 41.3281 22C39.6781 22 38.0281 22 36.3281 22C36.3281 16.06 36.3281 10.12 36.3281 4Z" fill="#841216"/>
<path d="M8.32812 20C8.65813 20 8.98812 20 9.32812 20C9.65813 26.93 9.98812 33.86 10.3281 41C11.3181 40.34 12.3081 39.68 13.3281 39C13.3281 42.63 13.3281 46.26 13.3281 50C11.6781 50 10.0281 50 8.32812 50C8.32812 40.1 8.32812 30.2 8.32812 20Z" fill="#FEDEA5"/>
<path d="M104.328 13C108.618 13 112.908 13 117.328 13C117.328 14.65 117.328 16.3 117.328 18C118.648 18.33 119.968 18.66 121.328 19C115.638 18.4619 109.979 17.86 104.328 17C104.328 15.68 104.328 14.36 104.328 13Z" fill="#FDCA9F"/>
<path d="M103.328 9C109.598 9 115.868 9 122.328 9C122.658 9.99 122.988 10.98 123.328 12C115.078 12 106.828 12 98.3281 12C98.3281 11.67 98.3281 11.34 98.3281 11C99.9781 10.67 101.628 10.34 103.328 10C103.328 9.67 103.328 9.34 103.328 9Z" fill="#3C0307"/>
<path d="M76.3281 88C78.9681 88 81.6081 88 84.3281 88C84.3281 92.62 84.3281 97.24 84.3281 102C83.0081 102 81.6881 102 80.3281 102C80.3281 103.65 80.3281 105.3 80.3281 107C79.3381 107 78.3481 107 77.3281 107C77.3281 104.69 77.3281 102.38 77.3281 100C78.3181 100 79.3081 100 80.3281 100C80.6581 99.01 80.9881 98.02 81.3281 97C81.9881 97 82.6481 97 83.3281 97C83.3281 95.35 83.3281 93.7 83.3281 92C82.6681 92 82.0081 92 81.3281 92C81.3281 91.34 81.3281 90.68 81.3281 90C79.6781 89.67 78.0281 89.34 76.3281 89C76.3281 88.67 76.3281 88.34 76.3281 88Z" fill="#E58D07"/>
<path d="M45.3281 84C47.6381 84 49.9481 84 52.3281 84C52.3281 85.32 52.3281 86.64 52.3281 88C51.0081 88 49.6881 88 48.3281 88C48.3281 88.99 48.3281 89.98 48.3281 91C47.3381 91.495 47.3381 91.495 46.3281 92C45.6726 94.5273 45.6726 94.5273 45.3281 97C44.9981 97 44.6681 97 44.3281 97C44.3281 95.02 44.3281 93.04 44.3281 91C43.3381 91 42.3481 91 41.3281 91C41.3281 89.68 41.3281 88.36 41.3281 87C42.6481 87 43.9681 87 45.3281 87C45.3281 86.01 45.3281 85.02 45.3281 84Z" fill="#54100E"/>
<path d="M77.3281 78C80.2981 78.495 80.2981 78.495 83.3281 79C83.6581 80.65 83.9881 82.3 84.3281 84C83.6681 84 83.0081 84 82.3281 84C82.3281 84.99 82.3281 85.98 82.3281 87C81.5444 86.9794 80.7606 86.9588 79.9531 86.9375C77.347 86.8132 77.347 86.8132 75.3281 88C75.7863 84.5306 76.2194 81.326 77.3281 78Z" fill="#84281D"/>
<path d="M9.32812 13C12.9581 13 16.5881 13 20.3281 13C20.3281 14.65 20.3281 16.3 20.3281 18C14.3881 18.495 14.3881 18.495 8.32812 19C8.65813 17.02 8.98812 15.04 9.32812 13Z" fill="#FDBC8F"/>
<path d="M92.3281 50C92.6581 50 92.9881 50 93.3281 50C93.3281 51.65 93.3281 53.3 93.3281 55C95.3081 55 97.2881 55 99.3281 55C99.3281 56.32 99.3281 57.64 99.3281 59C97.6781 59 96.0281 59 94.3281 59C94.3281 60.65 94.3281 62.3 94.3281 64C93.9981 62.68 93.6681 61.36 93.3281 60C91.6781 60 90.0281 60 88.3281 60C88.3281 58.35 88.3281 56.7 88.3281 55C89.6481 55 90.9681 55 92.3281 55C92.3281 53.35 92.3281 51.7 92.3281 50Z" fill="#980A13"/>
<path d="M46.3281 113C46.6581 113 46.9881 113 47.3281 113C47.3281 115.31 47.3281 117.62 47.3281 120C49.3081 120 51.2881 120 53.3281 120C53.7103 121.656 54.0421 123.325 54.3281 125C53.3281 126 53.3281 126 49.7656 126.062C48.6313 126.042 47.4969 126.021 46.3281 126C46.225 125.216 46.1219 124.433 46.0156 123.625C45.5522 120.67 45.5522 120.67 42.3281 119C43.6481 119 44.9681 119 46.3281 119C46.3281 117.02 46.3281 115.04 46.3281 113Z" fill="#240507"/>
<path d="M36.3281 70C39.9581 70 43.5881 70 47.3281 70C47.3281 70.33 47.3281 70.66 47.3281 71C44.6881 71.33 42.0481 71.66 39.3281 72C38.3381 74.97 37.3481 77.94 36.3281 81C33.3581 80.67 30.3881 80.34 27.3281 80C28.6481 79.67 29.9681 79.34 31.3281 79C31.3281 77.68 31.3281 76.36 31.3281 75C32.9781 75 34.6281 75 36.3281 75C36.3281 73.35 36.3281 71.7 36.3281 70Z" fill="#FCE55D"/>
<path d="M115.328 48C117.638 48 119.948 48 122.328 48C122.328 48.66 122.328 49.32 122.328 50C121.668 50 121.008 50 120.328 50C120.328 52.97 120.328 55.94 120.328 59C118.678 58.67 117.028 58.34 115.328 58C115.328 54.7 115.328 51.4 115.328 48Z" fill="#E52419"/>
<path d="M6.32814 12C6.98814 12 7.64814 12 8.32814 12C8.32814 13.98 8.32814 15.96 8.32814 18C7.66814 18 7.00814 18 6.32814 18C6.32814 27.9 6.32814 37.8 6.32814 48C6.98814 48 7.64814 48 8.32814 48C8.65814 48.99 8.98814 49.98 9.32814 51C8.00814 51 6.68814 51 5.32814 51C5.30349 45.6065 5.28531 40.2131 5.27321 34.8196C5.26817 32.9833 5.26134 31.147 5.2527 29.3108C5.24062 26.6772 5.23491 24.0437 5.23048 21.4102C5.22532 20.5841 5.22016 19.7581 5.21484 18.907C5.21465 16.9376 5.2661 14.9684 5.32814 13C5.65814 12.67 5.98814 12.34 6.32814 12Z" fill="#C82919"/>
<path d="M99.3281 12C105.268 12 111.208 12 117.328 12C117.328 12.33 117.328 12.66 117.328 13C113.038 13 108.748 13 104.328 13C104.328 14.32 104.328 15.64 104.328 17C106.638 17 108.948 17 111.328 17C111.328 17.33 111.328 17.66 111.328 18C110.28 18.0561 110.28 18.0561 109.211 18.1133C108.301 18.179 107.391 18.2448 106.453 18.3125C105.548 18.3705 104.643 18.4285 103.711 18.4883C100.966 18.7882 100.966 18.7882 99.3281 22C99.3281 18.7 99.3281 15.4 99.3281 12Z" fill="#EA5346"/>
<path d="M64.3281 90C66.6381 90 68.9481 90 71.3281 90C70.9981 92.31 70.6681 94.62 70.3281 97C73.2981 97 76.2681 97 79.3281 97C77.3281 99 77.3281 99 74.7266 99.1953C73.7288 99.1721 72.7311 99.1489 71.7031 99.125C70.1988 99.0979 70.1988 99.0979 68.6641 99.0703C67.8932 99.0471 67.1223 99.0239 66.3281 99C68.2031 94.25 68.2031 94.25 69.3281 92C68.0081 92.33 66.6881 92.66 65.3281 93C64.9981 94.32 64.6681 95.64 64.3281 97C64.3281 94.69 64.3281 92.38 64.3281 90Z" fill="#FDE835"/>
<path d="M20.3281 75C22.6381 75 24.9481 75 27.3281 75C27.3281 75.99 27.3281 76.98 27.3281 78C27.9881 78 28.6481 78 29.3281 78C29.6581 77.01 29.9881 76.02 30.3281 75C30.3281 76.32 30.3281 77.64 30.3281 79C29.0081 79 27.6881 79 26.3281 79C26.3281 81.97 26.3281 84.94 26.3281 88C25.0081 87.67 23.6881 87.34 22.3281 87C23.3181 87 24.3081 87 25.3281 87C24.9981 85.02 24.6681 83.04 24.3281 81C23.6681 82.32 23.0081 83.64 22.3281 85C21.6681 81.7 21.0081 78.4 20.3281 75Z" fill="#1B0509"/>
<path d="M75.3281 89C77.6381 89 79.9481 89 82.3281 89C81.9981 89.99 81.6681 90.98 81.3281 92C81.9881 92 82.6481 92 83.3281 92C83.3281 93.32 83.3281 94.64 83.3281 96C80.6881 96 78.0481 96 75.3281 96C75.3281 93.69 75.3281 91.38 75.3281 89Z" fill="#FCF581"/>
<path d="M77.3281 45C78.9781 45 80.6281 45 82.3281 45C82.3281 47.31 82.3281 49.62 82.3281 52C78.9572 53.4982 77.1237 54 73.3281 54C73.3281 53.01 73.3281 52.02 73.3281 51C74.6481 51 75.9681 51 77.3281 51C77.3281 49.02 77.3281 47.04 77.3281 45Z" fill="#C41A0E"/>
<path d="M99.3281 41C100.648 41.33 101.968 41.66 103.328 42C103.328 43.32 103.328 44.64 103.328 46C104.648 46 105.968 46 107.328 46C107.328 46.99 107.328 47.98 107.328 49C104.828 51.1875 104.828 51.1875 102.328 53C102.328 52.01 102.328 51.02 102.328 50C101.338 50 100.348 50 99.3281 50C99.3281 47.03 99.3281 44.06 99.3281 41Z" fill="#B80B11"/>
<path d="M54.3281 105C55.3181 105.495 55.3181 105.495 56.3281 106C55.3381 106.495 55.3381 106.495 54.3281 107C54.3281 106.34 54.3281 105.68 54.3281 105ZM50.3281 106C52.3081 106.66 54.2881 107.32 56.3281 108C56.5781 110.312 56.5781 110.312 56.3281 113C54.2839 114.976 53.2104 116 50.3281 116C50.3281 112.7 50.3281 109.4 50.3281 106Z" fill="#FEE63F"/>
<path d="M96.3281 80C97.9781 80 99.6281 80 101.328 80C101.328 83.3 101.328 86.6 101.328 90C99.6781 90 98.0281 90 96.3281 90C96.3281 86.7 96.3281 83.4 96.3281 80Z" fill="#F0921C"/>
<path d="M103.328 79C104.648 79 105.968 79 107.328 79C107.658 82.3 107.988 85.6 108.328 89C106.348 89 104.368 89 102.328 89C102.301 87.5209 102.282 86.0417 102.266 84.5625C102.254 83.7388 102.242 82.9151 102.23 82.0664C102.328 80 102.328 80 103.328 79Z" fill="#330609"/>
<path d="M120.328 60C121.318 60 122.308 60 123.328 60C123.328 61.65 123.328 63.3 123.328 65C121.348 65.66 119.368 66.32 117.328 67C117.328 67.99 117.328 68.98 117.328 70C115.348 70.99 115.348 70.99 113.328 72C112.328 71 112.328 71 112.266 67.9375C112.286 66.9681 112.307 65.9987 112.328 65C114.968 65 117.608 65 120.328 65C120.328 63.35 120.328 61.7 120.328 60Z" fill="#231117"/>
<path d="M85.3281 77C86.9781 77.33 88.6281 77.66 90.3281 78C89.9981 82.29 89.6681 86.58 89.3281 91C90.6481 91.33 91.9681 91.66 93.3281 92C91.6781 92 90.0281 92 88.3281 92C88.3281 89.36 88.3281 86.72 88.3281 84C87.0081 84 85.6881 84 84.3281 84C84.2856 82.0005 84.2873 79.9996 84.3281 78C84.6581 77.67 84.9881 77.34 85.3281 77Z" fill="#F5C548"/>
<path d="M25.3281 46C24.3381 46.495 24.3381 46.495 23.3281 47C22.8591 49.816 22.8591 49.816 22.7031 53.0625C22.6284 54.1672 22.5536 55.272 22.4766 56.4102C22.4276 57.2648 22.3786 58.1195 22.3281 59C23.6481 59.33 24.9681 59.66 26.3281 60C24.6781 60 23.0281 60 21.3281 60C21.3281 56.7 21.3281 53.4 21.3281 50C19.0181 50 16.7081 50 14.3281 50C14.3281 49.34 14.3281 48.68 14.3281 48C18.2371 44.8958 20.5598 44.7802 25.3281 46Z" fill="#D71412"/>
<path d="M42.3281 34C44.3081 34.99 44.3081 34.99 46.3281 36C46.6581 36 46.9881 36 47.3281 36C47.3281 38.97 47.3281 41.94 47.3281 45C48.6481 45.33 49.9681 45.66 51.3281 46C48.3581 46 45.3881 46 42.3281 46C42.3281 42.04 42.3281 38.08 42.3281 34Z" fill="#D13119"/>
<path d="M48.3281 90C48.4519 90.6187 48.5756 91.2375 48.7031 91.875C49.2001 94.1912 49.2001 94.1912 51.3281 96C53.293 96.8878 53.293 96.8878 55.4531 97.625C56.5398 98.0156 56.5398 98.0156 57.6484 98.4141C58.2027 98.6074 58.757 98.8008 59.3281 99C59.3281 99.33 59.3281 99.66 59.3281 100C55.3681 99.67 51.4081 99.34 47.3281 99C46.9981 99.66 46.6681 100.32 46.3281 101C46.3281 97.7 46.3281 94.4 46.3281 91C46.9881 90.67 47.6481 90.34 48.3281 90Z" fill="#FADA34"/>
<path d="M46.3281 46C47.9781 46 49.6281 46 51.3281 46C51.6581 48.64 51.9881 51.28 52.3281 54C50.3481 54 48.3681 54 46.3281 54C46.3281 51.36 46.3281 48.72 46.3281 46Z" fill="#AD1212"/>
<path d="M37.3281 10C38.6481 10 39.9681 10 41.3281 10C41.3281 13.63 41.3281 17.26 41.3281 21C40.0081 21 38.6881 21 37.3281 21C37.3281 17.37 37.3281 13.74 37.3281 10Z" fill="#B70914"/>
<path d="M46.3281 101C51.2781 101 56.2281 101 61.3281 101C59.8431 102.485 59.8431 102.485 58.3281 104C57.0081 104 55.6881 104 54.3281 104C54.3281 104.99 54.3281 105.98 54.3281 107C53.0081 106.67 51.6881 106.34 50.3281 106C50.3281 104.68 50.3281 103.36 50.3281 102C49.0081 101.67 47.6881 101.34 46.3281 101Z" fill="#ECA00D"/>
<path d="M26.3281 79C26.6581 79 26.9881 79 27.3281 79C27.3281 82.3 27.3281 85.6 27.3281 89C23.6981 88.67 20.0681 88.34 16.3281 88C16.3281 87.67 16.3281 87.34 16.3281 87C17.9781 87 19.6281 87 21.3281 87C21.3281 84.69 21.3281 82.38 21.3281 80C22.6615 80 23.9948 80 25.3281 80C25.3075 81.1344 25.2869 82.2687 25.2656 83.4375C24.9124 86.8158 24.9124 86.8158 26.3281 88C26.3281 85.03 26.3281 82.06 26.3281 79Z" fill="#3E2623"/>
<path d="M8.32812 9C11.2981 9 14.2681 9 17.3281 9C17.3281 9.66 17.3281 10.32 17.3281 11C21.9481 11 26.5681 11 31.3281 11C31.3281 11.33 31.3281 11.66 31.3281 12C23.0781 12 14.8281 12 6.32812 12C6.98813 11.67 7.64812 11.34 8.32812 11C8.32812 10.34 8.32812 9.68 8.32812 9Z" fill="#47070A"/>
<path d="M51.3281 46C51.6581 46.66 51.9881 47.32 52.3281 48C52.9881 48 53.6481 48 54.3281 48C54.3281 48.66 54.3281 49.32 54.3281 50C61.2581 50.495 61.2581 50.495 68.3281 51C68.3281 51.33 68.3281 51.66 68.3281 52C63.0481 52.66 57.7681 53.32 52.3281 54C51.9981 51.36 51.6681 48.72 51.3281 46Z" fill="#F6C23B"/>
<path d="M110.328 51C111.978 51 113.628 51 115.328 51C115.658 53.64 115.988 56.28 116.328 59C114.348 59 112.368 59 110.328 59C110.328 56.36 110.328 53.72 110.328 51Z" fill="#FED041"/>
<path d="M8.32812 12C13.6081 12 18.8881 12 24.3281 12C24.3281 13.32 24.3281 14.64 24.3281 16C25.6481 16.33 26.9681 16.66 28.3281 17C25.6881 17.33 23.0481 17.66 20.3281 18C20.3281 16.35 20.3281 14.7 20.3281 13C16.6981 13 13.0681 13 9.32812 13C9.32812 14.65 9.32812 16.3 9.32812 18C8.99812 18 8.66813 18 8.32812 18C8.32812 16.02 8.32812 14.04 8.32812 12Z" fill="#F44D3C"/>
<path d="M72.3281 29C74.9681 29 77.6081 29 80.3281 29C80.6581 30.32 80.9881 31.64 81.3281 33C79.0181 33 76.7081 33 74.3281 33C74.3281 33.66 74.3281 34.32 74.3281 35C73.6681 35 73.0081 35 72.3281 35C72.3281 33.02 72.3281 31.04 72.3281 29Z" fill="#AB0B07"/>
<path d="M47.3281 113C47.6581 114.32 47.9881 115.64 48.3281 117C49.9942 117.043 51.662 117.041 53.3281 117C53.6581 116.67 53.9881 116.34 54.3281 116C57.3281 116 57.3281 116 60.3281 118C59.3381 118 58.3481 118 57.3281 118C57.3281 118.66 57.3281 119.32 57.3281 120C54.0281 120 50.7281 120 47.3281 120C47.3281 117.69 47.3281 115.38 47.3281 113Z" fill="#EB9111"/>
<path d="M49.3281 106C49.6581 106 49.9881 106 50.3281 106C50.3281 109.3 50.3281 112.6 50.3281 116C51.2769 115.34 52.2256 114.68 53.2031 114C56.3281 112 56.3281 112 58.3281 112C58.6581 113.65 58.9881 115.3 59.3281 117C58.0081 116.67 56.6881 116.34 55.3281 116C54.9981 116.99 54.6681 117.98 54.3281 119C53.9981 118.34 53.6681 117.68 53.3281 117C51.6781 117 50.0281 117 48.3281 117C48.6581 113.37 48.9881 109.74 49.3281 106Z" fill="#EB9A1C"/>
<path d="M53.3281 85C56.2981 85.495 56.2981 85.495 59.3281 86C56.9684 88.0975 55.782 88.9691 52.5781 89.1875C51.4644 89.0947 51.4644 89.0947 50.3281 89C50.3281 90.65 50.3281 92.3 50.3281 94C51.9781 93.67 53.6281 93.34 55.3281 93C54.9981 93.99 54.6681 94.98 54.3281 96C52.6781 95.67 51.0281 95.34 49.3281 95C48.3281 90.25 48.3281 90.25 48.3281 88C49.9781 88 51.6281 88 53.3281 88C53.3281 87.01 53.3281 86.02 53.3281 85Z" fill="#FDF9BE"/>
<path d="M61.3281 87C61.3281 87.66 61.3281 88.32 61.3281 89C60.3691 89.1547 60.3691 89.1547 59.3906 89.3125C58.71 89.5394 58.0294 89.7663 57.3281 90C56.9981 90.99 56.6681 91.98 56.3281 93C54.3481 93.33 52.3681 93.66 50.3281 94C50.3281 92.35 50.3281 90.7 50.3281 89C54.1513 87.5774 57.2409 86.7596 61.3281 87Z" fill="#FEFDCE"/>
<path d="M36.3281 92C37.9781 92 39.6281 92 41.3281 92C40.3381 92.495 40.3381 92.495 39.3281 93C38.8602 94.9336 38.8602 94.9336 38.6953 97.2539C38.6115 98.1079 38.5277 98.9619 38.4414 99.8418C38.3628 100.74 38.2841 101.637 38.2031 102.562C38.1168 103.464 38.0304 104.366 37.9414 105.295C37.7286 107.529 37.5246 109.764 37.3281 112C38.6481 112.33 39.9681 112.66 41.3281 113C39.6781 113 38.0281 113 36.3281 113C36.3281 106.07 36.3281 99.14 36.3281 92Z" fill="#591409"/>
<path d="M26.3281 60C26.6581 61.32 26.9881 62.64 27.3281 64C28.3181 63.67 29.3081 63.34 30.3281 63C30.6581 62.34 30.9881 61.68 31.3281 61C32.6481 61 33.9681 61 35.3281 61C35.3281 62.65 35.3281 64.3 35.3281 66C34.0081 66 32.6881 66 31.3281 66C31.3281 67.65 31.3281 69.3 31.3281 71C30.9981 71 30.6681 71 30.3281 71C30.3281 69.02 30.3281 67.04 30.3281 65C29.0081 65 27.6881 65 26.3281 65C26.3281 63.35 26.3281 61.7 26.3281 60Z" fill="#D3361C"/>
<path d="M109.328 41C109.328 42.65 109.328 44.3 109.328 46C107.348 46 105.368 46 103.328 46C103.328 44.68 103.328 43.36 103.328 42C102.338 41.67 101.348 41.34 100.328 41C103.653 39.8916 105.95 40.1555 109.328 41Z" fill="#E81A1D"/>
<path d="M84.3281 132C86.6381 132 88.9481 132 91.3281 132C91.3281 133.65 91.3281 135.3 91.3281 137C89.0181 137 86.7081 137 84.3281 137C84.3281 135.35 84.3281 133.7 84.3281 132Z" fill="#DC7716"/>
<path d="M75.3281 121C77.6381 121 79.9481 121 82.3281 121C82.3281 122.65 82.3281 124.3 82.3281 126C80.0181 126 77.7081 126 75.3281 126C75.3281 124.35 75.3281 122.7 75.3281 121Z" fill="#250504"/>
<path d="M80.3281 116C80.3281 117.32 80.3281 118.64 80.3281 120C77.3581 120 74.3881 120 71.3281 120C70.9981 119.01 70.6681 118.02 70.3281 117C73.8014 115.842 76.6888 115.931 80.3281 116Z" fill="#EB800F"/>
<path d="M80.8906 71.9375C82.0972 71.9684 82.0972 71.9684 83.3281 72C83.3281 73.98 83.3281 75.96 83.3281 78C81.3481 78 79.3681 78 77.3281 78C77.2854 76.3339 77.2875 74.6662 77.3281 73C78.3281 72 78.3281 72 80.8906 71.9375Z" fill="#FDD947"/>
<path d="M113.328 71C113.328 71.99 113.328 72.98 113.328 74C112.338 74.495 112.338 74.495 111.328 75C110.998 75.99 110.668 76.98 110.328 78C109.668 78 109.008 78 108.328 78C108.328 77.01 108.328 76.02 108.328 75C106.018 75 103.708 75 101.328 75C101.328 74.67 101.328 74.34 101.328 74C103.308 74 105.288 74 107.328 74C107.328 73.01 107.328 72.02 107.328 71C111.078 69.875 111.078 69.875 113.328 71Z" fill="#3A141D"/>
<path d="M47.3281 61C48.9781 61 50.6281 61 52.3281 61C52.3281 63.31 52.3281 65.62 52.3281 68C50.6781 68 49.0281 68 47.3281 68C47.3281 65.69 47.3281 63.38 47.3281 61Z" fill="#FDE754"/>
<path d="M14.3281 50C16.6381 50 18.9481 50 21.3281 50C21.3281 52.97 21.3281 55.94 21.3281 59C20.9981 57.68 20.6681 56.36 20.3281 55C18.3481 55 16.3681 55 14.3281 55C14.3281 53.35 14.3281 51.7 14.3281 50Z" fill="#F87608"/>
<path d="M30.3281 41C30.6581 41 30.9881 41 31.3281 41C31.3281 43.97 31.3281 46.94 31.3281 50C32.9781 50 34.6281 50 36.3281 50C36.3281 51.65 36.3281 53.3 36.3281 55C35.9981 53.68 35.6681 52.36 35.3281 51C34.0081 51 32.6881 51 31.3281 51C30.9981 52.65 30.6681 54.3 30.3281 56C29.6681 56 29.0081 56 28.3281 56C28.3281 54.35 28.3281 52.7 28.3281 51C28.9881 51 29.6481 51 30.3281 51C30.3281 47.7 30.3281 44.4 30.3281 41Z" fill="#A90F19"/>
<path d="M41.3281 113C42.9781 113 44.6281 113 46.3281 113C46.3281 114.98 46.3281 116.96 46.3281 119C44.6781 119.33 43.0281 119.66 41.3281 120C41.3281 117.69 41.3281 115.38 41.3281 113Z" fill="#590E0F"/>
<path d="M65.3281 102C69.2881 102 73.2481 102 77.3281 102C77.3281 102.99 77.3281 103.98 77.3281 105C69.8281 105.375 69.8281 105.375 65.3281 102Z" fill="#F7A00B"/>
<path d="M9.32812 62C10.6481 62 11.9681 62 13.3281 62C13.9881 63.65 14.6481 65.3 15.3281 67C13.0181 67 10.7081 67 8.32812 67C8.32812 66.34 8.32812 65.68 8.32812 65C7.33812 64.67 6.34812 64.34 5.32812 64C6.64813 64 7.96812 64 9.32812 64C9.32812 63.34 9.32812 62.68 9.32812 62Z" fill="#472126"/>
<path d="M116.328 59C116.328 60.65 116.328 62.3 116.328 64C111.703 66.125 111.703 66.125 108.328 65C108.988 65 109.648 65 110.328 65C110.328 63.35 110.328 61.7 110.328 60C115.203 59 115.203 59 116.328 59Z" fill="#D31F14"/>
<path d="M87.3281 55C87.6581 55 87.9881 55 88.3281 55C88.3281 56.65 88.3281 58.3 88.3281 60C89.9781 60 91.6281 60 93.3281 60C93.3281 61.32 93.3281 62.64 93.3281 64C90.3581 64 87.3881 64 84.3281 64C85.3181 63.01 86.3081 62.02 87.3281 61C87.5786 57.8745 87.5786 57.8745 87.3281 55Z" fill="#330305"/>
<path d="M87.3281 112C87.3281 114.64 87.3281 117.28 87.3281 120C85.6781 120 84.0281 120 82.3281 120C82.904 117.614 83.5504 115.333 84.3281 113C86.3281 112 86.3281 112 87.3281 112Z" fill="#300402"/>
<path d="M93.3281 55C95.3081 55 97.2881 55 99.3281 55C99.3281 56.32 99.3281 57.64 99.3281 59C97.6781 59 96.0281 59 94.3281 59C94.3281 60.65 94.3281 62.3 94.3281 64C93.9981 64 93.6681 64 93.3281 64C93.3281 61.03 93.3281 58.06 93.3281 55Z" fill="#B60B12"/>
<path d="M76.3281 88C78.9681 88 81.6081 88 84.3281 88C84.3281 92.62 84.3281 97.24 84.3281 102C83.3381 101.67 82.3481 101.34 81.3281 101C81.9881 101 82.6481 101 83.3281 101C83.3281 98.03 83.3281 95.06 83.3281 92C82.6681 92 82.0081 92 81.3281 92C81.3281 91.34 81.3281 90.68 81.3281 90C79.6781 89.67 78.0281 89.34 76.3281 89C76.3281 88.67 76.3281 88.34 76.3281 88Z" fill="#A8571C"/>
<path d="M21.3281 71C23.6381 71 25.9481 71 28.3281 71C28.3281 72.32 28.3281 73.64 28.3281 75C26.0181 75 23.7081 75 21.3281 75C21.3281 73.68 21.3281 72.36 21.3281 71Z" fill="#C62321"/>
<path d="M116.328 59C117.648 59 118.968 59 120.328 59C120.328 60.98 120.328 62.96 120.328 65C117.688 65 115.048 65 112.328 65C113.648 64.67 114.968 64.34 116.328 64C116.328 62.35 116.328 60.7 116.328 59Z" fill="#670712"/>
<path d="M14.3281 55C16.3081 55 18.2881 55 20.3281 55C20.3281 56.32 20.3281 57.64 20.3281 59C18.3481 59.33 16.3681 59.66 14.3281 60C14.3281 58.35 14.3281 56.7 14.3281 55Z" fill="#FEE142"/>
<path d="M122.328 34C122.658 34 122.988 34 123.328 34C123.328 40.6 123.328 47.2 123.328 54C122.338 54 121.348 54 120.328 54C120.328 52.68 120.328 51.36 120.328 50C120.988 50 121.648 50 122.328 50C122.328 44.72 122.328 39.44 122.328 34Z" fill="#A41011"/>
<path d="M46.3281 113C46.6581 113 46.9881 113 47.3281 113C47.3281 115.31 47.3281 117.62 47.3281 120C49.3081 120 51.2881 120 53.3281 120C53.3281 120.33 53.3281 120.66 53.3281 121C51.6781 121 50.0281 121 48.3281 121C48.3281 122.32 48.3281 123.64 48.3281 125C47.6681 125 47.0081 125 46.3281 125C46.225 124.381 46.1219 123.762 46.0156 123.125C45.4529 120.635 45.4529 120.635 42.3281 119C43.6481 119 44.9681 119 46.3281 119C46.3281 117.02 46.3281 115.04 46.3281 113Z" fill="#400904"/>
<path d="M14.3281 60C16.3081 60 18.2881 60 20.3281 60C20.6581 61.98 20.9881 63.96 21.3281 66C20.0081 65.67 18.6881 65.34 17.3281 65C17.3281 64.34 17.3281 63.68 17.3281 63C16.3381 62.67 15.3481 62.34 14.3281 62C14.3281 61.34 14.3281 60.68 14.3281 60Z" fill="#EE4B0F"/>
<path d="M35.3281 131C35.3281 131.33 35.3281 131.66 35.3281 132C33.0181 132 30.7081 132 28.3281 132C28.3281 133.65 28.3281 135.3 28.3281 137C29.9781 137 31.6281 137 33.3281 137C33.3281 137.33 33.3281 137.66 33.3281 138C31.3481 138 29.3681 138 27.3281 138C27.3281 136.02 27.3281 134.04 27.3281 132C25.3481 132 23.3681 132 21.3281 132C21.3281 131.67 21.3281 131.34 21.3281 131C26.3511 129.87 30.3069 130.221 35.3281 131Z" fill="#634C50"/>
<path d="M28.3281 71C29.3181 71 30.3081 71 31.3281 71C31.3281 71.66 31.3281 72.32 31.3281 73C32.9781 73.33 34.6281 73.66 36.3281 74C36.3281 74.33 36.3281 74.66 36.3281 75C34.6781 75 33.0281 75 31.3281 75C30.9981 76.32 30.6681 77.64 30.3281 79C29.3381 78.67 28.3481 78.34 27.3281 78C27.6581 75.69 27.9881 73.38 28.3281 71Z" fill="#722713"/>
<path d="M30.3281 65C30.3281 66.98 30.3281 68.96 30.3281 71C28.6781 71 27.0281 71 25.3281 71C25.3281 69.35 25.3281 67.7 25.3281 66C29.2031 65 29.2031 65 30.3281 65Z" fill="#FED72F"/>
<path d="M115.328 48C117.638 48 119.948 48 122.328 48C122.328 48.66 122.328 49.32 122.328 50C120.348 50.33 118.368 50.66 116.328 51C116.328 53.31 116.328 55.62 116.328 58C115.998 58 115.668 58 115.328 58C115.328 54.7 115.328 51.4 115.328 48Z" fill="#F76038"/>
<path d="M48.3281 29C50.9681 29 53.6081 29 56.3281 29C56.3281 29.99 56.3281 30.98 56.3281 32C54.0181 32 51.7081 32 49.3281 32C48.9981 32.66 48.6681 33.32 48.3281 34C48.3281 32.35 48.3281 30.7 48.3281 29Z" fill="#BA080A"/>
<path d="M96.3281 120C97.9781 120 99.6281 120 101.328 120C100.93 122.886 100.538 123.822 98.2656 125.75C97.6263 126.162 96.9869 126.575 96.3281 127C96.3281 124.69 96.3281 122.38 96.3281 120Z" fill="#DC6D0E"/>
<path d="M65.3281 86C68.6281 86 71.9281 86 75.3281 86C75.3281 86.66 75.3281 87.32 75.3281 88C67.5781 89.125 67.5781 89.125 65.3281 88C65.3281 87.34 65.3281 86.68 65.3281 86Z" fill="#FCF9A1"/>
<path d="M31.3281 75C32.9781 75 34.6281 75 36.3281 75C35.9981 76.65 35.6681 78.3 35.3281 80C32.6881 80 30.0481 80 27.3281 80C28.6481 79.67 29.9681 79.34 31.3281 79C31.3281 77.68 31.3281 76.36 31.3281 75Z" fill="#F4E47F"/>
<path d="M99.3281 66C100.978 66 102.628 66 104.328 66C104.328 67.65 104.328 69.3 104.328 71C102.678 71 101.028 71 99.3281 71C99.3281 69.35 99.3281 67.7 99.3281 66Z" fill="#FED24A"/>
<path d="M88.3281 45C88.3281 46.65 88.3281 48.3 88.3281 50C87.0081 50 85.6881 50 84.3281 50C83.9981 51.32 83.6681 52.64 83.3281 54C83.3281 51.36 83.3281 48.72 83.3281 46C87.2031 45 87.2031 45 88.3281 45Z" fill="#4A0005"/>
<path d="M4.32812 7C7.95813 7 11.5881 7 15.3281 7C15.3281 7.33 15.3281 7.66 15.3281 8C13.0181 8 10.7081 8 8.32812 8C8.32812 8.99 8.32812 9.98 8.32812 11C7.00812 11.33 5.68813 11.66 4.32812 12C4.32812 10.35 4.32812 8.7 4.32812 7Z" fill="#240D11"/>
<path d="M76.3281 89C78.3081 89 80.2881 89 82.3281 89C81.3381 90.98 80.3481 92.96 79.3281 95C78.3381 95 77.3481 95 76.3281 95C76.3281 93.02 76.3281 91.04 76.3281 89Z" fill="#FDF5AE"/>
<path d="M47.3281 84C48.9781 84 50.6281 84 52.3281 84C52.3281 85.32 52.3281 86.64 52.3281 88C50.3481 88.33 48.3681 88.66 46.3281 89C46.6581 87.35 46.9881 85.7 47.3281 84Z" fill="#36050A"/>
<path d="M66.3281 22C66.3281 22.33 66.3281 22.66 66.3281 23C64.6781 23.33 63.0281 23.66 61.3281 24C60.9981 25.32 60.6681 26.64 60.3281 28C59.0081 28 57.6881 28 56.3281 28C56.3281 26.68 56.3281 25.36 56.3281 24C59.7301 21.9065 62.3808 21.8206 66.3281 22Z" fill="#B60E08"/>
<path d="M60.3281 25C62.9681 25 65.6081 25 68.3281 25C68.3281 25.99 68.3281 26.98 68.3281 28C65.6881 28 63.0481 28 60.3281 28C60.3281 27.01 60.3281 26.02 60.3281 25Z" fill="#FCE152"/>
<path d="M56.0156 98.9375C57.5064 99.2294 57.5064 99.2294 59.0273 99.5273C60.1662 99.7613 60.1662 99.7613 61.3281 100C61.3281 100.33 61.3281 100.66 61.3281 101C56.7081 101 52.0881 101 47.3281 101C47.3281 100.34 47.3281 99.68 47.3281 99C50.8033 97.8416 52.4648 98.2273 56.0156 98.9375Z" fill="#FDC80D"/>
<path d="M105.328 60C106.648 60 107.968 60 109.328 60C109.328 61.65 109.328 63.3 109.328 65C108.008 65.33 106.688 65.66 105.328 66C105.328 64.02 105.328 62.04 105.328 60Z" fill="#FEB418"/>
<path d="M99.3281 41C100.648 41.33 101.968 41.66 103.328 42C102.328 46 102.328 46 101.328 50C100.668 50 100.008 50 99.3281 50C99.3281 47.03 99.3281 44.06 99.3281 41Z" fill="#B8141B"/>
<path d="M12.3281 39C12.6581 39 12.9881 39 13.3281 39C13.3281 42.63 13.3281 46.26 13.3281 50C11.6781 50 10.0281 50 8.32812 50C8.32812 49.01 8.32812 48.02 8.32812 47C9.64813 47 10.9681 47 12.3281 47C12.3281 44.36 12.3281 41.72 12.3281 39Z" fill="#FEB97A"/>
<path d="M14.3281 14C16.3081 14 18.2881 14 20.3281 14C20.3281 15.32 20.3281 16.64 20.3281 18C18.6781 18 17.0281 18 15.3281 18C14.9981 16.68 14.6681 15.36 14.3281 14Z" fill="#FDD9B2"/>
<path d="M44.3281 83C44.6581 84.32 44.9881 85.64 45.3281 87C44.0081 87 42.6881 87 41.3281 87C41.3281 88.65 41.3281 90.3 41.3281 92C40.0081 91.67 38.6881 91.34 37.3281 91C38.3181 91 39.3081 91 40.3281 91C40.6581 88.69 40.9881 86.38 41.3281 84C42.3181 83.67 43.3081 83.34 44.3281 83Z" fill="#BF6C2D"/>
<path d="M85.3281 77C86.3181 77 87.3081 77 88.3281 77C88.3281 78.98 88.3281 80.96 88.3281 83C87.0081 83 85.6881 83 84.3281 83C84.2854 81.3339 84.2875 79.6662 84.3281 78C84.6581 77.67 84.9881 77.34 85.3281 77Z" fill="#FEE44E"/>
<path d="M41.3281 14C41.6581 14 41.9881 14 42.3281 14C42.3281 15.65 42.3281 17.3 42.3281 19C43.9781 19 45.6281 19 47.3281 19C47.3281 19.99 47.3281 20.98 47.3281 22C45.662 22.0427 43.9943 22.0406 42.3281 22C41.3281 21 41.3281 21 41.2656 17.4375C41.2863 16.3031 41.3069 15.1688 41.3281 14Z" fill="#DA1B1B"/>
<path d="M95.3281 121C95.6581 121 95.9881 121 96.3281 121C96.6581 124.3 96.9881 127.6 97.3281 131C95.6781 131 94.0281 131 92.3281 131C92.6581 129.68 92.9881 128.36 93.3281 127C93.9881 127 94.6481 127 95.3281 127C95.3281 125.02 95.3281 123.04 95.3281 121Z" fill="#EE8914"/>
<path d="M21.3281 66C22.6481 66 23.9681 66 25.3281 66C25.3281 67.65 25.3281 69.3 25.3281 71C24.0081 71 22.6881 71 21.3281 71C21.3281 69.35 21.3281 67.7 21.3281 66Z" fill="#FC7E12"/>
<path d="M41.3281 46C42.9781 46 44.6281 46 46.3281 46C46.3281 47.32 46.3281 48.64 46.3281 50C44.6781 50 43.0281 50 41.3281 50C41.3281 48.68 41.3281 47.36 41.3281 46Z" fill="#780713"/>
<path d="M47.3281 113C47.6581 114.32 47.9881 115.64 48.3281 117C49.6481 117 50.9681 117 52.3281 117C52.3281 117.99 52.3281 118.98 52.3281 120C50.6781 120 49.0281 120 47.3281 120C47.3281 117.69 47.3281 115.38 47.3281 113Z" fill="#AC590D"/>
<path d="M107.328 71C107.328 71.99 107.328 72.98 107.328 74C104.688 74 102.048 74 99.3281 74C99.3281 73.34 99.3281 72.68 99.3281 72C102.091 71.4027 104.488 71 107.328 71Z" fill="#B51B1B"/>
<path d="M120.328 60C121.318 60 122.308 60 123.328 60C123.328 61.65 123.328 63.3 123.328 65C121.348 65.33 119.368 65.66 117.328 66C118.318 65.67 119.308 65.34 120.328 65C120.328 63.35 120.328 61.7 120.328 60Z" fill="#15050B"/>
<path d="M43.3281 138C44.6481 138 45.9681 138 47.3281 138C47.3281 139.98 47.3281 141.96 47.3281 144C46.3381 143.67 45.3481 143.34 44.3281 143C43.9981 141.35 43.6681 139.7 43.3281 138Z" fill="#4A1204"/>
<path d="M76.3281 105C76.6581 105.66 76.9881 106.32 77.3281 107C77.9881 107 78.6481 107 79.3281 107C79.3281 109.64 79.3281 112.28 79.3281 115C78.9981 113.68 78.6681 112.36 78.3281 111C77.6681 111 77.0081 111 76.3281 111C76.3281 109.02 76.3281 107.04 76.3281 105Z" fill="#FCB21F"/>
<path d="M47.3281 104C48.3181 104 49.3081 104 50.3281 104C49.9981 106.64 49.6681 109.28 49.3281 112C48.6681 112 48.0081 112 47.3281 112C47.3281 109.36 47.3281 106.72 47.3281 104Z" fill="#390402"/>
<path d="M53.3281 85C56.2981 85.495 56.2981 85.495 59.3281 86C56.6163 88.6033 55.4368 88.9946 51.5781 89.1875C50.5056 89.1256 49.4331 89.0637 48.3281 89C48.3281 88.67 48.3281 88.34 48.3281 88C49.9781 88 51.6281 88 53.3281 88C53.3281 87.01 53.3281 86.02 53.3281 85Z" fill="#F2E4AE"/>
<path d="M80.3281 64C81.3181 64 82.3081 64 83.3281 64C83.3281 65.98 83.3281 67.96 83.3281 70C82.3381 70 81.3481 70 80.3281 70C80.3281 68.02 80.3281 66.04 80.3281 64Z" fill="#CE7824"/>
<path d="M29.3281 42C29.6581 42 29.9881 42 30.3281 42C30.3281 44.64 30.3281 47.28 30.3281 50C29.3381 49.67 28.3481 49.34 27.3281 49C28.2031 44.25 28.2031 44.25 29.3281 42Z" fill="#DA161F"/>
<path d="M69.3281 92C68.0784 95.6532 67.6571 96.7807 64.3281 99C64.7031 96.0625 64.7031 96.0625 65.3281 93C67.3281 92 67.3281 92 69.3281 92Z" fill="#F7D514"/>
<path d="M6.32814 12C6.98814 12 7.64814 12 8.32814 12C8.32814 13.98 8.32814 15.96 8.32814 18C7.33814 18 6.34814 18 5.32814 18C5.28542 16.3339 5.2875 14.6662 5.32814 13C5.65814 12.67 5.98814 12.34 6.32814 12Z" fill="#AD070C"/>
</svg>
