<svg width="212" height="167" viewBox="0 0 212 167" fill="none" xmlns="http://www.w3.org/2000/svg">
<path d="M169 0C180.22 0 191.44 0 203 0C203 1.65 203 3.3 203 5C204.98 5 206.96 5 209 5C209 50.54 209 96.08 209 143C207.02 143 205.04 143 203 143C203 144.65 203 146.3 203 148C138.98 148 74.96 148 9 148C9 146.35 9 144.7 9 143C7.02 143 5.04 143 3 143C3 132.44 3 121.88 3 111C4.98 111 6.96 111 9 111C9 109.35 9 107.7 9 106C20.22 106 31.44 106 43 106C43 95.11 43 84.22 43 73C45.31 73 47.62 73 50 73C49.8392 73.8548 49.6785 74.7096 49.5128 75.5902C49.006 78.9598 48.8418 82.151 48.7947 85.5562C48.7747 86.837 48.7548 88.1179 48.7342 89.4376C48.7173 90.8204 48.7004 92.2032 48.6836 93.5859C48.663 95.0123 48.642 96.4386 48.6206 97.8649C48.5657 101.603 48.5161 105.342 48.4678 109.08C48.4085 113.574 48.3424 118.068 48.2775 122.561C48.1798 129.374 48.0907 136.187 48 143C57.57 143 67.14 143 77 143C77 131.78 77 120.56 77 109C77.99 109 78.98 109 80 109C80 108.01 80 107.02 80 106C80.66 106 81.32 106 82 106C82 97.09 82 88.18 82 79C72.76 79 63.52 79 54 79C54 77.02 54 75.04 54 73C63.57 73 73.14 73 83 73C83 74.65 83 76.3 83 78C84.65 78 86.3 78 88 78C88 87.24 88 96.48 88 106C91.96 106 95.92 106 100 106C100 81.58 100 57.16 100 32C101.65 32 103.3 32 105 32C105 29.69 105 27.38 105 25C116.88 25 128.76 25 141 25C141 26.65 141 28.3 141 30C142.65 30 144.3 30 146 30C146 41.55 146 53.1 146 65C151.28 65 156.56 65 162 65C162 46.85 162 28.7 162 10C163.65 10 165.3 10 167 10C167 8.35 167 6.7 167 5C167.66 5 168.32 5 169 5C169 3.35 169 1.7 169 0Z" fill="#20040E"/>
<path d="M172 6C182.23 6 192.46 6 203 6C203 49.89 203 93.78 203 139C202.01 139 201.02 139 200 139C200 140.32 200 141.64 200 143C189.11 143 178.22 143 167 143C167 99.11 167 55.22 167 10C168.65 10 170.3 10 172 10C172 8.68 172 7.36 172 6Z" fill="#FDD302"/>
<path d="M169 0C180.22 0 191.44 0 203 0C203 1.65 203 3.3 203 5C204.98 5 206.96 5 209 5C209 50.54 209 96.08 209 143C207.02 143 205.04 143 203 143C203 144.65 203 146.3 203 148C138.98 148 74.96 148 9 148C9 147.67 9 147.34 9 147C47.61 146.67 86.22 146.34 126 146C126.33 145.34 126.66 144.68 127 144C137.89 143.67 148.78 143.34 160 143C160.495 107.36 160.495 107.36 161 71C149.78 71 138.56 71 127 71C127 84.53 127 98.06 127 112C126.67 112 126.34 112 126 112C125.67 98.8 125.34 85.6 125 72C124.34 72 123.68 72 123 72C122.67 84.21 122.34 96.42 122 109C121.67 109 121.34 109 121 109C121 95.8 121 82.6 121 69C122.32 68.67 123.64 68.34 125 68C125.495 66.02 125.495 66.02 126 64C130.95 64 135.9 64 141 64C141 53.11 141 42.22 141 31C129.45 31 117.9 31 106 31C106 29.35 106 27.7 106 26C117.55 26 129.1 26 141 26C141 27.32 141 28.64 141 30C142.65 30 144.3 30 146 30C146 41.55 146 53.1 146 65C151.28 65 156.56 65 162 65C162 46.85 162 28.7 162 10C163.65 10 165.3 10 167 10C167 8.35 167 6.7 167 5C167.66 5 168.32 5 169 5C169 3.35 169 1.7 169 0ZM172 6C172 7.32 172 8.64 172 10C170.35 10 168.7 10 167 10C167 53.89 167 97.78 167 143C177.89 143 188.78 143 200 143C200 141.68 200 140.36 200 139C200.99 139 201.98 139 203 139C203 95.11 203 51.22 203 6C192.77 6 182.54 6 172 6Z" fill="#2F0D12"/>
<path d="M127.001 71C138.221 71 149.441 71 161.001 71C161.041 87.81 161.041 87.81 161.05 94.9766C161.055 99.8662 161.063 104.756 161.076 109.646C161.087 113.588 161.093 117.53 161.096 121.472C161.097 122.976 161.101 124.48 161.106 125.984C161.114 128.09 161.115 130.197 161.114 132.304C161.116 133.503 161.119 134.702 161.121 135.937C161.001 139 161.001 139 160.001 143C148.781 143 137.561 143 126.001 143C125.885 118.979 126.334 95.011 127.001 71Z" fill="#F43028"/>
<path d="M167 39C170 40 170 40 171 42C171.99 42.33 172.98 42.66 174 43C174.025 49.7444 174.043 56.4887 174.055 63.2332C174.06 65.5271 174.067 67.8211 174.075 70.115C174.088 73.4139 174.093 76.7128 174.098 80.0117C174.103 81.0359 174.108 82.06 174.113 83.1152C174.113 84.0758 174.113 85.0364 174.114 86.0261C174.116 86.8677 174.118 87.7093 174.12 88.5765C174 91 174 91 173.45 93.639C172.858 96.7428 173.421 98.2929 175 101C176.946 101.591 176.946 101.591 179 102C180.026 103.313 181.027 104.647 182 106C182.99 106.33 183.98 106.66 185 107C185 105.35 185 103.7 185 102C186.32 102 187.64 102 189 102C189.66 100.02 190.32 98.04 191 96C192.32 96 193.64 96 195 96C195 94.02 195 92.04 195 90C193.35 90 191.7 90 190 90C190 88.35 190 86.7 190 85C191.65 85 193.3 85 195 85C194.505 80.05 194.505 80.05 194 75C195.98 74.505 195.98 74.505 198 74C199.041 72.3586 200.045 70.6929 201 69C201.66 69 202.32 69 203 69C203 92.1 203 115.2 203 139C202.01 139 201.02 139 200 139C200 140.32 200 141.64 200 143C189.11 143 178.22 143 167 143C167 108.68 167 74.36 167 39Z" fill="#F78E04"/>
<path d="M3 143C4.98 143 6.96 143 9 143C9 144.65 9 146.3 9 148C73.02 148 137.04 148 203 148C203 146.35 203 144.7 203 143C204.65 143 206.3 143 208 143C208.33 144.65 208.66 146.3 209 148C209.99 148 210.98 148 212 148C211.779 149.897 211.779 149.897 211 152C166.207 174.824 49.5049 166.951 2.70386 152.992C1 152 1 152 0.255127 149.897C0.170935 149.271 0.0867432 148.645 0 148C3.0881 146.235 4.23312 146 8 146C8 145.34 8 144.68 8 144C6.35 144 4.7 144 3 144C3 143.67 3 143.34 3 143Z" fill="#D0D7EC"/>
<path d="M105 25C116.88 25 128.76 25 141 25C141 25.33 141 25.66 141 26C129.45 26 117.9 26 106 26C106 27.65 106 29.3 106 31C117.55 31 129.1 31 141 31C141 41.89 141 52.78 141 64C136.05 64 131.1 64 126 64C125.67 65.65 125.34 67.3 125 69C123.68 69 122.36 69 121 69C121 82.2 121 95.4 121 109C120.01 109 119.02 109 118 109C118 108.01 118 107.02 118 106C113.71 106 109.42 106 105 106C105 81.91 105 57.82 105 33C103.68 33 102.36 33 101 33C101 56.76 101 80.52 101 105C100.67 105 100.34 105 100 105C100 80.91 100 56.82 100 32C101.65 32 103.3 32 105 32C105 29.69 105 27.38 105 25Z" fill="#F53027"/>
<path d="M53 73C53.33 73 53.66 73 54 73C54 74.98 54 76.96 54 79C63.24 79 72.48 79 82 79C82 87.91 82 96.82 82 106C81.34 106 80.68 106 80 106C80 106.99 80 107.98 80 109C79.01 109 78.02 109 77 109C77 120.22 77 131.44 77 143C67.43 143 57.86 143 48 143C48 121.88 48 100.76 48 79C48.99 79 49.98 79 51 79C51 80.98 51 82.96 51 85C51.99 85 52.98 85 54 85C54.33 86.98 54.66 88.96 55 91C55.99 91 56.98 91 58 91C58.33 89.02 58.66 87.04 59 85C69.395 84.505 69.395 84.505 80 84C80 82.68 80 81.36 80 80C71.09 80 62.18 80 53 80C53 77.69 53 75.38 53 73Z" fill="#2188EE"/>
<path d="M3 111C16.2 111 29.4 111 43 111C43 121.56 43 132.12 43 143C29.8 143 16.6 143 3 143C3 132.44 3 121.88 3 111Z" fill="#5432BC"/>
<path d="M127.001 71C127.991 71 128.981 71 130.001 71C130.005 72.196 130.009 73.392 130.013 74.6243C130.035 79.0583 130.089 83.4914 130.153 87.925C130.177 89.8446 130.191 91.7642 130.196 93.6838C130.206 96.4424 130.247 99.1989 130.294 101.957C130.29 102.816 130.286 103.676 130.282 104.561C130.337 106.818 130.427 108.817 131.001 111C133.289 113.036 133.289 113.036 136.001 114C138.313 116.062 138.313 116.062 140.001 118C140.001 118.66 140.001 119.32 140.001 120C140.578 119.34 141.156 118.68 141.751 118C144.001 116 144.001 116 148.001 116C148.661 117.32 149.321 118.64 150.001 120C151.321 120 152.641 120 154.001 120C154.001 119.01 154.001 118.02 154.001 117C152.681 116.67 151.361 116.34 150.001 116C149.671 114.02 149.341 112.04 149.001 110C150.938 109.438 150.938 109.438 153.001 109C153.496 109.495 153.496 109.495 154.001 110C154.125 108.886 154.248 107.773 154.376 106.625C155.001 103 155.001 103 157.001 101C158.321 101 159.641 101 161.001 101C161.026 106.339 161.044 111.677 161.056 117.016C161.061 118.831 161.068 120.647 161.076 122.463C161.088 125.074 161.094 127.686 161.099 130.297C161.104 131.107 161.109 131.918 161.114 132.753C161.115 136.41 160.894 139.428 160.001 143C148.781 143 137.561 143 126.001 143C125.885 118.98 126.327 95.0099 127.001 71Z" fill="#BB161C"/>
<path d="M82 110C93.55 110 105.1 110 117 110C117 120.89 117 131.78 117 143C105.45 143 93.9 143 82 143C82 132.11 82 121.22 82 110Z" fill="#8CB214"/>
<path d="M43 73C45.31 73 47.62 73 50 73C49.8392 73.8548 49.6785 74.7096 49.5128 75.5902C49.006 78.9598 48.8418 82.151 48.7947 85.5562C48.7747 86.837 48.7548 88.1179 48.7342 89.4376C48.7173 90.8204 48.7004 92.2032 48.6836 93.5859C48.663 95.0123 48.642 96.4386 48.6206 97.8649C48.5657 101.603 48.5161 105.342 48.4678 109.08C48.4085 113.574 48.3424 118.068 48.2775 122.561C48.1798 129.374 48.0907 136.187 48 143C57.57 143 67.14 143 77 143C77 131.78 77 120.56 77 109C77.99 109 78.98 109 80 109C80 108.01 80 107.02 80 106C80.66 106 81.32 106 82 106C82 97.09 82 88.18 82 79C72.76 79 63.52 79 54 79C54 77.02 54 75.04 54 73C63.57 73 73.14 73 83 73C83 74.65 83 76.3 83 78C84.65 78 86.3 78 88 78C88 85.92 88 93.84 88 102C87.67 102 87.34 102 87 102C87 94.41 87 86.82 87 79C85.68 79 84.36 79 83 79C83.0105 79.9286 83.0209 80.8572 83.0317 81.814C83.0658 85.2543 83.0909 88.6944 83.1099 92.1348C83.1199 93.6247 83.1336 95.1146 83.1509 96.6045C83.1751 98.7442 83.1865 100.884 83.1953 103.023C83.2058 104.312 83.2163 105.6 83.2271 106.927C83 110 83 110 81 112C81 111.34 81 110.68 81 110C80.01 110 79.02 110 78 110C78.0052 111.055 78.0105 112.11 78.0159 113.197C78.0339 117.098 78.0454 120.998 78.0549 124.899C78.06 126.589 78.0668 128.28 78.0754 129.971C78.0875 132.396 78.0932 134.821 78.0977 137.246C78.1028 138.007 78.108 138.767 78.1133 139.55C78.1135 141.367 78.062 143.184 78 145C77 146 77 146 74.3362 146.12C72.5541 146.117 72.5541 146.117 70.7361 146.114C69.7556 146.114 69.7556 146.114 68.7554 146.114C66.5856 146.113 64.4159 146.105 62.2461 146.098C60.7454 146.096 59.2446 146.094 57.7439 146.093C53.7868 146.09 49.8298 146.08 45.8727 146.069C41.8377 146.058 37.8026 146.054 33.7676 146.049C25.845 146.038 17.9225 146.021 10 146C10 145.01 10 144.02 10 143C20.89 143 31.78 143 43 143C43 132.44 43 121.88 43 111C31.78 111 20.56 111 9 111C9 109.35 9 107.7 9 106C20.22 106 31.44 106 43 106C43 95.11 43 84.22 43 73Z" fill="#1B0C23"/>
<path d="M172 6C182.23 6 192.46 6 203 6C203 10.29 203 14.58 203 19C202.01 19 201.02 19 200 19C199.67 19.99 199.34 20.98 199 22C198.237 22.0619 197.474 22.1238 196.688 22.1875C193.144 23.2588 192.735 24.846 191 28C190.01 28.33 189.02 28.66 188 29C187.67 29.99 187.34 30.98 187 32C185.886 32.1031 184.773 32.2062 183.625 32.3125C182.429 32.5394 181.232 32.7662 180 33C179.34 33.99 178.68 34.98 178 36C174.375 36.6875 174.375 36.6875 171 37C171 37.99 171 38.98 171 40C169.68 39.67 168.36 39.34 167 39C167 29.43 167 19.86 167 10C168.65 10 170.3 10 172 10C172 8.68 172 7.36 172 6Z" fill="#FCE812"/>
<path d="M105 25C116.88 25 128.76 25 141 25C141 25.33 141 25.66 141 26C129.45 26 117.9 26 106 26C106 27.65 106 29.3 106 31C117.55 31 129.1 31 141 31C141 41.89 141 52.78 141 64C140.67 64 140.34 64 140 64C140 53.44 140 42.88 140 32C129.77 32.66 119.54 33.32 109 34C108.908 39.0363 108.828 44.0697 108.78 49.1062C108.76 50.8182 108.733 52.5302 108.698 54.2419C108.65 56.707 108.627 59.1712 108.609 61.6367C108.589 62.3984 108.568 63.16 108.547 63.9447C108.545 69.0195 109.574 71.328 113 75C113.609 77.8945 113.609 77.8945 113.75 80.8125C113.807 81.7883 113.863 82.7641 113.922 83.7695C113.961 84.8736 113.961 84.8736 114 86C115.32 86 116.64 86 118 86C118 85.34 118 84.68 118 84C118.66 84 119.32 84 120 84C120 79.71 120 75.42 120 71C120.33 71 120.66 71 121 71C121 83.54 121 96.08 121 109C120.01 109 119.02 109 118 109C118 108.01 118 107.02 118 106C113.71 106 109.42 106 105 106C105 81.91 105 57.82 105 33C103.68 33 102.36 33 101 33C101 56.76 101 80.52 101 105C100.67 105 100.34 105 100 105C100 80.91 100 56.82 100 32C101.65 32 103.3 32 105 32C105 29.69 105 27.38 105 25Z" fill="#C01A1F"/>
<path d="M49 79C49.66 79 50.32 79 51 79C51 80.98 51 82.96 51 85C51.99 85 52.98 85 54 85C54.33 86.98 54.66 88.96 55 91C55.99 91 56.98 91 58 91C58.33 89.02 58.66 87.04 59 85C65.6 85 72.2 85 79 85C78.34 86.65 77.68 88.3 77 90C75.68 90 74.36 90 73 90C72.67 91.65 72.34 93.3 72 95C73.32 95.33 74.64 95.66 76 96C76 97.65 76 99.3 76 101C75.01 101 74.02 101 73 101C73 103.64 73 106.28 73 109C71.68 109 70.36 109 69 109C69.0413 109.784 69.0825 110.567 69.125 111.375C69 114 69 114 67 116C66.01 116 65.02 116 64 116C64 117.32 64 118.64 64 120C61.36 119.67 58.72 119.34 56 119C55.67 116.03 55.34 113.06 55 110C54.34 110 53.68 110 53 110C52.67 110.66 52.34 111.32 52 112C51.01 111.67 50.02 111.34 49 111C49 100.44 49 89.88 49 79Z" fill="#4ACDFC"/>
<path d="M169 0C180.22 0 191.44 0 203 0C203 1.65 203 3.3 203 5C204.98 5 206.96 5 209 5C209 50.54 209 96.08 209 143C208.67 143 208.34 143 208 143C208 97.79 208 52.58 208 6C206.68 6 205.36 6 204 6C204 49.89 204 93.78 204 139C203.67 139 203.34 139 203 139C203 95.11 203 51.22 203 6C192.77 6 182.54 6 172 6C172 7.32 172 8.64 172 10C170.35 10 168.7 10 167 10C167 8.35 167 6.7 167 5C167.66 5 168.32 5 169 5C169 3.35 169 1.7 169 0Z" fill="#7B5835"/>
<path d="M78 110C78.99 110 79.98 110 81 110C82.4868 112.974 82.1111 115.663 82.0977 118.977C82.0952 120.23 82.0927 121.484 82.0901 122.776C82.081 124.376 82.0719 125.976 82.0625 127.625C82.0419 132.699 82.0213 137.773 82 143C93.55 143 105.1 143 117 143C117 132.11 117 121.22 117 110C117.99 110.33 118.98 110.66 120 111C119.67 111.99 119.34 112.98 119 114C118.67 124.23 118.34 134.46 118 145C145.72 145.33 173.44 145.66 202 146C202 146.33 202 146.66 202 147C138.31 147 74.62 147 9 147C9.33 145.68 9.66 144.36 10 143C10 143.99 10 144.98 10 146C32.11 145.67 54.22 145.34 77 145C77.33 133.45 77.66 121.9 78 110Z" fill="#160709"/>
<path d="M204 6C205.32 6 206.64 6 208 6C208 51.21 208 96.42 208 143C207.67 143 207.34 143 207 143C206.67 133.43 206.34 123.86 206 114C205.34 114.99 204.68 115.98 204 117C204 80.37 204 43.74 204 6Z" fill="#130406"/>
<path d="M84 111C94.56 111 105.12 111 116 111C116 112.65 116 114.3 116 116C115.01 116.495 115.01 116.495 114 117C113.67 117.99 113.34 118.98 113 120C111.35 120 109.7 120 108 120C107.67 121.65 107.34 123.3 107 125C105.68 125 104.36 125 103 125C102.67 126.32 102.34 127.64 102 129C97.2257 129.597 94.7151 129.195 90.75 126.375C87.4088 123.617 85.3944 121.183 84 117C84 115.02 84 113.04 84 111Z" fill="#C8E42D"/>
<path d="M14.6838 112.886C15.8516 112.892 17.0195 112.897 18.2227 112.902C19.4827 112.906 20.7428 112.909 22.041 112.912C23.3815 112.92 24.722 112.929 26.0625 112.938C27.4069 112.943 28.7513 112.947 30.0957 112.951C33.3972 112.963 36.6986 112.979 40 113C38.7812 120.625 38.7812 120.625 37 123C35 123.667 33 124.333 31 125C30.34 126.32 29.68 127.64 29 129C26.03 129 23.06 129 20 129C19.67 127.68 19.34 126.36 19 125C18.01 124.67 17.02 124.34 16 124C16 123.01 16 122.02 16 121C15.3606 120.773 14.7212 120.546 14.0625 120.312C12 119 12 119 11.1875 116.438C11.1256 115.633 11.0637 114.829 11 114C12 113 12 113 14.6838 112.886Z" fill="#7D5CF4"/>
<path d="M54 73C63.57 73 73.14 73 83 73C83 74.65 83 76.3 83 78C84.65 78 86.3 78 88 78C88 85.92 88 93.84 88 102C87.67 102 87.34 102 87 102C87 94.41 87 86.82 87 79C85.68 79 84.36 79 83 79C83.0105 79.9286 83.0209 80.8572 83.0317 81.814C83.0658 85.2543 83.0909 88.6944 83.1099 92.1348C83.1199 93.6247 83.1336 95.1146 83.1509 96.6045C83.1751 98.7442 83.1865 100.884 83.1953 103.023C83.2058 104.312 83.2163 105.6 83.2271 106.927C83 110 83 110 81 112C81 111.34 81 110.68 81 110C80.01 110 79.02 110 78 110C78 120.89 78 131.78 78 143C77.67 143 77.34 143 77 143C77 131.78 77 120.56 77 109C77.99 109 78.98 109 80 109C80 108.01 80 107.02 80 106C80.66 106 81.32 106 82 106C82 97.09 82 88.18 82 79C72.76 79 63.52 79 54 79C54 77.02 54 75.04 54 73Z" fill="#261824"/>
<path d="M105 25C116.88 25 128.76 25 141 25C141 25.33 141 25.66 141 26C129.45 26 117.9 26 106 26C106 27.65 106 29.3 106 31C117.55 31 129.1 31 141 31C141 41.89 141 52.78 141 64C140.67 64 140.34 64 140 64C140 53.44 140 42.88 140 32C123.665 32.495 123.665 32.495 107 33C106.67 56.76 106.34 80.52 106 105C109.63 105 113.26 105 117 105C117 105.33 117 105.66 117 106C113.04 106 109.08 106 105 106C105 81.91 105 57.82 105 33C103.68 33 102.36 33 101 33C101 56.76 101 80.52 101 105C100.67 105 100.34 105 100 105C100 80.91 100 56.82 100 32C101.65 32 103.3 32 105 32C105 29.69 105 27.38 105 25Z" fill="#782D32"/>
<path d="M172 6C182.23 6 192.46 6 203 6C203 7.98 203 9.96 203 12C195.08 12 187.16 12 179 12C178.67 14.31 178.34 16.62 178 19C175.562 21.4375 175.562 21.4375 173 23C172.34 23 171.68 23 171 23C170.973 20.9167 170.954 18.8334 170.938 16.75C170.926 15.5898 170.914 14.4297 170.902 13.2344C171 10 171 10 172 6Z" fill="#F8EC3D"/>
<path d="M53 73C53.33 73 53.66 73 54 73C54 74.98 54 76.96 54 79C63.24 79 72.48 79 82 79C82 87.58 82 96.16 82 105C80.35 105.66 78.7 106.32 77 107C76.67 107.99 76.34 108.98 76 110C74.68 109.67 73.36 109.34 72 109C72.33 106.36 72.66 103.72 73 101C73.99 101 74.98 101 76 101C75.505 98.525 75.505 98.525 75 96C74.01 95.67 73.02 95.34 72 95C72.33 93.35 72.66 91.7 73 90C73.5981 89.9381 74.1963 89.8762 74.8125 89.8125C77.9441 88.6493 78.6186 86.97 80 84C80 82.68 80 81.36 80 80C71.09 80 62.18 80 53 80C53 77.69 53 75.38 53 73Z" fill="#3AADE6"/>
<path d="M169 0C180.22 0 191.44 0 203 0C203 1.65 203 3.3 203 5C192.77 5 182.54 5 172 5C172 6.65 172 8.3 172 10C170.35 10 168.7 10 167 10C167 8.35 167 6.7 167 5C167.66 5 168.32 5 169 5C169 3.35 169 1.7 169 0Z" fill="#130607"/>
<path d="M51 79C60.57 79.33 70.14 79.66 80 80C80.33 81.32 80.66 82.64 81 84C80 85 80 85 77.9587 85.1135C77.0842 85.1083 76.2096 85.1031 75.3086 85.0977C74.3644 85.0944 73.4201 85.0912 72.4473 85.0879C71.454 85.0795 70.4608 85.0711 69.4375 85.0625C68.4404 85.058 67.4433 85.0535 66.416 85.0488C63.944 85.037 61.472 85.0205 59 85C58.67 86.98 58.34 88.96 58 91C57.01 91 56.02 91 55 91C54.67 89.02 54.34 87.04 54 85C53.01 85 52.02 85 51 85C51 83.02 51 81.04 51 79Z" fill="#CFF4F3"/>
<path d="M106 26C117.55 26 129.1 26 141 26C141 27.65 141 29.3 141 31C129.45 31 117.9 31 106 31C106 29.35 106 27.7 106 26Z" fill="#1A0309"/>
<path d="M3 111C4.65 111 6.3 111 8 111C8 121.56 8 132.12 8 143C6.35 143 4.7 143 3 143C3 132.44 3 121.88 3 111Z" fill="#1C0A1E"/>
<path d="M131 73C140.24 73 149.48 73 159 73C159 74.32 159 75.64 159 77C152.4 77 145.8 77 139 77C139 78.98 139 80.96 139 83C138.34 83.66 137.68 84.32 137 85C136.01 85 135.02 85 134 85C133.876 84.0306 133.752 83.0612 133.625 82.0625C133.419 81.0519 133.213 80.0412 133 79C132.34 78.67 131.68 78.34 131 78C131 76.35 131 74.7 131 73Z" fill="#FD826E"/>
<path d="M83 79C84.32 79 85.64 79 87 79C87.33 88.24 87.66 97.48 88 107C91.96 107 95.92 107 100 107C99.67 107.66 99.34 108.32 99 109C93.39 109 87.78 109 82 109C82.33 99.1 82.66 89.2 83 79Z" fill="#1F0914"/>
<path d="M48 79C48.33 79 48.66 79 49 79C49 99.79 49 120.58 49 142C57.91 142 66.82 142 76 142C75.9768 139.497 75.9536 136.993 75.9297 134.414C75.9141 131.995 75.9019 129.576 75.8901 127.156C75.8801 125.472 75.8664 123.788 75.8491 122.104C75.8249 119.687 75.8135 117.269 75.8047 114.852C75.7944 114.096 75.784 113.341 75.7734 112.563C75.773 110.707 75.8778 108.852 76 107C76.66 106.34 77.32 105.68 78 105C80.125 105.375 80.125 105.375 82 106C81.34 106 80.68 106 80 106C80 106.99 80 107.98 80 109C79.01 109 78.02 109 77 109C77 120.22 77 131.44 77 143C67.43 143 57.86 143 48 143C48 121.88 48 100.76 48 79Z" fill="#317FCA"/>
<path d="M109 34C118.57 34 128.14 34 138 34C138 34.99 138 35.98 138 37C131.07 37 124.14 37 117 37C117 38.65 117 40.3 117 42C115.35 42 113.7 42 112 42C112 41.34 112 40.68 112 40C111.01 40 110.02 40 109 40C109 38.02 109 36.04 109 34Z" fill="#FD9E8D"/>
<path d="M85 112C94.57 112 104.14 112 114 112C114 113.32 114 114.64 114 116C104.43 116 94.86 116 85 116C85 114.68 85 113.36 85 112Z" fill="#E9F981"/>
<path d="M9 106C20.22 106 31.44 106 43 106C43 106.33 43 106.66 43 107C41.02 107.33 39.04 107.66 37 108C37.33 108.66 37.66 109.32 38 110C28.43 110 18.86 110 9 110C9 108.68 9 107.36 9 106Z" fill="#1A0517"/>
<path d="M69 111C69.99 111 70.98 111 72 111C73.3544 113.709 73.065 116.009 73 119C72.34 119 71.68 119 71 119C71 120.65 71 122.3 71 124C71.66 124 72.32 124 73 124C72.67 126.64 72.34 129.28 72 132C71.34 132 70.68 132 70 132C69.67 129.69 69.34 127.38 69 125C68.01 125 67.02 125 66 125C66 123.02 66 121.04 66 119C65.34 119 64.68 119 64 119C64 118.01 64 117.02 64 116C64.6394 115.732 65.2788 115.464 65.9375 115.188C68.3313 114.113 68.3313 114.113 69 111Z" fill="#23A1F8"/>
<path d="M130 71C140.23 71 150.46 71 161 71C161 80.9 161 90.8 161 101C160.34 100.67 159.68 100.34 159 100C159 91.09 159 82.18 159 73C149.43 73 139.86 73 130 73C130 72.34 130 71.68 130 71Z" fill="#D93329"/>
<path d="M202 0C202.495 1.98 202.495 1.98 203 4C193.1 4 183.2 4 173 4C173 3.34 173 2.68 173 2C172.01 2.33 171.02 2.66 170 3C170 2.34 170 1.68 170 1C180.56 0.67 191.12 0.34 202 0Z" fill="#240D12"/>
<path d="M110.16 31.9023C112.092 31.9197 112.092 31.9197 114.063 31.9375C115.353 31.9465 116.643 31.9555 117.973 31.9648C118.972 31.9764 119.971 31.988 121 32C121 32.33 121 32.66 121 33C115.06 33.495 115.06 33.495 109 34C108.975 39.0903 108.957 44.1806 108.945 49.271C108.94 51.0034 108.933 52.7358 108.925 54.4683C108.912 56.9554 108.907 59.4425 108.902 61.9297C108.897 62.7068 108.892 63.484 108.887 64.2846C108.797 68.2717 108.797 68.2717 110 72C108.68 71.67 107.36 71.34 106 71C105.975 65.6065 105.957 60.2131 105.945 54.8196C105.94 52.9833 105.933 51.147 105.925 49.3108C105.912 46.6772 105.907 44.0437 105.902 41.4102C105.897 40.5841 105.892 39.7581 105.887 38.907C105.887 36.9376 105.938 34.9684 106 33C107 32 107 32 110.16 31.9023Z" fill="#E0241E"/>
<path d="M140 32.0001C140 33.9801 140 35.9601 140 38.0001C139.01 38.0001 138.02 38.0001 137 38.0001C137 38.9901 137 39.9801 137 41.0001C136.01 41.0001 135.02 41.0001 134 41.0001C134 40.0101 134 39.0201 134 38.0001C128.39 38.0001 122.78 38.0001 117 38.0001C117 37.6701 117 37.3401 117 37.0001C123.93 37.0001 130.86 37.0001 138 37.0001C138 36.0101 138 35.0201 138 34.0001C128.43 34.0001 118.86 34.0001 109 34.0001C109 33.6701 109 33.3401 109 33.0001C119.338 31.8445 129.616 31.9023 140 32.0001Z" fill="#F0463C"/>
<path d="M201 69C201.66 69 202.32 69 203 69C203.105 74.7859 202.993 80.2931 202 86C200.667 85 199.333 84 198 83C197.257 82.5462 196.515 82.0925 195.75 81.625C194 80 194 80 193.75 77.3125C193.833 76.5494 193.915 75.7862 194 75C194.598 74.9381 195.196 74.8762 195.812 74.8125C198.858 73.6815 199.445 71.7568 201 69Z" fill="#F77D01"/>
<path d="M12 113C21.24 113 30.48 113 40 113C40 113.99 40 114.98 40 116C30.76 116 21.52 116 12 116C12 115.01 12 114.02 12 113Z" fill="#DACAFC"/>
<path d="M55 75C63.91 75 72.82 75 82 75C82 75.99 82 76.98 82 78C73.09 78 64.18 78 55 78C55 77.01 55 76.02 55 75Z" fill="#1F0618"/>
<path d="M82 79C82.33 79 82.66 79 83 79C83.0494 83.3782 83.0857 87.7563 83.1099 92.1348C83.1199 93.6247 83.1336 95.1146 83.1509 96.6045C83.1751 98.7442 83.1865 100.884 83.1953 103.023C83.2058 104.312 83.2163 105.6 83.2271 106.927C83 110 83 110 81 112C81 111.34 81 110.68 81 110C80.01 110 79.02 110 78 110C78 120.89 78 131.78 78 143C77.67 143 77.34 143 77 143C77 131.78 77 120.56 77 109C77.99 109 78.98 109 80 109C80 108.01 80 107.02 80 106C80.66 106 81.32 106 82 106C82 97.09 82 88.18 82 79Z" fill="#1B325A"/>
<path d="M163 11C163.99 11 164.98 11 166 11C166.369 30.9681 166.369 30.9681 164 40C163.67 40 163.34 40 163 40C163 30.43 163 20.86 163 11Z" fill="#210C15"/>
<path d="M83 79C84.32 79 85.64 79 87 79C87 84.61 87 90.22 87 96C86.67 96 86.34 96 86 96C85.67 93.36 85.34 90.72 85 88C84.67 93.94 84.34 99.88 84 106C83.67 106 83.34 106 83 106C83 97.09 83 88.18 83 79Z" fill="#130410"/>
<path d="M108 120C108.66 120.33 109.32 120.66 110 121C110 124.96 110 128.92 110 133C107.69 133 105.38 133 103 133C103 130.36 103 127.72 103 125C104.32 125 105.64 125 107 125C107.33 123.35 107.66 121.7 108 120Z" fill="#9CC514"/>
<path d="M171 11C172.32 11 173.64 11 175 11C175 12.65 175 14.3 175 16C176.32 16.33 177.64 16.66 179 17C174.375 21.875 174.375 21.875 171 23C171 19.04 171 15.08 171 11Z" fill="#FEF742"/>
<path d="M10 130C10.33 130 10.66 130 11 130C11.33 133.3 11.66 136.6 12 140C18.6 140 25.2 140 32 140C32 140.66 32 141.32 32 142C24.41 142 16.82 142 9 142C9 131 9 131 10 130Z" fill="#4F2CBE"/>
<path d="M49 79C49.66 79 50.32 79 51 79C51.196 80.7491 51.3815 82.4993 51.5625 84.25C51.6669 85.2245 51.7713 86.1991 51.8789 87.2031C51.9931 89.8407 51.6414 91.4842 51 94C50.7761 96.7532 50.5861 99.4931 50.4375 102.25C50.3943 102.995 50.3511 103.74 50.3066 104.508C50.201 106.338 50.1001 108.169 50 110C50.99 110 51.98 110 53 110C52.67 110.66 52.34 111.32 52 112C51.01 111.67 50.02 111.34 49 111C49 100.44 49 89.88 49 79Z" fill="#31C0F4"/>
<path d="M51 84C60.57 84 70.14 84 80 84C80 84.33 80 84.66 80 85C73.07 85 66.14 85 59 85C58.67 86.98 58.34 88.96 58 91C57.01 91 56.02 91 55 91C54.67 89.02 54.34 87.04 54 85C53.01 84.67 52.02 84.34 51 84Z" fill="#9CEEF8"/>
<path d="M176 9C184.58 9 193.16 9 202 9C202 9.66 202 10.32 202 11C193.42 11.33 184.84 11.66 176 12C176 11.01 176 10.02 176 9Z" fill="#FDF995"/>
<path d="M12 119C13.98 119.99 13.98 119.99 16 121C16 121.99 16 122.98 16 124C17.32 124.33 18.64 124.66 20 125C20 126.32 20 127.64 20 129C18.68 128.67 17.36 128.34 16 128C15.67 128.66 15.34 129.32 15 130C14.01 130 13.02 130 12 130C12 126.37 12 122.74 12 119Z" fill="#6742E5"/>
<path d="M9 112C9.99 112 10.98 112 12 112C12.33 118.27 12.66 124.54 13 131C11.68 131 10.36 131 9 131C9 124.73 9 118.46 9 112Z" fill="#542ED2"/>
<path d="M69 109C71.31 109.33 73.62 109.66 76 110C76 113.96 76 117.92 76 122C75.34 121.67 74.68 121.34 74 121C73.67 121.99 73.34 122.98 73 124C72.34 124 71.68 124 71 124C71 122.35 71 120.7 71 119C71.66 119 72.32 119 73 119C72.67 116.36 72.34 113.72 72 111C71.01 111 70.02 111 69 111C69 110.34 69 109.68 69 109Z" fill="#148DED"/>
<path d="M85 112C90.94 112 96.88 112 103 112C103 112.66 103 113.32 103 114C94.09 114.99 94.09 114.99 85 116C85 114.68 85 113.36 85 112Z" fill="#F0FDA0"/>
<path d="M167 39C170 40 170 40 171 42C171.99 42.33 172.98 42.66 174 43C174 46.96 174 50.92 174 55C173.34 55 172.68 55 172 55C169.4 51.0997 169.849 47.5257 170 43C169.34 43 168.68 43 168 43C167.67 41.68 167.34 40.36 167 39Z" fill="#F7A901"/>
<path d="M195 81C195.66 81.33 196.32 81.66 197 82C197.054 83.6038 197.093 85.2081 197.125 86.8125C197.148 87.7058 197.171 88.5991 197.195 89.5195C197 92 197 92 195 95C195 93.35 195 91.7 195 90C193.35 90 191.7 90 190 90C190 88.35 190 86.7 190 85C191.65 85 193.3 85 195 85C195 83.68 195 82.36 195 81Z" fill="#FCAC00"/>
<path d="M149 112C149.33 113.32 149.66 114.64 150 116C151.65 116.33 153.3 116.66 155 117C154.67 118.32 154.34 119.64 154 121C152.35 120.67 150.7 120.34 149 120C148.67 118.68 148.34 117.36 148 116C145.133 116.573 144.139 116.861 142 119C142.33 117.68 142.66 116.36 143 115C144.98 115 146.96 115 149 115C149 114.01 149 113.02 149 112ZM140 119C142 120 142 120 142 120L140 119Z" fill="#DB1C1D"/>
<path d="M138 57C138.66 57.33 139.32 57.66 140 58C140 59.98 140 61.96 140 64C136.04 64 132.08 64 128 64C128.33 62.68 128.66 61.36 129 60C131.97 60.33 134.94 60.66 138 61C138 59.68 138 58.36 138 57Z" fill="#D71E19"/>
<path d="M135 123C137.169 123.506 139 124 141 125C141 126.98 141 128.96 141 131C140.34 131 139.68 131 139 131C139 131.66 139 132.32 139 133C137.68 133 136.36 133 135 133C135 132.01 135 131.02 135 130C135.66 130 136.32 130 137 130C137 128.68 137 127.36 137 126C136.01 126 135.02 126 134 126C134.33 125.01 134.66 124.02 135 123Z" fill="#E11E1C"/>
<path d="M67 120C67.99 120 68.98 120 70 120C70.33 121.32 70.66 122.64 71 124C71.66 124 72.32 124 73 124C72.67 126.64 72.34 129.28 72 132C71.34 132 70.68 132 70 132C69.67 129.69 69.34 127.38 69 125C68.01 125 67.02 125 66 125C66.33 123.35 66.66 121.7 67 120Z" fill="#37BAFC"/>
<path d="M131 77C133.64 77 136.28 77 139 77C139.125 79.875 139.125 79.875 139 83C138.34 83.66 137.68 84.32 137 85C136.01 85 135.02 85 134 85C133.814 83.5769 133.814 83.5769 133.625 82.125C133.283 78.9133 133.283 78.9133 131 77Z" fill="#FB6755"/>
<path d="M148 124C150.31 124.66 152.62 125.32 155 126C154.67 126.99 154.34 127.98 154 129C153.01 129 152.02 129 151 129C151 129.99 151 130.98 151 132C150.01 132 149.02 132 148 132C147.619 129.674 147.287 127.339 147 125C147.33 124.67 147.66 124.34 148 124Z" fill="#EE2B22"/>
<path d="M109 40C109.99 40 110.98 40 112 40C112 40.66 112 41.32 112 42C113.32 42.33 114.64 42.66 116 43C114.715 45.867 113.429 47.9761 111 50C110.34 50 109.68 50 109 50C109 46.7 109 43.4 109 40Z" fill="#FA503B"/>
<path d="M183 47C185.625 47.375 185.625 47.375 188 48C188 48.99 188 49.98 188 51C186.25 52.75 186.25 52.75 184 54C181.75 53.6875 181.75 53.6875 180 53C180.573 50.1328 180.861 49.1385 183 47Z" fill="#FDE633"/>
<path d="M56 124C59.875 124.875 59.875 124.875 61 126C61.0406 127.666 61.0427 129.334 61 131C59.02 131.33 57.04 131.66 55 132C55.33 129.36 55.66 126.72 56 124Z" fill="#30A0FA"/>
<path d="M187 116C189.475 116.495 189.475 116.495 192 117C192 118.98 192 120.96 192 123C190.35 123.33 188.7 123.66 187 124C187 121.36 187 118.72 187 116Z" fill="#FDDA01"/>
<path d="M108 106C111.3 106 114.6 106 118 106C118 106.99 118 107.98 118 109C119.32 109.33 120.64 109.66 122 110C115.07 109.505 115.07 109.505 108 109C108 108.01 108 107.02 108 106Z" fill="#2D0A0B"/>
<path d="M179.563 91.9375C180.769 91.9684 180.769 91.9684 182 92C182 93.98 182 95.96 182 98C180.02 98 178.04 98 176 98C175.957 96.3339 175.959 94.6662 176 93C177 92 177 92 179.563 91.9375Z" fill="#FCA206"/>
<path d="M51 81C56.94 81 62.88 81 69 81C69 81.33 69 81.66 69 82C65.7 82 62.4 82 59 82C59 82.66 59 83.32 59 84C56.36 84 53.72 84 51 84C51 83.01 51 82.02 51 81Z" fill="#E7FDFC"/>
<path d="M126 64C130.62 64 135.24 64 140 64C140 64.33 140 64.66 140 65C139.252 65.1212 138.505 65.2423 137.734 65.3672C136.75 65.5348 135.765 65.7023 134.75 65.875C133.775 66.0374 132.801 66.1998 131.797 66.3672C129.227 66.9486 127.279 67.7084 125 69C125.33 67.35 125.66 65.7 126 64Z" fill="#57090B"/>
<path d="M117 37C123.93 37 130.86 37 138 37C137.67 38.32 137.34 39.64 137 41C136.01 41 135.02 41 134 41C134 40.01 134 39.02 134 38C128.39 38 122.78 38 117 38C117 37.67 117 37.34 117 37Z" fill="#F55D4D"/>
<path d="M200 19C200.99 19 201.98 19 203 19C203.054 20.4579 203.093 21.9164 203.125 23.375C203.149 24.1871 203.172 24.9992 203.196 25.8359C203 28 203 28 201 30C199.798 27.5945 199.9 26.05 199.938 23.375C199.947 22.5577 199.956 21.7405 199.965 20.8984C199.977 20.272 199.988 19.6455 200 19Z" fill="#F6AE00"/>
<path d="M177 118C178.65 118 180.3 118 182 118C182 119.65 182 121.3 182 123C180.062 123.562 180.062 123.562 178 124C177 123 177 123 176.938 120.438C176.958 119.633 176.979 118.829 177 118Z" fill="#FEC400"/>
<path d="M117 37C117 38.65 117 40.3 117 42C115.35 42 113.7 42 112 42C112 41.34 112 40.68 112 40C111.01 39.67 110.02 39.34 109 39C112.088 37.2354 113.233 37 117 37Z" fill="#FD8975"/>
<path d="M191 103C192.65 103.33 194.3 103.66 196 104C195.67 105.32 195.34 106.64 195 108C193.35 107.67 191.7 107.34 190 107C190.33 105.68 190.66 104.36 191 103Z" fill="#FDC200"/>
<path d="M118 84C118.66 84 119.32 84 120 84C120 86.31 120 88.62 120 91C118.68 91 117.36 91 116 91C116 89.35 116 87.7 116 86C116.66 86 117.32 86 118 86C118 85.34 118 84.68 118 84Z" fill="#DD1F20"/>
<path d="M18 132C19.65 132 21.3 132 23 132C23 133.65 23 135.3 23 137C21.35 137 19.7 137 18 137C18 135.35 18 133.7 18 132Z" fill="#7250EC"/>
<path d="M175 107C176.65 107 178.3 107 180 107C180 108.65 180 110.3 180 112C178.35 112 176.7 112 175 112C175 110.35 175 108.7 175 107Z" fill="#FED100"/>
<path d="M192 39C192.99 39 193.98 39 195 39C194.34 40.98 193.68 42.96 193 45C191.68 45 190.36 45 189 45C189 43.68 189 42.36 189 41C189.99 41 190.98 41 192 41C192 40.34 192 39.68 192 39Z" fill="#FCE025"/>
<path d="M203 12C203 14.31 203 16.62 203 19C202.01 19 201.02 19 200 19C200 17.35 200 15.7 200 14C198.35 14 196.7 14 195 14C195 13.67 195 13.34 195 13C200.75 12 200.75 12 203 12Z" fill="#F6D50B"/>
<path d="M31 130C32.65 130.33 34.3 130.66 36 131C35.67 132.32 35.34 133.64 35 135C33.68 134.67 32.36 134.34 31 134C31 132.68 31 131.36 31 130Z" fill="#6B45E2"/>
<path d="M130 73C130.33 73 130.66 73 131 73C131 74.65 131 76.3 131 78C131.99 78.33 132.98 78.66 134 79C134.188 81.875 134.188 81.875 134 85C133.01 85.66 132.02 86.32 131 87C131.33 84.36 131.66 81.72 132 79C131.34 79 130.68 79 130 79C130 77.02 130 75.04 130 73Z" fill="#EF3A34"/>
<path d="M200 139C201.32 139 202.64 139 204 139C204 139.66 204 140.32 204 141C204.66 141.66 205.32 142.32 206 143C205.01 143 204.02 143 203 143C202.67 144.32 202.34 145.64 202 147C202 145.68 202 144.36 202 143C201.34 143 200.68 143 200 143C200 141.68 200 140.36 200 139Z" fill="#401511"/>
<path d="M109 129C109 130.32 109 131.64 109 133C107.02 133 105.04 133 103 133C103 132.01 103 131.02 103 130C106 129 106 129 109 129Z" fill="#C5E61A"/>
<path d="M33 123C33.99 123.33 34.98 123.66 36 124C35.34 124.66 34.68 125.32 34 126C33.34 126 32.68 126 32 126C31.01 127.98 30.02 129.96 29 132C28.34 132 27.68 132 27 132C27 131.01 27 130.02 27 129C27.66 128.67 28.32 128.34 29 128C29.33 127.34 29.66 126.68 30 126C31 124 31 124 33 123Z" fill="#633EE0"/>
<path d="M190 85C191.32 85 192.64 85 194 85C194.33 85.99 194.66 86.98 195 88C194.67 88.66 194.34 89.32 194 90C192.68 90 191.36 90 190 90C190 88.35 190 86.7 190 85Z" fill="#F99E00"/>
<path d="M174 9C174.66 9 175.32 9 176 9C176 9.99 176 10.98 176 12C176.99 12 177.98 12 179 12C179 13.32 179 14.64 179 16C177.68 16 176.36 16 175 16C174.67 13.69 174.34 11.38 174 9Z" fill="#FDF97D"/>
<path d="M150 117C151.65 117 153.3 117 155 117C154.67 118.32 154.34 119.64 154 121C152.68 121 151.36 121 150 121C150 119.68 150 118.36 150 117Z" fill="#F02A1F"/>
<path d="M174 97C176.97 97.495 176.97 97.495 180 98C180 99.65 180 101.3 180 103C177.562 102.25 177.562 102.25 175 101C174.188 98.875 174.188 98.875 174 97Z" fill="#FEC707"/>
<path d="M174 11C174.33 11 174.66 11 175 11C175 12.65 175 14.3 175 16C176.98 16.495 176.98 16.495 179 17C178.67 17.66 178.34 18.32 178 19C176.68 19 175.36 19 174 19C174 16.36 174 13.72 174 11Z" fill="#FDF65D"/>
</svg>
