<svg width="131" height="161" viewBox="0 0 131 161" fill="none" xmlns="http://www.w3.org/2000/svg">
<path d="M17 0C48.68 0 80.36 0 113 0C113 1.32 113 2.64 113 4C114.65 4.33 116.3 4.66 118 5C118 9.29 118 13.58 118 18C116.68 18 115.36 18 114 18C114 19.65 114 21.3 114 23C113.01 23 112.02 23 111 23C111 30.92 111 38.84 111 47C110.01 47 109.02 47 108 47C108 49.64 108 52.28 108 55C107.361 55.2681 106.721 55.5362 106.062 55.8125C103.669 56.8867 103.669 56.8867 103 60C102.01 60.495 102.01 60.495 101 61C100.67 61.99 100.34 62.98 100 64C97 66 97 66 94 66C93.67 67.65 93.34 69.3 93 71C90.69 71 88.38 71 86 71C86 71.99 86 72.98 86 74C84.125 76.1875 84.125 76.1875 82 78C81.34 78 80.68 78 80 78C80 79.65 80 81.3 80 83C80.99 83 81.98 83 83 83C83 83.66 83 84.32 83 85C83.99 85 84.98 85 86 85C86 86.32 86 87.64 86 89C88.64 89 91.28 89 94 89C94 90.32 94 91.64 94 93C94.99 93 95.98 93 97 93C97 93.66 97 94.32 97 95C97.99 95 98.98 95 100 95C100.124 95.6394 100.248 96.2788 100.375 96.9375C100.581 97.6181 100.787 98.2987 101 99C101.66 99.33 102.32 99.66 103 100C103 100.99 103 101.98 103 103C104.65 103 106.3 103 108 103C108 105.64 108 108.28 108 111C109.98 111.495 109.98 111.495 112 112C112 117.94 112 123.88 112 130C112.99 130 113.98 130 115 130C115 131.98 115 133.96 115 136C115.99 136 116.98 136 118 136C118 139.63 118 143.26 118 147C116.35 147 114.7 147 113 147C113 148.32 113 149.64 113 151C81.65 151 50.3 151 18 151C18 150.34 18 149.68 18 149C17.01 149 16.02 149 15 149C15 148.34 15 147.68 15 147C13.68 147 12.36 147 11 147C11 143.37 11 139.74 11 136C12.32 136 13.64 136 15 136C15 134.02 15 132.04 15 130C15.66 130 16.32 130 17 130C17 124.06 17 118.12 17 112C18.65 112 20.3 112 22 112C22 117.61 22 123.22 22 129C23.65 129 25.3 129 27 129C27 126.03 27 123.06 27 120C30.96 119.01 30.96 119.01 35 118C35 121.63 35 125.26 35 129C37.64 129 40.28 129 43 129C43.33 125.7 43.66 122.4 44 119C43.01 119 42.02 119 41 119C41 117.68 41 116.36 41 115C42.32 115 43.64 115 45 115C45 114.01 45 113.02 45 112C47.64 112 50.28 112 53 112C53 111.01 53 110.02 53 109C54.32 109 55.64 109 57 109C57.495 107.02 57.495 107.02 58 105C58.99 105 59.98 105 61 105C61 98.73 61 92.46 61 86C60.34 86 59.68 86 59 86C58.505 82.04 58.505 82.04 58 78C57.9613 78.9397 57.9613 78.9397 57.9219 79.8984C57.8368 81.1243 57.8368 81.1243 57.75 82.375C57.7036 83.1871 57.6572 83.9992 57.6094 84.8359C57 87 57 87 54.9531 88.2891C54.3086 88.5237 53.6641 88.7583 53 89C53 89.99 53 90.98 53 92C52.01 92 51.02 92 50 92C50 91.01 50 90.02 50 89C48.68 89 47.36 89 46 89C46 90.65 46 92.3 46 94C43.03 94 40.06 94 37 94C37 94.99 37 95.98 37 97C35.68 97 34.36 97 33 97C33 98.32 33 99.64 33 101C32.01 101 31.02 101 30 101C30 101.99 30 102.98 30 104C28.68 104 27.36 104 26 104C26 105.98 26 107.96 26 110C24.02 110.495 24.02 110.495 22 111C22 108.69 22 106.38 22 104C23.485 103.505 23.485 103.505 25 103C25.495 102.01 25.495 102.01 26 101C26.99 101 27.98 101 29 101C29 99.35 29 97.7 29 96C29.99 96 30.98 96 32 96C32 95.01 32 94.02 32 93C32.99 93 33.98 93 35 93C35 91.68 35 90.36 35 89C37.97 89 40.94 89 44 89C44 88.01 44 87.02 44 86C44.66 86 45.32 86 46 86C46 85.01 46 84.02 46 83C46.99 83 47.98 83 49 83C49 81.02 49 79.04 49 77C48.01 77 47.02 77 46 77C46 76.01 46 75.02 46 74C45.01 74 44.02 74 43 74C43 73.01 43 72.02 43 71C40.69 71 38.38 71 36 71C35.7319 70.4019 35.4638 69.8037 35.1875 69.1875C33.2884 65.6891 31.7996 64.2665 28 63C28 61.68 28 60.36 28 59C27.01 59 26.02 59 25 59C25 58.01 25 57.02 25 56C23.68 55.67 22.36 55.34 21 55C21 52.03 21 49.06 21 46C19.68 46 18.36 46 17 46C17 38.41 17 30.82 17 23C16.34 23 15.68 23 15 23C15 21.35 15 19.7 15 18C14.01 18 13.02 18 12 18C12 13.38 12 8.76 12 4C13.65 4 15.3 4 17 4C17 2.68 17 1.36 17 0Z" fill="#CBCCE3"/>
<path d="M17 0C48.68 0 80.36 0 113 0C113 1.32 113 2.64 113 4C114.65 4.33 116.3 4.66 118 5C118 9.29 118 13.58 118 18C116.68 18 115.36 18 114 18C114 19.65 114 21.3 114 23C113.01 23 112.02 23 111 23C111 30.92 111 38.84 111 47C110.01 47 109.02 47 108 47C108 49.64 108 52.28 108 55C107.361 55.2681 106.721 55.5362 106.062 55.8125C103.669 56.8867 103.669 56.8867 103 60C102.01 60.495 102.01 60.495 101 61C100.67 61.99 100.34 62.98 100 64C97 66 97 66 94 66C93.67 67.65 93.34 69.3 93 71C90.69 71 88.38 71 86 71C86 71.99 86 72.98 86 74C84.125 76.1875 84.125 76.1875 82 78C81.34 78 80.68 78 80 78C80 79.65 80 81.3 80 83C80.99 83 81.98 83 83 83C83 83.66 83 84.32 83 85C83.99 85 84.98 85 86 85C86 86.32 86 87.64 86 89C88.64 89 91.28 89 94 89C94 90.32 94 91.64 94 93C94.99 93 95.98 93 97 93C97 93.66 97 94.32 97 95C97.99 95 98.98 95 100 95C100.124 95.6394 100.248 96.2788 100.375 96.9375C100.581 97.6181 100.787 98.2987 101 99C101.66 99.33 102.32 99.66 103 100C103 100.99 103 101.98 103 103C104.65 103 106.3 103 108 103C108 105.64 108 108.28 108 111C109.98 111.495 109.98 111.495 112 112C112 117.94 112 123.88 112 130C112.99 130 113.98 130 115 130C115 131.98 115 133.96 115 136C115.99 136 116.98 136 118 136C118 139.63 118 143.26 118 147C116.35 147 114.7 147 113 147C113 148.32 113 149.64 113 151C81.65 151 50.3 151 18 151C18 150.34 18 149.68 18 149C17.01 149 16.02 149 15 149C15 148.34 15 147.68 15 147C13.68 147 12.36 147 11 147C11 143.37 11 139.74 11 136C12.32 136 13.64 136 15 136C15 134.02 15 132.04 15 130C15.66 130 16.32 130 17 130C17 124.06 17 118.12 17 112C18.65 112 20.3 112 22 112C22 117.94 22 123.88 22 130C50.05 130 78.1 130 107 130C107 123.4 107 116.8 107 110C105.68 110 104.36 110 103 110C103 108.02 103 106.04 103 104C101.35 104 99.7 104 98 104C98 103.01 98 102.02 98 101C96.515 100.505 96.515 100.505 95 100C95 99.01 95 98.02 95 97C94.01 97 93.02 97 92 97C92 95.68 92 94.36 92 93C89.36 93 86.72 93 84 93C84 92.01 84 91.02 84 90C82.02 90 80.04 90 78 90C78 88.68 78 87.36 78 86C77.01 86 76.02 86 75 86C75 82.7 75 79.4 75 76C76.32 76 77.64 76 79 76C79 74.68 79 73.36 79 72C79.6187 71.7319 80.2375 71.4638 80.875 71.1875C83.2995 70.0444 83.2995 70.0444 85 67C88.625 66.8125 88.625 66.8125 92 67C92 65.68 92 64.36 92 63C92.99 63 93.98 63 95 63C95 61.68 95 60.36 95 59C96.32 59 97.64 59 99 59C99 57.68 99 56.36 99 55C100.32 55 101.64 55 103 55C103 52.69 103 50.38 103 48C104.32 48 105.64 48 107 48C107 40.08 107 32.16 107 24C78.95 24 50.9 24 22 24C22 30.93 22 37.86 22 45C20.35 45 18.7 45 17 45C17 37.74 17 30.48 17 23C16.34 23 15.68 23 15 23C15 21.35 15 19.7 15 18C14.01 18 13.02 18 12 18C12 13.38 12 8.76 12 4C13.65 4 15.3 4 17 4C17 2.68 17 1.36 17 0Z" fill="#1D0A10"/>
<path d="M30 47C32.64 47 35.28 47 38 47C38.2681 47.9281 38.5362 48.8562 38.8125 49.8125C39.9494 52.8642 40.7476 53.85 43 56C43 56.99 43 57.98 43 59C44.98 58.67 46.96 58.34 49 58C48.67 59.65 48.34 61.3 48 63C48.66 63 49.32 63 50 63C50 61.68 50 60.36 50 59C50.99 59 51.98 59 53 59C53 58.01 53 57.02 53 56C52.34 56 51.68 56 51 56C51 54.35 51 52.7 51 51C50.01 51 49.02 51 48 51C48 49.68 48 48.36 48 47C64.83 47 81.66 47 99 47C99 48.98 99 50.96 99 53C97.125 54.625 97.125 54.625 95 56C93.7484 58.0833 93.7484 58.0833 93 60C92.34 60 91.68 60 91 60C91 60.99 91 61.98 91 63C89.9069 63.1031 88.8138 63.2062 87.6875 63.3125C84.0146 63.9973 83.2476 64.2792 81 67C80.34 67 79.68 67 79 67C79 67.99 79 68.98 79 70C76.69 70.33 74.38 70.66 72 71C72 71.99 72 72.98 72 74C70.68 74 69.36 74 68 74C68.1184 78.0753 68.2426 82.1504 68.3723 86.2253C68.4156 87.6114 68.4573 88.9974 68.4973 90.3835C68.5552 92.3769 68.6193 94.3701 68.6836 96.3633C68.7386 98.1621 68.7386 98.1621 68.7947 99.9973C68.8773 103.05 68.8773 103.05 70 106C70.99 106.33 71.98 106.66 73 107C73 107.66 73 108.32 73 109C74.65 109 76.3 109 78 109C78 109.99 78 110.98 78 112C79.65 112 81.3 112 83 112C83 113.32 83 114.64 83 116C86.0808 116.857 89.0679 117.269 92.25 117.562C93.588 117.688 93.588 117.688 94.9531 117.816C95.6286 117.877 96.3041 117.938 97 118C97 118.99 97 119.98 97 121C98.65 121 100.3 121 102 121C102 123.64 102 126.28 102 129C103.65 129 105.3 129 107 129C107 129.33 107 129.66 107 130C78.95 130 50.9 130 22 130C22 129.67 22 129.34 22 129C23.65 129 25.3 129 27 129C27 126.03 27 123.06 27 120C30.96 119.01 30.96 119.01 35 118C35 121.63 35 125.26 35 129C37.64 129 40.28 129 43 129C43.33 125.7 43.66 122.4 44 119C43.01 119 42.02 119 41 119C41 117.68 41 116.36 41 115C42.32 115 43.64 115 45 115C45 114.01 45 113.02 45 112C47.64 112 50.28 112 53 112C53 111.01 53 110.02 53 109C54.32 109 55.64 109 57 109C57.33 107.68 57.66 106.36 58 105C58.99 105 59.98 105 61 105C60.8917 103.134 60.8917 103.134 60.7812 101.23C60.2882 92.4812 59.8227 83.7673 60 75C58.68 75 57.36 75 56 75C56 74.01 56 73.02 56 72C54.68 71.67 53.36 71.34 52 71C52 69.68 52 68.36 52 67C50.35 67 48.7 67 47 67C47 65.68 47 64.36 47 63C44.36 63 41.72 63 39 63C38.67 61.68 38.34 60.36 38 59C37.01 59 36.02 59 35 59C34.67 58.01 34.34 57.02 34 56C33.3194 55.5669 32.6388 55.1337 31.9375 54.6875C30 53 30 53 29.75 49.8125C29.8325 48.8844 29.915 47.9563 30 47Z" fill="#EE9D29"/>
<path d="M112 0C112.495 1.98 112.495 1.98 113 4C114.65 4.33 116.3 4.66 118 5C118 9.29 118 13.58 118 18C116.68 18 115.36 18 114 18C114 19.65 114 21.3 114 23C113.67 23 113.34 23 113 23C113 21.02 113 19.04 113 17C111.68 17 110.36 17 109 17C109 17.99 109 18.98 109 20C79.63 20 50.26 20 20 20C20 19.01 20 18.02 20 17C18.68 17 17.36 17 16 17C16 13.7 16 10.4 16 7C21.5389 4.21384 25.8107 3.57718 31.9646 3.65942C32.8337 3.65899 33.7028 3.65855 34.5982 3.6581C37.4498 3.66017 40.3008 3.68346 43.1523 3.70703C45.1377 3.71263 47.1231 3.7169 49.1085 3.71989C54.3184 3.73131 59.5279 3.76076 64.7377 3.79401C70.0601 3.82477 75.3826 3.83841 80.7051 3.85352C91.1368 3.88563 101.568 3.93679 112 4C112 2.68 112 1.36 112 0Z" fill="#D34A0B"/>
<path d="M18.0004 133C48.3604 133 78.7204 133 110 133C110 133.99 110 134.98 110 136C110.99 136 111.98 136 113 136C113 138.97 113 141.94 113 145C108.555 147.217 104.388 147.29 99.5258 147.275C98.6845 147.28 97.8433 147.285 96.9765 147.29C94.2032 147.304 91.43 147.303 88.6567 147.301C86.7252 147.305 84.7938 147.309 82.8623 147.314C78.8174 147.321 74.7724 147.321 70.7275 147.316C65.5456 147.31 60.364 147.327 55.1822 147.35C51.1947 147.365 47.2074 147.366 43.2199 147.363C41.3094 147.363 39.3988 147.368 37.4883 147.378C34.817 147.391 32.1463 147.384 29.475 147.372C28.2935 147.384 28.2935 147.384 27.0881 147.395C22.5712 147.352 19.5661 146.859 16.0004 144C15.3313 141.2 15.7617 138.912 16.0004 136C16.6604 136 17.3204 136 18.0004 136C18.0004 135.01 18.0004 134.02 18.0004 133Z" fill="#D04C0C"/>
<path d="M34.9999 27C38.9599 27 42.9199 27 46.9999 27C46.9999 27.66 46.9999 28.32 46.9999 29C58.8799 29 70.7599 29 82.9999 29C82.9999 42 82.9999 42 79.9999 47C77.351 47.4587 75.3455 47.5878 72.7069 47.4883C71.6478 47.4777 71.6478 47.4777 70.5674 47.4668C68.3146 47.4389 66.0644 47.3761 63.8124 47.3125C62.2844 47.2874 60.7564 47.2646 59.2284 47.2441C55.4846 47.189 51.7426 47.1028 47.9999 47C47.9999 48.32 47.9999 49.64 47.9999 51C48.9899 51 49.9799 51 50.9999 51C50.9999 52.65 50.9999 54.3 50.9999 56C51.6599 56 52.3199 56 52.9999 56C52.9999 56.99 52.9999 57.98 52.9999 59C52.0099 59 51.0199 59 49.9999 59C49.9999 60.32 49.9999 61.64 49.9999 63C49.3399 63 48.6799 63 47.9999 63C48.3299 61.35 48.6599 59.7 48.9999 58C47.0199 58.33 45.0399 58.66 42.9999 59C42.9999 58.01 42.9999 57.02 42.9999 56C42.0099 55.67 41.0199 55.34 39.9999 55C37.8479 51.7721 37.799 50.716 37.9999 47C37.0305 47.0206 36.0611 47.0412 35.0624 47.0625C31.9999 47 31.9999 47 30.9999 46C30.9267 43.3035 30.9074 40.6331 30.9374 37.9375C30.9419 37.1789 30.9464 36.4203 30.951 35.6387C30.9629 33.7591 30.9808 31.8795 30.9999 30C32.3199 30 33.6399 30 34.9999 30C34.9999 29.01 34.9999 28.02 34.9999 27Z" fill="#EBECEF"/>
<path d="M118 137C118.495 138.485 118.495 138.485 119 140C120.052 140.155 120.052 140.155 121.125 140.312C124.498 141.119 127.069 142.135 130 144C130.875 146.688 130.875 146.688 131 149C119.615 157.924 102.838 158.058 88.9219 158.754C86.1107 158.674 86.1107 158.674 85 160C79.6764 160.326 74.3328 160.296 69 160.312C67.799 160.316 67.799 160.316 66.5737 160.32C54.6223 160.325 42.8638 159.693 31 158.25C30.3257 158.171 29.6513 158.093 28.9565 158.012C6.55457 155.341 6.55457 155.341 0 148C1.50273 143.792 4.23333 142.197 8 140C8.66 140 9.32 140 10 140C10 142.31 10 144.62 10 147C11.65 147 13.3 147 15 147C15 147.66 15 148.32 15 149C15.99 149 16.98 149 18 149C18 149.66 18 150.32 18 151C49.35 151 80.7 151 113 151C113 149.68 113 148.36 113 147C114.65 147 116.3 147 118 147C118 143.7 118 140.4 118 137Z" fill="#D0D7EA"/>
<path d="M58 77C58.33 77 58.66 77 59 77C59 79.97 59 82.94 59 86C59.66 86 60.32 86 61 86C61 92.27 61 98.54 61 105C60.01 105.33 59.02 105.66 58 106C57.505 107.485 57.505 107.485 57 109C55.68 109 54.36 109 53 109C53 109.99 53 110.98 53 112C50.36 112 47.72 112 45 112C45 112.99 45 113.98 45 115C43.68 115 42.36 115 41 115C41 116.32 41 117.64 41 119C41.99 119 42.98 119 44 119C43.67 122.3 43.34 125.6 43 129C40.36 129 37.72 129 35 129C35 125.37 35 121.74 35 118C33.35 118.66 31.7 119.32 30 120C29.01 120 28.02 120 27 120C27 122.97 27 125.94 27 129C25.35 129 23.7 129 22 129C21.67 120.75 21.34 112.5 21 104C21.33 104 21.66 104 22 104C22 106.31 22 108.62 22 111C23.485 110.505 23.485 110.505 25 110C25.33 108.02 25.66 106.04 26 104C27.32 104 28.64 104 30 104C30 103.01 30 102.02 30 101C30.99 101 31.98 101 33 101C33 99.68 33 98.36 33 97C34.32 97 35.64 97 37 97C37 96.01 37 95.02 37 94C39.97 94 42.94 94 46 94C46 92.35 46 90.7 46 89C47.32 89 48.64 89 50 89C50 89.99 50 90.98 50 92C52.5108 90.7446 52.8713 89.4994 54 87C54.66 87 55.32 87 56 87C56.0909 86.0429 56.0909 86.0429 56.1836 85.0664C56.2674 84.2401 56.3512 83.4138 56.4375 82.5625C56.5187 81.7388 56.5999 80.9151 56.6836 80.0664C57 78 57 78 58 77Z" fill="#F3F5F6"/>
<path d="M22 25C23.65 25 25.3 25 27 25C27 26.32 27 27.64 27 29C29.31 29 31.62 29 34 29C34.33 28.34 34.66 27.68 35 27C35 27.99 35 28.98 35 30C33.68 30 32.36 30 31 30C31.33 35.61 31.66 41.22 32 47C31.34 47 30.68 47 30 47C31.0979 52.4079 31.0979 52.4079 35 56C35 56.99 35 57.98 35 59C35.99 59 36.98 59 38 59C38.33 59.99 38.66 60.98 39 62C41.64 62.33 44.28 62.66 47 63C47 64.32 47 65.64 47 67C48.65 67 50.3 67 52 67C52 68.32 52 69.64 52 71C53.32 71.33 54.64 71.66 56 72C56 72.99 56 73.98 56 75C57.32 75 58.64 75 60 75C60 78.63 60 82.26 60 86C59.67 86 59.34 86 59 86C58.505 82.04 58.505 82.04 58 78C57.9742 78.6265 57.9484 79.253 57.9219 79.8984C57.8368 81.1243 57.8368 81.1243 57.75 82.375C57.7036 83.1871 57.6572 83.9992 57.6094 84.8359C57 87 57 87 54.9531 88.2891C54.3086 88.5237 53.6641 88.7583 53 89C53 89.99 53 90.98 53 92C52.01 92 51.02 92 50 92C50 91.01 50 90.02 50 89C48.68 89 47.36 89 46 89C46 90.65 46 92.3 46 94C43.03 94 40.06 94 37 94C37 94.99 37 95.98 37 97C35.68 97 34.36 97 33 97C33 98.32 33 99.64 33 101C32.01 101 31.02 101 30 101C30 101.99 30 102.98 30 104C28.68 104 27.36 104 26 104C26 105.98 26 107.96 26 110C24.02 110.495 24.02 110.495 22 111C22 108.69 22 106.38 22 104C23.485 103.505 23.485 103.505 25 103C25.495 102.01 25.495 102.01 26 101C26.99 101 27.98 101 29 101C29 99.35 29 97.7 29 96C29.99 96 30.98 96 32 96C32 95.01 32 94.02 32 93C32.99 93 33.98 93 35 93C35 91.68 35 90.36 35 89C37.97 89 40.94 89 44 89C44 88.01 44 87.02 44 86C44.66 86 45.32 86 46 86C46 85.01 46 84.02 46 83C46.99 83 47.98 83 49 83C49 81.02 49 79.04 49 77C48.01 77 47.02 77 46 77C46 76.01 46 75.02 46 74C45.01 74 44.02 74 43 74C43 73.01 43 72.02 43 71C40.69 71 38.38 71 36 71C35.7319 70.4019 35.4638 69.8037 35.1875 69.1875C33.2884 65.6891 31.7996 64.2665 28 63C28 61.68 28 60.36 28 59C27.01 59 26.02 59 25 59C25 58.01 25 57.02 25 56C23.68 55.67 22.36 55.34 21 55C21 52.03 21 49.06 21 46C19.68 45.67 18.36 45.34 17 45C18.65 45 20.3 45 22 45C22 38.4 22 31.8 22 25Z" fill="#E6E1E1"/>
<path d="M64 83C64.33 83 64.66 83 65 83C65.33 91.91 65.66 100.82 66 110C67.65 110 69.3 110 71 110C71 110.66 71 111.32 71 112C72.65 112.33 74.3 112.66 76 113C76.495 114.485 76.495 114.485 77 116C77.66 116 78.32 116 79 116C78.67 120.29 78.34 124.58 78 129C66.45 129 54.9 129 43 129C43.33 125.7 43.66 122.4 44 119C43.01 119 42.02 119 41 119C41 118.34 41 117.68 41 117C42.98 117.33 44.96 117.66 47 118C47 117.34 47 116.68 47 116C49.31 116 51.62 116 54 116C54 115.01 54 114.02 54 113C54.99 112.67 55.98 112.34 57 112C57.33 111.34 57.66 110.68 58 110C59.65 110 61.3 110 63 110C62.9921 108.826 62.9921 108.826 62.9841 107.629C62.9634 104.107 62.9504 100.585 62.9375 97.0625C62.9291 95.8308 62.9207 94.5991 62.9121 93.3301C62.9073 91.5753 62.9073 91.5753 62.9023 89.7852C62.8945 88.1591 62.8945 88.1591 62.8865 86.5002C63 84 63 84 64 83Z" fill="#FEED55"/>
<path d="M30 47C32.64 47 35.28 47 38 47C38.2681 47.9281 38.5362 48.8562 38.8125 49.8125C39.9494 52.8642 40.7476 53.85 43 56C43 56.99 43 57.98 43 59C44.98 58.67 46.96 58.34 49 58C48.67 59.65 48.34 61.3 48 63C48.66 63 49.32 63 50 63C50 61.68 50 60.36 50 59C50.99 59 51.98 59 53 59C53 58.01 53 57.02 53 56C52.34 56 51.68 56 51 56C51 54.35 51 52.7 51 51C50.01 50.67 49.02 50.34 48 50C58.23 50 68.46 50 79 50C77.6562 56.719 74.6458 61.9422 69.1875 66.1875C66.6849 67.8969 66.6849 67.8969 66.1875 71.25C66.0947 72.6113 66.0947 72.6113 66 74C64.35 74 62.7 74 61 74C61 73.01 61 72.02 61 71C59.68 70.67 58.36 70.34 57 70C57 69.01 57 68.02 57 67C56.01 67 55.02 67 54 67C53.67 66.34 53.34 65.68 53 65C50.4727 64.3444 50.4727 64.3444 48 64C47.67 64.99 47.34 65.98 47 67C47 65.68 47 64.36 47 63C44.36 63 41.72 63 39 63C38.67 61.68 38.34 60.36 38 59C37.01 59 36.02 59 35 59C34.67 58.01 34.34 57.02 34 56C32.9791 55.3503 32.9791 55.3503 31.9375 54.6875C30 53 30 53 29.75 49.8125C29.8325 48.8844 29.915 47.9563 30 47Z" fill="#FCE749"/>
<path d="M18.0004 133C18.3304 134.32 18.6604 135.64 19.0004 137C20.1348 137.144 21.2692 137.289 22.4379 137.438C26.0004 138 26.0004 138 27.0004 139C27.0004 141.31 27.0004 143.62 27.0004 146C46.4704 146 65.9404 146 86.0004 146C86.0004 144.02 86.0004 142.04 86.0004 140C84.6804 139.67 83.3604 139.34 82.0004 139C82.0004 137.35 82.0004 135.7 82.0004 134C81.0104 133.505 81.0104 133.505 80.0004 133C89.9004 133 99.8004 133 110 133C110 133.99 110 134.98 110 136C110.99 136 111.98 136 113 136C113 138.97 113 141.94 113 145C108.555 147.217 104.388 147.29 99.5258 147.275C98.6845 147.28 97.8433 147.285 96.9765 147.29C94.2032 147.304 91.43 147.303 88.6567 147.301C86.7252 147.305 84.7938 147.309 82.8623 147.314C78.8174 147.321 74.7724 147.321 70.7275 147.316C65.5456 147.31 60.364 147.327 55.1822 147.35C51.1947 147.365 47.2074 147.366 43.2199 147.363C41.3094 147.363 39.3988 147.368 37.4883 147.378C34.817 147.391 32.1463 147.384 29.475 147.372C28.2935 147.384 28.2935 147.384 27.0881 147.395C22.5712 147.352 19.5661 146.859 16.0004 144C15.3313 141.2 15.7617 138.912 16.0004 136C16.6604 136 17.3204 136 18.0004 136C18.0004 135.01 18.0004 134.02 18.0004 133Z" fill="#912706"/>
<path d="M109 29C109.33 29 109.66 29 110 29C110 34.94 110 40.88 110 47C109.34 47 108.68 47 108 47C108 49.64 108 52.28 108 55C107.361 55.2681 106.721 55.5362 106.062 55.8125C103.669 56.8867 103.669 56.8867 103 60C102.34 60.33 101.68 60.66 101 61C100.67 61.99 100.34 62.98 100 64C97 66 97 66 94 66C93.67 67.65 93.34 69.3 93 71C90.69 71 88.38 71 86 71C86 71.99 86 72.98 86 74C84.125 76.1875 84.125 76.1875 82 78C81.34 78 80.68 78 80 78C80 79.65 80 81.3 80 83C80.99 83 81.98 83 83 83C83 83.66 83 84.32 83 85C83.99 85 84.98 85 86 85C86 86.32 86 87.64 86 89C88.64 89 91.28 89 94 89C94 90.32 94 91.64 94 93C94.99 93 95.98 93 97 93C97 93.66 97 94.32 97 95C97.99 95 98.98 95 100 95C100.124 95.6394 100.248 96.2788 100.375 96.9375C100.581 97.6181 100.787 98.2987 101 99C101.66 99.33 102.32 99.66 103 100C103 100.99 103 101.98 103 103C104.65 103 106.3 103 108 103C108 105.64 108 108.28 108 111C109.32 111.33 110.64 111.66 112 112C112 117.94 112 123.88 112 130C110.35 130 108.7 130 107 130C107 123.4 107 116.8 107 110C105.68 110 104.36 110 103 110C103 108.02 103 106.04 103 104C101.35 104 99.7 104 98 104C98 103.01 98 102.02 98 101C96.515 100.505 96.515 100.505 95 100C95 99.01 95 98.02 95 97C94.01 97 93.02 97 92 97C92 95.68 92 94.36 92 93C89.36 93 86.72 93 84 93C84 92.01 84 91.02 84 90C82.02 90 80.04 90 78 90C78 88.68 78 87.36 78 86C77.01 86 76.02 86 75 86C75 82.7 75 79.4 75 76C76.32 76 77.64 76 79 76C79 74.68 79 73.36 79 72C79.6187 71.7319 80.2375 71.4638 80.875 71.1875C83.2995 70.0444 83.2995 70.0444 85 67C88.625 66.8125 88.625 66.8125 92 67C92 65.68 92 64.36 92 63C92.99 63 93.98 63 95 63C95 61.68 95 60.36 95 59C96.32 59 97.64 59 99 59C99 57.68 99 56.36 99 55C100.32 55 101.64 55 103 55C103 52.69 103 50.38 103 48C104.32 48 105.64 48 107 48C106.977 47.215 106.954 46.4299 106.93 45.6211C106.827 39.6521 106.954 34.626 109 29Z" fill="#1F161F"/>
<path d="M112 0C112.495 1.98 112.495 1.98 113 4C114.65 4.33 116.3 4.66 118 5C118 9.29 118 13.58 118 18C116.68 18 115.36 18 114 18C114 19.65 114 21.3 114 23C113.67 23 113.34 23 113 23C113 21.02 113 19.04 113 17C111.68 17 110.36 17 109 17C109 17.99 109 18.98 109 20C79.63 20 50.26 20 20 20C20 19.67 20 19.34 20 19C42.11 19 64.22 19 87 19C87 18.01 87 17.02 87 16C88.65 16 90.3 16 92 16C92 14.35 92 12.7 92 11C91.34 11 90.68 11 90 11C90 10.01 90 9.02 90 8C90.9571 7.90912 90.9571 7.90912 91.9336 7.81641C92.7599 7.73262 93.5862 7.64883 94.4375 7.5625C95.2612 7.48129 96.0849 7.40008 96.9336 7.31641C98.9866 7.21069 98.9866 7.21069 100 6C74.59 5.67 49.18 5.34 23 5C23 4.67 23 4.34 23 4C52.37 4 81.74 4 112 4C112 2.68 112 1.36 112 0Z" fill="#8C2D15"/>
<path d="M48 47C64.83 47 81.66 47 99 47C99 48.98 99 50.96 99 53C97.125 54.625 97.125 54.625 95 56C93.7484 58.0833 93.7484 58.0833 93 60C92.34 60 91.68 60 91 60C91 60.99 91 61.98 91 63C89.9069 63.1031 88.8138 63.2062 87.6875 63.3125C84.0146 63.9973 83.2476 64.2792 81 67C80.34 67 79.68 67 79 67C79 67.99 79 68.98 79 70C76.69 70.33 74.38 70.66 72 71C72 71.99 72 72.98 72 74C70.02 74 68.04 74 66 74C65.625 71.3125 65.625 71.3125 66 68C68.625 65.6875 68.625 65.6875 70.2695 64.4844C74.6833 60.6983 77.6079 55.5682 79 50C68.77 50 58.54 50 48 50C48 49.01 48 48.02 48 47Z" fill="#F2B336"/>
<path d="M109 17C110.32 17 111.64 17 113 17C113 18.98 113 20.96 113 23C112.34 23 111.68 23 111 23C111 30.92 111 38.84 111 47C110.67 47 110.34 47 110 47C109.67 41.72 109.34 36.44 109 31C108.67 32.65 108.34 34.3 108 36C107.67 36 107.34 36 107 36C107 32.04 107 28.08 107 24C78.95 24 50.9 24 22 24C22 23.34 22 22.68 22 22C21.34 21.34 20.68 20.68 20 20C49.37 20 78.74 20 109 20C109 19.01 109 18.02 109 17Z" fill="#1A0309"/>
<path d="M22 48C23.32 48 24.64 48 26 48C26 50.31 26 52.62 26 55C27.32 55 28.64 55 30 55C30 56.32 30 57.64 30 59C30.99 59 31.98 59 33 59C33 60.32 33 61.64 33 63C34.32 63 35.64 63 37 63C37 63.99 37 64.98 37 66C38.6706 65.9691 38.6706 65.9691 40.375 65.9375C44 66 44 66 46 67C46.4641 67.99 46.4641 67.99 46.9375 69C47.8892 71.3461 47.8892 71.3461 51 72C51 73.32 51 74.64 51 76C52.32 76 53.64 76 55 76C55 79.3 55 82.6 55 86C52.03 86.495 52.03 86.495 49 87C49 87.66 49 88.32 49 89C48.01 89 47.02 89 46 89C46 90.65 46 92.3 46 94C43.03 94 40.06 94 37 94C37 94.99 37 95.98 37 97C35.68 97 34.36 97 33 97C33 98.32 33 99.64 33 101C32.01 101 31.02 101 30 101C30 101.99 30 102.98 30 104C28.68 104 27.36 104 26 104C26 105.98 26 107.96 26 110C24.02 110.495 24.02 110.495 22 111C22 108.69 22 106.38 22 104C23.485 103.505 23.485 103.505 25 103C25.33 102.34 25.66 101.68 26 101C26.99 101 27.98 101 29 101C29 99.35 29 97.7 29 96C29.99 96 30.98 96 32 96C32 95.01 32 94.02 32 93C32.99 93 33.98 93 35 93C35 91.68 35 90.36 35 89C37.97 89 40.94 89 44 89C44 88.01 44 87.02 44 86C44.66 86 45.32 86 46 86C46 85.01 46 84.02 46 83C46.99 83 47.98 83 49 83C49 81.02 49 79.04 49 77C48.01 77 47.02 77 46 77C46 76.01 46 75.02 46 74C45.01 74 44.02 74 43 74C43 73.01 43 72.02 43 71C40.69 71 38.38 71 36 71C35.5978 70.1028 35.5978 70.1028 35.1875 69.1875C33.2884 65.6891 31.7996 64.2665 28 63C28 61.68 28 60.36 28 59C27.01 59 26.02 59 25 59C25 58.01 25 57.02 25 56C24.01 55.67 23.02 55.34 22 55C22 52.69 22 50.38 22 48Z" fill="#2F252A"/>
<path d="M22 24C50.05 24 78.1 24 107 24C107 24.33 107 24.66 107 25C105.35 25 103.7 25 102 25C102 26.32 102 27.64 102 29C83.85 29 65.7 29 47 29C47 28.34 47 27.68 47 27C42.71 27 38.42 27 34 27C34 27.66 34 28.32 34 29C31.69 29 29.38 29 27 29C27 27.68 27 26.36 27 25C25.35 25 23.7 25 22 25C22 24.67 22 24.34 22 24Z" fill="#828AAE"/>
<path d="M83 29C89.27 29 95.54 29 102 29C102 34.61 102 40.22 102 46C101.34 46 100.68 46 100 46C100 48.31 100 50.62 100 53C99.67 53 99.34 53 99 53C99 51.02 99 49.04 99 47C92.73 47 86.46 47 80 47C80.66 45.35 81.32 43.7 82 42C82.2812 39.737 82.487 37.4637 82.625 35.1875C82.7488 33.1456 82.8725 31.1037 83 29Z" fill="#B7B1C9"/>
<path d="M37 94C40.63 94 44.26 94 48 94C48.33 94.99 48.66 95.98 49 97C47.68 97 46.36 97 45 97C44.9072 98.1137 44.9072 98.1137 44.8125 99.25C43.7457 102.861 42.0176 103.845 39 106C38.4431 106.577 37.8863 107.155 37.3125 107.75C36 109 36 109 34 109C34.0206 109.908 34.0412 110.815 34.0625 111.75C34.011 114.427 33.7785 116.47 33 119C31.02 119.33 29.04 119.66 27 120C27 122.97 27 125.94 27 129C25.35 129 23.7 129 22 129C21.67 120.75 21.34 112.5 21 104C21.33 104 21.66 104 22 104C22 106.31 22 108.62 22 111C22.99 110.67 23.98 110.34 25 110C25.33 108.02 25.66 106.04 26 104C27.32 104 28.64 104 30 104C30 103.01 30 102.02 30 101C30.99 101 31.98 101 33 101C33 99.68 33 98.36 33 97C34.32 97 35.64 97 37 97C37 96.01 37 95.02 37 94Z" fill="#E0E6F1"/>
<path d="M23 5C45.44 5 67.88 5 91 5C91 5.33 91 5.66 91 6C87.4588 6.19813 83.9171 6.3816 80.375 6.5625C79.376 6.61857 78.377 6.67465 77.3477 6.73242C72.4061 6.97786 67.8641 7.12057 63 6C63 6.66 63 7.32 63 8C57.72 8 52.44 8 47 8C47 9.65 47 11.3 47 13C39.893 17.738 29.23 16.1161 21 16C21 13.03 21 10.06 21 7C21.66 7 22.32 7 23 7C23 6.34 23 5.68 23 5Z" fill="#E45E15"/>
<path d="M35 27C38.96 27 42.92 27 47 27C47 33.6 47 40.2 47 47C44.5456 47.0206 42.0912 47.0412 39.5625 47.0625C38.7885 47.0716 38.0145 47.0807 37.217 47.0901C35.4778 47.0972 33.7385 47.0502 32 47C31 46 31 46 30.9023 42.4023C30.909 40.914 30.921 39.4257 30.9375 37.9375C30.942 37.1789 30.9465 36.4203 30.9512 35.6387C30.963 33.7591 30.9809 31.8795 31 30C32.32 30 33.64 30 35 30C35 29.01 35 28.02 35 27Z" fill="#FAFBFA"/>
<path d="M48 64C50.31 64 52.62 64 55 64C54.67 64.99 54.34 65.98 54 67C54.99 67 55.98 67 57 67C57 67.99 57 68.98 57 70C58.65 70 60.3 70 62 70C61.67 71.32 61.34 72.64 61 74C62.65 74 64.3 74 66 74C66 84.56 66 95.12 66 106C65.67 106 65.34 106 65 106C64.67 98.74 64.34 91.48 64 84C63.67 92.58 63.34 101.16 63 110C61.35 110 59.7 110 58 110C57.67 110.99 57.34 111.98 57 113C56.01 113 55.02 113 54 113C54 113.99 54 114.98 54 116C51.69 116 49.38 116 47 116C47 116.66 47 117.32 47 118C45.02 117.67 43.04 117.34 41 117C41 116.34 41 115.68 41 115C42.32 115 43.64 115 45 115C45 114.01 45 113.02 45 112C47.64 112 50.28 112 53 112C53 111.01 53 110.02 53 109C54.32 109 55.64 109 57 109C57.33 107.68 57.66 106.36 58 105C58.99 105 59.98 105 61 105C60.9278 103.756 60.8556 102.512 60.7812 101.23C60.2882 92.4812 59.8227 83.7673 60 75C58.68 75 57.36 75 56 75C56 74.01 56 73.02 56 72C54.68 71.67 53.36 71.34 52 71C52 69.68 52 68.36 52 67C50.68 67 49.36 67 48 67C48 66.01 48 65.02 48 64Z" fill="#E8A94E"/>
<path d="M17 112C18.65 112 20.3 112 22 112C22 118.27 22 124.54 22 131C24.3435 130.988 26.687 130.977 29.1016 130.965C46.0966 130.9 63.0292 130.953 80 132C80 132.33 80 132.66 80 133C59.54 133 39.08 133 18 133C18 133.99 18 134.98 18 136C17.34 136 16.68 136 16 136C16 138.64 16 141.28 16 144C17.32 144.66 18.64 145.32 20 146C18.8863 145.979 17.7725 145.959 16.625 145.938C13.1678 145.736 13.1678 145.736 11 147C11 143.37 11 139.74 11 136C12.32 136 13.64 136 15 136C15 134.02 15 132.04 15 130C15.66 130 16.32 130 17 130C17 124.06 17 118.12 17 112Z" fill="#360E06"/>
<path d="M18.0004 133C18.3304 134.32 18.6604 135.64 19.0004 137C20.1348 137.144 21.2692 137.289 22.4379 137.438C26.0004 138 26.0004 138 27.0004 139C27.0004 141.31 27.0004 143.62 27.0004 146C46.4704 146 65.9404 146 86.0004 146C86.0004 144.02 86.0004 142.04 86.0004 140C84.6804 139.67 83.3604 139.34 82.0004 139C82.0004 137.35 82.0004 135.7 82.0004 134C85.3004 134 88.6004 134 92.0004 134C92.4954 136.475 92.4954 136.475 93.0004 139C94.3204 139 95.6404 139 97.0004 139C96.6704 140.32 96.3404 141.64 96.0004 143C94.6804 143 93.3604 143 92.0004 143C92.0004 142.34 92.0004 141.68 92.0004 141C91.0104 141 90.0204 141 89.0004 141C89.0004 141.66 89.0004 142.32 89.0004 143C88.3404 143 87.6804 143 87.0004 143C87.0004 144.32 87.0004 145.64 87.0004 147C78.4815 147.07 69.9626 147.123 61.4435 147.155C57.4875 147.171 53.5317 147.192 49.5758 147.226C45.7568 147.259 41.938 147.277 38.1188 147.285C36.6632 147.29 35.2075 147.301 33.752 147.317C31.71 147.339 29.6687 147.342 27.6266 147.341C26.4652 147.347 25.3039 147.354 24.1073 147.361C20.6512 146.959 18.7573 146.093 16.0004 144C15.3313 141.2 15.7617 138.912 16.0004 136C16.6604 136 17.3204 136 18.0004 136C18.0004 135.01 18.0004 134.02 18.0004 133Z" fill="#A2360D"/>
<path d="M23 5C23 5.66 23 6.32 23 7C22.34 7 21.68 7 21 7C21 9.97 21 12.94 21 16C22.0412 15.9967 22.0412 15.9967 23.1034 15.9933C29.6787 15.9731 36.254 15.958 42.8293 15.9482C46.2089 15.943 49.5885 15.936 52.968 15.9246C56.8628 15.9124 60.7575 15.9067 64.6523 15.9023C66.4529 15.8946 66.4529 15.8946 68.2898 15.8867C74.6152 15.8863 80.7297 16.1552 87 17C87 17.66 87 18.32 87 19C64.89 19 42.78 19 20 19C20 18.34 20 17.68 20 17C18.68 17 17.36 17 16 17C16 13.7 16 10.4 16 7C20.75 5 20.75 5 23 5Z" fill="#B43609"/>
<path d="M22 130C52.36 130 82.72 130 114 130C114.495 133.465 114.495 133.465 115 137C115.66 137 116.32 137 117 137C117 139.97 117 142.94 117 146C115.68 146 114.36 146 113 146C113 142.7 113 139.4 113 136C112.01 136 111.02 136 110 136C110 135.01 110 134.02 110 133C109.092 133.016 109.092 133.016 108.167 133.032C88.4659 133.314 68.8115 132.705 49.125 132C48.4571 131.976 47.7893 131.952 47.1011 131.928C38.7338 131.627 30.3667 131.318 22 131C22 130.67 22 130.34 22 130Z" fill="#230404"/>
<path d="M12 137C12.33 137 12.66 137 13 137C13 139.97 13 142.94 13 146C14.32 145.67 15.64 145.34 17 145C18.3438 145.288 19.6785 145.623 21 146C23.9441 146.09 26.8638 146.126 29.8076 146.114C30.6958 146.114 31.5839 146.114 32.499 146.114C35.4317 146.113 38.3642 146.105 41.2969 146.098C43.3314 146.096 45.3659 146.094 47.4005 146.093C52.7532 146.09 58.106 146.08 63.4588 146.069C68.9217 146.058 74.3847 146.054 79.8477 146.049C90.5651 146.038 101.283 146.021 112 146C112 147.32 112 148.64 112 150C89.56 150 67.12 150 44 150C44 149.67 44 149.34 44 149C66.11 149 88.22 149 111 149C111 148.34 111 147.68 111 147C110.34 147.33 109.68 147.66 109 148C106.998 148.115 104.993 148.167 102.988 148.189C101.721 148.206 100.454 148.223 99.1481 148.24C98.4668 148.247 97.7854 148.253 97.0834 148.26C94.9303 148.282 92.7774 148.309 90.6244 148.337C86.0205 148.397 81.4165 148.449 76.8125 148.5C70.8189 148.568 64.8255 148.641 58.832 148.719C58.1036 148.728 57.3751 148.737 56.6245 148.746C46.3247 148.878 36.0422 149.159 25.7573 149.758C24.9127 149.803 24.0682 149.849 23.198 149.896C22.1164 149.962 22.1164 149.962 21.013 150.03C18.8663 149.998 17.0554 149.599 15 149C15 148.34 15 147.68 15 147C14.01 147 13.02 147 12 147C12 143.7 12 140.4 12 137Z" fill="#1F0506"/>
<path d="M17 0C17.33 0 17.66 0 18 0C18 1.65 18 3.3 18 5C18.99 5.33 19.98 5.66 21 6C19.35 6.33 17.7 6.66 16 7C16 10.3 16 13.6 16 17C17.32 17 18.64 17 20 17C20 18.32 20 19.64 20 21C20.99 21.33 21.98 21.66 23 22C22.67 29.59 22.34 37.18 22 45C20.35 45 18.7 45 17 45C17 37.74 17 30.48 17 23C16.34 23 15.68 23 15 23C15 21.35 15 19.7 15 18C14.01 18 13.02 18 12 18C12 13.38 12 8.76 12 4C13.65 4 15.3 4 17 4C17 2.68 17 1.36 17 0Z" fill="#25171F"/>
<path d="M70 110C70.33 110.66 70.66 111.32 71 112C73.5273 112.656 73.5273 112.656 76 113C76.33 113.99 76.66 114.98 77 116C77.66 116 78.32 116 79 116C78.67 120.29 78.34 124.58 78 129C71.4 129 64.8 129 58 129C58 127.68 58 126.36 58 125C58.99 125 59.98 125 61 125C61.33 124.01 61.66 123.02 62 122C64.64 121.67 67.28 121.34 70 121C70.841 116.982 71.054 113.982 70 110Z" fill="#FBC037"/>
<path d="M102 25C103.65 25 105.3 25 107 25C107 32.59 107 40.18 107 48C105.68 48 104.36 48 103 48C103 50.31 103 52.62 103 55C101.68 55 100.36 55 99 55C99 56.32 99 57.64 99 59C97.68 59 96.36 59 95 59C95 60.32 95 61.64 95 63C94.01 63 93.02 63 92 63C92 63.99 92 64.98 92 66C89.69 66 87.38 66 85 66C85 65.34 85 64.68 85 64C87.97 63.505 87.97 63.505 91 63C91 62.01 91 61.02 91 60C91.99 59.505 91.99 59.505 93 59C93.4538 58.175 93.9075 57.35 94.375 56.5C96 54 96 54 98.1875 53.1875C98.7856 53.1256 99.3838 53.0637 100 53C100 50.69 100 48.38 100 46C100.66 46 101.32 46 102 46C102 39.07 102 32.14 102 25Z" fill="#D8CFD9"/>
<path d="M66 74C66.66 74 67.32 74 68 74C68.0376 75.2942 68.0376 75.2942 68.0759 76.6145C68.1711 79.8182 68.2703 83.0218 68.3723 86.2253C68.4156 87.6114 68.4573 88.9974 68.4973 90.3835C68.5552 92.3769 68.6193 94.3701 68.6836 96.3633C68.7203 97.5625 68.7569 98.7617 68.7947 99.9973C68.8773 103.05 68.8773 103.05 70 106C70.99 106.33 71.98 106.66 73 107C73 107.66 73 108.32 73 109C74.65 109 76.3 109 78 109C78 109.99 78 110.98 78 112C79.65 112 81.3 112 83 112C83 113.32 83 114.64 83 116C86.0808 116.857 89.0679 117.269 92.25 117.562C93.142 117.646 94.0341 117.73 94.9531 117.816C95.6286 117.877 96.3041 117.938 97 118C96.67 118.99 96.34 119.98 96 121C92.37 121 88.74 121 85 121C85 120.34 85 119.68 85 119C83.35 118.67 81.7 118.34 80 118C80 117.34 80 116.68 80 116C79.01 116 78.02 116 77 116C75.979 115.021 74.9794 114.02 74 113C73.01 112.67 72.02 112.34 71 112C71 111.34 71 110.68 71 110C69.35 110 67.7 110 66 110C66 98.12 66 86.24 66 74Z" fill="#A6662E"/>
<path d="M35 118C35 121.63 35 125.26 35 129C58.76 129 82.52 129 107 129C107 129.33 107 129.66 107 130C78.95 130 50.9 130 22 130C22 129.67 22 129.34 22 129C23.65 129 25.3 129 27 129C27 126.03 27 123.06 27 120C32.75 118 32.75 118 35 118Z" fill="#784721"/>
<path d="M22 24C50.05 24 78.1 24 107 24C107 24.33 107 24.66 107 25C103.7 25 100.4 25 97 25C97 25.99 97 26.98 97 28C91.72 28 86.44 28 81 28C81 27.01 81 26.02 81 25C65.82 25.33 50.64 25.66 35 26C34.67 26.99 34.34 27.98 34 29C31.69 29 29.38 29 27 29C27 27.68 27 26.36 27 25C25.35 25 23.7 25 22 25C22 24.67 22 24.34 22 24Z" fill="#706882"/>
<path d="M48 47C64.83 47 81.66 47 99 47C99 48.65 99 50.3 99 52C98.2738 51.8392 97.5476 51.6785 96.7994 51.5128C94.2088 51.0383 91.8376 50.8454 89.2097 50.7947C88.2891 50.7747 87.3686 50.7548 86.4201 50.7342C85.4397 50.7175 84.4593 50.7008 83.4492 50.6836C82.4353 50.6628 81.4213 50.642 80.3767 50.6206C77.147 50.5554 73.9173 50.4964 70.6875 50.4375C68.4941 50.3943 66.3008 50.3507 64.1074 50.3066C58.7384 50.1997 53.3692 50.0979 48 50C48 49.01 48 48.02 48 47Z" fill="#BB7B3F"/>
<path d="M23 5C31.25 5 39.5 5 48 5C48 5.33 48 5.66 48 6C41.565 6.495 41.565 6.495 35 7C34.67 9.97 34.34 12.94 34 16C29.71 16 25.42 16 21 16C21 13.03 21 10.06 21 7C21.66 7 22.32 7 23 7C23 6.34 23 5.68 23 5Z" fill="#E87021"/>
<path d="M112 0C112.495 1.98 112.495 1.98 113 4C114.32 4 115.64 4 117 4C117 8.29 117 12.58 117 17C116.01 17 115.02 17 114 17C113.505 11.555 113.505 11.555 113 6C83.3 5.67 53.6 5.34 23 5C23 4.67 23 4.34 23 4C52.37 4 81.74 4 112 4C112 2.68 112 1.36 112 0Z" fill="#6D2314"/>
<path d="M20 134C29.9 134 39.8 134 50 134C50 135.65 50 137.3 50 139C44.3333 139 38.6667 139 33 139C31.9069 139.041 30.8138 139.082 29.6875 139.125C26.0389 139.001 23.3798 138.319 20 137C20 136.01 20 135.02 20 134Z" fill="#F97D20"/>
<path d="M79 50.0001C81.3961 49.9458 83.791 49.9063 86.1875 49.8751C87.1978 49.8499 87.1978 49.8499 88.2285 49.8243C92.2881 49.7847 95.35 50.1999 99 52.0001C98.3813 52.5776 97.7625 53.1551 97.125 53.7501C95.1865 55.8026 94.0999 57.4337 93 60.0001C92.34 60.0001 91.68 60.0001 91 60.0001C91 60.9901 91 61.9801 91 63.0001C88.69 63.0001 86.38 63.0001 84 63.0001C84 62.0101 84 61.0201 84 60.0001C85.65 59.6701 87.3 59.3401 89 59.0001C89 58.0101 89 57.0201 89 56.0001C88.2575 56.0413 87.515 56.0826 86.75 56.1251C83.8441 55.993 82.3577 55.6841 80 54.0001C79.3906 51.9219 79.3906 51.9219 79 50.0001Z" fill="#DD8F28"/>
<path d="M60 75C60.66 75 61.32 75 62 75C62.33 86.55 62.66 98.1 63 110C61.35 110 59.7 110 58 110C57.67 110.99 57.34 111.98 57 113C56.01 113 55.02 113 54 113C54 113.99 54 114.98 54 116C51.69 116 49.38 116 47 116C47 116.66 47 117.32 47 118C45.02 117.67 43.04 117.34 41 117C41 116.34 41 115.68 41 115C42.32 115 43.64 115 45 115C45 114.01 45 113.02 45 112C47.64 112 50.28 112 53 112C53 111.01 53 110.02 53 109C54.32 109 55.64 109 57 109C57.33 107.68 57.66 106.36 58 105C58.99 105 59.98 105 61 105C60.9278 103.756 60.8556 102.512 60.7812 101.23C60.2882 92.4812 59.8227 83.7673 60 75Z" fill="#B88247"/>
<path d="M30 47C32.64 47 35.28 47 38 47C38.2681 47.9281 38.5362 48.8562 38.8125 49.8125C39.9467 52.8569 40.6968 53.8971 43 56C43.33 56.99 43.66 57.98 44 59C44.99 59.33 45.98 59.66 47 60C47 60.99 47 61.98 47 63C44.36 63 41.72 63 39 63C38.67 61.68 38.34 60.36 38 59C37.01 59 36.02 59 35 59C34.67 58.01 34.34 57.02 34 56C32.9791 55.3503 32.9791 55.3503 31.9375 54.6875C30 53 30 53 29.75 49.8125C29.8325 48.8844 29.915 47.9563 30 47Z" fill="#CE903A"/>
<path d="M36.9996 94C39.6396 94 42.2796 94 44.9996 94C44.9996 94.33 44.9996 94.66 44.9996 95C43.0196 95 41.0396 95 38.9996 95C39.0615 96.1756 39.0615 96.1756 39.1246 97.375C38.9996 100 38.9996 100 36.9996 102C36.0096 102 35.0196 102 33.9996 102C33.8759 102.619 33.7521 103.238 33.6246 103.875C32.9996 106 32.9996 106 30.9996 108C30.3571 110.069 30.3571 110.069 29.9996 112C28.6796 112 27.3596 112 25.9996 112C25.6696 117.28 25.3396 122.56 24.9996 128C24.6696 128 24.3396 128 23.9996 128C23.6306 111.107 23.6306 111.107 25.9996 104C27.3196 104 28.6396 104 29.9996 104C29.9996 103.01 29.9996 102.02 29.9996 101C30.9896 101 31.9796 101 32.9996 101C32.9996 99.68 32.9996 98.36 32.9996 97C34.3196 97 35.6396 97 36.9996 97C36.9996 96.01 36.9996 95.02 36.9996 94Z" fill="#EAE7EB"/>
<path d="M21 104C21.33 104 21.66 104 22 104C22 106.31 22 108.62 22 111C22.99 111.33 23.98 111.66 25 112C25 114.64 25 117.28 25 120C25.33 117.36 25.66 114.72 26 112C27.32 112 28.64 112 30 112C30 110.68 30 109.36 30 108C30.99 108.33 31.98 108.66 33 109C32.34 111.97 31.68 114.94 31 118C31.66 118.33 32.32 118.66 33 119C31.02 119.33 29.04 119.66 27 120C27 122.97 27 125.94 27 129C25.35 129 23.7 129 22 129C21.67 120.75 21.34 112.5 21 104Z" fill="#D8D4DB"/>
<path d="M48 49.9999C48.99 50.3299 49.98 50.6599 51 50.9999C51 52.6499 51 54.2999 51 55.9999C51.66 55.9999 52.32 55.9999 53 55.9999C53 56.9899 53 57.9799 53 58.9999C52.01 58.9999 51.02 58.9999 50 58.9999C50 60.3199 50 61.6399 50 62.9999C49.34 62.9999 48.68 62.9999 48 62.9999C48.33 61.3499 48.66 59.6999 49 57.9999C47.02 58.3299 45.04 58.6599 43 58.9999C43 58.0099 43 57.0199 43 55.9999C42.01 55.6699 41.02 55.3399 40 54.9999C38.8125 52.4374 38.8125 52.4374 38 49.9999C41.2154 48.3922 44.5711 49.3888 48 49.9999Z" fill="#FDFAD5"/>
<path d="M35 89C36.98 89 38.96 89 41 89C41 89.33 41 89.66 41 90C39.35 90 37.7 90 36 90C36 90.99 36 91.98 36 93C38.97 93 41.94 93 45 93C45.33 92.01 45.66 91.02 46 90C46 91.32 46 92.64 46 94C43.03 94 40.06 94 37 94C37 94.99 37 95.98 37 97C35.68 97 34.36 97 33 97C33 98.32 33 99.64 33 101C32.01 101 31.02 101 30 101C30 101.99 30 102.98 30 104C28.68 104 27.36 104 26 104C26 105.98 26 107.96 26 110C24.68 110.33 23.36 110.66 22 111C22 108.69 22 106.38 22 104C22.99 103.67 23.98 103.34 25 103C25.33 102.34 25.66 101.68 26 101C26.99 101 27.98 101 29 101C29 99.35 29 97.7 29 96C29.99 96 30.98 96 32 96C32 95.01 32 94.02 32 93C32.99 93 33.98 93 35 93C35 91.68 35 90.36 35 89Z" fill="#190C13"/>
<path d="M51 78C52.32 78 53.64 78 55 78C55 80.64 55 83.28 55 86C53.02 86.33 51.04 86.66 49 87C49 87.66 49 88.32 49 89C48.01 89.33 47.02 89.66 46 90C45.67 90.99 45.34 91.98 45 93C42.03 93 39.06 93 36 93C36 92.01 36 91.02 36 90C38.64 89.67 41.28 89.34 44 89C44 88.01 44 87.02 44 86C44.66 86 45.32 86 46 86C46 85.01 46 84.02 46 83C47.32 83 48.64 83 50 83C50.33 81.35 50.66 79.7 51 78Z" fill="#150910"/>
<path d="M17 112C18.65 112 20.3 112 22 112C22 118.27 22 124.54 22 131C19.69 131 17.38 131 15 131C15.66 130.67 16.32 130.34 17 130C17 124.06 17 118.12 17 112Z" fill="#251A21"/>
<path d="M84 63C85.32 63.33 86.64 63.66 88 64C87.01 64 86.02 64 85 64C85 64.66 85 65.32 85 66C87.31 66 89.62 66 92 66C92 66.33 92 66.66 92 67C90.9069 67.0825 89.8138 67.165 88.6875 67.25C84.964 67.6116 84.964 67.6116 83.25 70.0625C82.8375 70.7019 82.425 71.3413 82 72C81.01 72 80.02 72 79 72C78.67 73.32 78.34 74.64 78 76C77.67 75.01 77.34 74.02 77 73C74.9849 72.2668 74.9849 72.2668 73 72C73 72.99 73 73.98 73 75C71.68 75 70.36 75 69 75C69 84.24 69 93.48 69 103C68.67 103 68.34 103 68 103C68 93.43 68 83.86 68 74C69.32 74 70.64 74 72 74C72 73.01 72 72.02 72 71C75.465 70.505 75.465 70.505 79 70C79 69.01 79 68.02 79 67C79.9591 66.8453 79.9591 66.8453 80.9375 66.6875C81.6181 66.4606 82.2987 66.2338 83 66C83.33 65.01 83.66 64.02 84 63Z" fill="#BDAAA7"/>
<path d="M18 133C18.33 134.32 18.66 135.64 19 137C20.1344 137.144 21.2687 137.289 22.4375 137.438C26 138 26 138 27 139C27.0409 141.333 27.0424 143.667 27 146C19.5714 146.286 19.5714 146.286 16 144C16 141.36 16 138.72 16 136C16.66 136 17.32 136 18 136C18 135.01 18 134.02 18 133Z" fill="#C64809"/>
<path d="M103 25C104.32 25 105.64 25 107 25C107 32.26 107 39.52 107 47C105.68 47 104.36 47 103 47C103 39.74 103 32.48 103 25Z" fill="#E3E3F0"/>
<path d="M26.0003 25C26.3303 26.32 26.6603 27.64 27.0003 29C29.3103 29 31.6203 29 34.0003 29C34.3303 28.34 34.6603 27.68 35.0003 27C35.0003 27.99 35.0003 28.98 35.0003 30C33.6803 30 32.3603 30 31.0003 30C31.3303 35.61 31.6603 41.22 32.0003 47C31.0103 47 30.0203 47 29.0003 47C29.0003 46.34 29.0003 45.68 29.0003 45C28.3403 45 27.6803 45 27.0003 45C26.299 38.2998 25.8899 31.7374 26.0003 25Z" fill="#C0BAC3"/>
<path d="M17 0C17.33 0 17.66 0 18 0C18 1.65 18 3.3 18 5C18.99 5.33 19.98 5.66 21 6C19.35 6.33 17.7 6.66 16 7C16 10.3 16 13.6 16 17C17.32 17 18.64 17 20 17C19.67 17.99 19.34 18.98 19 20C18.67 19.67 18.34 19.34 18 19C17.67 19.66 17.34 20.32 17 21C16.34 21 15.68 21 15 21C15 20.01 15 19.02 15 18C14.01 18 13.02 18 12 18C12 13.38 12 8.76 12 4C13.65 4 15.3 4 17 4C17 2.68 17 1.36 17 0Z" fill="#1E090F"/>
<path d="M74.5625 109.938C75.7691 109.968 75.7691 109.968 77 110C77 110.99 77 111.98 77 113C78.98 113 80.96 113 83 113C83 113.99 83 114.98 83 116C86.0808 116.857 89.0679 117.269 92.25 117.562C93.142 117.646 94.0341 117.73 94.9531 117.816C95.6286 117.877 96.3041 117.938 97 118C96.67 118.99 96.34 119.98 96 121C92.37 121 88.74 121 85 121C85 120.34 85 119.68 85 119C83.35 118.67 81.7 118.34 80 118C80 117.34 80 116.68 80 116C79.01 116 78.02 116 77 116C75.5 114.625 75.5 114.625 74 113C73.01 112.34 72.02 111.68 71 111C72 110 72 110 74.5625 109.938Z" fill="#A1521B"/>
<path d="M22 48C23.32 48 24.64 48 26 48C26 50.31 26 52.62 26 55C27.32 55 28.64 55 30 55C30 56.32 30 57.64 30 59C30.99 59 31.98 59 33 59C33 60.32 33 61.64 33 63C33.99 63 34.98 63 36 63C35.67 63.99 35.34 64.98 35 66C34.01 66 33.02 66 32 66C31.67 65.34 31.34 64.68 31 64C30.01 63.67 29.02 63.34 28 63C28 61.68 28 60.36 28 59C27.01 59 26.02 59 25 59C25 58.01 25 57.02 25 56C24.01 55.67 23.02 55.34 22 55C22 52.69 22 50.38 22 48Z" fill="#130A13"/>
<path d="M35 118C35 121.63 35 125.26 35 129C32.36 129 29.72 129 27 129C27 126.03 27 123.06 27 120C32.75 118 32.75 118 35 118Z" fill="#CC752A"/>
<path d="M88 89C89.98 89 91.96 89 94 89C94 90.32 94 91.64 94 93C94.99 93 95.98 93 97 93C97 93.66 97 94.32 97 95C97.99 95 98.98 95 100 95C100.124 95.6187 100.248 96.2375 100.375 96.875C100.872 99.1912 100.872 99.1912 103 101C102.01 101.33 101.02 101.66 100 102C99.34 102.66 98.68 103.32 98 104C98 103.01 98 102.02 98 101C97.01 100.67 96.02 100.34 95 100C95 99.01 95 98.02 95 97C94.01 97 93.02 97 92 97C92 95.68 92 94.36 92 93C89.36 93 86.72 93 84 93C84.33 92.01 84.66 91.02 85 90C87.31 90.66 89.62 91.32 92 92C92 91.34 92 90.68 92 90C90.68 89.67 89.36 89.34 88 89Z" fill="#251920"/>
<path d="M75 61C77.9288 61.6276 80.361 62.5862 83 64C83 64.66 83 65.32 83 66C81.68 66.33 80.36 66.66 79 67C79 67.99 79 68.98 79 70C76.69 70.33 74.38 70.66 72 71C72 71.99 72 72.98 72 74C71.01 74 70.02 74 69 74C69 72.68 69 71.36 69 70C69.66 70 70.32 70 71 70C71.33 69.01 71.66 68.02 72 67C72.66 66.67 73.32 66.34 74 66C74 65.01 74 64.02 74 63C74.33 62.34 74.66 61.68 75 61Z" fill="#AB5E1F"/>
<path d="M81 24C89.58 24 98.16 24 107 24C107 24.33 107 24.66 107 25C103.7 25 100.4 25 97 25C97 25.99 97 26.98 97 28C91.72 28 86.44 28 81 28C81 26.68 81 25.36 81 24Z" fill="#605979"/>
<path d="M83 90C83.33 90.99 83.66 91.98 84 93C86.64 93 89.28 93 92 93C92 96.3 92 99.6 92 103C87.1388 102.583 85.2361 100.498 82 97C81.34 96.67 80.68 96.34 80 96C80.33 95.34 80.66 94.68 81 94C81.66 94 82.32 94 83 94C83 92.68 83 91.36 83 90Z" fill="#BFBBD3"/>
<path d="M103 111C104.32 111 105.64 111 107 111C107 116.94 107 122.88 107 129C105.68 129 104.36 129 103 129C103 123.06 103 117.12 103 111Z" fill="#D6D6E2"/>
<path d="M20 134C25.28 134 30.56 134 36 134C35.67 135.32 35.34 136.64 35 138C30.9775 140.011 26.7427 139.216 22.5625 138C21.7169 137.67 20.8712 137.34 20 137C20 136.01 20 135.02 20 134Z" fill="#E96314"/>
<path d="M31 30C32.32 30 33.64 30 35 30C35.33 35.61 35.66 41.22 36 47C34.35 46.67 32.7 46.34 31 46C31 40.72 31 35.44 31 30Z" fill="#E8E5E5"/>
<path d="M66 110C67.32 110 68.64 110 70 110C72.0368 114.074 72.0257 116.589 71 121C67.713 121.8 66.2898 122.097 63 121C63.66 121 64.32 121 65 121C65.33 117.37 65.66 113.74 66 110Z" fill="#FDE34C"/>
<path d="M80 47C86.27 47 92.54 47 99 47C99 48.65 99 50.3 99 52C98.3258 51.8466 97.6516 51.6932 96.957 51.5352C93.5312 50.9152 90.1611 50.6647 86.6875 50.4375C85.4332 50.3537 84.179 50.2699 82.8867 50.1836C81.4578 50.0927 81.4578 50.0927 80 50C80 49.01 80 48.02 80 47Z" fill="#8B4519"/>
<path d="M91 97C92.32 97 93.64 97 95 97C95.33 97.99 95.66 98.98 96 100C96.66 100.33 97.32 100.66 98 101C98 101.99 98 102.98 98 104C99.32 104 100.64 104 102 104C102 106.31 102 108.62 102 111C100.68 110.34 99.36 109.68 98 109C98 108.34 98 107.68 98 107C97.34 107 96.68 107 96 107C95.67 105.02 95.34 103.04 95 101C93.68 101 92.36 101 91 101C91 99.68 91 98.36 91 97Z" fill="#D5D4E8"/>
<path d="M64.0002 83C64.3302 83 64.6602 83 65.0002 83C65.3302 91.91 65.6602 100.82 66.0002 110C65.0102 110 64.0202 110 63.0002 110C62.9714 105.688 62.9535 101.375 62.9377 97.0625C62.9294 95.8308 62.921 94.5991 62.9124 93.3301C62.9091 92.1603 62.9059 90.9904 62.9026 89.7852C62.8974 88.7011 62.8921 87.6171 62.8867 86.5002C63.0002 84 63.0002 84 64.0002 83Z" fill="#F4BB63"/>
<path d="M27 8C29.31 8 31.62 8 34 8C34 10.64 34 13.28 34 16C31.69 16 29.38 16 27 16C27 13.36 27 10.72 27 8Z" fill="#FBAD62"/>
<path d="M34 102C35.65 102 37.3 102 39 102C37.125 106.75 37.125 106.75 36 109C35.34 109 34.68 109 34 109C34.0206 109.949 34.0412 110.897 34.0625 111.875C34 115 34 115 33 117C32.34 117 31.68 117 31 117C31 110.973 31.1194 107.401 34 102Z" fill="#E4E6EE"/>
<path d="M56 75C57.32 75 58.64 75 60 75C60 78.63 60 82.26 60 86C59.67 86 59.34 86 59 86C58.67 83.36 58.34 80.72 58 78C57.9742 78.6265 57.9484 79.253 57.9219 79.8984C57.8652 80.7157 57.8084 81.533 57.75 82.375C57.6804 83.5932 57.6804 83.5932 57.6094 84.8359C57 87 57 87 54.9531 88.2891C53.9863 88.641 53.9863 88.641 53 89C53 89.99 53 90.98 53 92C52.01 92 51.02 92 50 92C49.67 90.35 49.34 88.7 49 87C50.98 86.34 52.96 85.68 55 85C55.33 81.7 55.66 78.4 56 75Z" fill="#DAD6DB"/>
<path d="M48 64C50.31 64 52.62 64 55 64C54.67 65.32 54.34 66.64 54 68C54.66 68 55.32 68 56 68C56 68.99 56 69.98 56 71C57.32 71 58.64 71 60 71C60 72.32 60 73.64 60 75C58.68 75 57.36 75 56 75C56 74.01 56 73.02 56 72C54.68 71.67 53.36 71.34 52 71C52 69.68 52 68.36 52 67C50.68 67 49.36 67 48 67C48 66.01 48 65.02 48 64Z" fill="#8E5E26"/>
<path d="M18 136C17.34 136 16.68 136 16 136C16 138.64 16 141.28 16 144C17.32 144.66 18.64 145.32 20 146C18.8863 145.979 17.7725 145.959 16.625 145.938C13.1678 145.736 13.1678 145.736 11 147C11 143.37 11 139.74 11 136C15 135 15 135 18 136Z" fill="#461F24"/>
<path d="M96 119C96.33 119.66 96.66 120.32 97 121C98.65 121 100.3 121 102 121C102 123.64 102 126.28 102 129C100.68 129 99.36 129 98 129C97.67 127.02 97.34 125.04 97 123C93.04 122.67 89.08 122.34 85 122C85 121.67 85 121.34 85 121C88.63 121 92.26 121 96 121C96 120.34 96 119.68 96 119Z" fill="#C4772E"/>
<path d="M35 118C35.33 118 35.66 118 36 118C36.33 119.98 36.66 121.96 37 124C38.98 123.67 40.96 123.34 43 123C43 124.98 43 126.96 43 129C40.36 129 37.72 129 35 129C35 125.37 35 121.74 35 118Z" fill="#FBF4C5"/>
<path d="M85 67C87.625 66.8125 87.625 66.8125 90 67C89.01 68.485 89.01 68.485 88 70C87.34 70 86.68 70 86 70C86 71.32 86 72.64 86 74C84.75 75.8125 84.75 75.8125 83 77C80.8125 76.6875 80.8125 76.6875 79 76C79 74.68 79 73.36 79 72C79.6187 71.7319 80.2375 71.4638 80.875 71.1875C83.2995 70.0444 83.2995 70.0444 85 67Z" fill="#120D12"/>
<path d="M109 5C111.64 5 114.28 5 117 5C117 8.96 117 12.92 117 17C116.01 17 115.02 17 114 17C113.67 13.37 113.34 9.74 113 6C111.68 5.67 110.36 5.34 109 5Z" fill="#1F050B"/>
<path d="M33 50C35.3125 49.6875 35.3125 49.6875 38 50C39.6875 52.4375 39.6875 52.4375 41 55C41.66 55.33 42.32 55.66 43 56C43 56.99 43 57.98 43 59C38.492 57.7419 35.5087 56.0959 32 53C32.33 52.01 32.66 51.02 33 50Z" fill="#F9CC31"/>
<path d="M18 133C18.33 134.32 18.66 135.64 19 137C19.66 137 20.32 137 21 137C21 139.97 21 142.94 21 146C18.525 145.01 18.525 145.01 16 144C16 141.36 16 138.72 16 136C16.66 136 17.32 136 18 136C18 135.01 18 134.02 18 133Z" fill="#A73206"/>
<path d="M102 25C102.33 25 102.66 25 103 25C103 32.26 103 39.52 103 47C104.32 47.33 105.64 47.66 107 48C105.68 48 104.36 48 103 48C103 50.31 103 52.62 103 55C101.68 54.34 100.36 53.68 99 53C99.33 50.69 99.66 48.38 100 46C100.66 46 101.32 46 102 46C102 39.07 102 32.14 102 25Z" fill="#C5C6DA"/>
<path d="M89 141C89.99 141 90.98 141 92 141C92.4189 141.645 92.8379 142.289 93.2695 142.953C94.9053 145.322 94.9053 145.322 98.1367 145.609C99.3085 145.656 100.48 145.702 101.688 145.75C102.867 145.807 104.046 145.863 105.262 145.922C106.165 145.948 107.069 145.973 108 146C108 146.33 108 146.66 108 147C101.07 147 94.14 147 87 147C87 145.68 87 144.36 87 143C87.66 143 88.32 143 89 143C89 142.34 89 141.68 89 141Z" fill="#6C1B06"/>
<path d="M50 52C50.33 53.32 50.66 54.64 51 56C51.66 56 52.32 56 53 56C53 56.99 53 57.98 53 59C52.01 59 51.02 59 50 59C50 60.32 50 61.64 50 63C49.34 63 48.68 63 48 63C48.33 61.35 48.66 59.7 49 58C47.02 58.33 45.04 58.66 43 59C43 58.01 43 57.02 43 56C42.34 55.67 41.68 55.34 41 55C43.97 55.33 46.94 55.66 50 56C50 54.68 50 53.36 50 52Z" fill="#FDF58D"/>
<path d="M23 5C23 5.66 23 6.32 23 7C22.34 7 21.68 7 21 7C21 9.97 21 12.94 21 16C19.68 16 18.36 16 17 16C17 13.03 17 10.06 17 7C21 5 21 5 23 5Z" fill="#C3480F"/>
<path d="M54 67C54.99 67 55.98 67 57 67C57 67.99 57 68.98 57 70C58.65 70 60.3 70 62 70C61.67 71.32 61.34 72.64 61 74C62.65 74 64.3 74 66 74C65.67 75.65 65.34 77.3 65 79C64.34 79 63.68 79 63 79C62.67 80.32 62.34 81.64 62 83C62 80.36 62 77.72 62 75C61.34 75 60.68 75 60 75C60 73.68 60 72.36 60 71C58.68 71 57.36 71 56 71C56 70.01 56 69.02 56 68C55.34 67.67 54.68 67.34 54 67Z" fill="#EDAE35"/>
<path d="M47 116C48.98 116 50.96 116 53 116C52.25 117.938 52.25 117.938 51 120C48.9375 120.625 48.9375 120.625 47 121C46.67 121.66 46.34 122.32 46 123C45.34 123 44.68 123 44 123C44 121.68 44 120.36 44 119C43.01 119 42.02 119 41 119C41 118.34 41 117.68 41 117C43.97 117.495 43.97 117.495 47 118C47 117.34 47 116.68 47 116Z" fill="#FDF362"/>
<path d="M75 61C77.9288 61.6276 80.361 62.5862 83 64C83 64.66 83 65.32 83 66C80.0434 67.4783 77.2577 67.0603 74 67C73.67 66.01 73.34 65.02 73 64C73.66 63.01 74.32 62.02 75 61Z" fill="#C7842C"/>
<path d="M97 25C98.65 25 100.3 25 102 25C102 26.32 102 27.64 102 29C95.07 29 88.14 29 81 29C81 28.67 81 28.34 81 28C86.28 28 91.56 28 97 28C97 27.01 97 26.02 97 25Z" fill="#6C698A"/>
<path d="M17 0C17.33 0 17.66 0 18 0C18 1.65 18 3.3 18 5C18.99 5.33 19.98 5.66 21 6C19.35 6.33 17.7 6.66 16 7C16 10.3 16 13.6 16 17C15.67 17 15.34 17 15 17C14.8008 15.8437 14.8008 15.8437 14.5977 14.6641C14.4211 13.6612 14.2445 12.6583 14.0625 11.625C13.8885 10.6273 13.7145 9.62953 13.5352 8.60156C13.1229 6.0309 13.1229 6.0309 12 4C13.65 4 15.3 4 17 4C17 2.68 17 1.36 17 0Z" fill="#3A1B1A"/>
<path d="M27 5C33.93 5 40.86 5 48 5C48 5.33 48 5.66 48 6C46.6097 6.09088 46.6097 6.09088 45.1914 6.18359C43.3951 6.30928 43.3951 6.30928 41.5625 6.4375C40.3675 6.51871 39.1726 6.59992 37.9414 6.68359C35.1143 6.67656 35.1143 6.67656 34 8C31.667 8.04093 29.3329 8.04242 27 8C27 7.01 27 6.02 27 5Z" fill="#EA7228"/>
<path d="M96 93C96.33 93.66 96.66 94.32 97 95C97.99 95 98.98 95 100 95C100.124 95.6187 100.248 96.2375 100.375 96.875C100.872 99.1912 100.872 99.1912 103 101C102.01 101.33 101.02 101.66 100 102C99.34 102.66 98.68 103.32 98 104C98 103.01 98 102.02 98 101C97.34 101 96.68 101 96 101C96 98.36 96 95.72 96 93Z" fill="#1C171A"/>
<path d="M37 94C39.64 94 42.28 94 45 94C45 94.33 45 94.66 45 95C43.02 95 41.04 95 39 95C39.0619 96.1756 39.0619 96.1756 39.125 97.375C39 100 39 100 37 102C36.01 102 35.02 102 34 102C34 100.35 34 98.7 34 97C34.99 97 35.98 97 37 97C37 96.01 37 95.02 37 94Z" fill="#F9F9FA"/>
<path d="M35 89C36.98 89 38.96 89 41 89C41 89.33 41 89.66 41 90C39.35 90 37.7 90 36 90C36 90.99 36 91.98 36 93C38.97 93 41.94 93 45 93C45.33 92.01 45.66 91.02 46 90C46 91.32 46 92.64 46 94C43.03 94 40.06 94 37 94C37 94.99 37 95.98 37 97C36.01 97 35.02 97 34 97C34 96.34 34 95.68 34 95C33.34 94.34 32.68 93.68 32 93C32.99 93 33.98 93 35 93C35 91.68 35 90.36 35 89Z" fill="#5A4B55"/>
<path d="M80 86C81.65 86 83.3 86 85 86C85 86.99 85 87.98 85 89C87.31 89.33 89.62 89.66 92 90C92 90.66 92 91.32 92 92C87.4287 91.4514 83.3256 90.5826 79 89C79.33 88.01 79.66 87.02 80 86Z" fill="#0C040A"/>
<path d="M44 119C44 120.32 44 121.64 44 123C41.69 123.66 39.38 124.32 37 125C36.67 123.35 36.34 121.7 36 120C38.8923 119.174 40.8874 119 44 119Z" fill="#FDFCE6"/>
<path d="M75 77C76.98 77.99 76.98 77.99 79 79C79 81.31 79 83.62 79 86C77.68 86 76.36 86 75 86C75 83.03 75 80.06 75 77Z" fill="#0B0306"/>
<path d="M73 72C74.65 72 76.3 72 78 72C78 73.32 78 74.64 78 76C76.68 76 75.36 76 74 76C74 79.63 74 83.26 74 87C73.67 87 73.34 87 73 87C73 83.7 73 80.4 73 77C72.01 77.33 71.02 77.66 70 78C70 77.34 70 76.68 70 76C70.99 76 71.98 76 73 76C73 74.68 73 73.36 73 72Z" fill="#E1E1F2"/>
<path d="M30 47C32.64 47 35.28 47 38 47C38 47.99 38 48.98 38 50C37.2163 50.1031 36.4325 50.2062 35.625 50.3125C32.6695 50.776 32.6695 50.776 31 54C30 53 30 53 29.9375 49.9375C29.9581 48.9681 29.9787 47.9987 30 47Z" fill="#B6785A"/>
<path d="M23 25C23.99 25 24.98 25 26 25C26.0817 26.4157 26.1395 27.8328 26.1875 29.25C26.2223 30.0389 26.2571 30.8278 26.293 31.6406C26 34 26 34 23 38C23 33.71 23 29.42 23 25Z" fill="#F7F6F9"/>
<path d="M47.3125 94.3125C47.8694 94.5394 48.4262 94.7663 49 95C49 95.66 49 96.32 49 97C47.68 97 46.36 97 45 97C45 97.99 45 98.98 45 100C43.35 100 41.7 100 40 100C40 99.01 40 98.02 40 97C44.0263 93.8684 44.0263 93.8684 47.3125 94.3125Z" fill="#D4D9E8"/>
<path d="M35 118C35 119.32 35 120.64 35 122C32.69 122 30.38 122 28 122C28 123.98 28 125.96 28 128C27.67 128 27.34 128 27 128C27 125.36 27 122.72 27 120C32.75 118 32.75 118 35 118Z" fill="#755458"/>
<path d="M27 25C29.31 25 31.62 25 34 25C34.33 25.66 34.66 26.32 35 27C34.67 27.66 34.34 28.32 34 29C31.69 29 29.38 29 27 29C27 27.68 27 26.36 27 25Z" fill="#7475A3"/>
<path d="M91 5C94.3 5 97.6 5 101 5C100.01 6.485 100.01 6.485 99 8C96.8359 8.29297 96.8359 8.29297 94.375 8.1875C93.5577 8.16043 92.7405 8.13336 91.8984 8.10547C91.272 8.07066 90.6455 8.03586 90 8C90.33 7.01 90.66 6.02 91 5Z" fill="#B9410D"/>
<path d="M97 134C98.98 134 100.96 134 103 134C103 135.65 103 137.3 103 139C101.35 139 99.7 139 98 139C97.67 137.35 97.34 135.7 97 134Z" fill="#D05409"/>
<path d="M29 59C30.32 59 31.64 59 33 59C33 60.32 33 61.64 33 63C33.99 63 34.98 63 36 63C35.67 63.99 35.34 64.98 35 66C32 66 32 66 30.3125 64.75C29 63 29 63 29 59Z" fill="#0A0509"/>
<path d="M98 9C100.475 9.495 100.475 9.495 103 10C103 11.65 103 13.3 103 15C101.35 15 99.7 15 98 15C98 13.02 98 11.04 98 9Z" fill="#CE580A"/>
<path d="M72 110C73.65 110 75.3 110 77 110C77 110.99 77 111.98 77 113C78.98 113 80.96 113 83 113C83 113.66 83 114.32 83 115C78.1234 115.348 75.2295 114.417 71 112C71.33 111.34 71.66 110.68 72 110Z" fill="#8F5122"/>
<path d="M79 67C79.1238 67.6394 79.2475 68.2788 79.375 68.9375C79.6844 69.9584 79.6844 69.9584 80 71C80.66 71.33 81.32 71.66 82 72C81.01 72 80.02 72 79 72C78.67 73.32 78.34 74.64 78 76C77.67 75.01 77.34 74.02 77 73C74.9849 72.2668 74.9849 72.2668 73 72C72.67 72.99 72.34 73.98 72 75C72 73.68 72 72.36 72 71C75.465 70.505 75.465 70.505 79 70C79 69.01 79 68.02 79 67Z" fill="#B2A7B4"/>
<path d="M100 101C100.99 101 101.98 101 103 101C103.33 101.66 103.66 102.32 104 103C104.99 103.33 105.98 103.66 107 104C107 105.65 107 107.3 107 109C106.67 107.68 106.34 106.36 106 105C105.34 105 104.68 105 104 105C104.33 106.65 104.66 108.3 105 110C104.34 110 103.68 110 103 110C103 108.02 103 106.04 103 104C101.68 104 100.36 104 99 104C99.33 103.01 99.66 102.02 100 101Z" fill="#070205"/>
<path d="M23 55C25.31 55 27.62 55 30 55C29.67 57.64 29.34 60.28 29 63C28.67 61.68 28.34 60.36 28 59C27.01 59 26.02 59 25 59C25 58.01 25 57.02 25 56C24.34 55.67 23.68 55.34 23 55Z" fill="#3F353F"/>
<path d="M38 47C41.3 47 44.6 47 48 47C48 47.99 48 48.98 48 50C44.7 50 41.4 50 38 50C38 49.01 38 48.02 38 47Z" fill="#F5F0E7"/>
<path d="M91 9C92.98 9 94.96 9 97 9C97 10.65 97 12.3 97 14C95.68 14.33 94.36 14.66 93 15C92.34 13.02 91.68 11.04 91 9Z" fill="#811E09"/>
<path d="M91 138C91 138.99 91 139.98 91 141C90.34 141 89.68 141 89 141C89 141.66 89 142.32 89 143C88.34 143 87.68 143 87 143C86.67 143.99 86.34 144.98 86 146C86 144.02 86 142.04 86 140C85.01 139.67 84.02 139.34 83 139C85.7626 138.403 88.1603 138 91 138Z" fill="#B63A05"/>
<path d="M48 72C48.99 72 49.98 72 51 72C51 73.32 51 74.64 51 76C52.32 76 53.64 76 55 76C55 76.66 55 77.32 55 78C54.0719 78.1238 54.0719 78.1238 53.125 78.25C50.8156 78.8126 50.8156 78.8126 49.75 81.0625C49.5025 81.7019 49.255 82.3413 49 83C48.67 80.69 48.34 78.38 48 76C48.66 76 49.32 76 50 76C50 75.01 50 74.02 50 73C49.34 72.67 48.68 72.34 48 72Z" fill="#4D424A"/>
<path d="M92 63C93.4294 65.3544 94.0866 66.4803 93.625 69.25C93.4188 69.8275 93.2125 70.405 93 71C90.69 71 88.38 71 86 71C87.2897 69.6244 88.6269 68.2923 90 67C90.66 67 91.32 67 92 67C92 65.68 92 64.36 92 63Z" fill="#2B2326"/>
<path d="M37 67C39.8125 66.6875 39.8125 66.6875 43 67C44.875 69.5 44.875 69.5 46 72C45.01 72.33 44.02 72.66 43 73C43 72.01 43 71.02 43 70C41.35 70 39.7 70 38 70C37.67 69.01 37.34 68.02 37 67Z" fill="#10070C"/>
<path d="M39 60C41.64 60 44.28 60 47 60C47 60.99 47 61.98 47 63C44.36 63 41.72 63 39 63C39 62.01 39 61.02 39 60Z" fill="#B57223"/>
<path d="M103 48C104.32 48 105.64 48 107 48C107 50.31 107 52.62 107 55C105.68 54.34 104.36 53.68 103 53C103 51.35 103 49.7 103 48Z" fill="#130713"/>
<path d="M91 97C92.32 97 93.64 97 95 97C95.33 97.99 95.66 98.98 96 100C96.66 100.33 97.32 100.66 98 101C97.67 101.99 97.34 102.98 97 104C97 103.34 97 102.68 97 102C94.03 101.505 94.03 101.505 91 101C91 99.68 91 98.36 91 97Z" fill="#EAE6F1"/>
<path d="M66 68C66 69.98 66 71.96 66 74C64.35 74 62.7 74 61 74C61.3125 72.125 61.3125 72.125 62 70C65 68 65 68 66 68Z" fill="#FED83C"/>
<path d="M21 16C25.29 16 29.58 16 34 16C34 16.99 34 17.98 34 19C32.35 19 30.7 19 29 19C29 18.67 29 18.34 29 18C26.36 17.67 23.72 17.34 21 17C21 16.67 21 16.34 21 16Z" fill="#BF4511"/>
<path d="M23 5C24.65 5.33 26.3 5.66 28 6C27.34 8.97 26.68 11.94 26 15C25.67 15 25.34 15 25 15C25 12.69 25 10.38 25 8C23.68 7.67 22.36 7.34 21 7C21.66 7 22.32 7 23 7C23 6.34 23 5.68 23 5Z" fill="#DA6016"/>
<path d="M32 122C32.99 122 33.98 122 35 122C35 124.31 35 126.62 35 129C33.68 128.67 32.36 128.34 31 128C31.33 127.67 31.66 127.34 32 127C32.0406 125.334 32.0427 123.666 32 122Z" fill="#ECAC3D"/>
<path d="M27 115C27.33 115.99 27.66 116.98 28 118C28.66 118 29.32 118 30 118C30 118.66 30 119.32 30 120C29.01 120 28.02 120 27 120C27 122.97 27 125.94 27 129C26.67 129 26.34 129 26 129C25.9731 127.042 25.9536 125.083 25.9375 123.125C25.9259 122.034 25.9143 120.944 25.9023 119.82C26 117 26 117 27 115Z" fill="#BAB0BF"/>
<path d="M46 112C48.31 112 50.62 112 53 112C53 112.99 53 113.98 53 115C50.69 115 48.38 115 46 115C46 114.01 46 113.02 46 112Z" fill="#986A58"/>
<path d="M27 134C28.65 134 30.3 134 32 134C32 135.32 32 136.64 32 138C30.35 138 28.7 138 27 138C27 136.68 27 135.36 27 134Z" fill="#FD9739"/>
<path d="M32 94C32.99 94.33 33.98 94.66 35 95C34.34 96.65 33.68 98.3 33 100C32.01 100 31.02 100 30 100C29.67 98.68 29.34 97.36 29 96C29.99 96 30.98 96 32 96C32 95.34 32 94.68 32 94Z" fill="#0F080D"/>
<path d="M84 60C85.98 60 87.96 60 90 60C90.33 60.99 90.66 61.98 91 63C88.69 63 86.38 63 84 63C84 62.01 84 61.02 84 60Z" fill="#B36B31"/>
<path d="M20 134C21.65 134 23.3 134 25 134C25 135.32 25 136.64 25 138C23.35 137.67 21.7 137.34 20 137C20 136.01 20 135.02 20 134Z" fill="#E5600A"/>
<path d="M29 98C29.33 98.66 29.66 99.32 30 100C30.99 100.33 31.98 100.66 33 101C32.01 101 31.02 101 30 101C30 101.99 30 102.98 30 104C28.35 104 26.7 104 25 104C25.33 103.01 25.66 102.02 26 101C26.99 101 27.98 101 29 101C29 100.01 29 99.02 29 98Z" fill="#1F1218"/>
<path d="M78 90C79.65 90 81.3 90 83 90C83.33 91.65 83.66 93.3 84 95C83.01 95 82.02 95 81 95C81 94.34 81 93.68 81 93C80.01 92.67 79.02 92.34 78 92C78 91.34 78 90.68 78 90Z" fill="#D8DAEB"/>
<path d="M41 117C43.31 117.66 45.62 118.32 48 119C47.34 120.32 46.68 121.64 46 123C45.34 123 44.68 123 44 123C44 121.68 44 120.36 44 119C43.01 119 42.02 119 41 119C41 118.34 41 117.68 41 117Z" fill="#ECDC7D"/>
<path d="M26 112C27.32 112.33 28.64 112.66 30 113C30 114.65 30 116.3 30 118C28.68 117.67 27.36 117.34 26 117C26 115.35 26 113.7 26 112Z" fill="#C5C0CE"/>
<path d="M63 102C65.6239 105.061 66 105.732 66 110C65.01 110 64.02 110 63 110C63 107.36 63 104.72 63 102Z" fill="#F7C049"/>
<path d="M54 71C55.98 71 57.96 71 60 71C60 72.32 60 73.64 60 75C58.68 75 57.36 75 56 75C56 74.01 56 73.02 56 72C55.34 71.67 54.68 71.34 54 71Z" fill="#A47041"/>
<path d="M49 58C48.67 59.65 48.34 61.3 48 63C49.32 63.33 50.64 63.66 52 64C50.68 64 49.36 64 48 64C47.67 64.99 47.34 65.98 47 67C47 64.69 47 62.38 47 60C46.01 59.67 45.02 59.34 44 59C47 58 47 58 49 58Z" fill="#E6CA6B"/>
<path d="M58 105C58.99 105.33 59.98 105.66 61 106C61 106.66 61 107.32 61 108C61.66 108.66 62.32 109.32 63 110C61.02 110 59.04 110 57 110C57.33 108.35 57.66 106.7 58 105Z" fill="#CDA062"/>
<path d="M99 105C99.99 105 100.98 105 102 105C102 106.98 102 108.96 102 111C101.01 110.67 100.02 110.34 99 110C99 108.35 99 106.7 99 105Z" fill="#E5E9F7"/>
<path d="M101 48C101.33 48 101.66 48 102 48C102 50.31 102 52.62 102 55C101.01 55.33 100.02 55.66 99 56C98.34 56.66 97.68 57.32 97 58C97 56.35 97 54.7 97 53C98.32 53.33 99.64 53.66 101 54C101 52.02 101 50.04 101 48Z" fill="#E6E3F0"/>
<path d="M97 25C98.65 25 100.3 25 102 25C102 26.32 102 27.64 102 29C100.062 28.6875 100.062 28.6875 98 28C97.67 27.01 97.34 26.02 97 25Z" fill="#7B779D"/>
<path d="M12 17C14.64 17 17.28 17 20 17C19.67 17.99 19.34 18.98 19 20C18.67 19.67 18.34 19.34 18 19C17.67 19.66 17.34 20.32 17 21C16.34 21 15.68 21 15 21C15 20.01 15 19.02 15 18C14.01 17.67 13.02 17.34 12 17Z" fill="#2A1011"/>
<path d="M87 16C88.65 16 90.3 16 92 16C92.33 16.99 92.66 17.98 93 19C91.02 19 89.04 19 87 19C87 18.01 87 17.02 87 16Z" fill="#8D2105"/>
</svg>
