<svg width="134" height="151" viewBox="0 0 134 151" fill="none" xmlns="http://www.w3.org/2000/svg">
<path d="M24.2422 0C52.9522 0 81.6622 0 111.242 0C111.242 0.99 111.242 1.98 111.242 3C114.542 3 117.842 3 121.242 3C121.242 4.32 121.242 5.64 121.242 7C122.562 7 123.882 7 125.242 7C125.242 7.99 125.242 8.98 125.242 10C126.562 10 127.882 10 129.242 10C129.242 11.65 129.242 13.3 129.242 15C130.562 15 131.882 15 133.242 15C133.242 19.29 133.242 23.58 133.242 28C125.322 28 117.402 28 109.242 28C109.242 31.63 109.242 35.26 109.242 39C110.562 39 111.882 39 113.242 39C113.242 41.97 113.242 44.94 113.242 48C114.562 48 115.882 48 117.242 48C117.242 51.3 117.242 54.6 117.242 58C118.562 58 119.882 58 121.242 58C121.242 64.27 121.242 70.54 121.242 77C122.232 77 123.222 77 124.242 77C124.242 87.89 124.242 98.78 124.242 110C122.922 110 121.602 110 120.242 110C120.242 115.28 120.242 120.56 120.242 126C119.252 126 118.262 126 117.242 126C117.242 127.65 117.242 129.3 117.242 131C115.922 131 114.602 131 113.242 131C113.242 132.32 113.242 133.64 113.242 135C110.932 135 108.622 135 106.242 135C106.242 135.99 106.242 136.98 106.242 138C77.8622 138 49.4822 138 20.2422 138C20.2422 137.01 20.2422 136.02 20.2422 135C17.2722 135 14.3022 135 11.2422 135C10.9122 133.68 10.5822 132.36 10.2422 131C9.25219 131 8.26219 131 7.24219 131C7.24219 129.35 7.24219 127.7 7.24219 126C5.92219 126 4.60219 126 3.24219 126C3.24219 120.72 3.24219 115.44 3.24219 110C4.56219 110 5.88219 110 7.24219 110C7.24219 107.03 7.24219 104.06 7.24219 101C8.56219 101 9.88219 101 11.2422 101C11.2422 99.35 11.2422 97.7 11.2422 96C12.5622 96 13.8822 96 15.2422 96C15.2422 95.34 15.2422 94.68 15.2422 94C17.2222 93.505 17.2222 93.505 19.2422 93C19.2422 87.06 19.2422 81.12 19.2422 75C18.2522 75 17.2622 75 16.2422 75C16.2422 74.01 16.2422 73.02 16.2422 72C15.2522 72 14.2622 72 13.2422 72C13.2422 70.68 13.2422 69.36 13.2422 68C12.2522 68 11.2622 68 10.2422 68C10.2422 62.06 10.2422 56.12 10.2422 50C9.25219 50 8.26219 50 7.24219 50C7.24219 39.44 7.24219 28.88 7.24219 18C8.23219 17.67 9.22219 17.34 10.2422 17C10.5722 14.36 10.9022 11.72 11.2422 9C12.2322 9 13.2222 9 14.2422 9C14.2422 8.01 14.2422 7.02 14.2422 6C15.5622 6 16.8822 6 18.2422 6C18.2422 5.01 18.2422 4.02 18.2422 3C20.2222 3 22.2022 3 24.2422 3C24.2422 2.01 24.2422 1.02 24.2422 0Z" fill="#CE905B"/>
<path d="M26.2422 5C54.2922 5 82.3422 5 111.242 5C111.242 6.65 111.242 8.3 111.242 10C109.922 10 108.602 10 107.242 10C107.242 11.32 107.242 12.64 107.242 14C106.252 14 105.262 14 104.242 14C104.242 16.97 104.242 19.94 104.242 23C102.922 23 101.602 23 100.242 23C100.242 29.27 100.242 35.54 100.242 42C100.902 42 101.562 42 102.242 42C102.737 46.455 102.737 46.455 103.242 51C101.592 51 99.9422 51 98.2422 51C97.9122 52.65 97.5822 54.3 97.2422 56C99.5522 56 101.862 56 104.242 56C104.242 57.32 104.242 58.64 104.242 60C102.262 60 100.282 60 98.2422 60C98.0978 60.7631 97.9534 61.5263 97.8047 62.3125C97.2422 65 97.2422 65 96.2422 68C97.2322 67.67 98.2222 67.34 99.2422 67C99.7372 66.01 99.7372 66.01 100.242 65C103.654 62.6028 104.948 62 109.242 62C109.242 65.63 109.242 69.26 109.242 73C104.722 73.0247 100.201 73.0429 95.6802 73.0549C94.1418 73.06 92.6033 73.0668 91.0649 73.0754C88.8558 73.0875 86.6467 73.0932 84.4375 73.0977C83.7479 73.1028 83.0582 73.108 82.3477 73.1133C77.4699 73.1139 77.4699 73.1139 75.2422 72C75.2422 71.01 75.2422 70.02 75.2422 69C76.2322 69 77.2222 69 78.2422 69C78.2422 68.01 78.2422 67.02 78.2422 66C81.8722 66.66 85.5022 67.32 89.2422 68C88.7472 66.02 88.7472 66.02 88.2422 64C85.6022 64 82.9622 64 80.2422 64C79.2422 62 79.2422 62 80.2422 56C84.5322 56 88.8222 56 93.2422 56C93.2422 51.71 93.2422 47.42 93.2422 43C91.2622 43 89.2822 43 87.2422 43C87.2422 40.36 87.2422 37.72 87.2422 35C85.9222 34.67 84.6022 34.34 83.2422 34C83.2422 31.36 83.2422 28.72 83.2422 26C82.2522 26 81.2622 26 80.2422 26C80.2422 25.01 80.2422 24.02 80.2422 23C78.9222 23 77.6022 23 76.2422 23C76.2422 21.68 76.2422 20.36 76.2422 19C70.3022 18.67 64.3622 18.34 58.2422 18C58.2422 18.66 58.2422 19.32 58.2422 20C57.2522 20.33 56.2622 20.66 55.2422 21C54.9122 21.66 54.5822 22.32 54.2422 23C53.2522 23 52.2622 23 51.2422 23C51.2422 23.99 51.2422 24.98 51.2422 26C50.5822 26 49.9222 26 49.2422 26C49.2422 32.93 49.2422 39.86 49.2422 47C49.9022 47 50.5622 47 51.2422 47C52.5966 49.7088 52.3072 52.0093 52.2422 55C53.2322 55.33 54.2222 55.66 55.2422 56C55.2422 59.63 55.2422 63.26 55.2422 67C56.2322 67 57.2222 67 58.2422 67C58.2422 69.97 58.2422 72.94 58.2422 76C64.5122 76 70.7822 76 77.2422 76C77.2422 76.99 77.2422 77.98 77.2422 79C81.2022 79 85.1622 79 89.2422 79C88.9122 80.65 88.5822 82.3 88.2422 84C86.2622 84 84.2822 84 82.2422 84C82.2422 84.66 82.2422 85.32 82.2422 86C80.2622 86 78.2822 86 76.2422 86C76.2422 85.34 76.2422 84.68 76.2422 84C75.2522 84 74.2622 84 73.2422 84C72.5822 83.01 71.9222 82.02 71.2422 81C68.9134 80.5218 68.9134 80.5218 66.3047 80.625C65.4294 80.6173 64.5541 80.6095 63.6523 80.6016C60.8034 81.0725 60.1537 81.9415 58.2422 84C57.2522 84 56.2622 84 55.2422 84C55.2422 88.29 55.2422 92.58 55.2422 97C52.7031 96.6745 50.1641 96.349 47.625 96.0234C46.8387 96.0157 46.0523 96.008 45.2422 96C43.1036 98.1385 42.8156 99.1328 42.2422 102C43.4023 101.988 44.5625 101.977 45.7578 101.965C54.6428 101.904 63.3967 102.029 72.2422 103C72.2422 102.34 72.2422 101.68 72.2422 101C77.8672 98 77.8672 98 81.2422 98C81.2422 99.65 81.2422 101.3 81.2422 103C88.1722 103 95.1022 103 102.242 103C102.242 102.34 102.242 101.68 102.242 101C104.882 101 107.522 101 110.242 101C109.912 100.01 109.582 99.02 109.242 98C108.343 97.9624 108.343 97.9624 107.426 97.9241C104.677 97.8071 101.928 97.6849 99.1797 97.5625C98.2367 97.5232 97.2938 97.4839 96.3223 97.4434C91.231 97.2127 86.2715 96.8301 81.2422 96C81.2422 93.36 81.2422 90.72 81.2422 88C81.8081 87.8788 82.374 87.7577 82.957 87.6328C83.6905 87.4652 84.424 87.2977 85.1797 87.125C85.9106 86.9626 86.6415 86.8002 87.3945 86.6328C89.4492 86.1704 89.4492 86.1704 90.2422 84C91.8922 84 93.5422 84 95.2422 84C95.2422 82.35 95.2422 80.7 95.2422 79C101.182 79 107.122 79 113.242 79C113.242 89.89 113.242 100.78 113.242 112C111.592 112 109.942 112 108.242 112C108.242 110.68 108.242 109.36 108.242 108C77.5522 108 46.8622 108 15.2422 108C15.2422 105.36 15.2422 102.72 15.2422 100C16.4578 100.012 17.6734 100.023 18.9258 100.035C20.5104 100.045 22.0951 100.054 23.6797 100.062C24.4821 100.071 25.2846 100.079 26.1113 100.088C28.1551 100.097 30.199 100.052 32.2422 100C32.5722 99.67 32.9022 99.34 33.2422 99C33.2422 98.34 33.2422 97.68 33.2422 97C29.6122 97 25.9822 97 22.2422 97C22.5722 95.35 22.9022 93.7 23.2422 92C23.3795 90.4543 23.4848 88.9055 23.5586 87.3555C23.6005 86.5144 23.6424 85.6732 23.6855 84.8066C23.7249 83.9423 23.7642 83.078 23.8047 82.1875C23.8479 81.3038 23.8911 80.4202 23.9355 79.5098C24.0411 77.34 24.1421 75.17 24.2422 73C22.9222 73 21.6022 73 20.2422 73C19.9122 70.69 19.5822 68.38 19.2422 66C17.9222 66 16.6022 66 15.2422 66C15.2422 59.73 15.2422 53.46 15.2422 47C14.2522 47 13.2622 47 12.2422 47C12.2422 38.42 12.2422 29.84 12.2422 21C13.2322 21 14.2222 21 15.2422 21C15.1842 20.3129 15.1262 19.6259 15.0664 18.918C14.9308 16.2096 14.9003 13.6915 15.2422 11C17.3672 8.8125 17.3672 8.8125 20.2422 8C23.5547 8.3125 23.5547 8.3125 26.2422 9C26.2422 7.68 26.2422 6.36 26.2422 5Z" fill="#FDF0B0"/>
<path d="M24.2422 0C52.9522 0 81.6622 0 111.242 0C111.242 0.99 111.242 1.98 111.242 3C114.542 3 117.842 3 121.242 3C121.242 4.32 121.242 5.64 121.242 7C122.562 7 123.882 7 125.242 7C125.242 7.99 125.242 8.98 125.242 10C126.232 10 127.222 10 128.242 10C128.242 11.65 128.242 13.3 128.242 15C126.922 15.33 125.602 15.66 124.242 16C124.242 14.35 124.242 12.7 124.242 11C121.247 10.1277 118.606 9.8917 115.492 9.9375C114.293 9.95104 114.293 9.95104 113.07 9.96484C112.467 9.97645 111.864 9.98805 111.242 10C111.242 8.35 111.242 6.7 111.242 5C83.1922 5 55.1422 5 26.2422 5C26.2422 6.32 26.2422 7.64 26.2422 9C25.2934 8.95875 24.3447 8.9175 23.3672 8.875C20.1397 8.65026 20.1397 8.65026 18.2422 11C17.2522 11 16.2622 11 15.2422 11C15.2422 14.3 15.2422 17.6 15.2422 21C14.2522 21 13.2622 21 12.2422 21C12.2422 29.58 12.2422 38.16 12.2422 47C13.2322 47 14.2222 47 15.2422 47C15.2422 53.27 15.2422 59.54 15.2422 66C16.5622 66 17.8822 66 19.2422 66C19.5722 68.31 19.9022 70.62 20.2422 73C21.5622 73 22.8822 73 24.2422 73C24.2963 76.0627 24.3359 79.1245 24.3672 82.1875C24.3839 83.0518 24.4007 83.9161 24.418 84.8066C24.4244 85.6478 24.4309 86.4889 24.4375 87.3555C24.448 88.1253 24.4584 88.8951 24.4692 89.6882C24.2422 92 24.2422 92 22.2422 97C25.8722 97 29.5022 97 33.2422 97C33.5722 98.65 33.9022 100.3 34.2422 102C33.5822 101.67 32.9222 101.34 32.2422 101C29.3631 100.767 26.5007 100.58 23.6172 100.438C22.4145 100.373 22.4145 100.373 21.1875 100.307C19.2059 100.2 17.2241 100.1 15.2422 100C15.2422 100.99 15.2422 101.98 15.2422 103C14.2522 103 13.2622 103 12.2422 103C11.9122 105.97 11.5822 108.94 11.2422 112C10.2522 112 9.26219 112 8.24219 112C8.24219 116.29 8.24219 120.58 8.24219 125C9.56219 125 10.8822 125 12.2422 125C12.2422 126.65 12.2422 128.3 12.2422 130C15.5422 130 18.8422 130 22.2422 130C22.2422 130.99 22.2422 131.98 22.2422 133C49.6322 133 77.0222 133 105.242 133C105.242 132.01 105.242 131.02 105.242 130C107.552 129.67 109.862 129.34 112.242 129C112.242 128.01 112.242 127.02 112.242 126C113.232 125.34 114.222 124.68 115.242 124C115.828 120.884 115.828 120.884 115.93 117.375C115.995 116.186 116.061 114.998 116.129 113.773C116.166 112.858 116.204 111.943 116.242 111C117.232 111 118.222 111 119.242 111C119.242 100.11 119.242 89.22 119.242 78C118.252 78 117.262 78 116.242 78C116.242 72.39 116.242 66.78 116.242 61C115.252 61 114.262 61 113.242 61C112.039 58.5945 112.141 57.05 112.18 54.375C112.189 53.5577 112.198 52.7405 112.207 51.8984C112.219 51.272 112.23 50.6455 112.242 50C110.922 50 109.602 50 108.242 50C108.242 46.37 108.242 42.74 108.242 39C106.922 39 105.602 39 104.242 39C104.242 34.71 104.242 30.42 104.242 26C105.562 26 106.882 26 108.242 26C108.242 25.34 108.242 24.68 108.242 24C115.172 24 122.102 24 129.242 24C129.902 21.69 130.562 19.38 131.242 17C130.582 16.67 129.922 16.34 129.242 16C130.232 16 131.222 16 132.242 16C132.242 19.63 132.242 23.26 132.242 27C124.982 27.33 117.722 27.66 110.242 28C109.912 31.63 109.582 35.26 109.242 39C110.562 39 111.882 39 113.242 39C113.242 41.97 113.242 44.94 113.242 48C114.562 48 115.882 48 117.242 48C117.242 51.3 117.242 54.6 117.242 58C118.562 58 119.882 58 121.242 58C121.242 64.27 121.242 70.54 121.242 77C122.232 77 123.222 77 124.242 77C124.242 87.89 124.242 98.78 124.242 110C122.922 110 121.602 110 120.242 110C120.242 115.28 120.242 120.56 120.242 126C119.252 126 118.262 126 117.242 126C117.242 127.65 117.242 129.3 117.242 131C115.922 131 114.602 131 113.242 131C113.242 132.32 113.242 133.64 113.242 135C110.932 135 108.622 135 106.242 135C106.242 135.99 106.242 136.98 106.242 138C77.8622 138 49.4822 138 20.2422 138C20.2422 137.01 20.2422 136.02 20.2422 135C17.2722 135 14.3022 135 11.2422 135C10.9122 133.68 10.5822 132.36 10.2422 131C9.25219 131 8.26219 131 7.24219 131C7.24219 129.35 7.24219 127.7 7.24219 126C5.92219 126 4.60219 126 3.24219 126C3.24219 120.72 3.24219 115.44 3.24219 110C4.56219 110 5.88219 110 7.24219 110C7.24219 107.03 7.24219 104.06 7.24219 101C8.56219 101 9.88219 101 11.2422 101C11.2422 99.35 11.2422 97.7 11.2422 96C12.5622 96 13.8822 96 15.2422 96C15.2422 95.34 15.2422 94.68 15.2422 94C17.2222 93.505 17.2222 93.505 19.2422 93C19.2422 87.06 19.2422 81.12 19.2422 75C18.2522 75 17.2622 75 16.2422 75C16.2422 74.01 16.2422 73.02 16.2422 72C15.2522 72 14.2622 72 13.2422 72C13.2422 70.68 13.2422 69.36 13.2422 68C12.2522 68 11.2622 68 10.2422 68C10.2422 62.06 10.2422 56.12 10.2422 50C9.25219 50 8.26219 50 7.24219 50C7.24219 39.44 7.24219 28.88 7.24219 18C8.23219 17.67 9.22219 17.34 10.2422 17C10.5722 14.36 10.9022 11.72 11.2422 9C12.2322 9 13.2222 9 14.2422 9C14.2422 8.01 14.2422 7.02 14.2422 6C15.5622 6 16.8822 6 18.2422 6C18.2422 5.01 18.2422 4.02 18.2422 3C20.2222 3 22.2022 3 24.2422 3C24.2422 2.01 24.2422 1.02 24.2422 0Z" fill="#29161C"/>
<path d="M120.241 110C121.231 110.33 122.221 110.66 123.241 111C122.581 111 121.921 111 121.241 111C121.241 114.63 121.241 118.26 121.241 122C122.891 122.66 124.541 123.32 126.241 124C128.991 126.562 128.991 126.562 131.241 129C131.571 129.33 131.901 129.66 132.241 130C132.004 136.284 132.004 136.284 129.034 139.07C118.474 146.366 105.657 147.554 93.2413 149C92.504 149.096 91.7668 149.191 91.0072 149.29C82.718 150.27 74.3888 150.243 66.0538 150.25C65.2588 150.251 64.4638 150.252 63.6448 150.253C42.9013 150.235 18.8491 150.077 1.30379 137.625C-0.368088 135.068 -0.0680822 132.97 0.241288 130C2.24129 127 2.24129 127 4.86629 126.312C5.65004 126.209 6.43379 126.106 7.24129 126C7.24129 127.65 7.24129 129.3 7.24129 131C8.23129 131 9.22129 131 10.2413 131C10.5713 131.99 10.9013 132.98 11.2413 134C14.2113 134.33 17.1813 134.66 20.2413 135C20.2413 135.99 20.2413 136.98 20.2413 138C48.6213 138 77.0013 138 106.241 138C106.241 137.01 106.241 136.02 106.241 135C108.551 135 110.861 135 113.241 135C113.241 133.68 113.241 132.36 113.241 131C114.561 131 115.881 131 117.241 131C117.241 129.35 117.241 127.7 117.241 126C118.231 126 119.221 126 120.241 126C120.241 120.72 120.241 115.44 120.241 110Z" fill="#CED4E8"/>
<path d="M58.2422 18C60.6798 17.973 63.117 17.9531 65.5547 17.9375C66.245 17.9291 66.9353 17.9207 67.6465 17.9121C70.7905 17.8969 73.2364 17.998 76.2422 19C76.2422 20.32 76.2422 21.64 76.2422 23C77.5622 23 78.8822 23 80.2422 23C80.2422 23.99 80.2422 24.98 80.2422 26C81.2322 26 82.2222 26 83.2422 26C83.2422 32.27 83.2422 38.54 83.2422 45C82.2522 45.33 81.2622 45.66 80.2422 46C79.9122 48.64 79.5822 51.28 79.2422 54C78.2522 54 77.2622 54 76.2422 54C76.2422 57.63 76.2422 61.26 76.2422 65C75.2522 65 74.2622 65 73.2422 65C73.2422 67.31 73.2422 69.62 73.2422 72C72.5822 72 71.9222 72 71.2422 72C71.2422 73.65 71.2422 75.3 71.2422 77C69.6381 77.0271 68.0339 77.0464 66.4297 77.0625C65.0897 77.0799 65.0897 77.0799 63.7227 77.0976C61.2422 77 61.2422 77 58.2422 76C58.2422 73.03 58.2422 70.06 58.2422 67C57.2522 67 56.2622 67 55.2422 67C55.1932 66.2175 55.1442 65.4351 55.0938 64.6289C55.019 63.617 54.9442 62.6051 54.8672 61.5625C54.7628 60.0485 54.7628 60.0485 54.6562 58.5039C54.5196 57.6776 54.383 56.8513 54.2422 56C53.5822 55.67 52.9222 55.34 52.2422 55C51.6486 52.3514 51.5001 49.708 51.2422 47C50.5822 47 49.9222 47 49.2422 47C49.2422 40.07 49.2422 33.14 49.2422 26C49.9022 26 50.5622 26 51.2422 26C51.2422 25.01 51.2422 24.02 51.2422 23C52.2322 23 53.2222 23 54.2422 23C54.5722 22.01 54.9022 21.02 55.2422 20C56.2322 20 57.2222 20 58.2422 20C58.2422 19.34 58.2422 18.68 58.2422 18Z" fill="#CC221E"/>
<path d="M95.2422 113C94.5822 117.29 93.9222 121.58 93.2422 126C93.9022 126 94.5622 126 95.2422 126C95.2422 126.99 95.2422 127.98 95.2422 129C67.8522 129 40.4622 129 12.2422 129C12.2422 127.68 12.2422 126.36 12.2422 125C11.2522 125 10.2622 125 9.24219 125C9.24219 121.7 9.24219 118.4 9.24219 115C14.7171 113.175 20.6315 113.595 26.3672 113.437C27.0857 113.416 27.8043 113.395 28.5446 113.373C50.7699 112.733 73.0104 112.911 95.2422 113Z" fill="#F5C980"/>
<path d="M95.2422 79C101.182 79 107.122 79 113.242 79C113.242 89.89 113.242 100.78 113.242 112C111.592 112 109.942 112 108.242 112C108.242 110.68 108.242 109.36 108.242 108C77.5522 108 46.8622 108 15.2422 108C15.2422 105.36 15.2422 102.72 15.2422 100C17.9923 99.973 20.7421 99.9532 23.4922 99.9375C24.2695 99.9291 25.0468 99.9207 25.8477 99.9121C26.9788 99.9073 26.9788 99.9073 28.1328 99.9023C29.1697 99.8945 29.1697 99.8945 30.2275 99.8865C32.3419 100.006 34.2086 100.424 36.2422 101C37.2322 97.535 37.2322 97.535 38.2422 94C38.9022 94 39.5622 94 40.2422 94C40.2422 92.02 40.2422 90.04 40.2422 88C41.8922 87.34 43.5422 86.68 45.2422 86C45.2422 86.99 45.2422 87.98 45.2422 89C47.5522 89 49.8622 89 52.2422 89C52.7372 91.475 52.7372 91.475 53.2422 94C49.6122 94.33 45.9822 94.66 42.2422 95C42.2422 97.31 42.2422 99.62 42.2422 102C43.4023 101.988 44.5625 101.977 45.7578 101.965C54.6428 101.904 63.3967 102.029 72.2422 103C72.2422 102.34 72.2422 101.68 72.2422 101C77.8672 98 77.8672 98 81.2422 98C81.2422 99.65 81.2422 101.3 81.2422 103C88.1722 103 95.1022 103 102.242 103C102.242 102.34 102.242 101.68 102.242 101C104.882 101 107.522 101 110.242 101C109.747 99.515 109.747 99.515 109.242 98C108.643 97.9749 108.043 97.9499 107.426 97.9241C104.677 97.8071 101.928 97.6849 99.1797 97.5625C98.2367 97.5232 97.2938 97.4839 96.3223 97.4434C91.231 97.2127 86.2715 96.8301 81.2422 96C81.2422 93.36 81.2422 90.72 81.2422 88C81.8081 87.8788 82.374 87.7577 82.957 87.6328C83.6905 87.4652 84.424 87.2977 85.1797 87.125C85.9106 86.9626 86.6415 86.8002 87.3945 86.6328C89.4492 86.1704 89.4492 86.1704 90.2422 84C91.8922 84 93.5422 84 95.2422 84C95.2422 82.35 95.2422 80.7 95.2422 79Z" fill="#FDF2B2"/>
<path d="M18.2422 33C20.5517 36.6514 20.4785 39.7433 20.4297 44C20.42 44.9834 20.42 44.9834 20.4102 45.9866C20.3167 52.0176 19.8676 58.0032 19.2422 64C21.5522 64 23.8622 64 26.2422 64C26.2422 66.64 26.2422 69.28 26.2422 72C27.3192 71.9826 27.3192 71.9826 28.418 71.9648C38.3877 71.8779 48.2929 72.4117 58.2422 73C58.2422 73.99 58.2422 74.98 58.2422 76C64.5122 76 70.7822 76 77.2422 76C77.2422 76.99 77.2422 77.98 77.2422 79C81.2022 79 85.1622 79 89.2422 79C88.9122 80.65 88.5822 82.3 88.2422 84C86.2622 84 84.2822 84 82.2422 84C82.2422 84.66 82.2422 85.32 82.2422 86C80.2622 86 78.2822 86 76.2422 86C76.2422 85.34 76.2422 84.68 76.2422 84C75.2522 84 74.2622 84 73.2422 84C72.5822 83.01 71.9222 82.02 71.2422 81C68.9134 80.5218 68.9134 80.5218 66.3047 80.625C65.4294 80.6173 64.5541 80.6095 63.6523 80.6016C60.8034 81.0725 60.1537 81.9415 58.2422 84C57.2522 84 56.2622 84 55.2422 84C55.2422 88.29 55.2422 92.58 55.2422 97C52.7357 96.6745 50.2292 96.349 47.7227 96.0234C44.9853 95.765 44.9853 95.765 42.2422 98C42.2422 97.01 42.2422 96.02 42.2422 95C44.6476 93.7973 46.1922 93.8993 48.8672 93.9375C50.0931 93.951 50.0931 93.951 51.3438 93.9648C51.9702 93.9764 52.5967 93.988 53.2422 94C52.7472 92.02 52.7472 92.02 52.2422 90C50.5406 89.8144 50.5406 89.8144 48.8047 89.625C47.6291 89.4188 46.4534 89.2125 45.2422 89C44.9122 88.34 44.5822 87.68 44.2422 87C42.2622 87.495 42.2622 87.495 40.2422 88C40.2422 89.98 40.2422 91.96 40.2422 94C39.5822 94 38.9222 94 38.2422 94C38.2422 95.98 38.2422 97.96 38.2422 100C36.2622 100.99 36.2622 100.99 34.2422 102C33.9122 100.35 33.5822 98.7 33.2422 97C29.6122 97 25.9822 97 22.2422 97C22.5722 95.35 22.9022 93.7 23.2422 92C23.3795 90.4543 23.4848 88.9055 23.5586 87.3555C23.6005 86.5144 23.6424 85.6732 23.6855 84.8066C23.7445 83.5102 23.7445 83.5102 23.8047 82.1875C23.8479 81.3038 23.8911 80.4202 23.9355 79.5098C24.0411 77.34 24.1421 75.17 24.2422 73C22.9222 73 21.6022 73 20.2422 73C19.9122 70.69 19.5822 68.38 19.2422 66C17.9222 66 16.6022 66 15.2422 66C15.2422 59.73 15.2422 53.46 15.2422 47C14.2522 47 13.2622 47 12.2422 47C12.2422 43.7 12.2422 40.4 12.2422 37C14.2222 37 16.2022 37 18.2422 37C18.2422 35.68 18.2422 34.36 18.2422 33Z" fill="#FCE39B"/>
<path d="M124.242 11C124.242 12.65 124.242 14.3 124.242 16C125.232 15.67 126.222 15.34 127.242 15C127.572 13.35 127.902 11.7 128.242 10C128.572 10 128.902 10 129.242 10C129.242 11.65 129.242 13.3 129.242 15C130.562 15 131.882 15 133.242 15C133.242 19.29 133.242 23.58 133.242 28C125.652 28 118.062 28 110.242 28C110.242 27.67 110.242 27.34 110.242 27C117.502 27 124.762 27 132.242 27C132.242 23.37 132.242 19.74 132.242 16C131.912 16.33 131.582 16.66 131.242 17C131.283 17.9694 131.325 18.9388 131.367 19.9375C131.326 20.9482 131.285 21.9588 131.242 23C127.969 25.1819 127.307 25.2144 123.574 24.9766C122.682 24.925 121.789 24.8735 120.869 24.8204C119.94 24.7559 119.012 24.6914 118.055 24.625C117.114 24.5683 116.174 24.5116 115.205 24.4532C112.883 24.3117 110.563 24.1603 108.242 24C108.242 24.66 108.242 25.32 108.242 26C106.922 26 105.602 26 104.242 26C104.242 30.29 104.242 34.58 104.242 39C105.562 39 106.882 39 108.242 39C108.242 42.63 108.242 46.26 108.242 50C109.562 50 110.882 50 112.242 50C112.572 53.63 112.902 57.26 113.242 61C114.232 61 115.222 61 116.242 61C116.242 66.61 116.242 72.22 116.242 78C117.232 78 118.222 78 119.242 78C119.242 88.89 119.242 99.78 119.242 111C118.252 111 117.262 111 116.242 111C115.912 112.32 115.582 113.64 115.242 115C115.242 114.01 115.242 113.02 115.242 112C114.582 112 113.922 112 113.242 112C113.242 101.11 113.242 90.22 113.242 79C111.922 79 110.602 79 109.242 79C108.912 73.39 108.582 67.78 108.242 62C106.922 62.66 105.602 63.32 104.242 64C103.52 64.1444 102.798 64.2888 102.055 64.4375C101.457 64.6232 100.858 64.8088 100.242 65C99.9122 65.99 99.5822 66.98 99.2422 68C98.2522 68 97.2622 68 96.2422 68C97.2422 64 97.2422 64 98.2422 60C100.222 60 102.202 60 104.242 60C104.242 58.68 104.242 57.36 104.242 56C101.932 56 99.6222 56 97.2422 56C97.5722 54.35 97.9022 52.7 98.2422 51C99.8922 51 101.542 51 103.242 51C102.912 48.03 102.582 45.06 102.242 42C101.582 42 100.922 42 100.242 42C100.242 35.73 100.242 29.46 100.242 23C101.562 23 102.882 23 104.242 23C104.242 20.03 104.242 17.06 104.242 14C105.232 14 106.222 14 107.242 14C107.242 12.68 107.242 11.36 107.242 10C119.073 7.69163 119.073 7.69163 124.242 11Z" fill="#E1A76C"/>
<path d="M129.242 16C130.232 16 131.222 16 132.242 16C132.242 19.63 132.242 23.26 132.242 27C124.982 27.33 117.722 27.66 110.242 28C109.912 31.63 109.582 35.26 109.242 39C110.562 39 111.882 39 113.242 39C113.242 41.97 113.242 44.94 113.242 48C114.562 48 115.882 48 117.242 48C117.242 51.3 117.242 54.6 117.242 58C118.562 58 119.882 58 121.242 58C121.242 64.27 121.242 70.54 121.242 77C122.232 77 123.222 77 124.242 77C124.242 87.89 124.242 98.78 124.242 110C122.922 110 121.602 110 120.242 110C120.242 115.28 120.242 120.56 120.242 126C119.252 126 118.262 126 117.242 126C117.242 127.65 117.242 129.3 117.242 131C115.922 131 114.602 131 113.242 131C113.242 132.32 113.242 133.64 113.242 135C110.932 135 108.622 135 106.242 135C106.242 135.99 106.242 136.98 106.242 138C78.1922 138 50.1422 138 21.2422 138C21.5722 137.01 21.9022 136.02 22.2422 135C22.2422 135.66 22.2422 136.32 22.2422 137C25.2122 136.505 25.2122 136.505 28.2422 136C26.5922 135.67 24.9422 135.34 23.2422 135C23.2422 134.67 23.2422 134.34 23.2422 134C50.6322 134 78.0222 134 106.242 134C106.242 133.01 106.242 132.02 106.242 131C108.222 130.67 110.202 130.34 112.242 130C112.242 128.68 112.242 127.36 112.242 126C113.232 125.34 114.222 124.68 115.242 124C115.828 120.884 115.828 120.884 115.93 117.375C115.995 116.186 116.061 114.998 116.129 113.773C116.166 112.858 116.204 111.943 116.242 111C117.232 111 118.222 111 119.242 111C119.242 100.11 119.242 89.22 119.242 78C118.252 78 117.262 78 116.242 78C116.242 72.39 116.242 66.78 116.242 61C115.252 61 114.262 61 113.242 61C112.039 58.5945 112.141 57.05 112.18 54.375C112.189 53.5577 112.198 52.7405 112.207 51.8984C112.219 51.272 112.23 50.6455 112.242 50C110.922 50 109.602 50 108.242 50C108.242 46.37 108.242 42.74 108.242 39C106.922 39 105.602 39 104.242 39C104.242 34.71 104.242 30.42 104.242 26C105.562 26 106.882 26 108.242 26C108.242 25.34 108.242 24.68 108.242 24C115.172 24 122.102 24 129.242 24C129.902 21.69 130.562 19.38 131.242 17C130.252 16.505 130.252 16.505 129.242 16Z" fill="#1D0F15"/>
<path d="M56.2422 113C56.2422 113.33 56.2422 113.66 56.2422 114C53.6022 114.33 50.9622 114.66 48.2422 115C49.5673 115.061 50.8925 115.121 52.2578 115.184C54.0026 115.268 55.7474 115.353 57.4922 115.438C58.8012 115.496 58.8012 115.496 60.1367 115.557C60.9811 115.599 61.8254 115.64 62.6953 115.684C63.8579 115.739 63.8579 115.739 65.0439 115.795C67.205 115.997 69.1451 116.457 71.2422 117C73.656 117.221 76.0733 117.406 78.4922 117.563C80.3871 117.688 80.3871 117.688 82.3203 117.816C83.2845 117.877 84.2487 117.938 85.2422 118C85.2422 118.99 85.2422 119.98 85.2422 121C79.6322 121 74.0222 121 68.2422 121C68.2422 120.01 68.2422 119.02 68.2422 118C60.6522 118.33 53.0622 118.66 45.2422 119C44.9122 120.65 44.5822 122.3 44.2422 124C43.5822 124 42.9222 124 42.2422 124C42.2422 124.99 42.2422 125.98 42.2422 127C55.6072 127.495 55.6072 127.495 69.2422 128C69.2422 128.33 69.2422 128.66 69.2422 129C50.4322 129 31.6222 129 12.2422 129C12.2422 127.68 12.2422 126.36 12.2422 125C11.2522 125 10.2622 125 9.24219 125C9.24219 121.7 9.24219 118.4 9.24219 115C12.7434 113.833 15.9732 113.771 19.6211 113.684C20.3478 113.663 21.0745 113.642 21.8232 113.621C23.3639 113.577 24.9047 113.536 26.4456 113.497C28.7718 113.438 31.0978 113.373 33.4238 113.307C41.0312 113.095 48.6313 112.947 56.2422 113Z" fill="#EEBE79"/>
<path d="M26.2422 5C54.2922 5 82.3422 5 111.242 5C111.242 6.65 111.242 8.3 111.242 10C109.922 10 108.602 10 107.242 10C107.242 11.32 107.242 12.64 107.242 14C106.252 14 105.262 14 104.242 14C104.242 16.97 104.242 19.94 104.242 23C103.912 23 103.582 23 103.242 23C103.242 20.36 103.242 17.72 103.242 15C100.272 15 97.3022 15 94.2422 15C94.2628 15.9694 94.2834 16.9388 94.3047 17.9375C94.2422 21 94.2422 21 93.2422 22C91.576 22.0406 89.9083 22.0427 88.2422 22C88.0413 18.284 88.0902 17.2279 90.2422 14C72.7522 14 55.2622 14 37.2422 14C38.2322 16.31 39.2222 18.62 40.2422 21C40.2422 21.99 40.2422 22.98 40.2422 24C37.9322 24 35.6222 24 33.2422 24C32.9122 25.32 32.5822 26.64 32.2422 28C29.9322 28 27.6222 28 25.2422 28C25.2422 26.35 25.2422 24.7 25.2422 23C25.8816 22.8762 26.5209 22.7525 27.1797 22.625C27.8603 22.4188 28.5409 22.2125 29.2422 22C29.5722 21.34 29.9022 20.68 30.2422 20C30.9022 20 31.5622 20 32.2422 20C32.2422 18.02 32.2422 16.04 32.2422 14C30.5922 13.67 28.9422 13.34 27.2422 13C27.2422 12.01 27.2422 11.02 27.2422 10C52.9822 9.67 78.7222 9.34 105.242 9C105.572 8.34 105.902 7.68 106.242 7C79.8422 6.67 53.4422 6.34 26.2422 6C26.2422 5.67 26.2422 5.34 26.2422 5Z" fill="#F7CE84"/>
<path d="M25.2422 0C53.6222 0 82.0022 0 111.242 0C111.242 0.99 111.242 1.98 111.242 3C114.542 3 117.842 3 121.242 3C121.242 4.32 121.242 5.64 121.242 7C122.562 7 123.882 7 125.242 7C125.242 7.99 125.242 8.98 125.242 10C126.232 10 127.222 10 128.242 10C128.242 11.65 128.242 13.3 128.242 15C126.922 15.33 125.602 15.66 124.242 16C124.242 14.35 124.242 12.7 124.242 11C121.247 10.1277 118.606 9.8917 115.492 9.9375C114.293 9.95104 114.293 9.95104 113.07 9.96484C112.467 9.97645 111.864 9.98805 111.242 10C111.242 8.35 111.242 6.7 111.242 5C100.194 5.08425 89.1459 5.17908 78.0979 5.28753C72.9683 5.33755 67.8387 5.38388 62.709 5.42188C57.7617 5.45866 52.8146 5.505 47.8674 5.55806C45.9767 5.57665 44.086 5.59174 42.1953 5.60334C39.554 5.62014 36.9131 5.64916 34.272 5.68115C33.0905 5.68439 33.0905 5.68439 31.8852 5.6877C27.6011 5.60175 27.6011 5.60175 24.2422 8C22.9222 7.34 21.6022 6.68 20.2422 6C20.2422 5.34 20.2422 4.68 20.2422 4C21.8922 4 23.5422 4 25.2422 4C25.2422 2.68 25.2422 1.36 25.2422 0Z" fill="#270F19"/>
<path d="M18.2422 33C20.5517 36.6514 20.4785 39.7433 20.4297 44C20.42 44.9834 20.42 44.9834 20.4102 45.9866C20.3167 52.0176 19.8676 58.0032 19.2422 64C21.5522 64 23.8622 64 26.2422 64C26.2422 66.64 26.2422 69.28 26.2422 72C27.3192 71.9826 27.3192 71.9826 28.418 71.9648C38.3877 71.8779 48.2929 72.4117 58.2422 73C58.2422 73.99 58.2422 74.98 58.2422 76C59.2322 76.33 60.2222 76.66 61.2422 77C57.47 78.7516 54.5755 79.2249 50.4297 79.125C49.4539 79.107 48.478 79.0889 47.4727 79.0703C46.3686 79.0355 46.3686 79.0355 45.2422 79C45.2422 80.32 45.2422 81.64 45.2422 83C43.9222 83 42.6022 83 41.2422 83C41.2422 81.35 41.2422 79.7 41.2422 78C37.2396 77.9082 37.2396 77.9082 33.2422 78C32.9122 78.33 32.5822 78.66 32.2422 79C29.9322 79 27.6222 79 25.2422 79C25.2422 83.62 25.2422 88.24 25.2422 93C24.5822 92.67 23.9222 92.34 23.2422 92C23.5722 85.73 23.9022 79.46 24.2422 73C22.9222 73 21.6022 73 20.2422 73C19.9122 70.69 19.5822 68.38 19.2422 66C17.9222 66 16.6022 66 15.2422 66C15.2422 59.73 15.2422 53.46 15.2422 47C14.2522 47 13.2622 47 12.2422 47C12.2422 43.7 12.2422 40.4 12.2422 37C14.2222 37 16.2022 37 18.2422 37C18.2422 35.68 18.2422 34.36 18.2422 33Z" fill="#F4C881"/>
<path d="M73.2422 19C73.3659 19.6394 73.4897 20.2788 73.6172 20.9375C73.8234 21.6181 74.0297 22.2987 74.2422 23C74.9022 23.33 75.5622 23.66 76.2422 24C76.2422 24.99 76.2422 25.98 76.2422 27C76.9022 27 77.5622 27 78.2422 27C78.2422 29.97 78.2422 32.94 78.2422 36C76.2622 36.33 74.2822 36.66 72.2422 37C72.2422 38.65 72.2422 40.3 72.2422 42C70.9222 42 69.6022 42 68.2422 42C67.9122 40.35 67.5822 38.7 67.2422 37C65.5716 37.2475 65.5716 37.2475 63.8672 37.5C60.2422 38 60.2422 38 58.2422 38C57.9122 39.65 57.5822 41.3 57.2422 43C55.5922 43 53.9422 43 52.2422 43C52.2422 38.05 52.2422 33.1 52.2422 28C53.5622 28 54.8822 28 56.2422 28C56.2422 26.68 56.2422 25.36 56.2422 24C57.8922 24 59.5422 24 61.2422 24C61.2422 23.01 61.2422 22.02 61.2422 21C62.0246 20.9394 62.8071 20.8788 63.6133 20.8164C64.6252 20.7326 65.6371 20.6488 66.6797 20.5625C67.689 20.4813 68.6984 20.4001 69.7383 20.3164C72.1786 20.2679 72.1786 20.2679 73.2422 19Z" fill="#E63426"/>
<path d="M124.242 11C124.242 12.65 124.242 14.3 124.242 16C125.232 15.67 126.222 15.34 127.242 15C127.572 13.35 127.902 11.7 128.242 10C128.572 10 128.902 10 129.242 10C129.242 11.65 129.242 13.3 129.242 15C130.562 15 131.882 15 133.242 15C133.242 19.29 133.242 23.58 133.242 28C125.652 28 118.062 28 110.242 28C110.242 27.67 110.242 27.34 110.242 27C117.502 27 124.762 27 132.242 27C132.242 23.37 132.242 19.74 132.242 16C131.912 16.33 131.582 16.66 131.242 17C131.283 17.9694 131.325 18.9388 131.367 19.9375C131.326 20.9482 131.285 21.9588 131.242 23C127.969 25.1819 127.307 25.2144 123.574 24.9766C122.682 24.925 121.789 24.8735 120.869 24.8204C119.94 24.7559 119.012 24.6914 118.055 24.625C117.114 24.5683 116.174 24.5116 115.205 24.4532C112.883 24.3117 110.563 24.1603 108.242 24C108.242 24.66 108.242 25.32 108.242 26C106.922 26 105.602 26 104.242 26C104.242 22.04 104.242 18.08 104.242 14C105.232 14 106.222 14 107.242 14C107.242 12.68 107.242 11.36 107.242 10C119.073 7.69163 119.073 7.69163 124.242 11Z" fill="#864836"/>
<path d="M66.3672 79.9375C67.2773 79.9465 68.1873 79.9556 69.125 79.9649C69.8237 79.9765 70.5223 79.9881 71.2422 80C71.9022 81.32 72.5622 82.64 73.2422 84C74.2322 84 75.2222 84 76.2422 84C76.2422 87.63 76.2422 91.26 76.2422 95C75.2522 95 74.2622 95 73.2422 95C72.5822 96.98 71.9222 98.96 71.2422 101C67.6122 101 63.9822 101 60.2422 101C60.2422 100.01 60.2422 99.02 60.2422 98C59.5822 98 58.9222 98 58.2422 98C55.5613 95.3191 55.8555 93.6083 55.6172 89.875C55.5424 88.7793 55.4677 87.6836 55.3906 86.5547C55.3416 85.7117 55.2927 84.8686 55.2422 84C56.2322 84 57.2222 84 58.2422 84C58.5722 83.01 58.9022 82.02 59.2422 81C61.7669 79.7376 63.5542 79.9014 66.3672 79.9375Z" fill="#7D2518"/>
<path d="M23.2422 134C50.6322 134 78.0222 134 106.242 134C106.242 135.32 106.242 136.64 106.242 138C78.1922 138 50.1422 138 21.2422 138C21.5722 137.01 21.9022 136.02 22.2422 135C22.2422 135.66 22.2422 136.32 22.2422 137C24.2222 136.67 26.2022 136.34 28.2422 136C26.5922 135.67 24.9422 135.34 23.2422 135C23.2422 134.67 23.2422 134.34 23.2422 134Z" fill="#1F020C"/>
<path d="M26.2422 6C53.9622 6 81.6822 6 110.242 6C108.922 6.33 107.602 6.66 106.242 7C105.912 7.99 105.582 8.98 105.242 10C79.1722 10 53.1022 10 26.2422 10C26.2422 8.68 26.2422 7.36 26.2422 6Z" fill="#FDF8CE"/>
<path d="M129.242 16C130.232 16 131.222 16 132.242 16C132.242 19.63 132.242 23.26 132.242 27C121.352 27.495 121.352 27.495 110.242 28C109.912 31.63 109.582 35.26 109.242 39C110.562 39 111.882 39 113.242 39C113.242 41.97 113.242 44.94 113.242 48C114.562 48 115.882 48 117.242 48C117.242 51.3 117.242 54.6 117.242 58C118.232 58 119.222 58 120.242 58C120.242 64.27 120.242 70.54 120.242 77C119.912 77 119.582 77 119.242 77C119.182 76.1802 119.121 75.3603 119.059 74.5156C118.933 72.8991 118.933 72.8991 118.805 71.25C118.723 70.1827 118.642 69.1153 118.559 68.0156C118.301 65.5632 117.924 63.3608 117.242 61C115.922 61 114.602 61 113.242 61C112.039 58.5945 112.141 57.05 112.18 54.375C112.193 53.1491 112.193 53.1491 112.207 51.8984C112.219 51.272 112.23 50.6455 112.242 50C110.922 50 109.602 50 108.242 50C108.242 46.37 108.242 42.74 108.242 39C106.922 39 105.602 39 104.242 39C104.242 34.71 104.242 30.42 104.242 26C105.562 26 106.882 26 108.242 26C108.242 25.34 108.242 24.68 108.242 24C115.172 24 122.102 24 129.242 24C129.902 21.69 130.562 19.38 131.242 17C130.582 16.67 129.922 16.34 129.242 16Z" fill="#18060C"/>
<path d="M99.2422 23C99.5722 23 99.9022 23 100.242 23C100.242 29.27 100.242 35.54 100.242 42C100.902 42 101.562 42 102.242 42C102.572 44.97 102.902 47.94 103.242 51C101.592 51 99.9422 51 98.2422 51C97.9122 52.65 97.5822 54.3 97.2422 56C95.9222 56 94.6022 56 93.2422 56C93.2422 51.71 93.2422 47.42 93.2422 43C91.2622 43 89.2822 43 87.2422 43C87.2422 40.69 87.2422 38.38 87.2422 36C88.2322 36 89.2222 36 90.2422 36C90.9022 33.69 91.5622 31.38 92.2422 29C94.5522 29 96.8622 29 99.2422 29C99.2422 27.02 99.2422 25.04 99.2422 23Z" fill="#FDE89F"/>
<path d="M100.242 23C101.562 23 102.882 23 104.242 23C104.242 28.28 104.242 33.56 104.242 39C105.562 39 106.882 39 108.242 39C108.323 41.9381 108.383 44.8739 108.43 47.8125C108.455 48.6459 108.48 49.4793 108.506 50.3379C108.52 51.5416 108.52 51.5416 108.535 52.7695C108.559 53.8771 108.559 53.8771 108.583 55.0071C108.153 57.5223 107.168 58.3944 105.242 60C106.562 60 107.882 60 109.242 60C107.959 62.5656 106.844 62.8847 104.242 64C103.52 64.1444 102.798 64.2887 102.055 64.4375C101.457 64.6231 100.858 64.8088 100.242 65C99.9122 65.99 99.5822 66.98 99.2422 68C98.2522 68 97.2622 68 96.2422 68C97.2422 64 97.2422 64 98.2422 60C100.222 60 102.202 60 104.242 60C104.242 58.68 104.242 57.36 104.242 56C101.932 56 99.6222 56 97.2422 56C97.5722 54.35 97.9022 52.7 98.2422 51C99.8922 51 101.542 51 103.242 51C102.912 48.03 102.582 45.06 102.242 42C101.582 42 100.922 42 100.242 42C100.242 35.73 100.242 29.46 100.242 23Z" fill="#F1C378"/>
<path d="M73.2422 54C74.2322 54 75.2222 54 76.2422 54C76.2422 57.63 76.2422 61.26 76.2422 65C75.2522 65 74.2622 65 73.2422 65C73.2422 67.31 73.2422 69.62 73.2422 72C72.5822 72 71.9222 72 71.2422 72C71.2422 73.65 71.2422 75.3 71.2422 77C69.6381 77.0271 68.0339 77.0464 66.4297 77.0625C65.0897 77.0799 65.0897 77.0799 63.7227 77.0977C61.2422 77 61.2422 77 58.2422 76C58.2422 73.03 58.2422 70.06 58.2422 67C57.2522 67 56.2622 67 55.2422 67C55.2422 63.04 55.2422 59.08 55.2422 55C56.5622 55 57.8822 55 59.2422 55C59.2422 57.97 59.2422 60.94 59.2422 64C60.2322 64 61.2222 64 62.2422 64C62.2422 66.97 62.2422 69.94 62.2422 73C64.2222 73 66.2022 73 68.2422 73C68.2216 71.7831 68.2009 70.5662 68.1797 69.3125C68.1739 66.0802 68.4545 63.1507 69.2422 60C70.5622 60 71.8822 60 73.2422 60C73.2422 58.02 73.2422 56.04 73.2422 54Z" fill="#632416"/>
<path d="M83.2422 34C84.5622 34.33 85.8822 34.66 87.2422 35C87.2422 37.64 87.2422 40.28 87.2422 43C89.2222 43 91.2022 43 93.2422 43C93.2422 47.29 93.2422 51.58 93.2422 56C87.9622 56.33 82.6822 56.66 77.2422 57C77.2422 59.64 77.2422 62.28 77.2422 65C76.9122 65 76.5822 65 76.2422 65C76.2422 61.37 76.2422 57.74 76.2422 54C77.2322 54 78.2222 54 79.2422 54C79.3659 52.7006 79.4897 51.4013 79.6172 50.0625C79.8281 47.8477 79.8281 47.8477 80.2422 46C80.9022 45.67 81.5622 45.34 82.2422 45C82.7105 42.4139 82.7105 42.4139 82.8672 39.4375C82.942 38.4256 83.0167 37.4137 83.0938 36.3711C83.1427 35.5886 83.1917 34.8062 83.2422 34Z" fill="#F2C984"/>
<path d="M77.2422 76C77.2422 76.99 77.2422 77.98 77.2422 79C81.2022 79 85.1622 79 89.2422 79C88.9122 80.65 88.5822 82.3 88.2422 84C86.2622 84 84.2822 84 82.2422 84C82.2422 84.66 82.2422 85.32 82.2422 86C80.2622 86 78.2822 86 76.2422 86C76.2422 85.34 76.2422 84.68 76.2422 84C75.2522 84 74.2622 84 73.2422 84C72.5822 83.01 71.9222 82.02 71.2422 81C68.9112 80.5595 68.9112 80.5595 66.3047 80.6875C65.4294 80.6914 64.5541 80.6952 63.6523 80.6992C60.9827 80.8499 60.9827 80.8499 58.2422 83C55.3242 83.1953 55.3242 83.1953 52.0547 83.125C50.968 83.107 49.8813 83.0889 48.7617 83.0703C47.5146 83.0355 47.5146 83.0355 46.2422 83C46.2422 81.68 46.2422 80.36 46.2422 79C47.2902 78.9091 47.2902 78.9091 48.3594 78.8164C49.2695 78.7326 50.1795 78.6488 51.1172 78.5625C52.0221 78.4813 52.927 78.4001 53.8594 78.3164C56.2533 78.1301 56.2533 78.1301 58.2422 77C60.8926 76.7664 63.5244 76.58 66.1797 76.4375C67.2731 76.3727 67.2731 76.3727 68.3887 76.3066C71.3441 76.136 74.2813 76 77.2422 76Z" fill="#FDF0AC"/>
<path d="M11.2422 125C11.5722 125 11.9022 125 12.2422 125C12.2422 126.65 12.2422 128.3 12.2422 130C15.5422 130 18.8422 130 22.2422 130C22.2422 130.99 22.2422 131.98 22.2422 133C49.6322 133 77.0222 133 105.242 133C105.242 132.01 105.242 131.02 105.242 130C108.707 129.505 108.707 129.505 112.242 129C111.582 129.66 110.922 130.32 110.242 131C108.922 131 107.602 131 106.242 131C106.242 131.99 106.242 132.98 106.242 134C80.5022 134.33 54.7622 134.66 28.2422 135C29.2322 135.66 30.2222 136.32 31.2422 137C30.3025 136.983 30.3025 136.983 29.3438 136.965C28.1179 136.951 28.1179 136.951 26.8672 136.938C25.649 136.92 25.649 136.92 24.4062 136.902C22.1928 136.855 22.1928 136.855 20.2422 138C20.2422 137.01 20.2422 136.02 20.2422 135C17.2722 135 14.3022 135 11.2422 135C10.9122 133.68 10.5822 132.36 10.2422 131C9.25219 131 8.26219 131 7.24219 131C7.24219 129.35 7.24219 127.7 7.24219 126C8.23219 126 9.22219 126 10.2422 126C9.24219 129 9.24219 129 8.24219 130C9.23219 130 10.2222 130 11.2422 130C11.2422 128.35 11.2422 126.7 11.2422 125Z" fill="#4C2727"/>
<path d="M25.2422 0C52.6322 0 80.0222 0 108.242 0C108.242 0.33 108.242 0.66 108.242 1C107.234 1.02506 106.226 1.05011 105.188 1.07593C101.405 1.17098 97.6212 1.27095 93.8379 1.37231C92.2087 1.4153 90.5795 1.45699 88.9502 1.49731C78.6062 1.68031 78.6062 1.68031 68.3047 2.53125C60.297 3.45243 52.1646 3.10314 44.1172 3.0625C42.3802 3.05748 40.6432 3.05291 38.9062 3.04883C34.6849 3.0379 30.4635 3.02069 26.2422 3C25.9122 4.65 25.5822 6.3 25.2422 8C23.5922 7.67 21.9422 7.34 20.2422 7C20.2422 6.01 20.2422 5.02 20.2422 4C21.8922 4 23.5422 4 25.2422 4C25.2422 2.68 25.2422 1.36 25.2422 0Z" fill="#1C0611"/>
<path d="M108.242 50C109.562 50 110.882 50 112.242 50C112.572 53.63 112.902 57.26 113.242 61C114.232 61 115.222 61 116.242 61C116.242 66.61 116.242 72.22 116.242 78C117.232 78.33 118.222 78.66 119.242 79C115.942 79 112.642 79 109.242 79C109.242 72.73 109.242 66.46 109.242 60C107.922 60 106.602 60 105.242 60C105.572 59.01 105.902 58.02 106.242 57C106.902 57 107.562 57 108.242 57C108.242 54.69 108.242 52.38 108.242 50Z" fill="#E7AD6F"/>
<path d="M76.2422 86C77.5622 86.33 78.8822 86.66 80.2422 87C80.2422 88.98 80.2422 90.96 80.2422 93C79.5822 93.33 78.9222 93.66 78.2422 94C77.5901 96.0246 77.5901 96.0246 77.2422 98C76.5822 98 75.9222 98 75.2422 98C74.9122 98.99 74.5822 99.98 74.2422 101C73.5822 101 72.9222 101 72.2422 101C72.2422 101.66 72.2422 102.32 72.2422 103C62.2081 103.177 52.2511 102.623 42.2422 102C42.9922 97.25 42.9922 97.25 45.2422 95C49.1938 94.6564 51.8475 94.911 55.2422 97C55.2422 94.36 55.2422 91.72 55.2422 89C55.5722 89 55.9022 89 56.2422 89C56.3866 89.9281 56.5309 90.8562 56.6797 91.8125C57.1632 95.0073 57.1632 95.0073 58.2422 98C58.9022 98 59.5622 98 60.2422 98C60.2422 98.99 60.2422 99.98 60.2422 101C63.8722 101 67.5022 101 71.2422 101C71.5722 99.68 71.9022 98.36 72.2422 97C72.5722 96.34 72.9022 95.68 73.2422 95C74.2322 95 75.2222 95 76.2422 95C76.2422 92.03 76.2422 89.06 76.2422 86Z" fill="#F6D18C"/>
<path d="M58.2422 18C63.1922 18 68.1422 18 73.2422 18C72.9122 18.99 72.5822 19.98 72.2422 21C68.6122 21 64.9822 21 61.2422 21C61.2422 21.99 61.2422 22.98 61.2422 24C59.5922 24 57.9422 24 56.2422 24C56.2422 25.32 56.2422 26.64 56.2422 28C54.9222 28 53.6022 28 52.2422 28C52.2422 33.94 52.2422 39.88 52.2422 46C53.2322 46 54.2222 46 55.2422 46C55.2422 48.64 55.2422 51.28 55.2422 54C53.7572 54.495 53.7572 54.495 52.2422 55C51.9122 52.36 51.5822 49.72 51.2422 47C50.5822 47 49.9222 47 49.2422 47C49.2422 40.07 49.2422 33.14 49.2422 26C49.9022 26 50.5622 26 51.2422 26C51.2422 25.01 51.2422 24.02 51.2422 23C52.2322 23 53.2222 23 54.2422 23C54.5722 22.01 54.9022 21.02 55.2422 20C56.2322 20 57.2222 20 58.2422 20C58.2422 19.34 58.2422 18.68 58.2422 18Z" fill="#842719"/>
<path d="M114.242 10C120.867 9.875 120.867 9.875 124.242 11C124.242 12.65 124.242 14.3 124.242 16C125.562 16 126.882 16 128.242 16C128.242 18.31 128.242 20.62 128.242 23C123.292 23 118.342 23 113.242 23C113.117 13.375 113.117 13.375 114.242 10Z" fill="#CE845C"/>
<path d="M90.8828 96.1211C92.4877 96.1936 92.4877 96.1936 94.125 96.2675C95.7918 96.3517 95.7918 96.3517 97.4922 96.4375C99.1821 96.5158 99.1821 96.5158 100.906 96.5957C103.685 96.7252 106.464 96.8602 109.242 97C109.572 98.32 109.902 99.64 110.242 101C107.602 101 104.962 101 102.242 101C102.242 101.66 102.242 102.32 102.242 103C95.3122 103 88.3822 103 81.2422 103C81.2422 101.02 81.2422 99.04 81.2422 97C84.5609 95.9775 87.425 95.9555 90.8828 96.1211Z" fill="#F3C37A"/>
<path d="M69.2422 82C69.5722 82.99 69.9022 83.98 70.2422 85C70.9022 85 71.5622 85 72.2422 85C72.3235 86.4366 72.3815 87.8744 72.4297 89.3125C72.4645 90.113 72.4993 90.9135 72.5352 91.7383C72.2422 94 72.2422 94 70.9297 95.7812C68.4222 97.5922 66.243 97.2001 63.2422 97C62.9122 96.01 62.5822 95.02 62.2422 94C61.2522 94 60.2622 94 59.2422 94C58.9122 91.36 58.5822 88.72 58.2422 86C59.2322 86 60.2222 86 61.2422 86C61.2422 85.01 61.2422 84.02 61.2422 83C63.8822 82.67 66.5222 82.34 69.2422 82Z" fill="#CF1D19"/>
<path d="M18.2422 33C20.6648 36.7249 20.5072 40.4001 20.4297 44.6875C20.429 45.3765 20.4284 46.0655 20.4277 46.7754C20.3827 51.8594 20.3827 51.8594 19.2422 53C19.1696 55.1864 19.1584 57.375 19.1797 59.5625C19.1887 60.76 19.1977 61.9576 19.207 63.1914C19.2186 64.1182 19.2302 65.0451 19.2422 66C17.9222 66 16.6022 66 15.2422 66C15.2422 59.73 15.2422 53.46 15.2422 47C14.2522 47 13.2622 47 12.2422 47C12.2422 43.7 12.2422 40.4 12.2422 37C14.2222 37 16.2022 37 18.2422 37C18.2422 35.68 18.2422 34.36 18.2422 33Z" fill="#E9BC7B"/>
<path d="M119.242 78C119.572 78 119.902 78 120.242 78C120.242 93.84 120.242 109.68 120.242 126C119.252 126 118.262 126 117.242 126C117.242 127.65 117.242 129.3 117.242 131C115.922 131 114.602 131 113.242 131C113.242 132.32 113.242 133.64 113.242 135C110.932 135 108.622 135 106.242 135C106.242 133.68 106.242 132.36 106.242 131C109.212 130.505 109.212 130.505 112.242 130C112.242 128.68 112.242 127.36 112.242 126C113.232 125.34 114.222 124.68 115.242 124C115.828 120.884 115.828 120.884 115.93 117.375C115.995 116.186 116.061 114.998 116.129 113.773C116.166 112.858 116.204 111.943 116.242 111C117.232 111 118.222 111 119.242 111C119.242 100.11 119.242 89.22 119.242 78Z" fill="#33181A"/>
<path d="M99.2426 112C102.221 111.745 104.222 111.993 107.055 113C109.54 115.272 109.639 115.78 109.805 119C109.612 121.832 109.447 122.749 107.618 125C104.586 126.277 102.503 126.416 99.2426 126C96.8243 124.416 96.3235 123.231 95.3676 120.5C95.2426 118 95.2426 118 96.6176 116.375C97.422 115.694 97.422 115.694 98.2426 115C98.5726 114.01 98.9026 113.02 99.2426 112Z" fill="#E4A767"/>
<path d="M74.2422 19C74.9022 19 75.5622 19 76.2422 19C76.2422 20.32 76.2422 21.64 76.2422 23C77.5622 23 78.8822 23 80.2422 23C80.2422 23.99 80.2422 24.98 80.2422 26C81.2322 26 82.2222 26 83.2422 26C83.2422 32.27 83.2422 38.54 83.2422 45C82.2522 45.33 81.2622 45.66 80.2422 46C79.9122 48.64 79.5822 51.28 79.2422 54C78.2522 54 77.2622 54 76.2422 54C76.2422 51.03 76.2422 48.06 76.2422 45C77.2322 45 78.2222 45 79.2422 45C79.2422 39.06 79.2422 33.12 79.2422 27C78.2522 27 77.2622 27 76.2422 27C76.2422 26.01 76.2422 25.02 76.2422 24C75.2522 23.67 74.2622 23.34 73.2422 23C73.5722 21.68 73.9022 20.36 74.2422 19Z" fill="#68110E"/>
<path d="M85.3672 3C86.4191 3.09539 87.4709 3.19078 88.5547 3.28906C91.1176 3.52205 93.68 3.7591 96.2422 4C96.2422 4.33 96.2422 4.66 96.2422 5C73.1422 5 50.0422 5 26.2422 5C26.2422 4.34 26.2422 3.68 26.2422 3C31.3284 2.8558 36.4147 2.71345 41.501 2.57275C43.2272 2.52475 44.9535 2.47626 46.6797 2.42725C59.6718 2.05883 72.4072 1.77985 85.3672 3Z" fill="#371818"/>
<path d="M42.2422 46.9999C42.5722 48.3199 42.9022 49.6399 43.2422 50.9999C44.8922 50.9999 46.5422 50.9999 48.2422 50.9999C48.5722 49.6799 48.9022 48.3599 49.2422 46.9999C49.9022 46.9999 50.5622 46.9999 51.2422 46.9999C52.5966 49.7087 52.3072 52.0093 52.2422 54.9999C52.9022 55.3299 53.5622 55.6599 54.2422 55.9999C48.8733 55.5013 43.5498 54.9777 38.2422 53.9999C38.2422 54.6599 38.2422 55.3199 38.2422 55.9999C36.2622 55.9999 34.2822 55.9999 32.2422 55.9999C32.2422 54.3499 32.2422 52.6999 32.2422 50.9999C33.2322 50.6699 34.2222 50.3399 35.2422 49.9999C35.5722 49.0099 35.9022 48.0199 36.2422 46.9999C38.7331 45.7545 39.653 46.2232 42.2422 46.9999Z" fill="#F1CC84"/>
<path d="M30.6172 124.937C32.1505 124.944 32.1505 124.944 33.7148 124.951C36.224 124.963 38.7331 124.979 41.2422 125C41.2422 125.66 41.2422 126.32 41.2422 127C55.1022 127.495 55.1022 127.495 69.2422 128C69.2422 128.33 69.2422 128.66 69.2422 129C61.7491 129.025 54.256 129.043 46.7629 129.055C44.2128 129.06 41.6627 129.067 39.1125 129.075C35.4513 129.087 31.7901 129.093 28.1289 129.098C26.4132 129.105 26.4132 129.105 24.6628 129.113C23.0715 129.113 23.0715 129.113 21.448 129.113C20.0457 129.117 20.0457 129.117 18.615 129.12C16.2422 129 16.2422 129 13.2422 128C13.2422 127.34 13.2422 126.68 13.2422 126C19.0286 124.746 24.7309 124.888 30.6172 124.937Z" fill="#DEA66C"/>
<path d="M48.2422 26C48.5722 26 48.9022 26 49.2422 26C49.2711 29.7917 49.289 33.5833 49.3047 37.375C49.3131 38.4552 49.3214 39.5355 49.3301 40.6484C49.3333 41.6797 49.3365 42.7109 49.3398 43.7734C49.3451 44.7265 49.3503 45.6796 49.3557 46.6616C49.2422 49 49.2422 49 48.2422 51C45.9297 51.3125 45.9297 51.3125 43.2422 51C40.5487 48.0278 40.0685 45.5695 40.0547 41.6875C40.1166 40.4706 40.1784 39.2537 40.2422 38C42.8822 37.34 45.5222 36.68 48.2422 36C48.2422 32.7 48.2422 29.4 48.2422 26Z" fill="#EFD49B"/>
<path d="M100.242 23C101.562 23 102.882 23 104.242 23C104.242 28.28 104.242 33.56 104.242 39C105.562 39 106.882 39 108.242 39C108.242 41.97 108.242 44.94 108.242 48C106.262 47.67 104.282 47.34 102.242 47C102.242 45.35 102.242 43.7 102.242 42C101.582 42 100.922 42 100.242 42C100.242 35.73 100.242 29.46 100.242 23Z" fill="#D99D65"/>
<path d="M38.2422 116C42.299 115.975 46.3557 115.957 50.4126 115.945C51.7918 115.94 53.1711 115.933 54.5503 115.925C56.5361 115.912 58.522 115.907 60.5078 115.902C61.7018 115.897 62.8958 115.892 64.126 115.886C66.7377 115.982 68.7586 116.289 71.2422 117C73.656 117.221 76.0733 117.406 78.4922 117.562C79.7555 117.646 81.0187 117.73 82.3203 117.816C83.2845 117.877 84.2487 117.938 85.2422 118C85.2422 118.99 85.2422 119.98 85.2422 121C79.6322 121 74.0222 121 68.2422 121C68.2422 120.01 68.2422 119.02 68.2422 118C58.3422 118 48.4422 118 38.2422 118C38.2422 117.34 38.2422 116.68 38.2422 116Z" fill="#D8A160"/>
<path d="M26.2422 5C54.2922 5 82.3422 5 111.242 5C111.242 6.65 111.242 8.3 111.242 10C109.922 10 108.602 10 107.242 10C106.912 10.99 106.582 11.98 106.242 13C105.117 9.25 105.117 9.25 106.242 7C79.8422 6.67 53.4422 6.34 26.2422 6C26.2422 5.67 26.2422 5.34 26.2422 5Z" fill="#DED1B3"/>
<path d="M15.2422 11C15.5722 11 15.9022 11 16.2422 11C16.4507 17.4063 16.4005 22.9297 14.2422 29C17.7072 28.505 17.7072 28.505 21.2422 28C22.2749 30.7882 22.2873 31.8677 21.3047 34.75C20.9541 35.4925 20.6034 36.235 20.2422 37C17.6022 37 14.9622 37 12.2422 37C12.2422 31.72 12.2422 26.44 12.2422 21C13.2322 21 14.2222 21 15.2422 21C15.2422 17.7 15.2422 14.4 15.2422 11Z" fill="#EFCC8C"/>
<path d="M111.242 112C112.562 112 113.882 112 115.242 112C116.203 114.882 116.348 116.699 116.305 119.688C116.296 120.496 116.287 121.304 116.277 122.137C116.266 122.752 116.254 123.366 116.242 124C114.262 124.99 114.262 124.99 112.242 126C112.242 126.99 112.242 127.98 112.242 129C109.932 129.33 107.622 129.66 105.242 130C105.242 129.01 105.242 128.02 105.242 127C103.262 127 101.282 127 99.2422 127C99.2422 126.67 99.2422 126.34 99.2422 126C102.27 125.268 102.27 125.268 105.297 124.535C107.301 124.052 107.301 124.052 109.242 123C109.242 123.66 109.242 124.32 109.242 125C109.902 125 110.562 125 111.242 125C111.242 120.71 111.242 116.42 111.242 112Z" fill="#CE8958"/>
<path d="M25.2422 79C25.5722 79 25.9022 79 26.2422 79C26.5722 82.63 26.9022 86.26 27.2422 90C27.5722 89.67 27.9022 89.34 28.2422 89C30.5752 88.9591 32.9092 88.9576 35.2422 89C35.3672 94.75 35.3672 94.75 34.2422 97C30.2822 97 26.3222 97 22.2422 97C22.2422 95.68 22.2422 94.36 22.2422 93C23.2322 93 24.2222 93 25.2422 93C25.2422 88.38 25.2422 83.76 25.2422 79Z" fill="#FBF4B9"/>
<path d="M104.242 4C109.522 4 114.802 4 120.242 4C120.572 4.66 120.902 5.32 121.242 6C123.267 6.65213 123.267 6.65213 125.242 7C125.242 7.99 125.242 8.98 125.242 10C126.232 10 127.222 10 128.242 10C128.242 11.65 128.242 13.3 128.242 15C126.922 15.33 125.602 15.66 124.242 16C124.242 14.35 124.242 12.7 124.242 11C121.247 10.1277 118.606 9.8917 115.492 9.9375C114.293 9.95104 114.293 9.95104 113.07 9.96484C112.165 9.98225 112.165 9.98225 111.242 10C111.242 8.35 111.242 6.7 111.242 5C108.932 5 106.622 5 104.242 5C104.242 4.67 104.242 4.34 104.242 4Z" fill="#2B0C0F"/>
<path d="M35.2422 81C37.8047 83.0625 37.8047 83.0625 40.2422 86C40.0547 89.8125 40.0547 89.8125 39.2422 93C37.9222 93 36.6022 93 35.2422 93C35.2422 91.68 35.2422 90.36 35.2422 89C30.2268 89.3296 30.2268 89.3296 26.2422 92C26.2422 89.69 26.2422 87.38 26.2422 85C28.2222 84.67 30.2022 84.34 32.2422 84C32.2422 83.34 32.2422 82.68 32.2422 82C33.2322 81.67 34.2222 81.34 35.2422 81Z" fill="#FCD087"/>
<path d="M11.2422 47C12.5622 47 13.8822 47 15.2422 47C15.2422 54.92 15.2422 62.84 15.2422 71C14.9122 70.01 14.5822 69.02 14.2422 68C13.2522 68 12.2622 68 11.2422 68C11.2422 61.07 11.2422 54.14 11.2422 47Z" fill="#1E080E"/>
<path d="M128.242 10C128.572 10 128.902 10 129.242 10C129.242 11.65 129.242 13.3 129.242 15C130.562 15 131.882 15 133.242 15C133.242 19.29 133.242 23.58 133.242 28C125.652 28 118.062 28 110.242 28C110.242 27.67 110.242 27.34 110.242 27C117.502 27 124.762 27 132.242 27C132.242 23.37 132.242 19.74 132.242 16C131.912 16.33 131.582 16.66 131.242 17C131.283 17.9694 131.325 18.9388 131.367 19.9375C131.326 20.9481 131.285 21.9588 131.242 23C128.018 25.1497 127.443 25.2215 123.793 24.9766C122.945 24.925 122.098 24.8734 121.225 24.8203C120.344 24.7559 119.462 24.6914 118.555 24.625C117.662 24.5683 116.769 24.5116 115.85 24.4531C113.646 24.3117 111.444 24.1603 109.242 24C109.242 23.67 109.242 23.34 109.242 23C115.512 23 121.782 23 128.242 23C127.912 20.36 127.582 17.72 127.242 15C127.68 12 127.68 12 128.242 10Z" fill="#4F353D"/>
<path d="M58.2422 18C63.1922 18 68.1422 18 73.2422 18C72.9122 18.99 72.5822 19.98 72.2422 21C68.6122 21 64.9822 21 61.2422 21C61.2422 21.99 61.2422 22.98 61.2422 24C59.5922 24 57.9422 24 56.2422 24C56.2422 25.32 56.2422 26.64 56.2422 28C54.9222 28 53.6022 28 52.2422 28C52.2422 26.68 52.2422 25.36 52.2422 24C52.9022 24 53.5622 24 54.2422 24C54.5722 22.68 54.9022 21.36 55.2422 20C56.2322 20 57.2222 20 58.2422 20C58.2422 19.34 58.2422 18.68 58.2422 18Z" fill="#952118"/>
<path d="M70.2422 83C73.2122 83.495 73.2122 83.495 76.2422 84C76.2422 87.63 76.2422 91.26 76.2422 95C75.2522 95 74.2622 95 73.2422 95C72.5822 96.65 71.9222 98.3 71.2422 100C67.9422 100 64.6422 100 61.2422 100C61.2422 99.34 61.2422 98.68 61.2422 98C62.3559 97.8969 63.4697 97.7938 64.6172 97.6875C65.8134 97.4606 67.0097 97.2338 68.2422 97C68.9022 96.01 69.5622 95.02 70.2422 94C70.9022 94 71.5622 94 72.2422 94C72.2422 91.03 72.2422 88.06 72.2422 85C71.5822 85 70.9222 85 70.2422 85C70.2422 84.34 70.2422 83.68 70.2422 83Z" fill="#7B1712"/>
<path d="M55.2422 55C56.5622 55 57.8822 55 59.2422 55C59.2422 57.97 59.2422 60.94 59.2422 64C60.2322 64 61.2222 64 62.2422 64C62.2691 65.4791 62.2885 66.9583 62.3047 68.4375C62.3163 69.2612 62.3279 70.0849 62.3398 70.9336C62.2422 73 62.2422 73 61.2422 74C61.2422 74.66 61.2422 75.32 61.2422 76C60.2522 76 59.2622 76 58.2422 76C58.2422 73.03 58.2422 70.06 58.2422 67C57.2522 67 56.2622 67 55.2422 67C55.2422 63.04 55.2422 59.08 55.2422 55Z" fill="#982C20"/>
<path d="M97.2422 91C99.2222 91 101.202 91 103.242 91C103.242 92.65 103.242 94.3 103.242 96C106.542 96 109.842 96 113.242 96C113.242 101.28 113.242 106.56 113.242 112C111.592 112 109.942 112 108.242 112C109.562 111.67 110.882 111.34 112.242 111C112.242 107.37 112.242 103.74 112.242 100C111.582 100 110.922 100 110.242 100C109.912 99.34 109.582 98.68 109.242 98C102.312 97.67 95.3822 97.34 88.2422 97C88.2422 96.67 88.2422 96.34 88.2422 96C91.2122 96 94.1822 96 97.2422 96C97.2422 94.35 97.2422 92.7 97.2422 91Z" fill="#FCE49F"/>
<path d="M41.2422 77.9999C41.2422 79.9799 41.2422 81.9599 41.2422 83.9999C38.218 83.4119 35.2246 82.7732 32.2422 81.9999C32.2422 82.6599 32.2422 83.3199 32.2422 83.9999C30.2622 84.3299 28.2822 84.6599 26.2422 84.9999C26.2422 83.0199 26.2422 81.0399 26.2422 78.9999C31.7837 77.0373 35.4508 76.9839 41.2422 77.9999Z" fill="#FDECA8"/>
<path d="M77.2422 57C78.2322 57 79.2222 57 80.2422 57C80.2422 58.98 80.2422 60.96 80.2422 63C82.8822 63 85.5222 63 88.2422 63C88.5722 64.65 88.9022 66.3 89.2422 68C81.8136 68.2857 81.8136 68.2857 78.2422 66C78.2422 66.99 78.2422 67.98 78.2422 69C77.2522 69 76.2622 69 75.2422 69C75.2422 69.99 75.2422 70.98 75.2422 72C75.9022 72.33 76.5622 72.66 77.2422 73C76.2522 73 75.2622 73 74.2422 73C74.2422 71.35 74.2422 69.7 74.2422 68C75.2322 68 76.2222 68 77.2422 68C77.2422 64.37 77.2422 60.74 77.2422 57Z" fill="#FAE29F"/>
<path d="M61.2422 22C63.8822 22 66.5222 22 69.2422 22C69.2422 23.98 69.2422 25.96 69.2422 28C66.9322 28 64.6222 28 62.2422 28C62.2422 28.99 62.2422 29.98 62.2422 31C60.5922 31.33 58.9422 31.66 57.2422 32C57.2422 29.69 57.2422 27.38 57.2422 25C58.5622 25 59.8822 25 61.2422 25C61.2422 24.01 61.2422 23.02 61.2422 22Z" fill="#FE8770"/>
<path d="M113.242 49C114.232 49 115.222 49 116.242 49C116.572 51.97 116.902 54.94 117.242 58C118.232 58 119.222 58 120.242 58C120.242 64.27 120.242 70.54 120.242 77C119.912 77 119.582 77 119.242 77C119.182 76.1802 119.121 75.3603 119.059 74.5156C118.975 73.438 118.891 72.3603 118.805 71.25C118.723 70.1827 118.642 69.1153 118.559 68.0156C118.301 65.5632 117.924 63.3608 117.242 61C115.922 61 114.602 61 113.242 61C113.242 57.04 113.242 53.08 113.242 49Z" fill="#13030B"/>
<path d="M108.242 39C109.892 39 111.542 39 113.242 39C113.242 41.97 113.242 44.94 113.242 48C114.562 48 115.882 48 117.242 48C117.242 49.65 117.242 51.3 117.242 53C116.912 51.68 116.582 50.36 116.242 49C115.252 49 114.262 49 113.242 49C113.242 52.3 113.242 55.6 113.242 59C112.912 59 112.582 59 112.242 59C112.242 56.03 112.242 53.06 112.242 50C110.922 50 109.602 50 108.242 50C108.242 46.37 108.242 42.74 108.242 39Z" fill="#331B21"/>
<path d="M112.242 86C112.572 86 112.902 86 113.242 86C113.242 89.3 113.242 92.6 113.242 96C109.942 96 106.642 96 103.242 96C103.242 94.02 103.242 92.04 103.242 90C104.356 89.8969 105.47 89.7938 106.617 89.6875C107.813 89.4606 109.01 89.2338 110.242 89C110.902 88.01 111.562 87.02 112.242 86Z" fill="#FEF5BA"/>
<path d="M99.2422 23C99.5722 23 99.9022 23 100.242 23C100.242 28.94 100.242 34.88 100.242 41C99.9122 39.68 99.5822 38.36 99.2422 37C96.9322 37.33 94.6222 37.66 92.2422 38C92.5722 35.36 92.9022 32.72 93.2422 30C95.2222 30 97.2022 30 99.2422 30C99.2422 27.69 99.2422 25.38 99.2422 23Z" fill="#F7C983"/>
<path d="M61.2422 21C64.2122 21 67.1822 21 70.2422 21C70.2422 23.64 70.2422 26.28 70.2422 29C67.9322 29 65.6222 29 63.2422 29C63.2422 30.65 63.2422 32.3 63.2422 34C60.2722 34 57.3022 34 54.2422 34C54.2422 32.35 54.2422 30.7 54.2422 29C54.9022 29 55.5622 29 56.2422 29C56.2422 27.35 56.2422 25.7 56.2422 24C57.8922 24 59.5422 24 61.2422 24C59.9222 24.33 58.6022 24.66 57.2422 25C57.2422 27.31 57.2422 29.62 57.2422 32C58.8922 31.67 60.5422 31.34 62.2422 31C62.2422 30.01 62.2422 29.02 62.2422 28C64.5522 28 66.8622 28 69.2422 28C69.2422 26.02 69.2422 24.04 69.2422 22C66.6022 22 63.9622 22 61.2422 22C61.2422 21.67 61.2422 21.34 61.2422 21Z" fill="#F55C4D"/>
<path d="M61.2422 77C61.2422 78.32 61.2422 79.64 61.2422 81C57.7154 83.3512 56.2134 83.2144 52.0547 83.125C50.968 83.107 49.8813 83.0889 48.7617 83.0703C47.5146 83.0355 47.5146 83.0355 46.2422 83C46.2422 81.68 46.2422 80.36 46.2422 79C47.2902 78.9091 47.2902 78.9091 48.3594 78.8164C49.2695 78.7326 50.1795 78.6488 51.1172 78.5625C52.0221 78.4813 52.927 78.4001 53.8594 78.3164C56.7066 77.9383 58.2876 77 61.2422 77Z" fill="#FDF2B7"/>
<path d="M18.2422 10C18.5722 10.66 18.9022 11.32 19.2422 12C18.9122 12.99 18.5822 13.98 18.2422 15C18.9022 15 19.5622 15 20.2422 15C20.2422 14.34 20.2422 13.68 20.2422 13C22.2222 13 24.2022 13 26.2422 13C26.2422 14.98 26.2422 16.96 26.2422 19C24.5922 19 22.9422 19 21.2422 19C21.2422 19.66 21.2422 20.32 21.2422 21C19.9222 21 18.6022 21 17.2422 21C17.2153 19.3543 17.1958 17.7084 17.1797 16.0625C17.1681 15.146 17.1565 14.2295 17.1445 13.2852C17.2422 11 17.2422 11 18.2422 10Z" fill="#F1CB83"/>
<path d="M112.242 59C112.572 59.66 112.902 60.32 113.242 61C114.232 61 115.222 61 116.242 61C116.242 66.61 116.242 72.22 116.242 78C117.232 78.33 118.222 78.66 119.242 79C117.262 79 115.282 79 113.242 79C113.26 77.3371 113.26 77.3371 113.277 75.6406C113.287 74.1771 113.296 72.7135 113.305 71.25C113.313 70.5204 113.321 69.7908 113.33 69.0391C113.346 65.5133 113.195 62.3897 112.242 59Z" fill="#C17E55"/>
<path d="M12.2422 37C13.5622 37 14.8822 37 16.2422 37C16.2422 46.57 16.2422 56.14 16.2422 66C15.9122 66 15.5822 66 15.2422 66C15.2422 59.73 15.2422 53.46 15.2422 47C14.2522 47 13.2622 47 12.2422 47C12.2422 43.7 12.2422 40.4 12.2422 37Z" fill="#C1895D"/>
<path d="M20.2415 45C22.2215 45 24.2015 45 26.2415 45C26.2415 48.63 26.2415 52.26 26.2415 56C24.9215 56 23.6015 56 22.2415 56C19.9156 52.3658 20.0788 49.2291 20.2415 45Z" fill="#FBE4A0"/>
<path d="M73.2422 19C73.7422 21 73.7422 21 74.2422 23C74.5516 23.9281 74.5516 23.9281 74.8672 24.875C75.3734 27.7433 74.8213 30.1689 74.2422 33C72.5922 33 70.9422 33 69.2422 33C68.9122 31.68 68.5822 30.36 68.2422 29C68.9022 29 69.5622 29 70.2422 29C70.1803 27.7213 70.1184 26.4425 70.0547 25.125C69.9492 22.9453 69.9492 22.9453 70.2422 21C71.2322 20.34 72.2222 19.68 73.2422 19Z" fill="#E9382A"/>
<path d="M15.2422 100C18.0344 99.9193 20.8244 99.8597 23.6172 99.8125C24.4112 99.7874 25.2053 99.7622 26.0234 99.7363C28.098 99.71 30.1732 99.8451 32.2422 100C32.9022 100.99 33.5622 101.98 34.2422 103C27.9722 103 21.7022 103 15.2422 103C15.2422 102.01 15.2422 101.02 15.2422 100Z" fill="#EDD190"/>
<path d="M108.242 50C109.562 50 110.882 50 112.242 50C112.242 53.96 112.242 57.92 112.242 62C111.252 62 110.262 62 109.242 62C109.242 61.34 109.242 60.68 109.242 60C107.922 60 106.602 60 105.242 60C105.572 59.01 105.902 58.02 106.242 57C106.902 57 107.562 57 108.242 57C108.242 54.69 108.242 52.38 108.242 50Z" fill="#D99C66"/>
<path d="M30.2422 20C30.9022 20 31.5622 20 32.2422 20C32.5722 20.66 32.9022 21.32 33.2422 22C35.5638 22.4073 37.8991 22.7444 40.2422 23C40.2422 23.33 40.2422 23.66 40.2422 24C37.9322 24 35.6222 24 33.2422 24C32.9122 25.32 32.5822 26.64 32.2422 28C29.9322 28 27.6222 28 25.2422 28C25.2422 26.35 25.2422 24.7 25.2422 23C25.8816 22.8762 26.5209 22.7525 27.1797 22.625C28.2006 22.3156 28.2006 22.3156 29.2422 22C29.5722 21.34 29.9022 20.68 30.2422 20Z" fill="#F7D595"/>
<path d="M66.2422 79.75C67.1291 79.7242 68.0159 79.6984 68.9297 79.6719C69.6928 79.7802 70.4559 79.8884 71.2422 80C71.9022 80.99 72.5622 81.98 73.2422 83C69.2822 83 65.3222 83 61.2422 83C61.2422 83.99 61.2422 84.98 61.2422 86C59.5922 85.67 57.9422 85.34 56.2422 85C55.9122 86.32 55.5822 87.64 55.2422 89C55.2422 87.35 55.2422 85.7 55.2422 84C56.2322 84 57.2222 84 58.2422 84C58.5722 83.01 58.9022 82.02 59.2422 81C61.7104 79.7659 63.4888 79.798 66.2422 79.75Z" fill="#90301C"/>
<path d="M104.242 57C104.572 57.99 104.902 58.98 105.242 60C106.562 60 107.882 60 109.242 60C107.959 62.5656 106.844 62.8847 104.242 64C103.52 64.1444 102.798 64.2887 102.055 64.4375C101.158 64.7159 101.158 64.7159 100.242 65C99.9122 65.99 99.5822 66.98 99.2422 68C98.2522 68 97.2622 68 96.2422 68C96.9089 65.3333 97.5755 62.6667 98.2422 60C100.222 60 102.202 60 104.242 60C104.242 59.01 104.242 58.02 104.242 57Z" fill="#F8D18E"/>
<path d="M97.2422 84C101.202 84.33 105.162 84.66 109.242 85C109.572 86.32 109.902 87.64 110.242 89C105.726 89.0765 101.651 89.1023 97.2422 88C97.2422 86.68 97.2422 85.36 97.2422 84Z" fill="#FAD691"/>
<path d="M112.242 126C113.562 126 114.882 126 116.242 126C116.242 127.65 116.242 129.3 116.242 131C115.252 131 114.262 131 113.242 131C113.242 132.32 113.242 133.64 113.242 135C110.932 135 108.622 135 106.242 135C106.242 133.68 106.242 132.36 106.242 131C108.222 130.67 110.202 130.34 112.242 130C112.242 128.68 112.242 127.36 112.242 126Z" fill="#221521"/>
<path d="M108.242 39C108.242 41.97 108.242 44.94 108.242 48C105.272 47.505 105.272 47.505 102.242 47C102.242 45.35 102.242 43.7 102.242 42C101.582 41.67 100.922 41.34 100.242 41C103.33 39.2354 104.475 39 108.242 39Z" fill="#E0A865"/>
<path d="M74.2422 19C74.9022 19 75.5622 19 76.2422 19C76.2422 20.32 76.2422 21.64 76.2422 23C77.5622 23 78.8822 23 80.2422 23C80.2422 23.99 80.2422 24.98 80.2422 26C81.2322 26 82.2222 26 83.2422 26C83.2422 32.27 83.2422 38.54 83.2422 45C82.9122 45 82.5822 45 82.2422 45C82.2422 39.06 82.2422 33.12 82.2422 27C80.2622 27 78.2822 27 76.2422 27C76.2422 26.01 76.2422 25.02 76.2422 24C75.2522 23.67 74.2622 23.34 73.2422 23C73.5722 21.68 73.9022 20.36 74.2422 19Z" fill="#7F3222"/>
<path d="M21.2422 94C21.5722 94.99 21.9022 95.98 22.2422 97C25.8722 97 29.5022 97 33.2422 97C33.5722 98.65 33.9022 100.3 34.2422 102C33.5822 101.67 32.9222 101.34 32.2422 101C29.5296 100.768 26.8345 100.581 24.1172 100.438C23.3631 100.394 22.609 100.351 21.832 100.307C19.969 100.201 18.1056 100.1 16.2422 100C16.2422 99.67 16.2422 99.34 16.2422 99C17.8922 99 19.5422 99 21.2422 99C21.2422 97.35 21.2422 95.7 21.2422 94Z" fill="#5D2E23"/>
<path d="M116.242 61C119.564 65.4287 119.588 66.4661 119.43 71.75C119.403 72.9205 119.376 74.0909 119.348 75.2969C119.313 76.1889 119.278 77.0809 119.242 78C118.252 78 117.262 78 116.242 78C116.242 72.39 116.242 66.78 116.242 61Z" fill="#25070E"/>
<path d="M73.242 54C74.232 54 75.222 54 76.242 54C76.242 57.63 76.242 61.26 76.242 65C75.252 65 74.262 65 73.242 65C73.242 67.31 73.242 69.62 73.242 72C72.912 72 72.582 72 72.242 72C72.0575 59.3303 72.0575 59.3303 73.242 54Z" fill="#794D3D"/>
<path d="M25.2422 70C25.5722 70.66 25.9022 71.32 26.2422 72C28.2668 72.6521 28.2668 72.6521 30.2422 73C28.9222 73 27.6022 73 26.2422 73C25.9122 79.6 25.5822 86.2 25.2422 93C24.5822 92.67 23.9222 92.34 23.2422 92C23.5722 85.73 23.9022 79.46 24.2422 73C22.9222 73 21.6022 73 20.2422 73C20.2422 72.34 20.2422 71.68 20.2422 71C21.8922 70.67 23.5422 70.34 25.2422 70Z" fill="#DDBB84"/>
<path d="M83.2422 45C83.2422 47.31 83.2422 49.62 83.2422 52C82.2522 52 81.2622 52 80.2422 52C80.2422 53.65 80.2422 55.3 80.2422 57C79.2522 57 78.2622 57 77.2422 57C77.2422 59.64 77.2422 62.28 77.2422 65C76.9122 65 76.5822 65 76.2422 65C76.2422 61.37 76.2422 57.74 76.2422 54C77.2322 54 78.2222 54 79.2422 54C79.3659 52.7006 79.4897 51.4013 79.6172 50.0625C79.8281 47.8477 79.8281 47.8477 80.2422 46C82.2422 45 82.2422 45 83.2422 45Z" fill="#B3936C"/>
<path d="M94.2422 114C95.2322 114 96.2222 114 97.2422 114C97.0566 115.072 96.8709 116.145 96.6797 117.25C96.291 120.582 96.4255 121.938 97.2422 125C96.8047 127.75 96.8047 127.75 96.2422 130C95.2522 129.67 94.2622 129.34 93.2422 129C93.9022 129 94.5622 129 95.2422 129C95.2422 128.01 95.2422 127.02 95.2422 126C94.5822 126 93.9222 126 93.2422 126C93.2152 124.375 93.1958 122.75 93.1797 121.125C93.1681 120.22 93.1565 119.315 93.1445 118.383C93.2422 116 93.2422 116 94.2422 114Z" fill="#C0824F"/>
<path d="M33.2422 64C35.7172 64.495 35.7172 64.495 38.2422 65C38.5722 67.31 38.9022 69.62 39.2422 72C37.2622 72 35.2822 72 33.2422 72C33.2422 69.36 33.2422 66.72 33.2422 64Z" fill="#FDDB98"/>
<path d="M27.2422 14C28.8922 14 30.5422 14 32.2422 14C32.2422 15.98 32.2422 17.96 32.2422 20C31.5822 20 30.9222 20 30.2422 20C30.2422 20.66 30.2422 21.32 30.2422 22C28.5922 22 26.9422 22 25.2422 22C25.2422 21.01 25.2422 20.02 25.2422 19C25.9022 19 26.5622 19 27.2422 19C27.2422 17.35 27.2422 15.7 27.2422 14Z" fill="#FEF7B8"/>
<path d="M76.2422 86C77.5622 86.33 78.8822 86.66 80.2422 87C80.2422 88.98 80.2422 90.96 80.2422 93C79.2522 93.495 79.2522 93.495 78.2422 94C77.5901 96.0246 77.5901 96.0246 77.2422 98C76.5822 98 75.9222 98 75.2422 98C74.9122 98.66 74.5822 99.32 74.2422 100C73.2522 100 72.2622 100 71.2422 100C71.9022 98.35 72.5622 96.7 73.2422 95C74.2322 95 75.2222 95 76.2422 95C76.2422 92.03 76.2422 89.06 76.2422 86Z" fill="#C89760"/>
<path d="M80.2422 38C80.5722 38 80.9022 38 81.2422 38C81.5722 40.64 81.9022 43.28 82.2422 46C81.5822 46 80.9222 46 80.2422 46C79.9122 48.64 79.5822 51.28 79.2422 54C78.2522 54 77.2622 54 76.2422 54C76.2422 51.03 76.2422 48.06 76.2422 45C77.2322 44.67 78.2222 44.34 79.2422 44C79.5722 42.02 79.9022 40.04 80.2422 38Z" fill="#652A1D"/>
<path d="M61.2422 84C63.5522 84 65.8622 84 68.2422 84C68.2422 85.32 68.2422 86.64 68.2422 88C65.2722 88.66 62.3022 89.32 59.2422 90C59.2422 89.01 59.2422 88.02 59.2422 87C59.9022 87 60.5622 87 61.2422 87C61.2422 86.01 61.2422 85.02 61.2422 84Z" fill="#F94A35"/>
<path d="M54.2422 85C54.5722 85 54.9022 85 55.2422 85C55.2422 88.96 55.2422 92.92 55.2422 97C52.7357 96.6745 50.2292 96.349 47.7227 96.0234C44.9853 95.765 44.9853 95.765 42.2422 98C42.2422 97.01 42.2422 96.02 42.2422 95C44.6476 93.7973 46.1922 93.8993 48.8672 93.9375C50.0931 93.951 50.0931 93.951 51.3438 93.9648C52.2835 93.9822 52.2835 93.9822 53.2422 94C52.9122 92.35 52.5822 90.7 52.2422 89C52.9022 89 53.5622 89 54.2422 89C54.2422 87.68 54.2422 86.36 54.2422 85Z" fill="#FDE4A1"/>
<path d="M47.2422 37C47.2422 38.65 47.2422 40.3 47.2422 42C45.5922 42 43.9422 42 42.2422 42C42.2422 43.65 42.2422 45.3 42.2422 47C41.5822 46.67 40.9222 46.34 40.2422 46C40.2422 43.36 40.2422 40.72 40.2422 38C42.7328 37.3129 44.6211 37 47.2422 37Z" fill="#FCE29E"/>
<path d="M121.242 7C122.562 7 123.882 7 125.242 7C125.242 7.99 125.242 8.98 125.242 10C126.232 10 127.222 10 128.242 10C128.242 11.65 128.242 13.3 128.242 15C126.922 15.33 125.602 15.66 124.242 16C124.242 14.35 124.242 12.7 124.242 11C123.252 11 122.262 11 121.242 11C121.242 9.68 121.242 8.36 121.242 7Z" fill="#19040A"/>
<path d="M107.242 112C108.562 112 109.882 112 111.242 112C112.539 116.611 111.953 120.338 111.242 125C110.582 125 109.922 125 109.242 125C109.242 121.7 109.242 118.4 109.242 115C108.252 115 107.262 115 106.242 115C106.572 114.01 106.902 113.02 107.242 112Z" fill="#B6703D"/>
<path d="M69.2412 60C70.2312 60 71.2212 60 72.2412 60C72.4196 64.5481 72.2391 67.8794 70.2412 72C69.5812 72 68.9212 72 68.2412 72C68.1596 67.8386 68.2588 64.0528 69.2412 60Z" fill="#8F1212"/>
<path d="M55.2422 55C56.2322 55 57.2222 55 58.2422 55C58.2422 58.96 58.2422 62.92 58.2422 67C57.2522 67 56.2622 67 55.2422 67C55.2422 63.04 55.2422 59.08 55.2422 55Z" fill="#6A2A1C"/>
<path d="M75.2422 24C75.5722 24.99 75.9022 25.98 76.2422 27C76.9022 27 77.5622 27 78.2422 27C78.2422 29.97 78.2422 32.94 78.2422 36C76.9222 35.67 75.6022 35.34 74.2422 35C74.1172 27.375 74.1172 27.375 75.2422 24Z" fill="#E52C21"/>
<path d="M55.2422 89C55.5722 89 55.9022 89 56.2422 89C56.3866 89.9281 56.5309 90.8562 56.6797 91.8125C57.1632 95.0073 57.1632 95.0073 58.2422 98C58.9022 98 59.5622 98 60.2422 98C60.2422 98.66 60.2422 99.32 60.2422 100C57.4914 100.917 55.8827 101.109 53.0547 101.062C51.1675 101.032 51.1675 101.032 49.2422 101C52.2422 99 52.2422 99 55.2422 99C55.2422 95.7 55.2422 92.4 55.2422 89Z" fill="#DBAC72"/>
<path d="M101.242 97C103.882 97 106.522 97 109.242 97C109.572 98.32 109.902 99.64 110.242 101C107.272 101 104.302 101 101.242 101C101.242 99.68 101.242 98.36 101.242 97Z" fill="#F5D188"/>
<path d="M47.2422 84C49.8822 84 52.5222 84 55.2422 84C54.9122 85.65 54.5822 87.3 54.2422 89C51.9322 88.67 49.6222 88.34 47.2422 88C47.2422 86.68 47.2422 85.36 47.2422 84Z" fill="#F8CD84"/>
<path d="M111.242 112C112.562 112 113.882 112 115.242 112C115.572 114.31 115.902 116.62 116.242 119C115.912 118.34 115.582 117.68 115.242 117C114.582 117 113.922 117 113.242 117C113.242 119.31 113.242 121.62 113.242 124C111.242 122 111.242 122 111.047 119.617C111.07 118.712 111.093 117.807 111.117 116.875C111.135 115.965 111.153 115.055 111.172 114.117C111.195 113.419 111.218 112.72 111.242 112Z" fill="#CC8954"/>
<path d="M74.2422 84C74.9022 84 75.5622 84 76.2422 84C76.2422 87.63 76.2422 91.26 76.2422 95C75.2522 95 74.2622 95 73.2422 95C73.2153 93.3543 73.1958 91.7084 73.1797 90.0625C73.1681 89.146 73.1565 88.2295 73.1445 87.2852C73.2422 85 73.2422 85 74.2422 84Z" fill="#601B14"/>
<path d="M73.2422 65C74.5622 65 75.8822 65 77.2422 65C77.2422 65.99 77.2422 66.98 77.2422 68C76.2522 68 75.2622 68 74.2422 68C74.4278 68.9281 74.6134 69.8562 74.8047 70.8125C75.2422 74 75.2422 74 74.2422 77C73.2522 77 72.2622 77 71.2422 77C71.2422 75.35 71.2422 73.7 71.2422 72C71.9022 72 72.5622 72 73.2422 72C73.2422 69.69 73.2422 67.38 73.2422 65Z" fill="#D9B678"/>
<path d="M24.2422 0C24.7957 2.07554 25.2422 3.84366 25.2422 6C25.5722 6.99 25.9022 7.98 26.2422 9C23.9322 9 21.6222 9 19.2422 9C19.2422 8.34 19.2422 7.68 19.2422 7C18.5822 6.67 17.9222 6.34 17.2422 6C17.5722 5.01 17.9022 4.02 18.2422 3C20.2222 3 22.2022 3 24.2422 3C24.2422 2.01 24.2422 1.02 24.2422 0Z" fill="#443030"/>
<path d="M17.2422 93C18.2322 93.33 19.2222 93.66 20.2422 94C19.5822 95.32 18.9222 96.64 18.2422 98C15.2722 97.505 15.2722 97.505 12.2422 97C12.5206 97.9591 12.5206 97.9591 12.8047 98.9375C12.9491 99.6181 13.0934 100.299 13.2422 101C12.2422 102 12.2422 102 9.67969 102.062C8.87531 102.042 8.07094 102.021 7.24219 102C8.56219 101.67 9.88219 101.34 11.2422 101C11.2422 99.35 11.2422 97.7 11.2422 96C12.5622 96 13.8822 96 15.2422 96C15.2422 95.34 15.2422 94.68 15.2422 94C15.9022 93.67 16.5622 93.34 17.2422 93Z" fill="#3D2E34"/>
<path d="M109.242 96C110.562 96 111.882 96 113.242 96C113.242 101.28 113.242 106.56 113.242 112C111.592 112 109.942 112 108.242 112C109.562 111.67 110.882 111.34 112.242 111C112.242 107.37 112.242 103.74 112.242 100C111.582 100 110.922 100 110.242 100C109.912 98.68 109.582 97.36 109.242 96Z" fill="#FAE3A1"/>
<path d="M61.2422 77C64.5422 77 67.8422 77 71.2422 77C71.2422 77.99 71.2422 78.98 71.2422 80C67.9422 80 64.6422 80 61.2422 80C61.2422 79.01 61.2422 78.02 61.2422 77Z" fill="#EDC596"/>
<path d="M39.2422 18.9999C39.5722 20.3199 39.9022 21.6399 40.2422 22.9999C37.9322 22.9999 35.6222 22.9999 33.2422 22.9999C33.2422 21.6799 33.2422 20.3599 33.2422 18.9999C35.7331 17.7545 36.653 18.2232 39.2422 18.9999Z" fill="#EFC180"/>
<path d="M82.2422 64C84.5522 64 86.8622 64 89.2422 64C89.2422 65.32 89.2422 66.64 89.2422 68C86.9322 68 84.6222 68 82.2422 68C82.2422 66.68 82.2422 65.36 82.2422 64Z" fill="#F3D18B"/>
<path d="M92.2422 29C94.5522 29 96.8622 29 99.2422 29C99.2422 29.33 99.2422 29.66 99.2422 30C97.2622 30 95.2822 30 93.2422 30C92.9122 32.64 92.5822 35.28 92.2422 38C90.5922 38.33 88.9422 38.66 87.2422 39C87.2422 38.01 87.2422 37.02 87.2422 36C88.2322 36 89.2222 36 90.2422 36C90.9022 33.69 91.5622 31.38 92.2422 29Z" fill="#FBDE94"/>
<path d="M7.24219 102C8.56219 102.33 9.88219 102.66 11.2422 103C10.9122 105.64 10.5822 108.28 10.2422 111C9.25219 110.67 8.26219 110.34 7.24219 110C7.24219 107.36 7.24219 104.72 7.24219 102Z" fill="#200E16"/>
<path d="M62.2422 22C64.5522 22 66.8622 22 69.2422 22C68.9297 23.9375 68.9297 23.9375 68.2422 26C67.2522 26.33 66.2622 26.66 65.2422 27C64.2522 26.34 63.2622 25.68 62.2422 25C62.2422 24.01 62.2422 23.02 62.2422 22Z" fill="#FE9C83"/>
<path d="M111.242 14C111.902 14 112.562 14 113.242 14C113.242 16.97 113.242 19.94 113.242 23C111.922 23 110.602 23 109.242 23C109.902 20.03 110.562 17.06 111.242 14Z" fill="#A65D47"/>
<path d="M69.2422 82C70.3506 85.3253 70.0867 87.6218 69.2422 91C68.5822 91 67.9222 91 67.2422 91C66.9122 90.01 66.5822 89.02 66.2422 88C66.9022 88 67.5622 88 68.2422 88C68.2422 86.68 68.2422 85.36 68.2422 84C65.9322 84 63.6222 84 61.2422 84C61.2422 83.67 61.2422 83.34 61.2422 83C63.8822 82.67 66.5222 82.34 69.2422 82Z" fill="#E12C23"/>
<path d="M96.2422 125C97.2322 125 98.2222 125 99.2422 125C99.2422 125.66 99.2422 126.32 99.2422 127C101.222 127 103.202 127 105.242 127C105.242 127.66 105.242 128.32 105.242 129C102.272 129 99.3022 129 96.2422 129C96.2422 127.68 96.2422 126.36 96.2422 125Z" fill="#B0683D"/>
<path d="M97.2422 91C99.2222 91 101.202 91 103.242 91C103.242 92.32 103.242 93.64 103.242 95C101.262 95 99.2822 95 97.2422 95C97.2422 93.68 97.2422 92.36 97.2422 91Z" fill="#F9CC80"/>
<path d="M22.2422 50C23.5622 50 24.8822 50 26.2422 50C26.2422 51.98 26.2422 53.96 26.2422 56C24.9222 56 23.6022 56 22.2422 56C22.2422 54.02 22.2422 52.04 22.2422 50Z" fill="#F8CC83"/>
<path d="M100.242 15C101.232 15 102.222 15 103.242 15C103.242 17.64 103.242 20.28 103.242 23C102.252 23 101.262 23 100.242 23C100.242 20.36 100.242 17.72 100.242 15Z" fill="#FDE8A3"/>
<path d="M27.2422 97C29.2222 97 31.2022 97 33.2422 97C33.5722 98.65 33.9022 100.3 34.2422 102C31.6022 101.34 28.9622 100.68 26.2422 100C26.5722 99.01 26.9022 98.02 27.2422 97Z" fill="#733D26"/>
<path d="M77.2422 88C77.5722 88 77.9022 88 78.2422 88C78.3866 88.7631 78.5309 89.5263 78.6797 90.3125C79.2054 93.0817 79.2054 93.0817 80.2422 96C78.9525 97.3756 77.6153 98.7077 76.2422 100C75.5822 100 74.9222 100 74.2422 100C74.5722 99.01 74.9022 98.02 75.2422 97C75.9022 97.33 76.5622 97.66 77.2422 98C77.2422 94.7 77.2422 91.4 77.2422 88Z" fill="#F3CA83"/>
<path d="M112.242 63C112.572 63 112.902 63 113.242 63C113.242 67.29 113.242 71.58 113.242 76C112.252 75.67 111.262 75.34 110.242 75C110.242 72.5232 110.744 70.3014 111.242 67.875C111.428 66.9649 111.613 66.0548 111.805 65.1172C111.949 64.4185 112.093 63.7198 112.242 63Z" fill="#E2A367"/>
<path d="M15.2422 66C16.5622 66 17.8822 66 19.2422 66C19.2422 67.65 19.2422 69.3 19.2422 71C17.2622 71.33 15.2822 71.66 13.2422 72C13.7482 69.8313 14.242 68.0003 15.2422 66Z" fill="#3A1F1D"/>
<path d="M74.2422 28.9999C74.2422 30.3199 74.2422 31.6399 74.2422 32.9999C72.5922 32.9999 70.9422 32.9999 69.2422 32.9999C68.9122 31.6799 68.5822 30.3599 68.2422 28.9999C70.7331 27.7545 71.653 28.2232 74.2422 28.9999Z" fill="#FC4532"/>
<path d="M112.242 126C113.562 126 114.882 126 116.242 126C116.242 127.65 116.242 129.3 116.242 131C114.262 131 112.282 131 110.242 131C110.902 130.67 111.562 130.34 112.242 130C112.242 128.68 112.242 127.36 112.242 126Z" fill="#110810"/>
<path d="M113.242 117C113.902 117 114.562 117 115.242 117C115.572 119.31 115.902 121.62 116.242 124C115.252 124.66 114.262 125.32 113.242 126C113.242 123.03 113.242 120.06 113.242 117Z" fill="#AD6A46"/>
<path d="M58.2422 86C59.2322 86.33 60.2222 86.66 61.2422 87C60.5822 87 59.9222 87 59.2422 87C59.2422 87.99 59.2422 88.98 59.2422 90C61.2222 89.67 63.2022 89.34 65.2422 89C63.9297 91 63.9297 91 62.2422 93C61.2522 93 60.2622 93 59.2422 93C58.9122 90.69 58.5822 88.38 58.2422 86Z" fill="#D4251F"/>
<path d="M85.2422 36C85.9022 36 86.5622 36 87.2422 36C87.2422 38.64 87.2422 41.28 87.2422 44C86.2522 44 85.2622 44 84.2422 44C84.1172 38.25 84.1172 38.25 85.2422 36Z" fill="#EAC282"/>
<path d="M73.2422 54C74.2322 54 75.2222 54 76.2422 54C76.2422 56.31 76.2422 58.62 76.2422 61C75.2522 61 74.2622 61 73.2422 61C73.2422 58.69 73.2422 56.38 73.2422 54Z" fill="#531613"/>
<path d="M83.2422 34C85.2222 34.99 85.2222 34.99 87.2422 36C86.5822 36 85.9222 36 85.2422 36C84.9122 40.29 84.5822 44.58 84.2422 49C83.9122 49 83.5822 49 83.2422 49C83.2422 44.05 83.2422 39.1 83.2422 34Z" fill="#EFCC95"/>
<path d="M53.2422 38C54.5622 38 55.8822 38 57.2422 38C57.2422 39.65 57.2422 41.3 57.2422 43C55.9222 43 54.6022 43 53.2422 43C53.2422 41.35 53.2422 39.7 53.2422 38Z" fill="#FA422E"/>
<path d="M110.242 6C110.572 7.32 110.902 8.64 111.242 10C109.922 10 108.602 10 107.242 10C106.912 10.99 106.582 11.98 106.242 13C105.117 9.25 105.117 9.25 106.242 7C108.305 6.375 108.305 6.375 110.242 6Z" fill="#EEE0B4"/>
<path d="M12.2422 103C13.2322 103 14.2222 103 15.2422 103C14.9866 105.343 14.6495 107.678 14.2422 110C13.2522 110.495 13.2522 110.495 12.2422 111C12.2422 108.36 12.2422 105.72 12.2422 103Z" fill="#AF6846"/>
<path d="M98.2422 88C102.202 88.33 106.162 88.66 110.242 89C110.242 89.33 110.242 89.66 110.242 90C104.302 90.495 104.302 90.495 98.2422 91C98.2422 90.01 98.2422 89.02 98.2422 88Z" fill="#FEE6A0"/>
<path d="M67.2422 65C67.5722 65 67.9022 65 68.2422 65C68.2422 67.64 68.2422 70.28 68.2422 73C66.2622 73 64.2822 73 62.2422 73C63.2322 72.34 64.2222 71.68 65.2422 71C66.455 67.9457 66.455 67.9457 67.2422 65Z" fill="#B01B17"/>
<path d="M52.2422 47C53.2322 47 54.2222 47 55.2422 47C55.2422 49.31 55.2422 51.62 55.2422 54C54.2522 54.33 53.2622 54.66 52.2422 55C52.2422 52.36 52.2422 49.72 52.2422 47Z" fill="#731F10"/>
<path d="M48.2422 46C48.5722 46.99 48.9022 47.98 49.2422 49C48.9122 49.66 48.5822 50.32 48.2422 51C46.5922 51 44.9422 51 43.2422 51C42.9122 49.68 42.5822 48.36 42.2422 47C42.8609 47.2062 43.4797 47.4125 44.1172 47.625C45.1691 47.8106 45.1691 47.8106 46.2422 48C46.9022 47.34 47.5622 46.68 48.2422 46Z" fill="#FBE09A"/>
<path d="M104.242 39C105.562 39 106.882 39 108.242 39C108.242 41.97 108.242 44.94 108.242 48C107.252 48 106.262 48 105.242 48C105.909 45.3333 106.576 42.6667 107.242 40C106.252 39.67 105.262 39.34 104.242 39Z" fill="#E5B07A"/>
<path d="M108.242 125C108.242 125.66 108.242 126.32 108.242 127C108.902 127.33 109.562 127.66 110.242 128C108.592 128.33 106.942 128.66 105.242 129C105.242 128.34 105.242 127.68 105.242 127C103.262 127 101.282 127 99.2422 127C99.2422 126.67 99.2422 126.34 99.2422 126C102.301 125.456 105.13 125 108.242 125Z" fill="#C27D4C"/>
<path d="M26.2422 79C28.2222 79 30.2022 79 32.2422 79C30.9222 79.33 29.6022 79.66 28.2422 80C28.5722 81.32 28.9022 82.64 29.2422 84C28.2522 84.33 27.2622 84.66 26.2422 85C26.2422 83.02 26.2422 81.04 26.2422 79Z" fill="#FDE399"/>
<path d="M80.2422 88C80.5722 88 80.9022 88 81.2422 88C81.2422 90.64 81.2422 93.28 81.2422 96C82.5622 96.33 83.8822 96.66 85.2422 97C82.9322 97.33 80.6222 97.66 78.2422 98C78.9022 94.7 79.5622 91.4 80.2422 88Z" fill="#FBDD94"/>
<path d="M51.2422 84C53.2222 84.495 53.2222 84.495 55.2422 85C54.9122 86.32 54.5822 87.64 54.2422 89C52.9222 88.67 51.6022 88.34 50.2422 88C50.5722 86.68 50.9022 85.36 51.2422 84Z" fill="#FBD48E"/>
</svg>
