<svg width="173" height="155" viewBox="0 0 173 155" fill="none" xmlns="http://www.w3.org/2000/svg">
<path d="M22 0C27.28 0 32.56 0 38 0C38 0.66 38 1.32 38 2C39.32 2.33 40.64 2.66 42 3C42 4.32 42 5.64 42 7C70.71 7 99.42 7 129 7C129 5.35 129 3.7 129 2C129.66 2 130.32 2 131 2C131 1.34 131 0.68 131 0C136.61 0 142.22 0 148 0C148 0.66 148 1.32 148 2C148.99 2 149.98 2 151 2C151 3.65 151 5.3 151 7C153.97 7 156.94 7 160 7C160 8.65 160 10.3 160 12C160.99 12 161.98 12 163 12C163 49.62 163 87.24 163 126C162.34 126 161.68 126 161 126C161 127.98 161 129.96 161 132C160.01 132 159.02 132 158 132C158 132.99 158 133.98 158 135C157.34 135 156.68 135 156 135C155.67 135.99 155.34 136.98 155 138C153.35 138 151.7 138 150 138C150 138.99 150 139.98 150 141C107.1 141 64.2 141 20 141C20 140.01 20 139.02 20 138C18.68 138 17.36 138 16 138C16 137.34 16 136.68 16 136C15.01 136 14.02 136 13 136C13 135.01 13 134.02 13 133C12.01 133 11.02 133 10 133C10 130.69 10 128.38 10 126C9.34 126 8.68 126 8 126C8 88.38 8 50.76 8 12C8.99 12 9.98 12 11 12C11 10.35 11 8.7 11 7C13.97 7 16.94 7 20 7C20 5.35 20 3.7 20 2C20.66 2 21.32 2 22 2C22 1.34 22 0.68 22 0Z" fill="#FCFBDE"/>
<path d="M22 0C27.28 0 32.56 0 38 0C38 0.66 38 1.32 38 2C39.32 2.33 40.64 2.66 42 3C42 4.32 42 5.64 42 7C70.71 7 99.42 7 129 7C129 5.35 129 3.7 129 2C129.66 2 130.32 2 131 2C131 1.34 131 0.68 131 0C136.61 0 142.22 0 148 0C148 0.66 148 1.32 148 2C148.99 2 149.98 2 151 2C151 3.65 151 5.3 151 7C153.97 7 156.94 7 160 7C160 8.65 160 10.3 160 12C160.99 12 161.98 12 163 12C163 49.62 163 87.24 163 126C162.34 126 161.68 126 161 126C161 127.98 161 129.96 161 132C160.01 132 159.02 132 158 132C158 132.99 158 133.98 158 135C157.34 135 156.68 135 156 135C155.67 135.99 155.34 136.98 155 138C153.35 138 151.7 138 150 138C150 138.99 150 139.98 150 141C107.1 141 64.2 141 20 141C20 140.01 20 139.02 20 138C18.68 138 17.36 138 16 138C16 137.34 16 136.68 16 136C15.01 136 14.02 136 13 136C13 135.01 13 134.02 13 133C12.01 133 11.02 133 10 133C10 130.69 10 128.38 10 126C9.34 126 8.68 126 8 126C8 88.38 8 50.76 8 12C8.99 12 9.98 12 11 12C11 10.35 11 8.7 11 7C13.97 7 16.94 7 20 7C20 5.35 20 3.7 20 2C20.66 2 21.32 2 22 2C22 1.34 22 0.68 22 0ZM12 42C12 67.08 12 92.16 12 118C18.6 118.33 25.2 118.66 32 119C32.495 119.99 32.495 119.99 33 121C33.66 121 34.32 121 35 121C35.2166 121.959 35.2166 121.959 35.4375 122.938C35.8101 124.975 35.8101 124.975 37 126C37 127.98 37 129.96 37 132C68.68 132 100.36 132 133 132C133 130.35 133 128.7 133 127C128.71 126.67 124.42 126.34 120 126C124.95 125.67 129.9 125.34 135 125C135 123.68 135 122.36 135 121C117.51 121 100.02 121 82 121C81.67 111.76 81.34 102.52 81 93C81.99 93 82.98 93 84 93C84 89.7 84 86.4 84 83C84.99 83 85.98 83 87 83C87.33 80.69 87.66 78.38 88 76C88.99 76 89.98 76 91 76C93.2774 73.1849 93.2774 73.1849 93 70C87.72 70 82.44 70 77 70C77 70.66 77 71.32 77 72C74.03 72 71.06 72 68 72C68 66.39 68 60.78 68 55C82.19 55 96.38 55 111 55C111 60.61 111 66.22 111 72C109.515 72.495 109.515 72.495 108 73C107.67 74.98 107.34 76.96 107 79C106.34 79 105.68 79 105 79C105 79.66 105 80.32 105 81C103.515 80.505 103.515 80.505 102 80C101.876 81.2994 101.752 82.5987 101.625 83.9375C101.414 86.1523 101.414 86.1523 101 88C100.01 88.495 100.01 88.495 99 89C99 91.97 99 94.94 99 98C98.01 98 97.02 98 96 98C96 101.3 96 104.6 96 108C96.33 108 96.66 108 97 108C97.495 111.465 97.495 111.465 98 115C110.21 115.33 122.42 115.66 135 116C135 116.66 135 117.32 135 118C142.92 118 150.84 118 159 118C159 92.92 159 67.84 159 42C110.49 42 61.98 42 12 42Z" fill="#C1211A"/>
<path d="M12 42C60.51 42 109.02 42 159 42C159 67.08 159 92.16 159 118C151.08 118 143.16 118 135 118C135 117.34 135 116.68 135 116C122.79 115.67 110.58 115.34 98 115C97.505 111.535 97.505 111.535 97 108C96.67 108 96.34 108 96 108C96 104.7 96 101.4 96 98C96.99 98 97.98 98 99 98C99 95.03 99 92.06 99 89C99.66 89 100.32 89 101 89C100.34 96.59 99.68 104.18 99 112C99.99 112 100.98 112 102 112C102 109.69 102 107.38 102 105C103.32 105 104.64 105 106 105C106 107.64 106 110.28 106 113C108.242 113.59 108.242 113.59 111 113C112.683 111.283 114.073 109.485 115.473 107.531C115.977 107.026 116.481 106.521 117 106C118.32 106 119.64 106 121 106C121 107.98 121 109.96 121 112C121.99 112 122.98 112 124 112C124 110.68 124 109.36 124 108C126.875 107.812 126.875 107.812 130 108C130.99 109.485 130.99 109.485 132 111C132.99 110.67 133.98 110.34 135 110C135 107.36 135 104.72 135 102C136.65 101.67 138.3 101.34 140 101C139.67 104.96 139.34 108.92 139 113C143.95 113 148.9 113 154 113C154 111.68 154 110.36 154 109C149.71 109 145.42 109 141 109C141 107.68 141 106.36 141 105C145.62 105 150.24 105 155 105C155 97.41 155 89.82 155 82C149.06 82 143.12 82 137 82C137 80.68 137 79.36 137 78C142.94 78 148.88 78 155 78C155 70.41 155 62.82 155 55C150.38 55 145.76 55 141 55C141 54.01 141 53.02 141 52C145.29 51.67 149.58 51.34 154 51C154.33 49.68 154.66 48.36 155 47C154.142 47.0719 153.284 47.1439 152.4 47.218C144.189 47.8621 136.077 48.1162 127.844 48.0217C125.998 48.0073 125.998 48.0073 124.114 47.9926C120.788 47.9656 117.463 47.9337 114.137 47.8995C110.643 47.8647 107.149 47.8364 103.655 47.8074C97.0615 47.7516 90.4675 47.6902 83.8735 47.6266C76.3571 47.5545 68.8405 47.4888 61.324 47.4236C45.8826 47.2894 30.4413 47.1474 15 47C15.33 48.32 15.66 49.64 16 51C20.29 51 24.58 51 29 51C29 52.32 29 53.64 29 55C24.71 55 20.42 55 16 55C16 62.59 16 70.18 16 78C21.28 78 26.56 78 32 78C32 79.32 32 80.64 32 82C26.72 82 21.44 82 16 82C16 89.59 16 97.18 16 105C20.62 105 25.24 105 30 105C30 105.99 30 106.98 30 108C25.38 108 20.76 108 16 108C16.33 109.65 16.66 111.3 17 113C37.79 113.66 58.58 114.32 80 115C80 107.74 80 100.48 80 93C80.33 93 80.66 93 81 93C81.33 102.24 81.66 111.48 82 121C99.49 121 116.98 121 135 121C135 122.32 135 123.64 135 125C130.05 125.33 125.1 125.66 120 126C124.29 126.33 128.58 126.66 133 127C133 128.65 133 130.3 133 132C101.32 132 69.64 132 37 132C37 130.02 37 128.04 37 126C36.34 125.34 35.68 124.68 35 124C35 123.01 35 122.02 35 121C34.34 121 33.68 121 33 121C32.505 120.01 32.505 120.01 32 119C25.4 118.67 18.8 118.34 12 118C12 92.92 12 67.84 12 42Z" fill="#D8A776"/>
<path d="M11 42C11.33 42 11.66 42 12 42C12 67.08 12 92.16 12 118C18.6 118 25.2 118 32 118C32.33 118.99 32.66 119.98 33 121C33.66 121 34.32 121 35 121C35.33 121.99 35.66 122.98 36 124C40.95 124.33 45.9 124.66 51 125C51 125.33 51 125.66 51 126C46.38 126 41.76 126 37 126C37 127.98 37 129.96 37 132C68.68 132 100.36 132 133 132C133 130.35 133 128.7 133 127C128.71 127 124.42 127 120 127C119.67 126.34 119.34 125.68 119 125C124.28 125 129.56 125 135 125C135 123.68 135 122.36 135 121C117.51 121 100.02 121 82 121C80.9407 117.822 80.8854 115.574 80.9023 112.238C80.9072 110.561 80.9072 110.561 80.9121 108.85C80.9247 107.099 80.9247 107.099 80.9375 105.312C80.942 104.134 80.9465 102.955 80.9512 101.74C80.963 98.8268 80.9794 95.9134 81 93C81.99 93 82.98 93 84 93C84 89.7 84 86.4 84 83C84.99 83 85.98 83 87 83C87.33 80.69 87.66 78.38 88 76C88.99 76 89.98 76 91 76C91.99 73.03 91.99 73.03 93 70C87.72 70 82.44 70 77 70C77 70.66 77 71.32 77 72C74.03 72 71.06 72 68 72C68 66.39 68 60.78 68 55C82.19 55 96.38 55 111 55C111 60.61 111 66.22 111 72C110.34 72.33 109.68 72.66 109 73C108.273 74.9789 107.602 76.9795 107 79C106.34 79 105.68 79 105 79C105 79.66 105 80.32 105 81C104.34 81 103.68 81 103 81C102.67 83.31 102.34 85.62 102 88C100.515 88.495 100.515 88.495 99 89C99 91.97 99 94.94 99 98C98.01 98 97.02 98 96 98C96.66 98.66 97.32 99.32 98 100C98 104.95 98 109.9 98 115C110.21 115 122.42 115 135 115C135.33 115.66 135.66 116.32 136 117C143.59 117.33 151.18 117.66 159 118C159 120.64 159 123.28 159 126C158.34 126 157.68 126 157 126C156.711 126.969 156.423 127.939 156.125 128.938C155 132 155 132 153 133C151.68 133 150.36 133 149 133C149 133.99 149 134.98 149 136C106.76 136 64.52 136 21 136C21 135.34 21 134.68 21 134C19.68 134 18.36 134 17 134C17 133.34 17 132.68 17 132C16.01 132 15.02 132 14 132C14 130.02 14 128.04 14 126C13.01 126 12.02 126 11 126C11 98.28 11 70.56 11 42Z" fill="#B1654C"/>
<path d="M159 12C160.32 12 161.64 12 163 12C163 49.62 163 87.24 163 126C162.34 126 161.68 126 161 126C161 127.98 161 129.96 161 132C160.01 132 159.02 132 158 132C158 132.99 158 133.98 158 135C157.34 135 156.68 135 156 135C155.67 135.99 155.34 136.98 155 138C153.35 138 151.7 138 150 138C150 138.99 150 139.98 150 141C107.1 141 64.2 141 20 141C20 140.01 20 139.02 20 138C18.68 138 17.36 138 16 138C16 137.34 16 136.68 16 136C15.01 136 14.02 136 13 136C13 135.01 13 134.02 13 133C12.01 133 11.02 133 10 133C10 130.69 10 128.38 10 126C9.34 126 8.68 126 8 126C8 88.71 8 51.42 8 13C8.99 13 9.98 13 11 13C11 21.25 11 29.5 11 38C59.84 38 108.68 38 159 38C159 29.42 159 20.84 159 12ZM11 42C11 69.72 11 97.44 11 126C11.99 126 12.98 126 14 126C14 127.98 14 129.96 14 132C14.99 132 15.98 132 17 132C17 132.66 17 133.32 17 134C18.32 134 19.64 134 21 134C21 134.66 21 135.32 21 136C63.24 136 105.48 136 149 136C149 135.01 149 134.02 149 133C149.763 133.103 150.526 133.206 151.312 133.312C152.199 133.209 153.086 133.106 154 133C155.819 130.617 157 129.042 157 126C157.66 126 158.32 126 159 126C159 98.28 159 70.56 159 42C110.16 42 61.32 42 11 42Z" fill="#23050D"/>
<path d="M163.445 131.961C164.33 132.428 165.214 132.894 166.125 133.375C167.014 133.837 167.904 134.298 168.82 134.774C171 136 171 136 172 137C172.041 138.666 172.043 140.334 172 142C165.457 146.208 159.526 148.078 151.875 149.25C150.925 149.41 149.975 149.57 148.996 149.734C146.334 150.178 143.668 150.593 141 151C139.824 151.191 138.649 151.382 137.438 151.578C132.14 152.228 126.83 152.391 121.5 152.606C120.266 152.662 120.266 152.662 119.008 152.719C118.262 152.749 117.515 152.779 116.747 152.811C114.973 152.818 114.973 152.818 114 154C112.415 154.109 110.826 154.149 109.238 154.161C107.705 154.175 107.705 154.175 106.141 154.19C105.019 154.194 103.898 154.199 102.742 154.203C101.584 154.21 100.425 154.217 99.2318 154.224C95.4461 154.242 91.6607 154.248 87.875 154.25C85.9549 154.251 85.9549 154.251 83.996 154.252C16.5628 154.195 16.5628 154.195 1 142C0.125 139.75 0.125 139.75 0 138C4.26312 133.87 7.28759 133.387 13 133C13 133.99 13 134.98 13 136C13.99 136 14.98 136 16 136C16 136.66 16 137.32 16 138C17.32 138 18.64 138 20 138C20 138.99 20 139.98 20 141C62.9 141 105.8 141 150 141C150 140.01 150 139.02 150 138C150.804 137.876 151.609 137.753 152.438 137.625C153.283 137.419 154.129 137.213 155 137C155.33 136.34 155.66 135.68 156 135C156.66 135 157.32 135 158 135C158 134.01 158 133.02 158 132C161 131 161 131 163.445 131.961Z" fill="#CBD4EB"/>
<path d="M22 0C27.28 0 32.56 0 38 0C38 0.66 38 1.32 38 2C39.32 2.33 40.64 2.66 42 3C42 4.32 42 5.64 42 7C70.71 7 99.42 7 129 7C129 5.35 129 3.7 129 2C129.66 2 130.32 2 131 2C131 1.34 131 0.68 131 0C136.61 0 142.22 0 148 0C148 0.66 148 1.32 148 2C148.99 2 149.98 2 151 2C151 3.98 151 5.96 151 8C153.64 8 156.28 8 159 8C159 8.99 159 9.98 159 11C156.36 11 153.72 11 151 11C151.023 11.843 151.046 12.6861 151.07 13.5547C151.088 14.6504 151.106 15.7461 151.125 16.875C151.148 17.9655 151.171 19.0561 151.195 20.1797C151 23 151 23 149 25C148.01 25 147.02 25 146 25C146 25.99 146 26.98 146 28C141.71 28 137.42 28 133 28C133 26.68 133 25.36 133 24C132.01 24 131.02 24 130 24C129 21 129 21 129 11C99.96 11 70.92 11 41 11C41 15.62 41 20.24 41 25C39.68 25 38.36 25 37 25C37 25.99 37 26.98 37 28C30.565 28.495 30.565 28.495 24 29C24 27.68 24 26.36 24 25C22.68 25 21.36 25 20 25C20 20.38 20 15.76 20 11C17.36 11 14.72 11 12 11C11.67 9.68 11.34 8.36 11 7C13.97 7 16.94 7 20 7C20 5.35 20 3.7 20 2C20.66 2 21.32 2 22 2C22 1.34 22 0.68 22 0Z" fill="#50252A"/>
<path d="M68 55C82.19 55 96.38 55 111 55C111 60.61 111 66.22 111 72C110.01 72.495 110.01 72.495 109 73C108.273 74.9789 107.602 76.9795 107 79C106.34 79 105.68 79 105 79C105 79.66 105 80.32 105 81C104.34 81 103.68 81 103 81C102.67 83.31 102.34 85.62 102 88C101.01 88.33 100.02 88.66 99 89C99 91.97 99 94.94 99 98C98.01 98 97.02 98 96 98C96 105.59 96 113.18 96 121C91.38 121 86.76 121 82 121C80.9407 117.822 80.8854 115.574 80.9023 112.238C80.9056 111.12 80.9088 110.002 80.9121 108.85C80.9205 107.682 80.9289 106.515 80.9375 105.312C80.942 104.134 80.9465 102.955 80.9512 101.74C80.963 98.8268 80.9794 95.9134 81 93C81.99 93 82.98 93 84 93C84 89.7 84 86.4 84 83C84.99 83 85.98 83 87 83C87.33 80.69 87.66 78.38 88 76C88.99 76 89.98 76 91 76C91.66 74.02 92.32 72.04 93 70C87.72 70 82.44 70 77 70C77 70.66 77 71.32 77 72C74.03 72 71.06 72 68 72C68 66.39 68 60.78 68 55Z" fill="#D1261C"/>
<path d="M58 16C58.33 17.32 58.66 18.64 59 20C59.66 20 60.32 20 61 20C61 20.66 61 21.32 61 22C63.97 22 66.94 22 70 22C70.66 20.35 71.32 18.7 72 17C75.63 17 79.26 17 83 17C83 17.99 83 18.98 83 20C84.65 19.67 86.3 19.34 88 19C88.33 18.01 88.66 17.02 89 16C90.65 16 92.3 16 94 16C94.1238 16.6394 94.2475 17.2788 94.375 17.9375C94.5812 18.6181 94.7875 19.2988 95 20C95.66 20.33 96.32 20.66 97 21C97.495 22.485 97.495 22.485 98 24C99.2375 23.9794 100.475 23.9588 101.75 23.9375C104.664 23.9323 107.21 24.0698 110 25C110 23.68 110 22.36 110 21C111.65 21 113.3 21 115 21C115.33 20.01 115.66 19.02 116 18C117.32 18 118.64 18 120 18C120 18.99 120 19.98 120 21C122.97 20.505 122.97 20.505 126 20C126.99 23.96 126.99 23.96 128 28C129.32 28 130.64 28 132 28C132 29.65 132 31.3 132 33C129.69 33 127.38 33 125 33C125 31.68 125 30.36 125 29C120.71 29 116.42 29 112 29C111.67 30.32 111.34 31.64 111 33C109.02 33 107.04 33 105 33C105 32.01 105 31.02 105 30C104.01 30 103.02 30 102 30C101.67 30.99 101.34 31.98 101 33C97.8118 34.5941 94.371 34.1018 90.875 34.0625C90.1209 34.058 89.3668 34.0535 88.5898 34.0488C86.7265 34.037 84.8633 34.0191 83 34C83 32.68 83 31.36 83 30C82.01 30 81.02 30 80 30C79.67 31.32 79.34 32.64 79 34C71.74 34 64.48 34 57 34C57 32.68 57 31.36 57 30C55.68 30 54.36 30 53 30C53 29.34 53 28.68 53 28C50.69 28 48.38 28 46 28C46 28.99 46 29.98 46 31C44.02 31 42.04 31 40 31C40 31.99 40 32.98 40 34C38.02 34 36.04 34 34 34C34 32.35 34 30.7 34 29C34.99 28.67 35.98 28.34 37 28C37.33 27.34 37.66 26.68 38 26C41.0625 25.375 41.0625 25.375 44 25C44.33 23.02 44.66 21.04 45 19C46.32 18.67 47.64 18.34 49 18C49 18.99 49 19.98 49 21C49.66 21 50.32 21 51 21C51 19.68 51 18.36 51 17C53.4628 15.7686 55.2795 15.9284 58 16Z" fill="#F5442F"/>
<path d="M36 121C68.67 121 101.34 121 135 121C135 122.32 135 123.64 135 125C130.05 125.33 125.1 125.66 120 126C124.29 126.33 128.58 126.66 133 127C133 128.65 133 130.3 133 132C101.32 132 69.64 132 37 132C37 130.02 37 128.04 37 126C36.67 124.35 36.34 122.7 36 121Z" fill="#ECBE7E"/>
<path d="M41 11C70.04 11 99.08 11 129 11C129 21 129 21 128 23C127.34 23 126.68 23 126 23C126 22.01 126 21.02 126 20C124.02 20.33 122.04 20.66 120 21C120 20.01 120 19.02 120 18C118.025 18.3479 118.025 18.3479 116 19C115.67 19.66 115.34 20.32 115 21C113.35 21 111.7 21 110 21C110 22.32 110 23.64 110 25C106.04 25 102.08 25 98 25C97.505 23.02 97.505 23.02 97 21C96.01 20.67 95.02 20.34 94 20C94 18.68 94 17.36 94 16C92.35 16 90.7 16 89 16C88.67 17.32 88.34 18.64 88 20C86.35 20 84.7 20 83 20C83 19.01 83 18.02 83 17C79.37 17 75.74 17 72 17C71.67 18.65 71.34 20.3 71 22C70.67 22.33 70.34 22.66 70 23C68.4748 22.9106 66.9532 22.7546 65.4375 22.5625C64.6112 22.4607 63.7849 22.3588 62.9336 22.2539C62.2955 22.1701 61.6574 22.0863 61 22C61 21.34 61 20.68 61 20C60.34 20 59.68 20 59 20C58.67 18.68 58.34 17.36 58 16C55.69 16.33 53.38 16.66 51 17C51 18.32 51 19.64 51 21C50.34 21 49.68 21 49 21C49 20.01 49 19.02 49 18C48.01 18.33 47.02 18.66 46 19C44.7748 22.0085 44.7748 22.0085 44 25C43.0306 25.1238 42.0612 25.2475 41.0625 25.375C40.0519 25.5812 39.0412 25.7875 38 26C37.67 26.66 37.34 27.32 37 28C37 27.01 37 26.02 37 25C38.32 25 39.64 25 41 25C41 20.38 41 15.76 41 11Z" fill="#B31F1A"/>
<path d="M131 0C136.61 0 142.22 0 148 0C148 0.66 148 1.32 148 2C148.99 2 149.98 2 151 2C151 3.98 151 5.96 151 8C153.64 8 156.28 8 159 8C159 8.99 159 9.98 159 11C156.36 11 153.72 11 151 11C151.023 11.843 151.046 12.6861 151.07 13.5547C151.088 14.6504 151.106 15.7461 151.125 16.875C151.148 17.9655 151.171 19.0561 151.195 20.1797C151 23 151 23 149 25C148.01 25 147.02 25 146 25C146 25.99 146 26.98 146 28C141.71 28 137.42 28 133 28C133 26.68 133 25.36 133 24C132.01 24 131.02 24 130 24C130 19.71 130 15.42 130 11C100.677 9.87312 71.3394 9.46867 42 9C42 8.67 42 8.34 42 8C70.38 7.67 98.76 7.34 128 7C128.33 5.35 128.66 3.7 129 2C129.66 2 130.32 2 131 2C131 1.34 131 0.68 131 0Z" fill="#290609"/>
<path d="M8.00002 13C8.99002 13 9.98002 13 11 13C11 21.25 11 29.5 11 38C58.19 38 105.38 38 154 38C154 38.33 154 38.66 154 39C125.62 39 97.24 39 68 39C68 39.66 68 40.32 68 41C68.66 41.33 69.32 41.66 70 42C50.53 42 31.06 42 11 42C11 69.72 11 97.44 11 126C11.99 126 12.98 126 14 126C14 127.98 14 129.96 14 132C13.01 131.67 12.02 131.34 11 131C11.495 130.505 11.495 130.505 12 130C11.3494 129.563 10.6987 129.127 10.0284 128.677C6.84566 124.477 7.47512 120.303 7.54592 115.173C7.54533 114.07 7.54475 112.967 7.54415 111.831C7.54693 108.184 7.57806 104.538 7.60939 100.891C7.61685 98.3629 7.62255 95.8351 7.62654 93.3073C7.64026 87.3326 7.67179 81.3583 7.71194 75.3837C7.75667 68.5809 7.77865 61.778 7.79872 54.9751C7.84052 40.9832 7.91087 26.9916 8.00002 13Z" fill="#300711"/>
<path d="M97 100C97.33 100 97.66 100 98 100C98 104.95 98 109.9 98 115C110.21 115 122.42 115 135 115C135.495 115.99 135.495 115.99 136 117C143.59 117.33 151.18 117.66 159 118C159 120.64 159 123.28 159 126C158.34 126 157.68 126 157 126C156.567 127.454 156.567 127.454 156.125 128.938C155 132 155 132 153 133C153 132.34 153 131.68 153 131C152.18 131.023 151.36 131.046 150.516 131.07C148.899 131.097 148.899 131.097 147.25 131.125C146.183 131.148 145.115 131.171 144.016 131.195C141.075 131.005 139.476 130.527 137 129C137 130.32 137 131.64 137 133C135.68 133 134.36 133 133 133C133 131.02 133 129.04 133 127C128.71 127 124.42 127 120 127C119.67 126.34 119.34 125.68 119 125C124.28 125 129.56 125 135 125C135 123.68 135 122.36 135 121C122.13 121 109.26 121 96 121C96 106.375 96 106.375 97 100Z" fill="#A35E45"/>
<path d="M68 55C82.19 55 96.38 55 111 55C111 60.61 111 66.22 111 72C110.01 72.495 110.01 72.495 109 73C108.273 74.9789 107.602 76.9795 107 79C106.34 79 105.68 79 105 79C105 79.66 105 80.32 105 81C104.34 81 103.68 81 103 81C102.67 83.31 102.34 85.62 102 88C101.01 88.33 100.02 88.66 99 89C99 91.97 99 94.94 99 98C98.01 98 97.02 98 96 98C96 105.59 96 113.18 96 121C91.38 121 86.76 121 82 121C80.9407 117.822 80.8854 115.574 80.9023 112.238C80.9056 111.12 80.9088 110.002 80.9121 108.85C80.9205 107.682 80.9289 106.515 80.9375 105.312C80.942 104.134 80.9465 102.955 80.9512 101.74C80.963 98.8268 80.9794 95.9134 81 93C81.66 93 82.32 93 83 93C83 100.59 83 108.18 83 116C86.3 116 89.6 116 93 116C93 108.74 93 101.48 93 94C93.99 94 94.98 94 96 94C96 90.37 96 86.74 96 83C96.99 83 97.98 83 99 83C99.1238 82.2369 99.2475 81.4737 99.375 80.6875C100 78 100 78 102 75C102.66 75 103.32 75 104 75C104 74.01 104 73.02 104 72C105.32 72 106.64 72 108 72C108 67.38 108 62.76 108 58C95.46 58 82.92 58 70 58C70 61.63 70 65.26 70 69C72.31 69 74.62 69 77 69C77 68.34 77 67.68 77 67C83.6 67 90.2 67 97 67C97.33 67.99 97.66 68.98 98 70C97.34 70 96.68 70 96 70C96 71.32 96 72.64 96 74C95.01 74 94.02 74 93 74C92.67 74.66 92.34 75.32 92 76C92.33 74.02 92.66 72.04 93 70C87.72 70 82.44 70 77 70C77 70.66 77 71.32 77 72C74.03 72 71.06 72 68 72C68 66.39 68 60.78 68 55Z" fill="#703A33"/>
<path d="M16 43C61.54 43 107.08 43 154 43C154 44.32 154 45.64 154 47C145.322 47.792 136.76 48.1222 128.05 48.0217C126.828 48.0121 125.607 48.0025 124.349 47.9926C121.046 47.9656 117.744 47.9337 114.441 47.8995C110.972 47.8647 107.504 47.8364 104.035 47.8074C97.4868 47.7516 90.9389 47.6901 84.3909 47.6266C76.9277 47.5545 69.4644 47.4888 62.0011 47.4236C46.6673 47.2894 31.3336 47.1474 16 47C16 45.68 16 44.36 16 43Z" fill="#C3A684"/>
<path d="M99 89C99.66 89 100.32 89 101 89C100.34 96.59 99.68 104.18 99 112C99.99 112 100.98 112 102 112C102 109.69 102 107.38 102 105C103.32 105 104.64 105 106 105C106 107.64 106 110.28 106 113C108.242 113.59 108.242 113.59 111 113C112.683 111.283 114.073 109.485 115.473 107.531C115.977 107.026 116.481 106.521 117 106C118.32 106 119.64 106 121 106C121 107.98 121 109.96 121 112C121.99 112 122.98 112 124 112C124 110.68 124 109.36 124 108C126.875 107.812 126.875 107.812 130 108C130.66 108.99 131.32 109.98 132 111C132.99 110.67 133.98 110.34 135 110C135 107.36 135 104.72 135 102C136.65 101.67 138.3 101.34 140 101C139.67 104.96 139.34 108.92 139 113C143.95 113 148.9 113 154 113C154 111.68 154 110.36 154 109C149.71 109 145.42 109 141 109C141 108.67 141 108.34 141 108C145.62 108 150.24 108 155 108C155 111.3 155 114.6 155 118C148.4 118 141.8 118 135 118C135 117.34 135 116.68 135 116C116.685 115.505 116.685 115.505 98 115C97.67 112.69 97.34 110.38 97 108C96.67 108 96.34 108 96 108C96 104.7 96 101.4 96 98C96.99 98 97.98 98 99 98C99 95.03 99 92.06 99 89Z" fill="#F6E4B2"/>
<path d="M141 54C146.94 54 152.88 54 159 54C159 75.12 159 96.24 159 118C157.68 118 156.36 118 155 118C155 114.7 155 111.4 155 108C150.38 108 145.76 108 141 108C141 107.01 141 106.02 141 105C145.62 105 150.24 105 155 105C155 97.41 155 89.82 155 82C149.06 82 143.12 82 137 82C137 80.68 137 79.36 137 78C142.94 78 148.88 78 155 78C155 70.41 155 62.82 155 55C150.38 55 145.76 55 141 55C141 54.67 141 54.34 141 54Z" fill="#D2A476"/>
<path d="M31.1506 136.88C32.191 136.878 33.2315 136.877 34.3034 136.876C35.4392 136.879 36.5749 136.883 37.7451 136.887C38.9454 136.886 40.1457 136.886 41.3823 136.886C44.6692 136.887 47.956 136.892 51.2429 136.899C54.6795 136.905 58.1161 136.905 61.5528 136.907C68.0586 136.91 74.5644 136.918 81.0701 136.928C88.4776 136.939 95.885 136.945 103.292 136.95C118.528 136.96 133.764 136.978 149 137C149 137.99 149 138.98 149 140C106.76 140 64.52 140 21 140C22 138 22 138 23.7406 137.383C26.2531 136.957 28.6014 136.877 31.1506 136.88Z" fill="#1A040A"/>
<path d="M101 71C101.178 75.5481 100.998 78.8794 99 83C98.01 83 97.02 83 96 83C96 86.63 96 90.26 96 94C95.01 94 94.02 94 93 94C93 101.26 93 108.52 93 116C90.03 116 87.06 116 84 116C84 108.74 84 101.48 84 94C85.32 94 86.64 94 88 94C87.67 90.7 87.34 87.4 87 84C87.99 84 88.98 84 90 84C90.2681 83.4431 90.5362 82.8863 90.8125 82.3125C96.6216 71 96.6216 71 101 71Z" fill="#E82D23"/>
<path d="M10 127C11.485 127.99 11.485 127.99 13 129C13 129.66 13 130.32 13 131C14.32 131.33 15.64 131.66 17 132C17 132.66 17 133.32 17 134C18.32 134 19.64 134 21 134C21 134.66 21 135.32 21 136C63.24 136 105.48 136 149 136C148.67 134.68 148.34 133.36 148 132C149.65 132 151.3 132 153 132C152.01 132.33 151.02 132.66 150 133C150 134.32 150 135.64 150 137C151.65 137 153.3 137 155 137C155 137.33 155 137.66 155 138C153.35 138 151.7 138 150 138C150 138.99 150 139.98 150 141C107.1 141 64.2 141 20 141C20 140.01 20 139.02 20 138C18.68 138 17.36 138 16 138C16 137.34 16 136.68 16 136C15.01 136 14.02 136 13 136C13 135.01 13 134.02 13 133C12.01 133 11.02 133 10 133C10 131.02 10 129.04 10 127ZM21 139C21 139.33 21 139.66 21 140C63.24 140 105.48 140 149 140C149 139.01 149 138.02 149 137C133.049 136.953 117.098 136.918 101.147 136.896C93.7411 136.886 86.3348 136.872 78.9285 136.849C72.4728 136.829 66.0172 136.816 59.5615 136.812C56.1435 136.809 52.7257 136.803 49.3077 136.789C45.4913 136.774 41.6751 136.772 37.8586 136.773C36.7265 136.766 35.5943 136.759 34.4278 136.751C33.386 136.754 32.3442 136.757 31.2708 136.759C29.9172 136.757 29.9172 136.757 28.5362 136.754C25.7226 137.027 23.5636 137.837 21 139Z" fill="#4B3341"/>
<path d="M15 47C51.96 47 88.92 47 127 47C127 47.33 127 47.66 127 48C125.02 48 123.04 48 121 48C121 49.98 121 51.96 121 54C119.68 54 118.36 54 117 54C117 54.99 117 55.98 117 57C117.66 57 118.32 57 119 57C119 57.99 119 58.98 119 60C117.35 60 115.7 60 114 60C114 57.69 114 55.38 114 53C114.99 53 115.98 53 117 53C117.33 51.35 117.66 49.7 118 48C99.52 48 81.04 48 62 48C61.67 49.65 61.34 51.3 61 53C59.9275 52.9794 58.855 52.9588 57.75 52.9375C54.8521 52.9858 52.7139 53.1316 50 54C50 53.01 50 52.02 50 51C50.8044 50.8762 51.6087 50.7525 52.4375 50.625C53.2831 50.4188 54.1288 50.2125 55 50C55.33 49.34 55.66 48.68 56 48C53.539 48.0599 51.0842 48.1468 48.625 48.25C47.577 48.2713 47.577 48.2713 46.5078 48.293C44.2228 48.3604 44.2228 48.3604 41 49C39.4352 50.9139 39.4352 50.9139 39 53C35.6575 53.0743 33.1964 53.0655 30 52C30 53.65 30 55.3 30 57C29.01 57 28.02 57 27 57C27 56.34 27 55.68 27 55C27.66 55 28.32 55 29 55C29 53.68 29 52.36 29 51C28.01 51.495 28.01 51.495 27 52C25.1262 52.0703 23.25 52.0843 21.375 52.0625C20.3721 52.0535 19.3692 52.0445 18.3359 52.0352C17.5651 52.0236 16.7942 52.012 16 52C15.67 50.35 15.34 48.7 15 47Z" fill="#E9D8AF"/>
<path d="M68 55C82.19 55 96.38 55 111 55C111 60.61 111 66.22 111 72C110.01 72 109.02 72 108 72C108 67.38 108 62.76 108 58C95.46 58 82.92 58 70 58C70 61.63 70 65.26 70 69C72.31 69 74.62 69 77 69C77 68.34 77 67.68 77 67C83.6 67 90.2 67 97 67C97.33 67.99 97.66 68.98 98 70C97.34 70 96.68 70 96 70C96 71.32 96 72.64 96 74C95.01 74 94.02 74 93 74C92.67 74.66 92.34 75.32 92 76C92.33 74.02 92.66 72.04 93 70C87.72 70 82.44 70 77 70C77 70.66 77 71.32 77 72C74.03 72 71.06 72 68 72C68 66.39 68 60.78 68 55Z" fill="#821917"/>
<path d="M151 7C153.97 7 156.94 7 160 7C159.67 16.9 159.34 26.8 159 37C155.7 37 152.4 37 149 37C149 36.01 149 35.02 149 34C147.68 34 146.36 34 145 34C145.06 32.5405 145.149 31.0822 145.25 29.625C145.32 28.4068 145.32 28.4068 145.391 27.1641C145.692 26.0929 145.692 26.0929 146 25C146.66 24.7009 147.32 24.4019 148 24.0938C148.66 23.7328 149.32 23.3719 150 23C150.705 20.1213 150.705 20.1213 150.75 16.875C150.807 15.7793 150.863 14.6836 150.922 13.5547C150.948 12.7116 150.973 11.8686 151 11C153.64 11 156.28 11 159 11C159 10.01 159 9.02 159 8C156.36 8 153.72 8 151 8C151 7.67 151 7.34 151 7Z" fill="#B02924"/>
<path d="M132.999 3C137.289 3 141.579 3 145.999 3C146.329 8.61 146.659 14.22 146.999 20C146.339 20 145.679 20 144.999 20C144.999 21.32 144.999 22.64 144.999 24C141.369 24 137.739 24 133.999 24C133.078 21.2343 132.882 19.6172 132.902 16.7695C132.907 15.5659 132.907 15.5659 132.912 14.3379C132.92 13.5045 132.928 12.6711 132.937 11.8125C132.941 10.9675 132.946 10.1225 132.951 9.25195C132.962 7.16794 132.98 5.08396 132.999 3Z" fill="#D17A14"/>
<path d="M24.0005 3C28.2905 3 32.5805 3 37.0005 3C37.0275 5.93756 37.0473 8.87488 37.063 11.8125C37.0714 12.6459 37.0798 13.4793 37.0884 14.3379C37.0916 15.1403 37.0948 15.9428 37.0982 16.7695C37.1034 17.5079 37.1086 18.2463 37.114 19.0071C37.0005 21 37.0005 21 36.0005 24C32.3705 24 28.7405 24 25.0005 24C23.8262 21.6515 23.8854 20.2623 23.9028 17.6484C23.9061 16.7977 23.9093 15.9469 23.9126 15.0703C23.921 14.1809 23.9294 13.2914 23.938 12.375C23.9425 11.4778 23.947 10.5806 23.9517 9.65625C23.9635 7.43747 23.9814 5.21873 24.0005 3Z" fill="#EFD97A"/>
<path d="M162 12C162.33 12 162.66 12 163 12C163 49.62 163 87.24 163 126C162.34 126 161.68 126 161 126C161 127.98 161 129.96 161 132C160.01 132 159.02 132 158 132C158 132.99 158 133.98 158 135C157.34 135 156.68 135 156 135C156 135.66 156 136.32 156 137C154.02 137 152.04 137 150 137C150 135.68 150 134.36 150 133C150.598 132.959 151.196 132.918 151.812 132.875C154.351 132.123 154.351 132.123 155.75 128.938C156.162 127.968 156.575 126.999 157 126C157.66 126 158.32 126 159 126C159 98.28 159 70.56 159 42C159.33 42 159.66 42 160 42C160.33 68.07 160.66 94.14 161 121C161.33 85.03 161.66 49.06 162 12Z" fill="#371A1F"/>
<path d="M97 100C97.33 100 97.66 100 98 100C98 104.95 98 109.9 98 115C99.1051 114.979 100.21 114.958 101.349 114.937C105.447 114.864 109.545 114.818 113.643 114.78C115.417 114.76 117.192 114.733 118.966 114.698C121.515 114.65 124.064 114.627 126.613 114.609C127.407 114.589 128.201 114.568 129.019 114.547C134.498 114.545 134.498 114.545 137.024 116.837C138 119 138 119 138 122C137.34 122 136.68 122 136 122C135.505 123.485 135.505 123.485 135 125C135 123.68 135 122.36 135 121C122.13 121 109.26 121 96 121C96 106.375 96 106.375 97 100Z" fill="#CA9D71"/>
<path d="M12 42C60.51 42 109.02 42 159 42C159 45.96 159 49.92 159 54C153.06 54 147.12 54 141 54C141 53.34 141 52.68 141 52C145.29 51.67 149.58 51.34 154 51C154 49.68 154 48.36 154 47C153.01 46.01 153.01 46.01 152 45C152.66 45 153.32 45 154 45C154 44.34 154 43.68 154 43C108.46 43 62.92 43 16 43C16 44.32 16 45.64 16 47C14.68 46.67 13.36 46.34 12 46C12 44.68 12 43.36 12 42Z" fill="#B28E76"/>
<path d="M70 58C82.54 58 95.08 58 108 58C108 62.62 108 67.24 108 72C107.01 71.67 106.02 71.34 105 71C105.66 71 106.32 71 107 71C106.542 67.5306 106.109 64.326 105 61C104.322 61.1573 103.644 61.3145 102.945 61.4766C98.3883 62.2864 93.7987 62.3379 89.1797 62.5234C85.74 63.039 85.1907 63.5199 83 66C79.3125 66.1875 79.3125 66.1875 76 66C76 66.99 76 67.98 76 69C74.02 69 72.04 69 70 69C70 65.37 70 61.74 70 58Z" fill="#EE3527"/>
<path d="M11 42C11.33 42 11.66 42 12 42C12 67.08 12 92.16 12 118C18.6 118 25.2 118 32 118C32.33 118.99 32.66 119.98 33 121C33.66 121 34.32 121 35 121C34.67 122.32 34.34 123.64 34 125C33.3606 124.526 32.7212 124.051 32.0625 123.562C28.0782 121.53 24.4151 121.279 20 121C18.8422 124.473 18.9313 127.361 19 131C20.32 131.66 21.64 132.32 23 133C20.03 133.495 20.03 133.495 17 134C17 133.34 17 132.68 17 132C16.01 132 15.02 132 14 132C14 130.02 14 128.04 14 126C13.01 126 12.02 126 11 126C11 98.28 11 70.56 11 42Z" fill="#AF6B49"/>
<path d="M80 93C80.33 93 80.66 93 81 93C81.33 102.24 81.66 111.48 82 121C66.82 121 51.64 121 36 121C35.67 121.99 35.34 122.98 35 124C35 123.01 35 122.02 35 121C34.34 121 33.68 121 33 121C32.67 120.01 32.34 119.02 32 118C57.0344 115.017 57.0344 115.017 65 119C65 118.01 65 117.02 65 116C69 115 69 115 80 115C80 107.74 80 100.48 80 93Z" fill="#D3A171"/>
<path d="M28 98C29.6754 98.286 31.3439 98.6178 33 99C33 101.31 33 103.62 33 106C34.3922 105.907 34.3922 105.907 35.8125 105.812C39 106 39 106 40.875 107.188C42.3409 109.549 42.0805 111.268 42 114C37.8542 114.029 33.7084 114.047 29.5625 114.062C27.7865 114.075 27.7865 114.075 25.9746 114.088C24.8499 114.091 23.7252 114.094 22.5664 114.098C21.0032 114.106 21.0032 114.106 19.4084 114.114C17 114 17 114 16 113C16 111.35 16 109.7 16 108C20.62 108 25.24 108 30 108C30 107.01 30 106.02 30 105C29.01 105 28.02 105 27 105C26.9575 103 26.9592 101 27 99C27.33 98.67 27.66 98.34 28 98Z" fill="#F1DAA6"/>
<path d="M8.00002 13C8.99002 13.33 9.98002 13.66 11 14C10.34 14 9.68002 14 9.00002 14C9.33002 23.57 9.66002 33.14 10 43C10.33 43 10.66 43 11 43C11 70.39 11 97.78 11 126C11.99 126 12.98 126 14 126C14 127.98 14 129.96 14 132C13.01 131.67 12.02 131.34 11 131C11.495 130.505 11.495 130.505 12 130C11.3494 129.563 10.6987 129.127 10.0284 128.677C6.84566 124.477 7.47512 120.303 7.54592 115.173C7.54533 114.07 7.54475 112.967 7.54415 111.831C7.54693 108.184 7.57806 104.538 7.60939 100.891C7.61685 98.3629 7.62255 95.8351 7.62654 93.3073C7.64026 87.3326 7.67179 81.3583 7.71194 75.3837C7.75667 68.5809 7.77865 61.778 7.79872 54.9751C7.84052 40.9832 7.91087 26.9916 8.00002 13Z" fill="#140207"/>
<path d="M99 89C99.66 89 100.32 89 101 89C100.34 96.59 99.68 104.18 99 112C99.99 112 100.98 112 102 112C102 109.69 102 107.38 102 105C103.32 105 104.64 105 106 105C106 107.64 106 110.28 106 113C130.255 113.495 130.255 113.495 155 114C155 115.32 155 116.64 155 118C148.4 118 141.8 118 135 118C135 117.34 135 116.68 135 116C116.685 115.505 116.685 115.505 98 115C97.67 112.69 97.34 110.38 97 108C96.67 108 96.34 108 96 108C96 104.7 96 101.4 96 98C96.99 98 97.98 98 99 98C99 95.03 99 92.06 99 89Z" fill="#DEB685"/>
<path d="M137 129C142.28 129.66 147.56 130.32 153 131C151.68 131.66 150.36 132.32 149 133C149 133.99 149 134.98 149 136C112.37 136 75.74 136 38 136C38 135.67 38 135.34 38 135C39.6968 134.988 39.6968 134.988 41.4278 134.975C52.0811 134.898 62.7344 134.81 73.3875 134.712C78.8646 134.662 84.3417 134.616 89.8188 134.578C95.1033 134.541 100.388 134.495 105.672 134.442C107.689 134.423 109.707 134.408 111.724 134.397C114.547 134.38 117.37 134.351 120.192 134.319C121.029 134.317 121.865 134.315 122.727 134.312C126.681 134.255 129.588 134.053 133 132C135.25 132.375 135.25 132.375 137 133C137 131.68 137 130.36 137 129Z" fill="#A3594C"/>
<path d="M16 43C30.85 43 45.7 43 61 43C61 43.66 61 44.32 61 45C61.66 45.66 62.32 46.32 63 47C47.49 47 31.98 47 16 47C16 45.68 16 44.36 16 43Z" fill="#BEA07C"/>
<path d="M16 113C42.235 113.99 42.235 113.99 69 115C67.68 115.33 66.36 115.66 65 116C65 116.99 65 117.98 65 119C64.2798 118.929 63.5596 118.857 62.8176 118.783C52.9276 117.903 43.1086 117.885 33.1875 117.938C31.5124 117.943 29.8372 117.947 28.1621 117.951C24.108 117.962 20.054 117.979 16 118C16 116.35 16 114.7 16 113Z" fill="#D09D6A"/>
<path d="M129 3C129.99 3 130.98 3 132 3C132.495 13.395 132.495 13.395 133 24C132.01 24 131.02 24 130 24C130 19.71 130 15.42 130 11C100.677 9.87312 71.3394 9.46867 42 9C42 8.67 42 8.34 42 8C70.38 7.67 98.76 7.34 128 7C128.33 5.68 128.66 4.36 129 3Z" fill="#1C020B"/>
<path d="M101 71C101.178 75.5481 100.998 78.8794 99 83C98.01 83 97.02 83 96 83C96 86.63 96 90.26 96 94C93.36 94 90.72 94 88 94C87.67 90.7 87.34 87.4 87 84C87.99 84 88.98 84 90 84C90.4022 83.1647 90.4022 83.1647 90.8125 82.3125C96.6216 71 96.6216 71 101 71Z" fill="#E52419"/>
<path d="M155 46.9999C154.67 48.6499 154.34 50.2999 154 51.9999C149.71 51.9999 145.42 51.9999 141 51.9999C140.67 53.3199 140.34 54.6399 140 55.9999C137.625 56.6249 137.625 56.6249 135 56.9999C134.34 56.3399 133.68 55.6799 133 54.9999C133 53.6799 133 52.3599 133 50.9999C131.35 51.3299 129.7 51.6599 128 51.9999C127.67 50.6799 127.34 49.3599 127 47.9999C136.379 47.2017 145.588 46.8712 155 46.9999Z" fill="#F6EECE"/>
<path d="M147.625 120.813C148.608 120.819 149.59 120.825 150.602 120.832C153 121 153 121 154 122C154.073 123.853 154.084 125.708 154.063 127.563C154.054 128.574 154.045 129.586 154.035 130.629C154.024 131.411 154.012 132.194 154 133C153.67 132.34 153.34 131.68 153 131C152.169 131.035 151.337 131.07 150.481 131.106C148.851 131.146 148.851 131.146 147.188 131.188C146.109 131.222 145.03 131.257 143.918 131.293C141 131 141 131 139.106 129.648C138 128 138 128 138.125 125.438C139.846 120.644 143.12 120.747 147.625 120.813Z" fill="#D28662"/>
<path d="M19.9994 121C22.058 120.602 22.058 120.602 24.4369 120.625C25.2193 120.617 26.0018 120.61 26.808 120.602C29.5245 121.095 30.4149 121.754 31.9994 124C32.3902 126.725 32.1355 129.231 31.9994 132C29.8536 132.027 27.7078 132.046 25.5619 132.062C24.3669 132.074 23.172 132.086 21.9408 132.098C18.9994 132 18.9994 132 17.9994 131C17.6404 124.538 17.6404 124.538 19.9994 121Z" fill="#CF855E"/>
<path d="M133 28C136.96 28 140.92 28 145 28C145 29.98 145 31.96 145 34C146.32 34 147.64 34 149 34C149 34.99 149 35.98 149 37C152.3 37 155.6 37 159 37C159 37.33 159 37.66 159 38C137.55 38 116.1 38 94 38C94 37.67 94 37.34 94 37C95.6027 36.9703 95.6027 36.9703 97.2378 36.9399C101.245 36.8632 105.252 36.7746 109.259 36.6826C110.985 36.6446 112.711 36.6097 114.438 36.5781C123.5 36.4103 132.161 36.2323 141 34C141.33 32.68 141.66 31.36 142 30C139.03 29.67 136.06 29.34 133 29C133 28.67 133 28.34 133 28Z" fill="#B11A18"/>
<path d="M81.0002 93C81.6602 93 82.3202 93 83.0002 93C83.0002 100.59 83.0002 108.18 83.0002 116C86.3002 116 89.6002 116 93.0002 116C93.0002 108.74 93.0002 101.48 93.0002 94C93.6602 94 94.3202 94 95.0002 94C95.0002 102.58 95.0002 111.16 95.0002 120C82.1252 119.125 82.1252 119.125 81.0002 118C80.9128 116.146 80.8932 114.289 80.9025 112.434C80.9057 111.309 80.9089 110.184 80.9123 109.025C80.9206 107.841 80.929 106.657 80.9377 105.438C80.9422 104.25 80.9467 103.062 80.9513 101.838C80.9632 98.8919 80.9796 95.946 81.0002 93Z" fill="#610E0C"/>
<path d="M133 3C137.29 3 141.58 3 146 3C146 6.63 146 10.26 146 14C142.7 14 139.4 14 136 14C136 13.01 136 12.02 136 11C135.01 11 134.02 11 133 11C133 8.36 133 5.72 133 3Z" fill="#F9D837"/>
<path d="M12 20C14.97 20.495 14.97 20.495 18 21C18 22.65 18 24.3 18 26C20.475 26.99 20.475 26.99 23 28C23 28.66 23 29.32 23 30C24.32 30 25.64 30 27 30C27 31.32 27 32.64 27 34C23.7 34 20.4 34 17 34C17 32.68 17 31.36 17 30C16.01 30 15.02 30 14 30C13.67 30.99 13.34 31.98 13 33C12.67 33 12.34 33 12 33C12 28.71 12 24.42 12 20Z" fill="#F54A31"/>
<path d="M110.461 117.902C111.647 117.905 111.647 117.905 112.857 117.907C115.363 117.912 117.869 117.925 120.375 117.938C122.082 117.943 123.789 117.947 125.496 117.951C129.664 117.962 133.832 117.979 138 118C138 119.32 138 120.64 138 122C137.34 122 136.68 122 136 122C135.67 122.99 135.34 123.98 135 125C135 123.68 135 122.36 135 121C122.13 121 109.26 121 96 121C96 120.34 96 119.68 96 119C100.843 118.032 105.541 117.869 110.461 117.902Z" fill="#C48B5C"/>
<path d="M152 20C153.98 20 155.96 20 158 20C158 24.62 158 29.24 158 34C156.68 34 155.36 34 154 34C154 33.01 154 32.02 154 31C152.68 31 151.36 31 150 31C150 31.99 150 32.98 150 34C148.35 34 146.7 34 145 34C145 32.68 145 31.36 145 30C146.32 30 147.64 30 149 30C149.33 28.68 149.66 27.36 150 26C150.66 26 151.32 26 152 26C152 24.02 152 22.04 152 20Z" fill="#F94C36"/>
<path d="M11 42C11.33 42 11.66 42 12 42C12 69.39 12 96.78 12 125C12.99 125 13.98 125 15 125C15.33 126.65 15.66 128.3 16 130C18.31 130.66 20.62 131.32 23 132C22.01 132.99 22.01 132.99 21 134C19.68 134 18.36 134 17 134C17 133.34 17 132.68 17 132C16.01 132 15.02 132 14 132C14 130.02 14 128.04 14 126C13.01 126 12.02 126 11 126C11 98.28 11 70.56 11 42Z" fill="#824F42"/>
<path d="M38 3C38.99 3 39.98 3 41 3C41 10.26 41 17.52 41 25C39.68 25 38.36 25 37 25C37 25.99 37 26.98 37 28C35.5626 28.0271 34.1251 28.0465 32.6875 28.0625C31.4867 28.0799 31.4867 28.0799 30.2617 28.0977C28 28 28 28 25 27C25 26.34 25 25.68 25 25C28.63 24.67 32.26 24.34 36 24C36 23.01 36 22.02 36 21C36.66 21 37.32 21 38 21C38 15.06 38 9.12 38 3Z" fill="#330407"/>
<path d="M54 105C56.0625 105.438 56.0625 105.438 58 106C58 106.99 58 107.98 58 109C60.31 109 62.62 109 65 109C65 110.65 65 112.3 65 114C69.95 114 74.9 114 80 114C80 114.33 80 114.66 80 115C68.45 115 56.9 115 45 115C45 114.67 45 114.34 45 114C47.97 114 50.94 114 54 114C53.8144 112.701 53.6287 111.401 53.4375 110.062C53.1211 107.848 53.1211 107.848 53 106C53.33 105.67 53.66 105.34 54 105Z" fill="#F2D9A7"/>
<path d="M141 54C146.94 54 152.88 54 159 54C159 61.26 159 68.52 159 76C157.02 76.99 157.02 76.99 155 78C155 70.41 155 62.82 155 55C150.38 55 145.76 55 141 55C141 54.67 141 54.34 141 54Z" fill="#D8B283"/>
<path d="M24.0004 13C25.9379 13.3125 25.9379 13.3125 28.0004 14C28.3304 14.99 28.6604 15.98 29.0004 17C30.9757 16.6521 30.9757 16.6521 33.0004 16C33.3304 15.34 33.6604 14.68 34.0004 14C34.9904 14 35.9804 14 37.0004 14C37.1254 20.625 37.1254 20.625 36.0004 24C32.3704 24 28.7404 24 25.0004 24C23.7977 21.5945 23.8997 20.05 23.9379 17.375C23.9469 16.5577 23.9559 15.7405 23.9652 14.8984C23.9768 14.272 23.9884 13.6455 24.0004 13Z" fill="#D97D22"/>
<path d="M136 101C137.32 101 138.64 101 140 101C139.67 104.96 139.34 108.92 139 113C143.95 113 148.9 113 154 113C154 111.68 154 110.36 154 109C149.71 109 145.42 109 141 109C141 108.67 141 108.34 141 108C145.62 108 150.24 108 155 108C155 109.98 155 111.96 155 114C148.07 114 141.14 114 134 114C134.875 102.125 134.875 102.125 136 101Z" fill="#F4E2B7"/>
<path d="M12 46C12.99 46.33 13.98 46.66 15 47C15.33 48.32 15.66 49.64 16 51C20.29 51 24.58 51 29 51C29 52.32 29 53.64 29 55C24.71 55 20.42 55 16 55C16 62.59 16 70.18 16 78C15.67 78 15.34 78 15 78C15 70.41 15 62.82 15 55C14.01 55 13.02 55 12 55C12 52.03 12 49.06 12 46Z" fill="#D5AB7B"/>
<path d="M65.125 118C66.2723 118.095 67.4195 118.191 68.6016 118.289C71.4014 118.522 74.2008 118.759 77 119C77 119.33 77 119.66 77 120C63.47 120 49.94 120 36 120C35.67 121.32 35.34 122.64 35 124C35 123.01 35 122.02 35 121C34.34 121 33.68 121 33 121C32.67 120.01 32.34 119.02 32 118C33.4575 117.826 34.9161 117.662 36.375 117.5C37.1871 117.407 37.9992 117.314 38.8359 117.219C47.6519 116.609 56.3355 117.244 65.125 118Z" fill="#C99260"/>
<path d="M70 59C79.9 59 89.8 59 100 59C97.3601 61.6399 96.0205 61.3024 92.3359 61.4141C91.2145 61.4527 90.093 61.4914 88.9375 61.5312C87.7619 61.5622 86.5862 61.5931 85.375 61.625C84.1916 61.6637 83.0083 61.7023 81.7891 61.7422C78.8595 61.8367 75.93 61.9222 73 62C73 64.31 73 66.62 73 69C72.01 69 71.02 69 70 69C70 65.7 70 62.4 70 59Z" fill="#FD6142"/>
<path d="M77 67C83.6 67 90.2 67 97 67C97.33 67.99 97.66 68.98 98 70C97.34 70 96.68 70 96 70C96 71.32 96 72.64 96 74C95.01 74 94.02 74 93 74C92.67 74.66 92.34 75.32 92 76C92.33 74.02 92.66 72.04 93 70C87.72 70 82.44 70 77 70C77 70.66 77 71.32 77 72C74.03 72 71.06 72 68 72C68 71.67 68 71.34 68 71C68.5659 70.8788 69.1318 70.7577 69.7148 70.6328C70.8151 70.3814 70.8151 70.3814 71.9375 70.125C72.6684 69.9626 73.3993 69.8002 74.1523 69.6328C76.207 69.1704 76.207 69.1704 77 67Z" fill="#68241F"/>
<path d="M68 55C82.19 55 96.38 55 111 55C111 55.33 111 55.66 111 56C99.78 56.33 88.56 56.66 77 57C77 57.33 77 57.66 77 58C74.69 58 72.38 58 70 58C70 61.63 70 65.26 70 69C71.98 69 73.96 69 76 69C75.34 69.66 74.68 70.32 74 71C72.02 71 70.04 71 68 71C68 65.72 68 60.44 68 55Z" fill="#A44237"/>
<path d="M131 0C136.61 0 142.22 0 148 0C148 0.66 148 1.32 148 2C148.99 2.33 149.98 2.66 151 3C149.68 3 148.36 3 147 3C147 7.95 147 12.9 147 18C146.67 18 146.34 18 146 18C146 13.05 146 8.1 146 3C141.71 3 137.42 3 133 3C133 8.94 133 14.88 133 21C132.67 21 132.34 21 132 21C132 15.06 132 9.12 132 3C131.01 2.67 130.02 2.34 129 2C129.66 2 130.32 2 131 2C131 1.34 131 0.68 131 0Z" fill="#57372B"/>
<path d="M151 19C150.67 20.65 150.34 22.3 150 24C148.68 24.33 147.36 24.66 146 25C146 25.99 146 26.98 146 28C141.71 28 137.42 28 133 28C133 25.69 133 23.38 133 21C133.33 21.99 133.66 22.98 134 24C137.63 24 141.26 24 145 24C145 22.68 145 21.36 145 20C147 19 147 19 151 19Z" fill="#460F09"/>
<path d="M154 42C155.65 42 157.3 42 159 42C159 45.96 159 49.92 159 54C153.06 54 147.12 54 141 54C141 53.34 141 52.68 141 52C147.435 51.505 147.435 51.505 154 51C154 49.68 154 48.36 154 47C153.34 46.34 152.68 45.68 152 45C152.66 45 153.32 45 154 45C154 44.01 154 43.02 154 42Z" fill="#AF7A55"/>
<path d="M16 113C25.57 113.33 35.14 113.66 45 114C45 114.33 45 114.66 45 115C43.8437 115.073 43.8437 115.073 42.6641 115.148C41.6612 115.223 40.6583 115.298 39.625 115.375C38.6273 115.445 37.6295 115.514 36.6016 115.586C33.8449 115.764 33.8449 115.764 32 118C29.2551 118.145 26.6152 118.187 23.875 118.125C23.1209 118.116 22.3668 118.107 21.5898 118.098C19.7264 118.074 17.8632 118.038 16 118C16 116.35 16 114.7 16 113Z" fill="#E4C48C"/>
<path d="M13 105C18.61 105 24.22 105 30 105C30 105.99 30 106.98 30 108C25.38 108 20.76 108 16 108C16 111.3 16 114.6 16 118C15.01 118 14.02 118 13 118C13 113.71 13 109.42 13 105Z" fill="#CC965E"/>
<path d="M99 89C99.66 89 100.32 89 101 89C100.34 96.59 99.68 104.18 99 112C99.99 112 100.98 112 102 112C102 109.69 102 107.38 102 105C103.32 105 104.64 105 106 105C106 107.64 106 110.28 106 113C102.04 113.495 102.04 113.495 98 114C97.67 112.02 97.34 110.04 97 108C96.67 108 96.34 108 96 108C96 104.7 96 101.4 96 98C96.99 98 97.98 98 99 98C99 95.03 99 92.06 99 89Z" fill="#DED9BA"/>
<path d="M112 29C116.29 29 120.58 29 125 29C124.67 30.32 124.34 31.64 124 33C124 32.34 124 31.68 124 31C119.585 32.2697 119.585 32.2697 116 35C113.08 34.9825 110.277 34.8606 107.375 34.625C106.573 34.5683 105.771 34.5116 104.945 34.4531C102.963 34.3115 100.981 34.157 99 34C100.312 32 100.312 32 102 30C102.99 30 103.98 30 105 30C105 30.99 105 31.98 105 33C106.98 32.67 108.96 32.34 111 32C111.33 31.01 111.66 30.02 112 29Z" fill="#D6281F"/>
<path d="M141 105C146.61 105.33 152.22 105.66 158 106C159.262 108.525 159.099 110.312 159.062 113.125C159.053 114.035 159.044 114.945 159.035 115.883C159.024 116.581 159.012 117.28 159 118C157.68 118 156.36 118 155 118C155 114.7 155 111.4 155 108C150.38 108 145.76 108 141 108C141 107.01 141 106.02 141 105Z" fill="#DBA16E"/>
<path d="M11 9C11.33 9 11.66 9 12 9C12 11.64 12 14.28 12 17C12.66 17 13.32 17 14 17C14.33 17.99 14.66 18.98 15 20C14.01 20 13.02 20 12 20C12 25.61 12 31.22 12 37C23.88 37 35.76 37 48 37C48 37.33 48 37.66 48 38C35.79 38 23.58 38 11 38C11 29.75 11 21.5 11 13C10.01 12.67 9.02 12.34 8 12C8.99 12 9.98 12 11 12C11 11.01 11 10.02 11 9Z" fill="#9E2424"/>
<path d="M129 3C129.99 3 130.98 3 132 3C132.495 13.395 132.495 13.395 133 24C132.01 24 131.02 24 130 24C130 19.71 130 15.42 130 11C119.77 10.67 109.54 10.34 99 10C99 9.67 99 9.34 99 9C108.57 9 118.14 9 128 9C128.33 7.02 128.66 5.04 129 3Z" fill="#3A0F1A"/>
<path d="M127 48C131.29 48 135.58 48 140 48C139.67 50.97 139.34 53.94 139 57C137.35 56.67 135.7 56.34 134 56C133.67 54.35 133.34 52.7 133 51C131.35 51.33 129.7 51.66 128 52C127.67 50.68 127.34 49.36 127 48Z" fill="#E8CC9A"/>
<path d="M16 108C17.7909 107.919 19.5829 107.861 21.375 107.812C22.8716 107.76 22.8716 107.76 24.3985 107.707C25.257 107.804 26.1155 107.9 27 108C29 111 29 111 29 114C27.0209 114.027 25.0417 114.046 23.0625 114.062C21.9604 114.074 20.8582 114.086 19.7227 114.098C17 114 17 114 16 113C15.9594 111.334 15.9573 109.666 16 108Z" fill="#FCF8DB"/>
<path d="M137 78C142.94 78 148.88 78 155 78C155 79.32 155 80.64 155 82C149.06 82 143.12 82 137 82C137 80.68 137 79.36 137 78Z" fill="#D8BD90"/>
<path d="M34 4C34.99 4 35.98 4 37 4C37 7.3 37 10.6 37 14C36.01 14 35.02 14 34 14C33.34 15.32 32.68 16.64 32 18C30.68 17.67 29.36 17.34 28 17C28 15.35 28 13.7 28 12C31 12 31 12 34 13C33.8144 11.7006 33.6287 10.4013 33.4375 9.0625C33.1211 6.84766 33.1211 6.84766 33 5C33.33 4.67 33.66 4.34 34 4Z" fill="#FDDA4E"/>
<path d="M16 78C21.28 78 26.56 78 32 78C32 79.32 32 80.64 32 82C26.72 82 21.44 82 16 82C16 80.68 16 79.36 16 78Z" fill="#CCAD7F"/>
<path d="M12 11C14.64 11 17.28 11 20 11C20 13.64 20 16.28 20 19C18.35 19.33 16.7 19.66 15 20C14.67 19.01 14.34 18.02 14 17C13.34 17 12.68 17 12 17C12 15.02 12 13.04 12 11Z" fill="#B11919"/>
<path d="M81.0002 93C81.6602 93 82.3202 93 83.0002 93C83.0002 100.59 83.0002 108.18 83.0002 116C86.3002 116 89.6002 116 93.0002 116C93.0002 116.33 93.0002 116.66 93.0002 117C89.7002 117 86.4002 117 83.0002 117C82.6702 117.66 82.3402 118.32 82.0002 119C81.0002 118 81.0002 118 80.8867 115.592C80.892 114.549 80.8972 113.507 80.9026 112.434C80.9058 111.309 80.909 110.184 80.9124 109.025C80.9207 107.841 80.9291 106.657 80.9377 105.438C80.9423 104.25 80.9468 103.062 80.9514 101.838C80.9632 98.8919 80.9797 95.946 81.0002 93Z" fill="#7E1310"/>
<path d="M13 119C15.97 119 18.94 119 22 119C22 119.66 22 120.32 22 121C21.34 121 20.68 121 20 121C19.8904 121.638 19.7809 122.276 19.668 122.934C19.5094 123.76 19.3509 124.586 19.1875 125.438C19.0367 126.261 18.8859 127.085 18.7305 127.934C18.4894 128.616 18.2484 129.297 18 130C17.01 130.33 16.02 130.66 15 131C15 129.02 15 127.04 15 125C14.34 125 13.68 125 13 125C13 123.02 13 121.04 13 119Z" fill="#AC6143"/>
<path d="M157 126C157.99 126 158.98 126 160 126C160 127.98 160 129.96 160 132C159.34 132 158.68 132 158 132C158 132.99 158 133.98 158 135C157.34 135 156.68 135 156 135C156 135.66 156 136.32 156 137C154.02 137 152.04 137 150 137C150 135.68 150 134.36 150 133C150.897 132.938 150.897 132.938 151.812 132.875C154.351 132.123 154.351 132.123 155.75 128.938C156.162 127.968 156.575 126.999 157 126Z" fill="#260F1A"/>
<path d="M133 11C133.99 11 134.98 11 136 11C136 11.99 136 12.98 136 14C137.98 14 139.96 14 142 14C142.33 13.34 142.66 12.68 143 12C143.33 12.99 143.66 13.98 144 15C141.934 17.7955 140.931 18.0107 137.375 18.5625C136.261 18.7069 135.148 18.8512 134 19C133.67 19.66 133.34 20.32 133 21C133 17.7 133 14.4 133 11Z" fill="#F7C21D"/>
<path d="M73 62C77.29 62 81.58 62 86 62C84.515 63.98 84.515 63.98 83 66C79.3125 66.25 79.3125 66.25 76 66C76 66.99 76 67.98 76 69C75.01 69 74.02 69 73 69C73 66.69 73 64.38 73 62Z" fill="#EE251B"/>
<path d="M65 16C67.31 16.33 69.62 16.66 72 17C71.125 21.875 71.125 21.875 70 23C68.4748 22.9106 66.9532 22.7546 65.4375 22.5625C64.1981 22.4097 64.1981 22.4097 62.9336 22.2539C62.2955 22.1701 61.6574 22.0863 61 22C61 21.34 61 20.68 61 20C60.34 20 59.68 20 59 20C58.67 19.01 58.34 18.02 58 17C58.66 17 59.32 17 60 17C60 17.66 60 18.32 60 19C61.65 19.33 63.3 19.66 65 20C65 18.68 65 17.36 65 16Z" fill="#D12D21"/>
<path d="M113 115C120.26 115 127.52 115 135 115C135 115.99 135 116.98 135 118C123.615 117.505 123.615 117.505 112 117C112.33 116.34 112.66 115.68 113 115Z" fill="#D6A573"/>
<path d="M118 47C120.97 47 123.94 47 127 47C127 47.33 127 47.66 127 48C125.02 48 123.04 48 121 48C121 49.98 121 51.96 121 54C119.68 54 118.36 54 117 54C117 54.99 117 55.98 117 57C117.66 57 118.32 57 119 57C119 57.99 119 58.98 119 60C117.35 60 115.7 60 114 60C114 57.69 114 55.38 114 53C114.99 53 115.98 53 117 53C117.33 51.02 117.66 49.04 118 47Z" fill="#EED9AD"/>
<path d="M20 3C20.99 3.33 21.98 3.66 23 4C22.67 6.31 22.34 8.62 22 11C18.7 11 15.4 11 12 11C11.67 9.68 11.34 8.36 11 7C13.97 7 16.94 7 20 7C20 5.68 20 4.36 20 3Z" fill="#36262C"/>
<path d="M10 127C11.485 127.99 11.485 127.99 13 129C13 129.66 13 130.32 13 131C14.32 131.33 15.64 131.66 17 132C17 132.66 17 133.32 17 134C18.32 134 19.64 134 21 134C21 134.99 21 135.98 21 137C22.65 137 24.3 137 26 137C24 138 22 139 20 140C20 139.34 20 138.68 20 138C18.68 138 17.36 138 16 138C16 137.34 16 136.68 16 136C15.01 136 14.02 136 13 136C13 135.01 13 134.02 13 133C12.01 133 11.02 133 10 133C10 131.02 10 129.04 10 127Z" fill="#331D23"/>
<path d="M22 0C27.28 0 32.56 0 38 0C38 0.66 38 1.32 38 2C38.99 2.33 39.98 2.66 41 3C40.01 3 39.02 3 38 3C38 8.94 38 14.88 38 21C37.67 21 37.34 21 37 21C37 15.06 37 9.12 37 3C35.2675 3.06188 33.535 3.12375 31.75 3.1875C26.8509 3.36247 26.2047 3.15353 22 0Z" fill="#462923"/>
<path d="M104 72C105.65 72 107.3 72 109 72C108.34 74.31 107.68 76.62 107 79C106.34 79 105.68 79 105 79C105 79.66 105 80.32 105 81C104.34 81 103.68 81 103 81C102.67 83.31 102.34 85.62 102 88C101.67 88 101.34 88 101 88C100.778 86.3977 100.573 84.793 100.375 83.1875C100.259 82.2942 100.143 81.4009 100.024 80.4805C100 78 100 78 102 75C102.66 75 103.32 75 104 75C104 74.01 104 73.02 104 72Z" fill="#7F5449"/>
<path d="M133 3C137.29 3 141.58 3 146 3C144.68 3.33 143.36 3.66 142 4C141.67 5.65 141.34 7.3 141 9C138.36 9 135.72 9 133 9C133 7.02 133 5.04 133 3Z" fill="#F6F2C1"/>
<path d="M38 26C38.99 26 39.98 26 41 26C41 27.32 41 28.64 41 30C42.65 30 44.3 30 46 30C46 30.33 46 30.66 46 31C44.02 31 42.04 31 40 31C40 31.99 40 32.98 40 34C38.02 34 36.04 34 34 34C34 32.35 34 30.7 34 29C34.99 28.67 35.98 28.34 37 28C37.33 27.34 37.66 26.68 38 26Z" fill="#EA3C26"/>
<path d="M34 115C36.522 114.751 36.522 114.751 39.6641 114.926C41.3463 115.008 41.3463 115.008 43.0625 115.092C44.2381 115.165 45.4138 115.238 46.625 115.313C48.4 115.404 48.4 115.404 50.2109 115.498C53.1416 115.652 56.0708 115.82 59 116C59 116.33 59 116.66 59 117C45.635 117.495 45.635 117.495 32 118C32.66 117.01 33.32 116.02 34 115Z" fill="#DBA974"/>
<path d="M16 48C19.63 48 23.26 48 27 48C27 49.32 27 50.64 27 52C23.37 52 19.74 52 16 52C16 50.68 16 49.36 16 48Z" fill="#F8F3D4"/>
<path d="M11 109C11.33 109 11.66 109 12 109C12 114.28 12 119.56 12 125C12.99 125 13.98 125 15 125C15.33 126.65 15.66 128.3 16 130C18.31 130.66 20.62 131.32 23 132C22.34 132.66 21.68 133.32 21 134C19.68 134 18.36 134 17 134C17 133.34 17 132.68 17 132C16.01 132 15.02 132 14 132C14 130.02 14 128.04 14 126C13.01 126 12.02 126 11 126C11 120.39 11 114.78 11 109Z" fill="#7C4034"/>
<path d="M16 115C21.94 115 27.88 115 34 115C33.01 116.485 33.01 116.485 32 118C29.2115 118.221 26.6535 118.281 23.875 118.188C23.1209 118.174 22.3668 118.16 21.5898 118.146C19.7263 118.111 17.863 118.057 16 118C16 117.01 16 116.02 16 115Z" fill="#E0B87E"/>
<path d="M136 101C137.32 101 138.64 101 140 101C139.25 108.625 139.25 108.625 137 112C135 110 135 110 134.77 108.09C134.889 102.111 134.889 102.111 136 101Z" fill="#E6C38D"/>
<path d="M132.125 63.9374C133.074 64.2881 134.022 64.6387 135 64.9999C135 65.9899 135 66.9799 135 67.9999C132.291 69.3543 129.991 69.065 127 68.9999C127 67.3499 127 65.6999 127 63.9999C129 62.9999 129 62.9999 132.125 63.9374Z" fill="#F4DFB5"/>
<path d="M38 3C38.99 3 39.98 3 41 3C41.0539 4.95804 41.0927 6.91649 41.125 8.875C41.1482 9.96555 41.1714 11.0561 41.1953 12.1797C41 15 41 15 39 17C38 16 38 16 37.9023 13.0586C37.9139 11.8636 37.9255 10.6687 37.9375 9.4375C37.9465 8.23996 37.9555 7.04242 37.9648 5.80859C37.9764 4.88176 37.988 3.95492 38 3Z" fill="#250809"/>
<path d="M141 105C146.61 105.33 152.22 105.66 158 106C158 106.66 158 107.32 158 108C152.39 108 146.78 108 141 108C141 107.01 141 106.02 141 105Z" fill="#BC865A"/>
<path d="M46 96C47.98 96 49.96 96 52 96C52 97.65 52 99.3 52 101C48.9897 101.934 48.1335 102.044 45 101C45.33 99.35 45.66 97.7 46 96Z" fill="#E9D7A7"/>
<path d="M29 51C29 52.32 29 53.64 29 55C23.72 54.67 18.44 54.34 13 54C13 53.34 13 52.68 13 52C15.2916 51.8325 17.5833 51.666 19.875 51.5C21.1512 51.4072 22.4273 51.3144 23.7422 51.2188C25.4924 51.1012 27.2459 51 29 51Z" fill="#B07D50"/>
<path d="M25 4C27.97 4 30.94 4 34 4C33.34 5.65 32.68 7.3 32 9C29.69 8.67 27.38 8.34 25 8C25 6.68 25 5.36 25 4Z" fill="#FDFBCA"/>
<path d="M33 48C35.31 48 37.62 48 40 48C40 49.32 40 50.64 40 52C39 53 39 53 35.9375 53.0625C34.9681 53.0419 33.9987 53.0213 33 53C32.67 52.01 32.34 51.02 32 50C32.33 49.34 32.66 48.68 33 48Z" fill="#EFDEAF"/>
<path d="M20 19C20 20.98 20 22.96 20 25C21.32 25 22.64 25 24 25C24 26.32 24 27.64 24 29C25.32 29 26.64 29 28 29C28 30.65 28 32.3 28 34C27.67 32.68 27.34 31.36 27 30C25.68 30 24.36 30 23 30C23 29.34 23 28.68 23 28C20.525 27.01 20.525 27.01 18 26C18 24.35 18 22.7 18 21C17.34 20.67 16.68 20.34 16 20C19 19 19 19 20 19Z" fill="#C4291D"/>
<path d="M49 28C50.32 28 51.64 28 53 28C53 28.66 53 29.32 53 30C54.32 30 55.64 30 57 30C57 31.32 57 32.64 57 34C54.69 34 52.38 34 50 34C49.67 32.02 49.34 30.04 49 28Z" fill="#D42B1E"/>
<path d="M138 118C144.93 118 151.86 118 159 118C159 118.33 159 118.66 159 119C155.37 119 151.74 119 148 119C148 119.66 148 120.32 148 121C143.061 121.337 142.215 121.161 138 118Z" fill="#AF684C"/>
<path d="M32 81C35 83 35 83 35.5117 85.1641C35.5697 85.9762 35.6277 86.7883 35.6875 87.625C35.7532 88.4423 35.819 89.2595 35.8867 90.1016C35.9241 90.728 35.9615 91.3545 36 92C34.68 92 33.36 92 32 92C32 88.37 32 84.74 32 81Z" fill="#F4E6B7"/>
<path d="M41 15C41 18.3 41 21.6 41 25C39.35 24.67 37.7 24.34 36 24C36 23.01 36 22.02 36 21C36.66 21 37.32 21 38 21C38 19.35 38 17.7 38 16C40 15 40 15 41 15Z" fill="#440C07"/>
<path d="M28 98C29.6754 98.286 31.3439 98.6178 33 99C32.67 100.65 32.34 102.3 32 104C30.35 104 28.7 104 27 104C26.9573 102.334 26.9594 100.666 27 99C27.33 98.67 27.66 98.34 28 98Z" fill="#EACB8E"/>
<path d="M129 3C129.99 3 130.98 3 132 3C132.33 9.93 132.66 16.86 133 24C132.01 24 131.02 24 130 24C130.012 22.8192 130.023 21.6384 130.035 20.4219C130.045 18.8646 130.054 17.3073 130.062 15.75C130.071 14.9727 130.079 14.1954 130.088 13.3945C130.091 12.6404 130.094 11.8863 130.098 11.1094C130.103 10.4181 130.108 9.72686 130.114 9.01465C129.994 6.90026 129.576 5.03358 129 3Z" fill="#250609"/>
<path d="M36 109C37.98 109 39.96 109 42 109C42 110.65 42 112.3 42 114C40.02 114 38.04 114 36 114C36 112.35 36 110.7 36 109Z" fill="#F3D7A1"/>
<path d="M113 97C115.062 97.4375 115.062 97.4375 117 98C117.33 99.32 117.66 100.64 118 102C116.35 102.33 114.7 102.66 113 103C112.618 101.344 112.286 99.6754 112 98C112.33 97.67 112.66 97.34 113 97Z" fill="#F1DFB3"/>
<path d="M103 18C106.375 17.8125 106.375 17.8125 110 18C110.66 18.99 111.32 19.98 112 21C111.34 21 110.68 21 110 21C110 22.32 110 23.64 110 25C109.01 25 108.02 25 107 25C107.33 23.35 107.66 21.7 108 20C106.35 20 104.7 20 103 20C103 19.34 103 18.68 103 18Z" fill="#DE2F21"/>
<path d="M125 108C126.65 108 128.3 108 130 108C130.33 109.65 130.66 111.3 131 113C129.02 113 127.04 113 125 113C125 111.35 125 109.7 125 108Z" fill="#EED19C"/>
<path d="M30 105C30 105.99 30 106.98 30 108C25.38 108 20.76 108 16 108C18.3653 105.635 19.1991 105.662 22.4375 105.375C23.22 105.3 24.0024 105.225 24.8086 105.148C26.5358 105.031 28.2688 105 30 105Z" fill="#B3845A"/>
<path d="M91 74C92.65 74 94.3 74 96 74C94.68 76.31 93.36 78.62 92 81C91.67 79.68 91.34 78.36 91 77C90.34 77 89.68 77 89 77C89 78.65 89 80.3 89 82C88.34 82 87.68 82 87 82C87.33 80.02 87.66 78.04 88 76C88.99 76 89.98 76 91 76C91 75.34 91 74.68 91 74Z" fill="#BF392B"/>
<path d="M134 8C136.64 8 139.28 8 142 8C142 8.66 142 9.32 142 10C141.34 10 140.68 10 140 10C139.67 10.99 139.34 11.98 139 13C138.01 13 137.02 13 136 13C136 12.34 136 11.68 136 11C135.01 11 134.02 11 133 11C133.33 10.01 133.66 9.02 134 8Z" fill="#FBE853"/>
<path d="M34 4C34.99 4 35.98 4 37 4C37 6.64 37 9.28 37 12C36.01 12 35.02 12 34 12C33.6194 9.67391 33.2873 7.33945 33 5C33.33 4.67 33.66 4.34 34 4Z" fill="#FCDF5F"/>
<path d="M130 86C130.99 86 131.98 86 133 86C133 86.66 133 87.32 133 88C133.66 88 134.32 88 135 88C134.67 89.32 134.34 90.64 134 92C132.35 91.67 130.7 91.34 129 91C129.33 89.35 129.66 87.7 130 86Z" fill="#EFD4A9"/>
<path d="M127 48C129.64 48 132.28 48 135 48C134.67 50.31 134.34 52.62 134 55C133.67 53.68 133.34 52.36 133 51C131.35 51.33 129.7 51.66 128 52C127.67 50.68 127.34 49.36 127 48Z" fill="#F0E4B8"/>
<path d="M38 87C40.475 87.495 40.475 87.495 43 88C42.67 89.65 42.34 91.3 42 93C40.68 93 39.36 93 38 93C38 91.02 38 89.04 38 87Z" fill="#F1E0B4"/>
<path d="M44 61C44.99 61 45.98 61 47 61C47 62.98 47 64.96 47 67C45.35 67 43.7 67 42 67C42.875 62.125 42.875 62.125 44 61Z" fill="#EBD3AC"/>
<path d="M150 31C151.32 31 152.64 31 154 31C154 32.98 154 34.96 154 37C152.35 37 150.7 37 149 37C149.33 35.02 149.66 33.04 150 31Z" fill="#DE251B"/>
<path d="M25 28C28.96 28 32.92 28 37 28C35.68 28.33 34.36 28.66 33 29C33 29.99 33 30.98 33 32C31.35 32 29.7 32 28 32C28 31.01 28 30.02 28 29C27.01 28.67 26.02 28.34 25 28Z" fill="#A61F1A"/>
<path d="M36 16C36.33 16 36.66 16 37 16C36.67 18.64 36.34 21.28 36 24C32.37 24 28.74 24 25 24C24.67 23.01 24.34 22.02 24 21C24.66 21 25.32 21 26 21C26 21.66 26 22.32 26 23C28.64 23 31.28 23 34 23C34.1444 22.2163 34.2887 21.4325 34.4375 20.625C35 18 35 18 36 16Z" fill="#BE632B"/>
<path d="M104 17C108.95 17 113.9 17 119 17C117.68 18.32 116.36 19.64 115 21C113.188 20.875 113.188 20.875 111 20C109.763 19.6494 108.525 19.2988 107.25 18.9375C106.178 18.6281 105.105 18.3187 104 18C104 17.67 104 17.34 104 17Z" fill="#CD261C"/>
<path d="M97 17C99.1875 17.3125 99.1875 17.3125 101 18C100.67 19.32 100.34 20.64 100 22C99.34 22 98.68 22 98 22C97.67 22.66 97.34 23.32 97 24C97 23.01 97 22.02 97 21C96.01 20.67 95.02 20.34 94 20C95.25 18.4375 95.25 18.4375 97 17Z" fill="#D62D20"/>
<path d="M133 11C133.99 11 134.98 11 136 11C136 13.64 136 16.28 136 19C135.34 19 134.68 19 134 19C133.67 19.66 133.34 20.32 133 21C133 17.7 133 14.4 133 11Z" fill="#ECAA1E"/>
<path d="M11 8C14.3 8 17.6 8 21 8C20.67 8.99 20.34 9.98 20 11C17.36 11 14.72 11 12 11C11.67 10.01 11.34 9.02 11 8Z" fill="#2B070F"/>
<path d="M139 109C139 110.32 139 111.64 139 113C140.65 113 142.3 113 144 113C144 113.33 144 113.66 144 114C140.7 114 137.4 114 134 114C134 112.68 134 111.36 134 110C136 109 136 109 139 109Z" fill="#EFD5A2"/>
<path d="M102 105C103.32 105 104.64 105 106 105C106 107.31 106 109.62 106 112C105.01 112 104.02 112 103 112C102.67 109.69 102.34 107.38 102 105Z" fill="#EFD6A5"/>
<path d="M147 3C148.32 3 149.64 3 151 3C151 4.65 151 6.3 151 8C150.01 7.67 149.02 7.34 148 7C148 9.64 148 12.28 148 15C147.67 15 147.34 15 147 15C147 11.04 147 7.08 147 3Z" fill="#1A0607"/>
<path d="M34 107C34.66 107 35.32 107 36 107C36 109.31 36 111.62 36 114C34.68 114 33.36 114 32 114C32.875 108.125 32.875 108.125 34 107Z" fill="#FDF1BC"/>
<path d="M58 83C59.32 83 60.64 83 62 83C62 84.98 62 86.96 62 89C60.68 89 59.36 89 58 89C58 87.02 58 85.04 58 83Z" fill="#F0DCBA"/>
<path d="M118 47C120.97 47 123.94 47 127 47C127 47.33 127 47.66 127 48C125.02 48 123.04 48 121 48C121 49.65 121 51.3 121 53C120.01 53 119.02 53 118 53C118 51.02 118 49.04 118 47Z" fill="#E0CA9E"/>
<path d="M49 48C51.31 48 53.62 48 56 48C55.67 48.99 55.34 49.98 55 51C53.35 51 51.7 51 50 51C49.67 51.99 49.34 52.98 49 54C49 52.02 49 50.04 49 48Z" fill="#FCF5CA"/>
<path d="M136 31C137.98 31 139.96 31 142 31C141.67 32.32 141.34 33.64 141 35C139.35 35 137.7 35 136 35C136 33.68 136 32.36 136 31Z" fill="#D82319"/>
<path d="M133 28C136.96 28 140.92 28 145 28C144.67 28.99 144.34 29.98 144 31C140.37 30.34 136.74 29.68 133 29C133 28.67 133 28.34 133 28Z" fill="#9C1817"/>
<path d="M134 20C134.66 20 135.32 20 136 20C136 20.66 136 21.32 136 22C138.64 22.33 141.28 22.66 144 23C144.33 22.34 144.66 21.68 145 21C145 21.99 145 22.98 145 24C141.37 24 137.74 24 134 24C134 22.68 134 21.36 134 20Z" fill="#BF6D21"/>
<path d="M141 17C141.33 17.99 141.66 18.98 142 20C141.67 20.66 141.34 21.32 141 22C139.35 22 137.7 22 136 22C136 21.34 136 20.68 136 20C135.34 19.67 134.68 19.34 134 19C136.31 18.34 138.62 17.68 141 17Z" fill="#DC8716"/>
<path d="M132 122C132.99 122 133.98 122 135 122C135 122.99 135 123.98 135 125C129.72 125 124.44 125 119 125C119 124.67 119 124.34 119 124C123.29 124 127.58 124 132 124C132 123.34 132 122.68 132 122Z" fill="#E2AF77"/>
<path d="M113 110C113.598 110.186 114.196 110.371 114.812 110.562C117.164 111.221 117.164 111.221 120 110C120.33 110.99 120.66 111.98 121 113C117.7 113 114.4 113 111 113C111.66 112.01 112.32 111.02 113 110Z" fill="#EFDAA8"/>
<path d="M13 105C17.62 105 22.24 105 27 105C27 105.33 27 105.66 27 106C26.1125 106.091 26.1125 106.091 25.207 106.184C21.0902 106.62 17.0446 107.087 13 108C13 107.01 13 106.02 13 105Z" fill="#BF8E60"/>
<path d="M74 101C73.67 102.65 73.34 104.3 73 106C71.35 106 69.7 106 68 106C68.3125 104.062 68.3125 104.062 69 102C72 101 72 101 74 101Z" fill="#EDDAA4"/>
<path d="M32 51C32.66 51.33 33.32 51.66 34 52C34 55 34 55 32.5 56.6875C32.005 57.1206 31.51 57.5538 31 58C30.01 57.67 29.02 57.34 28 57C28.66 57 29.32 57 30 57C30 55.35 30 53.7 30 52C30.66 51.67 31.32 51.34 32 51Z" fill="#F9F1C8"/>
<path d="M27 109C29 111 29 111 29 114C25.04 114 21.08 114 17 114C17 113.67 17 113.34 17 113C19.97 113 22.94 113 26 113C26.33 111.68 26.66 110.36 27 109Z" fill="#FCF4C9"/>
<path d="M137.563 47.9375C138.769 47.9684 138.769 47.9684 140 48C139.67 50.31 139.34 52.62 139 55C138.67 55 138.34 55 138 55C138 53.35 138 51.7 138 50C137.01 50 136.02 50 135 50C134.67 51.32 134.34 52.64 134 54C133.957 52.3339 133.959 50.6662 134 49C135 48 135 48 137.563 47.9375Z" fill="#EDD6A8"/>
<path d="M24 22C24.33 22.66 24.66 23.32 25 24C27.97 24 30.94 24 34 24C34 24.33 34 24.66 34 25C31.03 25 28.06 25 25 25C25 25.66 25 26.32 25 27C25.99 27.33 26.98 27.66 28 28C26.68 28.33 25.36 28.66 24 29C24 27.68 24 26.36 24 25C23.34 24.67 22.68 24.34 22 24C22.66 24 23.32 24 24 24C24 23.34 24 22.68 24 22Z" fill="#4E0F0D"/>
<path d="M24 13C25.32 13.33 26.64 13.66 28 14C28.33 15.32 28.66 16.64 29 18C28.34 18 27.68 18 27 18C25.3749 19.4583 25.3749 19.4583 24 21C24 18.36 24 15.72 24 13Z" fill="#E89A2E"/>
<path d="M130 4C130.33 4 130.66 4 131 4C131 6.31 131 8.62 131 11C127.37 10.67 123.74 10.34 120 10C120 9.67 120 9.34 120 9C122.64 9 125.28 9 128 9C128 8.34 128 7.68 128 7C128.66 7 129.32 7 130 7C130 6.01 130 5.02 130 4Z" fill="#2D0D14"/>
<path d="M28.125 0.937516C29.2207 0.946539 30.3164 0.955563 31.4453 0.96486C32.2884 0.976461 33.1314 0.988063 34 1.00002C34 1.33002 34 1.66002 34 2.00002C29.71 2.66002 25.42 3.32002 21 4.00002C20.67 3.34002 20.34 2.68002 20 2.00002C22.7645 0.617756 25.0461 0.904762 28.125 0.937516Z" fill="#1E0C0F"/>
<path d="M70 62C70.99 62 71.98 62 73 62C73 64.31 73 66.62 73 69C72.01 69 71.02 69 70 69C70 66.69 70 64.38 70 62Z" fill="#FC4B35"/>
<path d="M102 30C102.99 30 103.98 30 105 30C105 30.99 105 31.98 105 33C106.32 33.33 107.64 33.66 109 34C105.7 34 102.4 34 99 34C99.99 32.68 100.98 31.36 102 30Z" fill="#DB2B1D"/>
<path d="M145 30C146.65 30 148.3 30 150 30C150 31.32 150 32.64 150 34C148.35 34 146.7 34 145 34C145 32.68 145 31.36 145 30Z" fill="#F84628"/>
<path d="M41 21C42.32 21.33 43.64 21.66 45 22C44.67 22.99 44.34 23.98 44 25C43.0306 25.1238 42.0612 25.2475 41.0625 25.375C39.5466 25.6844 39.5466 25.6844 38 26C37.67 26.66 37.34 27.32 37 28C37 27.01 37 26.02 37 25C38.32 25 39.64 25 41 25C41 23.68 41 22.36 41 21Z" fill="#C52D1F"/>
<path d="M33 128C35 131 35 131 35 133C31.04 133 27.08 133 23 133C23 132.67 23 132.34 23 132C25.97 132 28.94 132 32 132C32.33 130.68 32.66 129.36 33 128Z" fill="#AA5D43"/>
<path d="M115 107C115 110 115 110 113.75 111.625C111.826 113.137 110.39 113.588 108 114C109.453 110.171 111.429 108.879 115 107Z" fill="#FDFAD0"/>
<path d="M128 21C128.66 22.32 129.32 23.64 130 25C130.66 25 131.32 25 132 25C132 25.99 132 26.98 132 28C130.68 28 129.36 28 128 28C127.34 26.35 126.68 24.7 126 23C126.66 23 127.32 23 128 23C128 22.34 128 21.68 128 21Z" fill="#D32B1E"/>
<path d="M157 126C157.99 126 158.98 126 160 126C160 127.98 160 129.96 160 132C159.01 132 158.02 132 157 132C157 130.02 157 128.04 157 126Z" fill="#11050D"/>
<path d="M158 119C158.33 119 158.66 119 159 119C159 121.31 159 123.62 159 126C158.34 126 157.68 126 157 126C156.67 126.66 156.34 127.32 156 128C156.875 120.125 156.875 120.125 158 119Z" fill="#944E3F"/>
<path d="M32 66C33.32 66 34.64 66 36 66C35.67 67.65 35.34 69.3 35 71C34.01 70.67 33.02 70.34 32 70C32 68.68 32 67.36 32 66Z" fill="#ECDBAF"/>
<path d="M55 47C56.98 47 58.96 47 61 47C61 48.65 61 50.3 61 52C60.01 52 59.02 52 58 52C58 50.68 58 49.36 58 48C57.01 47.67 56.02 47.34 55 47Z" fill="#E5C698"/>
<path d="M155 47C155.99 47 156.98 47 158 47C158 48.98 158 50.96 158 53C156.68 52.34 155.36 51.68 154 51C154.33 49.68 154.66 48.36 155 47Z" fill="#D49B68"/>
<path d="M65 109C65 110.32 65 111.64 65 113C63.35 113 61.7 113 60 113C60 112.01 60 111.02 60 110C63 109 63 109 65 109Z" fill="#EACC9C"/>
<path d="M51 28C51.66 28 52.32 28 53 28C53 28.66 53 29.32 53 30C54.32 30 55.64 30 57 30C56.67 30.66 56.34 31.32 56 32C55.34 31.67 54.68 31.34 54 31C54 31.66 54 32.32 54 33C53.01 33 52.02 33 51 33C51 31.35 51 29.7 51 28Z" fill="#E43625"/>
<path d="M157 14C157.33 14 157.66 14 158 14C158 15.98 158 17.96 158 20C156.02 20 154.04 20 152 20C153.642 17.9795 155.309 15.9796 157 14Z" fill="#CE2118"/>
</svg>
